<svg width="19" height="16" viewBox="0 0 19 16" fill="none" xmlns="http://www.w3.org/2000/svg">
<path fill-rule="evenodd" clip-rule="evenodd" d="M0.5 7.99996C0.5 7.70159 0.618527 7.41544 0.829505 7.20446C1.04048 6.99348 1.32663 6.87496 1.625 6.87496H14.6593L9.8285 2.04646C9.61726 1.83521 9.49858 1.5487 9.49858 1.24996C9.49858 0.951211 9.61726 0.664701 9.8285 0.453457C10.0397 0.242212 10.3263 0.123535 10.625 0.123535C10.9237 0.123535 11.2103 0.242212 11.4215 0.453457L18.1715 7.20346C18.2763 7.30796 18.3594 7.4321 18.4161 7.56878C18.4728 7.70546 18.502 7.85198 18.502 7.99996C18.502 8.14793 18.4728 8.29445 18.4161 8.43113C18.3594 8.56781 18.2763 8.69195 18.1715 8.79646L11.4215 15.5465C11.2103 15.7577 10.9237 15.8764 10.625 15.8764C10.3263 15.8764 10.0397 15.7577 9.8285 15.5465C9.61726 15.3352 9.49858 15.0487 9.49858 14.75C9.49858 14.4512 9.61726 14.1647 9.8285 13.9535L14.6593 9.12496H1.625C1.32663 9.12496 1.04048 9.00643 0.829505 8.79545C0.618527 8.58447 0.5 8.29833 0.5 7.99996Z" fill="#8D8D8D"/>
</svg>
