<svg width="358" height="298" viewBox="0 0 358 298" fill="none" xmlns="http://www.w3.org/2000/svg">
<path d="M49.75 298C21.3536 298 -2.87046 288.253 -22.9223 268.759C-42.9741 249.14 -53 225.238 -53 197.053C-53 172.84 -45.7141 151.235 -31.1423 132.238C-16.4459 113.24 2.73409 101.134 26.3977 95.9187C34.2441 67.3604 49.8123 44.2654 73.1023 26.6337C96.5168 8.87791 122.983 0 152.5 0C188.992 0 219.879 12.665 245.162 37.995C270.569 63.2008 283.273 93.9942 283.273 130.375C304.819 132.858 322.629 142.171 336.703 158.312C350.901 174.206 358 192.831 358 214.188C358 237.531 349.842 257.335 333.527 273.601C317.211 289.867 297.346 298 273.932 298H49.75Z" fill="#E3E6ED" fill-opacity="0.4"/>
</svg>
