<svg width="247" height="193" viewBox="0 0 247 193" fill="none" xmlns="http://www.w3.org/2000/svg">
<circle cx="75" cy="75" r="75" fill="#E3E6ED"/>
<path d="M211.351 11.0064C202.191 20.1663 200.457 22.0511 200.118 23.3704C199.779 24.5013 199.779 26.3484 200.08 30.1933C200.269 33.0958 200.457 35.5837 200.457 35.7722C200.457 35.923 199.138 34.9806 197.555 33.6989C177.727 17.9423 150.247 11.4964 124.803 16.6607C106.935 20.2794 90.8014 29.2132 78.0981 42.5197C48.0549 74.0329 45.1901 122.848 71.3883 157.641C74.894 162.278 77.495 164.954 78.5881 164.954C79.9828 164.954 80.8498 164.351 81.3022 163.032C81.7922 161.599 81.566 161.109 77.985 156.85C64.4901 140.603 57.441 117.835 59.4389 96.7255C63.0953 58.2763 91.3291 28.0069 129.59 21.5233C134.49 20.694 146.1 20.3548 151.076 20.9202C168.755 22.9181 184.663 29.7786 197.366 40.8611L199.779 42.9343L193.408 49.3048C189.94 52.7728 187 55.6376 186.887 55.6376C186.774 55.6376 185.341 54.5068 183.683 53.1497C175.804 46.7038 165.89 42.0296 155.223 39.7679C151.83 39.014 150.096 38.9009 142.972 38.9009C135.772 38.8632 134.113 38.9763 130.419 39.7302C109.988 43.8767 93.2139 56.6177 84.0539 75.0507C71.5768 100.043 76.5903 130.425 96.418 150.253C114.135 168.007 140.371 174.039 164.043 165.821C178.443 160.845 190.958 150.592 199.025 137.173C202.342 131.669 205.734 122.961 206.677 117.458C207.016 115.611 205.81 114.065 204.076 114.065C202.191 114.065 201.663 114.744 200.683 118.4C199.289 123.527 197.969 127.033 195.707 131.405C184.097 153.796 159.746 166.537 134.792 163.258C102.261 158.998 79.0782 128.804 83.3754 96.3486C86.768 70.9796 105.503 50.8126 130.645 45.4222C135.433 44.4421 144.743 44.0652 149.795 44.706C161.329 46.1384 173.241 51.378 181.421 58.5779L182.853 59.8595L176.483 66.1923L170.112 72.5628L167.662 70.678C164.345 68.1148 157.711 64.9107 153.149 63.6667C149.681 62.6866 148.852 62.6113 142.595 62.649C136.488 62.649 135.433 62.762 132.153 63.629C117.377 67.6624 106.181 78.971 102.185 94.0115C101.318 97.2532 101.205 98.3841 101.205 104.076C101.205 109.806 101.281 110.861 102.185 114.254C104.409 122.585 109.838 131.066 116.321 136.306C120.505 139.66 127.253 143.091 132.417 144.485C135.81 145.39 136.865 145.466 142.595 145.466C148.287 145.466 149.418 145.352 152.622 144.523C157.711 143.128 161.405 141.508 165.476 138.831C173.995 133.252 180.365 124.432 183.004 114.518C183.909 111.238 184.022 110.145 184.022 104.076C184.06 97.781 183.984 97.0271 183.004 93.5214C181.76 88.9226 178.556 82.3259 175.993 79.0087L174.108 76.5585L180.479 70.188L186.811 63.8175L188.093 65.2499C192.315 69.9995 197.14 78.481 199.289 84.9646C200.872 89.7142 201.965 95.4062 202.229 100.118C202.342 102.304 202.681 104.528 202.945 105.094C203.661 106.489 205.508 106.866 206.828 105.885C207.732 105.207 207.808 104.868 207.921 102.154C208.034 98.8365 207.205 92.3906 206.074 87.8671C203.85 79.0841 199.251 69.9995 193.521 62.9882C192.164 61.3296 191.033 59.8972 191.033 59.7841C191.033 59.671 193.898 56.7308 197.366 53.2628L203.737 46.8923L205.471 48.8525C211.916 56.0146 218.136 66.607 221.378 75.9931C232.724 108.75 223.225 144.749 197.253 167.14C185.153 177.544 170.715 184.179 154.657 186.704C149.606 187.496 136.262 187.609 131.663 186.855C116.434 184.443 103.919 179.316 92.2715 170.646C88.8412 168.12 87.8235 167.857 86.4287 169.289C84.2801 171.438 85.5241 173.059 93.2139 178.223C101.356 183.651 110.855 187.873 120.731 190.398C128.61 192.434 133.548 192.999 142.783 192.999C154.318 193.037 163.478 191.454 173.316 187.76C214.555 172.38 238.341 130.35 230.236 87.264C227.635 73.5429 221.152 59.2941 212.633 48.7017L210.522 46.1384L213.123 46.3646C221.566 47.0808 222.207 47.0431 223.904 46.2892C225.034 45.7615 228.578 42.482 236.004 35.0183C245.239 25.7075 246.445 24.3882 246.445 23.3327C246.445 22.6542 246.257 21.7118 245.993 21.1841C245.201 19.3747 244.033 18.9978 238.077 18.5454L232.46 18.1308L236.079 14.5497C239.283 11.3456 239.66 10.8556 239.66 9.61163C239.66 7.91534 238.718 7.01067 236.984 7.01067C235.891 7.01067 235.25 7.463 232.046 10.6671L228.352 14.3613L228.314 12.665C228.276 8.14153 227.673 2.93955 227.07 2.03487C226.316 0.904007 224.959 0.22551 223.338 0.22551C222.283 0.22551 220.963 1.43175 211.351 11.0064ZM222.848 14.7382L223.112 19.6386L214.593 28.12C208.712 34.0005 206.111 36.3753 206.111 35.8476C206.111 35.4329 205.923 32.7942 205.734 30.0048L205.32 24.9536L213.726 16.5476C221.152 9.1216 222.17 8.2546 222.358 8.97081C222.471 9.46085 222.697 12.0241 222.848 14.7382ZM237.172 24.2374L238.642 24.4259L230.199 32.9073L221.755 41.3511L219.305 41.1626C217.948 41.0495 215.347 40.8234 213.5 40.7103L210.182 40.4464L218.589 32.0026L227.032 23.5589L231.367 23.7851C233.742 23.8982 236.343 24.0866 237.172 24.2374ZM151.642 69.0948C155.449 70.188 158.728 71.6204 161.782 73.5052C166.72 76.5962 166.908 75.8046 159.633 83.0798L153.3 89.4126L150.322 87.9425C147.646 86.5855 146.967 86.4347 143.801 86.2462C140.861 86.0954 139.768 86.2085 137.619 86.8493C131.324 88.7718 126.725 93.5968 125.255 99.8165C123.785 106.074 125.481 112.105 130.042 116.629C139.692 126.316 155.826 122.17 159.822 109.052C160.462 106.903 160.575 105.81 160.425 102.87C160.236 99.7034 160.085 99.0249 158.728 96.3486L157.258 93.3706L163.591 87.0378C169.886 80.7427 169.886 80.7427 170.678 81.4589C171.884 82.5521 174.673 87.1886 175.88 90.1665C178.028 95.3308 178.405 97.4794 178.368 104.265C178.368 109.919 178.255 110.786 177.35 113.801C174.146 124.205 167.323 132.197 157.786 136.645C146.44 141.998 133.02 140.942 122.616 133.931C107.915 124.017 102.525 104.83 109.988 88.9603C114.926 78.3679 123.822 71.3189 135.659 68.6425C139.127 67.8509 148.098 68.1148 151.642 69.0948ZM146.666 92.4283C147.646 92.7675 148.551 93.1822 148.664 93.4083C148.777 93.5968 146.854 95.8585 144.329 98.3841C139.315 103.473 138.938 104.227 140.71 105.961C142.444 107.733 143.198 107.356 148.287 102.342C150.812 99.8165 153.074 97.8941 153.263 98.0072C154.13 98.5349 154.921 102.078 154.77 104.755C154.544 109.391 151.981 113.161 147.759 115.121C144.856 116.478 140.484 116.553 137.694 115.272C135.244 114.141 132.492 111.427 131.399 109.014C130.155 106.262 130.193 101.4 131.437 98.9872C133.246 95.557 135.395 93.5591 138.599 92.3906C140.484 91.6743 144.555 91.712 146.666 92.4283Z" fill="#031555"/>
</svg>
