<svg width="507" height="450" viewBox="0 0 507 450" fill="none" xmlns="http://www.w3.org/2000/svg">
<path fill-rule="evenodd" clip-rule="evenodd" d="M397.736 249.627L392.791 249.113C392.248 254.429 390.648 259.631 388.047 264.405L392.42 266.777C389.676 271.865 385.903 276.496 381.158 280.355L378.014 276.496C373.697 279.983 368.867 282.47 363.865 283.956L364.951 287.672L365.265 288.73C360.463 290.159 355.518 290.759 350.602 290.559C349.63 290.521 348.658 290.454 347.686 290.359L348.201 285.414C342.913 284.842 337.682 283.27 332.908 280.669L330.536 285.042C325.448 282.298 320.817 278.525 316.958 273.78L320.846 270.608C317.33 266.32 314.843 261.489 313.385 256.487L311.785 256.945L308.641 257.859L308.583 257.888C306.897 252.142 306.354 246.168 306.954 240.309L311.928 240.823C312.471 235.507 314.043 230.304 316.644 225.559L312.271 223.158C315.015 218.071 318.788 213.44 323.561 209.581L326.706 213.44C331.022 209.924 335.824 207.466 340.855 205.98L339.425 201.206C341.826 200.491 344.285 199.977 346.714 199.691C350.144 199.262 353.603 199.234 357.004 199.577L356.519 204.522C361.807 205.093 367.009 206.637 371.782 209.267L374.155 204.893C379.243 207.609 383.873 211.41 387.761 216.155L383.873 219.3C387.389 223.616 389.876 228.418 391.334 233.449L394.707 232.448L396.107 232.048C397.822 237.793 398.337 243.767 397.736 249.627ZM359.548 253.8C362.121 251.714 363.55 248.741 363.75 245.682C363.922 242.91 363.093 240.08 361.206 237.765C358.548 234.506 354.489 233.106 350.63 233.706C348.687 233.992 346.8 234.792 345.171 236.135C340.283 240.109 339.54 247.283 343.513 252.142C347.515 257.059 354.689 257.773 359.548 253.8Z" fill="#1F65CF"/>
<path fill-rule="evenodd" clip-rule="evenodd" d="M89.0035 142.294C87.5743 140.522 86.5453 138.55 85.945 136.492L85.2876 136.692L84.0013 137.063V137.092C83.3153 134.72 83.0866 132.29 83.3439 129.889L85.3448 130.118C85.5734 127.945 86.2309 125.801 87.2885 123.858L85.5163 122.886C86.631 120.828 88.1746 118.913 90.1183 117.341L91.4045 118.913C93.1482 117.483 95.1204 116.483 97.1785 115.883L96.6068 113.91C98.9507 113.224 101.38 112.996 103.781 113.253L103.581 115.283C105.754 115.511 107.869 116.14 109.813 117.226L110.784 115.425C112.871 116.54 114.758 118.084 116.33 120.027L114.758 121.314C116.187 123.086 117.216 125.058 117.816 127.088L119.188 126.687L119.76 126.516C120.446 128.86 120.674 131.318 120.417 133.691L118.388 133.49C118.159 135.663 117.53 137.807 116.473 139.75L118.245 140.722C117.13 142.78 115.586 144.695 113.643 146.267L112.356 144.667C110.584 146.124 108.612 147.125 106.583 147.725L107.011 149.24L107.154 149.697C104.81 150.383 102.381 150.584 99.9797 150.355L100.18 148.325C98.0074 148.097 95.8922 147.439 93.9199 146.382L92.9481 148.183C90.89 147.039 89.0035 145.524 87.4314 143.581L89.0035 142.294ZM107.04 138.15C110.556 135.291 111.07 130.146 108.212 126.63C105.353 123.143 100.208 122.6 96.7211 125.458C93.2053 128.317 92.6622 133.462 95.5206 136.949C98.379 140.465 103.524 141.008 107.04 138.15Z" stroke="#9FD1FC" stroke-width="2.4"/>
<path d="M174.356 63.3178C174.87 65.2901 175.756 67.0909 176.928 68.6344L178.243 67.634C179.358 69.0917 180.701 70.2922 182.245 71.1783L181.416 72.6361C183.102 73.608 184.989 74.294 186.961 74.5798L187.018 74.2082L187.218 72.922C188.933 73.1792 190.763 73.0935 192.564 72.6075L192.964 74.2368C194.965 73.7223 196.737 72.8362 198.28 71.6643L197.28 70.3208C198.738 69.2346 199.938 67.8626 200.853 66.3477L202.282 67.1766C203.283 65.4902 203.94 63.6036 204.226 61.6028L203.74 61.5456L202.568 61.3741C202.825 59.6305 202.739 57.8297 202.254 56.0289L203.883 55.6287C203.368 53.6279 202.482 51.8557 201.31 50.3121L199.967 51.3126C198.881 49.8548 197.537 48.6543 195.994 47.7396L196.823 46.3104C195.136 45.31 193.25 44.6525 191.249 44.3667L191.02 46.0246C189.305 45.7673 187.476 45.8531 185.675 46.339L185.275 44.7097C183.274 45.2242 181.502 46.1103 179.958 47.2823L180.959 48.6257C179.501 49.7119 178.3 51.0553 177.386 52.5988L175.956 51.7699C174.956 53.4564 174.299 55.3429 174.013 57.3438H174.041L175.127 57.4867L175.671 57.5724C175.413 59.2875 175.499 61.1168 175.985 62.889L174.356 63.3178Z" fill="#48C6AA"/>
<path d="M182.731 54.6868C182.731 55.2299 182.731 56.5447 182.789 59.6032C182.846 65.2056 188.277 67.8925 189.077 68.2641C189.906 67.8354 195.251 65.0627 195.194 59.4603C195.165 56.6305 195.137 55.3156 195.137 54.6868L188.934 52.1428L182.731 54.6868Z" fill="white"/>
<path fill-rule="evenodd" clip-rule="evenodd" d="M191.451 58.7161L191.479 62.4034C191.479 62.8036 186.448 62.8321 186.448 62.432L186.42 58.7446L191.451 58.7161ZM188.707 60.6884V61.7459C188.707 61.8889 188.821 62.0032 188.964 62.0032C189.107 62.0032 189.221 61.8889 189.221 61.7459V60.6884C189.421 60.6026 189.564 60.3739 189.564 60.1167C189.564 59.7737 189.278 59.5164 188.935 59.5164C188.592 59.5164 188.335 59.8023 188.335 60.1453C188.335 60.3739 188.478 60.6026 188.707 60.6884Z" fill="#48C6AA"/>
<path d="M186.849 58.4874H187.363V58.2302C187.363 57.3726 188.049 56.6866 188.935 56.6866C189.793 56.6581 190.479 57.3726 190.507 58.2302V58.4588H190.993V58.2016C190.993 57.0868 190.05 56.1721 188.907 56.1721C187.763 56.1721 186.849 57.1154 186.849 58.2302V58.4874Z" fill="#48C6AA"/>
<path d="M180.53 70.0348C180.673 68.9772 180.758 67.9196 180.758 66.8334C180.758 53.7992 170.182 43.2231 157.148 43.2231C147.344 43.2231 138.94 49.1686 135.367 57.658C132.452 55.0569 128.621 53.4562 124.391 53.4562C115.273 53.4562 107.898 60.8594 107.898 69.9776H104.811C96.0359 69.9776 88.8613 77.1522 88.8613 85.9274C88.8613 94.6741 96.0359 101.849 104.811 101.849H179.358C188.133 101.849 195.308 94.6741 195.308 85.9274C195.308 77.5523 188.762 70.635 180.53 70.0348Z" fill="#E3E6ED"/>
<path d="M136.567 95.1887H170.039V64.9185H136.567V95.1887Z" fill="#D45147"/>
<path d="M135.167 74.0367H171.468V64.9185H135.167V74.0367Z" fill="#031555"/>
<path d="M166.325 72.0929H169.927V67.2336H166.325V72.0929Z" fill="#D45147"/>
<path d="M160.952 72.0929H164.525V67.2336H160.952V72.0929Z" fill="#D45147"/>
<path d="M155.55 72.0929H159.151V67.2336H155.55V72.0929Z" fill="#D45147"/>
<path d="M135.167 84.8988H171.468V75.752H135.167V84.8988Z" fill="#031555"/>
<path d="M166.325 82.9271H169.927V78.0964H166.325V82.9271Z" fill="#D45147"/>
<path d="M160.952 82.9271H164.525V78.0964H160.952V82.9271Z" fill="#D45147"/>
<path d="M155.55 82.9271H159.151V78.0964H155.55V82.9271Z" fill="#D45147"/>
<path d="M135.167 95.7604H171.468V86.6135H135.167V95.7604Z" fill="#031555"/>
<path d="M166.325 93.7885H169.927V88.9292H166.325V93.7885Z" fill="#D45147"/>
<path d="M160.952 93.7885H164.525V88.9292H160.952V93.7885Z" fill="#D45147"/>
<path d="M155.55 93.7885H159.151V88.9292H155.55V93.7885Z" fill="#D45147"/>
<path d="M127.763 86.6706H122.189V76.0088H127.763V86.6706Z" fill="#5C5099"/>
<path d="M125.019 90.4722L120.074 84.584H129.878L125.019 90.4722Z" fill="#5C5099"/>
<path d="M113.414 79.8674H118.988V90.5292H113.414V79.8674Z" fill="#5C5099"/>
<path d="M116.158 76.0945L121.103 81.9542H111.299L116.158 76.0945Z" fill="#5C5099"/>
<path d="M246.327 76.0087C246.384 75.7038 246.413 75.3989 246.413 75.094C246.413 71.2924 243.354 68.2339 239.552 68.2339C236.723 68.2339 234.293 69.9489 233.264 72.4357C232.407 71.664 231.292 71.2066 230.063 71.2066C227.433 71.2066 225.289 73.3504 225.289 75.9801H224.403C221.859 75.9801 219.772 78.0667 219.772 80.6107C219.772 83.1546 221.859 85.2413 224.403 85.2413H246.012C248.528 85.2413 250.614 83.1546 250.614 80.6107C250.614 78.1811 248.728 76.1802 246.327 76.0087Z" fill="#E3E6ED"/>
<path fill-rule="evenodd" clip-rule="evenodd" d="M340.997 250.17C339.254 262.547 335.595 274.466 330.164 285.757L318.044 279.297L315.672 283.727C308.783 296.533 299.694 307.566 288.603 316.542L284.658 319.714L293.405 330.433C283.458 337.922 272.453 343.782 260.591 347.927L256.561 334.75L251.73 336.207C241.468 339.323 230.892 340.895 220.288 340.895C216.657 340.895 212.999 340.724 209.397 340.352L204.366 339.838L202.994 353.529C190.675 351.786 178.755 348.127 167.436 342.667L173.896 330.548L169.466 328.175C156.689 321.315 145.627 312.226 136.594 301.106L133.421 297.219L122.731 305.909C119.415 301.478 116.414 296.819 113.727 292.017C111.212 287.472 108.982 282.727 107.067 277.925C106.438 276.324 105.838 274.714 105.266 273.094L118.443 269.093L116.986 264.262C115.242 258.488 113.956 252.571 113.184 246.626C112.612 242.081 112.298 237.45 112.298 232.877C112.298 231.772 112.317 230.666 112.355 229.561C112.441 227.017 112.612 224.473 112.87 221.958L113.384 216.956L103.751 215.955L99.6924 215.555C101.436 203.121 105.095 191.173 110.526 179.94L122.645 186.399L125.018 181.969C125.685 180.749 126.361 179.549 127.047 178.367C133.65 167.077 142.054 157.273 152.029 149.183L155.974 146.01L147.256 135.292C156.003 128.689 165.635 123.344 175.983 119.313C176.345 119.161 176.707 119.018 177.069 118.884C178.079 118.503 179.089 118.132 180.099 117.77L184.1 130.975L188.931 129.518C194.819 127.717 200.851 126.431 206.882 125.659C211.341 125.116 215.857 124.83 220.345 124.83C223.946 124.83 227.634 125.001 231.235 125.373L236.237 125.887L237.667 112.196C250.015 113.968 261.963 117.598 273.253 123.058L266.794 135.149L271.224 137.55C284.058 144.438 295.092 153.528 304.01 164.561L307.211 168.477L317.901 159.759C325.39 169.706 331.279 180.711 335.423 192.631L322.218 196.632L323.704 201.463C326.791 211.696 328.392 222.272 328.392 232.848C328.392 236.478 328.192 240.137 327.82 243.739L327.306 248.769L340.997 250.17ZM282.915 255.229C285.487 248.055 286.802 240.566 286.802 232.905C286.802 226.388 285.83 219.871 283.915 213.554C279.885 200.32 271.767 188.629 260.877 180.225C259.771 179.368 258.628 178.548 257.447 177.767C248.386 171.679 237.867 167.877 227.005 166.791C225.004 166.591 222.975 166.477 220.974 166.448C220.783 166.448 220.593 166.448 220.402 166.448C213.856 166.448 207.339 167.42 201.022 169.335C172.867 177.91 153.945 203.407 153.916 232.848C153.916 233.839 153.945 234.849 154.002 235.878C154.04 236.659 154.087 237.441 154.145 238.222C154.545 242.91 155.431 247.597 156.803 252.171C165.378 280.355 190.903 299.306 220.316 299.306C226.862 299.306 233.35 298.334 239.639 296.447C259.247 290.473 274.74 276.153 282.229 257.087C282.457 256.478 282.686 255.858 282.915 255.229Z" stroke="white" stroke-width="1.3"/>
<path d="M226.518 171.793C218.657 171.021 210.54 171.736 202.508 174.166C174.381 182.712 156.888 209.638 159.174 237.793C154.087 236.135 150.542 234.449 149.113 232.763C138.022 219.9 159.946 165.791 164.834 158.845C169.722 151.87 187.758 148.269 187.758 148.269C187.758 148.269 187.758 144.153 187.244 136.149C183.642 136.149 179.783 126.888 179.783 126.888L176.153 120.714L175.296 114.168C177.945 113.158 180.66 112.234 183.442 111.396L187.472 124.687C193.704 122.772 199.992 121.457 206.252 120.657L210.94 156.787L226.518 171.793Z" fill="#83C4FC"/>
<path d="M305.239 248.998C303.81 250.285 291.347 256.03 277.541 255.23C282.4 242.824 283.258 228.761 279.085 215.012C274.826 200.949 265.965 189.544 254.646 181.941L287.974 172.737C287.974 172.737 311.67 172.479 314.757 177.139C317.873 181.769 310.898 243.853 305.239 248.998Z" fill="#83C4FC"/>
<path d="M237.697 156.701L271.197 174.938L288.262 132.776L297.037 134.977C297.037 134.977 291.349 183.941 282.231 192.917C273.112 201.892 226.549 182.141 226.549 182.141C215.144 174.852 225.549 151.699 237.697 156.701Z" fill="#F7A594"/>
<path d="M287.631 138.951C287.631 138.951 284.773 129.547 285.459 127.117C286.145 124.687 295.549 122.343 295.892 123.487C296.235 124.63 296.95 127.403 290.833 128.489C294.491 132.548 298.293 140.294 287.631 138.951Z" fill="#F7A594"/>
<path d="M287.118 139.322C287.118 139.322 287.118 131.061 288.747 127.917C290.92 123.687 296.408 121.371 296.408 121.371C296.408 121.371 304.954 129.461 305.097 130.775C305.269 132.119 296.837 139.408 296.837 139.408C296.837 139.408 290.634 144.324 287.118 139.322Z" fill="#F7A594"/>
<path d="M289.204 128.689C289.204 128.689 293.349 108.509 296.493 109.395C297.951 109.824 294.063 129.089 294.063 129.089L289.204 128.689Z" fill="#F7A594"/>
<path d="M286.831 136.292C286.87 136.292 286.898 136.292 286.917 136.292C286.974 136.264 287.003 136.207 287.003 136.149C286.288 133.405 285.174 128.575 285.574 127.146C286.088 125.288 292.291 123.315 294.892 123.287C295.664 123.287 295.778 123.458 295.778 123.515C296.007 124.259 296.178 125.145 295.635 126.031C294.949 127.146 293.349 127.946 290.805 128.375L290.605 128.403L290.747 128.546C292.262 130.233 294.035 132.834 294.406 135.035C294.435 135.092 294.492 135.149 294.549 135.12C294.606 135.12 294.635 135.063 294.635 135.006C294.235 132.805 292.548 130.261 291.033 128.546C293.52 128.089 295.121 127.288 295.835 126.145C296.493 125.059 296.15 123.944 296.007 123.458C295.921 123.201 295.55 123.058 294.892 123.087C292.262 123.115 285.917 125.059 285.345 127.088C284.945 128.546 286.06 133.434 286.774 136.207C286.793 136.245 286.812 136.273 286.831 136.292Z" fill="#E6836F"/>
<path d="M298.295 133.434C298.314 133.453 298.342 133.462 298.38 133.462L298.466 133.491L298.495 133.434C300.01 131.49 303.211 130.947 303.24 130.947C303.297 130.918 303.325 130.861 303.325 130.804C303.325 130.747 303.268 130.718 303.183 130.718C303.068 130.747 299.953 131.261 298.38 133.234C296.465 132.49 294.121 127.603 294.121 127.545C294.093 127.488 294.007 127.46 293.979 127.488C293.921 127.517 293.893 127.574 293.921 127.631C294.007 127.86 296.294 132.662 298.295 133.434Z" fill="#E6836F"/>
<path d="M231.579 154.558C231.579 154.558 238.582 155.501 255.447 166.277C253.56 173.509 247.958 192.488 247.958 192.488C247.958 192.488 222.204 184.513 218.688 175.853C215.172 167.192 218.917 151.042 231.579 154.558Z" fill="#002E73"/>
<path d="M149.343 449.628H175.955C176.498 449.314 176.898 448.971 177.156 448.571C178.499 428.762 180.471 419.244 180.471 419.244L161.949 418.5L157.747 433.221C151.544 437.452 144.141 446.57 149.343 449.628Z" fill="#231F20"/>
<path d="M177.956 450H146.428C145.628 450 145.885 445.598 146.686 445.598L178.042 445.769C178.871 445.769 178.785 450 177.956 450Z" fill="#231F20"/>
<path d="M188.962 238.88C179.672 253.143 172.926 322.059 160.149 425.789L179.015 426.79C184.703 399.149 191.106 385.143 197.594 345.297C213.144 310.139 221.233 276.839 225.349 242.567C229.379 216.699 197.651 203.121 188.962 238.88Z" fill="#002E73"/>
<path d="M211.284 243.797C212.628 294.247 221.603 337.094 221.603 337.094C223.69 379.341 226.462 377.941 230.378 427.191L247.443 426.962C248.872 405.867 260.277 307.51 251.416 244.368C247.157 215.927 208.569 206.523 211.284 243.797Z" fill="#002E73"/>
<path d="M230.378 427.191C228.863 435.337 227.777 441.683 228.405 449.086L269.738 449.886C269.738 449.886 273.825 445.884 268.68 439.91C263.535 433.936 253.759 437.395 247.442 426.962L230.378 427.191Z" fill="#231F20"/>
<path d="M271.625 450.001H227.691C226.891 450.001 227.12 445.599 227.92 445.599L271.625 445.77C272.454 445.77 272.425 450.001 271.625 450.001Z" fill="#231F20"/>
<path d="M250.159 241.424C250.159 250.142 188.189 247.598 188.189 238.88C184.645 162.732 166.237 170.536 170.953 162.875C179.071 149.641 220.06 150.413 234.838 156.072C240.698 158.33 248.559 167.534 251.074 182.169C252.389 189.715 246.843 198.491 245.957 204.579C243.928 218.671 249.73 239.394 250.159 241.424Z" fill="#002E73"/>
<path d="M211.542 162.075C201.08 163.59 194.563 156.301 193.048 153.242L193.762 132.09L205.768 130.918C209.226 131.204 212.714 132.033 215.715 133.205L218.402 147.154L219.002 150.184C220.345 153.156 222.003 160.56 211.542 162.075Z" fill="#F7A594"/>
<path d="M197.794 136.864C199.68 139.751 207.57 147.183 218.403 147.154L216.059 135.092L197.794 136.864Z" fill="#E6836F"/>
<path d="M224.351 108.996C225.294 113.169 227.209 122.316 226.895 126.518C226.409 132.949 220.435 140.066 215.204 141.01C209.144 141.61 200.998 139.809 196.567 136.007C194.081 133.12 189.307 126.26 187.106 120.258C182.533 107.738 191.394 96.7618 202.598 94.2464C213.832 91.7024 221.407 95.99 224.351 108.996Z" fill="#F7A594"/>
<path d="M190.879 128.547C188.535 124.402 191.65 122.744 195.052 125.946C194.48 122.83 190.936 113.74 194.08 110.71C197.624 107.223 213.203 108.738 221.578 99.9914C221.578 99.9914 215.346 86.2997 194.852 94.389C171.699 106.68 190.879 128.547 190.879 128.547Z" fill="#73382A"/>
<path d="M193.767 124.63C195.539 126.774 195.625 129.633 193.938 131.005C192.28 132.377 189.479 131.748 187.707 129.576C185.935 127.432 185.849 124.573 187.535 123.201C189.222 121.829 191.994 122.458 193.767 124.63Z" fill="#F7A594"/>
<path d="M175.213 158.588C182.159 157.759 188.99 191.374 184.217 200.606C184.198 201.273 184.179 201.959 184.16 202.664C184.131 205.294 184.045 207.981 183.96 210.725C183.921 211.944 183.883 213.164 183.845 214.383C183.759 217.07 183.645 219.786 183.559 222.473C182.702 243.253 181.416 262.633 181.416 262.633H253.961C253.39 248.37 251.303 233.763 249.874 222.473C249.502 219.529 249.188 216.813 248.959 214.383C248.826 213.069 248.721 211.849 248.645 210.725C248.473 208.038 248.445 205.894 248.702 204.436C248.788 203.922 248.845 203.322 248.873 202.664C249.216 192.06 242.271 161.218 237.097 155.644C229.865 152.271 221.776 153.1 221.776 153.1C222.29 168.221 216.259 181.798 216.259 181.798C216.259 181.798 200.91 168.621 192.535 152.928C185.16 154.1 178.443 155.587 175.213 158.588Z" fill="#FDB477"/>
<path d="M248.644 210.724C248.473 208.038 248.444 205.894 248.701 204.436C248.787 203.922 248.844 203.321 248.873 202.664H184.159C184.13 205.294 184.045 207.98 183.959 210.724H248.644Z" fill="white"/>
<path d="M183.56 222.473H249.874C249.502 219.528 249.188 216.813 248.959 214.383H183.845C183.76 217.07 183.645 219.786 183.56 222.473Z" fill="white"/>
<path d="M219.174 101.877C219.174 101.877 225.577 104.679 232.237 101.963C231.236 106.508 199.079 113.254 194.935 111.482C190.819 109.709 210.427 99.9623 219.174 101.877Z" fill="#5C2D22"/>
<path d="M183.615 116.884C182.729 110.338 181.7 93.5593 196.563 89.2432C209.798 85.4129 219.259 93.3307 223.747 98.5615C225.69 98.8759 230.893 97.4467 231.807 98.5329C232.036 99.1903 231.836 100.419 226.519 102.535C226.538 102.573 226.548 102.592 226.548 102.592C207.368 106.794 190.99 112.139 184.072 121.343C184.072 121.343 182.843 121.915 182.1 121.915C181.471 121.915 183.043 119.342 183.615 116.884Z" fill="#FFF890"/>
<path d="M210.027 102.907C210.027 102.907 203.967 88.6433 189.675 92.4735L189.39 91.8447C189.39 91.8447 192.991 89.5866 197.079 88.3575C201.595 87.6429 212.085 89.3865 218.116 100.391C215.029 101.963 210.027 102.907 210.027 102.907Z" fill="#FFDD69"/>
<path d="M185.245 197.033L176.356 221.758L214.687 246.083L213.915 254.744C213.915 254.744 162.407 244.053 157.662 232.105C152.889 220.186 168.838 169.192 168.838 169.192C174.269 156.158 183.673 186.143 185.245 197.033Z" fill="#F79683"/>
<path d="M214.544 246.626L234.696 247.14C234.696 247.14 228.522 257.03 214.43 255.258C195.879 252.886 203.225 245.854 214.544 246.626Z" fill="#F79683"/>
<path d="M296.553 244.339V245.397C296.553 245.454 296.553 245.502 296.553 245.54C296.439 246.226 295.61 246.769 294.638 246.769H206.514C205.514 246.769 204.713 246.226 204.599 245.54C204.58 245.502 204.57 245.454 204.57 245.397V244.339H296.553Z" fill="#5D4F99"/>
<path d="M296.553 245.54C296.439 246.226 295.61 246.769 294.638 246.769H206.514C205.513 246.769 204.713 246.226 204.599 245.54H296.553Z" fill="#241F3C"/>
<path d="M306.789 184.085L307.304 184.571L307.018 184.971L306.36 184.056L306.789 184.085Z" fill="#241F3C"/>
<path d="M295.269 244.196H223.78C222.551 244.196 221.722 243.196 221.951 241.995L231.384 185.771C231.584 184.542 232.727 183.57 233.956 183.57H305.444C306.674 183.57 307.502 184.542 307.274 185.771L297.841 241.995C297.641 243.196 296.498 244.196 295.269 244.196Z" fill="#5D4F99"/>
<path d="M295.811 244.711H224.294C223.093 244.711 222.264 243.71 222.464 242.51L231.897 186.285C232.097 185.056 233.269 184.084 234.47 184.084H305.986C307.187 184.084 308.016 185.056 307.816 186.285L298.383 242.51C298.183 243.71 297.011 244.711 295.811 244.711Z" fill="#241F3C"/>
<path d="M256.537 214.841C255.936 220.214 259.624 225.045 264.797 225.645C269.971 226.246 274.687 222.387 275.288 216.984C275.917 211.611 272.229 206.78 267.056 206.18C261.853 205.58 257.166 209.467 256.537 214.841Z" fill="#48C6AA"/>
<path d="M184.673 200.32L159.977 188.115C159.977 188.115 166.837 163.761 174.611 159.102C178.413 161.36 182.215 166.791 184.273 176.224C186.074 184.37 186.102 192.688 184.673 200.32Z" fill="#002E73"/>
<path d="M216.144 124.687C216.144 124.687 216.154 124.687 216.173 124.687C216.287 124.659 218.831 124.144 219.632 122.801C220.432 121.486 215.173 116.198 213.515 114.597C213.429 114.511 213.286 114.511 213.172 114.626C213.086 114.711 213.086 114.883 213.172 114.969C216.402 118.084 219.603 121.886 219.203 122.543C218.517 123.715 216.116 124.201 216.087 124.201C215.944 124.23 215.859 124.373 215.887 124.487C215.916 124.601 216.03 124.687 216.144 124.687Z" fill="#73382A"/>
<path d="M212.028 130.49C216.23 130.49 219.774 129.061 219.831 129.032C219.946 128.975 220.003 128.832 219.974 128.718C219.917 128.575 219.774 128.517 219.631 128.575C219.546 128.603 210.599 132.262 204.396 127.774C204.31 127.688 204.139 127.717 204.053 127.831C203.996 127.946 203.996 128.089 204.11 128.174C206.569 129.947 209.427 130.49 212.028 130.49Z" fill="#73382A"/>
<path d="M218.26 112.625C218.489 113.597 219.117 114.283 219.66 114.169C220.232 114.026 220.489 113.14 220.261 112.168C220.032 111.167 219.403 110.481 218.86 110.624C218.288 110.739 218.031 111.653 218.26 112.625Z" fill="#5C2D22"/>
<path d="M202.338 116.97C202.681 117.999 203.453 118.713 204.025 118.513C204.625 118.313 204.825 117.313 204.482 116.255C204.139 115.226 203.367 114.54 202.796 114.712C202.195 114.912 201.995 115.912 202.338 116.97Z" fill="#5C2D22"/>
<path d="M299.495 105.45C298.323 106.136 296.808 105.736 296.122 104.564C295.436 103.392 295.836 101.877 297.008 101.22C298.18 100.534 299.695 100.934 300.381 102.106C301.067 103.278 300.667 104.793 299.495 105.45Z" fill="#E3E6ED"/>
<path d="M309.385 97.7332C309.728 97.5045 309.842 97.0186 309.614 96.647C305.412 90.2156 297.237 88.2433 290.548 92.045C290.177 92.2451 290.062 92.731 290.262 93.1026C290.491 93.4742 290.977 93.6171 291.349 93.417C297.294 90.1013 304.526 91.8449 308.27 97.5045C308.528 97.8761 309.013 97.9618 309.385 97.7332Z" fill="#E3E6ED"/>
<path d="M306.642 99.5338C307.013 99.3051 307.099 98.8192 306.842 98.4476C303.555 93.6169 297.352 92.102 292.207 94.9032C291.835 95.1033 291.692 95.5892 291.892 95.9608V95.9894C292.121 96.361 292.578 96.5039 292.979 96.3038C297.38 93.9599 302.668 95.2462 305.527 99.3337C305.784 99.7053 306.27 99.791 306.642 99.5338Z" fill="#E3E6ED"/>
<path d="M303.955 101.306C304.327 101.049 304.441 100.563 304.184 100.191C301.754 96.9042 297.438 95.8466 293.808 97.676C293.408 97.876 293.265 98.362 293.465 98.7621H293.493C293.693 99.1337 294.151 99.2767 294.522 99.1051C297.467 97.676 300.897 98.5049 302.869 101.106C303.126 101.449 303.612 101.535 303.955 101.306Z" fill="#E3E6ED"/>
<path d="M152.174 250.456V291.273C152.174 293.017 150.773 294.446 149.001 294.446H109.327C106.726 289.759 104.41 284.871 102.381 279.783V268.692L112.157 265.72C110.299 259.603 108.984 253.428 108.183 247.283H149.001C150.773 247.283 152.174 248.712 152.174 250.456Z" fill="#83C4FC"/>
<path d="M139.568 183.427V224.502C139.568 227.274 137.281 229.561 134.509 229.561H107.297C107.392 226.836 107.573 224.13 107.84 221.443L103.238 220.986L94.1768 220.043H94.0625C95.5203 205.465 99.4934 191.373 105.696 178.367H134.509C137.281 178.367 139.568 180.626 139.568 183.427Z" fill="#83C4FC"/>
<path d="M125.018 223.587H69.7088C66.9075 223.587 64.6494 221.329 64.6494 218.528V177.453C64.6494 174.652 66.9075 172.394 69.7088 172.394H125.018C127.82 172.394 130.078 174.652 130.078 177.453V218.528C130.078 221.329 127.82 223.587 125.018 223.587Z" fill="#E3E6ED"/>
<path d="M122.704 187.028H72.6251C72.5679 187.028 72.5107 186.971 72.5107 186.914C72.5107 186.828 72.5679 186.8 72.6251 186.8H122.704C122.79 186.8 122.818 186.828 122.818 186.914C122.818 186.971 122.79 187.028 122.704 187.028Z" fill="white"/>
<path d="M122.704 204.179H72.6251C72.5679 204.179 72.5107 204.122 72.5107 204.065C72.5107 204.008 72.5679 203.95 72.6251 203.95H122.704C122.79 203.95 122.818 204.008 122.818 204.065C122.818 204.122 122.79 204.179 122.704 204.179Z" fill="white"/>
<path d="M122.704 195.833H72.6251C72.5679 195.833 72.5107 195.776 72.5107 195.718C72.5107 195.633 72.5679 195.575 72.6251 195.575H122.704C122.79 195.575 122.818 195.633 122.818 195.718C122.818 195.776 122.79 195.833 122.704 195.833Z" fill="white"/>
<path d="M122.703 212.897H72.3956L72.2812 182.284C72.2812 182.141 72.3956 182.055 72.5385 182.055C72.6528 182.055 72.7672 182.141 72.7672 182.284L72.8529 212.411H122.703C122.846 212.411 122.96 212.526 122.96 212.64C122.96 212.783 122.846 212.897 122.703 212.897Z" fill="#7362BF"/>
<path d="M114.413 190.059L95.9765 207.752L86.4867 199.348L72.452 212.468C72.3663 212.554 72.3663 212.726 72.452 212.811C72.5092 212.868 72.5663 212.897 72.6235 212.897C72.6807 212.897 72.7379 212.868 72.795 212.811L86.5153 200.006L96.0051 208.409L114.413 190.716V190.059Z" fill="#7362BF"/>
<path d="M87.7744 199.72C87.7744 200.406 87.2028 201.006 86.5167 201.006C85.8021 201.006 85.2305 200.406 85.2305 199.72C85.2305 199.006 85.8021 198.434 86.5167 198.434C87.2028 198.434 87.7744 199.006 87.7744 199.72Z" fill="#7362BF"/>
<path d="M97.4349 207.952C97.4349 208.667 96.8632 209.239 96.1486 209.239C95.434 209.239 94.8623 208.667 94.8623 207.952C94.8623 207.266 95.434 206.695 96.1486 206.695C96.8632 206.695 97.4349 207.266 97.4349 207.952Z" fill="#7362BF"/>
<path d="M115.843 190.202C115.843 190.888 115.271 191.459 114.557 191.459C113.842 191.459 113.271 190.888 113.271 190.202C113.271 189.487 113.842 188.916 114.557 188.916C115.271 188.916 115.843 189.487 115.843 190.202Z" fill="#7362BF"/>
<path d="M99.0078 288.959H142.455C144.227 288.959 145.628 287.53 145.628 285.757V244.968C145.628 243.196 144.227 241.795 142.455 241.795H99.0078C97.2642 241.795 95.835 243.196 95.835 244.968V285.757C95.835 287.53 97.2642 288.959 99.0078 288.959Z" fill="#031555"/>
<path d="M132.022 281.07V267.464H136.71V281.07H132.022Z" fill="#FDFDFF"/>
<path d="M125.448 281.07V265.406H130.165V281.07H125.448Z" fill="#FDFDFF"/>
<path d="M118.873 281.07V261.261H123.589V281.07H118.873Z" fill="#FDFDFF"/>
<path d="M112.327 281.069V258.345H117.015V281.069H112.327Z" fill="#FDFDFF"/>
<path d="M105.753 281.07V252.057H110.469V281.07H105.753Z" fill="#FDFDFF"/>
<path d="M139.369 281.584H101.238C101.067 281.584 100.924 281.441 100.924 281.269C100.924 281.098 101.067 280.955 101.238 280.955H139.369C139.541 280.955 139.684 281.098 139.684 281.269C139.684 281.441 139.541 281.584 139.369 281.584Z" fill="#247F7D"/>
<path d="M79.7136 262.175H51.2155C49.7291 262.175 48.5 260.975 48.5 259.46V234.335C48.5 232.848 49.7291 231.619 51.2155 231.619H79.7136C81.1999 231.619 82.4004 232.848 82.4004 234.335V259.46C82.4004 260.975 81.1999 262.175 79.7136 262.175Z" fill="#E3E6ED"/>
<path d="M57.7056 245.339H54.2184C53.9325 245.339 53.7324 245.11 53.7324 244.825C53.7324 244.567 53.9325 244.339 54.2184 244.339H57.7056C57.9914 244.339 58.2201 244.567 58.2201 244.825C58.2201 245.11 57.9914 245.339 57.7056 245.339Z" fill="#031555"/>
<path d="M57.7056 247.14H54.2184C53.9325 247.14 53.7324 246.911 53.7324 246.626C53.7324 246.368 53.9325 246.14 54.2184 246.14H57.7056C57.9914 246.14 58.2201 246.368 58.2201 246.626C58.2201 246.911 57.9914 247.14 57.7056 247.14Z" fill="#031555"/>
<path d="M57.7056 248.941H54.2184C53.9325 248.941 53.7324 248.712 53.7324 248.455C53.7324 248.169 53.9325 247.94 54.2184 247.94H57.7056C57.9914 247.94 58.2201 248.169 58.2201 248.455C58.2201 248.712 57.9914 248.941 57.7056 248.941Z" fill="#031555"/>
<path d="M57.7056 250.741H54.2184C53.9325 250.741 53.7324 250.513 53.7324 250.255C53.7324 249.97 53.9325 249.741 54.2184 249.741H57.7056C57.9914 249.741 58.2201 249.97 58.2201 250.255C58.2201 250.513 57.9914 250.741 57.7056 250.741Z" fill="#031555"/>
<path d="M67.9367 240.108C63.8206 240.108 60.5049 243.424 60.5049 247.54C60.5049 251.656 63.8206 254.972 67.9367 254.972C69.1658 254.972 70.3663 254.657 71.3953 254.114L67.9367 247.54V240.108Z" fill="#51DEDE"/>
<path d="M71.3952 254.114C73.739 252.885 75.3683 250.398 75.3683 247.54H67.9365L71.3952 254.114Z" fill="#FD9463"/>
<path d="M67.9365 240.108V247.54H75.3683C75.3683 243.424 72.0526 240.108 67.9365 240.108Z" fill="white"/>
<path fill-rule="evenodd" clip-rule="evenodd" d="M458.449 122.401C457.334 130.29 454.676 137.836 450.703 144.61L444.957 141.266C441.356 147.383 436.554 152.842 430.751 157.187L434.753 162.504C428.607 167.134 421.461 170.679 413.572 172.737L411.886 166.305C404.711 168.163 397.48 168.535 390.562 167.535L389.848 172.651L389.619 174.109C381.73 172.994 374.184 170.336 367.409 166.363L370.782 160.646C364.637 157.016 359.177 152.214 354.832 146.411L349.516 150.413C344.885 144.267 341.37 137.121 339.283 129.232L345.743 127.546C343.885 120.4 343.513 113.168 344.514 106.251L342.313 105.936L337.968 105.336L337.939 105.308C339.054 97.4184 341.684 89.8723 345.686 83.0693L351.402 86.4422C355.004 80.2967 359.806 74.8657 365.609 70.521L361.607 65.2044C367.752 60.5738 374.898 57.0294 382.816 54.9714L384.503 61.4028C391.677 59.5162 398.88 59.1732 405.798 60.1736L406.741 53.5994C414.63 54.7141 422.176 57.3724 428.95 61.3456L425.606 67.0624C431.723 70.6925 437.183 75.466 441.499 81.2685L443.9 79.4677L446.815 77.2668C450.217 81.7545 453.018 86.7852 455.105 92.2447C455.867 94.2646 456.524 96.3417 457.077 98.476L450.646 100.162C452.504 107.337 452.846 114.54 451.875 121.457L456.534 122.115L458.42 122.401H458.449ZM427.636 114.569C427.693 111.882 427.378 109.138 426.664 106.422C426.321 105.107 425.901 103.84 425.406 102.621C419.889 89.2148 405.197 81.6401 390.762 85.4132C375.041 89.5007 365.637 105.565 369.725 121.286C373.841 137.036 389.905 146.44 405.626 142.352C418.632 138.951 427.35 127.374 427.636 114.569Z" fill="#C9F5F7"/>
<path d="M427.636 114.54C427.693 111.882 427.379 109.138 426.664 106.422C426.321 105.107 425.902 103.831 425.406 102.592L443.9 79.4675L446.816 77.2666C450.217 81.7543 453.018 86.785 455.105 92.2445L427.636 114.54Z" fill="#A5EEF2"/>
<path d="M390.359 101.677L391.074 101.105C384.786 93.3878 382.242 86.9278 383.242 81.4112C384.643 73.8936 392.56 69.3202 399.535 65.2899C403.451 63.0317 407.167 60.888 409.253 58.4869C410.825 56.6576 411.483 54.6853 411.197 52.6272C410.54 47.9395 405.309 44.4522 405.08 44.3093L404.594 45.0811C404.651 45.1097 409.682 48.4826 410.282 52.7702C410.511 54.5424 409.939 56.2574 408.567 57.8867C406.566 60.1734 402.936 62.2886 399.077 64.4895C391.932 68.6342 383.814 73.2933 382.356 81.2397C381.27 87.0422 383.899 93.7308 390.359 101.677Z" fill="#D45147"/>
<path d="M365.346 137.693L368.462 135.692C363.345 127.717 363.345 120.485 368.462 114.768C376.951 105.25 394.159 112.768 394.33 112.853L395.845 109.48C395.645 109.395 390.9 107.279 384.869 106.536C376.637 105.479 370.005 107.479 365.718 112.31C359.487 119.285 359.344 128.289 365.346 137.693Z" fill="#D45147"/>
<path d="M332.562 35.9919L337.364 39.7078L354.571 17.4981L349.769 13.7822L332.562 35.9919Z" fill="#C9F5F7"/>
<path d="M337.307 28.8174L342.909 33.1621C343.281 34.7628 342.967 36.4778 341.88 37.8784L338.708 41.9374L329.847 35.0201L333.019 30.9897C334.077 29.5891 335.678 28.846 337.307 28.8174Z" fill="#587DFF"/>
<path d="M328.017 35.6485L338.535 43.7949L339.507 42.5087L329.017 34.3909L328.017 35.6485Z" fill="#D45147"/>
<path d="M323.697 67.348L325.298 69.0059L340.647 59.7733L336.303 55.2571L323.697 67.348Z" fill="#C9F5F7"/>
<path d="M308.348 55.5719L306.376 54.4L311.893 37.364L317.266 40.5654L308.348 55.5719Z" fill="#C9F5F7"/>
<path d="M323.956 40.1363L334.532 48.3398C335.818 49.3403 337.676 49.083 338.676 47.7967C339.677 46.5105 339.448 44.6525 338.162 43.6521L327.586 35.4485C326.3 34.4767 324.442 34.7053 323.441 35.9916C322.441 37.2779 322.669 39.1358 323.956 40.1363Z" fill="#587DFF"/>
<path d="M336.361 43.4807C337.705 43.2234 338.991 44.1095 339.277 45.4815L341.564 56.8007C342.107 59.3733 340.163 61.8315 337.505 61.8887C334.989 61.9458 332.988 59.802 333.217 57.2867L334.246 45.7388C334.36 44.5954 335.218 43.6808 336.361 43.4807Z" fill="#587DFF"/>
<path d="M337.877 55.9433C336.82 55.6003 335.734 56.4006 335.762 57.5154C335.762 58.2014 336.22 58.8016 336.848 59.0303C337.935 59.3733 339.021 58.573 338.992 57.4582C338.992 56.7722 338.535 56.1719 337.877 55.9433Z" fill="#D45147"/>
<path d="M337.191 45.0528C336.362 44.7955 335.533 45.3958 335.533 46.2533C335.533 46.7964 335.905 47.2537 336.391 47.4252C337.22 47.6825 338.049 47.0822 338.02 46.2247C338.02 45.6816 337.677 45.2243 337.191 45.0528Z" fill="#D45147"/>
<path d="M328.871 36.9066C328.728 35.5346 327.527 34.5341 326.155 34.6199L314.636 35.4774C312.006 35.6489 310.148 38.1643 310.806 40.7368C311.435 43.1664 314.036 44.5385 316.408 43.6238L327.242 39.5363C328.328 39.1361 328.985 38.0499 328.871 36.9066Z" fill="#587DFF"/>
<path d="M326.87 36.2779C326.184 35.7634 325.183 36.0492 324.926 36.8781C324.755 37.3926 324.926 37.9357 325.355 38.2502C326.041 38.7647 327.041 38.4788 327.299 37.6499C327.47 37.1354 327.299 36.5923 326.87 36.2779Z" fill="#D45147"/>
<path d="M316.091 38.4221C315.205 37.736 313.919 38.1362 313.547 39.2224C313.347 39.8512 313.576 40.5944 314.119 40.9946C315.034 41.6806 316.291 41.2804 316.663 40.1943C316.863 39.5654 316.634 38.8222 316.091 38.4221Z" fill="#D45147"/>
<path d="M350.313 19.927L372.465 16.9543L371.493 9.83691L349.341 12.8096L350.313 19.927Z" fill="#C9F5F7"/>
<path d="M370.322 21.5565L384.671 19.6414C388.987 19.0697 392.017 15.0965 391.417 10.7804C390.845 6.49281 386.901 3.46293 382.584 4.03461L368.235 5.94972L370.322 21.5565Z" fill="#587DFF"/>
<path d="M351.743 24.043L361.861 22.6996L359.746 7.09277L349.656 8.43622C345.34 9.03648 342.31 12.981 342.882 17.2972C343.453 21.6134 347.427 24.6147 351.743 24.043Z" fill="#587DFF"/>
<path fill-rule="evenodd" clip-rule="evenodd" d="M346.426 15.1253C347.026 12.9244 349.313 11.6095 351.514 12.2098C353.714 12.8101 355.029 15.0968 354.429 17.2977C353.829 19.4987 351.571 20.8135 349.341 20.2133C347.14 19.613 345.825 17.3549 346.426 15.1253ZM348.112 15.5827C347.769 16.869 348.512 18.1838 349.798 18.5268C351.085 18.8698 352.4 18.1267 352.743 16.8404C353.086 15.5541 352.342 14.2393 351.056 13.8962C349.77 13.5532 348.455 14.2964 348.112 15.5827Z" fill="#C9F5F7"/>
<path d="M443.952 63.2034C444.152 63.0033 448.383 58.3727 451.041 51.7698C454.642 42.7373 453.499 34.5052 447.696 27.9595C443.466 23.1574 438.035 20.4705 431.947 20.2132C424.944 19.9274 418.341 22.9859 416.111 25.1297L418.655 27.788C420.17 26.3588 425.716 23.6433 431.804 23.9006C436.92 24.1292 441.322 26.3016 444.924 30.3891C449.812 35.9058 450.698 42.6516 447.611 50.3978C445.21 56.3718 441.294 60.6594 441.265 60.7166L443.952 63.2034Z" fill="#D45147"/>
<path d="M412.854 23.672L419.857 31.1609L421.915 29.2458L414.912 21.7568L412.854 23.672Z" fill="#D45147"/>
<path d="M407.021 52.0843L424.571 37.2207L421.484 33.562L403.934 48.4256L407.021 52.0843Z" fill="#D45147"/>
<path d="M438.405 71.2927C441.035 69.0346 441.349 65.09 439.12 62.4603L414.28 33.219L404.733 41.3368L429.573 70.5781C431.802 73.2078 435.775 73.5222 438.405 71.2927Z" fill="#D45147"/>
<path d="M404.504 51.7127L378.607 16.869C375.292 12.3813 376.006 6.09289 380.265 2.49133C384.553 -1.11024 390.87 -0.767228 394.729 3.26309L424.627 34.6767L404.504 51.7127Z" fill="#587DFF"/>
<path fill-rule="evenodd" clip-rule="evenodd" d="M382.752 5.4067C385.611 3.00566 389.898 3.37725 392.299 6.23563C394.7 9.09401 394.329 13.3816 391.47 15.7826C388.612 18.1837 384.353 17.8121 381.923 14.9537C379.522 12.0953 379.894 7.83633 382.752 5.4067ZM384.582 7.60766C382.924 8.97968 382.724 11.4665 384.124 13.1243C385.496 14.7822 387.983 14.9823 389.641 13.6103C391.299 12.2097 391.499 9.72286 390.098 8.06499C388.726 6.40713 386.239 6.20705 384.582 7.60766Z" fill="#D45147"/>
<path d="M387.128 124.459C395.617 131.833 408.452 130.919 415.826 122.429L449.241 83.8981C456.587 75.4087 455.672 62.5745 447.183 55.1999C438.693 47.8539 425.859 48.74 418.484 57.2294L385.07 95.7604C377.724 104.25 378.639 117.113 387.128 124.459Z" fill="#587DFF"/>
<path fill-rule="evenodd" clip-rule="evenodd" d="M441.667 61.5742C446.126 65.4616 446.612 72.2074 442.725 76.695C438.866 81.1541 432.091 81.64 427.632 77.7526C423.145 73.8938 422.687 67.1194 426.546 62.6603C430.434 58.1727 437.179 57.6868 441.667 61.5742ZM430.434 74.4941C433.12 76.8379 437.151 76.5235 439.495 73.8652C441.81 71.1783 441.524 67.148 438.837 64.8327C436.179 62.5174 432.12 62.8033 429.805 65.4616C427.489 68.1484 427.775 72.1788 430.434 74.4941Z" fill="#D45147"/>
<path d="M379.782 128.203H416.741V112.339C416.741 102.135 408.48 93.8452 398.276 93.8452C388.072 93.8452 379.782 102.135 379.782 112.339V128.203Z" fill="#D45147"/>
<path d="M367.348 140.208H427.317V126.345H367.348V140.208Z" fill="#D45147"/>
<path d="M357.372 145.696H441.351C441.408 146.096 441.437 146.487 441.437 146.868V187.2H357.286V146.868C357.286 146.487 357.315 146.096 357.372 145.696Z" fill="#587DFF"/>
<path d="M375.723 133.005H423.086C433.205 135.777 440.608 140.522 441.38 147.239H357.4C358.172 140.522 365.575 135.777 375.723 133.005Z" fill="#D45147"/>
<path d="M354.8 187.2H443.353V174.937H354.8V187.2Z" fill="#D45147"/>
<path d="M407.394 157.358C408.652 157.358 409.652 156.358 409.652 155.1C409.652 153.842 408.652 152.842 407.394 152.842C406.165 152.842 405.136 153.842 405.136 155.1C405.136 156.358 406.165 157.358 407.394 157.358Z" fill="#D45147"/>
<path d="M399.734 157.358C400.991 157.358 401.992 156.358 401.992 155.1C401.992 153.842 400.991 152.842 399.734 152.842C398.476 152.842 397.476 153.842 397.476 155.1C397.476 156.358 398.476 157.358 399.734 157.358Z" fill="#D45147"/>
<path d="M392.075 157.358C393.304 157.358 394.333 156.358 394.333 155.1C394.333 153.842 393.304 152.842 392.075 152.842C390.817 152.842 389.788 153.842 389.788 155.1C389.788 156.358 390.817 157.358 392.075 157.358Z" fill="#D45147"/>
<path d="M384.384 157.358C385.642 157.358 386.642 156.358 386.642 155.1C386.642 153.842 385.642 152.842 384.384 152.842C383.155 152.842 382.126 153.842 382.126 155.1C382.126 156.358 383.155 157.358 384.384 157.358Z" fill="#D45147"/>
<path fill-rule="evenodd" clip-rule="evenodd" d="M418.456 160.502H432.005V172.965H418.456V160.502ZM431.805 160.731H418.656V172.765H431.805V160.731Z" fill="#D45147"/>
<path fill-rule="evenodd" clip-rule="evenodd" d="M390.274 107.709C390.96 106.68 391.817 105.794 392.789 105.136L392.589 104.822L392.189 104.222L392.16 104.193C393.304 103.45 394.533 102.936 395.847 102.65L396.076 103.764C397.277 103.507 398.506 103.507 399.706 103.736L399.906 102.621C401.193 102.878 402.45 103.364 403.622 104.136L402.993 105.079C404.051 105.765 404.909 106.623 405.566 107.623L406.509 106.994C407.252 108.109 407.796 109.367 408.053 110.653L406.938 110.882C407.195 112.082 407.224 113.311 406.967 114.512L408.081 114.712C407.824 115.998 407.338 117.256 406.566 118.428L405.623 117.799C404.937 118.857 404.08 119.714 403.108 120.372L403.537 121.029L403.708 121.315H403.737C402.593 122.058 401.336 122.601 400.049 122.858L399.821 121.772C398.649 122.001 397.391 122.03 396.191 121.772L395.99 122.887C394.704 122.658 393.446 122.144 392.275 121.401L392.903 120.457C391.846 119.743 390.988 118.885 390.331 117.913L389.588 118.399L389.388 118.542C388.644 117.399 388.101 116.17 387.844 114.855L388.959 114.626C388.702 113.454 388.702 112.225 388.93 110.996L387.815 110.796C388.073 109.51 388.559 108.252 389.33 107.109L390.274 107.709ZM395.219 116.913C397.505 118.428 400.621 117.799 402.136 115.484C403.622 113.169 402.993 110.081 400.678 108.567C398.391 107.052 395.276 107.709 393.789 109.996C392.275 112.311 392.903 115.398 395.219 116.913Z" fill="#587DFF"/>
<path d="M396.162 110.138V115.54L401.164 112.653L396.162 110.138Z" fill="#587DFF"/>
<path d="M390.474 124.288C390.665 124.021 390.846 123.754 391.017 123.487C387.73 121.229 385.558 117.456 385.558 113.197H386.844L385.043 110.482L383.414 113.169H384.586C384.586 117.771 386.93 121.858 390.474 124.288Z" fill="#587DFF"/>
<path d="M411.027 112.797C411.027 109.252 409.655 105.937 407.197 103.393C406.511 102.707 405.777 102.106 404.996 101.592C404.824 101.859 404.662 102.135 404.51 102.421C405.234 102.897 405.901 103.45 406.511 104.079C408.797 106.422 410.055 109.51 410.055 112.797L408.769 112.768L410.57 115.484L412.199 112.797H411.027Z" fill="#587DFF"/>
</svg>
