<svg width="459" height="427" viewBox="0 0 459 427" fill="none" xmlns="http://www.w3.org/2000/svg">
<circle cx="231.5" cy="220.5" r="78" stroke="white"/>
<circle cx="231.5" cy="220.5" r="149" stroke="white"/>
<circle cx="231.5" cy="220.5" r="206" stroke="white"/>
<rect x="207" y="117" width="50" height="50" rx="25" fill="#031555"/>
<g clip-path="url(#clip0_159_214)">
<path opacity="0.999" fill-rule="evenodd" clip-rule="evenodd" d="M247 128.26C247 134.252 247 140.244 247 146.237C246.796 146.865 246.366 147.276 245.711 147.467C236.57 147.506 227.43 147.506 218.289 147.467C217.634 147.276 217.204 146.865 217 146.237C217 140.244 217 134.252 217 128.26C217.204 127.631 217.634 127.22 218.289 127.029C227.43 126.99 236.57 126.99 245.711 127.029C246.366 127.22 246.796 127.631 247 128.26Z" fill="#D45147"/>
<path opacity="0.997" fill-rule="evenodd" clip-rule="evenodd" d="M225.057 150.496C229.686 150.496 234.315 150.496 238.944 150.496C238.944 151.785 238.944 153.074 238.944 154.363C241.493 154.349 244.041 154.363 246.59 154.407C247.379 154.86 247.599 155.519 247.249 156.385C247.094 156.646 246.874 156.837 246.59 156.956C236.863 157.015 227.137 157.015 217.41 156.956C216.622 156.503 216.402 155.844 216.751 154.979C216.906 154.717 217.126 154.527 217.41 154.407C219.959 154.363 222.508 154.349 225.057 154.363C225.057 153.074 225.057 151.785 225.057 150.496Z" fill="#D45147"/>
</g>
<rect x="146" y="236" width="50" height="50" rx="25" fill="#031555"/>
<g clip-path="url(#clip1_159_214)">
<path opacity="0.986" fill-rule="evenodd" clip-rule="evenodd" d="M155.971 252.885C155.971 252.416 155.971 251.947 155.971 251.479C156.427 249.489 157.658 248.268 159.662 247.816C161.857 247.581 163.468 248.43 164.496 250.365C164.879 250.806 165.358 251.089 165.932 251.215C166.947 251.332 167.963 251.332 168.979 251.215C169.552 251.089 170.031 250.806 170.414 250.365C171.742 248.047 173.685 247.295 176.244 248.109C178.407 249.243 179.237 251.01 178.734 253.412C178.034 255.427 176.618 256.482 174.486 256.576C172.616 256.525 171.258 255.666 170.414 253.998C170.031 253.557 169.552 253.274 168.979 253.149C167.963 253.031 166.947 253.031 165.932 253.149C165.358 253.274 164.879 253.557 164.496 253.998C163.387 256.042 161.678 256.872 159.369 256.488C157.517 255.955 156.384 254.754 155.971 252.885ZM173.607 251.303C174.193 251.303 174.779 251.303 175.365 251.303C175.365 251.889 175.365 252.475 175.365 253.061C174.779 253.061 174.193 253.061 173.607 253.061C173.607 252.475 173.607 251.889 173.607 251.303Z" fill="#D45147"/>
<path opacity="0.986" fill-rule="evenodd" clip-rule="evenodd" d="M185.971 260.268C185.971 260.736 185.971 261.205 185.971 261.674C185.507 263.69 184.257 264.911 182.221 265.336C180.05 265.555 178.458 264.705 177.445 262.787C177.062 262.346 176.583 262.063 176.01 261.938C174.994 261.82 173.978 261.82 172.963 261.938C172.389 262.063 171.91 262.346 171.527 262.787C170.2 265.105 168.257 265.857 165.697 265.043C163.442 263.842 162.631 261.996 163.265 259.506C164.195 257.367 165.826 256.401 168.158 256.606C169.706 256.896 170.829 257.746 171.527 259.154C171.91 259.595 172.389 259.878 172.963 260.004C173.978 260.121 174.994 260.121 176.01 260.004C176.583 259.878 177.062 259.595 177.445 259.154C178.555 257.11 180.264 256.28 182.572 256.664C184.424 257.198 185.557 258.399 185.971 260.268ZM166.576 260.092C167.162 260.092 167.748 260.092 168.334 260.092C168.334 260.678 168.334 261.264 168.334 261.85C167.748 261.85 167.162 261.85 166.576 261.85C166.576 261.264 166.576 260.678 166.576 260.092Z" fill="#D45147"/>
<path opacity="0.986" fill-rule="evenodd" clip-rule="evenodd" d="M155.971 270.463C155.971 269.994 155.971 269.525 155.971 269.057C156.427 267.067 157.658 265.846 159.662 265.395C161.857 265.159 163.468 266.008 164.496 267.943C164.879 268.384 165.358 268.667 165.932 268.793C166.947 268.91 167.963 268.91 168.979 268.793C169.552 268.667 170.031 268.384 170.414 267.943C171.742 265.625 173.685 264.874 176.244 265.688C178.407 266.821 179.237 268.588 178.734 270.99C178.034 273.006 176.618 274.06 174.486 274.154C172.616 274.103 171.258 273.244 170.414 271.576C170.031 271.135 169.552 270.852 168.979 270.727C167.963 270.609 166.947 270.609 165.932 270.727C165.358 270.852 164.879 271.135 164.496 271.576C163.387 273.62 161.678 274.45 159.369 274.066C157.517 273.533 156.384 272.332 155.971 270.463ZM173.607 268.881C174.193 268.881 174.779 268.881 175.365 268.881C175.365 269.467 175.365 270.053 175.365 270.639C174.779 270.639 174.193 270.639 173.607 270.639C173.607 270.053 173.607 269.467 173.607 268.881Z" fill="#D45147"/>
</g>
<rect x="271" y="236" width="50" height="50" rx="25" fill="#031555"/>
<g clip-path="url(#clip2_159_214)">
<path opacity="0.989" fill-rule="evenodd" clip-rule="evenodd" d="M294.74 245.971C295.365 245.971 295.99 245.971 296.615 245.971C299.083 246.359 300.948 247.629 302.211 249.779C302.534 250.349 302.759 250.955 302.885 251.596C305.88 251.731 307.999 253.157 309.242 255.873C310.343 259.157 309.571 261.901 306.928 264.105C305.788 264.912 304.518 265.351 303.119 265.424C303.119 266.225 303.119 267.025 303.119 267.826C304.117 268.151 304.713 268.834 304.906 269.877C305.067 271.265 304.53 272.271 303.295 272.895C301.694 273.403 300.493 272.924 299.691 271.459C299.219 270.043 299.581 268.901 300.775 268.031C300.94 267.929 301.116 267.861 301.303 267.826C301.303 267.025 301.303 266.225 301.303 265.424C299.818 265.424 298.334 265.424 296.849 265.424C296.83 267.182 296.849 268.94 296.908 270.697C298.335 271.364 298.892 272.477 298.578 274.037C298.235 275.035 297.561 275.679 296.557 275.971C296.166 275.971 295.775 275.971 295.385 275.971C293.575 275.339 292.921 274.089 293.422 272.221C293.736 271.506 294.254 270.998 294.974 270.697C295.033 268.94 295.053 267.182 295.033 265.424C293.568 265.424 292.103 265.424 290.639 265.424C290.639 266.225 290.639 267.025 290.639 267.826C291.781 268.281 292.386 269.131 292.455 270.375C292.284 272.04 291.366 272.948 289.701 273.1C288.022 272.944 287.104 272.026 286.947 270.346C287.031 269.149 287.617 268.309 288.705 267.826C288.763 267.026 288.783 266.226 288.764 265.424C285.783 265.531 283.703 264.222 282.523 261.498C281.719 258.864 282.334 256.628 284.369 254.789C285.5 253.901 286.789 253.461 288.236 253.471C288.345 250.092 289.947 247.739 293.041 246.41C293.603 246.216 294.17 246.069 294.74 245.971ZM289.467 269.467C290.135 269.419 290.525 269.722 290.639 270.375C290.453 271.151 289.984 271.405 289.232 271.137C288.847 270.872 288.72 270.511 288.851 270.053C288.975 269.763 289.18 269.568 289.467 269.467ZM302.006 269.467C302.524 269.418 302.885 269.633 303.09 270.111C303.189 270.685 302.964 271.066 302.416 271.254C301.664 271.283 301.303 270.922 301.332 270.17C301.45 269.827 301.675 269.593 302.006 269.467ZM295.853 272.338C296.787 272.505 297.05 273.013 296.644 273.861C296.281 274.19 295.881 274.238 295.443 274.008C294.89 273.483 294.91 272.975 295.502 272.484C295.626 272.435 295.743 272.386 295.853 272.338Z" fill="#D45147"/>
</g>
<rect x="207" width="50" height="50" rx="25" fill="#031555"/>
<g clip-path="url(#clip3_159_214)">
<path opacity="0.989" fill-rule="evenodd" clip-rule="evenodd" d="M231.619 9.9707C231.854 9.9707 232.088 9.9707 232.322 9.9707C237.009 12.3533 241.716 14.7068 246.443 17.0312C236.795 17.0703 227.147 17.0703 217.498 17.0312C222.225 14.7068 226.932 12.3533 231.619 9.9707Z" fill="#D45147"/>
<path opacity="0.997" fill-rule="evenodd" clip-rule="evenodd" d="M216.971 18.8184C226.971 18.8184 236.971 18.8184 246.971 18.8184C246.971 18.8965 246.971 18.9746 246.971 19.0527C246.586 20.1805 245.98 21.1766 245.154 22.041C245.04 22.1654 244.903 22.2532 244.744 22.3047C236.229 22.3438 227.713 22.3438 219.197 22.3047C219.057 22.2619 218.93 22.1935 218.816 22.0996C217.992 21.2079 217.377 20.1922 216.971 19.0527C216.971 18.9746 216.971 18.8965 216.971 18.8184Z" fill="#D45147"/>
<path fill-rule="evenodd" clip-rule="evenodd" d="M220.486 24.0918C222.264 24.0918 224.041 24.0918 225.818 24.0918C225.818 27.6269 225.818 31.1621 225.818 34.6973C224.041 34.6973 222.264 34.6973 220.486 34.6973C220.486 31.1621 220.486 27.6269 220.486 24.0918Z" fill="#D45147"/>
<path fill-rule="evenodd" clip-rule="evenodd" d="M229.334 24.0918C231.092 24.0918 232.85 24.0918 234.607 24.0918C234.607 27.6269 234.607 31.1621 234.607 34.6973C232.85 34.6973 231.092 34.6973 229.334 34.6973C229.334 31.1621 229.334 27.6269 229.334 24.0918Z" fill="#D45147"/>
<path fill-rule="evenodd" clip-rule="evenodd" d="M238.123 24.0918C239.9 24.0918 241.678 24.0918 243.455 24.0918C243.455 27.6269 243.455 31.1621 243.455 34.6973C241.678 34.6973 239.9 34.6973 238.123 34.6973C238.123 31.1621 238.123 27.6269 238.123 24.0918Z" fill="#D45147"/>
<path opacity="0.997" fill-rule="evenodd" clip-rule="evenodd" d="M246.971 38.7402C246.971 38.9746 246.971 39.209 246.971 39.4434C246.894 39.5305 246.826 39.6282 246.766 39.7363C246.648 39.8065 246.54 39.8846 246.443 39.9707C236.795 39.9707 227.147 39.9707 217.498 39.9707C217.411 39.8943 217.313 39.826 217.205 39.7656C217.135 39.6476 217.057 39.5401 216.971 39.4434C216.971 39.209 216.971 38.9746 216.971 38.7402C217.276 38.0721 217.657 37.4471 218.113 36.8652C218.246 36.6934 218.412 36.5664 218.611 36.4844C227.518 36.4453 236.424 36.4453 245.33 36.4844C245.691 36.6895 245.975 36.9727 246.18 37.334C246.49 37.7798 246.754 38.2486 246.971 38.7402Z" fill="#D45147"/>
</g>
<rect x="409" y="147" width="50" height="50" rx="25" fill="#031555"/>
<path opacity="0.984" fill-rule="evenodd" clip-rule="evenodd" d="M425.943 159.432C428.562 159.367 430.31 160.559 431.188 163.006C431.383 163.797 431.442 164.598 431.363 165.408C434.449 168.494 437.535 171.58 440.621 174.666C443.158 174.333 444.994 175.31 446.129 177.596C446.551 178.691 446.609 179.804 446.305 180.936C446.252 181.188 446.144 181.412 445.982 181.609C445.768 181.727 445.553 181.727 445.338 181.609C444.654 180.926 443.971 180.242 443.287 179.559C442.62 179.15 442.024 179.238 441.5 179.822C441.217 180.324 441.237 180.812 441.559 181.287C442.242 181.971 442.926 182.654 443.609 183.338C443.744 183.604 443.715 183.848 443.522 184.07C441.322 184.9 439.399 184.48 437.75 182.811C436.767 181.553 436.376 180.127 436.578 178.533C433.522 175.477 430.465 172.42 427.408 169.363C425.406 169.614 423.755 168.98 422.457 167.459C421.387 165.932 421.172 164.291 421.813 162.537C422.01 162.238 422.273 162.169 422.604 162.332C423.349 163.117 424.131 163.859 424.947 164.559C425.763 164.781 426.319 164.498 426.617 163.709C426.687 163.323 426.609 162.971 426.383 162.654C425.699 161.971 425.016 161.287 424.332 160.604C424.205 160.34 424.234 160.096 424.42 159.871C424.914 159.65 425.422 159.504 425.943 159.432Z" fill="#D45147"/>
<path opacity="0.977" fill-rule="evenodd" clip-rule="evenodd" d="M441.119 159.432C441.652 159.42 442.18 159.468 442.701 159.578C442.983 159.623 443.139 159.789 443.17 160.076C443.137 160.249 443.068 160.406 442.965 160.545C442.184 161.326 441.402 162.108 440.621 162.889C440.699 163.559 440.826 164.223 441.002 164.881C441.577 165.053 442.163 165.199 442.76 165.32C442.877 165.36 442.994 165.36 443.111 165.32C443.932 164.5 444.752 163.68 445.572 162.859C446.073 162.732 446.356 162.937 446.422 163.475C446.739 166.055 445.733 167.901 443.404 169.012C442.812 169.249 442.197 169.356 441.559 169.334C441.115 169.328 440.675 169.299 440.24 169.246C439.624 169.872 438.999 170.487 438.365 171.092C437.174 169.94 436.002 168.768 434.85 167.576C435.454 166.942 436.069 166.317 436.695 165.701C436.25 163.323 437.021 161.457 439.01 160.106C439.677 159.743 440.38 159.518 441.119 159.432Z" fill="#D45147"/>
<path opacity="0.973" fill-rule="evenodd" clip-rule="evenodd" d="M429.517 172.85C430.723 173.968 431.905 175.12 433.062 176.307C433.101 176.346 433.101 176.385 433.062 176.424C431.793 177.693 430.523 178.963 429.254 180.232C429.21 182.805 427.911 184.231 425.357 184.51C423.335 184.392 422.055 183.356 421.519 181.404C421.249 179.494 421.942 178.059 423.599 177.098C424.271 176.803 424.974 176.666 425.709 176.688C426.99 175.416 428.26 174.137 429.517 172.85ZM424.947 178.768C426.295 178.661 427.057 179.276 427.232 180.613C427.022 181.917 426.26 182.523 424.947 182.43C423.88 182.084 423.401 181.352 423.511 180.232C423.729 179.478 424.207 178.99 424.947 178.768Z" fill="#D45147"/>
<path opacity="0.929" fill-rule="evenodd" clip-rule="evenodd" d="M425.006 179.705C425.739 179.589 426.168 179.892 426.295 180.613C426.061 181.492 425.534 181.727 424.713 181.317C424.415 180.981 424.347 180.6 424.508 180.174C424.629 179.964 424.795 179.808 425.006 179.705Z" fill="#D45147"/>
<rect y="147" width="50" height="50" rx="25" fill="#031555"/>
<g clip-path="url(#clip4_159_214)">
<path opacity="0.997" fill-rule="evenodd" clip-rule="evenodd" d="M13.4277 156.971C21.123 156.971 28.8184 156.971 36.5137 156.971C36.6886 157.074 36.8351 157.21 36.9531 157.381C37.8538 159.192 38.762 160.999 39.6777 162.801C29.8731 162.84 20.0683 162.84 10.2637 162.801C11.1794 160.999 12.0876 159.192 12.9883 157.381C13.1063 157.21 13.2528 157.074 13.4277 156.971Z" fill="#D45147"/>
<path opacity="0.993" fill-rule="evenodd" clip-rule="evenodd" d="M9.9707 164.588C19.9707 164.588 29.9707 164.588 39.9707 164.588C39.9707 165.701 39.9707 166.814 39.9707 167.928C39.4169 170.239 37.9521 171.47 35.5762 171.619C34.1226 171.61 32.941 171.044 32.0312 169.92C30.6443 171.515 28.9353 171.993 26.9043 171.355C26.1358 171.046 25.4912 170.568 24.9707 169.92C23.6358 171.475 21.9756 171.973 19.9902 171.414C19.1549 171.109 18.4615 170.611 17.9102 169.92C16.4636 171.573 14.696 172.032 12.6074 171.297C11.1864 170.592 10.3075 169.469 9.9707 167.928C9.9707 166.814 9.9707 165.701 9.9707 164.588Z" fill="#D45147"/>
<path opacity="0.993" fill-rule="evenodd" clip-rule="evenodd" d="M37.0408 186.971C34.8728 186.971 32.7048 186.971 30.5369 186.971C30.5467 185.115 30.5369 183.26 30.5076 181.404C30.3414 178.68 28.9644 176.893 26.3767 176.043C23.7495 175.532 21.689 176.381 20.1951 178.592C19.8322 179.231 19.5978 179.915 19.4919 180.643C19.4094 182.751 19.3801 184.86 19.4041 186.971C17.2361 186.971 15.0681 186.971 12.9001 186.971C12.667 186.864 12.501 186.689 12.4021 186.443C12.3728 181.971 12.363 177.498 12.3728 173.025C14.3303 173.632 16.176 173.379 17.9099 172.264C20.2631 173.745 22.6166 173.745 24.9705 172.264C27.3243 173.745 29.6778 173.745 32.031 172.264C33.7649 173.379 35.6106 173.632 37.5681 173.025C37.5779 177.498 37.5681 181.971 37.5388 186.443C37.4399 186.689 37.2739 186.864 37.0408 186.971Z" fill="#D45147"/>
<path opacity="0.994" fill-rule="evenodd" clip-rule="evenodd" d="M28.7791 186.971C26.24 186.971 23.7009 186.971 21.1619 186.971C21.1521 184.881 21.1619 182.791 21.1912 180.701C21.6868 178.731 22.9466 177.695 24.9705 177.596C26.9944 177.695 28.2541 178.731 28.7498 180.701C28.7791 182.791 28.7888 184.881 28.7791 186.971Z" fill="#D45147"/>
</g>
<rect x="69" y="346" width="50" height="50" rx="25" fill="#031555"/>
<g clip-path="url(#clip5_159_214)">
<path opacity="0.96" fill-rule="evenodd" clip-rule="evenodd" d="M99.1272 355.971C99.5568 355.971 99.9865 355.971 100.416 355.971C103.925 356.569 106.181 358.581 107.184 362.006C107.354 362.72 107.412 363.443 107.36 364.174C107.121 364.736 106.701 364.941 106.1 364.789C105.768 364.652 105.563 364.408 105.485 364.057C105.393 361.331 104.114 359.407 101.647 358.285C100.834 357.986 99.9943 357.83 99.1272 357.816C98.5794 357.531 98.3938 357.092 98.5705 356.498C98.7115 356.269 98.897 356.093 99.1272 355.971Z" fill="#D45147"/>
<path opacity="0.956" fill-rule="evenodd" clip-rule="evenodd" d="M99.4201 359.311C101.4 359.406 102.816 360.344 103.668 362.123C103.938 362.782 104.035 363.466 103.961 364.174C103.637 364.829 103.139 364.995 102.467 364.672C102.314 364.558 102.207 364.412 102.145 364.232C102.037 362.327 101.031 361.322 99.1272 361.215C98.5794 360.93 98.3938 360.49 98.5705 359.896C98.7642 359.561 99.0473 359.366 99.4201 359.311Z" fill="#D45147"/>
<path opacity="0.985" fill-rule="evenodd" clip-rule="evenodd" d="M89.9279 359.604C90.11 359.595 90.2857 359.624 90.4552 359.691C92.419 361.665 94.3916 363.628 96.3732 365.58C96.9095 365.073 97.4368 364.556 97.9552 364.027C98.4665 363.733 98.9254 363.801 99.3322 364.232C99.5035 364.574 99.523 364.925 99.3908 365.287C98.875 365.862 98.3379 366.418 97.7795 366.957C99.6678 368.904 101.592 370.848 103.551 372.787C103.729 373.199 103.641 373.541 103.287 373.813C100.51 375.952 97.4435 376.528 94.0881 375.541C95.1422 373.36 94.7906 371.437 93.0334 369.77C91.6683 368.715 90.1644 368.462 88.5217 369.008C88.2514 369.104 87.9975 369.231 87.7599 369.389C86.7689 366.16 87.2279 363.152 89.1369 360.365C89.3572 360.057 89.6209 359.803 89.9279 359.604Z" fill="#D45147"/>
<path opacity="0.975" fill-rule="evenodd" clip-rule="evenodd" d="M90.0451 370.502C91.7753 370.65 92.7324 371.588 92.9162 373.314C92.7534 375.011 91.8257 375.928 90.133 376.068C88.647 375.988 87.7291 375.227 87.3791 373.783C87.2191 372.335 87.7952 371.31 89.1076 370.707C89.4224 370.611 89.7348 370.543 90.0451 370.502Z" fill="#D45147"/>
<path opacity="0.984" fill-rule="evenodd" clip-rule="evenodd" d="M86.7051 376.42C86.9652 376.611 87.2191 376.816 87.4668 377.035C89.6311 378.336 91.6428 378.131 93.502 376.42C94.247 378.205 94.9697 380.002 95.6699 381.811C91.959 381.889 88.248 381.889 84.5371 381.811C85.2605 380.012 85.9832 378.216 86.7051 376.42Z" fill="#D45147"/>
<path opacity="0.974" fill-rule="evenodd" clip-rule="evenodd" d="M98.8926 385.971C93.0332 385.971 87.1739 385.971 81.3145 385.971C80.5475 385.554 80.3619 384.948 80.7578 384.154C80.9098 383.976 81.0953 383.849 81.3145 383.773C84.2416 383.706 87.1713 383.676 90.1035 383.686C93.0549 383.676 96.0041 383.706 98.9512 383.773C99.6777 384.18 99.8632 384.756 99.5078 385.502C99.3406 385.719 99.1355 385.876 98.8926 385.971Z" fill="#D45147"/>
</g>
<rect x="356" y="346" width="50" height="50" rx="25" fill="#031555"/>
<path opacity="0.968" fill-rule="evenodd" clip-rule="evenodd" d="M378.686 356.791C378.802 358.587 378.841 360.403 378.803 362.24C377.338 362.24 375.873 362.24 374.408 362.24C374.764 360.904 375.34 359.673 376.137 358.549C376.788 357.663 377.638 357.077 378.686 356.791Z" fill="#D45147"/>
<path opacity="0.968" fill-rule="evenodd" clip-rule="evenodd" d="M379.74 356.85C380.177 356.92 380.587 357.067 380.971 357.289C381.935 357.997 382.687 358.886 383.227 359.955C383.589 360.7 383.911 361.462 384.193 362.24C382.709 362.299 381.225 362.318 379.74 362.299C379.74 360.482 379.74 358.666 379.74 356.85Z" fill="#D45147"/>
<path opacity="0.949" fill-rule="evenodd" clip-rule="evenodd" d="M376.049 357.143C376.109 357.166 376.119 357.205 376.078 357.26C375.189 358.177 374.506 359.231 374.027 360.424C373.797 361.027 373.572 361.633 373.354 362.24C371.791 362.318 370.229 362.318 368.666 362.24C370.52 359.664 372.981 357.965 376.049 357.143Z" fill="#D45147"/>
<path opacity="0.953" fill-rule="evenodd" clip-rule="evenodd" d="M382.318 357.201C382.343 357.165 382.382 357.145 382.436 357.143C385.546 357.944 388.046 359.634 389.936 362.211C388.334 362.25 386.732 362.25 385.131 362.211C384.667 360.727 383.993 359.35 383.109 358.08C382.854 357.776 382.59 357.483 382.318 357.201Z" fill="#D45147"/>
<path opacity="0.978" fill-rule="evenodd" clip-rule="evenodd" d="M368.021 363.178C369.701 363.178 371.381 363.178 373.061 363.178C372.663 365.071 372.428 366.985 372.357 368.92C370.365 368.92 368.373 368.92 366.381 368.92C366.489 366.878 367.036 364.964 368.021 363.178Z" fill="#D45147"/>
<path opacity="0.983" fill-rule="evenodd" clip-rule="evenodd" d="M374.057 363.178C375.619 363.178 377.182 363.178 378.744 363.178C378.744 365.092 378.744 367.006 378.744 368.92C376.908 368.92 375.072 368.92 373.236 368.92C373.318 366.979 373.592 365.064 374.057 363.178Z" fill="#D45147"/>
<path opacity="0.982" fill-rule="evenodd" clip-rule="evenodd" d="M379.74 363.178C381.322 363.178 382.904 363.178 384.486 363.178C384.658 364.067 384.834 364.955 385.014 365.844C384.506 366.81 384.096 367.815 383.783 368.861C383.492 368.929 383.199 368.939 382.904 368.891C382.479 368.544 382.001 368.3 381.469 368.158C380.966 368.229 380.566 368.473 380.268 368.891C380.093 368.92 379.917 368.93 379.74 368.92C379.74 367.006 379.74 365.092 379.74 363.178Z" fill="#D45147"/>
<path opacity="0.968" fill-rule="evenodd" clip-rule="evenodd" d="M385.424 363.236C387.123 363.227 388.822 363.236 390.521 363.266C391.381 364.702 391.909 366.255 392.104 367.924C392.102 368.013 392.063 368.082 391.986 368.129C391.77 368.162 391.555 368.201 391.342 368.246C390.955 368.457 390.584 368.692 390.229 368.949C389.953 368.998 389.68 368.988 389.408 368.92C389.314 368.453 389.226 367.984 389.145 367.514C388.951 366.933 388.55 366.611 387.943 366.547C387.241 366.518 386.537 366.508 385.834 366.518C385.939 366.193 385.968 365.861 385.922 365.521C385.782 364.753 385.616 363.991 385.424 363.236Z" fill="#D45147"/>
<path opacity="0.979" fill-rule="evenodd" clip-rule="evenodd" d="M385.365 367.396C386.289 367.369 387.207 367.398 388.119 367.484C388.189 367.537 388.238 367.606 388.266 367.689C388.395 368.394 388.531 369.097 388.676 369.799C388.977 369.925 389.28 370.052 389.584 370.18C389.662 370.219 389.74 370.219 389.818 370.18C390.375 369.775 390.941 369.384 391.518 369.008C391.701 368.961 391.877 368.981 392.045 369.066C392.602 369.634 393.169 370.19 393.744 370.736C393.783 370.834 393.822 370.932 393.861 371.029C393.823 371.124 393.794 371.222 393.773 371.322C393.37 371.904 392.989 372.5 392.631 373.109C392.801 373.441 392.948 373.783 393.07 374.135C393.776 374.303 394.489 374.45 395.209 374.574C395.375 374.623 395.482 374.73 395.531 374.896C395.57 375.717 395.57 376.537 395.531 377.357C395.482 377.523 395.375 377.631 395.209 377.68C394.507 377.824 393.804 377.961 393.1 378.09C392.976 378.474 392.819 378.845 392.631 379.203C393.136 379.844 393.566 380.528 393.92 381.254C393.917 381.369 393.888 381.477 393.832 381.576C393.274 382.115 392.736 382.672 392.221 383.246C391.967 383.441 391.713 383.441 391.459 383.246C390.893 382.865 390.326 382.484 389.76 382.103C389.42 382.279 389.068 382.425 388.705 382.543C388.552 383.252 388.405 383.965 388.266 384.682C388.22 384.786 388.151 384.874 388.06 384.945C387.123 384.984 386.185 384.984 385.248 384.945C385.157 384.874 385.089 384.786 385.043 384.682C384.899 383.98 384.762 383.277 384.633 382.572C384.285 382.453 383.943 382.316 383.607 382.162C382.954 382.649 382.28 383.098 381.586 383.51C381.504 383.467 381.416 383.438 381.322 383.422C380.704 382.803 380.089 382.188 379.477 381.576C379.432 381.412 379.452 381.256 379.535 381.107C379.938 380.526 380.319 379.93 380.678 379.32C380.536 378.959 380.38 378.608 380.209 378.266C379.485 378.135 378.762 377.998 378.041 377.855C377.934 377.826 377.865 377.758 377.836 377.65C377.779 376.707 377.799 375.77 377.894 374.838C377.943 374.789 377.992 374.74 378.041 374.691C378.767 374.557 379.49 374.411 380.209 374.252C380.382 373.9 380.538 373.538 380.678 373.168C380.294 372.528 379.874 371.913 379.418 371.322C379.377 371.177 379.396 371.041 379.477 370.912C380.079 370.302 380.675 369.687 381.264 369.066C381.322 369.037 381.381 369.008 381.439 368.978C381.71 369.075 381.964 369.201 382.201 369.359C382.656 369.67 383.115 369.972 383.578 370.268C383.918 370.125 384.259 369.988 384.603 369.857C384.644 369.827 384.673 369.788 384.691 369.74C384.836 369.038 384.972 368.335 385.102 367.631C385.183 367.539 385.271 367.461 385.365 367.396ZM386.185 372.377C387.944 372.274 389.262 372.978 390.141 374.486C390.97 376.53 390.51 378.22 388.764 379.555C387.14 380.466 385.597 380.349 384.135 379.203C382.528 377.55 382.362 375.763 383.637 373.842C384.312 373.041 385.162 372.552 386.185 372.377Z" fill="#D45147"/>
<path opacity="0.978" fill-rule="evenodd" clip-rule="evenodd" d="M366.381 369.799C368.373 369.799 370.365 369.799 372.357 369.799C372.419 371.739 372.673 373.653 373.119 375.541C371.42 375.551 369.721 375.541 368.021 375.512C367.015 373.743 366.468 371.839 366.381 369.799Z" fill="#D45147"/>
<path opacity="0.977" fill-rule="evenodd" clip-rule="evenodd" d="M373.295 369.799C375.131 369.799 376.967 369.799 378.803 369.799C378.812 370.034 378.803 370.268 378.773 370.502C378.5 370.932 378.5 371.362 378.773 371.791C378.813 372.416 378.813 373.041 378.773 373.666C378.453 373.754 378.131 373.842 377.807 373.93C377.142 374.253 376.849 374.79 376.928 375.541C375.971 375.541 375.014 375.541 374.057 375.541C373.611 373.653 373.357 371.739 373.295 369.799Z" fill="#D45147"/>
<path opacity="0.957" fill-rule="evenodd" clip-rule="evenodd" d="M374.35 376.42C375.209 376.42 376.068 376.42 376.928 376.42C376.896 376.956 376.945 377.484 377.074 378.002C377.201 378.285 377.406 378.49 377.689 378.617C378.058 378.699 378.429 378.767 378.803 378.822C378.813 379.584 378.803 380.346 378.773 381.107C378.68 381.3 378.592 381.496 378.51 381.693C378.373 381.753 378.236 381.743 378.1 381.664C377.067 381.178 376.256 380.446 375.668 379.467C375.086 378.513 374.647 377.498 374.35 376.42Z" fill="#D45147"/>
<path opacity="0.953" fill-rule="evenodd" clip-rule="evenodd" d="M368.666 376.479C370.249 376.459 371.831 376.479 373.412 376.537C373.857 378.092 374.551 379.517 375.492 380.814C375.71 381.064 375.935 381.308 376.166 381.547C373.606 380.946 371.428 379.686 369.633 377.768C369.274 377.361 368.952 376.931 368.666 376.479Z" fill="#D45147"/>
<rect x="106" y="90" width="50" height="50" rx="25" fill="#031555"/>
<path opacity="0.99" fill-rule="evenodd" clip-rule="evenodd" d="M121.83 101.494C125.834 101.484 129.838 101.494 133.842 101.523C135.608 101.805 136.633 102.83 136.918 104.6C136.967 105.987 136.957 107.373 136.889 108.76C136.097 108.974 135.56 109.462 135.277 110.225C135.074 110.854 134.859 111.479 134.633 112.1C134.246 110.475 133.24 109.86 131.615 110.254C131.39 110.376 131.176 110.513 130.971 110.664C129.883 111.712 128.838 112.796 127.836 113.916C127.411 114.82 127.508 115.659 128.129 116.436C129.076 117.383 130.023 118.33 130.971 119.277C131.443 119.672 131.99 119.878 132.611 119.893C133.414 121.251 134.508 121.554 135.893 120.801C136.407 120.328 136.749 119.752 136.918 119.072C136.974 121.281 136.955 123.488 136.859 125.693C136.457 127.267 135.451 128.175 133.842 128.418C129.838 128.457 125.834 128.457 121.83 128.418C120.224 128.14 119.219 127.213 118.813 125.635C118.773 118.525 118.773 111.416 118.813 104.307C119.229 102.728 120.235 101.79 121.83 101.494ZM122.885 103.486C126.176 103.408 129.477 103.408 132.787 103.486C132.49 104.211 132.187 104.934 131.879 105.654C131.503 106.189 130.986 106.472 130.326 106.504C128.666 106.543 127.006 106.543 125.346 106.504C124.72 106.479 124.222 106.216 123.852 105.713C123.522 104.967 123.2 104.225 122.885 103.486ZM125.346 123.408C127.026 123.398 128.705 123.408 130.385 123.438C131.148 123.626 131.392 124.084 131.117 124.814C130.933 125.104 130.669 125.25 130.326 125.254C128.666 125.293 127.006 125.293 125.346 125.254C124.535 125.067 124.29 124.589 124.613 123.818C124.816 123.595 125.06 123.458 125.346 123.408Z" fill="#D45147"/>
<path opacity="0.959" fill-rule="evenodd" clip-rule="evenodd" d="M137.006 109.932C137.903 109.863 138.323 110.273 138.265 111.162C137.332 114.003 136.374 116.835 135.394 119.658C134.954 120.065 134.476 120.113 133.959 119.805C133.687 119.494 133.599 119.132 133.695 118.721C134.613 115.967 135.531 113.213 136.449 110.459C136.59 110.23 136.775 110.054 137.006 109.932Z" fill="#D45147"/>
<path opacity="0.958" fill-rule="evenodd" clip-rule="evenodd" d="M132.201 111.279C132.924 111.21 133.334 111.533 133.432 112.246C133.41 112.498 133.322 112.723 133.168 112.92C132.484 113.595 131.81 114.278 131.146 114.971C131.81 115.663 132.484 116.347 133.168 117.022C133.489 117.437 133.509 117.866 133.227 118.311C132.837 118.69 132.398 118.759 131.908 118.516C130.902 117.51 129.896 116.504 128.891 115.498C128.695 115.147 128.695 114.795 128.891 114.443C129.896 113.438 130.902 112.432 131.908 111.426C132.015 111.382 132.112 111.333 132.201 111.279Z" fill="#D45147"/>
<path opacity="0.956" fill-rule="evenodd" clip-rule="evenodd" d="M139.232 111.279C139.52 111.254 139.794 111.303 140.053 111.426C141.039 112.412 142.025 113.398 143.012 114.385C143.207 114.775 143.207 115.166 143.012 115.557C142.025 116.543 141.039 117.529 140.053 118.516C139.205 118.854 138.697 118.58 138.529 117.695C138.533 117.544 138.562 117.397 138.617 117.256C139.339 116.485 140.071 115.724 140.814 114.971C140.071 114.218 139.339 113.456 138.617 112.686C138.399 112.021 138.604 111.552 139.232 111.279Z" fill="#D45147"/>
<rect x="302" y="90" width="50" height="50" rx="25" fill="#031555"/>
<g clip-path="url(#clip6_159_214)">
<path opacity="0.984" fill-rule="evenodd" clip-rule="evenodd" d="M341.971 101.904C341.971 103.174 341.971 104.443 341.971 105.713C333.377 105.713 324.783 105.713 316.189 105.713C316.189 104.443 316.189 103.174 316.189 101.904C324.783 101.904 333.377 101.904 341.971 101.904ZM318.533 103.193C319.295 103.184 320.057 103.193 320.818 103.223C321.229 103.592 321.19 103.904 320.701 104.16C319.959 104.199 319.217 104.199 318.475 104.16C318.066 103.809 318.086 103.487 318.533 103.193ZM322.928 103.193C323.69 103.184 324.451 103.193 325.213 103.223C325.571 103.492 325.591 103.785 325.271 104.102C325.213 104.121 325.154 104.141 325.096 104.16C324.373 104.199 323.65 104.199 322.928 104.16C322.462 103.842 322.462 103.52 322.928 103.193Z" fill="#D45147"/>
<path opacity="0.977" fill-rule="evenodd" clip-rule="evenodd" d="M311.971 106.064C313.045 106.064 314.119 106.064 315.193 106.064C315.193 107.334 315.193 108.603 315.193 109.873C314.119 109.873 313.045 109.873 311.971 109.873C311.971 108.603 311.971 107.334 311.971 106.064Z" fill="#D45147"/>
<path opacity="0.988" fill-rule="evenodd" clip-rule="evenodd" d="M341.971 106.65C341.971 112.393 341.971 118.135 341.971 123.877C333.377 123.877 324.783 123.877 316.189 123.877C316.189 118.135 316.189 112.393 316.189 106.65C324.783 106.65 333.377 106.65 341.971 106.65ZM330.545 109.463C330.877 109.463 331.209 109.463 331.541 109.463C330.26 113.198 328.961 116.928 327.645 120.654C327.288 120.721 326.927 120.731 326.561 120.684C327.906 116.95 329.234 113.209 330.545 109.463ZM325.799 112.51C325.943 112.754 326.06 113.018 326.15 113.301C324.768 113.898 323.382 114.484 321.99 115.059C323.372 115.656 324.759 116.242 326.15 116.816C326.053 117.07 325.955 117.324 325.857 117.578C324.18 116.921 322.51 116.227 320.848 115.498C320.801 115.19 320.81 114.888 320.877 114.59C322.53 113.91 324.17 113.216 325.799 112.51ZM332.303 112.51C333.964 113.197 335.624 113.89 337.283 114.59C337.35 114.888 337.36 115.19 337.312 115.498C335.665 116.207 334.015 116.91 332.361 117.607C332.216 117.357 332.099 117.093 332.01 116.816C333.405 116.246 334.792 115.66 336.17 115.059C334.788 114.461 333.401 113.875 332.01 113.301C332.116 113.04 332.213 112.776 332.303 112.51Z" fill="#D45147"/>
<path opacity="0.991" fill-rule="evenodd" clip-rule="evenodd" d="M311.971 110.869C313.045 110.869 314.119 110.869 315.193 110.869C315.184 115.225 315.193 119.58 315.223 123.936C315.344 124.35 315.608 124.633 316.014 124.785C323.26 124.838 330.506 124.867 337.752 124.873C337.752 125.928 337.752 126.982 337.752 128.037C329.158 128.037 320.564 128.037 311.971 128.037C311.971 122.314 311.971 116.592 311.971 110.869Z" fill="#D45147"/>
</g>
<rect x="207" y="346" width="50" height="50" rx="25" fill="#031555"/>
<g clip-path="url(#clip7_159_214)">
<path opacity="0.982" fill-rule="evenodd" clip-rule="evenodd" d="M225.525 355.971C225.818 355.971 226.111 355.971 226.404 355.971C227.015 356.212 227.376 356.661 227.488 357.318C227.518 357.865 227.527 358.412 227.518 358.959C228.494 358.959 229.471 358.959 230.447 358.959C230.437 358.334 230.447 357.709 230.477 357.084C230.608 356.513 230.95 356.142 231.502 355.971C231.795 355.971 232.088 355.971 232.381 355.971C232.952 356.161 233.313 356.552 233.465 357.143C233.494 357.748 233.504 358.353 233.494 358.959C234.471 358.959 235.447 358.959 236.424 358.959C236.414 358.431 236.424 357.904 236.453 357.377C236.549 356.667 236.93 356.198 237.596 355.971C237.869 355.971 238.143 355.971 238.416 355.971C238.859 356.15 239.181 356.463 239.383 356.908C239.467 357.587 239.496 358.271 239.471 358.959C242.83 358.607 244.334 360.111 243.982 363.471C244.69 363.445 245.393 363.474 246.092 363.559C246.525 363.786 246.818 364.128 246.971 364.584C246.971 364.857 246.971 365.131 246.971 365.404C246.762 366.051 246.313 366.412 245.623 366.488C245.077 366.518 244.53 366.527 243.982 366.518C243.982 367.494 243.982 368.471 243.982 369.447C244.588 369.438 245.194 369.447 245.799 369.477C246.39 369.628 246.78 369.989 246.971 370.561C246.971 370.854 246.971 371.146 246.971 371.439C246.8 371.991 246.429 372.333 245.857 372.465C245.233 372.494 244.608 372.504 243.982 372.494C243.982 373.471 243.982 374.447 243.982 375.424C244.51 375.414 245.037 375.424 245.564 375.453C246.275 375.549 246.743 375.93 246.971 376.596C246.971 376.869 246.971 377.143 246.971 377.416C246.84 377.85 246.567 378.172 246.15 378.383C245.431 378.466 244.709 378.495 243.982 378.471C244.334 381.83 242.83 383.334 239.471 382.982C239.496 383.69 239.467 384.393 239.383 385.092C239.155 385.525 238.813 385.818 238.357 385.971C238.084 385.971 237.811 385.971 237.537 385.971C236.927 385.729 236.566 385.28 236.453 384.623C236.424 384.077 236.414 383.53 236.424 382.982C235.447 382.982 234.471 382.982 233.494 382.982C233.504 383.608 233.494 384.233 233.465 384.857C233.333 385.429 232.991 385.8 232.439 385.971C232.146 385.971 231.854 385.971 231.561 385.971C230.989 385.78 230.628 385.39 230.477 384.799C230.447 384.194 230.438 383.588 230.447 382.982C229.471 382.982 228.494 382.982 227.518 382.982C227.527 383.53 227.518 384.077 227.488 384.623C227.412 385.313 227.051 385.762 226.404 385.971C226.111 385.971 225.818 385.971 225.525 385.971C225.082 385.791 224.76 385.479 224.559 385.033C224.474 384.354 224.445 383.67 224.471 382.982C221.111 383.334 219.607 381.83 219.959 378.471C219.251 378.496 218.548 378.467 217.85 378.383C217.416 378.155 217.123 377.813 216.971 377.357C216.971 377.084 216.971 376.811 216.971 376.537C217.179 375.89 217.628 375.529 218.318 375.453C218.865 375.424 219.412 375.414 219.959 375.424C219.959 374.447 219.959 373.471 219.959 372.494C219.353 372.504 218.748 372.494 218.143 372.465C217.552 372.313 217.161 371.952 216.971 371.381C216.971 371.088 216.971 370.795 216.971 370.502C217.142 369.95 217.513 369.608 218.084 369.477C218.709 369.447 219.334 369.437 219.959 369.447C219.959 368.471 219.959 367.494 219.959 366.518C219.431 366.527 218.904 366.518 218.377 366.488C217.667 366.392 217.198 366.011 216.971 365.346C216.971 365.072 216.971 364.799 216.971 364.525C217.101 364.091 217.375 363.769 217.791 363.559C218.51 363.476 219.233 363.446 219.959 363.471C219.607 360.111 221.111 358.607 224.471 358.959C224.446 358.233 224.476 357.51 224.559 356.791C224.769 356.375 225.091 356.101 225.525 355.971ZM223.006 362.006C228.982 362.006 234.959 362.006 240.936 362.006C240.936 367.982 240.936 373.959 240.936 379.936C234.959 379.936 228.982 379.936 223.006 379.936C223.006 373.959 223.006 367.982 223.006 362.006Z" fill="#D45147"/>
<path opacity="0.989" fill-rule="evenodd" clip-rule="evenodd" d="M225.936 364.936C229.959 364.936 233.982 364.936 238.006 364.936C238.006 368.959 238.006 372.982 238.006 377.006C233.982 377.006 229.959 377.006 225.936 377.006C225.936 372.982 225.936 368.959 225.936 364.936Z" fill="#D45147"/>
</g>
<defs>
<clipPath id="clip0_159_214">
<rect width="30" height="30" fill="white" transform="translate(217 127)"/>
</clipPath>
<clipPath id="clip1_159_214">
<rect width="30" height="30" fill="white" transform="translate(156 246)"/>
</clipPath>
<clipPath id="clip2_159_214">
<rect width="30" height="30" fill="white" transform="translate(281 246)"/>
</clipPath>
<clipPath id="clip3_159_214">
<rect width="30" height="30" fill="white" transform="translate(217 10)"/>
</clipPath>
<clipPath id="clip4_159_214">
<rect width="30" height="30" fill="white" transform="translate(10 157)"/>
</clipPath>
<clipPath id="clip5_159_214">
<rect width="30" height="30" fill="white" transform="translate(79 356)"/>
</clipPath>
<clipPath id="clip6_159_214">
<rect width="30" height="30" fill="white" transform="translate(312 100)"/>
</clipPath>
<clipPath id="clip7_159_214">
<rect width="30" height="30" fill="white" transform="translate(217 356)"/>
</clipPath>
</defs>
</svg>
