<svg width="548" height="548" viewBox="0 0 548 548" fill="none" xmlns="http://www.w3.org/2000/svg">
<path d="M548 274C548 425.326 425.326 548 274 548C122.674 548 0 425.326 0 274C0 122.674 122.674 0 274 0C425.326 0 548 122.674 548 274ZM75.8957 274C75.8957 383.41 164.59 472.104 274 472.104C383.41 472.104 472.104 383.41 472.104 274C472.104 164.59 383.41 75.8957 274 75.8957C164.59 75.8957 75.8957 164.59 75.8957 274Z" fill="#E3E6ED" fill-opacity="0.4"/>
<path style="mix-blend-mode:multiply" d="M246.545 473.459C348.306 473.459 430.8 469.848 430.8 465.393C430.8 460.938 348.306 457.326 246.545 457.326C144.783 457.326 62.2891 460.938 62.2891 465.393C62.2891 469.848 144.783 473.459 246.545 473.459Z" fill="url(#paint0_radial_388_6347)"/>
<path style="mix-blend-mode:multiply" d="M192.595 473.459C294.357 473.459 376.851 469.848 376.851 465.393C376.851 460.938 294.357 457.326 192.595 457.326C90.8338 457.326 8.33984 460.938 8.33984 465.393C8.33984 469.848 90.8338 473.459 192.595 473.459Z" fill="url(#paint1_radial_388_6347)"/>
<path style="mix-blend-mode:multiply" d="M350.521 473.459C452.283 473.459 534.777 469.848 534.777 465.393C534.777 460.938 452.283 457.326 350.521 457.326C248.76 457.326 166.266 460.938 166.266 465.393C166.266 469.848 248.76 473.459 350.521 473.459Z" fill="url(#paint2_radial_388_6347)"/>
<path d="M421.006 173.825V164.467H414.633H404.035H397.159L392.547 170.387V181.925L395.901 181.422L421.006 173.825Z" fill="#261203"/>
<path d="M397.159 164.467L392.547 170.387V181.925L394.928 181.573L400.798 173.959L400.395 169.716V164.467H397.159Z" fill="#8A410B"/>
<path d="M395.634 190.075C398.237 190.075 400.347 187.965 400.347 185.363C400.347 182.76 398.237 180.65 395.634 180.65C393.032 180.65 390.922 182.76 390.922 185.363C390.922 187.965 393.032 190.075 395.634 190.075Z" fill="#FD8D4C"/>
<path d="M395.902 204.129V177.816L400.397 169.666L401.99 169.465L404.774 172.45L418.66 172.769L420.991 171.595V186.537C420.66 188.724 420.069 190.863 419.23 192.91L419.029 199.433C418.973 200.34 418.575 201.191 417.914 201.814C417.254 202.437 416.381 202.785 415.473 202.787H414.182V209.68L413.998 212.581L403.013 211.441L395.902 204.129Z" fill="#FD995F"/>
<path d="M398.082 205.838L400.061 200.807C403.063 201.493 406.104 201.997 409.167 202.316C412.823 202.735 414.198 202.853 414.198 202.853C414.198 202.853 414.919 212.714 414.919 212.915C414.919 213.116 404.857 213.535 404.857 213.535L397.629 207.196L398.082 205.838Z" fill="url(#paint3_linear_388_6347)"/>
<path style="mix-blend-mode:screen" d="M400.061 200.824C400.061 200.824 401.219 201.109 403.231 201.478L402.107 179.056L395.902 177.865V204.128L397.445 205.805L398.082 205.905L400.061 200.824Z" fill="url(#paint4_linear_388_6347)"/>
<path d="M382.117 319.725L364.441 452.58H366.957V455.095H364.441V464.436H392.548V462.072L385.354 459.791L381.564 454.76H379.535V452.412H383.258L406.535 353.467L400.481 452.194H402.745V454.709H400.397V464.386H430.751V462.273L423.674 460.596C422.619 459.516 421.499 458.503 420.32 457.56C419.314 456.873 416.698 454.86 416.698 454.86V452.261H420.22L431.171 300.741L384.75 299.299L382.117 319.725Z" fill="#00112D"/>
<path d="M381.211 326.971C386.527 327.374 405.763 328.229 407.859 327.961C409.955 327.692 415.607 308.339 417.921 300.172L384.817 299.367L382.217 319.726L381.211 326.971Z" fill="#000C1C"/>
<path d="M366.973 452.581L385.789 319.727H382.116L364.457 452.581H366.973Z" fill="#FEFEFE"/>
<path d="M422.031 326.618C423.087 327.977 424.865 328.111 429.175 327.859L431.137 300.809L420.974 300.49L419.381 300.943C419.381 300.943 419.683 323.583 422.031 326.618Z" fill="#000C1C"/>
<path d="M391.525 208.002L395.902 204.078L408.447 211.39H411.801L414.132 209.713L414.853 211.038C414.853 211.038 419.18 223.079 420.253 226.735C421.326 230.391 422.081 241.057 422.752 249.794C423.423 258.531 425.837 300.96 425.837 300.96H409.906C409.906 300.96 414.769 261.483 414.014 257.575C413.26 253.668 403.818 234.734 401.068 230.206C397.021 223.208 393.818 215.755 391.525 208.002Z" fill="#FEFEFE"/>
<path d="M411.85 211.439L412.722 218.483H409.116L408.445 211.439H411.85Z" fill="#750400"/>
<path d="M409.117 218.484L412.723 251.74L410.375 300.944L424.781 300.927L424.227 268.779L419.481 250.6L412.723 218.484H409.117Z" fill="#D02E29"/>
<path d="M391.524 208.002C391.524 208.002 411.162 243.84 411.397 244.427C411.632 245.014 414.751 250.431 414.751 250.431H421.141C421.141 250.431 420.218 233.375 418.29 225.544C416.361 217.712 414.935 211.004 414.935 211.004C414.935 211.004 433.014 221.066 433.936 221.938C434.859 222.81 446.38 258.263 447.218 261.784C448.057 265.306 448.392 276.257 442.523 276.257H434.138L439.269 316.774C437.986 318.691 436.215 320.231 434.138 321.235C431.544 322.346 428.688 322.695 425.903 322.241L422.029 275.838L418.105 275.586C418.105 275.586 412.403 308.456 411.045 313.169C410.358 315.752 409.343 318.238 408.026 320.564L374.888 319.894C374.888 319.894 380.607 267.453 379.265 265.256C377.923 263.059 368.666 261.533 368.163 254.808C367.66 248.083 368.163 217.427 368.163 217.427L391.524 208.002Z" fill="url(#paint5_linear_388_6347)"/>
<path d="M447.186 261.784C446.347 258.262 434.826 222.776 433.904 221.937C432.965 232.452 427.766 255.981 427.766 255.981C427.766 255.981 419.28 255.78 414.517 255.73C405.813 255.73 395.097 252.376 393.202 248.351C391.307 244.326 386.041 219.573 384.398 219.07C382.754 218.567 371.216 230.809 367.963 234.163C367.963 242.548 367.963 251.571 368.147 254.874C368.65 261.583 377.908 263.109 379.249 265.322C379.467 265.674 434.071 276.324 434.071 276.324H442.457C448.293 276.257 448.024 265.322 447.186 261.784Z" fill="#00122B"/>
<path d="M427.748 255.965C427.748 255.965 439.403 252.611 440.678 253.198C441.952 253.785 442.69 262.522 442.573 263.092C442.456 263.663 428.369 264.031 428.369 264.031L427.748 255.965Z" fill="url(#paint6_linear_388_6347)"/>
<path d="M391.709 253.785C391.709 253.785 389.06 255.848 389.496 256.099C392.726 256.558 395.979 256.849 399.239 256.972C399.893 256.972 399.591 253.986 399.591 253.986L391.709 253.785Z" fill="#FC6945"/>
<path d="M391.525 208.002L368.147 217.377C368.147 217.377 367.644 248.033 368.147 254.758C368.651 261.483 377.908 262.992 379.249 265.206C380.591 267.419 374.872 319.843 374.872 319.843H377.472C378.478 309.781 382.234 272.702 382.335 269.532C382.469 265.876 383.526 260.292 377.723 256.854C371.921 253.416 371.921 241.66 371.837 229.3C371.943 225.647 371.842 221.991 371.535 218.349L392.817 210.283L391.525 208.002Z" fill="#FEFEFE"/>
<path d="M418.659 172.785L413.074 172.684C413.242 176.038 413.342 179.728 413.275 183.166C413.158 191.316 412.571 199.467 412.303 202.686L414.181 202.871H416.042C416.813 202.871 417.553 202.572 418.107 202.037C418.661 201.502 418.985 200.773 419.011 200.003L419.229 192.909C420.068 190.863 420.659 188.723 420.99 186.537V171.645L418.659 172.785Z" fill="url(#paint7_linear_388_6347)"/>
<path d="M326.373 181.471C326.373 181.471 315.321 188.732 314.248 195.558C313.175 202.383 324.763 209.678 325.383 211.859C325.821 213.676 326.107 215.527 326.239 217.393L333.047 217.275L336.586 207.532L330.213 198.979L326.373 181.471Z" fill="#21191E"/>
<path d="M351.462 167.837C345.307 166.932 333.014 168.407 327.614 175.484C322.214 182.562 321.661 195.609 324.076 199.6C325.57 201.951 327.892 203.657 330.583 204.38L346.917 173.137L351.462 167.837Z" fill="#55404E"/>
<path d="M316.311 227.322C316.562 236.73 319.966 253.652 323.287 260.997C325.28 265.411 327.87 269.531 330.985 273.239L336.871 263.546L316.311 227.322Z" fill="url(#paint8_linear_388_6347)"/>
<path d="M325.718 444.312C325.718 444.312 323.337 454.375 322.7 457.293C322.357 459.721 322.396 462.188 322.817 464.605H332.577L331.973 447.365L325.718 444.312Z" fill="#000C1C"/>
<path d="M329.609 448.656V464.588H342.908C342.908 464.588 341.064 456.018 340.074 453.318C339.085 450.618 336.72 445.486 336.72 445.486L329.609 448.656Z" fill="#00143E"/>
<path d="M351.73 354.357C351.73 354.357 351.059 364.42 349.835 371.882C349.298 375.236 347.621 380.704 346.481 386.825C345.34 392.946 344.803 399.738 343.546 403.109C341.148 409.817 331.639 448.221 331.639 448.221C330.829 448.666 329.913 448.88 328.99 448.838C328.067 448.797 327.173 448.502 326.406 447.986C323.723 445.89 329.442 408.576 331.438 404.836C333.433 401.096 334.691 379.546 334.691 379.546L340.661 354.559L351.73 354.357Z" fill="#DB4836"/>
<path d="M325.013 356.167C325.013 356.167 325.198 361.97 325.164 364.737C325.131 367.504 326.271 375.403 326.221 377.348C326.171 379.294 321.827 383.637 322.028 390.58C322.23 397.523 327.244 425.295 328.233 431.583C329.223 437.872 329.374 446.576 329.608 448.656C329.643 449.793 330.116 450.874 330.929 451.671C331.741 452.468 332.831 452.92 333.969 452.932C336.686 452.932 337.323 449.846 336.686 445.503C336.048 441.159 334.187 436.279 333.566 432.757C332.946 429.236 332.443 407.417 333.348 401.095C334.254 394.773 335.813 391.972 336.249 387.041C336.686 382.111 340.308 373.726 342.32 366.129C343.452 362.348 344.084 358.435 344.199 354.49L325.013 356.167Z" fill="#F79862"/>
<path d="M327.295 284.139C327.295 284.139 320.972 297.874 320.67 309.479C320.368 321.084 325.014 356.167 325.014 356.167L354.261 355.664C354.261 355.664 358.638 336.076 361.07 320.732C362.542 309.458 363.103 298.085 362.747 286.721L327.295 284.139Z" fill="#00112D"/>
<path d="M334.875 205.806C334.875 205.806 325.869 204.867 325.869 196.264C325.869 187.661 333.835 180.147 338.967 175.351C344.098 170.555 347.738 167.385 351.461 167.821C355.184 168.257 358.588 172.165 359.007 176.609C359.427 181.053 358.336 186.202 358.689 187.543C359.041 188.885 364.508 193.748 363.871 200.322C363.233 206.896 356.123 209.63 353.809 210.586C352.411 211.179 350.938 211.574 349.431 211.759L334.875 205.806Z" fill="#21191E"/>
<path d="M334.874 205.805L334.74 198.359C336.801 199.964 339.055 201.305 341.448 202.351C343.451 203.181 345.554 203.745 347.704 204.028L348.358 218.735L345.557 219.222L335.73 210.669L334.874 205.805Z" fill="#F47850"/>
<path d="M334.874 205.805C334.358 208.193 333.622 210.528 332.677 212.781C331.841 214.191 330.728 215.417 329.407 216.387C326.942 215.879 324.425 215.671 321.91 215.766C318.892 216.068 314.967 217.812 316.712 231.245C318.456 244.678 327.243 256.535 328.719 258.698C330.195 260.862 332.677 263.931 332.677 263.931C332.677 263.931 328.451 273.087 326.992 275.972C325.533 278.856 324.258 283.25 325.03 284.676C325.801 286.101 340.777 290.277 350.185 289.874C359.593 289.472 362.83 286.789 362.83 286.789C362.83 286.789 362.914 277.045 362.562 271.41C362.362 268.037 361.97 264.677 361.388 261.348C361.388 261.348 364.893 259.99 365.446 248.368C366 236.746 364.306 225.694 362.36 222.441C360.415 219.187 354.378 216.068 354.378 216.068L347.435 208.002L347.67 217.058H345.137C345.137 217.058 341.968 213.402 340.458 211.708C337.222 208.169 334.874 205.805 334.874 205.805Z" fill="#FEFEFF"/>
<path d="M345.055 217.075L345.122 221.201L349.667 221.134L347.587 217.059L345.055 217.075Z" fill="#030526"/>
<path d="M345.122 221.201C346.377 227.581 347.228 234.034 347.671 240.521C347.671 246.709 347.822 251.153 346.783 254.541C346.296 256.218 345.105 259.236 345.105 259.236L353.876 277.499C355.541 272.98 356.936 268.365 358.052 263.68C358.359 260.829 358.309 257.95 357.901 255.111C357.901 255.111 356.375 246.558 354.212 238.34C352.048 230.123 349.566 221.201 349.566 221.201H345.122Z" fill="#00428E"/>
<path d="M334.254 193.948C334.254 193.948 334.254 199.247 335.159 200.287C336.065 201.326 343.88 205.771 349.699 204.194C351.795 203.839 353.678 202.701 354.967 201.011C356.256 199.32 356.855 197.203 356.642 195.088C356.114 190.545 355.194 186.056 353.892 181.672C353.221 179.341 351.98 175.903 350.974 175.97C349.968 176.037 345.222 183.583 341.18 187.709C339.014 189.941 336.7 192.026 334.254 193.948Z" fill="#F79862"/>
<path d="M334.254 193.948C334.254 193.948 334.254 199.247 335.159 200.287C336.065 201.326 343.88 205.771 349.699 204.194C351.795 203.839 353.678 202.701 354.967 201.011C356.256 199.32 356.855 197.203 356.642 195.088C356.114 190.545 355.194 186.056 353.892 181.672C353.221 179.341 351.98 175.903 350.974 175.97C349.968 176.037 345.222 183.583 341.18 187.709C339.014 189.941 336.7 192.026 334.254 193.948Z" fill="#F79862"/>
<path d="M325.013 356.167C325.013 356.167 325.198 361.97 325.148 364.737C325.097 367.504 326.271 375.403 326.221 377.348C326.171 379.293 321.827 383.637 322.028 390.58C322.23 397.523 327.244 425.295 328.233 431.583C329.223 437.872 329.374 446.576 329.608 448.656C329.669 449.444 329.92 450.205 330.341 450.875C330.761 451.544 331.339 452.1 332.023 452.496C331.565 445.578 330.759 438.688 329.608 431.852C328.015 424.037 324.242 400.105 324.242 395.058C324.242 390.01 327.931 382.362 329.105 378.287C330.279 374.212 328.636 369.215 328.2 362.238C328.055 360.144 328.055 358.043 328.2 355.949L325.013 356.167Z" fill="#FEFEFE"/>
<path d="M331.89 284.474L327.295 284.139C327.295 284.139 320.972 297.874 320.67 309.479C320.368 321.084 325.014 356.167 325.014 356.167H329.743C328.921 348.017 325.282 311.105 326.59 303.039C327.766 296.697 329.54 290.481 331.89 284.474Z" fill="#FEFEFE"/>
<path d="M332.997 220.815C334.959 223.096 338.213 228.127 338.213 228.127C338.213 228.127 334.993 222.425 333.098 219.742C332.133 218.391 331.037 217.139 329.828 216.002L329.408 216.321L328.318 216.119C329.97 217.59 331.533 219.158 332.997 220.815Z" fill="url(#paint9_linear_388_6347)"/>
<path d="M353.875 181.672C353.204 179.341 351.963 175.903 350.957 175.97C350.521 175.97 349.28 177.479 347.838 179.475C348.576 182.393 349.968 188.145 350.689 192.522C351.169 196.333 351.073 200.194 350.404 203.976C352.326 203.472 354.006 202.302 355.146 200.674C356.285 199.046 356.81 197.066 356.626 195.088C356.097 190.545 355.177 186.056 353.875 181.672Z" fill="url(#paint10_linear_388_6347)"/>
<path d="M256.942 190.896L256.271 195.223L261.672 203.86L267.457 206.409L272.958 204.933L277.05 200.657L280.119 194.67L278.945 186.066L256.942 190.896Z" fill="url(#paint11_linear_388_6347)"/>
<path d="M256.256 195.224L254.143 198.36C254.143 198.36 252.08 211.575 251.661 218.854C251.242 226.132 253.959 291.855 253.959 291.855H280.791L282.871 203.609L280.758 198.377L280.104 194.688L269.589 204.381H266.235L256.256 195.224Z" fill="#FEFEFE"/>
<path d="M282.887 203.592C281.304 205.886 279.591 208.086 277.755 210.183C276.803 210.996 275.712 211.632 274.535 212.061C279.466 224.37 276.682 290.881 276.682 290.881L284.95 288.953L282.887 203.592Z" fill="#9ABCE3"/>
<path d="M253.304 204.865C253.304 204.865 254.814 206.542 256.256 208.102C257.981 209.581 259.833 210.906 261.79 212.06C261.79 212.06 254.227 210.785 253.304 209.662C252.382 208.538 253.304 204.865 253.304 204.865Z" fill="#9ABCE3"/>
<path d="M264.422 213.871C264.422 213.871 261.068 264.467 260.984 267.637C261.032 275.488 261.558 283.328 262.561 291.115H272.204C273.501 283.35 274.269 275.506 274.501 267.637C274.501 262.019 270.46 213.871 270.46 213.871H264.422Z" fill="#B30000"/>
<path d="M254.645 177.245C254.645 177.245 252.432 164.668 252.767 163.829C253.102 162.991 253.824 157.322 268.112 157.322C282.4 157.322 283.373 164.148 283.423 164.349C283.473 164.55 282.216 178.319 282.216 178.319L276.531 174.462L274.3 168.843L265.177 171.577L260.146 169.799L254.645 177.245Z" fill="#8A410B"/>
<path d="M282.266 178.184C282.35 177.245 283.305 166.931 283.44 164.768C280.723 162.822 276.363 162.672 273.579 162.822C270.225 163.024 259.726 164.617 256.976 164.231C256.288 164.088 255.643 163.788 255.09 163.355C254.538 162.921 254.093 162.366 253.79 161.732C253.341 162.375 253.007 163.09 252.8 163.845C252.465 164.734 254.679 177.262 254.679 177.262L260.112 169.799L265.143 171.577L274.266 168.843L276.53 174.461L282.165 178.251L282.266 178.184Z" fill="#261203"/>
<path d="M263.668 171.107L261.706 164.08C260.126 164.276 258.532 164.327 256.943 164.231C256.255 164.088 255.61 163.788 255.057 163.355C254.504 162.921 254.059 162.366 253.756 161.732C253.308 162.375 252.973 163.09 252.767 163.845C252.432 164.734 254.645 177.262 254.645 177.262L260.079 169.799L263.668 171.107Z" fill="#4D2506"/>
<path d="M237.423 288.902C246.736 289.996 256.103 290.556 265.48 290.579C276.369 290.591 287.251 290.032 298.081 288.902L295.348 454.828H294.358V456.035H295.398C295.398 456.035 302.576 456.455 304.521 459.658C305.629 461.321 306.251 463.261 306.315 465.259H280.674C280.674 465.259 275.525 389.793 274.418 365.509C273.311 341.226 271.282 325.177 267.71 325.26C264.138 325.344 259.509 356.872 257.011 392.342C254.512 427.811 250.303 465.209 250.303 465.209H226.505C226.505 465.209 225.499 460.664 227.512 458.199C229.524 455.734 235.997 455.465 235.997 455.465L238.345 455.331L238.446 453.117H236.014L237.423 288.902Z" fill="#00112D"/>
<path d="M237.339 299.752L236.014 453.268H238.445C238.445 453.268 239.284 376.627 240.039 356.956C240.793 337.284 240.676 298.461 240.676 298.461L237.339 299.752Z" fill="#FEFEFE"/>
<path d="M307.858 209.444C297.544 208.253 301.401 250.883 301.401 250.883C301.401 250.883 300.948 258.229 300.68 264.836C300.579 267.318 300.496 269.7 300.496 271.544C300.496 275.77 301.133 290.73 301.669 295.023C301.988 297.605 302.24 299.366 302.24 299.366L301.2 299.484L298.584 299.735L288.136 300.725C284.587 301.091 281.016 301.181 277.453 300.993C277.453 300.993 280.12 241.156 280.405 226.617C280.69 212.077 280.774 198.342 280.774 198.342C284.643 201.066 288.955 203.097 293.519 204.346C301.351 206.559 306.466 208.002 307.858 209.444Z" fill="#00122B"/>
<path d="M307.858 209.444C297.544 208.253 301.401 250.883 301.401 250.883C301.401 250.883 300.948 258.229 300.68 264.836C300.579 267.318 300.496 269.7 300.496 271.544C300.496 275.77 301.133 290.73 301.669 295.023C301.988 297.605 302.24 299.366 302.24 299.366L301.2 299.484L298.584 299.735L288.136 300.725C284.587 301.091 281.016 301.181 277.453 300.993C277.453 300.993 280.12 241.156 280.405 226.617C280.69 212.077 280.774 198.342 280.774 198.342C284.643 201.066 288.955 203.097 293.519 204.346C301.351 206.559 306.466 208.002 307.858 209.444Z" fill="url(#paint12_linear_388_6347)"/>
<path d="M302.676 300.742L296.622 306.897L292.715 298.495L297.26 293.934L302.676 300.742Z" fill="url(#paint13_linear_388_6347)"/>
<path d="M320.2 266.447C320.2 271.478 316.326 281.758 314.532 285.213C312.737 288.667 303.245 304.331 303.245 304.331L295.48 295.04C295.48 295.04 305.09 280.148 304.721 271.428C304.503 266.195 301.367 250.884 301.367 250.884C301.367 250.884 297.51 208.254 307.823 209.444C309.199 210.887 311.513 232.252 312.972 240.235C314.431 248.217 320.116 261.349 320.2 266.447Z" fill="#00122B"/>
<path d="M279.465 253.752C282.416 245.468 286.005 235.607 287.213 230.978C291.338 215.231 289.242 211.977 287.213 209.428C285.687 207.5 288.89 204.649 290.449 203.357C287.004 202.142 283.747 200.449 280.773 198.326C280.773 198.326 280.672 212.044 280.404 226.601C280.303 231.682 279.918 242.181 279.465 253.752Z" fill="url(#paint14_linear_388_6347)"/>
<path d="M227.059 209.444C237.372 208.253 233.498 250.883 233.498 250.883C233.498 250.883 233.968 258.229 234.236 264.836C234.337 267.318 234.404 269.7 234.421 271.544C234.421 275.77 233.767 290.73 233.247 295.023C232.928 297.605 232.677 299.366 232.677 299.366L233.716 299.484L236.333 299.735L246.78 300.725C250.329 301.091 253.901 301.181 257.463 300.993C257.463 300.993 254.78 241.156 254.512 226.617C254.243 212.077 254.143 198.342 254.143 198.342L241.196 204.06C233.817 207.347 228.451 208.002 227.059 209.444Z" fill="url(#paint15_linear_388_6347)"/>
<path d="M231.904 300.742L237.975 306.897L241.866 298.495L237.321 293.934L231.904 300.742Z" fill="url(#paint16_linear_388_6347)"/>
<path d="M214.716 266.447C214.632 271.478 218.59 281.758 220.368 285.213C222.145 288.667 230.43 303.241 230.43 303.241L239.436 295.929C239.436 295.929 229.826 280.115 230.279 271.428C230.497 266.195 233.633 250.884 233.633 250.884C233.633 250.884 237.507 208.254 227.193 209.444C225.818 210.887 223.504 232.252 222.028 240.235C220.552 248.217 214.8 261.349 214.716 266.447Z" fill="#00122B"/>
<path d="M243.861 202.972C245.052 203.844 249.446 207.282 247.685 209.496C245.673 212.045 243.576 215.298 247.685 231.046C249.144 236.513 252.917 247.212 255.433 254.96C254.947 242.936 254.544 231.867 254.443 226.652C254.158 212.095 254.074 198.377 254.074 198.377C251.945 199.454 249.762 200.422 247.534 201.278L243.861 202.972Z" fill="url(#paint17_linear_388_6347)"/>
<path d="M264.422 213.872L266.183 204.363H269.604L270.493 213.872H264.422Z" fill="#570000"/>
<path d="M267.458 199.063C261.807 199.063 257.849 193.713 256.943 190.896C256.276 188.424 255.788 185.908 255.484 183.366C255.484 183.366 252.348 180.498 252.834 177.882C253.321 175.266 256.189 175.718 256.189 175.718L255.87 167.484C259.144 169.058 262.705 169.949 266.335 170.1C271.617 170.1 274.049 166.461 275.961 166.595C277.873 166.73 279.315 169.849 279.315 172.012C279.315 174.176 279.315 175.769 279.315 175.769C279.315 175.769 281.545 175.618 282.317 177.177C283.709 180.079 279.633 184.707 279.633 184.707C279.375 186.848 278.937 188.963 278.325 191.03C277.504 193.646 273.462 199.063 267.458 199.063Z" fill="#FD995F"/>
<path d="M229.608 210.199C229.257 209.906 228.85 209.688 228.412 209.558C227.973 209.428 227.513 209.389 227.059 209.444C225.684 210.886 223.37 232.252 221.894 240.234C220.418 248.217 214.8 261.348 214.716 266.446C214.632 271.544 218.54 281.791 220.368 285.145C222.196 288.499 230.43 303.173 230.43 303.173L234.019 300.255C231.772 297.589 223.437 288.348 220.603 277.347C217.248 264.233 218.137 264.216 225.08 240.57C227.679 230.639 229.197 220.456 229.608 210.199Z" fill="#FEFEFE"/>
<path d="M254.176 201.78C254.176 199.616 254.176 198.426 254.176 198.426L241.229 204.144C233.85 207.499 228.484 208.069 227.092 209.511C227.546 209.456 228.006 209.495 228.444 209.625C228.883 209.755 229.29 209.973 229.641 210.266C229.641 210.266 240.005 207.867 243.611 206.476C245.975 205.469 251.073 203.189 254.176 201.78Z" fill="#FEFEFE"/>
<path d="M260.28 187.877C259.878 183.517 259.358 172.784 259.173 168.893C258.028 168.523 256.908 168.081 255.819 167.568L256.138 175.803C256.138 175.803 253.27 175.35 252.784 177.966C252.297 180.582 255.433 183.366 255.433 183.366C255.737 185.908 256.225 188.424 256.892 190.896C257.774 193.2 259.263 195.223 261.202 196.749C261.018 194.803 260.615 191.349 260.28 187.877Z" fill="#FEFEFE"/>
<path d="M256.271 195.224L257.814 197.689L258.854 192.591L258.569 190.545L256.942 190.897L256.271 195.224Z" fill="#FEFEFE"/>
<path d="M114.949 178.636C114.949 178.636 112.651 168.692 113.456 166.897C114.261 165.103 116.022 162.839 128.549 164.465C141.077 166.092 142.201 175.45 142.402 177.395C142.194 180.622 141.745 183.828 141.06 186.988H135.274L131.166 181.655L114.949 178.636Z" fill="#422C3A"/>
<path d="M139.484 169.833C137.287 170.152 133.648 171.51 131.636 171.41C129.154 171.225 121.708 167.855 116.861 167.905C115.639 167.908 114.429 168.135 113.289 168.576C113.621 171.964 114.181 175.325 114.966 178.638L131.183 181.657L135.292 186.922H141.111C141.796 183.763 142.245 180.556 142.453 177.33C142.209 174.597 141.178 171.993 139.484 169.833Z" fill="#21191E"/>
<path d="M119.494 197.352C120.668 198.697 121.717 200.145 122.63 201.679C122.759 202.293 122.759 202.927 122.63 203.541L125.699 208.756L131.938 208.521L137.757 200.958V189.219C137.757 189.219 131.586 194.501 128.6 195.659C125.625 196.508 122.576 197.076 119.494 197.352Z" fill="url(#paint18_linear_388_6347)"/>
<path d="M122.094 200.741C122.302 201.036 122.482 201.35 122.63 201.68C122.759 202.294 122.759 202.928 122.63 203.542L124.743 207.13L125.699 199.902L122.094 200.741Z" fill="#FEFEFE"/>
<path d="M138.41 190.577C138.41 190.577 134.351 197.135 128.7 199.969C123.048 202.803 122.109 203.004 120.315 202.736C118.52 202.468 116.189 202.937 115.284 196.028C114.645 191.901 114.404 187.723 114.562 183.551C114.562 180.918 114.11 173.824 115.535 173.354C116.961 172.885 126.687 173.488 129.186 176.121C131.685 178.754 133.848 180.448 134.989 181.589C135.791 182.567 136.364 183.713 136.666 184.943C137.662 184.31 138.855 184.065 140.02 184.255C141.579 184.741 141.848 187.24 141.378 189.118C140.909 190.997 139.852 192.472 138.41 190.577Z" fill="#FD995F"/>
<path d="M122.679 203.542L119.074 209.244L109.934 220.815L104.467 241.577V253.048L119.627 253.685L142.066 218.903L139.902 206.694L137.806 200.959L128.214 207.13H126.218L122.679 203.542Z" fill="#FEFEFE"/>
<path d="M135.509 211.121C136.935 211.121 139.283 210.802 140.54 210.618L139.853 206.693C137.381 208.324 134.738 209.68 131.971 210.735C133.126 211.029 134.317 211.159 135.509 211.121Z" fill="#9ABCE3"/>
<path d="M125.75 209.931C125.75 209.931 123.201 213.788 120.132 219.272C117.063 224.756 112.753 233.56 111.596 239.296C110.959 242.6 110.022 245.839 108.795 248.972L121.037 247.295C121.037 247.295 123.066 232.52 124.727 225.376C126.387 218.232 127.192 215.868 127.796 213.436C128.399 211.004 128.768 209.914 128.768 209.914L125.75 209.931Z" fill="#00428E"/>
<g style="mix-blend-mode:multiply">
<path d="M104.5 250.062L105.925 252.108L122.696 248.905L133.362 232.352C130.511 230.826 125.195 227.64 123.853 224.638C121.975 220.462 121.723 212.144 121.723 212.144L120.046 207.633L119.023 209.31L109.883 220.881L104.5 241.542V250.062Z" fill="#9ABCE3"/>
</g>
<path d="M93.248 314.359L101.969 454.056H106.178V456.286H96.8369C96.1716 456.623 95.5844 457.095 95.1134 457.673C94.6425 458.251 94.2984 458.921 94.1033 459.641C93.8563 461.308 93.8563 463.004 94.1033 464.672H119.259V456.572H117.582V453.972H120.013L119.376 339.699H121.54L133.614 452.849H136.482V456.421H128.097C128.097 456.421 125.045 457.276 124.743 459.221C124.598 461.069 124.598 462.925 124.743 464.772H146.913V457.041H145.387V452.849H146.913V297.79C146.913 297.79 113.473 297.924 108.509 297.79C103.545 297.656 97.2897 297.79 97.2897 297.79L93.248 314.359Z" fill="#00112D"/>
<path d="M99.6711 362.29C98.7823 346.543 96.5853 307.418 96.4176 297.758C95.1431 297.758 93.248 314.36 93.248 314.36L101.969 454.057H104.585C104.585 454.057 100.677 380.385 99.6711 362.29Z" fill="#FEFEFE"/>
<path d="M102.488 298.881C105.804 299.528 109.172 299.871 112.55 299.904C118.169 299.904 120.332 299.904 120.332 299.904L115.804 275.738L113.07 272.484L105.859 274.161L102.488 298.881Z" fill="#00428E"/>
<path d="M139.903 206.693C145.503 212.003 151.502 216.875 157.847 221.267C164.388 225.459 150.116 262.807 148.238 275.552C146.36 288.298 151.592 316.405 151.592 316.405C151.592 316.405 137.455 316.656 130.143 316.992C122.831 317.327 119.779 316.153 119.779 316.153C119.779 316.153 115.016 295.928 113.658 289.321C112.299 282.713 111.612 274.714 111.612 274.714H109.532C109.532 274.714 108.341 293.061 107.151 300.037C105.96 307.013 104.082 319.071 104.082 319.071C102.002 318.738 99.8993 318.569 97.793 318.568C95.2439 318.652 87.7308 319.071 87.7308 319.071C87.7308 319.071 89.4078 302.502 90.4811 294.855C91.5544 287.208 92.7619 270.706 92.7619 270.706C88.9679 270.923 85.1644 270.503 81.509 269.465C77.3332 267.922 71.5809 265.155 72.0002 260.493C72.4194 255.83 78.9096 245.198 84.0916 238.389C89.2736 231.581 92.4768 219.69 96.9712 216.588C104.987 214.911 120.097 207.666 120.097 207.666C120.097 207.666 112.031 222.457 110.153 228.746C108.745 234.814 107.808 240.982 107.352 247.194H114.563C121.109 239.38 127.078 231.102 132.424 222.424C138.964 211.121 139.903 206.693 139.903 206.693Z" fill="url(#paint19_linear_388_6347)"/>
<path d="M120.097 207.633C120.097 207.633 105.004 214.911 96.9707 216.555C92.4762 219.691 89.2899 231.648 84.0911 238.356C78.8923 245.064 72.3518 255.78 71.9997 260.459C71.6978 263.713 74.3978 266.027 77.4836 267.654C77.0475 264.887 75.8065 261.08 76.8966 258.48C78.9426 253.332 86.7073 242.599 90.9837 234.264C95.2601 225.929 98.7316 220.697 99.9055 219.858C101.583 218.634 111.041 215.381 116.877 213.704C118.671 210.249 120.097 207.633 120.097 207.633Z" fill="#FEFEFE"/>
<path d="M126.218 207.131L125.748 209.932H128.767L128.213 207.131H126.218Z" fill="#002D61"/>
<path d="M102.488 248.251C102.488 248.251 95.4107 252.326 91.9057 252.074C88.4007 251.823 87.2603 249.643 87.7634 247.546C88.2665 245.45 92.9958 245.769 95.9138 246.02C98.2147 246.39 100.437 247.144 102.488 248.251Z" fill="url(#paint20_linear_388_6347)"/>
<path d="M121.271 245.684C121.271 245.684 133.011 242.33 134.336 242.867C135.66 243.403 136.365 252.308 136.247 252.929C136.13 253.549 121.909 253.885 121.909 253.885L121.271 245.684Z" fill="url(#paint21_linear_388_6347)"/>
<path d="M96.9709 270.254C95.5812 270.511 94.1741 270.662 92.7616 270.707C92.7616 270.707 91.4199 287.175 90.3969 294.822C89.374 302.47 87.7305 319.039 87.7305 319.039L91.487 318.838L96.9709 270.254Z" fill="#FEFEFE"/>
<path d="M115.485 173.354C114.059 173.823 114.579 180.917 114.512 183.55C114.373 187.707 114.632 191.869 115.283 195.977C116.222 202.937 118.637 202.467 120.314 202.685H120.667C119.014 199.207 118.122 195.416 118.05 191.566C117.829 185.412 118.013 179.249 118.604 173.119C117.558 173.055 116.509 173.134 115.485 173.354Z" fill="#FEFEFE"/>
<path d="M193.082 431.047L194.944 451.171C194.944 451.171 192.898 446.861 191.137 443.205C190.008 440.77 189.218 438.191 188.789 435.541L193.082 431.047Z" fill="#DF513B"/>
<path d="M205.895 309.631C205.056 297.019 200.679 272.635 200.679 272.635C200.679 272.635 186.391 273.474 179.163 273.642C174.514 273.628 169.929 272.568 165.746 270.539C163.211 280.758 161.279 291.118 159.961 301.564C158.686 314.427 162.862 347.465 162.862 347.465C162.862 347.465 166.937 371.513 171.817 389.172C176.06 404.584 186.441 429.421 186.441 429.421H195.346C195.346 429.421 200.83 411.997 202.423 399.486C206.029 370.977 206.448 352.73 205.945 347.498C205.895 347.465 206.8 322.242 205.895 309.631Z" fill="#00112D"/>
<path d="M186.391 429.37H189.594C189.594 429.37 180.89 406.747 178.744 398.797C176.597 390.848 172.438 376.728 169.151 358.817C166.208 341.378 164.332 323.776 163.533 306.108C163.533 295.761 167.055 279.024 167.055 279.024L164.07 277.531C162.223 285.459 160.812 293.481 159.844 301.563C158.569 314.426 162.745 347.464 162.745 347.464C162.745 347.464 166.82 371.512 171.7 389.171C176.01 404.583 186.391 429.37 186.391 429.37Z" fill="#FEFEFE"/>
<path d="M163.533 279.981C170.455 281.732 177.533 282.793 184.664 283.15C190.548 283.242 196.428 282.77 202.222 281.742C201.367 276.409 200.679 272.635 200.679 272.635C200.679 272.635 186.391 273.474 179.163 273.642C174.515 273.628 169.929 272.568 165.747 270.539C165.747 270.539 164.724 274.48 163.533 279.981Z" fill="url(#paint22_linear_388_6347)"/>
<path d="M185.366 283.151L183.539 274.195L176.025 275.134L176.83 282.497C179.428 282.853 182.042 283.072 184.662 283.151H185.366Z" fill="#002D61"/>
<path d="M186.39 429.371C186.39 429.371 186.508 438.025 184.495 443.458C182.483 448.892 177.049 458.971 177.686 459.725C178.324 460.48 183.07 462.627 186.239 455.566C189.409 448.506 195.295 429.371 195.295 429.371H186.39Z" fill="#FD995F"/>
<path d="M177.686 459.724C177.686 459.724 175.455 461.569 175.455 462.575C175.605 463.357 176.012 464.065 176.612 464.588H187.479C187.479 464.588 189.156 456.605 190.33 456.689C191.504 456.773 191.89 464.588 191.89 464.588H195.831C195.831 464.588 196.099 457.494 195.831 453.955C195.793 452.148 195.352 450.372 194.54 448.756L191.353 441.713C190.078 445.952 188.322 450.031 186.121 453.871C184.021 456.688 181.059 458.743 177.686 459.724Z" fill="url(#paint23_linear_388_6347)"/>
<path d="M183.958 223.095C181.271 222.449 178.784 221.152 176.717 219.318C174.649 217.484 173.064 215.17 172.101 212.58C169.066 203.843 170.743 194.334 172.772 190.779C174.801 187.223 182.918 183.416 186.926 183.031C190.934 182.645 194.104 182.159 196.167 185.68C198.23 189.202 201.332 198.04 202.875 201.009C204.73 204.432 205.644 208.286 205.525 212.178C205.223 216.135 197.139 224.906 197.139 224.906L192.461 230.105L191.421 222.189L183.958 223.095Z" fill="#543333"/>
<path d="M193.383 229.049L195.362 226.835L197.123 224.873C197.123 224.873 199.27 222.525 201.383 219.724C201.903 215.129 201.651 208.119 199.286 203.44C198.267 201.537 196.765 199.936 194.931 198.797C193.097 197.658 190.996 197.021 188.838 196.95C188.838 196.95 181.627 198.258 177.904 196.565C175.221 195.34 174.751 189.856 177.133 186.754C175.371 187.716 173.865 189.084 172.739 190.745C170.71 194.351 169.033 203.86 172.068 212.547C173.029 215.147 174.618 217.471 176.692 219.311C178.766 221.151 181.262 222.451 183.958 223.095L191.438 222.139L192.276 228.546L193.383 229.049Z" fill="#170E0E"/>
<path d="M174.466 216.991C172.487 214.023 171.213 209.813 171.431 203.575C171.516 198.67 173.044 193.898 175.824 189.857C176.044 188.764 176.502 187.733 177.166 186.838C175.405 187.8 173.898 189.168 172.772 190.829C170.743 194.435 169.066 203.944 172.101 212.631C172.646 214.204 173.444 215.677 174.466 216.991Z" fill="#543333"/>
<path d="M182.718 218.568L182.181 227.993L180.705 240.772L194.809 227.959V214.912C194.809 214.912 189.61 219.708 186.927 219.943C186.168 220.032 185.398 219.955 184.671 219.718C183.944 219.481 183.278 219.088 182.718 218.568Z" fill="url(#paint24_linear_388_6347)"/>
<path d="M182.182 227.992C182.182 227.992 167.977 234.969 166.887 238.055C165.797 241.14 154.813 261.835 154.611 265.86C154.41 269.885 162.041 274.06 169.99 275.704C177.939 277.347 197.61 275.201 202.658 274.027C207.706 272.853 212.62 267.47 213.76 261.416C214.901 255.361 215.437 236.579 212.62 234.583C209.802 232.587 198.248 228.663 198.248 228.663L197.158 224.873C195.036 227.221 192.797 229.46 190.45 231.581C187.92 233.671 185.247 235.582 182.45 237.3L182.182 227.992Z" fill="#FEFEFE"/>
<path d="M184.294 196.633C180.52 196.364 178.91 194.017 176.546 195.861C174.181 197.706 173.779 204.112 174.198 208.221C174.617 212.33 177.955 221.185 185.552 221.268C193.148 221.352 195.379 218.149 196.067 212.263C196.754 206.376 194.389 199.232 192.025 197.974C189.66 196.717 187.899 196.884 184.294 196.633Z" fill="#F79862"/>
<path d="M182.433 237.316C182.433 237.316 177.402 247.161 176.212 251.102C175.021 255.043 175.457 263.478 175.457 263.478H182.433C182.433 263.478 181.897 255.529 181.897 251.152C181.897 246.775 182.433 237.316 182.433 237.316Z" fill="#00428E"/>
<path d="M189.039 263.479C189.039 263.479 196.032 267.504 199.504 267.252C202.975 267 204.116 264.854 203.612 262.774C203.109 260.695 198.43 261.097 195.529 261.265C193.257 261.633 191.062 262.381 189.039 263.479Z" fill="url(#paint25_linear_388_6347)"/>
<path d="M189.426 238.542C191.954 237.351 194.325 235.853 196.486 234.081C197.812 232.627 198.884 230.96 199.656 229.15L198.247 228.664C197.02 230.705 195.612 232.63 194.038 234.416C192.659 235.959 191.112 237.343 189.426 238.542Z" fill="url(#paint26_linear_388_6347)"/>
<path d="M177.736 230.289L176.277 231.094L176.848 239.63L177.736 230.289Z" fill="url(#paint27_linear_388_6347)"/>
<path d="M192.025 197.939C189.66 196.682 187.899 196.849 184.294 196.598C183.555 196.537 182.825 196.403 182.114 196.195C181.797 199.934 182 203.698 182.717 207.381C183.518 212.137 184.845 216.788 186.675 221.25C193.383 221.015 195.463 217.896 196.117 212.261C196.737 206.325 194.373 199.231 192.025 197.939Z" fill="url(#paint28_linear_388_6347)"/>
<path d="M279.349 175.77C279.349 175.77 279.349 174.093 279.349 172.013C279.349 169.934 277.873 166.714 275.995 166.597C274.117 166.479 271.668 170.102 266.369 170.102H266.201L267.593 199.081C273.53 199.081 277.538 193.647 278.393 191.048C279.005 188.98 279.443 186.866 279.701 184.725C279.701 184.725 283.776 180.097 282.385 177.195C281.58 175.619 279.349 175.77 279.349 175.77Z" fill="url(#paint29_linear_388_6347)"/>
<path d="M140.004 184.289C138.839 184.099 137.646 184.344 136.65 184.976C136.348 183.747 135.775 182.601 134.973 181.622C133.832 180.482 131.619 178.788 129.17 176.155C127.963 174.88 125.078 174.092 122.244 173.656C121.609 178.661 121.335 183.705 121.422 188.75C121.577 193.353 122.414 197.908 123.904 202.266C124.994 201.83 126.504 201.126 128.734 200.002C134.386 197.168 138.444 190.611 138.444 190.611C139.886 192.506 140.926 191.081 141.396 189.186C141.865 187.291 141.563 184.775 140.004 184.289Z" fill="url(#paint30_linear_388_6347)"/>
<ellipse cx="262.989" cy="470.077" rx="250.284" ry="5.9289" fill="#F4F5F8"/>
<defs>
<radialGradient id="paint0_radial_388_6347" cx="0" cy="0" r="1" gradientUnits="userSpaceOnUse" gradientTransform="translate(251.888 664.793) scale(184.658 7.63049)">
<stop stop-color="#00235C"/>
<stop offset="0.1" stop-color="#2F4C7A"/>
<stop offset="0.23" stop-color="#667B9D"/>
<stop offset="0.37" stop-color="#95A3BB"/>
<stop offset="0.5" stop-color="#BBC4D3"/>
<stop offset="0.63" stop-color="#D9DEE7"/>
<stop offset="0.76" stop-color="#EEF0F4"/>
<stop offset="0.88" stop-color="#FBFBFC"/>
<stop offset="1" stop-color="white"/>
</radialGradient>
<radialGradient id="paint1_radial_388_6347" cx="0" cy="0" r="1" gradientUnits="userSpaceOnUse" gradientTransform="translate(197.831 664.793) scale(184.658 7.63049)">
<stop stop-color="#00235C"/>
<stop offset="0.1" stop-color="#2F4C7A"/>
<stop offset="0.23" stop-color="#667B9D"/>
<stop offset="0.37" stop-color="#95A3BB"/>
<stop offset="0.5" stop-color="#BBC4D3"/>
<stop offset="0.63" stop-color="#D9DEE7"/>
<stop offset="0.76" stop-color="#EEF0F4"/>
<stop offset="0.88" stop-color="#FBFBFC"/>
<stop offset="1" stop-color="white"/>
</radialGradient>
<radialGradient id="paint2_radial_388_6347" cx="0" cy="0" r="1" gradientUnits="userSpaceOnUse" gradientTransform="translate(356.129 664.793) scale(184.658 7.63049)">
<stop stop-color="#00235C"/>
<stop offset="0.1" stop-color="#2F4C7A"/>
<stop offset="0.23" stop-color="#667B9D"/>
<stop offset="0.37" stop-color="#95A3BB"/>
<stop offset="0.5" stop-color="#BBC4D3"/>
<stop offset="0.63" stop-color="#D9DEE7"/>
<stop offset="0.76" stop-color="#EEF0F4"/>
<stop offset="0.88" stop-color="#FBFBFC"/>
<stop offset="1" stop-color="white"/>
</radialGradient>
<linearGradient id="paint3_linear_388_6347" x1="406.282" y1="201.159" x2="406.282" y2="214.81" gradientUnits="userSpaceOnUse">
<stop stop-color="#D02E29"/>
<stop offset="0.18" stop-color="#D2332B"/>
<stop offset="0.38" stop-color="#D84032"/>
<stop offset="0.59" stop-color="#E1563D"/>
<stop offset="0.8" stop-color="#EE754D"/>
<stop offset="1" stop-color="#FD995F"/>
</linearGradient>
<linearGradient id="paint4_linear_388_6347" x1="395.902" y1="191.852" x2="403.231" y2="191.852" gradientUnits="userSpaceOnUse">
<stop stop-color="#FEFEFE"/>
<stop offset="1" stop-color="#FEFEFE"/>
</linearGradient>
<linearGradient id="paint5_linear_388_6347" x1="381.076" y1="265.256" x2="444.669" y2="265.256" gradientUnits="userSpaceOnUse">
<stop stop-color="#001536"/>
<stop offset="0.46" stop-color="#001639"/>
<stop offset="0.8" stop-color="#001942"/>
<stop offset="1" stop-color="#001D4C"/>
</linearGradient>
<linearGradient id="paint6_linear_388_6347" x1="435.161" y1="262.958" x2="435.161" y2="253.416" gradientUnits="userSpaceOnUse">
<stop stop-color="#EC604C"/>
<stop offset="0.31" stop-color="#ED654F"/>
<stop offset="0.65" stop-color="#F07257"/>
<stop offset="1" stop-color="#F58865"/>
</linearGradient>
<linearGradient id="paint7_linear_388_6347" x1="412.974" y1="187.258" x2="420.604" y2="187.258" gradientUnits="userSpaceOnUse">
<stop stop-color="#FF7B57"/>
<stop offset="0.36" stop-color="#FF8058"/>
<stop offset="0.75" stop-color="#FE8D5C"/>
<stop offset="1" stop-color="#FD995F"/>
</linearGradient>
<linearGradient id="paint8_linear_388_6347" x1="316.311" y1="250.281" x2="336.871" y2="250.281" gradientUnits="userSpaceOnUse">
<stop stop-color="#EAEAEB"/>
<stop offset="0.35" stop-color="#E5E5E6"/>
<stop offset="0.74" stop-color="#D8D8D9"/>
<stop offset="1" stop-color="#CBCBCC"/>
</linearGradient>
<linearGradient id="paint9_linear_388_6347" x1="338.531" y1="231.598" x2="332.612" y2="220.949" gradientUnits="userSpaceOnUse">
<stop stop-color="#EAEAEB"/>
<stop offset="0.35" stop-color="#E5E5E6"/>
<stop offset="0.74" stop-color="#D8D8D9"/>
<stop offset="1" stop-color="#CBCBCC"/>
</linearGradient>
<linearGradient id="paint10_linear_388_6347" x1="348.509" y1="189.973" x2="356.24" y2="189.973" gradientUnits="userSpaceOnUse">
<stop stop-color="#FF7B57"/>
<stop offset="0.36" stop-color="#FF8058"/>
<stop offset="0.75" stop-color="#FE8D5C"/>
<stop offset="1" stop-color="#FD995F"/>
</linearGradient>
<linearGradient id="paint11_linear_388_6347" x1="268.162" y1="192.758" x2="268.413" y2="209.092" gradientUnits="userSpaceOnUse">
<stop stop-color="#D02E29"/>
<stop offset="0.18" stop-color="#D2332B"/>
<stop offset="0.38" stop-color="#D84032"/>
<stop offset="0.59" stop-color="#E1563D"/>
<stop offset="0.8" stop-color="#EE754D"/>
<stop offset="1" stop-color="#FD995F"/>
</linearGradient>
<linearGradient id="paint12_linear_388_6347" x1="292.647" y1="296.817" x2="292.647" y2="198.694" gradientUnits="userSpaceOnUse">
<stop stop-color="#00122B"/>
<stop offset="0.49" stop-color="#01132D"/>
<stop offset="0.66" stop-color="#041734"/>
<stop offset="0.79" stop-color="#091F3F"/>
<stop offset="0.89" stop-color="#102950"/>
<stop offset="0.97" stop-color="#1A3766"/>
<stop offset="1" stop-color="#1D3C6E"/>
</linearGradient>
<linearGradient id="paint13_linear_388_6347" x1="299.859" y1="297.271" x2="293.738" y2="303.962" gradientUnits="userSpaceOnUse">
<stop stop-color="#EC604C"/>
<stop offset="0.31" stop-color="#ED654F"/>
<stop offset="0.65" stop-color="#F07257"/>
<stop offset="1" stop-color="#F58865"/>
</linearGradient>
<linearGradient id="paint14_linear_388_6347" x1="286.861" y1="251.471" x2="282.349" y2="197.337" gradientUnits="userSpaceOnUse">
<stop stop-color="#142C55"/>
<stop offset="0.44" stop-color="#152E58"/>
<stop offset="0.76" stop-color="#183461"/>
<stop offset="1" stop-color="#1D3C6E"/>
</linearGradient>
<linearGradient id="paint15_linear_388_6347" x1="242.269" y1="296.817" x2="242.269" y2="198.694" gradientUnits="userSpaceOnUse">
<stop stop-color="#00122B"/>
<stop offset="0.49" stop-color="#01132D"/>
<stop offset="0.66" stop-color="#041734"/>
<stop offset="0.79" stop-color="#091F3F"/>
<stop offset="0.89" stop-color="#102950"/>
<stop offset="0.97" stop-color="#1A3766"/>
<stop offset="1" stop-color="#1D3C6E"/>
</linearGradient>
<linearGradient id="paint16_linear_388_6347" x1="234.738" y1="297.271" x2="240.86" y2="303.962" gradientUnits="userSpaceOnUse">
<stop stop-color="#EC604C"/>
<stop offset="0.31" stop-color="#ED654F"/>
<stop offset="0.65" stop-color="#F07257"/>
<stop offset="1" stop-color="#F58865"/>
</linearGradient>
<linearGradient id="paint17_linear_388_6347" x1="253.538" y1="255.111" x2="248.926" y2="199.802" gradientUnits="userSpaceOnUse">
<stop stop-color="#142C55"/>
<stop offset="0.44" stop-color="#152E58"/>
<stop offset="0.76" stop-color="#183461"/>
<stop offset="1" stop-color="#1D3C6E"/>
</linearGradient>
<linearGradient id="paint18_linear_388_6347" x1="129.338" y1="194.585" x2="140.038" y2="214.978" gradientUnits="userSpaceOnUse">
<stop stop-color="#D02E29"/>
<stop offset="0.22" stop-color="#DB4836"/>
<stop offset="0.75" stop-color="#F38253"/>
<stop offset="1" stop-color="#FD995F"/>
</linearGradient>
<linearGradient id="paint19_linear_388_6347" x1="115.771" y1="318.182" x2="115.771" y2="209.008" gradientUnits="userSpaceOnUse">
<stop stop-color="#001536"/>
<stop offset="0.46" stop-color="#001639"/>
<stop offset="0.8" stop-color="#001942"/>
<stop offset="1" stop-color="#001D4C"/>
</linearGradient>
<linearGradient id="paint20_linear_388_6347" x1="95.0585" y1="251.84" x2="95.0585" y2="245.869" gradientUnits="userSpaceOnUse">
<stop stop-color="#EC604C"/>
<stop offset="0.31" stop-color="#ED654F"/>
<stop offset="0.65" stop-color="#F07257"/>
<stop offset="1" stop-color="#F58865"/>
</linearGradient>
<linearGradient id="paint21_linear_388_6347" x1="128.768" y1="252.744" x2="128.768" y2="243.102" gradientUnits="userSpaceOnUse">
<stop stop-color="#EC604C"/>
<stop offset="0.31" stop-color="#ED654F"/>
<stop offset="0.65" stop-color="#F07257"/>
<stop offset="1" stop-color="#F58865"/>
</linearGradient>
<linearGradient id="paint22_linear_388_6347" x1="183.071" y1="284.995" x2="182.568" y2="273.893" gradientUnits="userSpaceOnUse">
<stop stop-color="#EAEAEB"/>
<stop offset="0.35" stop-color="#E5E5E6"/>
<stop offset="0.74" stop-color="#D8D8D9"/>
<stop offset="1" stop-color="#CBCBCC"/>
</linearGradient>
<linearGradient id="paint23_linear_388_6347" x1="185.685" y1="463.682" x2="185.685" y2="441.847" gradientUnits="userSpaceOnUse">
<stop stop-color="#00122B"/>
<stop offset="0.49" stop-color="#01132D"/>
<stop offset="0.66" stop-color="#041734"/>
<stop offset="0.79" stop-color="#091F3F"/>
<stop offset="0.89" stop-color="#102950"/>
<stop offset="0.97" stop-color="#1A3766"/>
<stop offset="1" stop-color="#1D3C6E"/>
</linearGradient>
<linearGradient id="paint24_linear_388_6347" x1="187.547" y1="215.767" x2="187.799" y2="229.771" gradientUnits="userSpaceOnUse">
<stop stop-color="#D02E29"/>
<stop offset="0.22" stop-color="#DB4836"/>
<stop offset="0.75" stop-color="#F38253"/>
<stop offset="1" stop-color="#FD995F"/>
</linearGradient>
<linearGradient id="paint25_linear_388_6347" x1="196.384" y1="267" x2="196.384" y2="261.097" gradientUnits="userSpaceOnUse">
<stop stop-color="#EC604C"/>
<stop offset="0.31" stop-color="#ED654F"/>
<stop offset="0.65" stop-color="#F07257"/>
<stop offset="1" stop-color="#F58865"/>
</linearGradient>
<linearGradient id="paint26_linear_388_6347" x1="194.792" y1="239.397" x2="194.44" y2="231.699" gradientUnits="userSpaceOnUse">
<stop stop-color="#EAEAEB"/>
<stop offset="0.35" stop-color="#E5E5E6"/>
<stop offset="0.74" stop-color="#D8D8D9"/>
<stop offset="1" stop-color="#CBCBCC"/>
</linearGradient>
<linearGradient id="paint27_linear_388_6347" x1="177.837" y1="239.077" x2="176.697" y2="230.373" gradientUnits="userSpaceOnUse">
<stop stop-color="#EAEAEB"/>
<stop offset="0.35" stop-color="#E5E5E6"/>
<stop offset="0.74" stop-color="#D8D8D9"/>
<stop offset="1" stop-color="#CBCBCC"/>
</linearGradient>
<linearGradient id="paint28_linear_388_6347" x1="183.12" y1="208.874" x2="198.515" y2="207.364" gradientUnits="userSpaceOnUse">
<stop stop-color="#FF7B57"/>
<stop offset="0.36" stop-color="#FF8058"/>
<stop offset="0.75" stop-color="#FE8D5C"/>
<stop offset="1" stop-color="#FD995F"/>
</linearGradient>
<linearGradient id="paint29_linear_388_6347" x1="266.201" y1="183.333" x2="282.468" y2="181.874" gradientUnits="userSpaceOnUse">
<stop stop-color="#FF7B57"/>
<stop offset="1" stop-color="#FD995F"/>
</linearGradient>
<linearGradient id="paint30_linear_388_6347" x1="121.355" y1="187.928" x2="141.563" y2="187.928" gradientUnits="userSpaceOnUse">
<stop stop-color="#FF7B57"/>
<stop offset="0.36" stop-color="#FF8058"/>
<stop offset="0.75" stop-color="#FE8D5C"/>
<stop offset="1" stop-color="#FD995F"/>
</linearGradient>
</defs>
</svg>
