<svg width="303" height="540" viewBox="0 0 303 540" fill="none" xmlns="http://www.w3.org/2000/svg">
<g clip-path="url(#clip0_172_367)">
<path opacity="0.988" fill-rule="evenodd" clip-rule="evenodd" d="M-83.543 -0.527344C-62.8004 -0.527344 -42.059 -0.527344 -21.3164 -0.527344C15.7442 2.00146 51.6036 10.2632 86.2617 24.2578C101.029 30.4952 113.862 39.4601 124.758 51.1523C134.177 63.0011 134.881 75.3059 126.867 88.0664C116.177 100.506 103.346 110.174 88.3711 117.07C52.98 131.981 16.0659 140.419 -22.3711 142.383C-78.8802 146.921 -133.724 139.538 -186.902 120.234C-199.897 114.799 -211.85 107.767 -222.762 99.1406C-229.206 93.2474 -234.128 86.3919 -237.527 78.5742C-237.527 73.6523 -237.527 68.7305 -237.527 63.8086C-231.19 50.2607 -221.347 39.8897 -207.996 32.6953C-186.132 20.7144 -162.929 12.2769 -138.387 7.38281C-120.076 3.86646 -101.795 1.22974 -83.543 -0.527344Z" fill="#E3E6ED"/>
<path opacity="0.983" fill-rule="evenodd" clip-rule="evenodd" d="M-237.527 136.582C-197.382 160.803 -153.788 175.041 -106.746 179.297C-55.7203 184.742 -5.09534 182.282 45.1289 171.914C76.2527 165.587 105.08 153.809 131.613 136.582C132.667 149.571 133.018 162.579 132.668 175.605C104.641 169.824 89.3477 181.074 86.789 209.355C82.1621 220.311 74.6032 228.572 64.1132 234.141C56.4636 237.51 48.7296 240.674 40.9101 243.633C34.042 249.978 30.5267 257.888 30.3633 267.363C-25.9064 277.359 -82.1571 277.182 -138.387 266.836C-162.924 261.944 -186.127 253.507 -207.996 241.523C-221.347 234.329 -231.19 223.958 -237.527 210.41C-237.527 185.801 -237.527 161.191 -237.527 136.582Z" fill="#E3E6ED"/>
<path opacity="0.979" fill-rule="evenodd" clip-rule="evenodd" d="M302.473 274.746C302.473 280.723 302.473 286.699 302.473 292.676C295.297 368.758 260.14 427.996 197.004 470.391C193.315 473.026 189.271 474.959 184.875 476.191C140.757 455.628 109.117 422.933 89.9531 378.105C76.1894 344.972 69.6852 310.519 70.4414 274.746C98.4792 263.936 117.111 244.248 126.34 215.684C166.418 214.278 206.496 214.278 246.574 215.684C255.789 244.235 274.421 263.923 302.473 274.746ZM230.754 277.91C240.816 285.327 250.133 293.764 258.703 303.223C259.407 303.926 259.407 304.629 258.703 305.332C231.105 333.632 203.508 361.934 175.91 390.234C167.954 395.204 160.219 394.852 152.707 389.18C139.347 373.711 125.989 358.243 112.629 342.773C122.318 334.314 132.162 326.051 142.16 317.988C150.268 326.973 158.178 336.114 165.891 345.41C187.727 323.049 209.348 300.548 230.754 277.91Z" fill="#E3E6ED"/>
<path opacity="0.984" fill-rule="evenodd" clip-rule="evenodd" d="M-237.527 268.418C-200.07 291.627 -159.289 305.514 -115.184 310.078C-65.762 315.951 -16.5429 314.72 32.4727 306.387C35.5629 336.326 42.9457 365.155 54.6211 392.871C19.2891 402.671 -16.7464 407.593 -53.4844 407.637C-95.4789 407.514 -136.436 401.01 -176.355 388.125C-196.548 381.287 -214.302 370.566 -229.617 355.957C-232.83 351.631 -235.467 347.061 -237.527 342.246C-237.527 317.637 -237.527 293.027 -237.527 268.418Z" fill="#E3E6ED"/>
<path opacity="0.985" fill-rule="evenodd" clip-rule="evenodd" d="M-237.527 400.254C-208.026 418.824 -176.034 431.304 -141.551 437.695C-84.3097 447.829 -27.0054 448.18 30.3633 438.75C44.4338 436.155 58.3209 432.815 72.0234 428.73C72.902 429.082 73.7816 429.434 74.6601 429.785C88.1717 450.861 104.871 469.142 124.758 484.629C125.09 486.114 124.739 487.52 123.703 488.848C108.388 503.456 90.6334 514.178 70.4414 521.016C40.1297 531.051 9.19251 537.203 -22.3711 539.473C-42.7614 539.473 -63.1527 539.473 -83.543 539.473C-119.009 537.123 -153.462 529.565 -186.902 516.797C-199.897 511.361 -211.85 504.329 -222.762 495.703C-229.206 489.81 -234.128 482.954 -237.527 475.137C-237.527 450.175 -237.527 425.215 -237.527 400.254Z" fill="#E3E6ED"/>
</g>
<defs>
<clipPath id="clip0_172_367">
<rect width="540" height="540" fill="white" transform="translate(-237)"/>
</clipPath>
</defs>
</svg>
