<svg width="468" height="332" viewBox="0 0 468 332" fill="none" xmlns="http://www.w3.org/2000/svg">
<g clip-path="url(#clip0_1270_14455)">
<path d="M415.397 146.203C415.359 147.459 415.431 148.716 415.61 149.959C416.078 153.511 417.239 156.936 419.027 160.039L419.11 159.901H418.943L419.019 160.039C423.98 168.846 431.43 182.064 440.325 197.881L440.462 198.117L440.607 197.888L463.146 161.905C463.526 161.296 463.907 160.694 464.249 160.13L464.424 159.856H464.097L464.257 160.13C465.96 157.195 467.11 153.973 467.651 150.622C467.922 148.988 468.039 147.333 468.001 145.677C467.955 144.854 467.917 144.039 467.871 143.224L467.506 140.824C466.301 134.687 463.059 129.137 458.306 125.076C456.089 123.23 453.585 121.758 450.895 120.718L449.913 120.353L449.426 120.17L448.932 120.033L446.945 119.515C445.634 119.262 444.307 119.102 442.973 119.035C441.685 118.962 440.393 118.985 439.108 119.103C438.476 119.157 437.867 119.294 437.251 119.378L436.338 119.53C436.034 119.591 435.744 119.682 435.448 119.758L433.705 120.231L432.046 120.863C431.78 120.97 431.498 121.061 431.24 121.176L430.479 121.564L428.957 122.326C425.48 124.347 422.49 127.109 420.198 130.417C418.499 132.916 417.214 135.674 416.394 138.584C416.101 139.645 415.877 140.724 415.724 141.815C415.587 142.608 415.503 143.41 415.473 144.214C415.473 144.854 415.427 145.35 415.42 145.693C415.412 146.035 415.42 146.203 415.42 146.203C415.42 146.203 415.42 146.028 415.465 145.7C415.511 145.373 415.511 144.862 415.549 144.176C415.591 143.376 415.688 142.579 415.838 141.792C415.998 140.708 416.232 139.636 416.538 138.584C417.359 135.698 418.644 132.965 420.343 130.493C422.625 127.223 425.6 124.496 429.056 122.509L430.578 121.747L431.339 121.374C431.597 121.252 431.871 121.16 432.1 121.061L433.758 120.482L435.486 120.025C435.782 119.949 436.072 119.858 436.368 119.797L437.274 119.652C437.883 119.568 438.491 119.438 439.115 119.385C440.381 119.273 441.652 119.255 442.92 119.332C444.236 119.399 445.546 119.56 446.839 119.812L448.802 120.33L449.297 120.467L449.776 120.642L450.743 121.008C453.416 122.037 455.904 123.496 458.108 125.328C462.785 129.35 465.97 134.834 467.148 140.893C467.24 141.708 467.384 142.47 467.506 143.232C467.628 143.994 467.59 144.839 467.635 145.654C467.679 147.289 467.567 148.924 467.301 150.538C466.765 153.844 465.627 157.022 463.945 159.917L463.785 160.183H464.105L463.952 159.909L462.841 161.684L440.341 197.683H440.607C431.651 181.889 424.163 168.731 419.171 159.909L419.095 160.046H419.301L419.217 159.909C417.421 156.832 416.239 153.434 415.739 149.906C415.564 148.687 415.511 147.75 415.473 147.117C415.473 146.812 415.473 146.576 415.473 146.401C415.473 146.226 415.397 146.203 415.397 146.203Z" fill="#E3E6ED"/>
<path d="M424.961 145.898C424.961 145.898 424.961 145.807 424.961 145.632C424.961 145.456 424.961 145.174 425.015 144.87C425.015 144.694 425.015 144.496 425.053 144.291C425.091 144.085 425.121 143.841 425.159 143.59C425.23 143.01 425.347 142.437 425.509 141.876C425.894 140.318 426.513 138.829 427.343 137.457C428.436 135.637 429.864 134.042 431.551 132.756C433.745 131.081 436.323 129.986 439.05 129.569C441.777 129.152 444.565 129.428 447.158 130.371C447.898 130.63 448.618 130.943 449.311 131.308C450.014 131.694 450.691 132.127 451.335 132.604C451.992 133.094 452.618 133.626 453.207 134.196C453.79 134.794 454.331 135.43 454.828 136.101C455.857 137.487 456.656 139.031 457.195 140.672C458.321 144.052 458.321 147.706 457.195 151.087C456.663 152.726 455.872 154.27 454.851 155.658C454.357 156.333 453.818 156.975 453.238 157.578C452.654 158.151 452.031 158.683 451.373 159.17C450.733 159.654 450.059 160.092 449.357 160.48C448.664 160.846 447.947 161.164 447.211 161.433C444.441 162.453 441.449 162.716 438.544 162.195C436.24 161.768 434.051 160.857 432.123 159.523C430.196 158.189 428.572 156.462 427.358 154.454C426.521 153.088 425.892 151.603 425.494 150.05C425.337 149.488 425.217 148.915 425.136 148.336C425.136 148.085 425.053 147.856 425.03 147.643V147.056C425.03 146.729 424.984 146.462 424.969 146.294C424.954 146.127 424.969 146.02 424.969 146.02C424.961 146.111 424.961 146.203 424.969 146.294C424.969 146.485 424.969 146.751 424.969 147.056V147.643C424.969 147.856 425.03 148.092 425.068 148.344C425.13 148.931 425.24 149.512 425.395 150.081C425.772 151.655 426.385 153.163 427.214 154.553C429.205 157.915 432.307 160.475 435.983 161.79C439.66 163.105 443.68 163.092 447.348 161.753C448.102 161.481 448.837 161.158 449.547 160.785C450.265 160.389 450.954 159.944 451.609 159.452C452.294 158.917 452.94 158.334 453.542 157.707C454.139 157.095 454.691 156.441 455.193 155.749C456.237 154.339 457.046 152.77 457.59 151.102C458.754 147.642 458.754 143.896 457.59 140.436C457.038 138.771 456.221 137.207 455.171 135.803C454.663 135.116 454.109 134.464 453.512 133.853C452.913 133.271 452.275 132.732 451.602 132.238C450.942 131.753 450.25 131.313 449.532 130.92C448.821 130.554 448.086 130.235 447.333 129.967C444.502 128.952 441.452 128.715 438.498 129.282C436.162 129.735 433.95 130.681 432.008 132.058C430.066 133.435 428.439 135.21 427.237 137.266C426.387 138.674 425.763 140.206 425.387 141.807C425.239 142.377 425.132 142.958 425.068 143.544C425.068 143.803 424.992 144.032 424.977 144.245C424.961 144.458 424.977 144.656 424.977 144.832C424.977 145.167 424.977 145.433 424.977 145.632C424.963 145.72 424.958 145.809 424.961 145.898Z" fill="#E3E6ED"/>
<path d="M440.82 153.662L431.141 146.896L433.5 143.521L439.99 148.054L448.391 137.365L451.625 139.917L440.82 153.662Z" fill="#E3E6ED"/>
<path fill-rule="evenodd" clip-rule="evenodd" d="M288.906 69.8786C287.076 70.114 285.285 70.5905 283.579 71.2957L279.653 67.9968L272.88 73.1394L275.011 77.8097C273.871 79.271 272.934 80.8805 272.226 82.5942L267.112 83.0437L265.971 91.4243L270.773 93.2223C271.005 95.0544 271.478 96.8476 272.18 98.5554L268.893 102.487L274.029 109.244L278.694 107.111C280.151 108.253 281.756 109.191 283.465 109.9L283.914 115.012L292.284 116.155L294.08 111.347C295.91 111.116 297.702 110.642 299.407 109.938L303.341 113.229L310.083 108.086L307.96 103.416C309.097 101.956 310.034 100.349 310.745 98.6392L315.851 98.1897L316.984 89.8092L312.19 88.0111C311.957 86.1784 311.481 84.385 310.775 82.678L314.07 78.7468L308.964 71.989L304.3 74.1146C302.838 72.9757 301.231 72.0378 299.521 71.3262L299.072 66.214L290.702 65.0789L288.906 69.8786ZM291.424 81.52C293.312 81.5739 295.136 82.2122 296.646 83.3471C298.156 84.482 299.277 86.0576 299.856 87.857C300.435 89.6564 300.442 91.5911 299.877 93.3949C299.312 95.1986 298.202 96.7826 296.701 97.9288C295.199 99.075 293.38 99.7271 291.493 99.7952C289.606 99.8634 287.745 99.3442 286.165 98.3093C284.585 97.2743 283.364 95.7744 282.671 94.0161C281.977 92.2578 281.846 90.3276 282.293 88.4911C282.789 86.4584 283.966 84.6573 285.627 83.3886C287.289 82.1199 289.335 81.4603 291.424 81.52Z" fill="#E3E6ED"/>
<path d="M218.413 131.385C217.295 131.882 216.266 132.562 215.369 133.396C212.842 135.652 211.175 138.717 210.652 142.066C210.257 144.554 210.496 147.102 211.348 149.473C212.199 151.843 213.635 153.961 215.522 155.627C216.6 156.605 217.825 157.407 219.151 158.004C220.522 158.659 221.989 159.089 223.496 159.277C226.684 159.717 229.929 159.118 232.75 157.569C235.572 156.02 237.82 153.603 239.164 150.675C239.814 149.302 240.24 147.833 240.427 146.325C240.634 144.881 240.617 143.413 240.374 141.975C239.949 139.31 238.819 136.808 237.102 134.729C235.607 132.928 233.709 131.506 231.562 130.577C228.461 129.223 224.988 128.983 221.731 129.899C220.548 130.207 219.424 130.709 218.406 131.385C218.451 131.476 219.57 130.783 221.815 130.219C224.995 129.449 228.341 129.768 231.319 131.126C233.36 132.046 235.156 133.435 236.562 135.179C238.17 137.174 239.221 139.561 239.605 142.096C239.815 143.46 239.815 144.847 239.605 146.211C239.426 147.639 239.015 149.029 238.388 150.325C237.108 153.083 234.982 155.36 232.321 156.825C229.659 158.29 226.599 158.866 223.588 158.469C220.783 158.097 218.15 156.908 216.016 155.048C214.206 153.472 212.819 151.465 211.983 149.213C211.147 146.961 210.888 144.535 211.23 142.157C211.689 138.915 213.218 135.919 215.575 133.647C216.48 132.843 217.427 132.088 218.413 131.385Z" fill="#E3E6ED"/>
<path d="M202.692 119.522C202.674 119.351 202.639 119.183 202.585 119.019C202.486 118.646 202.349 118.143 202.182 117.496C201.801 116.109 201.256 114.115 200.546 111.515L200.477 111.667L212.538 105.138L212.272 105.092L217.735 111.324L217.834 111.439L217.979 111.401C220.86 110.702 223.82 110.389 226.783 110.471H226.95L227.027 110.326L231.067 103.081L230.725 103.226L243.866 107.096L243.63 106.753C243.47 109.321 243.295 112.14 243.113 115.035V115.24L243.295 115.355C245.825 116.891 248.141 118.756 250.182 120.901L250.334 121.061L250.547 121L258.507 118.715L258.073 118.532L264.655 130.577L264.739 130.089L258.529 135.582L258.347 135.742L258.408 135.979C259.108 138.85 259.427 141.801 259.359 144.755V144.999L259.572 145.121L266.816 149.151L266.618 148.671C265.408 152.846 264.099 157.311 262.813 161.844L263.24 161.547L254.938 161.059H254.687L254.55 161.28C253.023 163.799 251.17 166.104 249.04 168.137C248.987 168.328 249.155 167.718 248.926 168.564V168.609V168.67L248.964 168.8L249.033 169.044L249.177 169.547L249.467 170.552L250.037 172.548C250.418 173.884 250.798 175.21 251.179 176.525L251.377 176.038L239.361 182.643L239.879 182.727L234.385 176.525L234.217 176.335L233.974 176.396C231.105 177.105 228.155 177.431 225.2 177.363H224.957L224.835 177.577C223.481 180.03 222.144 182.45 220.825 184.837L221.289 184.639L208.125 180.83L208.406 181.226C208.574 178.415 208.734 175.657 208.901 172.952V172.716L208.711 172.602C206.175 171.076 203.854 169.219 201.809 167.078L201.657 166.918L201.444 166.979L193.484 169.265L193.888 169.432L187.275 157.418L187.207 157.814L193.393 152.305L193.53 152.184L193.484 152.008C192.788 149.137 192.471 146.186 192.541 143.232V143.056L192.396 142.98L185.137 138.98L185.259 139.27C186.72 134.158 187.968 129.807 189.063 126.074L188.873 126.211L197.144 126.668H197.228V126.6C198.373 124.669 199.703 122.855 201.2 121.183L202.334 119.956C202.468 119.833 202.59 119.698 202.699 119.553C202.553 119.663 202.413 119.783 202.281 119.911C202.014 120.162 201.611 120.543 201.101 121.084C199.553 122.728 198.178 124.528 197 126.455L197.122 126.394L188.858 125.838H188.706L188.66 125.99L184.772 139.14L184.711 139.331L184.886 139.43L192.115 143.483L191.978 143.232C191.895 146.252 192.215 149.27 192.929 152.206L193.02 151.902L186.803 157.387L186.613 157.555L186.735 157.783C188.812 161.593 190.996 165.585 193.302 169.828L193.439 170.072L193.713 169.996L201.672 167.71L201.307 167.611C203.391 169.806 205.758 171.712 208.345 173.28L208.163 172.929C207.995 175.641 207.825 178.402 207.653 181.211V181.523L207.957 181.607L221.106 185.462L221.411 185.553L221.571 185.272L225.596 178.019L225.231 178.232C228.256 178.308 231.278 177.98 234.217 177.257L233.814 177.127L239.293 183.336L239.514 183.588L239.81 183.428L251.825 176.83L252.122 176.67L252.031 176.342C251.65 175.024 251.27 173.699 250.897 172.373L250.319 170.369L250.037 169.371L249.893 168.868L249.824 168.617L249.786 168.495V168.427V168.373C249.558 169.219 249.725 168.609 249.672 168.792C251.86 166.699 253.761 164.324 255.326 161.73L254.938 161.935L263.209 162.438H263.544L263.635 162.118C264.959 157.547 266.253 153.113 267.44 148.946L267.531 148.626L267.242 148.466L259.99 144.443L260.203 144.816C260.272 141.784 259.94 138.756 259.214 135.811L259.092 136.207L265.286 130.706L265.522 130.501L265.37 130.226L258.742 118.189L258.598 117.922L258.309 118.006L250.349 120.292L250.715 120.391C248.624 118.203 246.252 116.305 243.661 114.745L243.828 115.065C244.003 112.178 244.163 109.351 244.315 106.791V106.525L244.064 106.448L230.9 102.639L230.664 102.571L230.55 102.784C229.15 105.329 227.795 107.782 226.555 110.044L226.798 109.9C223.783 109.835 220.774 110.176 217.85 110.913L218.093 110.989C216.115 108.757 214.288 106.677 212.584 104.803L212.47 104.673L212.325 104.757L200.34 111.423L200.249 111.477V111.583C201.01 114.136 201.596 116.109 202.007 117.473C202.205 118.12 202.364 118.616 202.479 118.996C202.593 119.377 202.684 119.515 202.692 119.522Z" fill="#E3E6ED"/>
<path d="M170.473 133.297L182.412 85.7561L133.834 84.9485L170.473 133.297Z" fill="#E3E6ED"/>
<path d="M148.496 94.1731L165.184 116.193L76.2433 183.76L59.5561 161.741L148.496 94.1731Z" fill="#E3E6ED"/>
<path fill-rule="evenodd" clip-rule="evenodd" d="M213.619 19.2982C210.791 19.652 208.022 20.3822 205.386 21.4695L199.337 16.3955L188.935 24.3189L192.214 31.511C190.463 33.7566 189.02 36.2266 187.923 38.8554L180.054 39.5487L178.304 52.5005L185.693 55.3042C186.05 58.1365 186.782 60.9087 187.869 63.5476L182.801 69.6426L190.708 79.9964L197.898 76.7203C200.148 78.4754 202.623 79.9206 205.257 81.0173L205.949 88.8874L218.885 90.6473L221.647 83.242C224.479 82.8882 227.25 82.158 229.888 81.0706L235.976 86.1447L246.37 78.2212L243.098 71.0292C244.824 68.7749 246.247 66.303 247.329 63.6771L255.189 62.9838L256.947 50.032L249.612 47.236C249.248 44.4065 248.506 41.6389 247.405 39.0078L252.481 32.9128L244.567 22.4981L237.384 25.7817C235.132 24.0282 232.658 22.5832 230.025 21.4848L229.333 13.6147L216.397 11.8547L213.635 19.2601L213.619 19.2982ZM217.5 37.1717C220.393 37.2651 223.186 38.2529 225.496 39.9994C227.805 41.746 229.518 44.1656 230.4 46.9259C231.281 49.6863 231.287 52.6521 230.417 55.4161C229.547 58.18 227.844 60.6065 225.541 62.3624C223.238 64.1182 220.449 65.1173 217.557 65.2224C214.664 65.3276 211.81 64.5336 209.387 62.9495C206.963 61.3654 205.088 59.0689 204.021 56.3754C202.953 53.6819 202.744 50.7235 203.423 47.9064C204.18 44.77 205.993 41.9905 208.557 40.0354C211.121 38.0804 214.279 37.0691 217.5 37.1717Z" fill="#E3E6ED"/>
<path d="M83.5577 254.83L77.3865 268.841C77.3865 268.841 89.5615 279.827 88.6484 282.555L61.0872 271.546L69.8075 249.322L83.5577 254.83Z" fill="#E8505B"/>
<path opacity="0.5" d="M83.5577 254.83L77.3865 268.841C77.3865 268.841 89.5615 279.827 88.6484 282.555L61.0872 271.546L69.8075 249.322L83.5577 254.83Z" fill="black"/>
<path d="M61.0883 271.523L62.0547 269.321L88.1168 280.696C88.1168 280.696 89.1365 281.717 88.6495 282.532L61.0883 271.523Z" fill="#263238"/>
<path d="M35.0251 274.677L27.3015 287.895C27.3015 287.895 38.1221 300.177 36.9274 302.775L10.8044 288.695L21.9978 267.615L35.0251 274.677Z" fill="#E8505B"/>
<path opacity="0.5" d="M35.0251 274.677L27.3015 287.895C27.3015 287.895 38.1221 300.177 36.9274 302.775L10.8044 288.695L21.9978 267.615L35.0251 274.677Z" fill="black"/>
<path d="M10.8047 288.695L12.0146 286.615L36.6158 300.893C36.6158 300.893 37.5061 302.02 36.9278 302.775L10.8047 288.695Z" fill="#263238"/>
<path d="M68.7423 89.314L85.6808 90.6625L86.2363 81.1696C86.2363 81.1696 93.0848 81.0706 94.0968 74.389C95.1088 67.7074 96.1133 52.1728 96.1133 52.1728C92.5445 50 88.461 48.8205 84.2847 48.7562C80.1083 48.6919 75.9906 49.7452 72.3568 51.8071L71.261 52.4319L68.7423 89.314Z" fill="#FFBE9D"/>
<path d="M86.2676 81.0477C83.1725 80.6717 80.259 79.3829 77.8973 77.345C77.8973 77.345 79.3811 82.5943 86.1306 82.9371L86.2676 81.0477Z" fill="#EB996E"/>
<path d="M71.1094 59.4792C71.0028 59.4106 66.7112 57.4678 66.2165 62.0619C65.7219 66.656 70.4321 66.2141 70.4474 66.0846C70.4626 65.9551 71.1094 59.4792 71.1094 59.4792Z" fill="#FFBE9D"/>
<path d="M69.2676 64.1877C69.2676 64.1877 69.1839 64.2334 69.0393 64.2867C68.8394 64.3459 68.6245 64.3269 68.4381 64.2334C68.156 64.0155 67.9369 63.7264 67.8032 63.3957C67.6694 63.065 67.6259 62.7046 67.6772 62.3516C67.7113 61.9573 67.8308 61.5751 68.0272 61.2317C68.0854 61.0923 68.1769 60.9694 68.2937 60.8737C68.4105 60.7781 68.5489 60.7126 68.6969 60.6831C68.7908 60.67 68.8864 60.6893 68.968 60.7378C69.0495 60.7862 69.1123 60.861 69.1458 60.9498C69.1915 61.0869 69.1458 61.1783 69.1458 61.1859C69.1458 61.1936 69.2676 61.125 69.2676 60.9498C69.2504 60.8346 69.1971 60.7278 69.1154 60.645C69.0581 60.5893 68.9901 60.5457 68.9156 60.5169C68.841 60.4881 68.7615 60.4747 68.6816 60.4774C68.49 60.4954 68.3061 60.5622 68.1476 60.6716C67.9891 60.781 67.8611 60.9292 67.7761 61.1021C67.537 61.4782 67.3933 61.9072 67.3576 62.3516C67.2925 62.758 67.3479 63.1745 67.517 63.5497C67.686 63.9248 67.9614 64.242 68.3088 64.462C68.4302 64.5152 68.5625 64.5388 68.6948 64.5309C68.8271 64.5229 68.9556 64.4837 69.0697 64.4163C69.2143 64.302 69.2676 64.1953 69.2676 64.1877Z" fill="#EB996E"/>
<path d="M93.2297 62.6714C93.1955 62.9202 93.0661 63.1459 92.8687 63.3009C92.6713 63.4558 92.4215 63.5279 92.172 63.5018C92.0488 63.4915 91.9289 63.4563 91.8195 63.3986C91.7102 63.3408 91.6135 63.2615 91.5354 63.1655C91.4573 63.0695 91.3993 62.9588 91.3648 62.8398C91.3304 62.7209 91.3203 62.5963 91.335 62.4733C91.3674 62.2231 91.4961 61.9955 91.6937 61.839C91.8913 61.6824 92.1421 61.6093 92.3927 61.6353C92.5163 61.6466 92.6363 61.6826 92.7457 61.7412C92.8552 61.7998 92.9518 61.8797 93.0298 61.9763C93.1078 62.0729 93.1657 62.1842 93.2001 62.3036C93.2344 62.423 93.2445 62.548 93.2297 62.6714Z" fill="#263238"/>
<path d="M93.5256 61.3915C93.3886 61.4981 92.7647 60.8582 91.7146 60.721C90.6645 60.5839 89.8655 60.9877 89.7666 60.8429C89.6677 60.6982 89.8731 60.5687 90.2384 60.3782C90.7242 60.1314 91.2751 60.0434 91.8135 60.1268C92.3484 60.1988 92.8466 60.4389 93.2365 60.8125C93.518 61.102 93.6169 61.3382 93.5256 61.3915Z" fill="#263238"/>
<path d="M83.2388 61.5135C83.2064 61.7587 83.0807 61.982 82.8879 62.1367C82.6951 62.2915 82.45 62.3657 82.2039 62.3439C82.0809 62.3372 81.9604 62.3059 81.8497 62.2517C81.739 62.1975 81.6402 62.1217 81.5593 62.0286C81.4784 61.9355 81.417 61.8271 81.3788 61.7099C81.3405 61.5926 81.3261 61.4688 81.3364 61.3459C81.3688 61.0957 81.4975 60.8681 81.6951 60.7115C81.8927 60.555 82.1435 60.4819 82.3941 60.5078C82.6393 60.5291 82.866 60.647 83.0244 60.8356C83.1827 61.0242 83.2599 61.268 83.2388 61.5135Z" fill="#263238"/>
<path d="M83.4061 60.1879C83.2691 60.2945 82.6452 59.6622 81.5951 59.5174C80.545 59.3727 79.7384 59.7841 79.6471 59.647C79.5558 59.5098 79.7536 59.3727 80.1113 59.1822C80.5989 58.9327 81.1523 58.8421 81.694 58.9232C82.2302 58.9957 82.7291 59.2388 83.117 59.6165C83.3909 59.8679 83.467 60.1117 83.4061 60.1879Z" fill="#263238"/>
<path d="M86.0624 68.3092C86.6287 68.2216 87.2034 68.2012 87.7745 68.2483C88.0408 68.2483 88.2919 68.2483 88.3604 68.0654C88.4237 67.7964 88.4025 67.5143 88.2995 67.2578C88.1397 66.595 87.9723 65.8865 87.8049 65.1551C87.3154 63.3595 86.9693 61.5278 86.77 59.6772C87.3959 61.4283 87.8794 63.2271 88.2158 65.056C88.3756 65.8179 88.5354 66.5036 88.68 67.174C88.8046 67.5134 88.8046 67.8861 88.68 68.2254C88.6277 68.3117 88.5569 68.3852 88.4726 68.4405C88.3884 68.4959 88.2928 68.5317 88.193 68.5454C88.0417 68.5684 87.8877 68.5684 87.7364 68.5454C87.1706 68.5389 86.608 68.4595 86.0624 68.3092Z" fill="#263238"/>
<path d="M82.9635 68.5684C83.131 68.5684 82.9635 69.6959 83.8158 70.6254C84.668 71.5549 85.8627 71.593 85.8475 71.753C85.8323 71.913 85.5583 71.9282 85.0485 71.8749C84.3955 71.7913 83.7924 71.4813 83.344 70.9987C82.9187 70.5303 82.6875 69.9174 82.6972 69.2845C82.6972 68.8426 82.8646 68.5684 82.9635 68.5684Z" fill="#263238"/>
<path d="M84.235 56.1651C84.098 56.4318 83.0859 56.1651 81.8608 56.1651C80.6357 56.1651 79.6161 56.3328 79.4943 56.0661C79.4335 55.9366 79.6465 55.6928 80.0727 55.4795C80.6414 55.215 81.2647 55.0897 81.8913 55.1138C82.5192 55.1237 83.1354 55.2858 83.6871 55.5861C84.1056 55.7918 84.2959 56.0432 84.235 56.1651Z" fill="#263238"/>
<path d="M93.5727 58.3594C93.3596 58.5651 92.6824 58.2223 91.8301 58.0927C90.9779 57.9632 90.2398 58.0318 90.1104 57.7651C90.0496 57.6356 90.2017 57.4147 90.5442 57.2394C91.0051 57.0349 91.5161 56.9713 92.013 57.0567C92.5099 57.1421 92.9705 57.3727 93.3368 57.7194C93.6184 58.0013 93.664 58.2604 93.5727 58.3594Z" fill="#263238"/>
<path d="M99.963 48.3864C100.069 47.9775 100.07 47.5483 99.9645 47.1391C99.8593 46.73 99.6519 46.3543 99.3619 46.0475C99.0597 45.7574 98.6647 45.5837 98.2469 45.5572C97.8291 45.5307 97.4154 45.6531 97.0791 45.9027C97.1813 45.6319 97.2255 45.3426 97.2088 45.0535C97.1921 44.7645 97.1148 44.4822 96.9821 44.225C96.8493 43.9678 96.664 43.7414 96.4382 43.5605C96.2124 43.3797 95.9511 43.2484 95.6713 43.1752C94.5908 42.9543 93.5483 43.6476 92.4526 43.7847C91.3827 43.8633 90.3159 43.5962 89.4088 43.0229C88.4805 42.4819 87.6282 41.8039 86.6847 41.301C84.6772 40.2291 82.3284 39.9935 80.1485 40.6454C77.9686 41.2973 76.1337 42.7841 75.0423 44.7828C74.3235 44.4834 73.5302 44.4119 72.7696 44.5781C72.0089 44.7443 71.3175 45.1402 70.7886 45.7123C69.7552 46.8872 69.1963 48.4057 69.2211 49.9711C69.2176 51.0169 69.3324 52.0597 69.5635 53.0795L69.5179 53.3386C69.0689 57.026 68.8787 61.4068 70.4462 61.6506C73.1704 62.0772 73.2465 56.8279 73.2465 56.8279C76.7848 56.0051 76.237 50.7939 77.1805 50.154C78.1241 49.514 80.1101 47.9979 86.6314 52.5691C89.0806 54.1039 91.9517 54.8239 94.8343 54.6261H95.055H95.1159C95.7749 54.5551 96.4191 54.3829 97.0258 54.1157C97.7347 53.826 98.334 53.3194 98.7379 52.6681C98.9348 52.3409 99.0318 51.9631 99.017 51.5814C99.0021 51.1996 98.876 50.8305 98.6542 50.5197C99.2905 49.9529 99.7458 49.2109 99.963 48.3864Z" fill="#263238"/>
<path d="M86.2676 86.96L85.5066 113.526L69.0019 77.9471L69.4128 74.6482L86.2676 86.96Z" fill="#EBEBEB"/>
<path d="M75.3098 166.385C75.9185 166.583 110.313 201.393 109.552 207.648C108.791 213.903 84.3041 260.217 84.3041 260.217L66.8481 251.6L83.1931 210.992L82.98 208.471L62.9673 192.052L64.0327 165.638L75.3098 166.385Z" fill="#263238"/>
<path d="M67.8984 173.249C67.5027 173.851 61.5446 228.538 59.9542 231.365C58.3639 234.191 34.44 280.886 34.44 280.886L16.6873 273.717L38.3664 222.413L35.8934 173.851L37.2326 160.137L64.0329 165.638L67.8984 173.249Z" fill="#263238"/>
<path d="M60.2576 230.405C60.3156 230.226 60.3564 230.042 60.3793 229.856C60.4402 229.46 60.5315 228.934 60.638 228.279L61.5131 222.466C62.2284 217.514 63.2024 210.741 64.2753 203.259C65.3483 195.778 66.2233 188.944 66.9234 184.022C67.243 181.584 67.5017 179.603 67.6843 178.186C67.7604 177.523 67.8289 176.998 67.8746 176.594C67.9059 176.41 67.9187 176.224 67.9126 176.038C67.8566 176.216 67.8184 176.4 67.7985 176.586C67.73 176.982 67.6463 177.508 67.5397 178.163C67.3267 179.58 67.0223 181.554 66.6571 183.984C65.9494 188.936 64.9754 195.709 63.8949 203.198C62.8143 210.687 61.9317 217.468 61.2468 222.428C60.9272 224.858 60.6761 226.839 60.4859 228.256L60.3032 229.848C60.2777 230.033 60.2625 230.219 60.2576 230.405Z" fill="#455A64"/>
<path d="M38.8304 220.843C39.05 222.315 39.3936 223.765 39.8577 225.178C40.2075 226.624 40.6758 228.038 41.2578 229.407C41.0436 227.934 40.6998 226.484 40.2306 225.072C39.8849 223.625 39.4164 222.21 38.8304 220.843Z" fill="#455A64"/>
<path d="M36.1292 233.231C36.5268 232.838 36.8537 232.38 37.0956 231.875C38.4286 229.518 39.0076 226.809 38.7545 224.112C38.7311 223.556 38.618 223.008 38.4197 222.489C38.8391 226.223 38.0381 229.992 36.1368 233.231H36.1292Z" fill="#455A64"/>
<path d="M88.9223 205.095C86.7898 205.938 85.0405 207.534 84.0066 209.583C84.1056 209.644 84.9502 208.402 86.2895 207.175C87.6287 205.949 88.9756 205.202 88.9223 205.095Z" fill="#455A64"/>
<path d="M86.2285 203.48C84.8794 204.57 83.9425 206.089 83.5728 207.785C84.0414 207.083 84.4707 206.355 84.8588 205.606C85.3518 204.922 85.809 204.212 86.2285 203.48Z" fill="#455A64"/>
<path d="M83.8547 123.705L79.4565 145.517L75.8801 175.992C75.8801 175.992 61.1331 173.927 54.8554 171.939C47.5656 169.653 31.7076 167.657 31.7076 167.657L34.3785 170.308C28.7019 168.716 25.0951 163.292 25.0951 163.292C34.8731 154.218 43.213 135.529 43.213 135.529L50.655 98.5631C50.655 98.5631 51.7812 93.3519 52.4584 91.0282C53.1356 88.7045 64.4356 81.2305 66.0031 80.2858L66.9847 79.8211L67.2967 76.8574L68.461 76.1565L80.6816 87.2798C83.0585 89.4429 84.5701 92.3966 84.9353 95.5918C85.4475 100.208 85.6255 104.854 85.4679 109.496C85.3234 113.823 83.8547 123.705 83.8547 123.705Z" fill="#D45147"/>
<path d="M75.4622 85.8932C75.4622 85.8932 81.9226 89.3597 83.0716 92.3006C84.2206 95.2414 80.8573 127.484 80.8573 127.484L104.043 127.918L104.119 141.754C104.119 141.754 67.2897 144.664 65.8592 142.675C63.9188 139.978 61.6664 114.783 61.6664 114.783L60.8293 96.6508C60.8293 96.6508 62.9372 82.8305 75.4622 85.8932Z" fill="#D45147"/>
<g opacity="0.3">
<path d="M79.4558 145.517C76.4608 146.464 73.2984 146.76 70.1799 146.386C66.9079 146.089 63.5902 144.298 62.3574 141.251C61.4063 138.965 61.802 136.299 61.6574 133.792C61.5356 131.605 60.9954 129.472 60.6682 127.316C60.341 125.16 61.4291 121.221 62.1901 119.126C62.1901 119.126 63.0195 134.089 65.3555 140.375C65.6225 141.249 66.1161 142.038 66.7861 142.66C67.6155 143.331 68.7646 143.384 69.8299 143.498C72.7823 143.811 79.9199 143.292 79.9199 143.292" fill="#D45147"/>
</g>
<path d="M60.8439 98.6089C60.8338 98.7204 60.8338 98.8326 60.8439 98.9441C60.8439 99.1727 60.8439 99.4927 60.8439 99.9041C60.8896 100.773 60.9504 102.014 61.0265 103.607C61.1026 105.199 61.2092 107.188 61.3309 109.466C61.4527 111.744 61.544 114.357 61.8255 117.221C62.1071 120.086 62.3734 123.225 62.731 126.592C63.0887 129.96 63.492 133.556 64.1464 137.312C64.2985 138.272 64.512 139.221 64.7856 140.154C65.0961 141.131 65.6733 142.002 66.452 142.668C67.2525 143.357 68.2805 143.724 69.336 143.696C70.3633 143.696 71.3829 143.696 72.4254 143.696C76.5573 143.59 80.8414 143.384 85.2168 143.14C91.7989 142.782 98.1527 142.378 104.065 141.952H104.24V141.784C104.24 136.87 104.179 132.245 104.157 127.971V127.811H103.997L81.6175 127.331L75.355 127.217H73.7114C73.3386 127.217 73.1407 127.217 73.1407 127.217C73.1407 127.217 73.3309 127.217 73.7038 127.255L75.355 127.324L81.6099 127.522L103.989 128.139L103.829 127.979C103.829 132.245 103.829 136.87 103.875 141.784L104.042 141.601C98.1147 142.005 91.7761 142.409 85.1939 142.774C80.8185 143.011 76.5421 143.232 72.4102 143.338C71.3829 143.338 70.3557 143.376 69.3664 143.338C68.3922 143.375 67.4404 143.04 66.7032 142.401C65.9741 141.779 65.4315 140.967 65.1356 140.055C64.8677 139.139 64.6568 138.208 64.504 137.266C63.8648 133.525 63.4539 129.929 63.0658 126.6C62.6778 123.271 62.3734 120.101 62.1071 117.244C61.8408 114.387 61.719 111.774 61.5592 109.496C61.3994 107.218 61.2929 105.252 61.1863 103.645C61.0798 102.037 60.9961 100.811 60.9352 99.9422C60.9048 99.5358 60.882 99.2158 60.8668 98.9822C60.8592 98.7232 60.8439 98.6089 60.8439 98.6089Z" fill="#D45147"/>
<path d="M99.5379 141.548C99.7127 139.318 99.7635 137.079 99.6901 134.843C99.745 132.606 99.6688 130.367 99.4618 128.139C99.2871 130.369 99.2363 132.607 99.3097 134.843C99.2548 137.081 99.331 139.319 99.5379 141.548Z" fill="#D45147"/>
<path d="M101.987 130.234C102.033 130.234 101.797 129.952 101.356 130.097C101.229 130.148 101.118 130.232 101.035 130.341C100.952 130.449 100.9 130.578 100.884 130.714C100.867 130.884 100.903 131.055 100.987 131.204C101.072 131.352 101.2 131.471 101.355 131.543C101.51 131.615 101.683 131.637 101.851 131.606C102.019 131.575 102.173 131.492 102.291 131.369C102.396 131.276 102.473 131.155 102.513 131.021C102.553 130.886 102.556 130.743 102.52 130.607C102.413 130.173 102.109 130.082 102.101 130.127C102.094 130.173 102.246 130.326 102.246 130.646C102.252 130.728 102.237 130.811 102.204 130.886C102.171 130.962 102.12 131.028 102.056 131.08C101.982 131.141 101.892 131.182 101.797 131.196C101.702 131.211 101.605 131.2 101.515 131.164C101.432 131.12 101.362 131.054 101.314 130.974C101.266 130.893 101.241 130.801 101.241 130.707C101.24 130.627 101.261 130.549 101.301 130.48C101.341 130.412 101.4 130.356 101.47 130.318C101.744 130.188 101.987 130.28 101.987 130.234Z" fill="#D45147"/>
<path d="M50.5488 101.74C50.5488 101.74 38.4879 117.526 37.0193 121.831C35.5507 126.135 36.6845 132.314 39.1423 135.27C41.6002 138.226 43.5786 137.022 43.5786 137.022L50.5488 101.74Z" fill="#D45147"/>
<path d="M44.0114 135.758C44.9938 136.115 46.0158 136.353 47.0551 136.466C48.0671 136.705 49.1048 136.818 50.1445 136.801C49.1613 136.446 48.1397 136.208 47.1008 136.093C46.0889 135.853 45.0511 135.741 44.0114 135.758Z" fill="#263238"/>
<path d="M41.6914 147.399C41.5511 147.662 41.4414 147.941 41.3642 148.229C41.1816 148.77 40.9 149.555 40.5424 150.515C39.6115 153.018 38.5316 155.463 37.3084 157.837C36.0755 160.205 34.7217 162.509 33.2526 164.739C32.6895 165.6 32.2253 166.263 31.8981 166.758C31.7172 166.997 31.5592 167.252 31.4264 167.52C31.6378 167.32 31.8243 167.095 31.9818 166.849C32.3471 166.4 32.8417 165.73 33.4352 164.891C34.9805 162.704 36.3738 160.413 37.6052 158.035C38.8417 155.649 39.8973 153.173 40.763 150.629C41.0902 149.654 41.3261 148.854 41.4707 148.298C41.5732 148.006 41.6471 147.705 41.6914 147.399Z" fill="#263238"/>
<g opacity="0.3">
<path d="M40.8691 149.266C38.9592 152.679 36.996 156.122 34.0816 158.766C32.9843 159.602 31.9906 160.567 31.1215 161.638C30.3606 162.774 29.9953 164.358 30.7411 165.524C30.8547 165.739 31.0297 165.916 31.2438 166.031C31.4579 166.146 31.7014 166.195 31.9433 166.172C32.2614 166.049 32.5293 165.824 32.7043 165.532C36.3419 160.838 39.0582 155.497 40.7093 149.791" fill="black"/>
</g>
<g opacity="0.3">
<path d="M42.4604 136.961C40.8092 135.773 40.2308 133.518 40.4819 131.491C40.8546 129.488 41.5294 127.554 42.4832 125.754C44.9919 120.205 46.9592 114.426 48.3577 108.498L49.5371 104.117L43.5713 135.354L42.4604 136.961Z" fill="black"/>
</g>
<path d="M72.3105 84.4914C71.6 83.6807 70.8374 82.9172 70.0277 82.2058C69.3256 81.3999 68.576 80.6366 67.783 79.9202C68.2846 80.8737 68.955 81.7281 69.7614 82.442C70.4811 83.2731 71.3446 83.9673 72.3105 84.4914Z" fill="#263238"/>
<path d="M73.5438 87.1655C73.5438 87.2265 74.2362 87.4474 75.3015 87.9731C78.0975 89.365 80.3515 91.6486 81.7087 94.4642C82.2261 95.5385 82.4315 96.2546 82.4696 96.2318C82.5076 96.2089 82.4696 96.0413 82.3859 95.7137C82.2757 95.2461 82.1229 94.7896 81.9293 94.35C80.6777 91.3864 78.3381 89.0167 75.3929 87.7293C74.9553 87.5344 74.5022 87.3764 74.0384 87.2569C73.8801 87.1979 73.7127 87.167 73.5438 87.1655Z" fill="#263238"/>
<path d="M41.1121 140.1C41.1868 140.009 41.2506 139.909 41.3023 139.803C41.4317 139.559 41.5839 139.262 41.7817 138.897L43.5166 135.491C44.2776 132.032 45.3353 126.989 46.4919 121.374C47.5649 116.086 48.5312 111.294 49.2465 107.767L50.0075 103.63C50.0912 103.18 50.1521 102.807 50.2053 102.502C50.2408 102.373 50.2562 102.24 50.251 102.106C50.1946 102.227 50.1537 102.355 50.1292 102.487C50.0607 102.784 49.9694 103.157 49.8629 103.599C49.6346 104.628 49.3302 106.014 48.9574 107.713C48.1964 111.233 47.2072 116.018 46.0886 121.297C44.932 126.912 43.9124 131.964 43.2275 135.438C42.5503 136.87 42.0024 138.036 41.5915 138.897L41.173 139.826C41.1426 139.915 41.1222 140.007 41.1121 140.1Z" fill="#263238"/>
<path d="M81.2286 127.476C81.3152 127.1 81.3737 126.718 81.4036 126.333C81.4949 125.518 81.609 124.467 81.746 123.194C82.0123 120.551 82.3624 116.886 82.72 112.848C83.0776 108.81 83.3896 105.138 83.5875 102.479C83.6788 101.207 83.7549 100.148 83.8081 99.3402C83.84 98.9548 83.84 98.5675 83.8081 98.1821C83.712 98.5563 83.6533 98.9391 83.6331 99.3249C83.5418 100.133 83.4277 101.192 83.2907 102.464C83.0168 105.108 82.6744 108.765 82.3091 112.81C81.9439 116.856 81.6471 120.52 81.4492 123.171C81.3579 124.444 81.2818 125.503 81.2286 126.318C81.1968 126.703 81.1968 127.091 81.2286 127.476Z" fill="#263238"/>
<path d="M103.723 129.518C103.723 129.518 108.722 125.709 109.94 125.488C110.876 125.312 116.461 125.411 119.025 125.488C119.504 125.485 119.964 125.671 120.308 126.004C120.652 126.337 120.853 126.791 120.867 127.27C120.87 127.331 120.87 127.392 120.867 127.453C120.799 127.757 120.649 128.036 120.433 128.259C120.216 128.482 119.943 128.641 119.642 128.718C120.031 128.843 120.372 129.087 120.615 129.417C120.858 129.746 120.992 130.144 120.996 130.554C120.996 132.002 119.261 132.306 119.261 132.306C119.351 132.375 119.435 132.452 119.512 132.535C119.729 132.754 119.883 133.027 119.959 133.326C120.034 133.625 120.029 133.939 119.943 134.235C119.857 134.531 119.693 134.799 119.469 135.01C119.245 135.222 118.968 135.369 118.668 135.438L117.907 135.62C118.197 135.74 118.449 135.938 118.634 136.192C118.82 136.446 118.931 136.747 118.957 137.06C118.957 138.965 114.642 139.346 114.642 139.346C114.642 139.346 104.042 141.03 103.814 140.954C103.586 140.877 103.723 129.518 103.723 129.518Z" fill="#FFBE9D"/>
<path d="M118.036 123.225C117.99 123.857 117.846 125.191 116.773 125.8L110.868 125.572C110.868 125.572 115.266 124.048 115.89 123.286C116.139 122.978 116.422 122.699 116.735 122.456C116.865 122.364 117.02 122.312 117.179 122.305C117.338 122.299 117.496 122.339 117.633 122.42C117.771 122.501 117.882 122.62 117.953 122.763C118.025 122.906 118.053 123.066 118.036 123.225Z" fill="#FFBE9D"/>
<path d="M113.646 125.511C114.53 125.718 115.442 125.783 116.347 125.701C117.247 125.751 118.149 125.687 119.033 125.511C118.151 125.307 117.242 125.242 116.339 125.32C115.437 125.275 114.533 125.339 113.646 125.511Z" fill="#EB996E"/>
<path d="M114.977 128.817C116.508 129.189 118.111 129.131 119.611 128.649C118.84 128.566 118.062 128.566 117.29 128.649C116.516 128.617 115.739 128.673 114.977 128.817Z" fill="#EB996E"/>
<path d="M111.97 128.39C111.879 128.444 111.97 128.771 112.328 128.985C112.686 129.198 112.998 129.175 113.013 129.069C113.028 128.962 112.792 128.832 112.534 128.665C112.275 128.497 112.054 128.33 111.97 128.39Z" fill="#EB996E"/>
<path d="M114.323 132.565C115.162 132.732 116.021 132.77 116.872 132.68C117.723 132.71 118.575 132.615 119.398 132.398C117.708 132.2 115.997 132.256 114.323 132.565Z" fill="#EB996E"/>
<path d="M110.945 130.981C110.899 130.981 110.808 131.087 110.777 131.316C110.754 131.628 110.846 131.937 111.036 132.184C111.223 132.426 111.495 132.587 111.797 132.634C112.033 132.634 112.17 132.634 112.17 132.55C112.17 132.466 111.66 132.383 111.318 131.948C110.975 131.514 111.051 131.042 110.945 130.981Z" fill="#EB996E"/>
<path d="M113.402 136.23C114.163 136.323 114.934 136.292 115.685 136.138C116.454 136.11 117.214 135.95 117.93 135.666C116.387 135.595 114.843 135.786 113.364 136.23H113.402Z" fill="#EB996E"/>
<path d="M110.137 134.364C110.084 134.364 110.016 134.485 110.023 134.714C110.041 135.009 110.15 135.291 110.335 135.522C110.769 136.047 111.256 136.238 111.309 136.162C111.363 136.085 110.997 135.727 110.64 135.285C110.282 134.844 110.236 134.379 110.137 134.364Z" fill="#EB996E"/>
<path d="M36.3868 170.659C35.3408 170.557 34.333 170.212 33.4438 169.651C32.5546 169.091 31.8088 168.329 31.2657 167.429C31.1439 167.223 31.0374 166.941 31.1972 166.766C31.2578 166.715 31.3282 166.676 31.404 166.652C31.4798 166.629 31.5595 166.621 31.6385 166.629C33.2937 166.616 34.9378 166.9 36.4933 167.467C36.5862 167.486 36.6738 167.525 36.75 167.582C36.8262 167.638 36.8892 167.711 36.9347 167.794C36.9723 167.924 36.9723 168.061 36.9347 168.19C36.7292 168.99 36.5162 169.79 36.3107 170.59" fill="#E8505B"/>
<g opacity="0.4">
<path d="M36.3868 170.659C35.3408 170.557 34.333 170.212 33.4438 169.651C32.5546 169.091 31.8088 168.329 31.2657 167.429C31.1439 167.223 31.0374 166.941 31.1972 166.766C31.2578 166.715 31.3282 166.676 31.404 166.652C31.4798 166.629 31.5595 166.621 31.6385 166.629C33.2937 166.616 34.9378 166.9 36.4933 167.467C36.5862 167.486 36.6738 167.525 36.75 167.582C36.8262 167.638 36.8892 167.711 36.9347 167.794C36.9723 167.924 36.9723 168.061 36.9347 168.19C36.7292 168.99 36.5162 169.79 36.3107 170.59" fill="black"/>
</g>
<path d="M86.266 86.96C86.266 86.96 88.6934 95.1348 88.0238 94.6701C87.3542 94.2053 85.9008 92.9178 85.9008 92.9178L86.266 86.96Z" fill="#EBEBEB"/>
<path d="M86.1226 90.7312L87.4542 93.9158C87.5822 94.2441 87.6691 94.587 87.713 94.9367C87.8195 95.8357 87.9489 97.4661 87.4162 97.5804C87.1503 97.5954 86.8844 97.5505 86.6381 97.449C86.3919 97.3474 86.1715 97.1919 85.9932 96.9938L86.1226 90.7312Z" fill="#263238"/>
<path d="M44.8797 91.234C44.8797 91.234 57.8917 86.1524 65.0902 90.6398C72.2887 95.1272 73.6051 102.289 77.8968 102.289C86.2671 102.289 85.9932 96.3767 85.9932 96.3767L87.7738 96.9176C87.8118 98.1213 89.7142 106.822 80.9253 107.881C72.1365 108.94 68.4079 96.9252 60.4789 96.9176C55.516 97.0005 50.6778 98.4875 46.5233 101.207L40.8239 97.6033L44.8797 91.234Z" fill="#263238"/>
<path d="M78.2617 107.744C76.0177 106.405 74.2584 104.385 73.2395 101.976C71.223 97.3061 66.8857 91.9807 63.2636 90.6398C59.6415 89.2989 51.256 88.3542 45.4652 92.1635L41.7595 97.1766L46.5762 100.308C49.2785 98.8864 52.1189 97.7453 55.0531 96.9024C61.0417 95.2339 64.6713 97.1233 68.1564 100.415C68.3695 100.62 68.5674 100.826 68.7424 101.024C70.42 102.818 72.2619 104.45 74.2439 105.9C75.9484 107.096 77.4856 107.751 78.2617 107.744Z" fill="#455A64"/>
<path d="M452.119 28.2362C446.61 28.5705 443.063 23.5924 442.181 19.3788C441.372 15.4881 441.188 11.4984 439.879 7.7457C438.052 2.50546 432.18 -0.393121 426.67 -0.445783C421.16 -0.498446 415.383 1.75575 410.304 3.89604L408.775 34.2649C408.775 34.2649 420.38 23.9638 425.465 24.2269C433.939 24.6854 432.154 38.6453 440.16 41.4896C440.16 41.4896 451.362 45.7206 460.093 36.3301C465.637 30.3651 466.793 22.5954 466.793 22.5954C466.793 22.5954 462.527 27.6134 452.119 28.2362Z" fill="#D45147"/>
<path d="M410.1 1.24194C409.993 1.24194 407.893 46.558 405.405 102.449C402.917 158.339 400.991 203.686 401.098 203.686C401.204 203.686 403.32 158.385 405.785 102.472C408.251 46.558 410.168 1.24956 410.1 1.24194Z" fill="white" stroke="white" stroke-width="2"/>
<g opacity="0.2">
<path d="M438.895 16.2302C439.824 19.4385 441.184 22.5058 442.936 25.3486C444.518 27.8329 446.918 29.9213 449.795 30.518C450.323 30.5934 450.841 30.728 451.339 30.9194C451.585 31.0215 451.8 31.1873 451.961 31.3999C452.121 31.6125 452.223 31.8641 452.255 32.129C452.255 32.9264 451.453 33.4471 450.743 33.7997C449.749 34.3436 448.687 34.7522 447.585 35.0148C446.468 35.2209 445.602 35.3348 444.838 34.4994C444.098 33.7731 443.432 32.9755 442.849 32.1181C440.341 27.8383 439.1 21.7197 438.895 16.8811" fill="black"/>
</g>
<path d="M358.424 50.1998C358.424 50.1998 358.553 50.1464 358.774 50.0017C359.093 49.7931 359.401 49.5667 359.695 49.3236C360.778 48.4259 361.736 47.3854 362.541 46.2304C363.73 44.5157 364.687 42.6506 365.386 40.684C366.261 38.2859 366.985 35.8355 367.555 33.3472C368.594 28.8395 369.251 24.252 369.518 19.6336C369.617 17.866 369.633 16.4337 369.633 15.4433C369.633 14.9785 369.633 14.6052 369.633 14.3005C369.649 14.1689 369.649 14.0359 369.633 13.9043C369.599 14.0335 369.586 14.1672 369.594 14.3005C369.594 14.6052 369.594 14.9785 369.549 15.4357C369.503 16.4261 369.442 17.8584 369.313 19.6183C368.963 24.2094 368.272 28.768 367.243 33.2558C366.695 35.7266 366.003 38.1636 365.173 40.5545C364.495 42.5007 363.574 44.3539 362.434 46.0704C361.656 47.2209 360.741 48.2724 359.71 49.2017C358.88 49.8646 358.424 50.1769 358.424 50.1998Z" fill="#263238"/>
<path d="M456.623 212.699L354.68 229.407V212.699H456.623Z" fill="#5C6998"/>
<path d="M337.848 250.449L235.905 267.157V250.449H337.848Z" fill="#5C6998"/>
<path d="M219.895 286.555L117.952 303.262V286.555H219.895Z" fill="#5C6998"/>
<path d="M102.094 315.285L0.1508 332V315.285H102.094Z" fill="#5C6998"/>
<path d="M354.68 200.181H456.623V212.699H354.68V200.181Z" fill="#D45147"/>
<g opacity="0.3">
<path d="M354.673 200.181H386.488V212.699H354.673V200.181Z" fill="black"/>
</g>
<path d="M235.905 237.932H337.848V250.45H235.905V237.932Z" fill="#D45147"/>
<g opacity="0.3">
<path d="M235.906 237.932H267.721V250.45H235.906V237.932Z" fill="black"/>
</g>
<path d="M117.952 274.037H219.895V286.555H117.952V274.037Z" fill="#D45147"/>
<g opacity="0.3">
<path d="M117.945 274.037H149.76V286.555H117.945V274.037Z" fill="black"/>
</g>
<path d="M-0.00154114 302.775H101.941V315.292H-0.00154114V302.775Z" fill="#D45147"/>
<g opacity="0.3">
<path d="M-0.00819397 302.775H31.8066V315.292H-0.00819397V302.775Z" fill="black"/>
</g>
<path d="M62.8223 257.222C62.8223 257.773 62.6592 258.311 62.3536 258.768C62.0481 259.226 61.6139 259.582 61.1059 259.792C60.598 260.003 60.0391 260.057 59.5002 259.949C58.9612 259.841 58.4663 259.576 58.0782 259.186C57.6901 258.796 57.4261 258.3 57.3198 257.76C57.2135 257.22 57.2696 256.661 57.481 256.153C57.6924 255.645 58.0495 255.211 58.5073 254.907C58.965 254.602 59.5028 254.44 60.0524 254.442C60.4168 254.442 60.7776 254.514 61.1141 254.653C61.4507 254.793 61.7564 254.998 62.0137 255.257C62.271 255.515 62.4748 255.822 62.6136 256.159C62.7523 256.496 62.8233 256.858 62.8223 257.222Z" fill="#EBEBEB"/>
</g>
<defs>
<clipPath id="clip0_1270_14455">
<rect width="468" height="332" fill="white" transform="matrix(-1 0 0 1 468 0)"/>
</clipPath>
</defs>
</svg>
