<svg width="60" height="60" viewBox="0 0 60 60" fill="none" xmlns="http://www.w3.org/2000/svg">
<g clip-path="url(#clip0_128_1511)">
<path opacity="0.989" fill-rule="evenodd" clip-rule="evenodd" d="M9.66799 0.0586119C12.849 -0.139294 14.3139 1.34508 14.0625 4.51174C13.7299 5.7037 12.9877 6.52401 11.836 6.97267C11.7578 7.55861 11.7578 8.14455 11.836 8.73049C13.0146 9.49483 14.1475 10.3151 15.2344 11.1914C15.293 12.1672 15.3124 13.1438 15.293 14.1211C18.8086 14.1211 22.3242 14.1211 25.8399 14.1211C25.8593 13.5728 25.8397 13.026 25.7813 12.4805C24.6026 11.7161 23.4697 10.8958 22.3828 10.0195C22.3438 9.00392 22.3047 7.9883 22.2656 6.97267C20.4414 6.09799 19.6992 4.65268 20.0391 2.63674C20.8019 0.604191 22.2667 -0.235652 24.4336 0.117206C26.4661 0.879969 27.306 2.34481 26.9531 4.51174C26.6206 5.7037 25.8783 6.52401 24.7266 6.97267C24.6484 7.55861 24.6484 8.14455 24.7266 8.73049C25.9053 9.49483 27.0381 10.3151 28.125 11.1914C28.1836 12.1672 28.2031 13.1438 28.1836 14.1211C29.3555 14.1211 30.5274 14.1211 31.6992 14.1211C31.6798 13.1438 31.6992 12.1672 31.7578 11.1914C32.8447 10.3151 33.9776 9.49483 35.1563 8.73049C35.2344 8.14455 35.2344 7.55861 35.1563 6.97267C32.8602 5.74839 32.2743 3.95151 33.3985 1.58205C34.5001 0.147299 35.9258 -0.301919 37.6758 0.234393C39.4668 1.10137 40.1895 2.52715 39.8438 4.51174C39.5112 5.7037 38.7689 6.52401 37.6172 6.97267C37.5782 7.9883 37.539 9.00392 37.5 10.0195C36.4131 10.8958 35.2803 11.7161 34.1016 12.4805C34.0431 13.026 34.0235 13.5728 34.043 14.1211C37.5586 14.1211 41.0742 14.1211 44.5899 14.1211C44.5704 13.1438 44.5899 12.1672 44.6485 11.1914C45.7354 10.3151 46.8682 9.49483 48.0469 8.73049C48.1251 8.14455 48.1251 7.55861 48.0469 6.97267C45.7508 5.74839 45.1649 3.95151 46.2891 1.58205C47.3908 0.147299 48.8165 -0.301919 50.5664 0.234393C52.3574 1.10137 53.0801 2.52715 52.7344 4.51174C52.4018 5.7037 51.6596 6.52401 50.5078 6.97267C50.4688 7.9883 50.4297 9.00392 50.3906 10.0195C49.3037 10.8958 48.1709 11.7161 46.9922 12.4805C46.9337 13.026 46.9142 13.5728 46.9336 14.1211C48.8481 14.1015 50.7621 14.1211 52.6758 14.1797C54.3822 14.5969 55.5345 15.6321 56.1328 17.2852C56.3073 27.1628 56.3659 37.0456 56.3086 46.9336C54.7462 46.9336 53.1836 46.9336 51.6211 46.9336C51.6407 37.9492 51.6211 28.9648 51.5625 19.9805C51.5039 19.2969 51.1328 18.9258 50.4492 18.8672C36.7773 18.789 23.1055 18.789 9.43362 18.8672C8.75003 18.9258 8.37893 19.2969 8.32034 19.9805C8.26174 28.9648 8.24221 37.9492 8.26174 46.9336C6.69925 46.9336 5.13674 46.9336 3.57424 46.9336C3.51691 37.0456 3.57551 27.1628 3.75002 17.2852C4.27737 15.8203 5.27346 14.8242 6.7383 14.2969C8.80207 14.1276 10.8724 14.069 12.9492 14.1211C12.9687 13.5728 12.9491 13.026 12.8906 12.4805C11.7119 11.7161 10.5791 10.8958 9.49221 10.0195C9.45315 9.00392 9.41408 7.9883 9.37502 6.97267C7.07896 5.74839 6.49302 3.95151 7.61721 1.58205C8.15408 0.868414 8.83767 0.360601 9.66799 0.0586119ZM27.4805 23.4961C29.1216 23.4765 30.7622 23.4961 32.4024 23.5547C32.984 23.5901 33.355 23.8831 33.5156 24.4336C33.5355 25.2956 33.594 26.155 33.6914 27.0117C33.9061 27.0994 34.1015 27.2166 34.2774 27.3633C35.0195 26.9531 35.7618 26.543 36.5039 26.1328C36.8887 26.0458 37.2402 26.1239 37.5586 26.3672C38.5234 27.9189 39.4414 29.5009 40.3125 31.1133C40.4051 31.4806 40.3661 31.8321 40.1953 32.168C39.4927 32.6953 38.7505 33.1641 37.9688 33.5742C37.8906 33.8868 37.8906 34.1992 37.9688 34.5117C38.7505 34.9219 39.4927 35.3906 40.1953 35.918C40.4577 36.5428 40.3796 37.1288 39.961 37.6758C39.175 39.0332 38.3741 40.3808 37.5586 41.7188C37.3227 41.8661 37.0689 41.9638 36.7969 42.0117C35.9365 41.6304 35.0967 41.2007 34.2774 40.7227C34.1015 40.8694 33.9061 40.9866 33.6914 41.0742C33.594 41.931 33.5355 42.7903 33.5156 43.6524C33.3521 44.2064 32.981 44.4994 32.4024 44.5313C30.7617 44.6094 29.1211 44.6094 27.4805 44.5313C26.9018 44.4994 26.5308 44.2064 26.3672 43.6524C26.3474 42.7903 26.2888 41.931 26.1914 41.0742C25.9767 40.9866 25.7814 40.8694 25.6055 40.7227C24.8633 41.1328 24.1211 41.543 23.3789 41.9531C22.9942 42.0402 22.6426 41.962 22.3242 41.7188C21.3914 40.1463 20.4735 38.5643 19.5703 36.9727C19.4778 36.6054 19.5168 36.2538 19.6875 35.918C20.3902 35.3906 21.1323 34.9219 21.9141 34.5117C21.9922 34.1992 21.9922 33.8868 21.9141 33.5742C21.1323 33.1641 20.3902 32.6953 19.6875 32.168C19.4251 31.5431 19.5033 30.9572 19.9219 30.4102C20.7079 29.0528 21.5087 27.7051 22.3242 26.3672C22.5601 26.2199 22.814 26.1222 23.086 26.0742C23.9464 26.4556 24.7861 26.8853 25.6055 27.3633C25.7814 27.2166 25.9767 27.0994 26.1914 27.0117C26.2888 26.155 26.3474 25.2956 26.3672 24.4336C26.5539 23.8838 26.925 23.5713 27.4805 23.4961ZM29.1211 30.6445C32.0677 30.5245 33.4544 31.9308 33.2813 34.8633C32.4088 37.174 30.7878 37.9357 28.418 37.1485C26.5622 35.955 26.0739 34.334 26.9531 32.2852C27.4835 31.4654 28.2062 30.9186 29.1211 30.6445Z" fill="#031555"/>
<path opacity="0.992" fill-rule="evenodd" clip-rule="evenodd" d="M10.6055 21.1523C23.4961 21.1523 36.3867 21.1523 49.2773 21.1523C49.2773 29.7461 49.2773 38.3399 49.2773 46.9336C36.3867 46.9336 23.4961 46.9336 10.6055 46.9336C10.6055 38.3399 10.6055 29.7461 10.6055 21.1523ZM27.4805 23.4961C26.925 23.5713 26.5539 23.8837 26.3672 24.4336C26.3474 25.2956 26.2888 26.155 26.1914 27.0117C25.9767 27.0994 25.7814 27.2166 25.6055 27.3633C24.7861 26.8853 23.9463 26.4555 23.0859 26.0742C22.8139 26.1221 22.5601 26.2199 22.3242 26.3672C21.5087 27.7051 20.7079 29.0528 19.9219 30.4102C19.5033 30.9572 19.4251 31.5431 19.6875 32.168C20.3902 32.6953 21.1323 33.1641 21.9141 33.5742C21.9922 33.8868 21.9922 34.1992 21.9141 34.5117C21.1323 34.9219 20.3902 35.3906 19.6875 35.918C19.5168 36.2538 19.4777 36.6054 19.5703 36.9727C20.4735 38.5643 21.3914 40.1463 22.3242 41.7188C22.6426 41.962 22.9942 42.0402 23.3789 41.9531C24.1211 41.543 24.8633 41.1328 25.6055 40.7227C25.7814 40.8694 25.9767 40.9866 26.1914 41.0742C26.2888 41.931 26.3474 42.7903 26.3672 43.6523C26.5308 44.2064 26.9018 44.4994 27.4805 44.5312C29.1211 44.6094 30.7617 44.6094 32.4023 44.5312C32.981 44.4994 33.352 44.2064 33.5156 43.6523C33.5354 42.7903 33.594 41.931 33.6914 41.0742C33.9061 40.9866 34.1014 40.8694 34.2773 40.7227C35.0967 41.2007 35.9365 41.6304 36.7969 42.0117C37.0689 41.9638 37.3227 41.8661 37.5586 41.7188C38.3741 40.3808 39.175 39.0332 39.9609 37.6758C40.3795 37.1287 40.4577 36.5428 40.1953 35.918C39.4927 35.3906 38.7505 34.9219 37.9688 34.5117C37.8906 34.1992 37.8906 33.8868 37.9688 33.5742C38.7505 33.1641 39.4927 32.6953 40.1953 32.168C40.3661 31.8321 40.4051 31.4805 40.3125 31.1133C39.4413 29.5009 38.5234 27.9189 37.5586 26.3672C37.2402 26.1239 36.8886 26.0457 36.5039 26.1328C35.7618 26.543 35.0195 26.9531 34.2773 27.3633C34.1014 27.2166 33.9061 27.0994 33.6914 27.0117C33.594 26.155 33.5354 25.2956 33.5156 24.4336C33.355 23.883 32.9839 23.5901 32.4023 23.5547C30.7622 23.4961 29.1216 23.4765 27.4805 23.4961ZM29.1211 30.6445C28.2062 30.9186 27.4835 31.4654 26.9531 32.2852C26.0739 34.3339 26.5622 35.955 28.418 37.1484C30.7877 37.9357 32.4088 37.174 33.2812 34.8633C33.4543 31.9308 32.0677 30.5245 29.1211 30.6445Z" fill="#031555"/>
<path opacity="0.945" fill-rule="evenodd" clip-rule="evenodd" d="M28.5352 25.8398C29.4727 25.8398 30.4102 25.8398 31.3477 25.8398C31.3282 26.544 31.3478 27.2471 31.4062 27.9492C31.4891 28.1345 31.5867 28.3103 31.6992 28.4766C32.5725 28.8837 33.4124 29.3329 34.2188 29.8242C34.9364 29.5044 35.6395 29.1529 36.3281 28.7695C36.8595 29.4976 37.3477 30.2593 37.793 31.0547C37.3048 31.3965 36.797 31.7091 36.2695 31.9922C36.0547 32.1289 35.8789 32.3047 35.7422 32.5195C35.664 33.5352 35.664 34.5507 35.7422 35.5664C35.8789 35.7812 36.0547 35.957 36.2695 36.0938C36.797 36.3769 37.3048 36.6894 37.793 37.0312C37.3477 37.8266 36.8595 38.5883 36.3281 39.3164C35.6395 38.9331 34.9364 38.5815 34.2188 38.2617C33.4124 38.7531 32.5725 39.2023 31.6992 39.6094C31.5867 39.7757 31.4891 39.9514 31.4062 40.1367C31.3478 40.8388 31.3282 41.5419 31.3477 42.2461C30.4102 42.2461 29.4727 42.2461 28.5352 42.2461C28.5546 41.5419 28.535 40.8388 28.4766 40.1367C28.3937 39.9514 28.2961 39.7757 28.1836 39.6094C27.3103 39.2023 26.4704 38.7531 25.6641 38.2617C24.9464 38.5815 24.2433 38.9331 23.5547 39.3164C23.0234 38.5883 22.5352 37.8266 22.0898 37.0312C22.578 36.6894 23.0858 36.3769 23.6133 36.0938C23.8281 35.957 24.0039 35.7812 24.1406 35.5664C24.2188 34.5507 24.2188 33.5352 24.1406 32.5195C24.0039 32.3047 23.8281 32.1289 23.6133 31.9922C23.0858 31.7091 22.578 31.3965 22.0898 31.0547C22.5352 30.2593 23.0234 29.4976 23.5547 28.7695C24.2433 29.1529 24.9464 29.5044 25.6641 29.8242C26.4704 29.3329 27.3103 28.8837 28.1836 28.4766C28.2961 28.3103 28.3937 28.1345 28.4766 27.9492C28.535 27.2471 28.5546 26.544 28.5352 25.8398ZM29.1211 30.6445C28.2062 30.9186 27.4835 31.4654 26.9531 32.2852C26.0739 34.3339 26.5622 35.955 28.418 37.1484C30.7877 37.9357 32.4088 37.174 33.2812 34.8633C33.4543 31.9308 32.0677 30.5245 29.1211 30.6445Z" fill="#031555"/>
<path opacity="0.908" fill-rule="evenodd" clip-rule="evenodd" d="M29.3554 32.8711C30.7411 32.6747 31.3075 33.2606 31.0546 34.6289C30.6263 35.1885 30.06 35.3643 29.3554 35.1562C28.7959 34.7279 28.6201 34.1616 28.8281 33.457C28.9882 33.2388 29.1639 33.0436 29.3554 32.8711Z" fill="#031555"/>
<path opacity="0.994" fill-rule="evenodd" clip-rule="evenodd" d="M2.51955 49.2773C7.52017 49.2383 12.5202 49.2773 17.5196 49.3945C18.0194 50.679 18.5077 51.9681 18.9844 53.2617C19.082 53.5156 19.2578 53.6914 19.5117 53.789C22.9828 53.9239 26.4594 53.9825 29.9414 53.9648C33.4234 53.9825 36.9 53.9239 40.3711 53.789C40.6251 53.6914 40.8008 53.5156 40.8985 53.2617C41.3752 51.9681 41.8635 50.679 42.3633 49.3945C47.3237 49.2578 52.2847 49.2383 57.2461 49.3359C58.5034 49.6947 59.3433 50.4955 59.7656 51.7383C60.0613 55.9727 58.1667 58.6486 54.0821 59.7656C37.9883 59.8438 21.8945 59.8438 5.8008 59.7656C2.20229 58.8826 0.288227 56.5974 0.0586148 52.9101C0.0346702 51.1208 0.854982 49.9099 2.51955 49.2773Z" fill="#031555"/>
<path opacity="0.992" fill-rule="evenodd" clip-rule="evenodd" d="M19.8633 49.2773C26.5825 49.2383 33.3013 49.2773 40.0195 49.3945C39.7461 50.0976 39.4726 50.8008 39.1992 51.5039C33.0273 51.6601 26.8555 51.6601 20.6836 51.5039C20.3863 50.768 20.1129 50.0258 19.8633 49.2773Z" fill="#031555"/>
</g>
<defs>
<clipPath id="clip0_128_1511">
<rect width="60" height="60" fill="white"/>
</clipPath>
</defs>
</svg>
