<svg width="60" height="60" viewBox="0 0 60 60" fill="none" xmlns="http://www.w3.org/2000/svg">
<g clip-path="url(#clip0_128_1746)">
<path opacity="0.966" fill-rule="evenodd" clip-rule="evenodd" d="M15.1757 -0.0585938C25.0195 -0.0585938 34.8632 -0.0585938 44.707 -0.0585938C46.6399 0.718211 47.4602 2.16353 47.1679 4.27734C35.6836 4.27734 24.1992 4.27734 12.7148 4.27734C12.4225 2.16353 13.2429 0.718211 15.1757 -0.0585938ZM25.2539 1.11328C25.8801 1.09383 26.5051 1.11336 27.1289 1.17188C27.7194 1.53032 27.8561 2.0186 27.539 2.63672C27.3845 2.86963 27.1697 3.00634 26.8945 3.04688C26.2981 3.14364 25.7122 3.10458 25.1367 2.92969C24.4879 2.27387 24.527 1.6684 25.2539 1.11328ZM29.5898 1.11328C31.2699 1.09376 32.9497 1.11329 34.6289 1.17188C35.3622 1.70636 35.4013 2.29229 34.7461 2.92969C34.6289 2.96875 34.5117 3.00782 34.3945 3.04688C32.832 3.125 31.2695 3.125 29.707 3.04688C28.6626 2.45516 28.6236 1.81063 29.5898 1.11328Z" fill="#031555"/>
<path opacity="0.983" fill-rule="evenodd" clip-rule="evenodd" d="M12.7148 6.26953C24.1992 6.26953 35.6836 6.26953 47.168 6.26953C47.168 22.0508 47.168 37.832 47.168 53.6133C35.6836 53.6133 24.1992 53.6133 12.7148 53.6133C12.7148 37.832 12.7148 22.0508 12.7148 6.26953ZM21.2695 20.332C23.4964 20.3125 25.723 20.332 27.9492 20.3906C28.2244 20.4312 28.4392 20.5679 28.5938 20.8008C28.7863 23.2513 28.8254 25.7122 28.7109 28.1836C28.6564 28.3513 28.5587 28.4879 28.418 28.5938C25.9675 28.7863 23.5065 28.8254 21.0352 28.7109C20.8259 28.6189 20.6501 28.4823 20.5078 28.3008C20.3168 25.9646 20.2777 23.6209 20.3906 21.2695C20.4703 20.7409 20.7633 20.4285 21.2695 20.332ZM31.9336 20.332C34.1605 20.3125 36.3871 20.332 38.6133 20.3906C39.1406 20.4492 39.4336 20.7422 39.4922 21.2695C39.5704 23.4961 39.5704 25.7227 39.4922 27.9492C39.4516 28.2244 39.3149 28.4392 39.082 28.5938C36.6315 28.7863 34.1706 28.8254 31.6992 28.7109C31.5315 28.6564 31.3949 28.5587 31.2891 28.418C31.0965 25.9675 31.0574 23.5065 31.1719 21.0352C31.3402 20.6904 31.5941 20.456 31.9336 20.332ZM35.2148 29.707C35.4116 29.753 35.607 29.8116 35.8008 29.8828C37.4218 31.5039 39.043 33.125 40.6641 34.7461C40.9195 35.2048 40.8804 35.6345 40.5469 36.0352C39.043 37.539 37.539 39.043 36.0352 40.5469C35.6345 40.8804 35.2048 40.9195 34.7461 40.6641C33.125 39.043 31.5039 37.4218 29.8828 35.8008C29.6885 35.3995 29.7275 35.0088 30 34.6289C31.543 33.0859 33.0859 31.543 34.6289 30C34.8416 29.9113 35.0368 29.8137 35.2148 29.707ZM21.0352 31.1133C23.4183 31.0937 25.8011 31.1133 28.1836 31.1719C28.3513 31.2264 28.4879 31.3241 28.5938 31.4648C28.7863 33.9154 28.8254 36.3763 28.7109 38.8477C28.6189 39.057 28.4823 39.2327 28.3008 39.375C25.9646 39.566 23.6209 39.6052 21.2695 39.4922C20.7422 39.4336 20.4492 39.1406 20.3906 38.6133C20.3125 36.3867 20.3125 34.1602 20.3906 31.9336C20.5005 31.5705 20.7155 31.2971 21.0352 31.1133Z" fill="#031555"/>
<path opacity="0.977" fill-rule="evenodd" clip-rule="evenodd" d="M22.4414 22.4414C23.8867 22.4414 25.3321 22.4414 26.7773 22.4414C26.7773 23.8867 26.7773 25.3321 26.7773 26.7773C25.3321 26.7773 23.8867 26.7773 22.4414 26.7773C22.4414 25.3321 22.4414 23.8867 22.4414 22.4414Z" fill="#031555"/>
<path opacity="0.977" fill-rule="evenodd" clip-rule="evenodd" d="M33.1055 22.4414C34.5507 22.4414 35.9961 22.4414 37.4414 22.4414C37.4414 23.8867 37.4414 25.3321 37.4414 26.7773C35.9961 26.7773 34.5507 26.7773 33.1055 26.7773C33.1055 25.3321 33.1055 23.8867 33.1055 22.4414Z" fill="#031555"/>
<path opacity="0.935" fill-rule="evenodd" clip-rule="evenodd" d="M35.2148 32.168C36.3061 33.1812 37.3608 34.2359 38.3789 35.332C37.4024 36.3867 36.3867 37.4024 35.332 38.3789C34.2595 37.365 33.2048 36.3298 32.168 35.2734C33.2073 34.2537 34.223 33.2186 35.2148 32.168Z" fill="#031555"/>
<path opacity="0.977" fill-rule="evenodd" clip-rule="evenodd" d="M22.4414 33.1055C23.8867 33.1055 25.3321 33.1055 26.7773 33.1055C26.7773 34.5507 26.7773 35.9961 26.7773 37.4414C25.3321 37.4414 23.8867 37.4414 22.4414 37.4414C22.4414 35.9961 22.4414 34.5507 22.4414 33.1055Z" fill="#031555"/>
<path opacity="0.973" fill-rule="evenodd" clip-rule="evenodd" d="M44.707 59.9414C34.8632 59.9414 25.0195 59.9414 15.1757 59.9414C13.2429 59.1646 12.4225 57.7193 12.7148 55.6055C24.1992 55.6055 35.6836 55.6055 47.1679 55.6055C47.4602 57.7193 46.6399 59.1646 44.707 59.9414ZM27.5976 56.7773C29.1605 56.7578 30.7231 56.7773 32.2851 56.8359C33.2506 57.3409 33.3288 57.9659 32.5195 58.7109C30.8007 58.7891 29.082 58.7891 27.3632 58.7109C26.5633 57.9488 26.6415 57.3042 27.5976 56.7773Z" fill="#031555"/>
</g>
<defs>
<clipPath id="clip0_128_1746">
<rect width="60" height="60" fill="white"/>
</clipPath>
</defs>
</svg>
