<svg width="60" height="60" viewBox="0 0 60 60" fill="none" xmlns="http://www.w3.org/2000/svg">
<path opacity="0.974" fill-rule="evenodd" clip-rule="evenodd" d="M16.5821 2.05078C25.4884 2.03125 34.3947 2.05078 43.3008 2.10938C45.6714 2.33139 47.1362 3.60093 47.6953 5.91797C47.7735 7.71484 47.7735 9.51172 47.6953 11.3086C47.6075 11.3819 47.5097 11.4405 47.4024 11.4844C35.7618 11.5625 24.1211 11.5625 12.4805 11.4844C12.3732 11.4405 12.2754 11.3819 12.1875 11.3086C12.1094 9.51172 12.1094 7.71484 12.1875 5.91797C12.7663 3.5998 14.2312 2.31074 16.5821 2.05078ZM27.8321 6.38672C29.2389 6.36721 30.6451 6.38673 32.0508 6.44531C32.3633 6.67969 32.3633 6.91406 32.0508 7.14844C30.6446 7.22657 29.2383 7.22657 27.8321 7.14844C27.5319 6.89579 27.5319 6.64188 27.8321 6.38672Z" fill="#031555"/>
<path opacity="0.987" fill-rule="evenodd" clip-rule="evenodd" d="M12.1289 12.1289C23.9844 12.285 35.8398 12.285 47.6953 12.1289C47.7539 23.4179 47.7735 34.707 47.7539 45.9961C35.8781 45.8401 24.0032 45.8401 12.1289 45.9961C12.1289 34.7071 12.1289 23.4179 12.1289 12.1289ZM29.707 17.2852C29.8679 17.2668 30.0243 17.2863 30.1758 17.3438C33.1432 19.648 36.5026 20.7027 40.2539 20.5078C41.2453 27.4608 39.4289 33.5741 34.8047 38.8477C33.3645 40.3482 31.7434 41.5982 29.9414 42.5977C23.0584 38.4653 19.5036 32.3521 19.2773 24.2578C19.2575 23.0113 19.3747 21.7808 19.6289 20.5664C22.446 20.8584 25.1023 20.3311 27.5977 18.9844C28.3907 18.5228 29.0938 17.9564 29.707 17.2852ZM32.0508 27.9492C32.5403 27.8721 32.7161 28.0673 32.5781 28.5352C31.4613 29.6128 30.3871 30.7261 29.3555 31.875C29.1993 31.9532 29.0429 31.9532 28.8867 31.875C28.3594 31.3477 27.832 30.8203 27.3047 30.293C27.1679 29.8046 27.3437 29.6289 27.832 29.7656C28.2439 30.1971 28.6737 30.6073 29.1211 30.9961C30.1514 30.0266 31.1279 29.0109 32.0508 27.9492Z" fill="#031555"/>
<path opacity="0.961" fill-rule="evenodd" clip-rule="evenodd" d="M29.1211 24.1992C31.6241 23.9958 33.5577 24.9333 34.9219 27.0117C36.3714 30.2182 35.6877 32.8549 32.8711 34.9219C29.6646 36.3714 27.0279 35.6877 24.9609 32.8711C23.5114 29.6646 24.1951 27.0279 27.0117 24.9609C27.6913 24.5997 28.3944 24.3459 29.1211 24.1992ZM32.0508 27.9492C31.1279 29.0109 30.1514 30.0266 29.1211 30.9961C28.6737 30.6073 28.2439 30.1971 27.832 29.7656C27.3437 29.6289 27.1679 29.8046 27.3047 30.293C27.832 30.8203 28.3594 31.3476 28.8867 31.875C29.0429 31.9531 29.1993 31.9531 29.3555 31.875C30.3871 30.7261 31.4613 29.6128 32.5781 28.5351C32.7161 28.0673 32.5403 27.8721 32.0508 27.9492Z" fill="#031555"/>
<path opacity="0.981" fill-rule="evenodd" clip-rule="evenodd" d="M12.3633 46.6992C24.0822 46.6797 35.8009 46.6992 47.5196 46.7578C47.5782 46.8164 47.6367 46.875 47.6953 46.9336C47.7735 49.2774 47.7735 51.6211 47.6953 53.9649C47.1362 56.2819 45.6714 57.5514 43.3008 57.7735C34.118 57.8882 24.9383 57.8492 15.7617 57.6563C14.0085 57.2313 12.8562 56.1571 12.3047 54.4336C12.1732 53.1119 12.1146 51.7838 12.1289 50.4492C12.1485 49.2774 12.168 48.1055 12.1875 46.9336C12.2716 46.8699 12.3301 46.7917 12.3633 46.6992ZM29.3555 50.2149C31.5545 50.2391 32.3162 51.2938 31.6407 53.3789C30.2393 54.7275 29.0283 54.5712 28.0078 52.9102C27.7769 51.6535 28.226 50.755 29.3555 50.2149Z" fill="#031555"/>
</svg>
