<svg width="60" height="60" viewBox="0 0 60 60" fill="none" xmlns="http://www.w3.org/2000/svg">
<path opacity="0.994" fill-rule="evenodd" clip-rule="evenodd" d="M15.7617 0.878908C25.3763 0.821618 34.9856 0.880212 44.5899 1.05469C46.2429 1.65302 47.2781 2.80538 47.6953 4.51172C47.7539 6.42538 47.7735 8.33945 47.7539 10.2539C35.879 10.2539 24.0039 10.2539 12.1289 10.2539C12.1094 8.33945 12.1289 6.42538 12.1875 4.51172C12.6972 2.61546 13.8886 1.40452 15.7617 0.878908ZM26.1914 4.62891C28.6917 4.60938 31.1917 4.62891 33.6914 4.6875C34.4938 4.90613 34.7086 5.39441 34.336 6.15235C34.1428 6.29496 33.928 6.39261 33.6914 6.44531C31.1915 6.52344 28.6914 6.52344 26.1914 6.44531C25.389 6.22669 25.1742 5.7384 25.5469 4.98047C25.7667 4.85054 25.9815 4.73336 26.1914 4.62891ZM37.0899 4.7461C38.1856 4.73032 38.4981 5.2186 38.0274 6.21094C37.0261 6.60028 36.5769 6.26826 36.6797 5.21485C36.7606 4.99802 36.8972 4.84177 37.0899 4.7461Z" fill="#031555"/>
<path opacity="0.994" fill-rule="evenodd" clip-rule="evenodd" d="M9.78515 12.1289C23.2227 12.1094 36.6602 12.1289 50.0977 12.1875C50.3125 12.2461 50.4492 12.3829 50.5078 12.5977C50.5664 14.6285 50.586 16.6597 50.5664 18.6914C36.8164 18.6914 23.0664 18.6914 9.3164 18.6914C9.29688 16.6597 9.31641 14.6285 9.375 12.5977C9.45582 12.3809 9.59254 12.2245 9.78515 12.1289ZM38.9648 14.5899C40.0605 14.574 40.3731 15.0624 39.9023 16.0547C38.9011 16.444 38.4519 16.112 38.5547 15.0586C38.6355 14.8418 38.7722 14.6855 38.9648 14.5899ZM42.7148 14.5899C43.8105 14.574 44.1231 15.0624 43.6523 16.0547C42.6511 16.444 42.2019 16.112 42.3047 15.0586C42.3855 14.8418 42.5222 14.6855 42.7148 14.5899ZM46.4648 14.5899C47.5605 14.574 47.8731 15.0624 47.4023 16.0547C46.4011 16.444 45.9519 16.112 46.0547 15.0586C46.1355 14.8418 46.2722 14.6855 46.4648 14.5899Z" fill="#031555"/>
<path opacity="0.991" fill-rule="evenodd" clip-rule="evenodd" d="M9.31641 20.5664C23.0664 20.5664 36.8164 20.5664 50.5664 20.5664C50.6241 27.373 50.5655 34.1699 50.3906 40.957C50.3027 41.0304 50.205 41.089 50.0977 41.1328C43.3789 41.1524 36.6601 41.1718 29.9414 41.1914C23.1349 41.2105 16.338 41.1519 9.55078 41.0156C9.47745 40.9277 9.41885 40.83 9.375 40.7227C9.31641 34.0041 9.29687 27.2852 9.31641 20.5664ZM32.4023 22.5586C33.3721 22.4655 33.7432 22.8953 33.5156 23.8477C31.6338 28.2754 29.7197 32.6895 27.7734 37.0898C26.6883 37.5628 26.2195 37.2113 26.3672 36.0352C28.249 31.6075 30.1631 27.1934 32.1094 22.793C32.226 22.7266 32.3236 22.6485 32.4023 22.5586ZM22.5586 24.4336C23.6105 24.3884 23.9425 24.8571 23.5547 25.8398C22.1858 27.1891 20.8382 28.5564 19.5117 29.9414C20.8382 31.3264 22.1858 32.6937 23.5547 34.043C23.9258 35.2344 23.5157 35.6446 22.3242 35.2734C20.7422 33.6914 19.1602 32.1094 17.5781 30.5273C17.3438 30.1368 17.3438 29.7461 17.5781 29.3555C19.226 27.688 20.8861 26.0474 22.5586 24.4336ZM36.6211 24.4336C36.9516 24.4041 37.264 24.4627 37.5586 24.6094C39.1406 26.1914 40.7227 27.7734 42.3047 29.3555C42.5391 29.7461 42.5391 30.1368 42.3047 30.5273C40.7227 32.1094 39.1406 33.6914 37.5586 35.2734C36.3671 35.6446 35.957 35.2344 36.3281 34.043C37.697 32.6937 39.0446 31.3264 40.3711 29.9414C39.0446 28.5564 37.697 27.1891 36.3281 25.8398C36.0379 25.2737 36.1355 24.805 36.6211 24.4336Z" fill="#031555"/>
<path fill-rule="evenodd" clip-rule="evenodd" d="M12.1289 43.0664C24.0039 43.0664 35.8789 43.0664 47.7539 43.0664C47.7539 44.6289 47.7539 46.1914 47.7539 47.7539C35.8789 47.7539 24.0039 47.7539 12.1289 47.7539C12.1289 46.1914 12.1289 44.6289 12.1289 43.0664Z" fill="#031555"/>
<path opacity="0.988" fill-rule="evenodd" clip-rule="evenodd" d="M12.1289 49.6289C24.0039 49.6289 35.8789 49.6289 47.7539 49.6289C47.806 51.7058 47.7474 53.7761 47.5781 55.8398C46.9798 57.4929 45.8274 58.5281 44.1211 58.9453C34.6679 59.0235 25.2149 59.0235 15.7617 58.9453C14.0553 58.5281 12.903 57.4929 12.3047 55.8398C12.1353 53.7761 12.0767 51.7058 12.1289 49.6289ZM29.2383 51.6211C30.8899 51.4014 32.0032 52.0655 32.5781 53.6133C32.8554 55.2663 32.2108 56.3796 30.6445 56.9531C28.9915 57.2304 27.8782 56.5859 27.3047 55.0195C27.0421 53.3561 27.6866 52.2232 29.2383 51.6211ZM18.6914 53.3789C19.942 53.3593 21.1921 53.3789 22.4414 53.4375C23.2725 53.6905 23.4677 54.1984 23.0273 54.9609C22.8414 55.062 22.646 55.1401 22.4414 55.1953C21.1914 55.2735 19.9414 55.2735 18.6914 55.1953C17.889 54.9766 17.6742 54.4884 18.0469 53.7305C18.2667 53.6005 18.4815 53.4833 18.6914 53.3789ZM37.4414 53.3789C38.692 53.3593 39.9421 53.3789 41.1914 53.4375C42.0225 53.6905 42.2177 54.1984 41.7773 54.9609C41.5914 55.062 41.396 55.1401 41.1914 55.1953C39.9414 55.2735 38.6914 55.2735 37.4414 55.1953C36.639 54.9766 36.4242 54.4884 36.7969 53.7305C37.0167 53.6005 37.2315 53.4833 37.4414 53.3789Z" fill="#031555"/>
<path opacity="0.892" fill-rule="evenodd" clip-rule="evenodd" d="M29.4726 53.3789C30.8039 53.2863 31.1945 53.8527 30.6445 55.0781C29.4098 55.5465 28.8825 55.1364 29.0625 53.8476C29.1434 53.6308 29.28 53.4745 29.4726 53.3789Z" fill="#031555"/>
</svg>
