<svg width="100" height="100" viewBox="0 0 100 100" fill="none" xmlns="http://www.w3.org/2000/svg">
<path opacity="0.985" fill-rule="evenodd" clip-rule="evenodd" d="M37.7923 3.02722C54.4451 2.15586 67.0427 8.79648 75.5853 22.9491C78.1181 27.5542 79.583 32.437 79.9798 37.5975C78.0834 36.9948 76.2605 37.1901 74.5111 38.1835C71.4957 36.5362 68.8263 36.9593 66.5033 39.453C62.949 39.08 60.4752 40.5124 59.0814 43.7499C57.716 44.1885 56.4464 44.8071 55.2728 45.6053C46.3886 38.9622 37.4369 38.8645 28.4173 45.3124C23.5478 49.4858 21.0087 54.7917 20.8001 61.2303C30.3054 61.2303 39.8105 61.2303 49.3158 61.2303C49.2836 61.9495 49.316 62.6655 49.4134 63.3788C49.8795 64.4729 50.3677 65.5471 50.8783 66.6014C50.2201 68.476 50.3828 70.2665 51.3666 71.9725C52.0892 72.7606 52.8705 73.4768 53.7103 74.121C53.8201 75.4333 54.1783 76.6704 54.7845 77.8319C54.7437 77.9464 54.6785 78.044 54.5892 78.1249C40.8341 82.4694 28.2689 80.2559 16.8939 71.4842C5.323 61.121 0.993574 48.263 3.90562 32.91C7.06617 20.3655 14.5206 11.4137 26.2689 6.05457C29.9974 4.52052 33.8384 3.5114 37.7923 3.02722ZM40.5267 17.4803C45.8793 17.3711 49.5576 19.78 51.5619 24.7069C52.8998 30.6569 50.849 34.9864 45.4095 37.6952C39.8511 39.3801 35.5216 37.7852 32.4212 32.91C30.041 27.3591 31.2453 22.7692 36.0345 19.1405C37.474 18.3524 38.9714 17.799 40.5267 17.4803Z" fill="white"/>
<path opacity="0.953" fill-rule="evenodd" clip-rule="evenodd" d="M70.2149 40.1367C70.7397 40.1046 71.2606 40.1372 71.7774 40.2343C72.6727 40.5847 73.5842 40.8777 74.5118 41.1132C75.4543 40.9183 76.3659 40.6253 77.2461 40.2343C77.767 40.104 78.2877 40.104 78.8086 40.2343C79.7852 40.9505 80.7618 41.6665 81.7383 42.3828C84.61 41.6855 86.5305 42.6947 87.5 45.4101C88.5198 46.3595 89.7243 46.9781 91.1133 47.2656C91.3413 47.4935 91.569 47.7212 91.7969 47.9492C92.1225 49.1861 92.4479 50.4232 92.7735 51.6601C93.7395 52.5304 94.651 53.4419 95.5079 54.3945C95.4682 55.829 95.403 57.2613 95.3125 58.6913C95.7157 59.5626 96.1715 60.4089 96.6797 61.2304C96.81 61.8163 96.81 62.4023 96.6797 62.9882C96.2241 63.8345 95.7682 64.681 95.3125 65.5273C95.2551 66.6755 95.3528 67.8148 95.6055 68.9453C95.6067 69.3945 95.509 69.8175 95.3125 70.2148C94.5249 71.0679 93.6786 71.8492 92.7735 72.5585C92.4233 73.6408 92.1629 74.7476 91.9922 75.8788C91.8541 76.1876 91.6915 76.4806 91.504 76.7578C90.4288 77.2898 89.3219 77.7454 88.1836 78.1249C87.4024 79.2318 86.6211 80.3384 85.8399 81.4453C84.5588 81.6904 83.2567 81.8206 81.9336 81.8359C80.853 82.4089 79.8764 83.1249 79.004 83.9843C78.353 84.1146 77.7018 84.1146 77.0508 83.9843C76.2254 83.6331 75.379 83.3402 74.5118 83.1054C73.3108 83.5279 72.1065 83.9185 70.8985 84.2773C70.4737 84.1298 70.0506 83.9671 69.629 83.789C68.8883 82.996 68.0418 82.3451 67.0899 81.8359C65.7668 81.8206 64.4647 81.6904 63.1836 81.4453C62.4024 80.3384 61.6211 79.2318 60.8399 78.1249C59.6659 77.7099 58.5266 77.2216 57.4219 76.6601C56.942 75.3197 56.5514 73.9525 56.25 72.5585C55.2084 71.7773 54.2969 70.8658 53.5157 69.8242C53.5553 68.3896 53.6206 66.9574 53.711 65.5273C53.3079 64.656 52.852 63.8097 52.3438 62.9882C52.2135 62.4023 52.2135 61.8163 52.3438 61.2304C52.852 60.4089 53.3079 59.5626 53.711 58.6913C53.7684 57.5431 53.6708 56.4038 53.418 55.2734C53.4168 54.8242 53.5145 54.4011 53.711 54.0038C54.6161 53.2945 55.4624 52.5132 56.25 51.6601C56.5963 50.4283 56.9219 49.1913 57.2266 47.9492C58.2473 47.1736 59.3868 46.6203 60.6446 46.289C60.9375 45.996 61.2305 45.7031 61.5235 45.4101C62.493 42.6947 64.4135 41.6855 67.2852 42.3828C68.2979 41.6607 69.2745 40.9121 70.2149 40.1367ZM74.3165 45.4101C81.1223 45.7349 86.1678 48.8599 89.4532 54.7851C92.6809 62.6714 91.1508 69.4747 84.8633 75.1953C77.8545 80.066 70.8883 80.0007 63.9649 74.9999C58.2932 69.7943 56.6331 63.5119 58.9844 56.1523C61.9836 49.5374 67.0942 45.9566 74.3165 45.4101Z" fill="white"/>
<path opacity="0.963" fill-rule="evenodd" clip-rule="evenodd" d="M72.1681 48.5351C80.2384 47.8952 85.4792 51.4109 87.8907 59.0819C89.0232 66.5525 86.1911 71.8583 79.3947 74.9999C72.7378 77.0237 67.3017 75.2985 63.0861 69.8241C59.3234 62.9405 60.2675 56.7882 65.9181 51.3671C67.8038 49.9482 69.8872 49.0042 72.1681 48.5351ZM79.9806 69.4335C78.1611 68.3933 76.3382 67.3517 74.5118 66.3085C72.6855 67.3517 70.8626 68.3933 69.0431 69.4335C69.4519 67.4403 69.9075 65.4546 70.4103 63.4765C70.3452 63.3138 70.28 63.1509 70.215 62.9882C68.6812 61.6169 67.1187 60.2823 65.5275 58.9843C67.74 58.7937 69.9534 58.631 72.1681 58.496C72.8333 56.5013 73.6146 54.5482 74.5118 52.6366C75.3384 54.562 76.1847 56.4825 77.0509 58.3984C79.1954 58.6335 81.3439 58.8288 83.4962 58.9843C81.8829 60.361 80.2878 61.7609 78.7111 63.1835C79.0693 65.2693 79.4925 67.3527 79.9806 69.4335Z" fill="white"/>
<path opacity="0.937" fill-rule="evenodd" clip-rule="evenodd" d="M91.1138 79.9804C91.3083 79.9636 91.471 80.0288 91.6021 80.1757C92.8925 83.2347 94.162 86.2946 95.4107 89.3554C92.8689 88.8923 90.3298 88.469 87.7935 88.0858C86.4581 90.2325 85.0909 92.3483 83.6919 94.4335C82.6003 92.0395 81.5261 89.6306 80.4693 87.2069C80.3167 86.9249 80.3493 86.6645 80.5669 86.4257C81.304 85.9821 81.955 85.4288 82.52 84.7655C86.0751 85.2518 88.5165 83.852 89.8443 80.5663C90.2923 80.3862 90.7156 80.1909 91.1138 79.9804Z" fill="white"/>
<path opacity="0.946" fill-rule="evenodd" clip-rule="evenodd" d="M58.6914 80.371C58.8859 80.3542 59.0486 80.4194 59.1797 80.5663C60.5074 83.852 62.9488 85.2518 66.5039 84.7655C67.4523 85.7804 68.5592 86.5616 69.8242 87.1093C68.3334 90.3835 66.7709 93.6061 65.1367 96.7772C63.7529 94.5962 62.4184 92.3825 61.1328 90.1366C58.6453 90.6651 56.1387 91.121 53.6133 91.5038C55.1543 87.7284 56.8471 84.0175 58.6914 80.371Z" fill="white"/>
</svg>
