<svg width="100" height="100" viewBox="0 0 100 100" fill="none" xmlns="http://www.w3.org/2000/svg">
<path opacity="0.963" fill-rule="evenodd" clip-rule="evenodd" d="M57.52 3.02728C58.71 2.95681 59.8819 3.05447 61.0356 3.32025C62.7403 4.56874 64.4981 5.74062 66.309 6.83587C68.2622 7.03119 70.2153 7.2265 72.1684 7.42181C73.4751 7.88363 74.4842 8.69742 75.1958 9.86322C75.6915 11.9114 76.2774 13.9296 76.9536 15.9179C78.2284 17.3708 79.5956 18.738 81.0551 20.0195C81.8604 21.2802 82.1208 22.6474 81.8364 24.121C81.162 25.8605 80.3807 27.5533 79.4926 29.1992C79.4366 29.6661 79.3389 30.1218 79.1997 30.5663C79.4588 32.1495 79.6542 33.7445 79.7856 35.3515C79.7854 37.1103 79.0692 38.4775 77.6372 39.4531C75.9444 40.2343 74.2518 41.0156 72.559 41.7968C71.1874 43.3361 69.9829 44.9962 68.9458 46.7773C67.678 48.063 66.1481 48.5513 64.3559 48.2421C62.6018 47.7333 60.844 47.2451 59.0825 46.7773C57.2463 47.2046 55.4233 47.6929 53.6137 48.2421C51.8215 48.5513 50.2917 48.063 49.0239 46.7773C47.9868 44.9962 46.7823 43.3361 45.4106 41.7968C43.4926 40.9355 41.6047 40.024 39.7465 39.0624C38.9803 38.3443 38.492 37.4654 38.2817 36.4257C38.2506 34.4599 38.4133 32.5068 38.77 30.5663C38.6526 29.7511 38.4249 28.9699 38.0864 28.2226C37.2786 26.9326 36.6276 25.5654 36.1333 24.121C35.7983 22.5322 36.1239 21.0997 37.1098 19.8242C38.542 18.6523 39.8442 17.3502 41.0161 15.9179C41.692 13.9306 42.278 11.9123 42.7739 9.86322C43.3379 8.84341 44.1518 8.0947 45.2153 7.61712C46.9504 7.25214 48.7083 7.05683 50.4887 7.03119C51.246 6.98109 51.962 6.78578 52.6372 6.44525C54.196 5.1748 55.8235 4.03548 57.52 3.02728ZM57.3247 10.2538C65.0131 10.0105 70.3842 13.3959 73.4379 20.4101C75.6364 28.3353 73.3252 34.5527 66.5044 39.0624C59.3864 42.4064 53.0387 41.3322 47.4614 35.8398C43.0661 30.2353 42.4801 24.2456 45.7036 17.871C48.4239 13.5528 52.2977 11.0138 57.3247 10.2538Z" fill="white"/>
<path opacity="0.963" fill-rule="evenodd" clip-rule="evenodd" d="M57.5201 13.1835C64.98 12.9975 69.5699 16.5132 71.2896 23.7304C71.7964 31.2183 68.4435 35.9382 61.231 37.8906C54.8117 38.6695 50.2218 36.163 47.4615 30.371C45.3277 23.6853 47.1831 18.4444 53.0279 14.6484C54.491 13.976 55.9884 13.4877 57.5201 13.1835ZM65.3326 19.4335C64.8535 19.5736 64.3976 19.8015 63.9654 20.1171C61.746 22.2712 59.5976 24.4849 57.5201 26.7577C57.3247 26.888 57.1294 26.888 56.9341 26.7577C55.8212 25.5796 54.6494 24.4728 53.4185 23.4374C51.465 23.1128 50.5861 23.9265 50.7818 25.8788C52.5011 27.7937 54.2915 29.6491 56.1529 31.4452C56.9667 31.8527 57.748 31.7876 58.4966 31.2499C61.2615 28.2964 64.0935 25.3991 66.9927 22.5585C67.6257 20.895 67.0722 19.8532 65.3326 19.4335Z" fill="white"/>
<path opacity="0.94" fill-rule="evenodd" clip-rule="evenodd" d="M43.4571 44.043C44.6436 45.2645 45.6528 46.6316 46.4844 48.1445C48.3799 50.4268 50.8213 51.501 53.8086 51.3672C52.5065 54.1016 51.2045 56.8359 49.9024 59.5703C49.5875 59.7109 49.2946 59.6785 49.0235 59.4727C47.9739 57.6012 46.8997 55.7457 45.8008 53.9062C43.6124 54.1463 41.4313 54.5043 39.2579 54.9805C39.1071 54.9521 38.9768 54.8871 38.8672 54.7852C38.737 54.4596 38.737 54.1342 38.8672 53.8086C40.4532 50.5719 41.9833 47.3166 43.4571 44.043Z" fill="white"/>
<path opacity="0.939" fill-rule="evenodd" clip-rule="evenodd" d="M74.3164 44.043C76.0377 47.2117 77.6326 50.467 79.1016 53.8086C79.2318 54.1342 79.2318 54.4596 79.1016 54.7852C78.992 54.8871 78.8617 54.9521 78.7109 54.9805C76.5391 54.5045 74.358 54.1465 72.168 53.9062C71.0691 55.7457 69.9949 57.6012 68.9453 59.4727C68.6742 59.6785 68.3812 59.7109 68.0664 59.5703C66.8176 56.8123 65.5154 54.0779 64.1602 51.3672C67.2594 51.507 69.766 50.3676 71.6797 47.9492C72.4488 46.5637 73.3277 45.2615 74.3164 44.043Z" fill="white"/>
<path opacity="0.979" fill-rule="evenodd" clip-rule="evenodd" d="M37.0117 60.6445C38.474 60.5582 39.9062 60.7211 41.3086 61.1328C46.4613 63.1543 51.7348 64.7818 57.1289 66.0156C60.5125 67.5724 61.3262 70.0138 59.5703 73.3398C58.5092 74.5832 57.1746 75.0062 55.5664 74.6093C52.0736 73.6793 48.5904 72.7353 45.1172 71.7773C43.5156 72.4125 43.2877 73.3564 44.4336 74.6093C48.0795 75.5859 51.7252 76.5625 55.3711 77.539C58.067 78.0136 60.1504 77.1023 61.6211 74.8047C67.8949 71.44 74.0799 67.9244 80.1758 64.2578C82.5887 62.8017 85.1928 62.1506 87.9883 62.3047C91.1281 63.2748 92.3324 65.3908 91.6016 68.6523C91.268 69.6117 90.7144 70.4256 89.9414 71.0937C80.306 77.0181 70.6705 82.9427 61.0352 88.8672C58.9676 90.0363 56.7539 90.4922 54.3945 90.2343C47.1461 88.4384 39.9195 86.5506 32.7148 84.5703C31.8633 84.505 31.082 84.733 30.3711 85.2539C27.101 79.9529 23.976 74.5494 20.9961 69.0429C25.4014 66.2213 29.9586 63.6496 34.668 61.3281C35.4732 61.0953 36.2545 60.8674 37.0117 60.6445Z" fill="white"/>
<path opacity="0.965" fill-rule="evenodd" clip-rule="evenodd" d="M13.7687 66.6993C14.4878 66.6671 15.2039 66.6995 15.9171 66.797C16.2659 66.9503 16.5589 67.178 16.796 67.4805C21.1579 75.1628 25.52 82.8452 29.882 90.5274C30.3482 91.6352 30.2505 92.6768 29.589 93.6524C27.8949 94.7602 26.137 95.7694 24.3156 96.6798C23.2265 96.9673 22.2825 96.7393 21.4835 95.9962C17.0564 88.1837 12.6294 80.3712 8.20227 72.5587C7.99905 71.5938 8.12925 70.6825 8.5929 69.8243C10.3468 68.8022 12.0721 67.7604 13.7687 66.6993ZM13.1827 70.9962C14.9832 70.9055 15.5691 71.6868 14.9406 73.3399C13.9886 74.1413 13.1748 74.0112 12.4991 72.9493C12.3689 72.5587 12.3689 72.168 12.4991 71.7774C12.7678 71.5421 12.9957 71.2817 13.1827 70.9962Z" fill="white"/>
</svg>
