<svg width="100" height="100" viewBox="0 0 100 100" fill="none" xmlns="http://www.w3.org/2000/svg">
<path opacity="0.969" fill-rule="evenodd" clip-rule="evenodd" d="M49.1211 13.1836C63.823 13.5479 74.5978 20.1885 81.4453 33.1055C82.24 34.8061 82.8584 36.5639 83.3008 38.3789C86.7617 38.2701 89.4635 39.6373 91.4062 42.4805C95.1127 49.2658 95.1777 56.1018 91.6015 62.9883C90.3117 65.1896 88.5213 66.8498 86.2305 67.9688C83.7992 68.6832 81.4228 68.5205 79.1015 67.4805C74.3228 74.4117 67.9099 79.1318 59.8633 81.6406C59.3521 81.8012 58.8312 81.8988 58.3008 81.9336C58.5144 83.9486 57.7332 85.4135 55.957 86.3281C52.2547 86.641 48.5437 86.7061 44.8242 86.5234C43.0574 86.2541 41.9832 85.2451 41.6015 83.4961C41.3494 81.9318 41.5447 80.4344 42.1875 79.0039C42.6297 78.4311 43.1832 78.0078 43.8476 77.7344C51.2357 78.4457 58.2019 77.0785 64.7461 73.6328C70.7785 70.0082 75.0428 64.8977 77.539 58.3008C78.1213 54.3549 78.7398 50.416 79.3945 46.4844C78.1941 34.875 72.4 26.4766 62.0117 21.2891C49.6707 16.4659 38.6355 18.5167 28.9062 27.4414C23.8713 32.7406 21.0392 39.0557 20.4101 46.3867C21.3758 52.3646 22.2873 58.3543 23.1445 64.3555C23.1027 65.777 22.4517 66.7859 21.1914 67.3828C15.568 69.6967 11.2386 68.2318 8.20311 62.9883C4.96305 56.6937 4.76774 50.3137 7.61717 43.8477C9.59218 40.4033 12.5544 38.5803 16.5039 38.3789C19.2384 29.1002 24.8373 22.1014 33.3008 17.3828C38.2959 14.8373 43.5693 13.4375 49.1211 13.1836Z" fill="black"/>
<path opacity="0.983" fill-rule="evenodd" clip-rule="evenodd" d="M49.7065 23.9258C61.0358 24.357 68.7507 29.8258 72.851 40.332C75.8958 51.2424 73.1288 60.3244 64.5503 67.5781C56.9503 72.7102 48.8448 73.6541 40.2339 70.4102C37.9442 71.5387 35.6981 72.743 33.4956 74.0234C31.7298 74.4068 30.8184 73.6906 30.7612 71.875C31.1833 69.5037 31.7042 67.16 32.3237 64.8438C27.0751 59.1227 24.9592 52.3844 25.976 44.6289C27.6842 34.717 33.3157 28.174 42.8706 25C45.1423 24.4107 47.421 24.0527 49.7065 23.9258ZM37.2065 43.6523C36.0231 43.9033 35.0139 44.4893 34.1792 45.4102C32.7829 47.7633 33.0758 49.8793 35.0581 51.7578C38.3198 53.3656 40.6309 52.4867 41.9917 49.1211C42.2424 45.693 40.6475 43.8701 37.2065 43.6523ZM49.5112 43.6523C48.7729 43.824 48.0567 44.117 47.3628 44.5312C45.0255 46.6369 44.8301 48.9156 46.7768 51.3672C49.5852 53.3559 51.9616 52.9328 53.9057 50.0977C54.8757 46.3115 53.4108 44.1631 49.5112 43.6523ZM61.6206 43.6523C60.537 43.8855 59.593 44.4064 58.7885 45.2148C56.9331 48.2416 57.5516 50.6178 60.644 52.3438C63.4204 52.9576 65.3409 51.9484 66.4057 49.3164C66.7618 45.7977 65.1669 43.9098 61.6206 43.6523Z" fill="black"/>
</svg>
