<svg width="60" height="60" viewBox="0 0 60 60" fill="none" xmlns="http://www.w3.org/2000/svg">
<path opacity="0.987" fill-rule="evenodd" clip-rule="evenodd" d="M28.8867 5.91802C36.8491 5.9023 42.2984 9.57418 45.2344 16.9336C45.562 17.9667 45.7769 19.0213 45.8789 20.0977C51.8307 20.8177 55.7565 24.0209 57.6562 29.7071C58.9589 35.7624 57.1425 40.6257 52.207 44.2969C49.9976 45.73 47.5758 46.4136 44.9414 46.3477C44.9961 42.9434 44.9375 39.545 44.7656 36.1524C44.0691 34.1859 42.6824 33.1312 40.6055 32.9883C40.1121 28.7269 37.9246 25.6996 34.043 23.9063C29.7963 22.3495 25.9682 23.0526 22.5586 26.0157C20.6294 27.9407 19.5356 30.2649 19.2773 32.9883C17.2004 33.1312 15.8137 34.1859 15.1172 36.1524C14.9453 39.545 14.8867 42.9434 14.9414 46.3477C9.83797 46.2586 5.99031 44.0321 3.39843 39.668C1.56063 35.9827 1.32625 32.1937 2.69531 28.3008C4.93052 23.4616 8.70004 20.7272 14.0039 20.0977C15.0594 13.2408 18.8876 8.72915 25.4883 6.56255C26.6235 6.26956 27.7563 6.05472 28.8867 5.91802ZM29.8242 29.5899C31.9525 29.7456 33.3391 30.8393 33.9844 32.8711C34.1182 33.7647 34.1768 34.6632 34.1601 35.5665C31.3477 35.5665 28.5352 35.5665 25.7227 35.5665C25.4108 33.4735 26.0358 31.7352 27.5977 30.3516C28.3109 29.9642 29.0531 29.7104 29.8242 29.5899Z" fill="#031555"/>
<path opacity="0.988" fill-rule="evenodd" clip-rule="evenodd" d="M29.8242 25.7227C33.874 25.9389 36.5107 27.9701 37.7344 31.8164C37.8955 33.0599 37.9541 34.3099 37.9102 35.5664C38.9718 35.5259 40.0265 35.5845 41.0742 35.7422C41.6016 35.957 41.9727 36.3281 42.1875 36.8555C42.2657 42.1289 42.2657 47.4023 42.1875 52.6758C41.9104 53.344 41.4222 53.7541 40.7227 53.9062C33.5352 53.9844 26.3476 53.9844 19.1602 53.9062C18.4607 53.7541 17.9725 53.344 17.6953 52.6758C17.6172 47.4023 17.6172 42.1289 17.6953 36.8555C17.9101 36.3281 18.2813 35.957 18.8086 35.7422C19.8564 35.5845 20.9111 35.5259 21.9727 35.5664C21.4728 30.7819 23.465 27.5982 27.9492 26.0156C28.5905 25.914 29.2156 25.8164 29.8242 25.7227ZM29.8242 29.5898C29.0532 29.7103 28.3109 29.9641 27.5977 30.3516C26.0358 31.7352 25.4109 33.4734 25.7227 35.5664C28.5352 35.5664 31.3477 35.5664 34.1602 35.5664C34.1768 34.6631 34.1182 33.7646 33.9844 32.8711C33.3392 30.8393 31.9525 29.7456 29.8242 29.5898Z" fill="#031555"/>
</svg>
