<svg width="60" height="60" viewBox="0 0 60 60" fill="none" xmlns="http://www.w3.org/2000/svg">
<path opacity="0.973" fill-rule="evenodd" clip-rule="evenodd" d="M10.4882 3.69153C11.1451 3.62216 11.7702 3.71983 12.3632 3.98449C13.9138 5.45656 15.3786 6.99953 16.7578 8.6134C16.8856 9.26929 16.8075 9.89428 16.5234 10.4884C15.0513 12.0389 13.5084 13.5038 11.8945 14.8829C9.9609 15.1369 9.12105 14.297 9.37496 12.3634C9.57862 11.925 9.87159 11.5539 10.2539 11.2501C8.457 11.2111 6.66012 11.172 4.86324 11.1329C3.81064 10.6087 3.43955 9.76891 3.74996 8.6134C3.9648 8.08606 4.3359 7.71496 4.86324 7.50012C6.66012 7.46106 8.457 7.42199 10.2539 7.38293C9.26829 6.55864 9.05345 5.56254 9.60934 4.39465C9.85708 4.08753 10.1501 3.85315 10.4882 3.69153Z" fill="#031555"/>
<path opacity="0.989" fill-rule="evenodd" clip-rule="evenodd" d="M28.418 3.69145C34.0653 3.35911 37.6786 5.89818 39.2578 11.3086C43.4523 12.7336 45.3273 15.6633 44.8828 20.0977C44.1106 23.4091 42.0598 25.4208 38.7305 26.1329C36.9461 26.4204 35.2663 26.1275 33.6914 25.2539C31.1915 26.504 28.6914 26.504 26.1914 25.2539C23.544 26.5505 20.9269 26.4919 18.3399 25.0782C15.331 22.8884 14.2958 19.9783 15.2344 16.3477C16.1632 13.7391 17.9602 12.0595 20.625 11.3086C21.7062 7.19992 24.3039 4.66086 28.418 3.69145Z" fill="#031555"/>
<path opacity="0.973" fill-rule="evenodd" clip-rule="evenodd" d="M49.8632 3.69153C50.5201 3.62216 51.1452 3.71983 51.7382 3.98449C53.2888 5.45656 54.7536 6.99953 56.1328 8.6134C56.2606 9.26929 56.1825 9.89428 55.8984 10.4884C54.4263 12.0389 52.8834 13.5038 51.2695 14.8829C49.3359 15.1369 48.496 14.297 48.75 12.3634C48.9536 11.925 49.2466 11.5539 49.6289 11.2501C47.832 11.2111 46.0351 11.172 44.2382 11.1329C43.1857 10.6087 42.8145 9.76891 43.125 8.6134C43.3398 8.08606 43.7109 7.71496 44.2382 7.50012C46.0351 7.46106 47.832 7.42199 49.6289 7.38293C48.6433 6.55864 48.4284 5.56254 48.9843 4.39465C49.2321 4.08753 49.525 3.85315 49.8632 3.69153Z" fill="#031555"/>
<path opacity="0.973" fill-rule="evenodd" clip-rule="evenodd" d="M10.4882 22.4413C11.1451 22.3719 11.7702 22.4695 12.3632 22.7343C13.9138 24.2064 15.3786 25.7493 16.7578 27.3632C16.8856 28.0191 16.8075 28.644 16.5234 29.2382C15.0513 30.7887 13.5084 32.2535 11.8945 33.6327C9.9609 33.8866 9.12105 33.0468 9.37496 31.1132C9.57862 30.6748 9.87159 30.3036 10.2539 29.9999C8.457 29.9609 6.66012 29.9217 4.86324 29.8827C3.81064 29.3585 3.43955 28.5186 3.74996 27.3632C3.9648 26.8358 4.3359 26.4647 4.86324 26.2499C6.66012 26.2109 8.457 26.1717 10.2539 26.1327C9.26829 25.3084 9.05345 24.3123 9.60934 23.1444C9.85708 22.8373 10.1501 22.6029 10.4882 22.4413Z" fill="#031555"/>
<path opacity="0.973" fill-rule="evenodd" clip-rule="evenodd" d="M49.8632 22.4413C50.5201 22.3719 51.1452 22.4695 51.7382 22.7343C53.2888 24.2064 54.7536 25.7493 56.1328 27.3632C56.2606 28.0191 56.1825 28.644 55.8984 29.2382C54.4263 30.7887 52.8834 32.2535 51.2695 33.6327C49.3359 33.8866 48.496 33.0468 48.75 31.1132C48.9536 30.6748 49.2466 30.3036 49.6289 29.9999C47.832 29.9609 46.0351 29.9217 44.2382 29.8827C43.1857 29.3585 42.8145 28.5186 43.125 27.3632C43.3398 26.8358 43.7109 26.4647 44.2382 26.2499C46.0351 26.2109 47.832 26.1717 49.6289 26.1327C48.6433 25.3084 48.4284 24.3123 48.9843 23.1444C49.2321 22.8373 49.525 22.6029 49.8632 22.4413Z" fill="#031555"/>
<path opacity="0.998" fill-rule="evenodd" clip-rule="evenodd" d="M17.7539 31.8164C25.879 31.7969 34.004 31.8164 42.1289 31.875C43.5938 32.2461 44.5117 33.1641 44.8828 34.6289C44.9414 39.3163 44.961 44.0038 44.9414 48.6914C34.9415 48.6914 24.9414 48.6914 14.9414 48.6914C14.9219 44.0038 14.9414 39.3163 15 34.6289C15.3925 33.1623 16.3104 32.2248 17.7539 31.8164Z" fill="#031555"/>
<path opacity="0.994" fill-rule="evenodd" clip-rule="evenodd" d="M11.1914 50.5664C23.6914 50.5664 36.1914 50.5664 48.6914 50.5664C48.6084 53.2903 47.2802 55.1067 44.707 56.0156C39.7904 56.1511 34.8686 56.2097 29.9414 56.1914C25.0143 56.2097 20.0924 56.1511 15.1758 56.0156C12.6026 55.1067 11.2744 53.2903 11.1914 50.5664Z" fill="#031555"/>
</svg>
