<svg width="60" height="60" viewBox="0 0 60 60" fill="none" xmlns="http://www.w3.org/2000/svg">
<path opacity="0.977" fill-rule="evenodd" clip-rule="evenodd" d="M11.8945 3.69136C15.3703 3.34736 17.6163 4.83173 18.6328 8.14449C18.6914 9.78465 18.711 11.4253 18.6914 13.0664C17.4414 13.0664 16.1914 13.0664 14.9414 13.0664C14.9876 11.6148 14.929 10.1695 14.7656 8.73043C14.1451 7.53245 13.2272 7.23949 12.0117 7.85152C11.7063 8.07868 11.4915 8.37165 11.3672 8.73043C11.2038 10.1695 11.1452 11.6148 11.1914 13.0664C9.9414 13.0664 8.69141 13.0664 7.4414 13.0664C7.42188 11.4253 7.44141 9.78465 7.5 8.14449C8.12681 5.81853 9.59165 4.33416 11.8945 3.69136Z" fill="#031555"/>
<path opacity="0.954" fill-rule="evenodd" clip-rule="evenodd" d="M42.5977 3.69136C42.9125 3.67213 43.2251 3.69166 43.5352 3.74995C43.9725 4.09508 44.3436 4.50524 44.6484 4.98042C45.6368 7.01981 46.2423 9.16825 46.4648 11.4257C44.1993 11.1132 41.9336 11.1132 39.668 11.4257C39.8919 9.016 40.5756 6.75036 41.7188 4.62886C41.9564 4.25477 42.2494 3.94227 42.5977 3.69136Z" fill="#031555"/>
<path opacity="0.948" fill-rule="evenodd" clip-rule="evenodd" d="M39.668 4.04291C39.8057 4.01725 39.9229 4.05631 40.0195 4.1601C38.8622 6.44439 38.1395 8.86627 37.8516 11.4257C36.1929 11.7867 34.5327 12.1968 32.8711 12.6562C32.0194 12.965 31.1991 13.3361 30.4102 13.7695C30.3274 13.5039 30.347 13.2305 30.4688 12.9492C32.0215 8.41369 35.0879 5.44494 39.668 4.04291Z" fill="#031555"/>
<path opacity="0.95" fill-rule="evenodd" clip-rule="evenodd" d="M46.1133 4.04297C51.187 5.34705 54.4293 8.53065 55.8398 13.5938C55.8008 13.6523 55.7617 13.7109 55.7227 13.7695C53.4456 12.5876 51.0238 11.8649 48.457 11.6016C48.0961 9.94288 47.6859 8.28273 47.2266 6.62109C46.8843 5.742 46.5131 4.88263 46.1133 4.04297Z" fill="#031555"/>
<path opacity="0.98" fill-rule="evenodd" clip-rule="evenodd" d="M40.0195 13.0665C42.2488 13.0349 44.4753 13.0741 46.6992 13.1836C46.8554 15.6056 46.8554 18.0274 46.6992 20.4493C44.2773 20.6055 41.8555 20.6055 39.4336 20.4493C39.2774 18.0274 39.2774 15.6056 39.4336 13.1836C39.658 13.2169 39.8532 13.1779 40.0195 13.0665Z" fill="#031555"/>
<path opacity="0.953" fill-rule="evenodd" clip-rule="evenodd" d="M36.9726 13.418C37.207 13.418 37.4414 13.418 37.6758 13.418C37.5195 15.6836 37.5195 17.9493 37.6758 20.2148C35.0515 19.9894 32.6295 19.1885 30.4101 17.8125C29.7852 17.1484 29.7852 16.4844 30.4101 15.8203C31.3277 15.1271 32.3434 14.6194 33.457 14.2969C34.6346 13.9634 35.8065 13.6704 36.9726 13.418Z" fill="#031555"/>
<path opacity="0.953" fill-rule="evenodd" clip-rule="evenodd" d="M48.457 13.418C50.4414 13.6309 52.3555 14.1191 54.1992 14.8828C56.8555 16.1719 56.8555 17.4609 54.1992 18.75C52.3555 19.5137 50.4414 20.0019 48.457 20.2148C48.6132 17.9493 48.6132 15.6836 48.457 13.418Z" fill="#031555"/>
<path opacity="0.987" fill-rule="evenodd" clip-rule="evenodd" d="M6.50391 14.9414C10.8791 14.9219 15.2541 14.9414 19.6289 15C21.0938 15.3711 22.0117 16.2891 22.3828 17.7539C23.5982 27.2804 19.438 31.3234 9.90235 29.8828C6.57623 29.174 4.52544 27.1622 3.75 23.8477C3.67187 21.8165 3.67187 19.7851 3.75 17.7539C4.14246 16.2873 5.06044 15.3498 6.50391 14.9414ZM12.4805 20.6836C14.5037 20.6551 15.1873 21.5926 14.5313 23.4961C13.7987 24.2591 12.9588 24.3958 12.0117 23.9063C11.2487 23.1737 11.112 22.3338 11.6016 21.3867C11.8493 21.0796 12.1423 20.8452 12.4805 20.6836Z" fill="#031555"/>
<path opacity="0.948" fill-rule="evenodd" clip-rule="evenodd" d="M30.293 19.8633C32.6211 21.0023 35.0821 21.725 37.6758 22.0312C38.0367 23.6899 38.4469 25.3501 38.9062 27.0117C39.215 27.8634 39.5862 28.6838 40.0195 29.4727C39.9609 29.5117 39.9023 29.5508 39.8438 29.5898C34.7838 28.1823 31.6002 24.9401 30.293 19.8633Z" fill="#031555"/>
<path opacity="0.95" fill-rule="evenodd" clip-rule="evenodd" d="M55.6055 19.8633C55.7223 19.8598 55.8005 19.9184 55.8398 20.0391C54.4532 25.0196 51.2695 28.2032 46.2891 29.5899C46.2305 29.5508 46.1719 29.5117 46.1133 29.4727C47.2706 27.1886 47.9932 24.7667 48.2812 22.2071C48.3398 22.1485 48.3984 22.0899 48.457 22.0313C50.7353 21.7743 52.9228 21.1883 55.0195 20.2735C55.2638 20.1918 55.4591 20.055 55.6055 19.8633Z" fill="#031555"/>
<path opacity="0.954" fill-rule="evenodd" clip-rule="evenodd" d="M39.668 22.207C41.9336 22.5196 44.1993 22.5196 46.4648 22.207C46.2519 24.1914 45.7637 26.1055 45 27.9492C43.7109 30.6055 42.4219 30.6055 41.1328 27.9492C40.3691 26.1055 39.8809 24.1914 39.668 22.207Z" fill="#031555"/>
<path opacity="0.991" fill-rule="evenodd" clip-rule="evenodd" d="M28.3008 29.9414C33.3475 29.5058 37.1951 31.4199 39.8437 35.6836C40.1469 36.231 40.4007 36.7975 40.6055 37.3828C45.9619 37.4674 49.2627 40.1042 50.5078 45.293C50.9727 50.0489 49.0781 53.4669 44.8242 55.5469C41.5399 56.7141 38.454 56.3431 35.5664 54.4336C32.5848 56.3896 29.4207 56.7216 26.0742 55.4297C25.4839 55.0957 24.898 54.7637 24.3164 54.4336C21.4288 56.3431 18.3429 56.7141 15.0586 55.5469C11.3411 53.8371 9.427 50.927 9.31641 46.8164C9.427 42.7058 11.3411 39.7957 15.0586 38.086C16.4135 37.5494 17.8198 37.315 19.2773 37.3828C20.9645 33.2928 23.9723 30.8122 28.3008 29.9414Z" fill="#031555"/>
</svg>
