<svg width="60" height="60" viewBox="0 0 60 60" fill="none" xmlns="http://www.w3.org/2000/svg">
<path opacity="0.982" fill-rule="evenodd" clip-rule="evenodd" d="M38.7304 2.75403C42.7288 2.41854 45.639 4.02011 47.4609 7.55871C47.988 8.76689 48.2028 10.0169 48.1054 11.3087C48.157 11.6267 48.3133 11.8806 48.5742 12.0704C52.9404 12.2967 55.5772 14.5427 56.4843 18.8087C56.794 22.6632 55.212 25.4172 51.7382 27.0704C50.2553 27.5528 48.7319 27.7286 47.1679 27.5978C47.224 27.0809 47.1459 26.5925 46.9335 26.1329C46.2305 25.9105 45.5274 25.6957 44.8242 25.4884C44.6288 25.0197 44.4336 24.5509 44.2382 24.0822C44.5702 23.5744 44.9023 23.0665 45.2343 22.5587C45.3125 22.3634 45.3125 22.1681 45.2343 21.9728C44.3682 20.8916 43.3721 19.9541 42.246 19.1603C41.7224 19.4693 41.2145 19.8013 40.7226 20.1564C40.0835 20.1259 39.4779 19.9501 38.9062 19.629C38.8039 18.9207 38.6281 18.2371 38.3788 17.5782C37.6683 17.4463 36.9458 17.3877 36.2109 17.4025C35.5663 17.422 34.9218 17.4415 34.2773 17.4611C34.1797 17.5587 34.0819 17.6564 33.9843 17.754C33.8575 18.3886 33.7013 19.0137 33.5156 19.629C32.9924 19.9729 32.4261 20.1486 31.8163 20.1564C31.2851 19.7933 30.7382 19.4613 30.1757 19.1603C29.1657 19.9943 28.2086 20.8928 27.3046 21.8556C27.2299 21.9855 27.1713 22.1222 27.1288 22.2657C27.4127 22.8231 27.7448 23.3504 28.1249 23.8478C28.1172 24.4575 27.9414 25.0239 27.5976 25.547C26.9822 25.7327 26.3572 25.8889 25.7226 26.0157C25.625 26.1134 25.5272 26.2111 25.4296 26.3087C25.3712 26.7367 25.3517 27.1663 25.371 27.5978C23.6909 27.6173 22.0112 27.5978 20.332 27.5392C17.0779 26.5874 15.6521 24.4194 16.0546 21.0353C16.8642 18.275 18.7196 16.8102 21.621 16.6407C21.7187 16.5431 21.8164 16.4454 21.914 16.3478C21.3885 13.475 22.3455 11.268 24.7851 9.72668C27.0272 8.90032 29.0585 9.25189 30.8788 10.7814C31.129 10.8557 31.3634 10.8167 31.582 10.6642C32.1932 6.40169 34.576 3.76497 38.7304 2.75403ZM39.6679 3.9259C43.0783 4.03646 45.4025 5.67708 46.6406 8.84778C46.8755 9.66694 46.5826 9.99898 45.7617 9.84387C44.7993 6.90018 42.768 5.29862 39.6679 5.03918C39.3649 4.66875 39.3649 4.29767 39.6679 3.9259Z" fill="#031555"/>
<path opacity="0.933" fill-rule="evenodd" clip-rule="evenodd" d="M35.0976 18.6914C35.8789 18.6914 36.6601 18.6914 37.4414 18.6914C37.5311 19.1991 37.6289 19.707 37.7343 20.2148C37.7888 20.3825 37.8866 20.5192 38.0273 20.625C38.8357 21.039 39.6756 21.3711 40.5468 21.6211C41.1347 21.415 41.662 21.1024 42.1289 20.6836C42.7326 21.2288 43.3186 21.7951 43.8867 22.3828C43.4853 22.9007 43.1338 23.4475 42.832 24.0234C43.2016 24.9577 43.6312 25.856 44.1211 26.7188C44.6668 26.863 45.2137 26.9998 45.7617 27.1289C45.8785 27.9063 45.9175 28.6875 45.8789 29.4727C45.2341 29.5547 44.6091 29.7109 44.0039 29.9414C43.5795 30.8037 43.189 31.6826 42.832 32.5781C43.1338 33.1541 43.4853 33.7009 43.8867 34.2188C43.3203 34.7851 42.7538 35.3516 42.1875 35.918C41.6605 35.5372 41.1137 35.1857 40.5468 34.8633C39.7138 35.2257 38.8739 35.5773 38.0273 35.918C37.6999 36.5367 37.5045 37.2008 37.4414 37.9102C36.6562 37.9488 35.875 37.9098 35.0976 37.793C34.9685 37.245 34.8317 36.6981 34.6875 36.1523C33.8247 35.6625 32.9264 35.2329 31.9922 34.8633C31.4162 35.165 30.8694 35.5166 30.3515 35.918C29.7638 35.3498 29.1975 34.7639 28.6523 34.1602C29.0121 33.6546 29.3246 33.1273 29.5898 32.5781C29.3041 31.7213 28.9721 30.8815 28.5937 30.0586C28.4879 29.9179 28.3513 29.8201 28.1836 29.7656C27.6757 29.6602 27.1678 29.5624 26.6601 29.4727C26.6407 28.6904 26.6601 27.9091 26.7187 27.1289C27.2846 27.0077 27.8511 26.871 28.4179 26.7188C28.9999 25.7924 29.3709 24.7963 29.5312 23.7305C29.3259 23.3588 29.0915 23.0072 28.8281 22.6758C28.713 22.5282 28.674 22.372 28.7109 22.207C29.2204 21.6779 29.7478 21.17 30.2929 20.6836C30.8193 21.0736 31.3857 21.3861 31.9922 21.6211C32.9434 21.3434 33.8418 20.9528 34.6875 20.4492C34.8175 19.8568 34.9542 19.2709 35.0976 18.6914ZM35.2148 22.3242C38.9961 22.1045 41.3203 23.8233 42.1875 27.4805C42.3446 31.1309 40.6454 33.377 37.0898 34.2188C33.5298 34.4075 31.2836 32.7865 30.3515 29.3555C30.0716 25.6741 31.6926 23.3304 35.2148 22.3242Z" fill="#031555"/>
<path opacity="0.971" fill-rule="evenodd" clip-rule="evenodd" d="M35.2149 23.6134C37.9778 23.3036 39.8332 24.4365 40.7813 27.0118C41.3055 29.8442 40.2313 31.7778 37.5586 32.8126C34.574 33.3621 32.6014 32.2098 31.6406 29.3555C31.2919 26.4555 32.4833 24.5415 35.2149 23.6134Z" fill="#031555"/>
<path opacity="0.981" fill-rule="evenodd" clip-rule="evenodd" d="M18.1055 41.4257C19.0438 41.4063 19.9813 41.4257 20.918 41.4843C25.5872 42.0948 30.2747 42.4855 34.9805 42.6562C37.4655 42.882 38.2663 44.1515 37.3828 46.4648C36.7583 47.1386 35.9966 47.5879 35.0976 47.8125C34.1729 48.0447 33.2354 48.2009 32.2851 48.2812C29.7547 48.3863 27.2352 48.3277 24.7266 48.1054C24.0766 48.3412 23.94 48.7514 24.3164 49.3359C25.1275 49.4788 25.9478 49.5569 26.7773 49.5703C28.6914 49.6484 30.6055 49.6484 32.5195 49.5703C34.1746 49.469 35.7371 49.0394 37.207 48.2812C37.7539 47.8906 38.2227 47.4219 38.6133 46.875C40.665 46.4011 42.6962 45.8543 44.707 45.2343C47.5526 44.2728 50.4041 43.3353 53.2617 42.4218C54.2711 42.2455 55.2867 42.2063 56.3086 42.3047C57.7073 42.5807 58.2347 43.4205 57.8906 44.8242C56.2905 45.9077 54.5913 46.8257 52.793 47.5781C46.5683 50.2412 40.3574 52.9365 34.1601 55.664C31.7037 56.8632 29.1255 57.2538 26.4258 56.8359C22.5671 56.2254 18.7 55.6784 14.8242 55.1953C13.2618 55.1171 11.6992 55.1171 10.1367 55.1953C9.26562 55.2689 8.40625 55.4056 7.55859 55.6054C7.44141 51.5437 7.40235 47.4812 7.4414 43.4179C8.74223 43.3971 10.0313 43.2604 11.3086 43.0078C13.5812 42.4393 15.8469 41.912 18.1055 41.4257Z" fill="#031555"/>
<path opacity="0.97" fill-rule="evenodd" clip-rule="evenodd" d="M2.05074 42.3633C3.34038 42.3437 4.62945 42.3633 5.91792 42.4219C5.97652 42.4805 6.03511 42.5391 6.0937 42.5977C6.17183 47.3633 6.17183 52.1289 6.0937 56.8945C6.03511 56.9531 5.97652 57.0117 5.91792 57.0703C4.60037 57.1664 3.29177 57.1469 1.99214 57.0117C1.89522 52.1206 1.91475 47.2378 2.05074 42.3633Z" fill="#031555"/>
</svg>
