<svg width="60" height="60" viewBox="0 0 60 60" fill="none" xmlns="http://www.w3.org/2000/svg">
<path opacity="0.99" fill-rule="evenodd" clip-rule="evenodd" d="M22.4414 6.03516C26.7335 5.6522 30.0343 7.25375 32.3437 10.8399C32.9522 11.9425 33.3623 13.1143 33.5742 14.3555C36.0584 14.9453 37.6405 16.4687 38.3203 18.9258C38.8281 22.6584 37.285 25.0608 33.6914 26.1328C26.4257 26.211 19.1601 26.211 11.8945 26.1328C8.57095 25.3873 6.5983 23.3365 5.97653 19.9805C5.70764 16.0439 7.40686 13.3682 11.0742 11.9531C11.4597 11.8498 11.8503 11.7717 12.2461 11.7188C13.1507 11.6953 14.0492 11.6757 14.9414 11.6602C16.5425 8.57319 19.0425 6.69819 22.4414 6.03516Z" fill="#031555"/>
<path opacity="0.968" fill-rule="evenodd" clip-rule="evenodd" d="M42.9493 9.19927C46.2831 9.15637 48.6465 10.6407 50.0391 13.6524C50.1746 14.077 50.2918 14.5066 50.3907 14.9415C50.4297 16.8946 50.4688 18.8477 50.5079 20.8008C51.5468 19.5916 52.7187 19.4352 54.0235 20.3321C54.674 21.2013 54.713 22.0996 54.1407 23.0274C52.5944 24.6128 51.0123 26.1558 49.3946 27.6563C48.6745 27.9124 47.9713 27.8733 47.2852 27.5391C45.6606 25.9537 44.0786 24.3326 42.5391 22.6758C42.0905 20.5854 42.9304 19.6284 45.0586 19.8047C45.5576 19.9669 45.9678 20.2599 46.2891 20.6836C46.3673 18.9649 46.3673 17.2462 46.2891 15.5274C46.0522 14.6424 45.5248 13.9979 44.7071 13.5938C43.9184 13.4174 43.1371 13.2221 42.3633 13.0079C41.3951 12.2333 41.1802 11.2762 41.7188 10.1368C42.0534 9.70192 42.4635 9.38942 42.9493 9.19927Z" fill="#031555"/>
<path opacity="0.964" fill-rule="evenodd" clip-rule="evenodd" d="M11.3086 30.7617C11.8616 30.8134 12.3694 30.9892 12.832 31.2891C14.2187 32.6757 15.6055 34.0625 16.9922 35.4492C17.6881 36.4223 17.6881 37.399 16.9922 38.3789C15.7167 39.2745 14.5838 39.1182 13.5937 37.9102C13.5156 39.668 13.5156 41.4258 13.5937 43.1836C13.819 43.8785 14.2291 44.4449 14.8242 44.8828C15.7558 45.1751 16.6933 45.4486 17.6367 45.7031C18.7304 46.836 18.7304 47.9687 17.6367 49.1016C17.246 49.3062 16.8358 49.4429 16.4062 49.5117C12.7511 49.2154 10.4464 47.3013 9.49216 43.7695C9.45311 41.8164 9.41404 39.8633 9.37498 37.9102C8.15368 39.2647 6.90369 39.3039 5.62498 38.0273C5.18763 37.12 5.26575 36.2605 5.85935 35.4492C7.28852 33.9809 8.75337 32.5552 10.2539 31.1719C10.6006 30.9839 10.9522 30.8471 11.3086 30.7617Z" fill="#031555"/>
<path opacity="0.99" fill-rule="evenodd" clip-rule="evenodd" d="M37.9102 33.6914C42.7887 33.3071 46.2849 35.2993 48.3985 39.6679C48.7054 40.4657 48.9202 41.2861 49.043 42.1289C51.7405 42.6975 53.3616 44.3381 53.9063 47.0507C54.1915 50.0162 53.0001 52.1451 50.332 53.4375C49.9484 53.5783 49.5578 53.6955 49.1602 53.789C41.8945 53.8672 34.6289 53.8672 27.3633 53.789C24.0099 52.9357 22.0371 50.8067 21.4453 47.4023C21.2544 43.8567 22.7583 41.3372 25.957 39.8437C26.5637 39.6139 27.1887 39.4577 27.832 39.375C28.6976 39.3538 29.557 39.3343 30.4102 39.3164C32.0107 36.2301 34.5107 34.3551 37.9102 33.6914Z" fill="#031555"/>
</svg>
