<svg width="141" height="140" viewBox="0 0 141 140" fill="none" xmlns="http://www.w3.org/2000/svg">
<rect x="0.5" width="140" height="140" rx="70" fill="#E3E6ED"/>
<path opacity="0.962" fill-rule="evenodd" clip-rule="evenodd" d="M92.9424 41.934C96.3774 41.7946 97.9594 43.4352 97.6885 46.8558C96.6334 49.4531 94.7584 50.3125 92.0635 49.434C88.7101 52.2009 85.3898 55.0134 82.1025 57.8715C82.5775 60.1443 81.7766 61.8045 79.7002 62.8519C77.6683 63.4506 76.0471 62.8843 74.8369 61.1527C74.5206 60.5671 74.3448 59.9422 74.3096 59.2777C71.4685 58.3372 68.6365 57.3606 65.8135 56.348C65.1477 56.9252 64.386 57.3353 63.5283 57.5785C62.9814 57.6567 62.4346 57.6567 61.8877 57.5785C61.5351 57.458 61.1835 57.3799 60.833 57.3441C57.2198 60.4886 53.6064 63.6332 49.9932 66.7777C50.5819 69.37 49.6248 71.1083 47.1221 71.9926C43.6844 72.1877 42.1023 70.5665 42.376 67.1293C43.1014 64.9781 44.6053 64.021 46.8877 64.2582C47.3186 64.3788 47.7483 64.4569 48.1767 64.4926C51.7162 61.3045 55.2904 58.1599 58.8994 55.059C58.4486 53.2919 58.8978 51.7879 60.2471 50.5472C61.7217 49.6235 63.2452 49.5453 64.8174 50.3129C65.9294 51.1298 66.5933 52.2236 66.8096 53.5941C69.6612 54.5446 72.4933 55.5407 75.3057 56.5824C76.6562 55.1662 78.2383 54.8537 80.0517 55.6449C83.3698 52.8543 86.6705 50.0419 89.9541 47.2074C89.5002 44.597 90.4963 42.8392 92.9424 41.934Z" fill="#031555"/>
<path opacity="0.991" fill-rule="evenodd" clip-rule="evenodd" d="M90.3633 57.4019C92.7074 57.3823 95.0512 57.4019 97.3946 57.4605C97.925 57.6783 98.296 58.0495 98.5078 58.5737C98.586 70.9566 98.586 83.3393 98.5078 95.7222C98.282 96.2997 97.8719 96.6707 97.2774 96.8355C95.0118 96.9136 92.7461 96.9136 90.4805 96.8355C89.8083 96.6712 89.3591 96.261 89.1328 95.605C89.0547 83.3003 89.0547 70.9956 89.1328 58.6909C89.3302 58.0445 89.7403 57.6149 90.3633 57.4019Z" fill="#031555"/>
<path opacity="0.979" fill-rule="evenodd" clip-rule="evenodd" d="M59.3086 66.5425C61.5746 66.5229 63.8403 66.5425 66.1055 66.6011C66.841 66.8287 67.2903 67.317 67.4532 68.0659C67.5313 77.4409 67.5313 86.8159 67.4532 96.1909C67.2489 96.8249 66.8387 97.2742 66.2227 97.5386C63.8789 97.6168 61.5352 97.6168 59.1914 97.5386C58.5354 97.3123 58.1253 96.8631 57.961 96.1909C57.8828 86.7769 57.8828 77.3628 57.961 67.9487C58.1976 67.2632 58.6467 66.7945 59.3086 66.5425Z" fill="#031555"/>
<path opacity="0.978" fill-rule="evenodd" clip-rule="evenodd" d="M74.8946 71.6987C77.1605 71.6792 79.4262 71.6987 81.6914 71.7573C82.4227 71.9809 82.8719 72.4693 83.0391 73.2222C83.1173 80.7222 83.1173 88.2222 83.0391 95.7222C82.8762 96.4711 82.4269 96.9594 81.6914 97.187C79.4258 97.2652 77.1601 97.2652 74.8946 97.187C74.1719 97.0112 73.7227 96.5621 73.5469 95.8394C73.4687 88.2612 73.4687 80.6832 73.5469 73.105C73.7835 72.4195 74.2327 71.9507 74.8946 71.6987Z" fill="#031555"/>
<path opacity="0.976" fill-rule="evenodd" clip-rule="evenodd" d="M43.8393 81.6597C46.0272 81.6401 48.2147 81.6597 50.4018 81.7183C51.0156 81.8237 51.4648 82.1559 51.7495 82.7144C51.9427 87.3168 51.9818 91.9261 51.8667 96.5425C51.7589 97.0919 51.466 97.502 50.9878 97.773C48.5344 97.9642 46.0734 98.0034 43.605 97.8902C43.1024 97.7069 42.7313 97.3749 42.4917 96.8941C42.2992 92.3293 42.2601 87.7589 42.3745 83.1831C42.5716 82.3807 43.0599 81.873 43.8393 81.6597Z" fill="#031555"/>
</svg>
