<svg width="54" height="54" viewBox="0 0 54 54" fill="none" xmlns="http://www.w3.org/2000/svg">
<g opacity="0.984">
<path fill-rule="evenodd" clip-rule="evenodd" d="M54 14.7451C54 15.0719 54 15.3987 54 15.7255C36 15.7255 18 15.7255 0 15.7255C0 15.3987 0 15.0719 0 14.7451C0.359285 13.4464 1.13272 12.4841 2.32031 11.8584C10.0547 8.66303 17.7891 5.46768 25.5234 2.27233C26.5078 1.90922 27.4922 1.90922 28.4766 2.27233C36.486 5.54998 44.4665 8.89058 52.418 12.2941C53.2008 12.9526 53.7281 13.7696 54 14.7451Z" fill="#031555"/>
<path fill-rule="evenodd" clip-rule="evenodd" d="M0 21.1721C18 21.1721 36 21.1721 54 21.1721C54 22.4066 54 23.6413 54 24.8758C53.5338 26.1197 52.6549 26.7733 51.3633 26.8366C51.3633 33.3363 51.3633 39.8358 51.3633 46.3355C52.6591 46.4044 53.5379 47.058 54 48.2963C54 48.8409 54 49.3856 54 49.9303C53.6452 51.0405 52.9069 51.7123 51.7852 51.9455C35.2617 52.0182 18.7383 52.0182 2.21484 51.9455C1.09306 51.7123 0.354779 51.0405 0 49.9303C0 49.3856 0 48.8409 0 48.2963C0.462037 47.058 1.34094 46.4044 2.63672 46.3355C2.63672 39.8358 2.63672 33.3363 2.63672 26.8366C1.34513 26.7733 0.466217 26.1197 0 24.8758C0 23.6413 0 22.4066 0 21.1721ZM10.8633 26.8366C12.6211 26.8366 14.3789 26.8366 16.1367 26.8366C16.1367 33.3363 16.1367 39.8358 16.1367 46.3355C14.3789 46.3355 12.6211 46.3355 10.8633 46.3355C10.8633 39.8358 10.8633 33.3363 10.8633 26.8366ZM24.3633 26.8366C26.1211 26.8366 27.8789 26.8366 29.6367 26.8366C29.6367 33.3363 29.6367 39.8358 29.6367 46.3355C27.8789 46.3355 26.1211 46.3355 24.3633 46.3355C24.3633 39.8358 24.3633 33.3363 24.3633 26.8366ZM37.8633 26.8366C39.6211 26.8366 41.3789 26.8366 43.1367 26.8366C43.1367 33.3363 43.1367 39.8358 43.1367 46.3355C41.3789 46.3355 39.6211 46.3355 37.8633 46.3355C37.8633 39.8358 37.8633 33.3363 37.8633 26.8366Z" fill="#031555"/>
</g>
</svg>
