<svg width="194" height="194" viewBox="0 0 194 194" fill="none" xmlns="http://www.w3.org/2000/svg">
<g clip-path="url(#clip0_1_609)">
<g opacity="0.926">
<path fill-rule="evenodd" clip-rule="evenodd" d="M193.312 103.731C193.312 107.501 193.312 111.27 193.312 115.04C189.233 137.024 176.165 150.029 154.108 154.055C142.654 155.081 131.471 153.825 120.56 150.285C115.461 147.484 110.184 145.097 104.728 143.123C97.5078 141.697 90.4712 142.325 83.6182 145.008C72.3789 151.807 60.1909 154.885 47.0537 154.243C26.6577 154.26 12.145 145.088 3.51562 126.726C2.02546 122.896 0.957425 119.001 0.311523 115.04C0.311523 111.396 0.311523 107.752 0.311523 104.108C1.64417 94.7735 5.4137 86.5435 11.6201 79.4179C15.0675 78.2203 16.6382 79.4138 16.332 82.999C4.86146 97.2459 3.22799 112.575 11.4316 128.987C21.0519 143.815 34.6851 150.035 52.3311 147.646C69.6509 143.394 80.0171 132.526 83.4297 115.04C84.9978 96.014 77.2703 82.2553 60.2471 73.7636C50.7908 69.8852 41.2415 69.6337 31.5986 73.0097C28.3941 74.519 25.19 75.9639 21.9863 77.3447C19.5117 77.0541 18.6322 75.6718 19.3477 73.1982C20.0129 72.0775 20.9553 71.2607 22.1748 70.748C30.2644 66.3067 38.9341 64.1709 48.1846 64.3398C52.2508 63.4381 55.7692 61.5534 58.7393 58.6855C62.784 54.3886 67.056 50.3677 71.5557 46.623C82.6871 39.4846 94.7496 37.3487 107.743 40.2148C114.53 41.9744 120.561 45.1156 125.837 49.6386C129.492 53.4195 133.261 57.0635 137.146 60.5703C139.621 62.4362 142.386 63.6926 145.438 64.3398C163.072 64.1396 176.83 71.2388 186.715 85.6377C190.082 91.2818 192.281 97.313 193.312 103.731ZM116.79 141.427C103.471 134.39 90.1519 134.39 76.833 141.427C91.4056 124.829 93.7303 106.61 83.8066 86.7685C77.7788 76.9734 69.2973 70.2508 58.3623 66.6015C63.2246 62.8719 67.7481 58.7255 71.9326 54.1621C83.8719 44.7401 97.0652 42.6039 111.513 47.7539C115.223 49.4185 118.616 51.5547 121.69 54.1621C125.875 58.7255 130.398 62.8719 135.261 66.6015C119.416 72.1424 109.301 83.011 104.916 99.208C101.724 115.346 105.682 129.42 116.79 141.427ZM146.569 70.5595C162.709 70.5765 174.834 77.4875 182.945 91.2919C190.776 108.58 188.2 124.098 175.218 137.846C164 147.623 151.184 150.513 136.769 146.516C119.842 139.948 110.795 127.571 109.628 109.386C111.146 90.9697 120.57 78.5932 137.899 72.2558C140.811 71.5208 143.7 70.9553 146.569 70.5595Z" fill="#031555"/>
<path fill-rule="evenodd" clip-rule="evenodd" d="M94.5498 53.2197C102.897 52.9596 106.855 56.9802 106.424 65.2822C103.384 72.5495 98.2956 74.4972 91.1572 71.125C86.6364 67.2035 85.8196 62.6171 88.707 57.3662C90.2484 55.374 92.1961 53.9917 94.5498 53.2197ZM95.6807 59.2509C93.2912 60.5118 92.6002 62.3966 93.6074 64.9052C95.7436 67.4184 97.8794 67.4184 100.016 64.9052C100.958 61.2556 99.5128 59.3708 95.6807 59.2509Z" fill="#031555"/>
<path fill-rule="evenodd" clip-rule="evenodd" d="M41.7764 78.4755C59.336 78.1393 70.519 86.3697 75.3252 103.166C77.6747 119.395 71.518 131.08 56.8545 138.223C41.7123 143.268 29.2099 139.561 19.3477 127.103C11.7246 114.122 12.3529 101.557 21.2324 89.4072C26.7535 83.2233 33.6015 79.5793 41.7764 78.4755ZM42.5303 84.5068C32.1535 86.2144 25.0542 91.9946 21.2324 101.847C18.3671 112.977 21.3199 122.212 30.0908 129.553C40.0194 136.337 49.9457 136.337 59.8701 129.553C69.6796 121.163 72.2553 110.922 67.5977 98.831C62.2408 88.9024 53.8849 84.1276 42.5303 84.5068Z" fill="#031555"/>
<path fill-rule="evenodd" clip-rule="evenodd" d="M145.815 78.4755C160.505 78.1197 170.997 84.5279 177.291 97.7002C182.335 112.845 178.629 125.347 166.171 135.207C154.993 141.981 143.685 142.232 132.245 135.961C119.847 127.296 115.386 115.547 118.863 100.716C120.073 96.5983 122.021 92.8914 124.706 89.5957C128.216 87.8621 129.913 88.93 129.795 92.7998C120.844 105.355 121.661 117.229 132.245 128.422C142.431 136.038 152.86 136.415 163.532 129.553C172.98 121.561 175.681 111.698 171.637 99.9619C166.998 90.2429 159.27 85.0911 148.454 84.5068C143.889 84.7511 139.554 85.8819 135.449 87.8994C132.84 87.2039 132.023 85.5706 132.999 82.999C136.955 80.5081 141.227 79.0003 145.815 78.4755Z" fill="#031555"/>
</g>
</g>
<defs>
<clipPath id="clip0_1_609">
<rect width="193" height="193" fill="white" transform="translate(0.5 0.257812)"/>
</clipPath>
</defs>
</svg>
