<svg width="335" height="770" viewBox="0 0 335 770" fill="none" xmlns="http://www.w3.org/2000/svg">
<path opacity="0.4" d="M-120 0.354492C-138.565 0.354492 -156.37 9.35937 -169.497 25.3882C-182.625 41.417 -190 63.1567 -190 85.8248V256.765C-190 279.434 -197.375 301.173 -210.503 317.202C-223.63 333.231 -241.435 342.236 -260 342.236H-295V427.706H-260C-241.435 427.706 -223.63 436.711 -210.503 452.74C-197.375 468.768 -190 490.508 -190 513.176V684.117C-190 706.785 -182.625 728.525 -169.497 744.553C-156.37 760.582 -138.565 769.587 -120 769.587H-50V684.117H-120V470.441C-120 447.773 -127.375 426.033 -140.503 410.005C-153.63 393.976 -171.435 384.971 -190 384.971C-171.435 384.971 -153.63 375.966 -140.503 359.937C-127.375 343.908 -120 322.169 -120 299.501V85.8248H-50V0.354492M160 0.354492C178.565 0.354492 196.37 9.35937 209.497 25.3882C222.625 41.417 230 63.1567 230 85.8248V256.765C230 279.434 237.375 301.173 250.503 317.202C263.63 333.231 281.435 342.236 300 342.236H335V427.706H300C281.435 427.706 263.63 436.711 250.503 452.74C237.375 468.768 230 490.508 230 513.176V684.117C230 706.785 222.625 728.525 209.497 744.553C196.37 760.582 178.565 769.587 160 769.587H90V684.117H160V470.441C160 447.773 167.375 426.033 180.503 410.005C193.63 393.976 211.435 384.971 230 384.971C211.435 384.971 193.63 375.966 180.503 359.937C167.375 343.908 160 322.169 160 299.501V85.8248H90V0.354492H160Z" fill="#E3E6ED"/>
</svg>
