<svg width="60" height="61" viewBox="0 0 60 61" fill="none" xmlns="http://www.w3.org/2000/svg">
<g opacity="0.981">
<path fill-rule="evenodd" clip-rule="evenodd" d="M29.7716 0.0035553C30.5531 -0.040363 30.9761 0.322608 31.0407 1.09247C31.1213 2.26205 31.1213 3.43161 31.0407 4.60119C30.7839 5.58772 30.1998 5.84986 29.2882 5.38763C29.2125 5.29683 29.1521 5.196 29.1069 5.08515C29.0263 3.5526 29.0263 2.02007 29.1069 0.487517C29.2882 0.249323 29.5097 0.0880017 29.7716 0.0035553Z" fill="white"/>
<path fill-rule="evenodd" clip-rule="evenodd" d="M20.1029 5.08515C20.501 5.05599 20.8636 5.15682 21.1906 5.38763C22.3006 6.43838 23.4286 7.4668 24.5747 8.47288C25.1144 9.83441 24.6712 10.3789 23.2452 10.1062C22.0928 8.99269 20.9044 7.92395 19.6799 6.90001C19.1986 6.14198 19.3397 5.53702 20.1029 5.08515Z" fill="white"/>
<path fill-rule="evenodd" clip-rule="evenodd" d="M39.3195 5.08515C40.5426 5.19498 40.885 5.79994 40.3468 6.90001C39.1223 7.92395 37.9339 8.99269 36.7815 10.1062C35.8944 10.4688 35.3303 10.1865 35.0894 9.25932C35.1499 9.07783 35.2103 8.89635 35.2707 8.71486C36.5718 7.43154 37.9214 6.22164 39.3195 5.08515Z" fill="white"/>
<path fill-rule="evenodd" clip-rule="evenodd" d="M8.37952 8.10991C8.79677 8.10365 9.05863 8.30531 9.16511 8.71486C9.78295 10.4144 10.4477 12.0881 11.1593 13.736C13.0911 13.8837 15.0249 14.0047 16.9605 14.0989C17.1811 14.2763 17.2415 14.4981 17.1418 14.7644C15.888 15.9056 14.5786 16.9743 13.2139 17.9706C12.9902 18.1744 12.7887 18.3961 12.6096 18.6361C13.0916 20.2836 13.5548 21.937 13.9995 23.5967C14.2493 24.5166 13.9472 24.7787 13.093 24.3831C11.6188 23.3713 10.1282 22.3831 8.62124 21.4188C7.05007 22.4473 5.4789 23.4757 3.90773 24.5041C3.60256 24.6125 3.34069 24.552 3.12214 24.3226C3.48709 22.5386 3.93024 20.764 4.4516 18.999C4.53217 18.7973 4.53217 18.5958 4.4516 18.3941C3.09656 17.239 1.70668 16.1299 0.281949 15.0669C-0.0286679 14.738 -0.0286679 14.4153 0.281949 14.0989C2.21799 14.0101 4.15174 13.8891 6.0832 13.736C6.83488 11.8488 7.60032 9.97345 8.37952 8.10991Z" fill="white"/>
<path fill-rule="evenodd" clip-rule="evenodd" d="M29.7716 8.10991C30.0402 8.07095 30.2618 8.1516 30.4364 8.35189C31.0946 10.1678 31.7995 11.9625 32.5514 13.736C34.4832 13.8837 36.417 14.0047 38.3526 14.0989C38.6122 14.35 38.6526 14.6323 38.4735 14.9459C36.9479 16.1099 35.4573 17.3198 34.0017 18.5756C34.5442 20.4254 35.0679 22.2805 35.5729 24.1411C35.4133 24.529 35.1314 24.65 34.7269 24.5041C33.1557 23.4757 31.5845 22.4473 30.0133 21.4188C28.4422 22.4473 26.871 23.4757 25.2998 24.5041C24.8953 24.65 24.6133 24.529 24.4538 24.1411C24.9588 22.2805 25.4824 20.4254 26.025 18.5756C24.5694 17.3198 23.0788 16.1099 21.5532 14.9459C21.3741 14.6323 21.4144 14.35 21.6741 14.0989C23.6101 14.0101 25.5438 13.8891 27.4753 13.736C28.2304 11.8502 28.9958 9.97484 29.7716 8.10991Z" fill="white"/>
<path fill-rule="evenodd" clip-rule="evenodd" d="M51.1637 8.10991C51.465 8.08923 51.6866 8.21022 51.8285 8.47288C52.4642 10.2624 53.1691 12.0167 53.9435 13.736C55.8753 13.8837 57.8091 14.0047 59.7447 14.0989C59.9653 14.2763 60.0257 14.4981 59.926 14.7644C58.6902 15.8364 57.4212 16.8648 56.119 17.8496C55.8099 18.0823 55.5682 18.3647 55.3938 18.6966C55.8665 20.3676 56.3297 22.0413 56.7837 23.7177C56.9574 24.5567 56.6552 24.7785 55.8772 24.3831C54.3768 23.38 52.866 22.3919 51.345 21.4188C49.7133 22.5472 48.0415 23.5958 46.3294 24.5646C46.1488 24.5393 46.0078 24.4586 45.9063 24.3226C46.2713 22.5386 46.7144 20.764 47.2358 18.999C47.3164 18.7973 47.3164 18.5958 47.2358 18.3941C45.8569 17.2705 44.467 16.1613 43.0662 15.0669C42.6081 14.7245 42.6081 14.4018 43.0662 14.0989C45.0022 14.0101 46.9359 13.8891 48.8674 13.736C49.5753 11.8307 50.3407 9.95539 51.1637 8.10991Z" fill="white"/>
<path fill-rule="evenodd" clip-rule="evenodd" d="M29.7716 27.4684C34.0891 27.7574 36.4659 30.0562 36.9023 34.3648C36.4995 38.5592 34.2032 40.858 30.0133 41.2613C25.8235 40.858 23.5272 38.5592 23.1244 34.3648C23.5081 30.2706 25.7238 27.9718 29.7716 27.4684Z" fill="white"/>
<path fill-rule="evenodd" clip-rule="evenodd" d="M9.10468 32.429C12.2949 32.3769 14.2084 33.9095 14.8455 37.0266C14.9132 40.0625 13.4829 41.9378 10.555 42.6527C7.51115 42.8738 5.55725 41.5228 4.69332 38.5995C4.35811 36.2266 5.18398 34.3917 7.17093 33.0944C7.80121 32.7834 8.4458 32.5616 9.10468 32.429Z" fill="white"/>
<path fill-rule="evenodd" clip-rule="evenodd" d="M49.5926 32.429C53.6151 32.5236 55.5287 34.5804 55.3334 38.5995C54.3422 41.8085 52.1869 43.1192 48.8674 42.5317C47.2756 42.0878 46.1676 41.0996 45.5438 39.5674C44.5779 35.8538 45.9274 33.4744 49.5926 32.429Z" fill="white"/>
<path fill-rule="evenodd" clip-rule="evenodd" d="M28.3213 42.3502C34.9554 41.9486 39.689 44.7314 42.5223 50.6985C43.5225 53.3578 43.6836 56.0598 43.0057 58.8049C42.3976 59.8564 41.4911 60.4814 40.2864 60.6802C33.4376 60.7609 26.589 60.7609 19.7403 60.6802C17.9878 60.3777 16.9605 59.3493 16.6584 57.595C16.1517 50.722 19.0322 45.9026 25.2998 43.1366C26.308 42.8138 27.3153 42.5517 28.3213 42.3502Z" fill="white"/>
<path fill-rule="evenodd" clip-rule="evenodd" d="M9.3464 43.9231C12.4241 43.9018 15.0226 44.9907 17.1418 47.1898C17.2224 47.3108 17.2224 47.4318 17.1418 47.5528C15.8972 49.516 15.1318 51.6535 14.8455 53.9653C10.4428 54.106 6.03138 54.126 1.6114 54.0257C0.268636 53.4833 -0.234943 52.4952 0.10066 51.0615C1.67137 46.7166 4.75329 44.3371 9.3464 43.9231Z" fill="white"/>
<path fill-rule="evenodd" clip-rule="evenodd" d="M49.7134 43.9231C54.422 43.9483 57.7456 46.0859 59.6843 50.3355C60.2656 51.6585 60.0441 52.8079 59.0196 53.7838C58.8278 53.8881 58.6263 53.9688 58.4153 54.0257C54.0241 54.1064 49.6328 54.1064 45.2416 54.0257C44.9116 51.7038 44.126 49.5462 42.8849 47.5528C42.8043 47.4318 42.8043 47.3108 42.8849 47.1898C44.7513 45.23 47.0274 44.1411 49.7134 43.9231Z" fill="white"/>
</g>
</svg>
