<svg width="97" height="90" viewBox="0 0 97 90" fill="none" xmlns="http://www.w3.org/2000/svg">
<mask id="mask0_1270_15074" style="mask-type:luminance" maskUnits="userSpaceOnUse" x="9" y="8" width="74" height="74">
<path d="M46.0372 81.8224C38.7544 81.8224 31.6352 79.6628 25.5798 75.6167C19.5244 71.5706 14.8048 65.8198 12.0178 59.0914C9.2308 52.363 8.50159 44.9592 9.92239 37.8164C11.3432 30.6736 14.8502 24.1125 19.9999 18.9628C25.1496 13.8131 31.7107 10.3061 38.8535 8.88528C45.9963 7.46448 53.4001 8.19369 60.1285 10.9807C66.8569 13.7677 72.6077 18.4873 76.6538 24.5427C80.6999 30.5981 82.8595 37.7173 82.8595 45.0001C82.8565 54.765 78.976 64.1292 72.0712 71.0341C65.1663 77.9389 55.8021 81.8194 46.0372 81.8224Z" fill="white"/>
</mask>
<g mask="url(#mask0_1270_15074)">
<path d="M84.0319 7.01587H8.04102V82.9954H84.0319V7.01587Z" fill="#031555"/>
<path d="M96.7198 84.1913C89.2141 82.0614 71.0023 61.902 62.3918 57.9954C53.7813 54.0888 48.508 58.9521 38.4738 65.9681C28.4396 72.984 0 84.1913 0 84.1913H96.7198Z" fill="#48A37A"/>
<g opacity="0.75">
<path d="M41.9241 42.7788C41.8671 42.8814 41.7532 42.9155 41.6621 42.9725L41.5254 43.075L41.366 43.1661C41.366 43.2344 41.0812 43.3939 40.9901 43.4736C40.8813 43.5625 40.7629 43.6389 40.637 43.7014C40.637 43.7583 40.637 43.7014 40.637 43.7697C40.5444 43.8487 40.4408 43.914 40.3295 43.9634C40.2709 44.0385 40.1972 44.1006 40.1131 44.1456L39.8625 44.305C39.7224 44.4207 39.5695 44.52 39.407 44.6012C39.407 44.6581 39.3272 44.6923 39.2475 44.7492L39.0539 44.8859C37.7213 45.8768 37.6416 46.3324 37.5733 48.1661C37.5733 48.6672 37.4138 50.444 37.4594 50.7515C37.466 50.9346 37.5233 51.1123 37.6249 51.2648C37.7265 51.4173 37.8684 51.5386 38.0348 51.6153C38.2012 51.692 38.3856 51.7211 38.5675 51.6993C38.7494 51.6775 38.9217 51.6057 39.0653 51.4918C39.1676 51.4295 39.2535 51.3436 39.3159 51.2413C40.0562 50.2276 39.407 47.5397 40.1473 46.8677C40.7034 46.3841 41.2976 45.9461 41.9241 45.5579C41.9241 46.2071 41.9241 47.0613 41.9241 47.7333C41.9241 48.4053 41.9241 49.2253 41.9241 50.0112C41.9031 50.7054 41.9527 51.3999 42.0721 52.0841C42.2885 52.8586 42.0721 53.075 41.8557 53.9292C41.2748 56.3438 40.7168 58.7583 40.1245 61.116C39.8593 61.6988 39.8108 62.3571 39.9878 62.9725C40.3865 63.7014 41.9468 64.3278 42.4707 62.4372C42.6302 61.8563 42.7555 61.2982 42.9035 60.649C43.3705 58.7811 44.3272 55.3073 44.6575 53.4508L47.3113 54.5898C47.3113 55.4782 47.1632 56.526 47.0949 57.4372C47.0039 57.8817 47.0682 58.3441 47.2771 58.747C47.3958 58.9071 47.5503 59.0373 47.7283 59.1269C47.9063 59.2166 48.1029 59.2633 48.3022 59.2633C48.5015 59.2633 48.6981 59.2166 48.8761 59.1269C49.0541 59.0373 49.2086 58.9071 49.3272 58.747C49.7714 58.2458 49.6575 56.9132 49.7373 56.0818C49.7373 55.6148 49.8398 55.1137 49.8739 54.6467C49.9651 52.7675 49.4184 52.608 47.9377 51.9702C47.2223 51.6722 46.5262 51.3298 45.8534 50.9451C45.3181 50.6034 45.4092 50.649 45.4092 49.8631C45.4092 48.8381 45.4092 47.813 45.4776 46.7993C45.8193 47.0499 46.3318 48.0522 47.0607 48.3939C47.9077 48.668 48.7764 48.87 49.6575 48.9975C50.0992 49.1351 50.5641 49.1816 51.0243 49.1342C51.2212 49.0846 51.3976 48.9743 51.5284 48.819C51.6592 48.6636 51.7379 48.4711 51.7532 48.2686C51.8899 47.3916 50.6143 47.198 49.8739 47.0044C49.4639 46.8905 49.0311 46.7993 48.6325 46.6741C47.7327 46.4007 47.6188 45.8654 46.9468 45.1706C45.9673 44.157 45.1928 42.5283 43.2566 42.5055C43.0186 42.4976 42.7807 42.5245 42.5505 42.5852C42.3569 42.5852 42.0721 42.7788 41.9582 42.7902L41.9241 42.7788Z" fill="white"/>
<path d="M44.4182 37.1867C41.3886 37.6992 41.8669 42.5398 45.2496 41.9931C45.5666 41.947 45.8707 41.8365 46.1434 41.6684C46.416 41.5003 46.6513 41.2782 46.8349 41.0157C47.0184 40.7532 47.1462 40.4559 47.2105 40.1421C47.2748 39.8284 47.2742 39.5048 47.2086 39.1912C47.0997 38.5577 46.746 37.9925 46.224 37.6174C45.7019 37.2424 45.0533 37.0877 44.4182 37.1867Z" fill="white"/>
</g>
<path d="M1.03711 0V89.9772H91.0143V0H1.03711ZM46.0371 81.8223C38.7543 81.8223 31.6351 79.6627 25.5797 75.6166C19.5243 71.5706 14.8047 65.8197 12.0177 59.0913C9.23072 52.3629 8.50152 44.9592 9.92232 37.8163C11.3431 30.6735 14.8501 24.1124 19.9998 18.9627C25.1495 13.813 31.7106 10.306 38.8534 8.88521C45.9963 7.46441 53.4 8.19362 60.1284 10.9806C66.8568 13.7676 72.6077 18.4872 76.6538 24.5426C80.6998 30.598 82.8594 37.7172 82.8594 45C82.8564 54.765 78.976 64.1291 72.0711 71.034C65.1662 77.9389 55.8021 81.8193 46.0371 81.8223Z" fill="#E3E2E5"/>
</g>
</svg>
