<svg width="279" height="540" viewBox="0 0 279 540" fill="none" xmlns="http://www.w3.org/2000/svg">
<g opacity="0.6" clip-path="url(#clip0_99_866)">
<path opacity="0.961" fill-rule="evenodd" clip-rule="evenodd" d="M246.27 -0.527344C261.739 -0.527344 277.207 -0.527344 292.676 -0.527344C317.781 2.40655 342.39 8.03155 366.504 16.3477C365.301 19.8626 363.367 23.0267 360.703 25.8398C356.874 32.4486 353.357 39.1284 350.156 45.8789C261.279 17.3192 181.299 32.9638 110.215 92.8125C50.5038 149.595 25.0155 219.028 33.75 301.113C37.1631 325.764 44.1944 349.32 54.8438 371.777C55.5649 373.132 55.3891 374.362 54.3164 375.469C45.3043 380.151 36.1637 384.545 26.8945 388.652C11.953 358.603 2.81235 326.963 -0.527344 293.73C-0.527344 277.91 -0.527344 262.09 -0.527344 246.27C11.1701 149.538 59.3342 77.2921 143.965 29.5312C176.334 13.1703 210.435 3.15081 246.27 -0.527344Z" fill="#E3E6ED"/>
<path opacity="0.989" fill-rule="evenodd" clip-rule="evenodd" d="M239.942 130.254C284.221 127.943 313.048 147.806 326.426 189.844C350.301 194.559 366.121 208.446 373.887 231.504C404.386 235.22 424.953 251.391 435.586 280.019C443.591 315.142 432.166 341.685 401.309 359.648C393.611 363.243 385.524 365.352 377.051 365.977C310.957 366.68 244.864 366.68 178.77 365.977C135.641 360.466 109.802 336.384 101.25 293.73C97.6738 251.829 114.725 221.77 152.403 203.555C159.901 200.625 167.636 198.691 175.606 197.754C182.001 160.774 203.447 138.275 239.942 130.254Z" fill="#E3E6ED"/>
<path opacity="0.961" fill-rule="evenodd" clip-rule="evenodd" d="M539.473 245.215C539.473 261.035 539.473 276.855 539.473 292.676C528.089 388.571 480.628 460.466 397.09 508.359C364.107 525.277 329.302 535.647 292.676 539.473C277.207 539.473 261.739 539.473 246.27 539.473C215.059 536.327 185.176 528.064 156.621 514.688C163.696 506.332 169.848 497.367 175.078 487.793C261.25 521.541 341.583 511.17 416.074 456.68C484.495 399.835 514.201 326.886 505.195 237.832C500.883 207.49 491.214 179.013 476.191 152.402C485.097 146.454 494.413 141.18 504.141 136.582C517.521 158.069 527.014 181.272 532.617 206.191C535.382 219.268 537.667 232.277 539.473 245.215Z" fill="#E3E6ED"/>
<path opacity="0.972" fill-rule="evenodd" clip-rule="evenodd" d="M94.3943 415.019C123.49 412.94 141.595 425.947 148.711 454.043C150.754 477.213 141.437 493.913 120.762 504.141C93.5567 512.542 73.3419 504.281 60.117 479.355C51.091 446.774 62.5168 425.328 94.3943 415.019Z" fill="#E3E6ED"/>
</g>
<defs>
<clipPath id="clip0_99_866">
<rect width="540" height="540" fill="white"/>
</clipPath>
</defs>
</svg>
