<svg width="270" height="540" viewBox="0 0 270 540" fill="none" xmlns="http://www.w3.org/2000/svg">
<g opacity="0.6" clip-path="url(#clip0_603_8624)">
<path opacity="0.961" fill-rule="evenodd" clip-rule="evenodd" d="M-23.7305 -0.527344C-8.26135 -0.527344 7.20667 -0.527344 22.6758 -0.527344C47.7805 2.40655 72.3895 8.03155 96.5039 16.3477C95.3005 19.8626 93.3673 23.0267 90.7031 25.8398C86.8736 32.4486 83.3572 39.1284 80.1562 45.8789C-8.72122 17.3192 -88.7013 32.9638 -159.785 92.8125C-219.496 149.595 -244.985 219.028 -236.25 301.113C-232.837 325.764 -225.806 349.32 -215.156 371.777C-214.435 373.132 -214.611 374.362 -215.684 375.469C-224.696 380.151 -233.836 384.545 -243.105 388.652C-258.047 358.603 -267.188 326.963 -270.527 293.73C-270.527 277.91 -270.527 262.09 -270.527 246.27C-258.83 149.538 -210.666 77.2921 -126.035 29.5312C-93.6657 13.1703 -59.5645 3.15081 -23.7305 -0.527344Z" fill="#E3E6ED"/>
<path opacity="0.972" fill-rule="evenodd" clip-rule="evenodd" d="M150.293 20.5664C177.961 20.9941 194.66 34.705 200.39 61.6992C202.23 80.6925 195.374 95.6339 179.824 106.523C154.221 119.5 132.6 114.754 114.961 92.2852C104.757 72.7215 106.162 54.0887 119.179 36.3867C127.847 27.571 138.219 22.2976 150.293 20.5664Z" fill="#E3E6ED"/>
<path opacity="0.989" fill-rule="evenodd" clip-rule="evenodd" d="M-30.0584 130.255C14.2206 127.944 43.0483 147.807 56.426 189.845C80.301 194.56 96.1213 208.447 103.887 231.505C134.386 235.22 154.953 251.392 165.586 280.02C173.591 315.143 162.166 341.686 131.309 359.649C123.611 363.244 115.524 365.353 107.051 365.977C40.9569 366.681 -25.1361 366.681 -91.2302 365.977C-134.359 360.467 -160.198 336.385 -168.75 293.731C-172.326 251.83 -155.275 221.771 -117.597 203.556C-110.099 200.626 -102.364 198.692 -94.3943 197.755C-87.9987 160.775 -66.5527 138.276 -30.0584 130.255Z" fill="#E3E6ED"/>
<path opacity="0.961" fill-rule="evenodd" clip-rule="evenodd" d="M269.473 245.215C269.473 261.035 269.473 276.855 269.473 292.676C258.089 388.571 210.628 460.466 127.09 508.359C94.1066 525.277 59.3019 535.647 22.6758 539.473C7.20668 539.473 -8.26137 539.473 -23.7305 539.473C-54.9408 536.327 -84.8243 528.064 -113.379 514.688C-106.304 506.332 -100.152 497.367 -94.9219 487.793C-8.74969 521.541 71.5827 511.17 146.074 456.68C214.495 399.835 244.201 326.886 235.195 237.832C230.883 207.49 221.214 179.013 206.191 152.402C215.097 146.454 224.413 141.18 234.141 136.582C247.521 158.069 257.014 181.272 262.617 206.191C265.382 219.268 267.667 232.277 269.473 245.215Z" fill="#E3E6ED"/>
</g>
<defs>
<clipPath id="clip0_603_8624">
<rect width="540" height="540" fill="white" transform="translate(-270)"/>
</clipPath>
</defs>
</svg>
