<svg width="60" height="60" viewBox="0 0 60 60" fill="none" xmlns="http://www.w3.org/2000/svg">
<g opacity="0.951">
<path fill-rule="evenodd" clip-rule="evenodd" d="M23.0077 0.0564472C23.8302 -0.131654 24.3735 0.150358 24.6376 0.902483C26.9765 0.962998 29.3169 0.983146 31.6585 0.962914C31.8054 1.18873 31.7845 1.41031 31.5958 1.62766C30.7163 2.45528 29.8596 3.30132 29.0256 4.16576C29.9014 5.0705 30.7999 5.95682 31.7212 6.82473C31.8069 6.97991 31.786 7.1209 31.6585 7.24775C29.3185 7.30817 26.9783 7.32832 24.6376 7.30818C24.6585 9.72576 24.6376 12.143 24.5749 14.5599C24.3689 15.2811 23.8883 15.543 23.1331 15.3455C22.9092 15.2506 22.7211 15.1097 22.5689 14.9225C22.4853 10.1283 22.4853 5.3341 22.5689 0.539896C22.7414 0.394245 22.8876 0.233099 23.0077 0.0564472Z" fill="white"/>
<path fill-rule="evenodd" clip-rule="evenodd" d="M41.8137 3.92404C42.5801 3.82963 43.0816 4.13179 43.3182 4.8305C45.6585 4.87079 47.9988 4.91108 50.3391 4.95137C50.4666 5.07821 50.4875 5.21921 50.4018 5.37439C49.4805 6.2423 48.582 7.12862 47.7063 8.03335C48.582 8.93809 49.4805 9.82441 50.4018 10.6923C50.4632 10.8486 50.4842 11.0098 50.4645 11.1758C48.0824 11.1758 45.7003 11.1758 43.3182 11.1758C43.3391 13.5934 43.3182 16.0106 43.2555 18.4275C43.0354 19.2088 42.5129 19.4705 41.6883 19.2131C41.542 19.0721 41.3958 18.9311 41.2495 18.7901C41.1659 13.9959 41.1659 9.20169 41.2495 4.40749C41.4247 4.2177 41.6127 4.05655 41.8137 3.92404Z" fill="white"/>
<path fill-rule="evenodd" clip-rule="evenodd" d="M33.6645 6.82473C35.5751 7.13652 37.414 7.6804 39.1809 8.45637C39.3032 9.19071 39.3451 9.93602 39.3063 10.6923C38.261 10.3227 37.2163 9.93997 36.1719 9.54413C35.0839 9.24169 33.9973 8.93953 32.9122 8.63767C33.4063 8.1281 33.6571 7.52379 33.6645 6.82473Z" fill="white"/>
<path fill-rule="evenodd" clip-rule="evenodd" d="M20.1241 7.18732C20.2913 7.18732 20.4585 7.18732 20.6256 7.18732C20.6642 7.90348 20.6225 8.60851 20.5003 9.30241C19.2534 9.68287 18.0416 10.1462 16.8644 10.6923C16.7364 10.6317 16.7155 10.5511 16.8017 10.4506C17.5786 9.84163 17.8502 9.07617 17.6167 8.15422C18.4508 7.80611 19.2866 7.48381 20.1241 7.18732Z" fill="white"/>
<path fill-rule="evenodd" clip-rule="evenodd" d="M7.08531 7.5499C7.89657 7.34676 8.43985 7.60863 8.71516 8.33551C11.0555 8.37579 13.3957 8.41609 15.7361 8.45637C15.8015 8.52421 15.8433 8.60479 15.8614 8.6981C15.0361 9.73604 14.1166 10.7029 13.1032 11.5988C13.956 12.5419 14.8546 13.4483 15.7988 14.3182C15.8845 14.4734 15.8636 14.6144 15.7361 14.7412C13.3961 14.8016 11.0559 14.8218 8.71516 14.8016C8.73605 17.2595 8.71516 19.717 8.65247 22.1742C8.27131 22.8835 7.70713 23.0647 6.95993 22.7181C6.80931 22.609 6.70482 22.4681 6.6465 22.2951C6.56291 17.5412 6.56291 12.7872 6.6465 8.03335C6.81896 7.8877 6.96524 7.72656 7.08531 7.5499Z" fill="white"/>
<path fill-rule="evenodd" clip-rule="evenodd" d="M20.3749 12.5053C20.5473 13.565 20.7353 14.6527 20.9391 15.7685C22.1013 17.3206 23.5431 17.6228 25.2644 16.675C26.2604 15.8297 26.6992 14.7621 26.5809 13.4722C27.1279 13.8498 27.7338 14.1118 28.3988 14.2578C29.3762 14.2963 30.2746 14.5581 31.0943 15.0434C31.3449 15.514 31.4494 16.0175 31.4077 16.5541C31.4086 17.6562 31.2206 18.7237 30.8436 19.757C30.6972 19.9785 30.5092 20.1598 30.2794 20.3009C28.5759 20.6372 26.9043 21.0804 25.2644 21.6304C24.0602 22.2002 22.9528 22.9053 21.942 23.7454C21.4937 24.6507 21.0549 25.5572 20.6256 26.4648C20.3262 26.6898 19.992 26.8509 19.6226 26.9483C18.5433 27.1832 17.4568 27.3847 16.3629 27.5526C15.0933 27.8433 14.738 28.5483 15.2973 29.6677C15.9985 31.0433 16.897 32.272 17.9928 33.354C18.4011 33.48 18.819 33.5405 19.2465 33.5353C19.2256 37.0003 19.2465 40.4649 19.3092 43.9294C20.1742 46.1011 21.6994 46.6852 23.8853 45.6819C24.5221 45.1997 24.919 44.5752 25.0764 43.8086C25.1391 41.9155 25.16 40.022 25.1391 38.128C26.9365 38.1482 28.7336 38.128 30.5301 38.0676C31.0044 37.9397 31.4224 37.7182 31.7839 37.4029C32.203 37.8486 32.4537 38.3723 32.5361 38.9741C32.3368 41.0227 31.5636 42.8356 30.2167 44.4129C28.9989 45.5925 27.9959 46.922 27.2077 48.4013C26.8482 49.6345 26.5557 50.8834 26.3301 52.1481C26.0751 53.3874 25.4273 54.3745 24.3868 55.1092C23.8914 55.2194 23.4316 55.1388 23.0077 54.8675C22.499 54.3097 22.1019 53.6853 21.8167 52.9941C21.1621 50.9271 20.6189 48.8322 20.1868 46.7093C19.8236 45.303 19.0923 44.1145 17.9928 43.1438C16.2309 42.3302 15.2489 40.9806 15.0465 39.0949C14.9519 37.9677 14.8682 36.8397 14.7958 35.7108C14.6856 35.1505 14.4767 34.6268 14.1689 34.1396C13.6519 33.5564 13.0877 33.0126 12.4764 32.508C8.53654 30.6438 5.71564 27.7631 4.01366 23.8663C0.884681 31.8867 1.67872 39.5413 6.39575 46.8301C12.495 55.0121 20.7906 58.6581 31.2824 57.7682C37.7208 56.8814 43.0701 54.1016 47.3301 49.4287C46.7373 49.3957 46.1521 49.3152 45.5749 49.1869C45.24 49.0359 44.9685 48.8143 44.76 48.5222C44.9373 47.1007 45.0836 45.6706 45.1988 44.2316C45.1236 42.6004 45.0609 40.9688 45.0107 39.3367C45.0107 38.1264 44.5719 37.099 43.6943 36.2547C43.3863 36.0659 43.0519 35.945 42.6913 35.8921C41.4805 35.7965 40.2685 35.7159 39.0555 35.6504C37.6588 35.4305 36.5514 34.7658 35.7331 33.6561C35.0813 32.6181 34.9977 31.5303 35.4824 30.3929C36.1767 29.4014 36.7617 28.354 37.2376 27.2504C36.9815 25.7845 37.5874 24.8176 39.0555 24.3498C41.7454 24.9367 44.4617 25.118 47.2048 24.8936C48.1476 24.1379 48.461 23.1912 48.1451 22.0534C47.6389 21.4205 46.9703 21.1384 46.1391 21.2073C44.1586 21.4255 42.1735 21.5263 40.1839 21.5095C40.0036 21.483 39.8365 21.4226 39.6824 21.3282C39.3722 20.5461 39.2259 19.7404 39.2436 18.911C39.9843 20.7485 41.3424 21.4133 43.3182 20.9052C44.4108 20.4152 45.0168 19.5894 45.1361 18.4275C45.1988 16.6553 45.2197 14.8826 45.1988 13.1096C45.702 13.0895 46.2035 13.1097 46.7033 13.17C47.7333 14.1023 48.6946 15.0894 49.5869 16.1311C49.2191 16.5984 48.9893 17.1221 48.8973 17.7023C48.8137 22.3353 48.8137 26.9685 48.8973 31.6015C49.5129 33.8221 50.9547 34.5673 53.2227 33.8374C53.9926 33.4178 54.4732 32.7934 54.6645 31.9641C54.7062 29.99 54.7481 28.0159 54.7899 26.0418C57.3136 35.9708 54.9733 44.6729 47.769 52.1481C40.5362 58.7551 31.9898 61.1925 22.1301 59.4602C11.56 56.9654 4.56004 50.741 1.13007 40.787C-1.14998 32.7846 0.0201696 25.2912 4.64053 18.3066C4.68231 19.7167 4.72411 21.1267 4.7659 22.5368C5.67803 24.6558 7.2034 25.1997 9.34203 24.1685C9.97877 23.6862 10.3758 23.0617 10.5331 22.2951C10.5958 20.402 10.6167 18.5085 10.5958 16.6146C12.435 16.6348 14.2738 16.6146 16.1122 16.5541C17.2914 16.1135 17.8139 15.2875 17.6794 14.0765C17.562 13.6284 17.3322 13.2457 16.9898 12.9283C18.1436 12.9555 19.272 12.8144 20.3749 12.5053Z" fill="white"/>
<path fill-rule="evenodd" clip-rule="evenodd" d="M51.3421 16.9772C52.197 16.8233 52.6985 17.1456 52.8466 17.9441C55.1913 17.9561 57.5316 17.9361 59.8675 17.8836C59.9996 18.0514 60.0204 18.2327 59.9302 18.4275C59.0044 19.2593 58.1477 20.1456 57.36 21.0865C58.2398 21.9546 59.0964 22.8409 59.9302 23.7454C59.9916 23.9017 60.0125 24.0629 59.9928 24.2289C57.6108 24.2289 55.2287 24.2289 52.8466 24.2289C52.8675 26.7674 52.8466 29.3055 52.7839 31.8432C52.3111 32.3615 51.7469 32.4621 51.0913 32.1454C50.971 31.9739 50.8666 31.7926 50.7779 31.6015C50.6943 26.9685 50.6943 22.3353 50.7779 17.7023C50.8787 17.3825 51.0668 17.1408 51.3421 16.9772Z" fill="white"/>
<path fill-rule="evenodd" clip-rule="evenodd" d="M22.0047 28.9425C22.6286 28.9395 23.0465 29.2215 23.2585 29.7886C25.5977 29.8892 27.9379 29.9497 30.2794 29.9698C30.3448 30.0377 30.3866 30.1183 30.4047 30.2116C29.5794 31.2495 28.6599 32.2164 27.6465 33.1123C28.5907 33.9821 29.4893 34.8886 30.3421 35.8317C30.4278 35.9869 30.4069 36.1279 30.2794 36.2547C27.9394 36.3151 25.5992 36.3353 23.2585 36.3151C23.2794 38.773 23.2585 41.2305 23.1958 43.6877C22.8177 44.3974 22.2535 44.5787 21.5032 44.2316C21.3527 44.1225 21.2481 43.9815 21.1898 43.8086C21.1062 39.0547 21.1062 34.3007 21.1898 29.5468C21.3908 29.2404 21.6623 29.039 22.0047 28.9425Z" fill="white"/>
</g>
</svg>
