<svg width="141" height="140" viewBox="0 0 141 140" fill="none" xmlns="http://www.w3.org/2000/svg">
<rect x="0.5" width="140" height="140" rx="70" fill="#E3E6ED"/>
<g clip-path="url(#clip0_388_9174)">
<path opacity="0.982" fill-rule="evenodd" clip-rule="evenodd" d="M41.4961 39.9414C44.3477 39.9414 47.1992 39.9414 50.0508 39.9414C50.517 40.1541 50.8491 40.5056 51.0469 40.9961C51.1054 41.8155 51.125 42.6358 51.1055 43.457C55.8713 43.4766 60.6369 43.457 65.4023 43.3984C66.1537 41.5611 67.482 40.4088 69.3867 39.9414C70.0898 39.9414 70.793 39.9414 71.4961 39.9414C73.4009 40.4088 74.7291 41.5611 75.4805 43.3984C80.2459 43.457 85.0116 43.4766 89.7773 43.457C89.7579 42.6358 89.7773 41.8155 89.8359 40.9961C90.0337 40.5056 90.3657 40.1541 90.832 39.9414C93.6836 39.9414 96.5352 39.9414 99.3867 39.9414C99.561 40.0942 99.7563 40.2309 99.9727 40.3516C100.113 40.5877 100.269 40.8026 100.441 40.9961C100.441 43.8086 100.441 46.6211 100.441 49.4336C100.229 49.8999 99.8771 50.2319 99.3867 50.4297C96.5352 50.5078 93.6836 50.5078 90.832 50.4297C90.3437 50.2539 90.0117 49.9219 89.8359 49.4336C89.7773 48.6142 89.7579 47.7939 89.7773 46.9727C87.4332 46.9531 85.0895 46.9727 82.7461 47.0312C89.0647 51.2836 92.5804 57.2406 93.293 64.9023C96.0275 66.0733 97.1798 68.1435 96.75 71.1133C95.7328 74.1914 93.6039 75.5391 90.3633 75.1562C87.3212 74.1718 85.9736 72.0818 86.3203 68.8867C86.7391 67.0698 87.7938 65.7808 89.4844 65.0195C88.7861 57.3912 84.9775 51.942 78.0586 48.6719C77.1071 48.3157 76.1501 47.9837 75.1875 47.6758C73.4252 50.3854 71.0229 51.1471 67.9805 49.9609C66.9844 49.4336 66.2227 48.6719 65.6953 47.6758C57.8811 50.0618 53.1546 55.2571 51.5156 63.2617C51.389 63.8441 51.3499 64.4301 51.3984 65.0195C53.9313 66.2564 54.986 68.2877 54.5625 71.1133C53.5453 74.1914 51.4164 75.5391 48.1758 75.1562C45.1337 74.1718 43.7861 72.0818 44.1328 68.8867C44.6039 66.9682 45.7563 65.64 47.5898 64.9023C48.315 57.2946 51.7915 51.3376 58.0195 47.0312C55.7152 46.9727 53.4104 46.9531 51.1055 46.9727C51.125 47.7939 51.1054 48.6142 51.0469 49.4336C50.8711 49.9219 50.5391 50.2539 50.0508 50.4297C47.1992 50.5078 44.3477 50.5078 41.4961 50.4297C41.0056 50.2319 40.6541 49.8999 40.4414 49.4336C40.4414 46.6211 40.4414 43.8086 40.4414 40.9961C40.5942 40.8218 40.7309 40.6265 40.8516 40.4102C41.0877 40.2699 41.3026 40.1137 41.4961 39.9414Z" fill="#031555"/>
<path opacity="0.985" fill-rule="evenodd" clip-rule="evenodd" d="M68.5655 55.293C68.7215 60.8986 68.7215 66.5236 68.5655 72.168C66.0581 73.3143 64.9839 75.2675 65.3428 78.0273C66.2728 81.0648 68.3236 82.4125 71.4952 82.0703C74.5327 81.1403 75.8803 79.0895 75.5381 75.918C75.113 74.1064 74.0388 72.8563 72.3155 72.168C72.1787 66.5433 72.1593 60.9183 72.2569 55.293C76.9513 62.2925 81.5998 69.3237 86.2022 76.3867C86.2949 76.9054 86.2558 77.4132 86.085 77.9102C82.7745 81.2883 80.6651 85.3118 79.7569 89.9805C79.6912 90.0416 79.613 90.0807 79.5225 90.0977C78.7497 89.7824 77.9489 89.5675 77.1202 89.4531C73.1381 89.2682 69.1538 89.2292 65.1671 89.3359C64.4594 89.3754 63.7562 89.4535 63.0577 89.5703C62.4212 89.7313 61.7963 89.8877 61.1827 90.0391C60.3587 85.5195 58.347 81.6327 55.1475 78.3789C54.495 77.5144 54.4559 76.6161 55.0303 75.6836C59.5736 68.9002 64.0853 62.1033 68.5655 55.293Z" fill="#031555"/>
<path opacity="0.928" fill-rule="evenodd" clip-rule="evenodd" d="M69.7381 75.2153C71.6311 74.9794 72.4319 75.7997 72.1404 77.6762C71.6309 78.6624 70.8301 78.9944 69.7381 78.6723C68.7519 78.1628 68.4199 77.3621 68.742 76.27C68.9398 75.7796 69.2718 75.428 69.7381 75.2153Z" fill="#031555"/>
<path opacity="0.99" fill-rule="evenodd" clip-rule="evenodd" d="M81.3402 99.9414C74.0746 99.9414 66.809 99.9414 59.5433 99.9414C58.6136 99.4882 58.2424 98.746 58.4301 97.7149C59.4019 95.1412 61.2183 93.52 63.8793 92.8516C68.2542 92.7734 72.6293 92.7734 77.0043 92.8516C79.6653 93.52 81.4817 95.1412 82.4535 97.7149C82.6411 98.746 82.27 99.4882 81.3402 99.9414Z" fill="#031555"/>
</g>
<defs>
<clipPath id="clip0_388_9174">
<rect width="60" height="60" fill="white" transform="translate(40.5 40)"/>
</clipPath>
</defs>
</svg>
