<svg width="141" height="140" viewBox="0 0 141 140" fill="none" xmlns="http://www.w3.org/2000/svg">
<rect x="0.375" width="140.251" height="140" rx="70" fill="#E3E6ED"/>
<g opacity="0.8" clip-path="url(#clip0_388_9187)">
<g opacity="0.994">
<path fill-rule="evenodd" clip-rule="evenodd" d="M100.626 44.1187C100.626 47.4529 100.626 50.7871 100.626 54.1213C80.5423 54.1213 60.4587 54.1213 40.375 54.1213C40.375 50.7871 40.375 47.4529 40.375 44.1187C40.9812 42.0024 42.3541 40.6491 44.4937 40.0588C61.8315 39.9804 79.1695 39.9804 96.5073 40.0588C98.6469 40.6491 100.02 42.0024 100.626 44.1187ZM81.0915 47.0607C84.6221 47.0411 88.1524 47.0607 91.6825 47.1195C92.9522 47.3627 93.4818 48.1276 93.2712 49.4142C92.9401 50.061 92.4106 50.4336 91.6825 50.5322C88.1522 50.6106 84.6218 50.6106 81.0915 50.5322C79.528 50.1705 79.077 49.2487 79.7382 47.7667C80.1275 47.386 80.5785 47.1506 81.0915 47.0607ZM48.7301 47.1783C50.3955 47.0197 51.1212 47.7649 50.9072 49.4142C50.2169 50.5612 49.2951 50.7769 48.1417 50.0614C47.3658 48.8864 47.5619 47.9253 48.7301 47.1783ZM55.7908 47.1783C57.4562 47.0197 58.1819 47.7649 57.9678 49.4142C57.2776 50.5612 56.3558 50.7769 55.2024 50.0614C54.4264 48.8864 54.6226 47.9253 55.7908 47.1783ZM62.8515 47.1783C64.5168 47.0197 65.2425 47.7649 65.0285 49.4142C64.3383 50.5612 63.4164 50.7769 62.2631 50.0614C61.4871 48.8864 61.6833 47.9253 62.8515 47.1783Z" fill="#031555"/>
<path fill-rule="evenodd" clip-rule="evenodd" d="M40.375 57.636C60.4587 57.636 80.5423 57.636 100.626 57.636C100.626 70.3844 100.626 83.1329 100.626 95.8812C100.02 97.9976 98.6469 99.3509 96.5073 99.9411C79.1695 100.02 61.8315 100.02 44.4937 99.9411C42.3531 99.3498 40.9802 97.9965 40.375 95.8812C40.375 83.1329 40.375 70.3844 40.375 57.636ZM75.2076 63.0492C76.873 62.8904 77.5987 63.6358 77.3847 65.285C73.7815 73.7421 70.1335 82.1756 66.4406 90.5858C65.283 91.3652 64.3416 91.1691 63.6164 89.9974C63.5379 89.6051 63.5379 89.2128 63.6164 88.8206C67.2252 80.4263 70.8339 72.0318 74.4427 63.6375C74.7164 63.4533 74.9713 63.2572 75.2076 63.0492ZM59.3211 68.3446C61.1495 68.2306 61.8359 69.0544 61.3805 70.8159C61.2574 71.003 61.1201 71.1795 60.9686 71.3454C58.5889 73.221 56.2354 75.1234 53.9079 77.0528C56.3396 79.072 58.7912 81.0726 61.2628 83.0544C61.7891 84.0617 61.6125 84.9051 60.7333 85.5844C60.0876 85.8416 59.46 85.8023 58.8504 85.4668C55.9425 83.0685 53.0005 80.7149 50.0246 78.4061C49.2401 77.5039 49.2401 76.6017 50.0246 75.6995C53.1116 73.2191 56.2104 70.7675 59.3211 68.3446ZM80.5031 68.3446C81.0855 68.281 81.6347 68.379 82.1506 68.6388C85.0585 71.0371 88.0005 73.3907 90.9764 75.6995C91.761 76.6017 91.761 77.5039 90.9764 78.4061C88.0005 80.7149 85.0585 83.0685 82.1506 85.4668C81.007 86.0547 80.1244 85.7998 79.5029 84.7019C79.3514 84.0525 79.4691 83.4641 79.8559 82.9367C82.2883 80.9942 84.7007 79.0328 87.0931 77.0528C84.7007 75.0728 82.2883 73.1114 79.8559 71.1689C79.1439 69.9983 79.3596 69.0568 80.5031 68.3446Z" fill="#031555"/>
</g>
</g>
<defs>
<clipPath id="clip0_388_9187">
<rect width="60.251" height="60" fill="white" transform="translate(40.375 40)"/>
</clipPath>
</defs>
</svg>
