<svg width="270" height="540" viewBox="0 0 270 540" fill="none" xmlns="http://www.w3.org/2000/svg">
<g opacity="0.6">
<path opacity="0.93" fill-rule="evenodd" clip-rule="evenodd" d="M178.769 10.0195C194.783 14.3607 210.603 19.4585 226.23 25.3125C230.059 28.5291 231.29 32.572 229.922 37.4414C220.515 50.8332 210.496 63.6653 199.863 75.9375C188.265 77.5574 184.573 72.8113 188.789 61.6992C192.513 57.5889 195.852 53.1943 198.809 48.5156C124.61 69.6126 72.4032 115.843 42.1874 187.207C24.8793 231.914 21.0122 277.617 30.5859 324.316C33.6087 336.723 36.9486 349.027 40.6054 361.23C39.5192 369.636 34.9488 372.273 26.8945 369.141C24.1719 365.921 22.2383 362.229 21.0937 358.066C-7.05366 266.431 8.76665 183.462 68.5546 109.16C101.198 72.3324 141.1 46.4925 188.262 31.6406C184.164 29.6861 179.945 27.9283 175.605 26.3672C170.783 19.7166 171.838 14.2674 178.769 10.0195Z" fill="#E3E6ED"/>
<path opacity="0.975" fill-rule="evenodd" clip-rule="evenodd" d="M236.777 100.723C252.965 100.372 269.136 100.723 285.293 101.777C289.234 111.144 292.751 120.636 295.84 130.254C311.226 133.391 325.639 139.015 339.082 147.129C346.934 144.082 354.668 140.743 362.285 137.109C364.339 136.064 366.448 135.712 368.613 136.055C379.511 146.953 390.411 157.852 401.309 168.75C397.243 178.112 393.024 187.43 388.652 196.699C396.48 209.898 402.281 223.96 406.055 238.887C415.329 243.678 424.997 247.546 435.059 250.488C435.235 266.664 435.059 282.836 434.531 299.004C425.039 302.871 415.547 306.738 406.055 310.605C402.287 325.522 396.487 339.584 388.652 352.793C392.446 362.314 396.665 371.63 401.309 380.742C389.883 392.168 378.457 403.594 367.031 415.019C357.778 410.703 348.461 406.484 339.082 402.363C325.906 410.389 311.844 416.365 296.895 420.293C292.625 429.225 288.758 438.366 285.293 447.715C269.122 449.121 252.949 449.121 236.777 447.715C233.319 438.17 229.452 428.853 225.176 419.766C210.259 415.998 196.197 410.197 182.988 402.363C173.719 406.735 164.402 410.954 155.039 415.019C144.141 404.121 133.242 393.222 122.344 382.324C122.001 380.159 122.353 378.05 123.399 375.996C126.883 368.499 130.223 360.94 133.418 353.32C125.405 339.649 119.779 325.06 116.543 309.551C106.925 306.462 97.4334 302.945 88.0665 299.004C87.0125 282.847 86.6609 266.676 87.0118 250.488C95.529 247.816 103.966 244.828 112.324 241.523C114.411 241.016 115.816 239.786 116.543 237.832C120.526 223.418 126.15 209.707 133.418 196.699C130.02 188.144 126.328 179.706 122.344 171.387C121.64 169.981 121.64 168.574 122.344 167.168C132.715 156.797 143.086 146.425 153.457 136.055C154.863 135.351 156.27 135.351 157.676 136.055C165.995 140.039 174.433 143.731 182.988 147.129C196.191 139.916 210.078 134.29 224.649 130.254C229.808 120.943 233.851 111.1 236.777 100.723ZM250.488 173.496C300.958 171.8 336.29 193.949 356.484 239.941C370.386 285.76 359.312 324.256 323.262 355.43C281.257 384.204 239.422 383.852 197.754 354.375C159.752 319.606 150.435 278.297 169.805 230.449C187.254 198.056 214.148 179.071 250.488 173.496Z" fill="#E3E6ED"/>
<path opacity="0.923" fill-rule="evenodd" clip-rule="evenodd" d="M267.363 227.285C274.612 225.627 279.183 228.264 281.074 235.195C273.763 263.209 266.204 291.158 258.398 319.043C252.612 324.928 247.339 324.577 242.578 317.988C241.874 315.175 241.874 312.364 242.578 309.551C249.635 282.727 257.018 256.009 264.726 229.395C265.776 228.798 266.654 228.094 267.363 227.285Z" fill="#E3E6ED"/>
<path opacity="0.918" fill-rule="evenodd" clip-rule="evenodd" d="M228.34 236.777C236.215 237.443 239.555 241.662 238.359 249.434C237.176 251.674 235.594 253.607 233.613 255.234C225.698 261.571 217.964 268.075 210.41 274.746C219.884 282.988 229.2 291.426 238.359 300.059C239.492 311.189 234.746 314.88 224.121 311.133C213.18 301.244 201.93 291.752 190.371 282.656C187.399 279.136 186.52 275.093 187.734 270.527C200.57 258.199 214.106 246.949 228.34 236.777Z" fill="#E3E6ED"/>
<path opacity="0.932" fill-rule="evenodd" clip-rule="evenodd" d="M68.0272 421.348C85.1337 423.086 102.009 426.074 118.652 430.312C124.277 435.235 124.277 440.156 118.652 445.078C116.86 446.089 114.926 446.616 112.851 446.66C107.79 445.434 102.693 444.906 97.5585 445.078C159.043 500.885 230.761 520.924 312.715 505.195C366.047 492.436 409.993 465.014 444.551 422.93C456.74 419.651 461.135 424.044 457.734 436.113C389.525 513.343 304.623 541.995 203.027 522.07C157.505 511.006 117.954 489.384 84.3749 457.207C84.5472 462.455 85.0745 467.729 85.9569 473.027C84.386 480.501 79.8158 483.138 72.246 480.938C69.1098 478.356 67.5278 475.016 67.4999 470.918C65.9178 457.558 64.3358 444.2 62.7538 430.84C62.6239 426.521 64.3817 423.357 68.0272 421.348Z" fill="#E3E6ED"/>
</g>
</svg>
