<svg width="261" height="540" viewBox="0 0 261 540" fill="none" xmlns="http://www.w3.org/2000/svg">
<g opacity="0.6">
<path opacity="0.929" fill-rule="evenodd" clip-rule="evenodd" d="M17.8947 24.7852C98.5783 36.7796 159.925 77.5609 201.938 147.129C234.055 204.601 243.371 265.597 229.887 330.117C230.238 330.996 230.59 331.875 230.942 332.754C233.601 330.269 236.413 327.984 239.379 325.898C249.75 323.613 253.793 327.657 251.508 338.027C240.411 349.123 228.633 359.493 216.176 369.141C211.822 371.366 207.78 370.839 204.047 367.559C198.07 353.848 192.094 340.137 186.117 326.426C183.838 316.763 187.53 312.368 197.192 313.242C199.075 314.07 200.657 315.3 201.938 316.934C204.479 323.07 207.292 329.047 210.375 334.863C231.526 237.301 204.631 155.914 129.692 90.7031C96.3993 64.7496 58.7817 48.2262 16.84 41.1328C11.171 35.2291 11.5222 29.7799 17.8947 24.7852Z" fill="#E3E6ED"/>
<path opacity="0.975" fill-rule="evenodd" clip-rule="evenodd" d="M-42.2225 100.723C-26.0352 100.372 -9.86368 100.724 6.29309 101.778C10.2345 111.145 13.7508 120.637 16.84 130.255C32.2257 133.391 46.6391 139.016 60.0822 147.13C67.9343 144.083 75.6683 140.743 83.2852 137.11C85.3387 136.065 87.4481 135.713 89.6134 136.055C100.511 146.953 111.411 157.853 122.309 168.751C118.243 178.113 114.024 187.43 109.652 196.7C117.48 209.898 123.281 223.96 127.055 238.887C136.329 243.679 145.997 247.546 156.059 250.489C156.235 266.665 156.059 282.836 155.531 299.004C146.039 302.872 136.547 306.739 127.055 310.606C123.287 325.522 117.487 339.585 109.652 352.794C113.446 362.314 117.665 371.63 122.309 380.743C110.883 392.168 99.4568 403.595 88.0313 415.02C78.7775 410.703 69.4615 406.484 60.0822 402.364C46.9059 410.39 32.8438 416.366 17.8947 420.294C13.6253 429.226 9.75774 438.367 6.29309 447.715C-9.87843 449.121 -26.051 449.121 -42.2225 447.715C-45.6809 438.17 -49.5484 428.853 -53.8241 419.766C-68.7405 415.999 -82.8027 410.198 -96.0116 402.364C-105.281 406.736 -114.598 410.954 -123.961 415.02C-134.859 404.122 -145.758 393.223 -156.656 382.325C-156.999 380.16 -156.647 378.05 -155.601 375.997C-152.117 368.5 -148.777 360.941 -145.582 353.321C-153.595 339.65 -159.221 325.061 -162.457 309.551C-172.075 306.462 -181.567 302.946 -190.933 299.004C-191.988 282.848 -192.339 266.676 -191.988 250.489C-183.471 247.816 -175.034 244.828 -166.676 241.524C-164.589 241.017 -163.184 239.787 -162.457 237.833C-158.474 223.418 -152.85 209.707 -145.582 196.7C-148.98 188.144 -152.672 179.707 -156.656 171.387C-157.36 169.981 -157.36 168.574 -156.656 167.169C-146.285 156.798 -135.914 146.426 -125.543 136.055C-124.137 135.352 -122.73 135.352 -121.324 136.055C-113.005 140.04 -104.567 143.731 -96.0116 147.13C-82.809 139.917 -68.922 134.291 -54.3514 130.255C-49.1919 120.944 -45.1493 111.1 -42.2225 100.723ZM-28.5116 173.497C21.9584 171.801 57.2904 193.949 77.4845 239.942C91.3863 285.761 80.3121 324.257 44.2618 355.43C2.25681 384.204 -39.5784 383.853 -81.246 354.376C-119.248 319.607 -128.565 278.298 -109.195 230.45C-91.7464 198.056 -64.8519 179.072 -28.5116 173.497Z" fill="#E3E6ED"/>
<path opacity="0.923" fill-rule="evenodd" clip-rule="evenodd" d="M-11.6369 227.285C-4.38808 225.627 0.182941 228.263 2.074 235.195C-5.2371 263.208 -12.796 291.158 -20.6018 319.043C-26.3878 324.928 -31.6612 324.576 -36.4221 317.988C-37.1256 315.175 -37.1256 312.363 -36.4221 309.55C-29.3652 282.726 -21.9824 256.008 -14.2737 229.394C-13.2242 228.797 -12.3457 228.094 -11.6369 227.285Z" fill="#E3E6ED"/>
<path opacity="0.914" fill-rule="evenodd" clip-rule="evenodd" d="M11.5664 236.777C14.5311 237.121 17.3439 238 20.0039 239.414C30.9452 249.303 42.1945 258.795 53.7539 267.891C58.2605 274.443 57.2058 280.068 50.5898 284.766C39.735 293.158 29.1881 301.946 18.9492 311.133C7.41828 314.717 3.0234 310.674 5.76558 299.004C14.5923 290.468 23.9083 282.558 33.7148 275.273C24.3987 267.363 15.0816 259.453 5.76558 251.543C2.765 244.553 4.69824 239.63 11.5664 236.777Z" fill="#E3E6ED"/>
<path opacity="0.932" fill-rule="evenodd" clip-rule="evenodd" d="M-210.973 421.348C-193.866 423.086 -176.991 426.074 -160.348 430.312C-154.723 435.235 -154.723 440.156 -160.348 445.078C-162.14 446.089 -164.074 446.616 -166.149 446.66C-171.21 445.434 -176.307 444.906 -181.442 445.078C-119.957 500.885 -48.2387 520.924 33.7147 505.195C87.0471 492.436 130.993 465.014 165.551 422.93C177.74 419.651 182.135 424.044 178.734 436.113C110.525 513.343 25.6231 541.995 -75.9728 522.07C-121.495 511.006 -161.046 489.384 -194.625 457.207C-194.453 462.455 -193.925 467.729 -193.043 473.027C-194.614 480.501 -199.184 483.138 -206.754 480.938C-209.89 478.356 -211.472 475.016 -211.5 470.918C-213.082 457.558 -214.664 444.2 -216.246 430.84C-216.376 426.521 -214.618 423.357 -210.973 421.348Z" fill="#E3E6ED"/>
</g>
</svg>
