<svg width="176" height="194" viewBox="0 0 176 194" fill="none" xmlns="http://www.w3.org/2000/svg">
<g opacity="0.937">
<path fill-rule="evenodd" clip-rule="evenodd" d="M86.6084 0.257812C87.6137 0.257812 88.6187 0.257812 89.624 0.257812C89.9851 0.808767 90.4247 1.31137 90.9434 1.76562C91.1948 6.54038 91.1948 11.3151 90.9434 16.0898C89.7857 17.8988 88.215 18.3386 86.2314 17.4092C85.7787 17.069 85.4643 16.6292 85.2891 16.0898C85.0376 11.3151 85.0376 6.54038 85.2891 1.76562C85.6781 1.19013 86.118 0.687528 86.6084 0.257812Z" fill="#031555"/>
<path fill-rule="evenodd" clip-rule="evenodd" d="M62.4833 6.66601C63.875 6.46667 65.0684 6.84363 66.0644 7.79686C68.4441 11.803 70.6432 15.8867 72.661 20.0478C71.5143 23.0747 69.6296 23.6401 67.0067 21.7441C64.5332 17.8922 62.397 13.8714 60.5985 9.68163C60.6634 8.28962 61.2917 7.28443 62.4833 6.66601Z" fill="#031555"/>
<path fill-rule="evenodd" clip-rule="evenodd" d="M111.488 6.66604C114.563 6.4108 115.882 7.79294 115.446 10.8125C113.321 15.0053 110.87 18.9633 108.095 22.6865C104.563 23.214 103.244 21.769 104.137 18.3516C106.251 14.1816 108.701 10.2864 111.488 6.66604Z" fill="#031555"/>
<path fill-rule="evenodd" clip-rule="evenodd" d="M44.0125 24.7598C45.0254 24.6979 46.0307 24.7608 47.0282 24.9483C51.0174 27.036 54.8496 29.3606 58.5252 31.9219C59.3884 35.4232 58.0691 36.8682 54.5672 36.2568C51.0491 34.2464 47.5306 32.236 44.0125 30.2256C42.0267 28.4051 42.0267 26.5832 44.0125 24.7598Z" fill="#031555"/>
<path fill-rule="evenodd" clip-rule="evenodd" d="M129.204 24.7598C132.786 24.38 134.105 25.8878 133.162 29.2832C129.486 31.8445 125.654 34.1691 121.665 36.2568C118.163 36.8682 116.844 35.4232 117.707 31.9219C121.468 29.3835 125.301 26.9961 129.204 24.7598Z" fill="#031555"/>
<path fill-rule="evenodd" clip-rule="evenodd" d="M91.1317 193.258C89.1214 193.258 87.1107 193.258 85.1004 193.258C80.9566 191.586 77.5011 188.948 74.7342 185.342C50.8607 153.426 26.9868 121.511 3.11313 89.5957C-0.927502 82.2968 -0.550549 75.2606 4.24399 68.4863C10.2124 61.7641 16.1809 55.0415 22.1493 48.3193C28.0482 43.4879 34.8334 40.9752 42.5047 40.7803C72.9124 40.5288 103.32 40.5288 133.727 40.7803C143.478 41.0389 151.457 44.871 157.664 52.2773C159.032 56.1438 157.713 57.7145 153.706 56.9893C152.436 55.8452 151.305 54.5888 150.313 53.2197C148.902 52.1058 147.457 51.0375 145.978 50.0156C141.141 58.6855 136.303 67.3555 131.466 76.0254C144.028 76.4023 156.593 76.5279 169.161 76.4023C169.065 75.4539 168.75 74.5741 168.219 73.7637C165.868 71.1951 163.606 68.5564 161.433 65.8477C160.652 61.8629 162.222 60.5435 166.145 61.8896C168.596 64.8423 171.046 67.7954 173.496 70.748C176.91 78.1194 176.282 85.1559 171.611 91.8574C161.885 104.964 152.021 117.969 142.02 130.872C138.013 131.597 136.694 130.027 138.062 126.16C147.361 113.846 156.659 101.533 165.957 89.2188C167.501 87.0731 168.695 84.7488 169.538 82.2451C155.84 81.9311 142.144 81.9937 128.45 82.4336C117.777 115.212 107.285 148.007 96.9745 180.818C108.051 166.349 118.983 151.774 129.769 137.092C131.028 136.03 132.473 135.716 134.104 136.149C135.518 137.37 135.832 138.814 135.047 140.484C123.361 156.065 111.676 171.646 99.9901 187.227C97.5418 190.047 94.5887 192.058 91.1317 193.258ZM42.5047 46.6231C55.0705 46.5601 67.6354 46.6231 80.2 46.8115C70.5757 56.0593 60.8378 65.1691 50.9862 74.1406C46.0228 65.4707 41.0599 56.8008 36.0965 48.1309C38.1999 47.3102 40.3361 46.8074 42.5047 46.6231ZM96.0321 47C108.533 46.5612 121.098 46.4983 133.727 46.8115C135.968 46.8081 138.105 47.248 140.136 48.1309C135.363 56.9237 130.4 65.5936 125.246 74.1406C115.444 65.1548 105.706 56.1079 96.0321 47ZM87.7391 48.1309C98.1845 57.1284 108.362 66.4892 118.272 76.2139C98.1683 76.4653 78.0639 76.4653 57.9598 76.2139C67.8469 66.7652 77.7732 57.4043 87.7391 48.1309ZM30.0653 50.0156C35.0509 58.6007 39.9513 67.2707 44.7665 76.0254C32.2037 76.4023 19.6388 76.5279 7.07114 76.4023C7.35846 74.8225 8.04956 73.4402 9.14438 72.2559C14.673 65.9732 20.2017 59.6909 25.7303 53.4082C27.1672 52.2246 28.6122 51.0937 30.0653 50.0156ZM6.69419 82.4336C20.3282 81.9322 34.024 81.9322 47.7821 82.4336C58.4555 115.212 68.9476 148.007 79.2577 180.818C56.2635 150.285 33.2694 119.752 10.2752 89.2188C8.76932 87.0848 7.57562 84.8231 6.69419 82.4336ZM54.1903 82.0566C76.809 81.9311 99.4262 82.0566 122.042 82.4336C110.807 117.396 99.4982 152.327 88.1161 187.227C76.6563 152.22 65.3477 117.163 54.1903 82.0566Z" fill="#031555"/>
</g>
</svg>
