<svg width="60" height="60" viewBox="0 0 60 60" fill="none" xmlns="http://www.w3.org/2000/svg">
<g opacity="0.99">
<path fill-rule="evenodd" clip-rule="evenodd" d="M20.7422 0C21.9141 0 23.0859 0 24.2578 0C30.3581 1.25345 33.9323 4.96439 34.9805 11.1328C35.292 17.4182 32.5771 21.8127 26.8359 24.3164C21.207 26.0071 16.4609 24.6594 12.5977 20.2734C10.0284 16.8014 9.32532 12.9734 10.4883 8.78906C12.2343 3.89788 15.6523 0.96819 20.7422 0Z" fill="white"/>
<path fill-rule="evenodd" clip-rule="evenodd" d="M0 51.3281C0 47.6171 0 43.9063 0 40.1953C1.15037 34.5723 4.54881 31.1934 10.1953 30.0586C18.3989 29.8304 26.602 29.8304 34.8047 30.0586C35.4251 30.1119 36.011 30.2681 36.5625 30.5273C34.9252 31.7101 33.7533 33.2531 33.0469 35.1562C29.4571 35.8361 26.9767 37.8674 25.6055 41.25C25.3938 41.9011 25.2376 42.5651 25.1367 43.2422C25.0781 46.3279 25.0586 49.4139 25.0781 52.5C17.1093 52.5196 9.14053 52.5 1.17188 52.4414C0.642192 52.2045 0.251566 51.8333 0 51.3281Z" fill="white"/>
<path fill-rule="evenodd" clip-rule="evenodd" d="M40.8984 33.75C43.6331 33.7304 46.3675 33.75 49.1016 33.8086C50.8789 34.2578 51.9922 35.3711 52.4414 37.1484C52.5 38.0851 52.5195 39.0226 52.5 39.9609C53.8287 39.9414 55.1569 39.9609 56.4844 40.0195C57.4038 40.2056 58.1851 40.6353 58.8281 41.3086C54.2698 43.8027 49.6604 46.205 45 48.5156C40.3396 46.205 35.7302 43.8027 31.1719 41.3086C31.8149 40.6353 32.5962 40.2056 33.5156 40.0195C34.8431 39.9609 36.1713 39.9414 37.5 39.9609C36.9074 36.8848 38.0401 34.8145 40.8984 33.75ZM41.8359 37.5C43.9457 37.4804 46.055 37.5 48.1641 37.5586C48.469 37.6682 48.6448 37.883 48.6914 38.2031C48.7499 38.7878 48.7695 39.3737 48.75 39.9609C46.25 39.9609 43.75 39.9609 41.25 39.9609C41.2305 39.3737 41.2501 38.7878 41.3086 38.2031C41.3788 37.8804 41.5546 37.646 41.8359 37.5Z" fill="white"/>
<path fill-rule="evenodd" clip-rule="evenodd" d="M60 44.8828C60 48.789 60 52.6954 60 56.6016C59.4922 58.3594 58.3594 59.4922 56.6016 60C48.8672 60 41.1328 60 33.3984 60C31.6424 59.5134 30.5291 58.3806 30.0586 56.6016C29.961 52.6948 29.9804 48.7884 30.1172 44.8828C34.8643 47.3932 39.63 49.8736 44.4141 52.3242C44.8046 52.4024 45.1954 52.4024 45.5859 52.3242C50.3968 49.8407 55.2015 47.3603 60 44.8828Z" fill="white"/>
</g>
</svg>
