<svg width="54" height="54" viewBox="0 0 54 54" fill="none" xmlns="http://www.w3.org/2000/svg">
<g clip-path="url(#clip0_28_793)">
<g opacity="0.929">
<path fill-rule="evenodd" clip-rule="evenodd" d="M9.68224 0.0053207C15.3282 -0.133173 19.0974 2.432 20.99 7.70082C21.4124 9.40443 21.5387 11.1285 21.369 12.8732C28.0232 19.5175 34.6772 26.1616 41.3313 32.8058C46.8025 32.0889 50.7612 34.1915 53.2076 39.1136C54.1174 41.471 54.2438 43.8679 53.5866 46.3045C53.4725 46.8476 53.2408 47.3313 52.8918 47.7553C52.4284 48.0076 51.9653 48.0076 51.502 47.7553C50.0279 46.2834 48.554 44.8117 47.0799 43.3398C45.6405 42.4604 44.356 42.6496 43.2265 43.9075C42.6167 44.9872 42.6589 46.0386 43.3528 47.0614C44.8269 48.5333 46.3008 50.005 47.7748 51.4769C48.0658 52.0494 48.0026 52.5751 47.5853 53.0538C42.8435 54.8403 38.6953 53.9362 35.1405 50.3415C33.0199 47.6343 32.1777 44.5646 32.6136 41.1321C26.0226 34.5509 19.4318 27.9699 12.8408 21.3887C8.52304 21.9291 4.96442 20.5624 2.16479 17.2887C-0.141926 14.0012 -0.605177 10.4688 0.775013 6.69158C1.20031 6.04705 1.76886 5.89986 2.48065 6.25003C4.08878 7.94014 5.77336 9.53816 7.5344 11.044C9.29222 11.5226 10.4925 10.9128 11.1352 9.21469C11.2849 8.38333 11.1165 7.62639 10.6298 6.94389C9.15576 5.47207 7.68184 4.00026 6.20779 2.52844C5.93401 1.96121 5.99719 1.43556 6.3973 0.951489C7.46213 0.47597 8.55715 0.160581 9.68224 0.0053207Z" fill="#031555"/>
<path fill-rule="evenodd" clip-rule="evenodd" d="M42.4052 0.00532079C43.5546 -0.0208439 44.6917 0.0842817 45.8165 0.32071C46.4241 0.417346 46.7611 0.774783 46.8273 1.39303C46.7555 1.76545 46.6082 2.10187 46.3851 2.40228C44.7005 4.08435 43.0159 5.76644 41.3313 7.44851C41.4983 8.89237 41.7721 10.3222 42.1525 11.7378C43.3921 12.1078 44.6555 12.4232 45.9429 12.684C46.1955 12.7681 46.4482 12.7681 46.7009 12.684C48.4697 10.9178 50.2385 9.15162 52.0073 7.38543C53.0864 7.11139 53.6971 7.55297 53.8393 8.71007C54.5221 14.2658 52.3531 18.2398 47.3326 20.6318C46.055 21.1422 44.7284 21.3736 43.3528 21.3256C42.3955 21.3128 41.4479 21.2497 40.5101 21.1364C39.1817 22.4839 37.834 23.8085 36.4671 25.1103C33.8981 22.6292 31.3713 20.1061 28.8865 17.541C30.1902 16.1761 31.5168 14.8304 32.8663 13.504C31.9051 8.38257 33.5685 4.36656 37.8569 1.45611C39.2955 0.675675 40.8117 0.192082 42.4052 0.00532079Z" fill="#031555"/>
<path fill-rule="evenodd" clip-rule="evenodd" d="M17.3892 28.895C19.9896 31.302 22.5376 33.7832 25.033 36.3382C25.1173 36.4223 25.1173 36.5064 25.033 36.5905C22.2955 39.3239 19.5581 42.0572 16.8207 44.7906C16.7267 50.3299 13.9261 53.3997 8.4188 54C4.05796 53.7455 1.29947 51.5168 0.143295 47.3137C-0.439768 43.2011 1.05529 40.1102 4.62849 38.0413C6.07704 37.4072 7.59315 37.1128 9.17686 37.1582C11.9397 34.4205 14.6772 31.666 17.3892 28.895ZM7.5344 41.6367C10.4408 41.4065 12.0833 42.7311 12.4618 45.6106C12.009 48.4185 10.3665 49.7221 7.5344 49.5215C5.23258 48.778 4.20078 47.2011 4.43898 44.7906C4.90764 43.1664 5.93945 42.1151 7.5344 41.6367Z" fill="#031555"/>
<path fill-rule="evenodd" clip-rule="evenodd" d="M7.66074 43.6552C9.24067 43.4059 10.1673 44.0577 10.4403 45.6106C9.93695 47.5032 8.79985 48.0079 7.02902 47.1245C6.38658 46.4016 6.23917 45.5816 6.58682 44.6645C6.84883 44.2132 7.20681 43.8768 7.66074 43.6552Z" fill="#031555"/>
</g>
</g>
<defs>
<clipPath id="clip0_28_793">
<rect width="54" height="54" fill="white"/>
</clipPath>
</defs>
</svg>
