<svg width="80" height="31" viewBox="0 0 80 31" fill="none" xmlns="http://www.w3.org/2000/svg">
<path d="M30.8854 4.18133C30.8854 6.1114 29.3208 7.67602 27.3907 7.67602C25.4607 7.67602 23.8961 6.1114 23.8961 4.18133C23.8961 2.25127 25.4607 0.686646 27.3907 0.686646C29.3208 0.686646 30.8854 2.25127 30.8854 4.18133Z" fill="white"/>
<path d="M6.10101 8.31825C5.77851 8.31825 5.51707 8.57969 5.51707 8.9022V18.7684C5.51707 19.0909 5.77851 19.3524 6.10101 19.3524H11.0341C11.7902 19.3524 12.5015 19.2114 13.1679 18.9295C13.8343 18.6347 14.4174 18.2374 14.9172 17.7376C15.417 17.2378 15.8079 16.6547 16.0898 15.9883C16.3846 15.3091 16.532 14.5914 16.532 13.8353C16.532 13.0792 16.3846 12.3679 16.0898 11.7015C15.8079 11.0223 15.417 10.4328 14.9172 9.933C14.4174 9.4332 13.8343 9.04233 13.1679 8.76039C12.5015 8.46563 11.7902 8.31825 11.0341 8.31825H6.10101ZM5.51707 29.7834C5.51707 30.1059 5.25562 30.3673 4.93312 30.3673H0.583943C0.26144 30.3673 0 30.1059 0 29.7834V3.38513C0 3.06263 0.26144 2.80119 0.583944 2.80119H11.0341C12.0466 2.80119 13.0205 2.93575 13.9561 3.20488C14.8916 3.46118 15.763 3.83283 16.5704 4.31982C17.3906 4.794 18.1339 5.37069 18.8003 6.04991C19.4795 6.71632 20.0562 7.45962 20.5304 8.27981C21.0174 9.1 21.389 9.97786 21.6454 10.9134C21.9145 11.8489 22.049 12.8229 22.049 13.8353C22.049 15.3475 21.7607 16.7765 21.184 18.1221C20.6073 19.4549 19.8191 20.6211 18.8195 21.6207C17.8199 22.6203 16.6473 23.4085 15.3017 23.9852C13.9689 24.5619 12.5464 24.8502 11.0341 24.8502H6.10101C5.77851 24.8502 5.51707 25.1117 5.51707 25.4342V29.7834Z" fill="white"/>
<path d="M30.0267 29.7833C30.0267 30.1059 29.7652 30.3673 29.4427 30.3673H25.3242C25.0017 30.3673 24.7403 30.1059 24.7403 29.7834V10.3632C24.7403 10.0407 25.0017 9.77922 25.3242 9.77922H29.4427C29.7652 9.77922 30.0267 10.0407 30.0267 10.3632V29.7833Z" fill="white"/>
<path d="M39.2923 29.7834C39.2923 30.1059 39.0308 30.3673 38.7083 30.3673H34.6283C34.3058 30.3673 34.0443 30.1059 34.0443 29.7834V10.3632C34.0443 10.0407 34.3058 9.77922 34.6283 9.77922H35.0112C35.2005 9.77922 35.3781 9.87104 35.4876 10.0255L36.6619 11.6825C36.8645 11.9685 37.2709 12.0113 37.5466 11.7948C38.2649 11.2304 39.0582 10.7829 39.9266 10.452C41.0031 10.0291 42.1181 9.81767 43.2715 9.81767H47.3203C47.6428 9.81767 47.9043 10.0791 47.9043 10.4016V14.4624C47.9043 14.7849 47.6428 15.0464 47.3203 15.0464H43.2715C42.7204 15.0464 42.2014 15.1489 41.7144 15.354C41.2274 15.559 40.8045 15.8409 40.4457 16.1998C40.0868 16.5586 39.8049 16.9815 39.5998 17.4685C39.3948 17.9555 39.2923 18.4745 39.2923 19.0256V29.7834Z" fill="white"/>
<path d="M69.8956 29.7833C69.8956 30.1059 69.6342 30.3673 69.3117 30.3673H68.9258C68.7381 30.3673 68.5619 30.2771 68.4521 30.1249L66.9693 28.0685C66.7663 27.787 66.3644 27.7443 66.0974 27.966C65.7442 28.2592 65.3764 28.5406 64.9937 28.8102C64.4427 29.1947 63.8595 29.5343 63.2444 29.829C62.6293 30.111 61.9949 30.3353 61.3413 30.5019C60.7005 30.6685 60.0469 30.7518 59.3805 30.7518C57.9324 30.7518 56.5675 30.5083 55.286 30.0213C54.0173 29.5343 52.9023 28.8294 51.9412 27.9067C50.9928 26.9712 50.2431 25.8306 49.692 24.485C49.141 23.1394 48.8654 21.6079 48.8654 19.8906C48.8654 18.2887 49.141 16.8213 49.692 15.4885C50.2431 14.1429 50.9928 12.9895 51.9412 12.0283C52.9023 11.0672 54.0173 10.3239 55.286 9.79844C56.5675 9.26019 57.9324 8.99107 59.3805 8.99107C60.0469 8.99107 60.7069 9.07437 61.3605 9.24097C62.0141 9.40757 62.6485 9.63825 63.2636 9.933C63.8788 10.2278 64.4619 10.5738 65.0129 10.9711C65.4031 11.246 65.7749 11.5362 66.1282 11.8418C66.3831 12.0621 66.7718 12.0403 66.9877 11.7816L68.4518 10.0274C68.5628 9.8945 68.727 9.81767 68.9001 9.81767H69.3117C69.6342 9.81767 69.8956 10.0791 69.8956 10.4016V29.7833ZM64.6093 19.8906C64.6093 19.173 64.4683 18.4809 64.1863 17.8145C63.9172 17.1353 63.5456 16.5394 63.0714 16.0268C62.5972 15.5013 62.0397 15.0848 61.399 14.7773C60.771 14.4569 60.0982 14.2967 59.3805 14.2967C58.6629 14.2967 57.9836 14.4184 57.3429 14.6619C56.7149 14.9054 56.1638 15.2642 55.6897 15.7384C55.2283 16.2126 54.8631 16.8021 54.594 17.507C54.3248 18.199 54.1903 18.9936 54.1903 19.8906C54.1903 20.7877 54.3248 21.5887 54.594 22.2935C54.8631 22.9856 55.2283 23.5687 55.6897 24.0429C56.1638 24.517 56.7149 24.8759 57.3429 25.1194C57.9836 25.3628 58.6629 25.4846 59.3805 25.4846C60.0982 25.4846 60.771 25.3308 61.399 25.0232C62.0397 24.7029 62.5972 24.2863 63.0714 23.7737C63.5456 23.2483 63.9172 22.6524 64.1863 21.986C64.4683 21.3067 64.6093 20.6083 64.6093 19.8906Z" fill="white"/>
<path d="M79.1997 29.7833C79.1997 30.1059 78.9382 30.3673 78.6157 30.3673H74.4972C74.1747 30.3673 73.9133 30.1059 73.9133 29.7834V10.3632C73.9133 10.0407 74.1747 9.77922 74.4972 9.77922H78.6157C78.9382 9.77922 79.1997 10.0407 79.1997 10.3632V29.7833Z" fill="white"/>
<path fill-rule="evenodd" clip-rule="evenodd" d="M76.5053 7.67602C78.4354 7.67602 80 6.1114 80 4.18133C80 2.25127 78.4354 0.686646 76.5053 0.686646C74.5752 0.686646 73.0106 2.25127 73.0106 4.18133C73.0106 6.1114 74.5752 7.67602 76.5053 7.67602ZM76.4581 6.63706C77.7883 6.63706 78.8666 5.55874 78.8666 4.22856C78.8666 2.89838 77.7883 1.82006 76.4581 1.82006C75.1279 1.82006 74.0496 2.89838 74.0496 4.22856C74.0496 5.55874 75.1279 6.63706 76.4581 6.63706Z" fill="white"/>
</svg>
