<svg width="54" height="54" viewBox="0 0 54 54" fill="none" xmlns="http://www.w3.org/2000/svg">
<g clip-path="url(#clip0_28_795)">
<path fill-rule="evenodd" clip-rule="evenodd" d="M26.0508 0C26.6836 0 27.3164 0 27.9492 0C30.9503 1.00814 32.1632 3.08237 31.5879 6.22266C31.1153 7.7501 30.1309 8.80478 28.6348 9.38672C28.582 11.5661 28.5644 13.7458 28.582 15.9258C30.6914 15.9258 32.8008 15.9258 34.9102 15.9258C34.8925 14.1325 34.9102 12.3395 34.9629 10.5469C35.5063 9.60032 36.2973 9.33665 37.3359 9.75586C37.6495 9.94199 37.878 10.2057 38.0215 10.5469C38.0742 12.3395 38.0918 14.1325 38.0742 15.9258C39.4457 15.9434 40.8168 15.9258 42.1875 15.873C43.1016 14.9589 44.0156 14.045 44.9297 13.1309C43.9507 10.3719 44.7242 8.26253 47.25 6.80273C50.5631 5.80505 52.8131 6.91247 54 10.125C54 10.8282 54 11.5312 54 12.2344C52.8195 15.4524 50.587 16.5424 47.3027 15.5039C46.1184 16.7588 44.8703 17.9365 43.5586 19.0371C41.7308 19.0898 39.9027 19.1075 38.0742 19.0898C38.0742 21.1992 38.0742 23.3086 38.0742 25.418C40.2894 25.4356 42.5042 25.418 44.7188 25.3652C46.0891 22.5638 48.2687 21.6497 51.2578 22.623C52.634 23.3566 53.5481 24.464 54 25.9453C54 26.6485 54 27.3515 54 28.0547C52.9691 30.944 50.9301 32.1218 47.8828 31.5879C46.3554 31.1153 45.3007 30.1309 44.7188 28.6348C42.5042 28.582 40.2894 28.5644 38.0742 28.582C38.0742 30.6914 38.0742 32.8008 38.0742 34.9102C39.9027 34.8925 41.7308 34.9102 43.5586 34.9629C44.8703 36.0635 46.1184 37.2412 47.3027 38.4961C50.587 37.4576 52.8195 38.5476 54 41.7656C54 42.4688 54 43.1718 54 43.875C52.8131 47.0876 50.5631 48.195 47.25 47.1973C44.7242 45.7375 43.9507 43.6281 44.9297 40.8691C44.0156 39.955 43.1016 39.041 42.1875 38.127C40.8168 38.0742 39.4457 38.0566 38.0742 38.0742C38.0918 39.8675 38.0742 41.6605 38.0215 43.4531C37.4781 44.3997 36.6871 44.6634 35.6484 44.2441C35.3349 44.058 35.1063 43.7943 34.9629 43.4531C34.9102 41.6605 34.8925 39.8675 34.9102 38.0742C32.8008 38.0742 30.6914 38.0742 28.582 38.0742C28.5644 40.2542 28.582 42.4339 28.6348 44.6133C31.0077 45.724 32.0273 47.5872 31.6934 50.2031C31.1283 52.1568 29.8801 53.4225 27.9492 54C27.3164 54 26.6836 54 26.0508 54C23.0497 52.9918 21.8368 50.9177 22.4121 47.7773C22.8847 46.2499 23.8691 45.1953 25.3652 44.6133C25.418 42.4339 25.4356 40.2542 25.418 38.0742C23.3086 38.0742 21.1992 38.0742 19.0898 38.0742C19.1075 39.8675 19.0898 41.6605 19.0371 43.4531C18.4937 44.3997 17.7027 44.6634 16.6641 44.2441C16.3505 44.058 16.122 43.7943 15.9785 43.4531C15.9258 41.6605 15.9082 39.8675 15.9258 38.0742C14.5543 38.0566 13.1832 38.0742 11.8125 38.127C10.8984 39.041 9.98438 39.955 9.07031 40.8691C10.0493 43.6281 9.27582 45.7375 6.75 47.1973C3.43695 48.195 1.18696 47.0876 0 43.875C0 43.1718 0 42.4688 0 41.7656C1.1805 38.5476 3.41293 37.4576 6.69727 38.4961C7.8816 37.2412 9.12964 36.0635 10.4414 34.9629C12.2692 34.9102 14.0973 34.8925 15.9258 34.9102C15.9258 32.8008 15.9258 30.6914 15.9258 28.582C13.7106 28.5644 11.4958 28.582 9.28125 28.6348C7.91095 31.4362 5.73126 32.3503 2.74219 31.377C1.36603 30.6434 0.451966 29.536 0 28.0547C0 27.3515 0 26.6485 0 25.9453C1.03084 23.056 3.0699 21.8782 6.11719 22.4121C7.64463 22.8847 8.69932 23.8691 9.28125 25.3652C11.4958 25.418 13.7106 25.4356 15.9258 25.418C15.9258 23.3086 15.9258 21.1992 15.9258 19.0898C14.0973 19.1075 12.2692 19.0898 10.4414 19.0371C9.12964 17.9365 7.8816 16.7588 6.69727 15.5039C3.41293 16.5424 1.1805 15.4524 0 12.2344C0 11.5312 0 10.8282 0 10.125C1.18696 6.91247 3.43695 5.80505 6.75 6.80273C9.27582 8.26253 10.0493 10.3719 9.07031 13.1309C9.98438 14.045 10.8984 14.9589 11.8125 15.873C13.1832 15.9258 14.5543 15.9434 15.9258 15.9258C15.9082 14.1325 15.9258 12.3395 15.9785 10.5469C16.5219 9.60032 17.3129 9.33665 18.3516 9.75586C18.6651 9.94199 18.8937 10.2057 19.0371 10.5469C19.0898 12.3395 19.1075 14.1325 19.0898 15.9258C21.1992 15.9258 23.3086 15.9258 25.418 15.9258C25.4356 13.7458 25.418 11.5661 25.3652 9.38672C22.9923 8.27605 21.9727 6.41276 22.3066 3.79688C22.8717 1.84316 24.1199 0.577536 26.0508 0ZM23.8359 22.2539C25.9456 22.2363 28.055 22.2539 30.1641 22.3066C31.0957 22.3945 31.6055 22.9043 31.6934 23.8359C31.7637 25.9453 31.7637 28.0547 31.6934 30.1641C31.6055 31.0957 31.0957 31.6055 30.1641 31.6934C28.0547 31.7637 25.9453 31.7637 23.8359 31.6934C22.9043 31.6055 22.3945 31.0957 22.3066 30.1641C22.2363 28.0547 22.2363 25.9453 22.3066 23.8359C22.4134 22.9033 22.9231 22.3759 23.8359 22.2539Z" fill="#031555"/>
<path fill-rule="evenodd" clip-rule="evenodd" d="M25.418 25.418C26.4727 25.418 27.5273 25.418 28.582 25.418C28.582 26.4727 28.582 27.5273 28.582 28.582C27.5273 28.582 26.4727 28.582 25.418 28.582C25.418 27.5273 25.418 26.4727 25.418 25.418Z" fill="#031555"/>
</g>
<defs>
<clipPath id="clip0_28_795">
<rect width="54" height="54" fill="white"/>
</clipPath>
</defs>
</svg>
