<svg width="54" height="54" viewBox="0 0 54 54" fill="none" xmlns="http://www.w3.org/2000/svg">
<path opacity="0.93" fill-rule="evenodd" clip-rule="evenodd" d="M17.877 1.00195C19.4783 1.43607 21.0603 1.94585 22.623 2.53125C23.0059 2.85291 23.129 3.2572 22.9922 3.74414C22.0515 5.08332 21.0496 6.36653 19.9863 7.59375C18.8265 7.75574 18.4573 7.28113 18.8789 6.16992C19.2513 5.75889 19.5852 5.31943 19.8809 4.85156C12.461 6.96126 7.24032 11.5843 4.21875 18.7207C2.48793 23.1914 2.10122 27.7617 3.05859 32.4316C3.36088 33.6723 3.69486 34.9027 4.06055 36.123C3.95192 36.9636 3.49489 37.2273 2.68945 36.9141C2.4172 36.5921 2.22384 36.2229 2.10937 35.8066C-0.70536 26.6431 0.876671 18.3462 6.85547 10.916C10.1198 7.23324 14.11 4.64925 18.8262 3.16406C18.4164 2.96861 17.9946 2.79283 17.5605 2.63672C17.0783 1.97166 17.1838 1.42674 17.877 1.00195Z" fill="#031555"/>
<path opacity="0.929" fill-rule="evenodd" clip-rule="evenodd" d="M29.6895 2.47852C37.7578 3.67796 43.8925 7.75609 48.0938 14.7129C51.3055 20.4601 52.2371 26.5597 50.8887 33.0117C50.9238 33.0996 50.959 33.1875 50.9941 33.2754C51.2601 33.0269 51.5413 32.7984 51.8379 32.5898C52.875 32.3613 53.2793 32.7657 53.0508 33.8027C51.941 34.9123 50.7633 35.9493 49.5176 36.9141C49.0822 37.1366 48.6779 37.0839 48.3047 36.7559C47.707 35.3848 47.1094 34.0137 46.5117 32.6426C46.2838 31.6763 46.6529 31.2368 47.6191 31.3242C47.8075 31.407 47.9657 31.53 48.0938 31.6934C48.3479 32.307 48.6292 32.9047 48.9375 33.4863C51.0526 23.7302 48.3631 15.5914 40.8691 9.07031C37.5399 6.47496 33.7782 4.82262 29.584 4.11328C29.0171 3.52291 29.0522 2.97799 29.6895 2.47852Z" fill="#031555"/>
<path opacity="0.975" fill-rule="evenodd" clip-rule="evenodd" d="M23.6777 10.0722C25.2965 10.0371 26.9136 10.0723 28.5293 10.1777C28.9234 11.1144 29.2751 12.0636 29.584 13.0254C31.1226 13.339 32.5639 13.9015 33.9082 14.7129C34.6934 14.4082 35.4668 14.0742 36.2285 13.7109C36.4339 13.6064 36.6448 13.5712 36.8613 13.6054C37.9511 14.6952 39.041 15.7852 40.1309 16.875C39.7243 17.8112 39.3024 18.7429 38.8652 19.6699C39.648 20.9897 40.2281 22.3959 40.6055 23.8886C41.5329 24.3678 42.4997 24.7545 43.5059 25.0488C43.5235 26.6664 43.5059 28.2835 43.4531 29.9004C42.5039 30.2871 41.5547 30.6738 40.6055 31.0605C40.2287 32.5522 39.6487 33.9584 38.8652 35.2793C39.2446 36.2313 39.6665 37.1629 40.1309 38.0742C38.9883 39.2167 37.8457 40.3594 36.7031 41.5019C35.7777 41.0702 34.8461 40.6484 33.9082 40.2363C32.5906 41.0389 31.1844 41.6365 29.6895 42.0293C29.2625 42.9225 28.8758 43.8366 28.5293 44.7715C26.9121 44.912 25.2949 44.912 23.6777 44.7715C23.3319 43.817 22.9451 42.8852 22.5176 41.9765C21.0259 41.5998 19.6197 41.0197 18.2988 40.2363C17.3719 40.6735 16.4402 41.0953 15.5039 41.5019C14.4141 40.4121 13.3242 39.3222 12.2344 38.2324C12.2001 38.0159 12.2353 37.8049 12.3398 37.5996C12.6883 36.8499 13.0223 36.094 13.3418 35.332C12.5404 33.9649 11.9779 32.506 11.6543 30.955C10.6925 30.6461 9.74333 30.2945 8.80664 29.9004C8.70124 28.2847 8.66608 26.6675 8.70117 25.0488C9.55289 24.7815 10.3966 24.4827 11.2324 24.1523C11.441 24.1016 11.5816 23.9786 11.6543 23.7832C12.0525 22.3417 12.615 20.9706 13.3418 19.6699C13.002 18.8143 12.6328 17.9706 12.2344 17.1386C12.164 16.998 12.164 16.8574 12.2344 16.7168C13.2715 15.6797 14.3086 14.6425 15.3457 13.6054C15.4863 13.5351 15.627 13.5351 15.7676 13.6054C16.5995 14.0039 17.4433 14.373 18.2988 14.7129C19.6191 13.9916 21.0078 13.429 22.4648 13.0254C22.9808 12.0943 23.3851 11.1099 23.6777 10.0722ZM25.0488 17.3496C30.0958 17.18 33.629 19.3948 35.6484 23.9941C37.0386 28.576 35.9312 32.4256 32.3262 35.5429C28.1257 38.4203 23.9421 38.3852 19.7754 35.4375C15.9751 31.9606 15.0435 27.8297 16.9805 23.0449C18.7253 19.8055 21.4148 17.9071 25.0488 17.3496Z" fill="#031555"/>
<path opacity="0.923" fill-rule="evenodd" clip-rule="evenodd" d="M26.7363 22.7284C27.4612 22.5626 27.9183 22.8263 28.1074 23.5194C27.3763 26.3208 26.6204 29.1157 25.8398 31.9042C25.2612 32.4927 24.7339 32.4576 24.2578 31.7987C24.1875 31.5174 24.1875 31.2363 24.2578 30.955C24.9635 28.2726 25.7018 25.6008 26.4727 22.9394C26.5776 22.8797 26.6655 22.8093 26.7363 22.7284Z" fill="#031555"/>
<path opacity="0.918" fill-rule="evenodd" clip-rule="evenodd" d="M22.834 23.6777C23.6215 23.7443 23.9555 24.1662 23.8359 24.9434C23.7176 25.1674 23.5594 25.3607 23.3613 25.5234C22.5698 26.1571 21.7964 26.8075 21.041 27.4746C21.9884 28.2988 22.92 29.1426 23.8359 30.0059C23.9492 31.1189 23.4746 31.488 22.4121 31.1133C21.318 30.1244 20.193 29.1752 19.0371 28.2656C18.7399 27.9136 18.652 27.5093 18.7734 27.0527C20.057 25.8199 21.4106 24.6949 22.834 23.6777Z" fill="#031555"/>
<path opacity="0.914" fill-rule="evenodd" clip-rule="evenodd" d="M29.0566 23.6777C29.3531 23.7121 29.6344 23.8 29.9004 23.9414C30.9945 24.9303 32.1194 25.8795 33.2754 26.7891C33.7261 27.4443 33.6206 28.0068 32.959 28.4766C31.8735 29.3158 30.8188 30.1946 29.7949 31.1133C28.6418 31.4717 28.2023 31.0674 28.4766 29.9004C29.3592 29.0468 30.2908 28.2558 31.2715 27.5273C30.3399 26.7363 29.4082 25.9453 28.4766 25.1543C28.1765 24.4552 28.3698 23.963 29.0566 23.6777Z" fill="#031555"/>
<path opacity="0.932" fill-rule="evenodd" clip-rule="evenodd" d="M6.80273 42.1348C8.51338 42.3086 10.2009 42.6074 11.8652 43.0313C12.4277 43.5235 12.4277 44.0156 11.8652 44.5078C11.686 44.6089 11.4926 44.6616 11.2852 44.666C10.779 44.5434 10.2693 44.4906 9.75586 44.5078C15.9043 50.0885 23.0761 52.0924 31.2715 50.5195C36.6047 49.2436 40.9993 46.5014 44.4551 42.293C45.674 41.9651 46.1135 42.4044 45.7734 43.6113C38.9526 51.3343 30.4623 54.1995 20.3027 52.207C15.7505 51.1006 11.7954 48.9384 8.4375 45.7207C8.45473 46.2455 8.50747 46.7729 8.5957 47.3027C8.43862 48.0501 7.98159 48.3138 7.22461 48.0938C6.911 47.8356 6.75279 47.5016 6.75 47.0918C6.5918 45.7558 6.43359 44.42 6.27539 43.084C6.26241 42.6521 6.43818 42.3357 6.80273 42.1348Z" fill="#031555"/>
</svg>
