<svg width="54" height="54" viewBox="0 0 54 54" fill="none" xmlns="http://www.w3.org/2000/svg">
<path opacity="0.99" fill-rule="evenodd" clip-rule="evenodd" d="M10.4941 2.68945C17.7012 2.67187 24.9082 2.68945 32.1152 2.74219C35.294 3.24906 37.1397 5.09476 37.6523 8.2793C37.7402 10.7762 37.7226 13.2722 37.5996 15.7676C36.1753 16.1529 35.2084 17.0317 34.6992 18.4043C34.3333 19.5371 33.9466 20.6622 33.5391 21.7793C32.8419 18.8554 31.0313 17.748 28.1074 18.457C27.7028 18.6768 27.3161 18.9229 26.9473 19.1953C24.9897 21.0825 23.1088 23.0336 21.3047 25.0488C20.5392 26.6753 20.715 28.1869 21.832 29.584C23.5371 31.2891 25.2422 32.9941 26.9473 34.6992C27.7968 35.4104 28.7812 35.7795 29.9004 35.8066C31.3459 38.2515 33.3146 38.7964 35.8066 37.4414C36.733 36.5908 37.3483 35.5537 37.6523 34.3301C37.7538 38.3062 37.7187 42.2789 37.5469 46.248C36.8229 49.0806 35.0124 50.7154 32.1152 51.1523C24.9082 51.2227 17.7011 51.2227 10.4941 51.1523C7.60404 50.6528 5.79349 48.983 5.0625 46.1426C4.99218 33.3457 4.99218 20.5488 5.0625 7.75195C5.81188 4.91034 7.62242 3.22284 10.4941 2.68945ZM12.3926 6.27539C18.3165 6.13497 24.2579 6.13497 30.2168 6.27539C29.6822 7.58046 29.1372 8.88124 28.582 10.1777C27.9059 11.1401 26.9742 11.6499 25.7871 11.707C22.7989 11.7774 19.8105 11.7774 16.8223 11.707C15.6967 11.6628 14.8002 11.1882 14.1328 10.2832C13.54 8.94096 12.9599 7.60503 12.3926 6.27539ZM16.8223 42.1348C19.8459 42.1171 22.8693 42.1348 25.8926 42.1875C27.2658 42.5259 27.7053 43.3521 27.2109 44.666C26.8796 45.1867 26.4049 45.4504 25.7871 45.457C22.7989 45.5274 19.8105 45.5274 16.8223 45.457C15.3622 45.1209 14.9228 44.2595 15.5039 42.873C15.8692 42.4712 16.3087 42.225 16.8223 42.1348Z" fill="#031555"/>
<path opacity="0.959" fill-rule="evenodd" clip-rule="evenodd" d="M37.8105 17.8769C39.4266 17.7529 40.1824 18.4912 40.0781 20.0917C38.3972 25.2051 36.6744 30.3027 34.9102 35.3847C34.1179 36.1161 33.2565 36.204 32.3262 35.6484C31.8362 35.0882 31.678 34.4379 31.8516 33.6972C33.5039 28.7402 35.1562 23.7832 36.8086 18.8261C37.0624 18.414 37.3963 18.0975 37.8105 17.8769Z" fill="#031555"/>
<path opacity="0.958" fill-rule="evenodd" clip-rule="evenodd" d="M29.1621 20.3028C30.463 20.1787 31.2012 20.7587 31.377 22.043C31.3386 22.4969 31.1804 22.9012 30.9023 23.2559C29.6704 24.4703 28.4575 25.7008 27.2637 26.9473C28.4575 28.1939 29.6704 29.4244 30.9023 30.6387C31.4805 31.3861 31.5157 32.1595 31.0078 32.959C30.307 33.6425 29.516 33.7656 28.6348 33.3282C26.8242 31.5176 25.0137 29.7071 23.2031 27.8965C22.8516 27.2637 22.8516 26.6309 23.2031 25.9981C25.0137 24.1875 26.8242 22.377 28.6348 20.5665C28.8262 20.4866 29.0019 20.3988 29.1621 20.3028Z" fill="#031555"/>
<path opacity="0.956" fill-rule="evenodd" clip-rule="evenodd" d="M41.8184 20.3027C42.3364 20.2566 42.8285 20.3444 43.2949 20.5663C45.0703 22.3417 46.8457 24.1172 48.6211 25.8925C48.9726 26.5957 48.9726 27.2987 48.6211 28.0019C46.8457 29.7772 45.0703 31.5527 43.2949 33.3281C41.7694 33.9367 40.8553 33.4446 40.5527 31.8515C40.5596 31.5782 40.6123 31.3146 40.7109 31.0605C42.0101 29.6734 43.3285 28.3023 44.666 26.9472C43.3285 25.5921 42.0101 24.221 40.7109 22.8339C40.3173 21.638 40.6865 20.7943 41.8184 20.3027Z" fill="#031555"/>
</svg>
