<svg width="54" height="54" viewBox="0 0 54 54" fill="none" xmlns="http://www.w3.org/2000/svg">
<g clip-path="url(#clip0_851_5285)">
<path opacity="0.961" fill-rule="evenodd" clip-rule="evenodd" d="M24.627 -0.0527344C26.1739 -0.0527344 27.7207 -0.0527344 29.2676 -0.0527344C31.7781 0.240655 34.239 0.803155 36.6504 1.63477C36.5301 1.98626 36.3367 2.30267 36.0703 2.58398C35.6874 3.24486 35.3357 3.91284 35.0156 4.58789C26.1279 1.73192 18.1299 3.29638 11.0215 9.28125C5.05038 14.9595 2.50155 21.9028 3.375 30.1113C3.71631 32.5765 4.41944 34.932 5.48438 37.1777C5.55649 37.3132 5.53891 37.4362 5.43164 37.5469C4.53043 38.015 3.61637 38.4545 2.68945 38.8652C1.1953 35.8603 0.281235 32.6963 -0.0527344 29.373C-0.0527344 27.791 -0.0527344 26.209 -0.0527344 24.627C1.11701 14.9538 5.93342 7.72921 14.3965 2.95312C17.6334 1.31703 21.0435 0.315081 24.627 -0.0527344Z" fill="#031555"/>
<path opacity="0.972" fill-rule="evenodd" clip-rule="evenodd" d="M42.0293 2.05664C44.7962 2.09941 46.4661 3.4705 47.0391 6.16992C47.223 8.06925 46.5375 9.56339 44.9824 10.6523C42.4222 11.95 40.2601 11.4754 38.4961 9.22852C37.4757 7.27216 37.6163 5.40887 38.918 3.63867C39.7847 2.7571 40.8219 2.22976 42.0293 2.05664Z" fill="#031555"/>
<path opacity="0.989" fill-rule="evenodd" clip-rule="evenodd" d="M23.9941 13.0254C28.422 12.7943 31.3048 14.7806 32.6426 18.9844C35.0301 19.4559 36.6121 20.8446 37.3887 23.1504C40.4386 23.522 42.4953 25.1391 43.5586 28.0019C44.3591 31.5142 43.2166 34.1685 40.1309 35.9648C39.361 36.3243 38.5524 36.5352 37.7051 36.5977C31.0957 36.668 24.4864 36.668 17.877 36.5977C13.5641 36.0466 10.9801 33.6384 10.125 29.373C9.76735 25.1829 11.4725 22.177 15.2402 20.3555C15.9901 20.0625 16.7636 19.8691 17.5605 19.7754C18.2001 16.0774 20.3447 13.8275 23.9941 13.0254Z" fill="#031555"/>
<path opacity="0.961" fill-rule="evenodd" clip-rule="evenodd" d="M53.9473 24.5215C53.9473 26.1035 53.9473 27.6855 53.9473 29.2676C52.8089 38.8571 48.0628 46.0466 39.709 50.8359C36.4107 52.5277 32.9302 53.5647 29.2676 53.9473C27.7207 53.9473 26.1739 53.9473 24.627 53.9473C21.5059 53.6327 18.5176 52.8064 15.6621 51.4688C16.3696 50.6332 16.9848 49.7367 17.5078 48.7793C26.125 52.1541 34.1583 51.117 41.6074 45.668C48.4495 39.9835 51.4201 32.6886 50.5195 23.7832C50.0883 20.749 49.1214 17.9013 47.6191 15.2402C48.5097 14.6454 49.4413 14.118 50.4141 13.6582C51.7521 15.8069 52.7014 18.1272 53.2617 20.6191C53.5382 21.9268 53.7667 23.2277 53.9473 24.5215Z" fill="#031555"/>
<path opacity="0.972" fill-rule="evenodd" clip-rule="evenodd" d="M9.43944 41.502C12.349 41.294 14.1595 42.5947 14.8711 45.4043C15.0754 47.7214 14.1437 49.3913 12.0762 50.4141C9.35568 51.2542 7.3342 50.4281 6.01171 47.9356C5.10911 44.6774 6.25169 42.5328 9.43944 41.502Z" fill="#031555"/>
</g>
<defs>
<clipPath id="clip0_851_5285">
<rect width="54" height="54" fill="white"/>
</clipPath>
</defs>
</svg>
