<svg width="54" height="54" viewBox="0 0 54 54" fill="none" xmlns="http://www.w3.org/2000/svg">
<g clip-path="url(#clip0_851_3591)">
<path opacity="0.988" fill-rule="evenodd" clip-rule="evenodd" d="M15.3457 -0.0527344C17.42 -0.0527344 19.4941 -0.0527344 21.5684 -0.0527344C25.2744 0.200146 28.8604 1.02632 32.3262 2.42578C33.8029 3.04952 35.0862 3.94601 36.1758 5.11523C37.1177 6.30011 37.1881 7.53059 36.3867 8.80664C35.3177 10.0506 34.0346 11.0174 32.5371 11.707C28.998 13.1981 25.3066 14.0419 21.4629 14.2383C15.812 14.6921 10.3276 13.9538 5.00977 12.0234C3.71028 11.4799 2.51498 10.7767 1.42383 9.91406C0.77937 9.32474 0.287182 8.63919 -0.0527344 7.85742C-0.0527344 7.36523 -0.0527344 6.87305 -0.0527344 6.38086C0.580956 5.02607 1.56534 3.98897 2.90039 3.26953C5.08682 2.07144 7.40713 1.22769 9.86133 0.738281C11.6924 0.386646 13.5205 0.122974 15.3457 -0.0527344Z" fill="#031555"/>
<path opacity="0.983" fill-rule="evenodd" clip-rule="evenodd" d="M-0.0527344 13.6582C3.96181 16.0803 8.32118 17.5041 13.0254 17.9297C18.128 18.4742 23.1905 18.2282 28.2129 17.1914C31.3253 16.5587 34.208 15.3809 36.8613 13.6582C36.9667 14.9571 37.0018 16.2579 36.9668 17.5605C34.1641 16.9824 32.6348 18.1074 32.3789 20.9355C31.9162 22.0311 31.1603 22.8572 30.1113 23.4141C29.3464 23.751 28.573 24.0674 27.791 24.3633C27.1042 24.9978 26.7527 25.7888 26.7363 26.7363C21.1094 27.7359 15.4843 27.7182 9.86133 26.6836C7.4076 26.1944 5.08729 25.3507 2.90039 24.1523C1.56534 23.4329 0.580956 22.3958 -0.0527344 21.041C-0.0527344 18.5801 -0.0527344 16.1191 -0.0527344 13.6582Z" fill="#031555"/>
<path opacity="0.979" fill-rule="evenodd" clip-rule="evenodd" d="M53.9473 27.4746C53.9473 28.0723 53.9473 28.6699 53.9473 29.2676C53.2296 36.8757 49.7139 42.7996 43.4004 47.039C43.0314 47.3026 42.6271 47.4959 42.1875 47.6191C37.7757 45.5628 34.6117 42.2933 32.6953 37.8105C31.3189 34.4972 30.6685 31.0519 30.7441 27.4746C33.5479 26.3935 35.4111 24.4247 36.334 21.5683C40.3418 21.4277 44.3496 21.4277 48.3574 21.5683C49.2789 24.4235 51.1421 26.3923 53.9473 27.4746ZM46.7754 27.791C47.7816 28.5326 48.7133 29.3764 49.5703 30.3222C49.6406 30.3926 49.6406 30.4628 49.5703 30.5332C46.8105 33.3632 44.0508 36.1934 41.291 39.0234C40.4953 39.5204 39.7218 39.4852 38.9707 38.9179C37.6347 37.371 36.2989 35.8242 34.9629 34.2773C35.9318 33.4314 36.9162 32.6051 37.916 31.7988C38.7267 32.6973 39.5178 33.6114 40.2891 34.541C42.4727 32.3048 44.6348 30.0548 46.7754 27.791Z" fill="#031555"/>
<path opacity="0.984" fill-rule="evenodd" clip-rule="evenodd" d="M-0.0527344 26.8418C3.69298 29.1627 7.77111 30.5514 12.1816 31.0078C17.1238 31.5951 22.0457 31.472 26.9473 30.6387C27.2563 33.6326 27.9946 36.5155 29.1621 39.2871C25.6289 40.2671 22.0254 40.7593 18.3516 40.7637C14.1521 40.7514 10.0564 40.101 6.06445 38.8125C4.04523 38.1287 2.26984 37.0566 0.738281 35.5957C0.417013 35.1631 0.153341 34.7061 -0.0527344 34.2246C-0.0527344 31.7637 -0.0527344 29.3027 -0.0527344 26.8418Z" fill="#031555"/>
<path opacity="0.985" fill-rule="evenodd" clip-rule="evenodd" d="M-0.0527344 40.0254C2.89736 41.8824 6.09658 43.1304 9.54492 43.7695C15.269 44.7829 20.9995 44.818 26.7363 43.875C28.1434 43.6155 29.5321 43.2815 30.9023 42.873C30.9902 42.9082 31.0782 42.9434 31.166 42.9785C32.5172 45.0861 34.1871 46.9142 36.1758 48.4629C36.209 48.6114 36.1739 48.752 36.0703 48.8848C34.5388 50.3456 32.7633 51.4178 30.7441 52.1016C27.713 53.1051 24.6193 53.7203 21.4629 53.9473C19.4239 53.9473 17.3847 53.9473 15.3457 53.9473C11.7991 53.7123 8.35376 52.9565 5.00977 51.6797C3.71029 51.1361 2.51498 50.4329 1.42383 49.5703C0.77937 48.981 0.287182 48.2954 -0.0527344 47.5137C-0.0527344 45.0175 -0.0527344 42.5215 -0.0527344 40.0254Z" fill="#031555"/>
</g>
<defs>
<clipPath id="clip0_851_3591">
<rect width="54" height="54" fill="white"/>
</clipPath>
</defs>
</svg>
