<svg width="24" height="25" viewBox="0 0 24 25" fill="none" xmlns="http://www.w3.org/2000/svg">
<path d="M12 9.48103C11.4114 9.48103 10.836 9.65557 10.3466 9.98258C9.85722 10.3096 9.47578 10.7744 9.25053 11.3182C9.02529 11.862 8.96635 12.4603 9.08118 13.0376C9.19601 13.6149 9.47945 14.1452 9.89565 14.5614C10.3119 14.9776 10.8421 15.261 11.4194 15.3758C11.9967 15.4907 12.5951 15.4317 13.1389 15.2065C13.6827 14.9813 14.1474 14.5998 14.4745 14.1104C14.8015 13.621 14.976 13.0456 14.976 12.457C14.976 12.0662 14.899 11.6792 14.7495 11.3182C14.5999 10.9571 14.3807 10.629 14.1044 10.3527C13.828 10.0763 13.4999 9.85712 13.1389 9.70757C12.7778 9.55801 12.3908 9.48103 12 9.48103ZM23.916 6.54103C23.9097 5.61434 23.739 4.69612 23.412 3.82903C23.1711 3.19454 22.7985 2.61834 22.3186 2.13845C21.8387 1.65856 21.2625 1.28589 20.628 1.04503C19.7609 0.717988 18.8427 0.547344 17.916 0.541031C16.368 0.457031 15.912 0.457031 12 0.457031C8.088 0.457031 7.632 0.457031 6.084 0.541031C5.15731 0.547344 4.23909 0.717988 3.372 1.04503C2.73751 1.28589 2.16131 1.65856 1.68142 2.13845C1.20153 2.61834 0.828861 3.19454 0.588 3.82903C0.260957 4.69612 0.0903131 5.61434 0.0839999 6.54103C-8.19564e-08 8.08903 0 8.54503 0 12.457C0 16.369 -8.19564e-08 16.825 0.0839999 18.373C0.0969167 19.303 0.267329 20.224 0.588 21.097C0.827794 21.7286 1.20015 22.3015 1.68 22.777C2.15783 23.2598 2.73527 23.6325 3.372 23.869C4.23909 24.1961 5.15731 24.3667 6.084 24.373C7.632 24.457 8.088 24.457 12 24.457C15.912 24.457 16.368 24.457 17.916 24.373C18.8427 24.3667 19.7609 24.1961 20.628 23.869C21.2647 23.6325 21.8422 23.2598 22.32 22.777C22.7998 22.3015 23.1722 21.7286 23.412 21.097C23.7387 20.2257 23.9093 19.3036 23.916 18.373C24 16.825 24 16.369 24 12.457C24 8.54503 24 8.08903 23.916 6.54103ZM20.868 16.141C20.8295 16.8816 20.6715 17.611 20.4 18.301C20.167 18.8767 19.8207 19.3996 19.3816 19.8387C18.9425 20.2778 18.4196 20.6241 17.844 20.857C17.1474 21.1133 16.4139 21.2552 15.672 21.277H8.328C7.58608 21.2552 6.85259 21.1133 6.156 20.857C5.56092 20.6359 5.02353 20.2831 4.584 19.825C4.1492 19.3945 3.81341 18.8745 3.6 18.301C3.34267 17.6052 3.20473 16.8708 3.192 16.129V8.78503C3.20473 8.04322 3.34267 7.30889 3.6 6.61303C3.82114 6.01796 4.17393 5.48056 4.632 5.04103C5.0644 4.60858 5.58392 4.27314 6.156 4.05703C6.85259 3.80072 7.58608 3.65888 8.328 3.63703H15.672C16.4139 3.65888 17.1474 3.80072 17.844 4.05703C18.4391 4.27817 18.9765 4.63096 19.416 5.08903C19.8508 5.51953 20.1866 6.03959 20.4 6.61303C20.6563 7.30962 20.7981 8.04311 20.82 8.78503V12.457C20.82 14.929 20.904 15.181 20.868 16.129V16.141ZM18.948 7.21303C18.8051 6.82541 18.5799 6.4734 18.2877 6.18129C17.9956 5.88917 17.6436 5.66391 17.256 5.52103C16.7238 5.33654 16.1632 5.24718 15.6 5.25703H8.4C7.83392 5.26256 7.27328 5.36819 6.744 5.56903C6.36231 5.70542 6.01403 5.92149 5.7223 6.20287C5.43057 6.48426 5.20207 6.82452 5.052 7.20103C4.87773 7.73547 4.79259 8.29495 4.8 8.85703V16.057C4.8119 16.6225 4.91732 17.182 5.112 17.713C5.25488 18.1007 5.48014 18.4527 5.77226 18.7448C6.06437 19.0369 6.41638 19.2622 6.804 19.405C7.316 19.5933 7.85478 19.6987 8.4 19.717H15.6C16.1661 19.7115 16.7267 19.6059 17.256 19.405C17.6436 19.2622 17.9956 19.0369 18.2877 18.7448C18.5799 18.4527 18.8051 18.1007 18.948 17.713C19.1488 17.1837 19.2545 16.6231 19.26 16.057V8.85703C19.2603 8.29039 19.1545 7.7287 18.948 7.20103V7.21303ZM12 17.041C11.3986 17.041 10.8031 16.9224 10.2476 16.6919C9.69211 16.4613 9.18756 16.1235 8.76286 15.6977C8.33815 15.2719 8.00163 14.7664 7.77257 14.2103C7.54352 13.6543 7.42642 13.0584 7.428 12.457C7.428 11.5499 7.69716 10.6631 8.20138 9.90905C8.70561 9.15496 9.42225 8.56743 10.2606 8.22083C11.0989 7.87423 12.0212 7.78416 12.9107 7.96201C13.8003 8.13986 14.617 8.57763 15.2576 9.21992C15.8982 9.86221 16.3339 10.6801 16.5094 11.5701C16.6849 12.4601 16.5924 13.3822 16.2436 14.2196C15.8948 15.057 15.3054 15.7721 14.55 16.2743C13.7946 16.7766 12.9071 17.0434 12 17.041ZM16.8 8.77303C16.5347 8.74495 16.2892 8.6197 16.1108 8.4214C15.9324 8.2231 15.8337 7.96578 15.8337 7.69903C15.8337 7.43228 15.9324 7.17497 16.1108 6.97667C16.2892 6.77837 16.5347 6.65311 16.8 6.62503C17.0653 6.65311 17.3108 6.77837 17.4892 6.97667C17.6676 7.17497 17.7663 7.43228 17.7663 7.69903C17.7663 7.96578 17.6676 8.2231 17.4892 8.4214C17.3108 8.6197 17.0653 8.74495 16.8 8.77303Z" fill="white"/>
</svg>
