<svg width="90" height="90" viewBox="0 0 90 90" fill="none" xmlns="http://www.w3.org/2000/svg">
<mask id="mask0_1270_15087" style="mask-type:luminance" maskUnits="userSpaceOnUse" x="8" y="8" width="74" height="74">
<path d="M45.0001 81.8224C37.7173 81.8224 30.5981 79.6628 24.5427 75.6167C18.4873 71.5706 13.7677 65.8198 10.9807 59.0914C8.19369 52.363 7.46448 44.9592 8.88528 37.8164C10.3061 30.6736 13.8131 24.1125 18.9628 18.9628C24.1125 13.8131 30.6736 10.3061 37.8164 8.88528C44.9592 7.46448 52.363 8.19369 59.0914 10.9807C65.8198 13.7677 71.5706 18.4873 75.6167 24.5427C79.6628 30.5981 81.8224 37.7173 81.8224 45.0001C81.8194 54.765 77.9389 64.1292 71.0341 71.0341C64.1292 77.9389 54.765 81.8194 45.0001 81.8224Z" fill="white"/>
</mask>
<g mask="url(#mask0_1270_15087)">
<path d="M82.9948 7.01587H7.00391V82.9954H82.9948V7.01587Z" fill="#031555"/>
<path d="M47.8369 54.8632H42.8141C42.7617 52.1204 41.8582 49.4618 40.2287 47.255C39.6908 46.5857 39.3024 45.809 39.0898 44.9771C38.9129 43.952 38.9129 42.9042 39.0898 41.8791C39.1974 41.476 39.3664 41.0919 39.5909 40.7402C41.2538 38.1547 45.2857 37.2436 48.2128 38.4623C48.994 38.7631 49.6927 39.2453 50.2511 39.869C50.8095 40.4928 51.2117 41.2403 51.4246 42.05C52.3586 45.2618 50.5476 46.6058 49.1467 49.4987C48.3058 51.1632 47.8577 52.9984 47.8369 54.8632ZM36.9827 43.8837C37.2523 45.6783 37.9346 47.386 38.9759 48.8723C39.9898 50.4126 40.633 52.1669 40.8551 53.9976C40.8551 54.7948 40.7413 55.9338 41.846 56.4919C42.1765 56.6314 42.5387 56.6787 42.8939 56.6285C44.3517 56.6285 48.2242 57.0727 49.2151 56.1616C50.2059 55.2504 49.2151 54.0203 50.6274 50.5921C51.6638 48.1775 53.3608 46.7311 53.5772 44.214C53.7123 42.8721 53.4341 41.5209 52.78 40.3415C52.2032 39.353 51.4361 38.4887 50.5232 37.7986C49.6102 37.1085 48.5694 36.6063 47.4611 36.321C43.7481 35.3871 39.3745 37.1639 37.9053 40.1707C37.2572 41.2938 36.9376 42.5764 36.9827 43.8723V43.8837Z" fill="#FECE71"/>
<path d="M41.1171 59.4989C40.9121 58.7358 41.698 58.2232 42.37 58.1777C43.042 58.1321 44.0898 58.0866 44.8985 58.0866C46.0374 58.0866 48.8165 57.8929 49.4543 58.713C49.5347 58.8921 49.5763 59.0862 49.5763 59.2825C49.5763 59.4788 49.5347 59.6729 49.4543 59.8519C49.2834 60.1822 48.7481 60.1139 48.3153 60.1139H43.1559C42.2789 60.1139 41.3222 60.3189 41.1171 59.5103V59.4989Z" fill="white"/>
<path d="M33.9294 44.6239C33.8269 45.2618 33.1663 45.4212 32.4602 45.5009C31.3212 45.6148 29.237 45.444 27.9044 45.444C27.1755 45.444 26.606 45.1706 26.6971 44.305C26.7882 43.4394 27.7108 43.485 28.2347 43.485C28.975 43.485 29.7267 43.428 30.5126 43.4053C31.6288 43.3939 34.1686 43.2003 33.9294 44.6239Z" fill="#FECE71"/>
<path d="M56.9486 44.4191C56.7891 43.861 57.1878 43.2802 58.0306 43.2802C58.8734 43.2802 59.5568 43.2802 60.3085 43.2118C61.4474 43.2118 63.8278 42.9613 64.1012 43.9863C64.477 45.41 61.8233 45.3075 60.7641 45.2847C60.0237 45.2847 59.272 45.205 58.4862 45.205C57.7003 45.205 57.1536 45.0455 56.9486 44.4191Z" fill="#FECE71"/>
<path d="M45.626 25.6719C46.3322 25.8997 46.1727 26.6514 46.1841 27.4259C46.1841 28.3712 46.3436 31.173 46.2411 31.8792C46.1841 32.2436 46.0816 32.4942 45.8197 32.6195C45.5131 32.7448 45.1695 32.7448 44.8629 32.6195C44.0429 32.1867 44.1568 29.8518 44.2024 28.7698C44.185 28.0387 44.2268 27.3074 44.3276 26.5831C44.4643 26.0591 44.9313 25.4441 45.6374 25.6605L45.626 25.6719Z" fill="#FECE71"/>
<path d="M48.8152 62.4373C48.7469 63.2232 48.1888 63.2915 47.4257 63.3029C46.6626 63.3143 45.9565 63.3029 45.2162 63.3029H42.9383C42.7771 63.3336 42.6113 63.3291 42.4521 63.2898C42.2929 63.2505 42.144 63.1773 42.0157 63.0751C41.9122 62.9548 41.8428 62.8089 41.8148 62.6527C41.7867 62.4965 41.801 62.3356 41.8563 62.1867C41.9636 61.9016 42.1602 61.6589 42.4167 61.4947C42.6733 61.3304 42.9761 61.2536 43.2799 61.2756C44.7279 61.1611 46.1827 61.1611 47.6307 61.2756C48.3027 61.4122 48.838 61.6173 48.7697 62.4145L48.8152 62.4373Z" fill="white"/>
<path d="M58.0868 30.8085C59.2258 31.0363 59.0208 31.6741 58.5083 32.3461C58.2975 32.6046 58.0651 32.8446 57.8135 33.0636C57.5743 33.3142 57.0846 33.6901 56.7315 34.0887C56.1734 34.7151 54.7725 36.3666 54.0436 36.3666C53.3146 36.3666 53.0527 35.3074 53.531 34.6354C53.9689 34.133 54.4367 33.6576 54.932 33.2117C55.0345 33.0864 55.1711 32.9725 55.2736 32.8586C55.3768 32.7274 55.487 32.6019 55.6039 32.4828C55.7406 32.3461 55.7862 32.2322 55.9342 32.1069C56.3329 31.7311 57.1757 30.6377 58.0755 30.8085H58.0868Z" fill="#FECE71"/>
<path d="M53.9416 52.1298C54.9097 52.0387 55.1944 52.4943 55.8436 53.0296C56.06 53.2005 57.0623 54.1686 57.2559 54.385C57.7115 54.8633 58.1785 55.3303 58.6113 55.8428C58.7507 55.9694 58.8614 56.1243 58.936 56.2972C59.0107 56.47 59.0475 56.6568 59.0441 56.8451C59.0441 57.5285 58.3607 58.041 57.4268 57.3235C56.8037 56.7742 56.2213 56.1803 55.6842 55.5467C55.4108 55.2506 54.8755 54.8405 54.5452 54.5672C54.2149 54.2938 53.4062 53.4282 53.4062 52.9385C53.4062 52.8018 53.4063 52.779 53.5201 52.6993L53.9416 52.1184V52.1298Z" fill="#FECE71"/>
<path d="M37.768 53.1548C37.4318 53.7403 37.0265 54.2833 36.5607 54.7721C35.6608 55.7526 34.6942 56.6697 33.6678 57.517C33.5478 57.6556 33.396 57.7632 33.2255 57.8306C33.055 57.898 32.8707 57.9233 32.6883 57.9042C32.2555 57.8359 31.9708 57.6309 32.0505 57.1411C32.3591 56.3421 32.837 55.6194 33.4514 55.0227L34.1575 54.3165C34.727 53.7812 36.3329 52.0956 37.1188 52.3803C37.2441 52.3803 37.768 53.0067 37.7566 53.1548H37.768Z" fill="#FECE71"/>
<path d="M31.7764 31.5376C32.0373 31.32 32.3395 31.1573 32.6647 31.0592C32.8502 31.0171 33.0433 31.0222 33.2263 31.0739C33.4094 31.1257 33.5765 31.2224 33.7126 31.3553C33.9736 31.5632 34.2139 31.7959 34.4301 32.0501L35.1135 32.779C35.5691 33.2802 36.0019 33.7016 36.503 34.1685C36.8219 34.4647 37.642 35.1708 37.4028 36.0136C37.3482 36.1888 37.2341 36.3394 37.0801 36.4392C36.9262 36.5391 36.7422 36.5819 36.56 36.5603C36.1158 36.5603 35.2388 35.6606 34.9313 35.3644C34.6237 35.0683 34.4757 34.8975 34.2365 34.6469L32.8811 33.2232C32.1978 32.5626 31.9016 32.5968 31.7422 31.5376H31.7764Z" fill="#FECE71"/>
<path d="M47.3226 65.4213C47.3226 65.8427 46.8442 65.8655 46.4228 65.8655C45.785 65.8655 44.5207 65.8655 43.8146 65.8655C43.1084 65.8655 43.0515 64.7266 44.2246 64.7266C45.3977 64.7266 47.4706 64.3507 47.3226 65.4213Z" fill="white"/>
</g>
</svg>
