<svg width="24" height="24" viewBox="0 0 24 24" fill="none" xmlns="http://www.w3.org/2000/svg">
<path d="M21.6 0.457031H2.4C1.08 0.457031 0 1.50395 0 2.78353V21.3955C0 22.6751 1.08 23.722 2.4 23.722H21.6C22.92 23.722 24 22.6751 24 21.3955V2.78353C24 1.50395 22.92 0.457031 21.6 0.457031ZM7.2 20.2322H3.6V9.76301H7.2V20.2322ZM5.4 7.78549C4.2 7.78549 3.24 6.85489 3.24 5.69165C3.24 4.5284 4.2 3.5978 5.4 3.5978C6.6 3.5978 7.56 4.5284 7.56 5.69165C7.56 6.85489 6.6 7.78549 5.4 7.78549ZM20.4 20.2322H16.8V14.067C16.8 13.1365 15.96 12.3222 15 12.3222C14.04 12.3222 13.2 13.1365 13.2 14.067V20.2322H9.6V9.76301H13.2V11.1589C13.8 10.2283 15.12 9.53036 16.2 9.53036C18.48 9.53036 20.4 11.3916 20.4 13.6017V20.2322Z" fill="white"/>
</svg>
