<svg width="194" height="194" viewBox="0 0 194 194" fill="none" xmlns="http://www.w3.org/2000/svg">
<path d="M158.351 11.2642C149.191 20.4241 147.457 22.3089 147.118 23.6282C146.779 24.7591 146.779 26.6062 147.08 30.4511C147.269 33.3536 147.457 35.8415 147.457 36.03C147.457 36.1808 146.138 35.2384 144.555 33.9567C124.727 18.2001 97.2469 11.7542 71.8026 16.9185C53.935 20.5372 37.8014 29.471 25.0981 42.7775C-4.94509 74.2907 -7.80993 123.106 18.3883 157.899C21.894 162.535 24.495 165.212 25.5881 165.212C26.9828 165.212 27.8498 164.609 28.3022 163.289C28.7922 161.857 28.566 161.367 24.985 157.107C11.4901 140.861 4.44105 118.093 6.4389 96.9833C10.0953 58.5341 38.3291 28.2648 76.5899 21.7812C81.4903 20.9519 93.1004 20.6126 98.0762 21.178C115.755 23.1759 131.663 30.0364 144.366 41.1189L146.779 43.1921L140.408 49.5626C136.94 53.0306 134 55.8954 133.887 55.8954C133.774 55.8954 132.341 54.7646 130.683 53.4075C122.804 46.9617 112.89 42.2874 102.223 40.0257C98.8301 39.2718 97.0961 39.1587 89.9717 39.1587C82.7719 39.121 81.1133 39.2341 77.4192 39.988C56.9883 44.1345 40.2139 56.8755 31.0539 75.3085C18.5768 100.301 23.5903 130.683 43.418 150.511C61.1348 168.265 87.3707 174.296 111.043 166.079C125.443 161.103 137.958 150.85 146.025 137.43C149.342 131.927 152.734 123.219 153.677 117.716C154.016 115.869 152.81 114.323 151.076 114.323C149.191 114.323 148.663 115.002 147.683 118.658C146.289 123.785 144.969 127.29 142.707 131.663C131.097 154.054 106.746 166.795 81.7918 163.516C49.2608 159.256 26.0782 129.062 30.3754 96.6064C33.768 71.2374 52.5026 51.0704 77.6453 45.68C82.4327 44.6999 91.7434 44.323 96.7946 44.9638C108.329 46.3962 120.241 51.6359 128.421 58.8357L129.853 60.1173L123.483 66.4501L117.112 72.8206L114.662 70.9359C111.345 68.3726 104.711 65.1685 100.149 63.9245C96.6815 62.9445 95.8522 62.8691 89.5948 62.9068C83.4881 62.9068 82.4327 63.0199 79.1532 63.8868C64.3766 67.9202 53.1811 79.2288 49.1854 94.2693C48.3184 97.5111 48.2053 98.6419 48.2053 104.334C48.2053 110.064 48.2807 111.119 49.1854 114.512C51.4094 122.842 56.8375 131.324 63.3211 136.563C67.5053 139.918 74.2528 143.349 79.417 144.743C82.8096 145.648 83.8651 145.723 89.5948 145.723C95.2868 145.723 96.4176 145.61 99.6217 144.781C104.711 143.386 108.405 141.765 112.476 139.089C120.995 133.51 127.365 124.689 130.004 114.776C130.909 111.496 131.022 110.403 131.022 104.334C131.06 98.0388 130.984 97.2849 130.004 93.7792C128.76 89.1804 125.556 82.5837 122.993 79.2665L121.108 76.8163L127.479 70.4458L133.811 64.0753L135.093 65.5077C139.315 70.2574 144.14 78.7388 146.289 85.2224C147.872 89.972 148.965 95.664 149.229 100.376C149.342 102.562 149.681 104.786 149.945 105.352C150.661 106.746 152.508 107.123 153.828 106.143C154.732 105.465 154.808 105.126 154.921 102.411C155.034 99.0943 154.205 92.6484 153.074 88.1249C150.85 79.3419 146.251 70.2573 140.521 63.246C139.164 61.5874 138.033 60.155 138.033 60.0419C138.033 59.9288 140.898 56.9886 144.366 53.5206L150.737 47.1501L152.471 49.1103C158.916 56.2724 165.136 66.8648 168.378 76.2509C179.724 109.008 170.225 145.007 144.253 167.398C132.153 177.802 117.715 184.436 101.657 186.962C96.6061 187.754 83.262 187.867 78.6631 187.113C63.4342 184.7 50.9194 179.574 39.2715 170.904C35.8412 168.378 34.8235 168.114 33.4287 169.547C31.2801 171.695 32.5241 173.316 40.2139 178.481C48.3561 183.909 57.8553 188.131 67.7315 190.656C75.6098 192.692 80.5479 193.257 89.7832 193.257C101.318 193.295 110.478 191.712 120.316 188.018C161.555 172.638 185.341 130.608 177.236 87.5218C174.635 73.8007 168.152 59.5519 159.633 48.9595L157.522 46.3962L160.123 46.6224C168.566 47.3386 169.207 47.3009 170.904 46.547C172.034 46.0193 175.578 42.7398 183.004 35.2761C192.239 25.9653 193.445 24.646 193.445 23.5905C193.445 22.912 193.257 21.9697 192.993 21.4419C192.201 19.6325 191.033 19.2556 185.077 18.8032L179.46 18.3886L183.079 14.8075C186.283 11.6034 186.66 11.1134 186.66 9.86945C186.66 8.17316 185.718 7.26848 183.984 7.26848C182.891 7.26848 182.25 7.72081 179.046 10.9249L175.352 14.6191L175.314 12.9228C175.276 8.39934 174.673 3.19737 174.07 2.29268C173.316 1.16182 171.959 0.483322 170.338 0.483322C169.283 0.483322 167.963 1.68956 158.351 11.2642ZM169.848 14.996L170.112 19.8964L161.593 28.3778C155.712 34.2583 153.111 36.6331 153.111 36.1054C153.111 35.6908 152.923 33.0521 152.734 30.2626L152.32 25.2114L160.726 16.8054C168.152 9.37941 169.17 8.51241 169.358 9.22862C169.471 9.71866 169.697 12.2819 169.848 14.996ZM184.172 24.4952L185.642 24.6837L177.199 33.1651L168.755 41.6089L166.305 41.4204C164.948 41.3073 162.347 41.0812 160.5 40.9681L157.182 40.7042L165.589 32.2605L174.032 23.8167L178.367 24.0429C180.742 24.156 183.343 24.3444 184.172 24.4952ZM98.6416 69.3527C102.449 70.4458 105.728 71.8782 108.782 73.763C113.72 76.854 113.908 76.0624 106.633 83.3376L100.3 89.6704L97.3223 88.2003C94.6459 86.8433 93.9674 86.6925 90.801 86.504C87.8608 86.3532 86.7676 86.4663 84.619 87.1072C78.3239 89.0296 73.725 93.8546 72.2549 100.074C70.7848 106.332 72.4811 112.363 77.0422 116.886C86.6922 126.574 102.826 122.428 106.822 109.31C107.462 107.161 107.575 106.068 107.425 103.128C107.236 99.9613 107.085 99.2827 105.728 96.6064L104.258 93.6284L110.591 87.2956C116.886 81.0005 116.886 81.0005 117.678 81.7167C118.884 82.8099 121.673 87.4464 122.88 90.4243C125.028 95.5886 125.405 97.7372 125.368 104.522C125.368 110.177 125.255 111.044 124.35 114.059C121.146 124.463 114.323 132.455 104.786 136.903C93.4397 142.255 80.0202 141.2 69.6162 134.189C54.9151 124.275 49.5246 105.088 56.9883 89.2181C61.9264 78.6257 70.8225 71.5767 82.6588 68.9003C86.1268 68.1087 95.0983 68.3726 98.6416 69.3527ZM93.6658 92.6861C94.6459 93.0253 95.5506 93.44 95.6637 93.6661C95.7768 93.8546 93.8543 96.1163 91.3287 98.6419C86.3153 103.731 85.9383 104.485 87.71 106.219C89.444 107.99 90.1979 107.613 95.2868 102.6C97.8123 100.074 100.074 98.1519 100.263 98.265C101.13 98.7927 101.921 102.336 101.77 105.012C101.544 109.649 98.9809 113.418 94.759 115.379C91.8565 116.736 87.4838 116.811 84.6944 115.529C82.2442 114.399 79.4924 111.684 78.3992 109.272C77.1553 106.52 77.193 101.658 78.4369 99.245C80.2463 95.8148 82.395 93.8169 85.5991 92.6484C87.4838 91.9322 91.5549 91.9699 93.6658 92.6861Z" fill="#031555"/>
</svg>
