<svg width="120" height="121" viewBox="0 0 120 121" fill="none" xmlns="http://www.w3.org/2000/svg">
<path d="M120 60.2578C120.004 68.3251 118.379 76.3103 115.223 83.7346C112.067 91.1589 107.444 97.8694 101.632 103.464C101.274 103.81 100.91 104.152 100.544 104.489C100.287 104.724 100.029 104.956 99.7689 105.186C99.655 105.288 99.5379 105.39 99.4219 105.491C99.3577 105.547 99.2957 105.602 99.2326 105.655C98.9306 105.918 98.6253 106.177 98.3165 106.432C98.227 106.508 98.1364 106.582 98.0448 106.657C97.8636 106.805 97.6824 106.954 97.4982 107.101C97.3679 107.202 97.2376 107.304 97.1053 107.412C96.973 107.52 96.8417 107.616 96.7104 107.717C96.6361 107.776 96.5598 107.834 96.4835 107.892C96.4071 107.95 96.3318 108.009 96.2544 108.067C96.1452 108.151 96.0353 108.233 95.9247 108.315C95.5175 108.62 95.1074 108.92 94.6941 109.214C94.5584 109.311 94.4227 109.408 94.287 109.503C94.1513 109.598 94.0132 109.693 93.8728 109.789C93.7343 109.884 93.5959 109.978 93.4565 110.072C93.317 110.165 93.1654 110.266 93.0198 110.363C92.8743 110.459 92.7267 110.555 92.5791 110.65L92.3868 110.775L92.1934 110.898C91.7069 111.209 91.2142 111.515 90.7155 111.814C90.5812 111.893 90.4468 111.975 90.3084 112.053C90.1537 112.144 89.9969 112.235 89.8402 112.324C89.7608 112.372 89.6804 112.417 89.601 112.461C89.1464 112.721 88.687 112.974 88.2229 113.221C88.1079 113.284 87.9919 113.345 87.8758 113.405L87.8249 113.431C87.6845 113.506 87.543 113.579 87.4025 113.65C87.3945 113.656 87.3856 113.661 87.3761 113.664C87.1929 113.76 87.0097 113.853 86.8244 113.945C86.3678 114.173 85.9074 114.397 85.4433 114.615C85.0694 114.79 84.6938 114.96 84.3165 115.124C79.8285 117.118 75.1106 118.547 70.2707 119.379C68.8512 119.626 67.4154 119.821 65.9634 119.965C63.9963 120.16 62.0085 120.258 60 120.258C58.4 120.258 56.8153 120.196 55.2458 120.072C40.1979 118.889 26.15 112.073 15.9086 100.984C5.66706 89.8961 -0.0140753 75.3521 2.61887e-05 60.2578C2.61887e-05 27.1209 26.8631 0.257812 60 0.257812C93.1369 0.257812 120 27.1209 120 60.2578Z" fill="#E3E6ED"/>
<path d="M46.9162 42.788C46.7393 42.8518 46.5708 42.9369 46.4145 43.0415C46.5234 42.9056 46.6455 42.7809 46.7788 42.6689C46.8399 42.6221 46.8847 42.6679 46.9162 42.788Z" fill="#A7A9AC"/>
<path d="M58.8957 33.8763L58.8621 33.9241C58.8692 33.8712 58.8815 33.8539 58.8957 33.8763Z" fill="#A7A9AC"/>
<path d="M78.0854 24.7729C78.0854 25.0996 72.06 25.6238 70.6188 26.0828C69.1775 26.5419 68.1974 27.3907 66.5587 27.3917C66.4722 27.3917 66.3897 27.3917 66.3083 27.3826C64.5149 27.2533 64.0987 25.7164 63.1674 25.1302C63.0611 25.0614 62.9461 25.0073 62.8254 24.9694C61.5806 24.5765 58.3582 26.148 58.3582 26.148V17.7001C58.3582 17.7001 61.4503 15.5393 64.0691 15.7358C64.285 15.749 64.499 15.7831 64.7083 15.8376C66.6859 16.3577 66.7114 18.4696 67.606 19.007C67.6284 19.0202 67.6518 19.0345 67.6752 19.0467C68.7043 19.6187 70.1974 19.463 71.7974 19.3347C73.435 19.2035 76.9068 17.6319 77.2335 17.9587C77.5602 18.2854 73.5694 22.151 73.5694 22.4126C73.5694 22.6742 78.0854 24.4452 78.0854 24.7729Z" fill="#031555"/>
<path d="M58.8959 13.5076V37.1208C58.8962 37.2454 58.8608 37.3674 58.7941 37.4726C58.7273 37.5777 58.6319 37.6616 58.5191 37.7143C58.4062 37.7671 58.2807 37.7864 58.1572 37.7702C58.0337 37.7539 57.9174 37.7027 57.8221 37.6226C58.0775 37.4944 58.2414 37.2969 58.2414 37.074V12.8501C58.3276 12.8502 58.4129 12.8674 58.4924 12.9005C58.5719 12.9336 58.6442 12.9821 58.705 13.0432C58.7657 13.1042 58.8139 13.1767 58.8467 13.2564C58.8794 13.3361 58.8961 13.4214 58.8959 13.5076Z" fill="white"/>
<path d="M58.2414 12.8521V37.076C58.2414 37.2989 58.0775 37.4963 57.8221 37.6246C57.7481 37.5635 57.6886 37.4869 57.6477 37.4002C57.6069 37.3134 57.5858 37.2187 57.5859 37.1228V13.5096C57.5857 13.4233 57.6024 13.3379 57.6352 13.2581C57.6681 13.1783 57.7163 13.1058 57.7772 13.0448C57.8381 12.9837 57.9104 12.9352 57.9901 12.9021C58.0698 12.8691 58.1552 12.8521 58.2414 12.8521Z" fill="#D45147"/>
<path d="M34.182 114.675C20.1733 108.008 9.26569 96.2087 3.71895 81.7201C5.91131 79.1755 10.5525 73.9236 11.3474 74.0234C12.3958 74.1537 14.4915 81.3587 15.4075 82.9302C16.3235 84.5017 20.5169 84.8946 21.6955 86.7287C22.8742 88.5628 23.1357 96.1598 25.1011 98.3867C27.0665 100.614 29.4238 100.482 29.8166 101.007C30.2095 101.531 30.864 106.115 31.3881 107.294C31.7749 108.162 33.3698 112.469 34.182 114.675Z" fill="#D45147"/>
<path d="M55.2288 120.289C47.9288 119.722 40.7951 117.819 34.1825 114.675C33.3682 112.469 31.7753 108.161 31.3886 107.294C30.8644 106.115 30.2099 101.531 29.8171 101.007C29.4242 100.482 27.069 100.614 25.1015 98.3867C23.1341 96.1598 22.8746 88.5628 21.6959 86.7287C20.5173 84.8946 16.325 84.5018 15.4079 82.9303C14.4909 81.3588 12.3962 74.1537 11.3479 74.0234C12.4674 73.83 16.5875 76.3114 19.2868 77.3822C19.6177 77.5165 19.9554 77.6334 20.2985 77.7323C22.8318 78.4315 27.8954 78.0814 29.3804 79.0422C30.4379 79.7272 28.5071 83.147 29.3804 84.8926C30.2537 86.6381 37.7641 90.5689 38.8115 91.7923C39.8588 93.0157 39.3356 97.1175 40.2079 98.69C41.0802 100.263 45.2735 101.133 46.0593 102.795C46.845 104.457 46.1468 108.47 47.1076 109.868C47.8384 110.932 52.8644 117.306 55.2288 120.289Z" fill="white"/>
<path d="M70.3031 119.596C68.8781 119.843 67.4369 120.039 65.9794 120.183C64.0116 120.377 62.0188 120.474 60.0008 120.476C58.3947 120.476 56.8042 120.414 55.2293 120.289C52.8649 117.303 47.8389 110.932 47.1082 109.87C46.1473 108.472 46.8456 104.455 46.0598 102.797C45.2741 101.139 41.0827 100.264 40.2084 98.6922C39.3341 97.1208 39.8603 93.0159 38.812 91.7945C37.7636 90.5732 30.2532 86.6414 29.3809 84.8948C28.5087 83.1482 30.4384 79.7294 29.3809 79.0444C27.896 78.0836 22.8323 78.4337 20.299 77.7345C19.9559 77.6356 19.6182 77.5187 19.2873 77.3844C21.9336 74.103 31.5703 62.1477 32.699 60.7941C34.0089 59.2215 36.2359 53.1961 36.7601 52.8032C37.2842 52.4103 38.7244 53.4587 39.6415 52.8032C40.354 52.2943 43.6028 46.9416 45.5448 44.1986C45.8817 43.7223 46.1789 43.3243 46.416 43.0455C46.525 42.9096 46.647 42.7849 46.7804 42.6729C46.8415 42.6261 46.8822 42.6729 46.9178 42.792C47.2018 43.8994 46.3489 51.3264 46.585 52.1559C46.8466 53.0719 52.2176 56.6088 52.2176 57.133C52.2176 57.6572 51.0359 65.0434 51.1692 66.7004C51.5621 71.5462 59.2903 79.0159 59.4216 80.1915C59.5529 81.3671 56.6735 85.4312 57.1947 86.4795C57.7158 87.5279 60.3387 90.4083 60.6003 91.8495C60.8618 93.2907 57.5876 104.032 58.7682 107.044C59.6537 109.314 66.8598 116.327 70.3031 119.596Z" fill="#D45147"/>
<path d="M85.5361 114.808C85.1616 114.984 84.784 115.156 84.4053 115.324C79.8994 117.327 75.1627 118.763 70.3035 119.599C66.8603 116.33 59.6583 109.319 58.7646 107.035C57.586 104.023 60.8603 93.2817 60.5967 91.8405C60.3331 90.3993 57.7203 87.5148 57.1931 86.4664C56.6659 85.4181 59.5514 81.358 59.4201 80.1784C59.2888 78.9988 51.5605 71.5331 51.1677 66.6873C51.0343 65.0354 52.216 57.6492 52.216 57.1199C52.216 56.5906 46.845 53.0598 46.5835 52.1428C46.3473 51.3163 47.2002 43.8894 46.9163 42.7789C47.3926 42.6049 48.0114 42.5377 48.8104 42.6415L52.8705 43.1667L52.9336 43.2013C53.4496 43.4853 57.0109 45.4751 57.1931 46.5072C57.3895 47.6207 54.3117 51.4191 54.6384 53.1871C54.9651 54.955 56.4705 57.182 56.674 58.099C56.8776 59.0161 54.842 63.7988 55.758 66.4166C56.674 69.0344 62.046 74.1448 63.7488 77.1575C65.4516 80.1703 67.6786 90.1255 69.1188 91.3051C70.559 92.4848 72.2628 91.3051 73.0486 92.615C73.8343 93.925 75.2756 100.606 76.3229 102.182C77.1656 103.458 83.2491 111.708 85.5361 114.808Z" fill="white"/>
<path d="M101.783 103.619C101.425 103.966 101.059 104.309 100.691 104.646C100.434 104.883 100.176 105.116 99.9143 105.346C99.7983 105.448 99.6822 105.549 99.5652 105.651L99.3759 105.816C99.0712 106.079 98.7659 106.338 98.4598 106.595C98.3703 106.671 98.2797 106.745 98.1881 106.821C98.0059 106.969 97.8237 107.119 97.6385 107.265C97.5082 107.37 97.3769 107.475 97.2446 107.579C97.1123 107.683 96.9799 107.784 96.8476 107.884C96.7733 107.943 96.697 108.002 96.6196 108.059C96.5423 108.116 96.468 108.177 96.3906 108.235C96.2807 108.319 96.1708 108.401 96.0588 108.484C95.6517 108.79 95.2402 109.091 94.8242 109.385C94.6868 109.487 94.5494 109.581 94.411 109.676C94.2726 109.77 94.1352 109.869 93.9957 109.963C93.8563 110.056 93.7189 110.153 93.5784 110.248L93.1397 110.54C92.9932 110.636 92.8459 110.732 92.698 110.828L92.5046 110.953L92.3102 111.076C91.8217 111.39 91.3274 111.695 90.8273 111.992C90.6929 112.072 90.5576 112.154 90.4202 112.232C90.2644 112.324 90.1067 112.415 89.9499 112.505C89.8695 112.552 89.7901 112.598 89.7097 112.642C89.2524 112.903 88.7913 113.157 88.3265 113.405C88.2115 113.468 88.0944 113.529 87.9784 113.589L87.9275 113.615L87.5031 113.835C87.4953 113.842 87.4863 113.847 87.4766 113.85C87.2934 113.945 87.1082 114.039 86.923 114.131L77.2344 101.067L72.5799 89.0872L57.8431 61.5798L58.4334 45.2715L56.3123 37.6236V37.6145L56.2746 37.4781C56.2746 37.4781 56.4283 37.302 56.6654 37.0445C56.7143 36.9905 56.7672 36.9346 56.8222 36.8755C57.3311 36.3351 58.0792 35.5758 58.6288 35.2063C58.7081 35.1526 58.7907 35.104 58.8761 35.0608C58.9613 35.0133 59.0575 34.9891 59.155 34.9905C59.8105 35.0557 62.8008 40.3595 63.1509 40.5569C64.0782 41.0842 68.0629 40.3605 68.9799 41.2776C69.897 42.1946 82.9952 64.7239 83.3881 66.1651C83.781 67.6063 83.5845 71.9941 83.3881 72.5183C83.1916 73.0424 81.1611 73.1727 81.2262 74.4826C81.2914 75.7926 87.1214 81.6857 87.7759 83.2256C88.4303 84.7656 90.9199 88.6943 92.2298 89.8078C93.5397 90.9213 96.1596 91.9035 97.3382 94.1966C98.2166 95.8984 100.609 101.072 101.783 103.619Z" fill="white"/>
<path d="M87.476 113.855C87.2927 113.951 87.1075 114.044 86.9223 114.137C86.4629 114.366 86.0008 114.59 85.536 114.809C83.249 111.709 77.1655 103.458 76.3167 102.188C75.2693 100.616 73.8281 93.9354 73.0424 92.6204C72.2566 91.3054 70.5538 92.4901 69.1126 91.3105C67.6714 90.1308 65.4485 80.1766 63.7426 77.1629C62.0368 74.1491 56.6688 69.0418 55.7518 66.4219C54.8347 63.8021 56.8653 59.0214 56.6678 58.1044C56.4704 57.1873 54.965 54.9614 54.6322 53.1924C54.2994 51.4234 57.3803 47.626 57.1869 46.5125C57.0078 45.4845 53.4454 43.4947 52.9365 43.2097L56.3167 37.3512L56.8256 36.8738C57.3345 36.3334 58.0826 35.5741 58.6322 35.2046C58.7115 35.1509 58.7941 35.1023 58.8795 35.0591C58.9884 37.0469 59.3956 40.942 59.9991 42.2581C60.7625 43.9201 62.8246 46.3191 62.6281 48.7425C62.4317 51.1659 58.4368 54.6367 58.5671 58.0423C58.6973 61.4479 64.9192 69.5038 65.8688 70.8789C66.8185 72.254 69.0464 71.6647 69.3742 72.8433C69.7019 74.0219 68.5223 77.0357 68.9151 77.627C69.308 78.2183 74.22 83.2596 75.3996 86.141C76.5793 89.0224 75.9228 95.5048 76.7747 96.8168C77.6266 98.1288 80.6424 99.3054 81.424 100.877C82.2057 102.448 82.8653 108.147 84.2403 109.784C85.1655 110.882 86.619 112.748 87.476 113.855Z" fill="#D45147"/>
<path d="M107.132 97.7405C105.481 99.8159 103.694 101.78 101.783 103.618C100.61 101.074 98.2208 95.8983 97.3404 94.1955C96.1617 91.9023 93.5419 90.9202 92.232 89.8067C90.922 88.6932 88.4335 84.7644 87.778 83.2245C87.1225 81.6845 81.2946 75.7945 81.2284 74.4815C81.1622 73.1685 83.1938 73.0403 83.3902 72.5171C83.5867 71.994 83.7831 67.6052 83.3902 66.1639C83.2223 65.5533 80.7337 61.0749 77.8676 56.0947C81.1551 56.3848 91.7689 57.3588 92.1007 57.9115C92.4935 58.567 91.1846 69.9624 92.1007 71.5339C93.0167 73.1054 99.7638 76.4469 100.222 77.5594C100.68 78.6718 99.8289 81.6856 100.615 83.5848C101.4 85.484 105.003 89.0871 105.33 90.3308C105.657 91.5746 105.737 94.4398 106.379 96.1599C106.587 96.7058 106.839 97.2344 107.132 97.7405Z" fill="#D45147"/>
<path d="M115.837 82.85C113.667 88.2065 110.735 93.2217 107.133 97.7406C106.84 97.2345 106.588 96.7059 106.379 96.16C105.736 94.4399 105.659 91.5798 105.331 90.331C105.003 89.0821 101.401 85.4841 100.615 83.5849C99.8297 81.6857 100.682 78.6729 100.223 77.5595C99.7636 76.446 93.0185 73.1065 92.1015 71.534C91.1844 69.9615 92.4944 58.5671 92.1015 57.9116C93.1478 58.2394 101.465 75.1371 102.45 76.0531C103.434 76.9691 105.659 77.2327 110.309 79.1971C112.359 80.068 114.232 81.306 115.837 82.85Z" fill="white"/>
</svg>
