<svg width="90" height="90" viewBox="0 0 90 90" fill="none" xmlns="http://www.w3.org/2000/svg">
<mask id="mask0_1270_15134" style="mask-type:luminance" maskUnits="userSpaceOnUse" x="8" y="8" width="74" height="74">
<path d="M45.0053 81.8253C37.723 81.8253 30.6043 79.6658 24.5493 75.62C18.4944 71.5742 13.7751 65.8238 10.9883 59.0958C8.2015 52.3679 7.47235 44.9647 8.89304 37.8224C10.3137 30.68 13.8205 24.1194 18.9698 18.9701C24.1191 13.8207 30.6798 10.314 37.8221 8.89329C44.9644 7.47259 52.3677 8.20174 59.0956 10.9885C65.8235 13.7753 71.574 18.4946 75.6198 24.5496C79.6656 30.6046 81.825 37.7233 81.825 45.0055C81.825 49.8408 80.8726 54.6287 79.0223 59.0958C77.1719 63.563 74.4598 67.622 71.0408 71.041C67.6217 74.46 63.5628 77.1722 59.0956 79.0225C54.6284 80.8729 49.8405 81.8253 45.0053 81.8253Z" fill="white"/>
</mask>
<g mask="url(#mask0_1270_15134)">
<path d="M82.988 7.01172H7V82.9884H82.988V7.01172Z" fill="#031555"/>
<path d="M46.3821 35.8826L24.4551 81.6673H68.309L46.3821 35.8826Z" fill="#3885CA"/>
<path d="M46.3828 35.8826L61.8514 81.6673H68.3098L46.3828 35.8826Z" fill="#042F52"/>
<path d="M46.3828 35.8826L58.7125 81.6673H61.8514L46.3828 35.8826Z" fill="#185991"/>
<path d="M46.3828 35.8826V81.6673H58.7125L46.3828 35.8826Z" fill="#0A3E6F"/>
<path d="M46.3826 35.8826L32.5625 81.6786H37.6773L46.3826 35.8826Z" fill="#0A3E6F"/>
<path d="M46.3821 35.8826L24.4551 81.6673L32.562 81.6786L46.3821 35.8826Z" fill="#3686CB"/>
<path d="M46.3823 35.8826L40.2852 48.5962L42.7466 47.9413L46.3823 35.8826Z" fill="white"/>
<path d="M46.3837 35.8826L42.748 47.9413L44.0126 48.3703" fill="#CCCCCC"/>
<path d="M46.3828 35.8826V48.7204L49.6233 47.93" fill="#999999"/>
<path d="M46.3828 35.8826L49.6233 47.93L50.5605 48.2461L46.3828 35.8826Z" fill="white"/>
<path d="M46.3828 35.8826L50.5605 48.2461L52.1412 47.8961" fill="#999999"/>
<path d="M46.383 35.8826L37.6777 81.6786L46.383 81.6673V35.8826Z" fill="#185991"/>
<path d="M46.3828 35.8826L44.0117 48.3703L46.3828 48.7204V35.8826Z" fill="white"/>
<path d="M26.7142 42.1038L8.60352 81.6672H44.8361L26.7142 42.1038Z" fill="#3885CA"/>
<path d="M26.7148 42.1038L39.4962 81.6672H44.8368L26.7148 42.1038Z" fill="#042F52"/>
<path d="M26.7148 42.1038L36.9106 81.6672H39.4962L26.7148 42.1038Z" fill="#185991"/>
<path d="M26.7133 42.1038L24.4551 81.6672H36.909L26.7133 42.1038Z" fill="#0A3E6F"/>
<path d="M26.714 42.1038L15.2988 81.6785L24.4558 81.6672L26.714 42.1038Z" fill="#185991"/>
<path d="M26.7142 42.1038L8.60352 81.6672L15.299 81.6785L26.7142 42.1038Z" fill="#3686CB"/>
<path d="M26.7135 42.1038L21.6777 53.0898L23.7101 52.5253L26.7135 42.1038Z" fill="white"/>
<path d="M26.7143 42.1038L23.7109 52.5253L26.0707 53.3608" fill="#CCCCCC"/>
<path d="M26.7139 42.1038L26.0703 53.3608L29.4011 52.514" fill="#999999"/>
<path d="M26.7148 42.1038L29.4021 52.514L30.1699 52.785L26.7148 42.1038Z" fill="white"/>
<path d="M26.7148 42.1038L30.1699 52.785L31.4796 52.4914" fill="#999999"/>
<path d="M66.4351 49.0027L51.4746 81.6673H81.3956L66.4351 49.0027Z" fill="#3885CA"/>
<path d="M66.4355 49.0027L76.9926 81.6673H81.396L66.4355 49.0027Z" fill="#042F52"/>
<path d="M66.4355 49.0027L74.8473 81.6673H76.9926L66.4355 49.0027Z" fill="#185991"/>
<path d="M66.4353 49.0027L64.5723 81.6673H74.847L66.4353 49.0027Z" fill="#0A3E6F"/>
<path d="M66.4357 49.0027L57.0078 81.6786L64.5727 81.6673L66.4357 49.0027Z" fill="#185991"/>
<path d="M66.4351 49.0027L51.4746 81.6673L57.0072 81.6786L66.4351 49.0027Z" fill="#3686CB"/>
<path d="M66.4363 49.0027L62.2812 58.0693L63.9636 57.6064L66.4363 49.0027Z" fill="white"/>
<path d="M66.4356 49.0027L63.9629 57.6064L65.9049 58.2951" fill="#CCCCCC"/>
<path d="M66.435 49.0027L65.9043 58.2951L68.648 57.5951" fill="#999999"/>
<path d="M66.4355 49.0027L68.6486 57.5951L69.2922 57.8209L66.4355 49.0027Z" fill="white"/>
<path d="M66.4355 49.0027L69.2922 57.8209L70.3648 57.5725" fill="#999999"/>
<path d="M51.4751 56.116L39.0664 81.6673H63.8839L51.4751 56.116Z" fill="#3885CA"/>
<path d="M51.4746 56.116L59.5702 81.6673H63.8833L51.4746 56.116Z" fill="#042F52"/>
<path d="M51.4746 56.116V81.6673H59.5702L51.4746 56.116Z" fill="#0A3E6F"/>
<path d="M39.0664 81.6673H44.8361L51.4751 56.116L39.0664 81.6673Z" fill="#3885CA"/>
<path d="M51.475 56.116V81.6673H44.8359L51.475 56.116Z" fill="#185991"/>
<path d="M51.4747 56.116L48.9004 66.0294L51.4747 66.3117V56.116Z" fill="#E8E8E8"/>
<path d="M51.4754 56.116L47.2188 64.889L48.9011 66.0294L51.4754 56.116Z" fill="white"/>
<path d="M51.4746 56.116V66.3117L54.4893 65.6342L51.4746 56.116Z" fill="#CCCCCC"/>
<path d="M51.4746 56.116L54.4893 65.6342L55.6297 64.6632L51.4746 56.116Z" fill="#999999"/>
<path d="M42.0935 12.9395H41.6758V39.9699H42.0935V12.9395Z" fill="url(#paint0_linear_1270_15134)"/>
<path d="M42.6123 12.9394C42.5948 13.0867 42.5351 13.2257 42.4404 13.3397C42.3456 13.4537 42.2199 13.5379 42.0784 13.5821C41.9369 13.6262 41.7856 13.6284 41.6428 13.5884C41.5001 13.5485 41.3719 13.468 41.2739 13.3568C41.1758 13.2456 41.1121 13.1084 41.0903 12.9617C41.0686 12.8151 41.0898 12.6653 41.1513 12.5304C41.2128 12.3955 41.3121 12.2813 41.4371 12.2017C41.5621 12.122 41.7075 12.0802 41.8558 12.0813C42.0695 12.0958 42.2688 12.1941 42.4105 12.3548C42.5521 12.5155 42.6247 12.7256 42.6123 12.9394Z" fill="url(#paint1_linear_1270_15134)"/>
<path d="M46.3613 31.2872C46.4017 31.054 46.4583 30.8239 46.5306 30.5985C46.5984 30.3727 46.6435 30.1356 46.7113 29.9098C46.779 29.6839 46.8242 29.4581 46.8919 29.2323C46.9597 29.0065 46.9936 28.7694 47.05 28.5436H47.2533C47.2533 28.7807 47.3549 29.0065 47.4113 29.2436L47.7613 30.6098C47.8178 30.8356 47.8968 31.0727 47.942 31.2872C47.7989 31.3732 47.6663 31.4755 47.5468 31.5921C47.4248 31.7091 47.2925 31.8149 47.1516 31.9083C47.0613 31.9083 47.0049 31.8066 46.9484 31.7615L46.7452 31.6147C46.6548 31.5357 46.429 31.3663 46.3613 31.2872ZM47.8743 40.1732H49.2743V29.5823C49.2806 29.6045 49.2806 29.6279 49.2743 29.6501L49.4211 30.1469L49.8953 31.9083C49.9697 32.2978 50.0911 32.6769 50.2566 33.0373C50.3248 33.1126 50.4139 33.1658 50.5125 33.1899C50.6111 33.2141 50.7147 33.2081 50.8099 33.1728C50.9362 33.125 51.0406 33.0326 51.1035 32.9131C51.1084 32.8643 51.1084 32.8152 51.1035 32.7664V32.7438C51.1035 32.676 51.1035 32.5631 51.047 32.4841C50.9228 31.9308 50.7534 31.355 50.5954 30.7904C50.5163 30.463 50.4147 30.1469 50.3357 29.8194C50.2566 29.492 50.2566 29.492 50.2115 29.3339C50.1807 29.1749 50.1235 29.0223 50.0421 28.8823C49.6018 28.1145 49.3195 28.0693 48.4049 28.0693H46.0451C45.6387 28.0693 45.2548 28.0693 44.8596 28.0693C44.4644 28.0693 44.0466 28.0693 43.6402 28.0693H41.7772C41.7 28.0702 41.6242 28.089 41.5556 28.1243C41.487 28.1596 41.4275 28.2103 41.382 28.2726C41.3216 28.3339 41.2815 28.4123 41.2674 28.4972C41.2533 28.5821 41.2657 28.6692 41.3029 28.7468C41.3242 28.8185 41.3617 28.8844 41.4127 28.9393C41.4636 28.9941 41.5265 29.0364 41.5965 29.0629C41.9947 29.0982 42.3952 29.0982 42.7933 29.0629H44.0353C44.4305 29.0629 44.8483 29.0629 45.2435 29.0629C45.2435 29.142 45.2435 32.8228 45.2435 33.0938C45.2435 33.3648 45.1531 33.2632 45.0402 33.3083L44.7693 33.4325C44.4079 33.6019 44.0353 33.76 43.6402 33.9406C43.45 34.0073 43.271 34.1024 43.1095 34.2229C42.5675 34.6632 42.8837 35.4988 43.1095 36.0294C43.3353 36.5601 43.6063 37.1585 43.8208 37.7457C43.8761 37.9653 43.9478 38.1804 44.0353 38.3892C44.2316 38.3389 44.424 38.2748 44.6112 38.1973C44.8014 38.1464 44.9865 38.0784 45.1644 37.9941C45.1644 37.9941 44.7241 36.6843 44.6676 36.5262L44.5773 36.244V36.1536C44.5427 36.031 44.5013 35.9103 44.4531 35.7923C44.4185 35.666 44.377 35.5416 44.3289 35.4197C44.3289 35.2955 44.2499 35.1713 44.216 35.0584C44.47 34.9526 44.7302 34.8621 44.9951 34.7874C45.9131 34.5308 46.8651 34.4165 47.8178 34.4487V39.9248C47.8178 40.1168 47.8178 40.1619 47.8178 40.2184L47.8743 40.1732Z" fill="#242524"/>
<path d="M47.2419 24.1627C46.7867 24.2015 46.3631 24.4113 46.0564 24.7498C45.8927 24.9215 45.7677 25.1261 45.6898 25.3501C45.6119 25.5741 45.5829 25.8122 45.6047 26.0483C45.6193 26.3987 45.7459 26.7351 45.966 27.008C46.1455 27.2403 46.3796 27.4247 46.6475 27.5449C46.9154 27.665 47.2087 27.7172 47.5016 27.6968C47.7416 27.6878 47.9768 27.6261 48.1903 27.5161C48.5762 27.3158 48.8768 26.9831 49.0372 26.579C49.1249 26.3419 49.1631 26.0893 49.1495 25.8369C49.1359 25.5844 49.0708 25.3375 48.9581 25.1112C48.8611 24.9205 48.7311 24.7485 48.5742 24.6031C48.3974 24.4375 48.1866 24.3123 47.9565 24.2363C47.7265 24.1602 47.4826 24.1351 47.2419 24.1627Z" fill="#242524"/>
<path d="M51.9733 21.2158L42.0938 19.7931V14.5203L51.9733 15.9429V21.2158Z" fill="#962732"/>
<path d="M52.0072 21.2496L42.0938 19.8156V14.4863L52.0072 15.909V21.2496ZM42.1163 19.7705L51.9394 21.1818V15.9654L42.1163 14.5428V19.7705Z" fill="url(#paint2_linear_1270_15134)"/>
<path d="M51.9721 21.2157L48.9688 21.9722V16.6994L51.9721 15.9429V21.2157Z" fill="#AA3D52"/>
<path d="M48.9355 22.006V16.6767L51.9841 15.9089V21.2495L48.9355 22.006ZM48.9355 16.7219V21.9383L51.9389 21.1931V15.9767L48.9355 16.7219Z" fill="url(#paint3_linear_1270_15134)"/>
<path d="M58.8483 23.3947L48.9688 21.9721V16.6992L58.8483 18.1219L55.9353 20.7527L58.8483 23.3947Z" fill="#FF3366"/>
<path d="M58.9393 23.4401L48.9355 21.9948V16.6655L58.9167 18.0656L55.9698 20.719L58.9393 23.4401ZM48.992 21.9497L58.7699 23.3498L55.8908 20.7528L58.7699 18.1672L48.9694 16.7559L48.992 21.9497Z" fill="url(#paint4_linear_1270_15134)"/>
<path d="M0 0V90H90V0H0ZM45.0056 81.8254C37.7234 81.8254 30.6047 79.6659 24.5497 75.6201C18.4947 71.5743 13.7755 65.8239 10.9887 59.0959C8.20186 52.368 7.47271 44.9648 8.8934 37.8225C10.3141 30.6801 13.8208 24.1195 18.9702 18.9702C24.1195 13.8208 30.6801 10.3141 37.8225 8.8934C44.9648 7.47271 52.368 8.20186 59.0959 10.9887C65.8239 13.7755 71.5743 18.4947 75.6201 24.5497C79.6659 30.6047 81.8254 37.7234 81.8254 45.0056C81.8254 49.8409 80.873 54.6288 79.0226 59.0959C77.1723 63.5631 74.4601 67.6221 71.0411 71.0411C67.6221 74.4601 63.5631 77.1723 59.0959 79.0226C54.6288 80.873 49.8409 81.8254 45.0056 81.8254Z" fill="#E3E2E5"/>
</g>
<defs>
<linearGradient id="paint0_linear_1270_15134" x1="41.6758" y1="26.4547" x2="42.0935" y2="26.4547" gradientUnits="userSpaceOnUse">
<stop stop-color="#E33943"/>
<stop offset="1" stop-color="#FC4B69"/>
</linearGradient>
<linearGradient id="paint1_linear_1270_15134" x1="41.0993" y1="12.9394" x2="42.6123" y2="12.9394" gradientUnits="userSpaceOnUse">
<stop stop-color="#F44A6B"/>
<stop offset="0.85" stop-color="#993333"/>
</linearGradient>
<linearGradient id="paint2_linear_1270_15134" x1="42.0599" y1="17.8623" x2="52.0072" y2="17.8623" gradientUnits="userSpaceOnUse">
<stop stop-color="white"/>
<stop offset="0.3" stop-color="#FC4B69"/>
</linearGradient>
<linearGradient id="paint3_linear_1270_15134" x1="48.9355" y1="18.9575" x2="52.0067" y2="18.9575" gradientUnits="userSpaceOnUse">
<stop stop-color="white"/>
<stop offset="0.3" stop-color="#FC4B69"/>
</linearGradient>
<linearGradient id="paint4_linear_1270_15134" x1="48.9355" y1="20.0528" x2="58.9393" y2="20.0528" gradientUnits="userSpaceOnUse">
<stop stop-color="white"/>
<stop offset="0.3" stop-color="#FC4B69"/>
</linearGradient>
</defs>
</svg>
