<svg width="90" height="90" viewBox="0 0 90 90" fill="none" xmlns="http://www.w3.org/2000/svg">
<mask id="mask0_1270_14921" style="mask-type:luminance" maskUnits="userSpaceOnUse" x="8" y="8" width="74" height="74">
<path d="M45.0004 81.8388C37.7208 81.8343 30.6059 79.6718 24.555 75.6247C18.5042 71.5775 13.7889 65.8274 11.0052 59.1011C8.22145 52.3747 7.49429 44.9741 8.91557 37.8346C10.3369 30.6951 13.8428 24.1372 18.9902 18.9897C24.1377 13.8423 30.6956 10.3364 37.8351 8.91508C44.9746 7.4938 52.3752 8.22096 59.1016 11.0047C65.8279 13.7884 71.578 18.5037 75.6252 24.5546C79.6723 30.6055 81.8348 37.7203 81.8393 44.9999C81.8423 49.8385 80.8914 54.6302 79.0412 59.1011C77.1909 63.5719 74.4775 67.6342 71.0561 71.0556C67.6347 74.477 63.5724 77.1904 59.1016 79.0407C54.6307 80.8909 49.839 81.8418 45.0004 81.8388Z" fill="white"/>
</mask>
<g mask="url(#mask0_1270_14921)">
<path d="M82.9984 7.01318H7.00195V82.9983H82.9984V7.01318Z" fill="#031555"/>
<path d="M64.2654 66.0393C64.3353 65.7606 64.3697 65.4741 64.3677 65.1868C64.3677 63.891 63.6858 62.8339 62.8446 62.8339C62.8446 62.8339 62.8446 62.7657 62.8446 62.7316C62.8446 61.4813 62.1967 60.4583 61.4011 60.4583H61.3101C61.3101 58.4465 60.3213 56.821 59.0368 56.821C57.7524 56.821 57.0363 58.1282 56.8545 59.8332C56.2965 60.2794 55.9206 60.914 55.7974 61.6177C55.6756 61.1344 55.4108 60.699 55.0377 60.3684C54.6646 60.0379 54.2005 59.8276 53.706 59.765C52.3533 59.765 51.2622 61.504 51.2622 63.6409C51.2505 63.8037 51.2505 63.967 51.2622 64.1297C51.1488 64.1186 51.0346 64.1186 50.9212 64.1297C49.7845 64.1297 48.8184 65.6755 48.8184 67.5397C48.8184 69.4038 49.7504 70.9496 50.9212 70.9496C51.1409 70.9339 51.3552 70.8733 51.5506 70.7717C51.7461 70.67 51.9187 70.5294 52.0578 70.3586C52.3838 70.949 52.859 71.4435 53.4359 71.7927C54.0129 72.1419 54.6714 72.3336 55.3457 72.3486C56.02 72.3635 56.6863 72.2013 57.2782 71.878C57.8701 71.5547 58.3668 71.0817 58.7186 70.5063C59.2028 70.7966 59.7567 70.9498 60.3213 70.9496C60.9738 70.927 61.6069 70.7223 62.1492 70.3588C62.6916 69.9952 63.1214 69.4873 63.3902 68.8923C63.5721 69.3469 63.8562 69.6425 64.1745 69.6425C64.7087 69.6425 65.1407 68.8241 65.1407 67.8125C65.1407 66.8008 64.7883 66.0393 64.2654 66.0393Z" fill="#CEDDE2"/>
<path d="M55.5251 72.5751C54.8365 72.577 54.1595 72.3986 53.5612 72.0576C52.963 71.7166 52.4644 71.2249 52.1152 70.6314C51.8228 70.9558 51.4144 71.1518 50.9785 71.177C49.7623 71.177 48.7734 69.5516 48.7734 67.5397C48.7734 65.5279 49.7623 63.9138 50.9785 63.9138C51.0539 63.9031 51.1305 63.9031 51.2059 63.9138C51.1822 63.8278 51.1633 63.7405 51.149 63.6524C51.149 61.3791 52.2857 59.5832 53.6951 59.5832C54.5249 59.5832 55.3092 60.5607 55.7866 61.6292C55.9081 60.8891 56.2767 60.212 56.8323 59.7082C57.0483 57.9237 57.9689 56.6506 59.1056 56.6506C60.2422 56.6506 61.3789 58.2647 61.3789 60.2765C62.2086 60.2765 62.8906 61.3336 62.9134 62.6521C63.7659 62.7317 64.4479 63.7888 64.4479 65.1869C64.4461 65.4153 64.4271 65.6433 64.391 65.8689C64.9139 65.9825 65.3344 66.835 65.3344 67.858C65.3344 68.881 64.8457 69.8699 64.266 69.8699C64.0875 69.8468 63.9191 69.7737 63.7804 69.6591C63.6416 69.5445 63.5381 69.3929 63.4817 69.222C63.1915 69.7924 62.7538 70.2746 62.2141 70.6184C61.6743 70.9623 61.0523 71.1552 60.4127 71.177C59.858 71.1806 59.3124 71.0354 58.8328 70.7565C58.4759 71.3105 57.9866 71.7669 57.4091 72.0844C56.8316 72.4019 56.1842 72.5706 55.5251 72.5751ZM52.1152 70.1654V70.2563C52.447 70.8425 52.9274 71.3309 53.5081 71.6721C54.0889 72.0134 54.7493 72.1955 55.4228 72.2C56.0676 72.1994 56.7015 72.0341 57.2644 71.7198C57.8274 71.4055 58.3007 70.9526 58.6396 70.4041H58.6964C59.1711 70.6861 59.7129 70.8352 60.265 70.836C60.9009 70.8174 61.519 70.6213 62.0493 70.2698C62.5795 69.9182 63.0009 69.4254 63.2657 68.8469L63.3453 68.6878L63.4135 68.8696C63.584 69.2902 63.8341 69.5289 64.1182 69.5289C64.5956 69.5289 64.9821 68.8014 64.9821 67.8921C64.9821 66.9828 64.5956 66.2553 64.1182 66.2553H63.9364L64.0046 65.9825C64.0728 65.7306 64.1072 65.4706 64.1069 65.2096C64.1069 64.0161 63.459 63.0386 62.6747 63.0386H62.561V62.7544C62.561 61.6178 61.9586 60.6744 61.2198 60.6744H61.1402H61.0265V60.4698C61.0265 58.5602 60.0831 57.0598 58.9124 57.0598C57.7416 57.0598 57.0028 58.2647 56.8323 59.9242V60.0265H56.7755C56.2454 60.4442 55.8891 61.0436 55.7752 61.7087L55.707 62.0043L55.6047 61.7428C55.1728 60.6062 54.4681 59.9583 53.5928 59.9583C52.2971 59.9583 51.2513 61.6178 51.2513 63.6524C51.2513 63.8115 51.2513 63.9593 51.2513 64.1184V64.3685H51.1149C51.0121 64.3345 50.9049 64.3153 50.7967 64.3117C49.66 64.3117 48.7848 65.7779 48.7848 67.5738C48.7848 69.3698 49.6828 70.836 50.7967 70.836C51.0157 70.828 51.2305 70.7731 51.4266 70.6751C51.6227 70.577 51.7955 70.4381 51.9333 70.2677L52.1152 70.1654Z" fill="url(#paint0_linear_1270_14921)"/>
<path d="M15.7981 68.199C15.7012 67.9251 15.6513 67.6369 15.6504 67.3465C15.6288 66.7472 15.8448 66.1637 16.2514 65.7231C16.6581 65.2824 17.2223 65.0202 17.8214 64.9936C17.8214 64.9936 17.8214 64.9254 17.8214 64.8913C17.7903 64.3202 17.9871 63.7601 18.3686 63.3339C18.75 62.9077 19.2849 62.6503 19.856 62.618H20.0037C19.941 61.7205 20.2356 60.8346 20.8232 60.1533C21.4108 59.472 22.2439 59.0505 23.1409 58.9807C23.9299 59.0339 24.6743 59.3662 25.2408 59.9181C25.8072 60.47 26.1588 61.2054 26.2326 61.9928C26.5906 62.1759 26.908 62.4293 27.1658 62.7379C27.4236 63.0465 27.6165 63.4039 27.7329 63.7887C28.0101 63.2382 28.4312 62.7731 28.9516 62.4429C29.472 62.1127 30.0721 61.9296 30.6882 61.9133C31.6644 61.969 32.5787 62.4095 33.2307 63.1382C33.8826 63.8668 34.2191 64.8243 34.1664 65.8006C34.1773 65.9634 34.1773 66.1266 34.1664 66.2894C34.3288 66.2718 34.4927 66.2718 34.6552 66.2894C35.4801 66.415 36.2327 66.8321 36.7764 67.465C37.3202 68.0979 37.6193 68.9047 37.6193 69.7391C37.6193 70.5735 37.3202 71.3803 36.7764 72.0132C36.2327 72.6461 35.4801 73.0632 34.6552 73.1888C34.0334 73.1714 33.4362 72.9429 32.9615 72.541C32.3517 73.1975 31.6076 73.7149 30.7799 74.0582C29.9522 74.4014 29.0603 74.5624 28.1649 74.5301C27.3131 74.5619 26.4637 74.42 25.6684 74.1133C24.8731 73.8065 24.1485 73.3411 23.5387 72.7456C22.8176 73.0418 22.045 73.1924 21.2654 73.1888C20.4287 73.2119 19.5982 73.0389 18.8403 72.6837C18.0824 72.3284 17.4182 71.8008 16.9007 71.1429C16.7969 71.3582 16.636 71.5409 16.4356 71.6712C16.2352 71.8014 16.0029 71.8742 15.764 71.8817C15.0025 71.8817 14.3887 71.0633 14.3887 70.0517C14.3887 69.0401 15.0366 68.199 15.7981 68.199Z" fill="url(#paint1_linear_1270_14921)"/>
<path d="M28.1894 74.7121C27.3284 74.7383 26.4711 74.5908 25.6684 74.2783C24.8658 73.9659 24.1343 73.4949 23.5177 72.8934C22.7929 73.1742 22.0218 73.3169 21.2444 73.314C20.4153 73.3351 19.5923 73.167 18.838 72.8223C18.0836 72.4776 17.4178 71.9655 16.8911 71.3249C16.7761 71.5265 16.6111 71.6952 16.412 71.8146C16.2129 71.9341 15.9865 72.0003 15.7544 72.0068C14.936 72.0068 14.2768 71.1089 14.2768 69.995C14.2338 69.5593 14.3426 69.1222 14.585 68.7576C14.8274 68.393 15.1883 68.1234 15.6066 67.9945C15.5571 67.7743 15.5304 67.5495 15.5271 67.3238C15.4984 66.6952 15.7145 66.08 16.13 65.6073C16.5454 65.1347 17.1278 64.8414 17.7549 64.7891C17.7269 64.1935 17.934 63.6107 18.3315 63.1663C18.7291 62.722 19.2854 62.4516 19.8805 62.4135C19.8541 61.5094 20.1752 60.6296 20.7778 59.9552C21.3804 59.2807 22.2186 58.8628 23.1199 58.7876C23.923 58.8395 24.6818 59.1738 25.2621 59.7313C25.8425 60.2887 26.207 61.0335 26.2912 61.8338C26.9602 62.1905 27.4741 62.7814 27.7347 63.4933C28.0254 62.9619 28.4524 62.5175 28.9719 62.2059C29.4913 61.8943 30.0843 61.7266 30.69 61.7202C31.7025 61.7931 32.6452 62.2626 33.3135 63.0266C33.9818 63.7907 34.3216 64.7876 34.2591 65.8007V66.0735H34.6228C35.4814 66.2181 36.261 66.6623 36.8232 67.3271C37.3854 67.9919 37.6939 68.8344 37.6939 69.7051C37.6939 70.5758 37.3854 71.4183 36.8232 72.0832C36.261 72.748 35.4814 73.1921 34.6228 73.3367C34.0193 73.3295 33.4355 73.1216 32.9633 72.7457C32.3517 73.3922 31.61 73.9017 30.7871 74.2406C29.9643 74.5796 29.0789 74.7403 28.1894 74.7121ZM23.5518 72.4388C24.1504 73.0602 24.872 73.5499 25.6705 73.8767C26.469 74.2036 27.3269 74.3603 28.1894 74.337C29.0789 74.374 29.966 74.2185 30.79 73.8811C31.6139 73.5437 32.3552 73.0323 32.9633 72.3819C33.426 72.7576 34.0041 72.9624 34.6001 72.9616C35.3897 72.8571 36.1145 72.4692 36.6395 71.8701C37.1644 71.2711 37.4539 70.5017 37.4539 69.7051C37.4539 68.9086 37.1644 68.1392 36.6395 67.5401C36.1145 66.9411 35.3897 66.5532 34.6001 66.4486C34.4413 66.4328 34.2814 66.4328 34.1227 66.4486H33.9863V66.1986C33.9863 66.0394 33.9863 65.8917 33.9863 65.7553C34.0061 65.288 33.9336 64.8213 33.7729 64.3821C33.6121 63.9428 33.3664 63.5396 33.0497 63.1954C32.733 62.8513 32.3515 62.5729 31.9271 62.3763C31.5027 62.1798 31.0437 62.0688 30.5763 62.0498C29.977 62.0695 29.3934 62.247 28.8845 62.5643C28.3756 62.8816 27.9594 63.3275 27.6779 63.8571L27.5983 64.0162L27.5301 63.823C27.416 63.4566 27.2294 63.1168 26.9814 62.8239C26.7334 62.5311 26.4291 62.291 26.0866 62.118V62.0157C26.0213 61.2555 25.6822 60.5449 25.1324 60.016C24.5825 59.487 23.8593 59.1757 23.0972 59.14C22.2438 59.1956 21.4464 59.5841 20.8767 60.2219C20.3069 60.8597 20.0104 61.6957 20.051 62.5499V62.7431H19.8123C19.2806 62.7639 18.7788 62.9944 18.4166 63.3842C18.0545 63.774 17.8615 64.2914 17.8799 64.8232V65.1074H17.7777C17.4985 65.1133 17.2233 65.1741 16.9676 65.2864C16.712 65.3988 16.481 65.5603 16.2878 65.7619C16.0947 65.9636 15.9431 66.2012 15.8418 66.4614C15.7406 66.7216 15.6915 66.9992 15.6976 67.2784C15.6948 67.5338 15.7371 67.7878 15.8226 68.0286L15.9249 68.3241H15.7999C15.434 68.4161 15.1093 68.6277 14.8773 68.9252C14.6453 69.2228 14.5194 69.5893 14.5194 69.9666C14.5194 70.3438 14.6453 70.7103 14.8773 71.0079C15.1093 71.3054 15.434 71.517 15.7999 71.609C16.0188 71.5974 16.2304 71.5268 16.4125 71.4048C16.5946 71.2827 16.7403 71.1137 16.8342 70.9157V70.802L16.9024 70.8929C17.4128 71.5421 18.0686 72.0624 18.8168 72.4118C19.5651 72.7613 20.3849 72.9301 21.2103 72.9048C21.9889 72.9094 22.761 72.7627 23.4836 72.4729L23.5518 72.4388Z" fill="url(#paint2_linear_1270_14921)"/>
<path d="M85.3051 64.0957C85.2648 63.7656 85.1307 63.454 84.9186 63.1978C85.187 62.7108 85.3241 62.1624 85.3165 61.6065C85.3165 60.1856 84.4867 59.0263 83.4751 59.0263C83.276 59.0317 83.08 59.0767 82.8985 59.1587C82.7171 59.2406 82.5537 59.3579 82.418 59.5037C81.8724 52.9679 73.9386 52.6269 72.4609 59.6514C69.6421 56.4347 64.2998 57.5259 63.4814 65.6643C63.3096 65.2808 63.0349 64.9525 62.6878 64.7157C62.3407 64.479 61.9347 64.3431 61.515 64.3231C60.8945 64.3968 60.3197 64.6867 59.8916 65.1419C59.4634 65.597 59.2092 66.1884 59.1735 66.8123C58.9207 66.6563 58.6295 66.5737 58.3324 66.5736C57.7287 66.6559 57.181 66.9703 56.8053 67.4499C56.4297 67.9295 56.2558 68.5367 56.3205 69.1425C56.1735 69.5035 56.0963 69.8892 56.0932 70.2791C55.751 70.1709 55.3949 70.1135 55.0361 70.1086C54.2326 70.1108 53.4557 70.3966 52.8424 70.9156C52.4375 70.662 51.9774 70.5099 51.5011 70.4723C51.3271 70.1236 51.0664 69.8254 50.7439 69.6064C50.4214 69.3875 50.0481 69.2551 49.6597 69.222C49.433 69.2223 49.2087 69.2687 49.0005 69.3584C48.8271 69.1405 48.6079 68.9633 48.3585 68.8396C48.109 68.7158 47.8353 68.6485 47.5569 68.6423C47.261 68.6511 46.971 68.7273 46.709 68.8652C46.447 69.0031 46.2199 69.199 46.0452 69.438C45.9315 67.4829 44.9654 66.028 43.7719 66.028C42.5784 66.028 41.7486 67.392 41.5554 69.1879C41.2111 69.4033 40.9145 69.6869 40.6839 70.0211C40.4532 70.3554 40.2934 70.7333 40.2142 71.1316C39.8852 70.7465 39.4203 70.5031 38.9163 70.4523C38.4123 70.4015 37.9082 70.5471 37.5089 70.8588C37.4257 70.8003 37.3265 70.7686 37.2248 70.7679C37.0202 69.2902 36.1677 68.1649 35.1447 68.0854H35.0083C33.9398 68.0854 33.0305 69.222 32.8146 70.7338C32.5643 70.5291 32.2513 70.4168 31.928 70.4155C31.6866 70.4132 31.4481 70.4688 31.2325 70.5775C31.017 70.6863 30.8306 70.8451 30.689 71.0407C30.5701 70.2722 30.1638 69.5775 29.5524 69.097C29.3932 67.3011 28.6317 65.9371 27.7224 65.9371C26.8131 65.9371 25.9606 67.4488 25.8696 69.347C25.7445 69.1203 25.5645 68.9286 25.346 68.7896C25.1276 68.6506 24.8777 68.5687 24.6193 68.5514C24.3769 68.5635 24.1411 68.6352 23.933 68.7601C23.7248 68.885 23.5506 69.0593 23.4258 69.2675C23.2583 69.177 23.0707 69.1301 22.8802 69.1311C22.3005 69.1311 21.7436 69.6085 21.3571 70.3814C20.9415 70.4328 20.5482 70.598 20.2205 70.8588C19.9892 70.6094 19.7098 70.4094 19.3993 70.2707C19.0887 70.132 18.7533 70.0575 18.4132 70.0518C18.1138 70.0578 17.8177 70.1155 17.538 70.2223C17.5373 69.8362 17.4759 69.4526 17.3561 69.0856C17.3561 67.6648 16.6059 66.5168 15.6966 66.5168C15.4455 66.5176 15.2017 66.6015 15.0033 66.7555C14.81 65.3347 14.0144 64.2662 13.0596 64.2662C12.6904 64.3119 12.3421 64.4625 12.056 64.7003C11.7699 64.938 11.558 65.2529 11.4455 65.6075C11.9684 58.1056 6.35334 56.3779 4.03457 59.5946C3.86625 58.1138 3.1917 56.7366 2.125 55.6959V82.9755H87.6807V62.8568C87.2142 62.8569 86.7547 62.9696 86.3411 63.1853C85.9276 63.401 85.5722 63.7133 85.3051 64.0957Z" fill="url(#paint3_linear_1270_14921)"/>
<path d="M87.6807 82.9755H2.125V55.6958C2.125 55.6958 3.59128 56.2983 4.1937 59.174C4.54199 58.7401 4.98323 58.39 5.48489 58.1494C5.98654 57.9088 6.5358 57.7839 7.09216 57.7839C7.64852 57.7839 8.19779 57.9088 8.69944 58.1494C9.20109 58.39 9.64234 58.7401 9.99062 59.174C11.2481 60.7903 11.8635 62.8145 11.7183 64.8572C11.8629 64.5987 12.0694 64.3803 12.3195 64.2215C12.5695 64.0628 12.8551 63.9687 13.1505 63.9479C14.0826 63.9479 14.9123 64.9482 15.1851 66.369C15.366 66.2569 15.5747 66.1978 15.7875 66.1985C16.7651 66.1985 17.5607 67.4374 17.5948 68.9719C17.6778 69.2541 17.7348 69.5432 17.7653 69.8358C18.0039 69.7584 18.2534 69.72 18.5041 69.7221C18.8434 69.7239 19.1789 69.7931 19.4911 69.9258C19.8034 70.0585 20.0861 70.252 20.3228 70.495C20.625 70.2629 20.9806 70.1105 21.3571 70.0517C21.4832 69.7202 21.6967 69.429 21.9748 69.2088C22.2529 68.9887 22.5854 68.848 22.9371 68.8014C23.1141 68.799 23.2892 68.8379 23.4486 68.9151C23.583 68.709 23.7643 68.5377 23.9777 68.4152C24.191 68.2927 24.4304 68.2225 24.6761 68.2104C24.8964 68.2183 25.1123 68.2743 25.3086 68.3744C25.505 68.4745 25.677 68.6164 25.8128 68.7901C26.006 66.9146 26.8131 65.5392 27.7792 65.5392C28.7454 65.5392 29.5296 66.8918 29.7342 68.7787C30.2691 69.2427 30.6366 69.8698 30.78 70.5632C30.9245 70.4032 31.0995 70.2736 31.2946 70.1819C31.4897 70.0902 31.7012 70.0382 31.9166 70.029C32.1992 70.0308 32.4753 70.1137 32.7123 70.2677C33.0192 68.7446 33.9399 67.6989 34.9856 67.6989H35.122C36.1677 67.7898 37.0429 68.8355 37.3157 70.3927H37.4862C37.8441 70.115 38.2836 69.9632 38.7365 69.9608C39.2586 69.968 39.76 70.1662 40.146 70.5178C40.3354 69.774 40.7928 69.1264 41.4304 68.6991C41.6691 66.8236 42.6466 65.471 43.7719 65.471C44.8972 65.471 45.8974 66.8577 46.1248 68.7673C46.3033 68.5739 46.5193 68.4187 46.7596 68.3112C46.9999 68.2038 47.2596 68.1463 47.5228 68.1422C47.805 68.1481 48.0827 68.214 48.3375 68.3355C48.5923 68.457 48.8183 68.6313 49.0005 68.8469C49.1998 68.7699 49.4119 68.7313 49.6256 68.7332C50.0219 68.7643 50.4038 68.8953 50.7357 69.114C51.0677 69.3326 51.3388 69.6318 51.5238 69.9835C51.9807 70.0366 52.4198 70.192 52.8083 70.4382C53.4247 69.9273 54.2013 69.6497 55.002 69.6539C55.3171 69.6507 55.631 69.6928 55.934 69.7789C55.9646 69.4723 56.0334 69.1706 56.1386 68.881C56.082 68.234 56.2737 67.5897 56.6748 67.0788C57.0759 66.568 57.6563 66.2289 58.2983 66.1303C58.4708 66.1411 58.6379 66.1946 58.7847 66.2858C58.9314 66.3771 59.0533 66.5033 59.1394 66.6531C59.4577 65.2096 60.3442 63.8797 61.4809 63.8797C62.197 63.8797 62.9699 64.8118 63.4473 65.5051C63.6292 61.7656 65.1409 59.4923 66.198 58.6057C66.6506 58.2192 67.1802 57.9335 67.7517 57.7676C68.3231 57.6016 68.9234 57.5591 69.5125 57.643C70.1017 57.7268 70.6663 57.9351 71.1687 58.2539C71.6712 58.5728 72.1001 58.9949 72.4268 59.4923C73.2452 55.3776 76.1892 53.6385 78.6216 54.15C80.7017 54.5819 82.0315 56.8098 82.3839 59.3445C82.488 59.1446 82.6381 58.9723 82.8219 58.8418C83.0057 58.7114 83.2179 58.6265 83.441 58.5943C84.5776 58.5943 85.4301 59.8787 85.4301 61.4473C85.4334 61.9828 85.325 62.5132 85.1119 63.0045C85.2105 63.1639 85.2869 63.336 85.3392 63.516C85.6029 63.1797 85.956 62.9245 86.3581 62.7798C86.7602 62.635 87.195 62.6066 87.6125 62.6976V82.9755H87.6807ZM2.125 82.9755H87.6807V63.1295C87.2313 63.1248 86.788 63.2326 86.3909 63.443C85.9939 63.6535 85.6558 63.9599 85.4074 64.3344L85.2255 64.5617V64.1525C85.1893 63.8885 85.0789 63.6402 84.9073 63.4364L84.7481 63.2432L84.8845 62.9931C85.1203 62.5693 85.2417 62.0914 85.2369 61.6064C85.2369 60.3447 84.4753 59.3331 83.5433 59.3331C83.358 59.3354 83.175 59.3748 83.0051 59.4489C82.8353 59.5231 82.682 59.6306 82.5544 59.765L82.3725 59.9469V59.5718C82.3763 58.4955 82.0188 57.449 81.3573 56.5999C80.6958 55.7509 79.7685 55.1484 78.7239 54.8888C76.3483 54.3887 73.518 55.9118 72.6996 59.7764V60.0833L72.5405 59.9128C72.1952 59.4616 71.7614 59.0857 71.2656 58.8081C70.7699 58.5306 70.2227 58.3572 69.6575 58.2987C69.0924 58.2401 68.5212 58.2977 67.9791 58.4677C67.437 58.6378 66.9353 58.9168 66.5049 59.2877C65.4705 60.1629 64.1634 61.9815 63.7769 65.7438V66.2553L63.5723 65.8802C63.4075 65.5213 63.1479 65.2141 62.8214 64.9918C62.4949 64.7695 62.114 64.6404 61.7196 64.6185C61.1453 64.6826 60.6112 64.9445 60.2089 65.3593C59.8066 65.7741 59.5611 66.3159 59.5145 66.8918V67.1646L59.1053 67.0623C58.8652 66.9167 58.5904 66.8382 58.3096 66.835C57.7647 66.8981 57.2656 67.1704 56.9178 67.5946C56.57 68.0188 56.4006 68.5616 56.4455 69.1083V69.2106L56.3773 69.3584C56.2564 69.6625 56.191 69.9859 56.1841 70.3132V70.6201L56.0136 70.5632C55.6824 70.4596 55.3376 70.406 54.9906 70.4041C54.2133 70.404 53.4608 70.6776 52.8651 71.177C52.4748 70.9258 52.0309 70.7701 51.5693 70.7224H51.5125C51.3405 70.4004 51.0898 70.1273 50.7837 69.9285C50.4776 69.7298 50.1261 69.6118 49.762 69.5857C49.5476 69.5877 49.3355 69.6301 49.1369 69.7107H49.08C48.9167 69.5039 48.7098 69.3356 48.474 69.2178C48.2383 69.0999 47.9795 69.0354 47.7161 69.0287C47.4358 69.0358 47.1609 69.107 46.9126 69.2371C46.6643 69.3672 46.4492 69.5526 46.2839 69.7789L46.0906 70.0404V69.5743C45.977 67.7443 45.079 66.3576 43.9992 66.3576C42.9194 66.3576 42.1124 67.5966 41.9191 69.3015V69.3356H41.8282C41.5101 69.5347 41.2361 69.7967 41.0231 70.1055C40.81 70.4144 40.6624 70.7635 40.5893 71.1316V71.2452L40.4415 71.3248C40.2649 71.1366 40.0519 70.9863 39.8155 70.8827C39.5791 70.7792 39.3242 70.7246 39.0661 70.7224C38.6491 70.7326 38.2481 70.885 37.9295 71.1543H37.8727C37.8004 71.1095 37.7186 71.0823 37.634 71.0747H37.5203V70.8701C37.3384 69.4948 36.5314 68.4718 35.5766 68.3922H35.0083C34.0308 68.3922 33.1669 69.4266 32.951 70.836V71.1429L32.7918 71.0293C32.5598 70.8328 32.2661 70.7241 31.9621 70.7224C31.7402 70.7284 31.5227 70.7848 31.3258 70.8872C31.1289 70.9896 30.9578 71.1353 30.8254 71.3134L30.7686 71.393L30.6322 71.3021L30.5754 71.1657C30.5358 70.8077 30.4249 70.4614 30.2492 70.147C30.0735 69.8327 29.8366 69.5568 29.5524 69.3356H29.4728V69.1651C29.3251 67.4715 28.609 66.2326 27.7906 66.2326C26.9722 66.2326 26.1765 67.6193 26.0856 69.4493V69.9722L25.8696 69.6425C25.7766 69.4217 25.6221 69.2323 25.4244 69.0968C25.2268 68.9613 24.9944 68.8854 24.7549 68.8782C24.5154 68.871 24.2788 68.9328 24.0734 69.0562C23.868 69.1797 23.7024 69.3595 23.5963 69.5743V69.6539H23.5281C23.3709 69.5698 23.195 69.5267 23.0166 69.5289C22.4938 69.5289 21.9937 69.9381 21.6072 70.6655V70.7451C21.2199 70.7971 20.8543 70.9544 20.5501 71.1998H20.4819H20.4251C20.202 70.9606 19.9331 70.769 19.6343 70.6362C19.3355 70.5034 19.0129 70.4322 18.686 70.4268C18.3984 70.429 18.1134 70.4829 17.8449 70.586L17.6744 70.6542V70.3245C17.6772 69.9957 17.6234 69.6689 17.5153 69.3584V69.2902V69.1992C17.5153 67.9376 16.8446 66.9259 16.0149 66.9259C15.7806 66.9331 15.5543 67.0125 15.367 67.1533L15.2192 67.2669V66.96C15.0374 65.6415 14.2872 64.6867 13.4233 64.6867C13.0792 64.7282 12.7545 64.8683 12.4883 65.0901C12.2221 65.312 12.0257 65.6061 11.9229 65.9371L11.5933 66.6759L11.6615 65.7211C11.8888 62.5157 10.9454 60.7426 10.1157 59.8219C9.77836 59.3816 9.34161 59.0275 8.84115 58.7886C8.3407 58.5496 7.79076 58.4325 7.23636 58.4469C6.68195 58.4613 6.13884 58.6068 5.65148 58.8715C5.16412 59.1362 4.74636 59.5125 4.4324 59.9696L4.27327 60.197L4.20507 59.8219C3.95655 58.3804 3.31549 57.0354 2.35233 55.9345L2.125 82.9755Z" fill="url(#paint4_linear_1270_14921)"/>
<path d="M62.2189 82.9755C62.2943 82.3475 62.1232 81.7147 61.7417 81.2102C61.3601 80.7057 60.7978 80.3688 60.173 80.2703C60.3247 79.8631 60.4017 79.4318 60.4003 78.9972C60.4252 78.106 60.1 77.2405 59.4945 76.5862C58.889 75.9318 58.0513 75.5406 57.1609 75.4964C57.1609 75.4395 57.1609 75.3941 57.1609 75.3486C57.187 74.9251 57.1291 74.5006 56.9904 74.0996C56.8518 73.6986 56.6352 73.3289 56.3531 73.012C56.071 72.695 55.729 72.437 55.3468 72.2528C54.9646 72.0686 54.5497 71.9618 54.126 71.9386H53.9214C53.9214 68.9606 51.83 66.5396 49.2498 66.5396C48.0842 66.6264 46.9874 67.1243 46.1547 67.9445C45.3221 68.7647 44.8076 69.8539 44.7032 71.018C44.1648 71.2855 43.6859 71.659 43.2953 72.116C42.9046 72.573 42.6103 73.1042 42.4299 73.6777C42.0126 72.8612 41.3825 72.1725 40.6063 71.6843C39.83 71.1961 38.9364 70.9267 38.0197 70.9043C36.5691 70.9923 35.2119 71.6495 34.2434 72.7329C33.2748 73.8164 32.7733 75.2385 32.8479 76.6898C32.8479 76.9399 32.8479 77.1786 32.8479 77.4173C32.6119 77.3721 32.3721 77.3493 32.1318 77.3491C29.6766 77.3491 27.6875 80.1112 27.6875 82.9414" fill="white"/>
<path d="M27.4375 82.9755C27.4375 79.9975 29.5858 77.099 32.1205 77.099C32.2982 77.0827 32.477 77.0827 32.6547 77.099C32.6547 76.9513 32.6547 76.8149 32.6547 76.6785C32.6547 73.3367 35.0417 70.6201 37.9743 70.6201C38.8711 70.6367 39.7481 70.8877 40.5178 71.3484C41.2876 71.809 41.9233 72.4632 42.3617 73.2458C42.747 72.1856 43.5127 71.3065 44.51 70.7793C44.6334 69.5867 45.1746 68.4762 46.0379 67.6441C46.9011 66.8121 48.0308 66.3121 49.2271 66.2327C51.8073 66.2327 53.9101 68.631 54.0351 71.6431H54.1033C54.9877 71.7017 55.8146 72.1022 56.4087 72.76C57.0028 73.4177 57.3174 74.281 57.2859 75.1667C58.2052 75.2643 59.0525 75.7092 59.6546 76.4107C60.2567 77.1121 60.5682 78.017 60.5254 78.9404C60.5244 79.2777 60.4824 79.6136 60.4004 79.9407C61.0344 80.1318 61.5801 80.5417 61.9402 81.0974C62.3003 81.6532 62.4515 82.3187 62.3668 82.9755H27.4375ZM62.0712 82.9755C62.1188 82.4057 61.9498 81.8388 61.598 81.388C61.2462 80.9371 60.7374 80.6355 60.173 80.5431H59.8661L60.0253 80.0998C60.1537 79.7346 60.2191 79.3503 60.2185 78.9632C60.2337 78.124 59.9157 77.313 59.334 76.7079C58.7524 76.1028 57.9546 75.753 57.1154 75.7351H56.9563V75.3713V75.3031C56.9778 74.5129 56.6867 73.7462 56.1461 73.1694C55.6055 72.5926 54.8592 72.2525 54.0692 72.2228H53.7169V71.9273C53.7915 70.6451 53.3549 69.3857 52.5027 68.4248C51.6505 67.4639 50.4522 66.88 49.1703 66.801C48.0354 66.8569 46.9591 67.3217 46.1401 68.1093C45.3211 68.8969 44.8148 69.9543 44.7146 71.0862V71.2339H44.635C44.1152 71.5038 43.657 71.8785 43.2892 72.3343C42.9214 72.7901 42.6521 73.3172 42.4981 73.8823L42.4072 74.1779L42.2708 73.8823C41.8598 73.0886 41.2432 72.4199 40.4854 71.946C39.7276 71.4722 38.8564 71.2105 37.9629 71.1885C36.5645 71.2619 35.2525 71.8873 34.3148 72.9273C33.3771 73.9673 32.8904 75.3368 32.9616 76.7353C32.9454 76.9586 32.9454 77.1827 32.9616 77.4059V77.781H32.7684C32.5359 77.7379 32.3001 77.7151 32.0637 77.7128C29.6881 77.7128 27.733 80.3612 27.733 83.0324" fill="url(#paint5_linear_1270_14921)"/>
<g style="mix-blend-mode:multiply">
<path opacity="0.01" d="M17.1074 55.9686L40.7725 75.4053L73.4967 44.6816L17.1074 55.9686Z" fill="#333333"/>
<path opacity="0.01" d="M17.2324 55.9801L40.7952 75.3146L73.3943 44.7273L17.2324 55.9801Z" fill="#333333"/>
<path opacity="0.01" d="M17.3691 55.9801L40.8069 75.2122L73.3037 44.7727L17.3691 55.9801Z" fill="#333333"/>
<path opacity="0.01" d="M17.4941 55.9914L40.8182 75.1212L73.2014 44.8181L17.4941 55.9914Z" fill="#333333"/>
<path opacity="0.01" d="M17.6191 55.9914L40.8409 75.0303L73.1104 44.875L17.6191 55.9914Z" fill="#333333"/>
<path opacity="0.01" d="M17.7441 55.9914L40.8522 74.928L73.0081 44.9204L17.7441 55.9914Z" fill="#333333"/>
<path opacity="0.01" d="M17.8691 56.0027L40.8749 74.837L72.9058 44.9658L17.8691 56.0027Z" fill="#333333"/>
<path opacity="0.02" d="M17.9941 56.0029L40.8863 74.7463L72.8148 45.0115L17.9941 56.0029Z" fill="#333333"/>
<path opacity="0.02" d="M18.1191 56.0141L40.909 74.6438L72.7125 45.0681L18.1191 56.0141Z" fill="#333333"/>
<path opacity="0.02" d="M18.2441 56.0142L40.9203 74.553L72.6215 45.1138L18.2441 56.0142Z" fill="#333333"/>
<path opacity="0.02" d="M18.3691 56.0256L40.943 74.462L72.5192 45.1592L18.3691 56.0256Z" fill="#333333"/>
<path opacity="0.02" d="M18.4941 56.0255L40.9544 74.3597L72.4168 45.2046L18.4941 56.0255Z" fill="#333333"/>
<path opacity="0.02" d="M18.6191 56.0256L40.9771 74.2688L72.3259 45.2615L18.6191 56.0256Z" fill="#333333"/>
<path opacity="0.03" d="M18.7441 56.0369L40.9884 74.1778L72.2236 45.3069L18.7441 56.0369Z" fill="#333333"/>
<path opacity="0.03" d="M18.8691 56.0368L41.0111 74.0755L72.1326 45.3523L18.8691 56.0368Z" fill="#333333"/>
<path opacity="0.03" d="M18.9941 56.0484L41.0224 73.9847L72.0303 45.3979L18.9941 56.0484Z" fill="#333333"/>
<path opacity="0.03" d="M19.1191 56.0482L41.0338 73.8936L71.9279 45.4546L19.1191 56.0482Z" fill="#333333"/>
<path opacity="0.03" d="M19.2441 56.0484L41.0565 73.7915L71.837 45.5002L19.2441 56.0484Z" fill="#333333"/>
<path opacity="0.03" d="M19.3691 56.0597L41.0678 73.7005L71.7346 45.5457L19.3691 56.0597Z" fill="#333333"/>
<path opacity="0.03" d="M19.4941 56.0596L41.0905 73.6095L71.6437 45.5911L19.4941 56.0596Z" fill="#333333"/>
<path opacity="0.04" d="M19.6191 56.071L41.1018 73.5073L71.5413 45.6479L19.6191 56.071Z" fill="#333333"/>
<path opacity="0.04" d="M19.7559 56.071L41.1249 73.4163L71.4394 45.6934L19.7559 56.071Z" fill="#333333"/>
<path opacity="0.04" d="M19.8691 56.0823L41.1359 73.3139L71.348 45.7388L19.8691 56.0823Z" fill="#333333"/>
<path opacity="0.04" d="M20.0059 56.0825L41.1589 73.2232L71.2461 45.7844L20.0059 56.0825Z" fill="#333333"/>
<path opacity="0.04" d="M20.1309 56.0823L41.1703 73.132L71.1551 45.8411L20.1309 56.0823Z" fill="#333333"/>
<path opacity="0.04" d="M20.2559 56.0938L41.1816 73.0299L71.0528 45.8867L20.2559 56.0938Z" fill="#333333"/>
<path opacity="0.04" d="M20.3809 56.0938L41.2043 72.9389L70.9504 45.9321L20.3809 56.0938Z" fill="#333333"/>
<path opacity="0.05" d="M20.5059 56.1051L41.2156 72.848L70.8595 45.9775L20.5059 56.1051Z" fill="#333333"/>
<path opacity="0.05" d="M20.6309 56.1051L41.2383 72.7457L70.7572 46.0344L20.6309 56.1051Z" fill="#333333"/>
<path opacity="0.05" d="M20.7559 56.1165L41.2497 72.6547L70.6662 46.0798L20.7559 56.1165Z" fill="#333333"/>
<path opacity="0.05" d="M20.8809 56.1164L41.2724 72.5637L70.5639 46.1252L20.8809 56.1164Z" fill="#333333"/>
<path opacity="0.05" d="M21.0059 56.1277L41.2837 72.4614L70.4615 46.1707L21.0059 56.1277Z" fill="#333333"/>
<path opacity="0.05" d="M21.1309 56.1279L41.3064 72.3706L70.3706 46.2163L21.1309 56.1279Z" fill="#333333"/>
<path opacity="0.05" d="M21.2559 56.1277L41.3177 72.2795L70.2682 46.2729L21.2559 56.1277Z" fill="#333333"/>
<path opacity="0.06" d="M21.3809 56.1393L41.3404 72.1774L70.1773 46.3186L21.3809 56.1393Z" fill="#333333"/>
<path opacity="0.06" d="M21.5059 56.1392L41.3518 72.0864L70.0749 46.364L21.5059 56.1392Z" fill="#333333"/>
<path opacity="0.06" d="M21.6309 56.1506L41.3745 71.9955L69.984 46.4209L21.6309 56.1506Z" fill="#333333"/>
<path opacity="0.06" d="M21.7559 56.1506L41.3858 71.8932L69.8816 46.4663L21.7559 56.1506Z" fill="#333333"/>
<path opacity="0.06" d="M21.8809 56.1619L41.3972 71.8022L69.7793 46.5117L21.8809 56.1619Z" fill="#333333"/>
<path opacity="0.06" d="M22.0059 56.1618L41.4199 71.7112L69.6884 46.5571L22.0059 56.1618Z" fill="#333333"/>
<path opacity="0.07" d="M22.1309 56.1619L41.4312 71.609L69.586 46.614L22.1309 56.1619Z" fill="#333333"/>
<path opacity="0.07" d="M22.2676 56.1732L41.4542 71.518L69.4954 46.6594L22.2676 56.1732Z" fill="#333333"/>
<path opacity="0.07" d="M22.3926 56.1734L41.4656 71.4272L69.3931 46.7051L22.3926 56.1734Z" fill="#333333"/>
<path opacity="0.07" d="M22.5176 56.1847L41.4883 71.3249L69.2908 46.7505L22.5176 56.1847Z" fill="#333333"/>
<path opacity="0.07" d="M22.6426 56.1846L41.4996 71.2339L69.1998 46.7959L22.6426 56.1846Z" fill="#333333"/>
<path opacity="0.07" d="M22.7676 56.196L41.5223 71.143L69.0975 46.8528L22.7676 56.196Z" fill="#333333"/>
<path opacity="0.07" d="M22.8926 56.196L41.5337 71.0407L69.0065 46.8982L22.8926 56.196Z" fill="#333333"/>
<path opacity="0.08" d="M23.0176 56.1959L41.5564 70.9497L68.9042 46.9436L23.0176 56.1959Z" fill="#333333"/>
<path opacity="0.08" d="M23.1426 56.2075L41.5677 70.8476L68.8018 46.9893L23.1426 56.2075Z" fill="#333333"/>
<path opacity="0.08" d="M23.2676 56.2073L41.5904 70.7564L68.7109 47.0459L23.2676 56.2073Z" fill="#333333"/>
<path opacity="0.08" d="M23.3926 56.2189L41.6017 70.6657L68.6085 47.0916L23.3926 56.2189Z" fill="#333333"/>
<path opacity="0.08" d="M23.5176 56.2188L41.6131 70.5633L68.5176 47.137L23.5176 56.2188Z" fill="#333333"/>
<path opacity="0.08" d="M23.6426 56.2187L41.6358 70.4723L68.4152 47.1824L23.6426 56.2187Z" fill="#333333"/>
<path opacity="0.08" d="M23.7676 56.2302L41.6471 70.3815L68.3129 47.2393L23.7676 56.2302Z" fill="#333333"/>
<path opacity="0.09" d="M23.8926 56.2301L41.6698 70.2791L68.222 47.2847L23.8926 56.2301Z" fill="#333333"/>
<path opacity="0.09" d="M24.0176 56.2414L41.6811 70.1881L68.1196 47.3301L24.0176 56.2414Z" fill="#333333"/>
<path opacity="0.09" d="M24.1426 56.2416L41.7038 70.0974L68.0287 47.3757L24.1426 56.2416Z" fill="#333333"/>
<path opacity="0.09" d="M24.2676 56.2528L41.7152 69.9949L67.9263 47.4324L24.2676 56.2528Z" fill="#333333"/>
<path opacity="0.09" d="M24.3926 56.253L41.7379 69.9041L67.824 47.478L24.3926 56.253Z" fill="#333333"/>
<path opacity="0.09" d="M24.5176 56.2529L41.7492 69.8132L67.733 47.5234L24.5176 56.2529Z" fill="#333333"/>
<path opacity="0.1" d="M24.6426 56.2642L41.7605 69.7108L67.6307 47.5688L24.6426 56.2642Z" fill="#333333"/>
<path opacity="0.1" d="M24.7793 56.2643L41.7836 69.6199L67.5401 47.6257L24.7793 56.2643Z" fill="#333333"/>
<path opacity="0.1" d="M24.9043 56.2756L41.7949 69.5289L67.4378 47.6711L24.9043 56.2756Z" fill="#333333"/>
<path opacity="0.1" d="M25.0293 56.2755L41.8176 69.4266L67.3354 47.7166L25.0293 56.2755Z" fill="#333333"/>
<path opacity="0.1" d="M25.1543 56.2868L41.829 69.3356L67.2445 47.762L25.1543 56.2868Z" fill="#333333"/>
<path opacity="0.1" d="M25.2793 56.2869L41.8517 69.2333L67.1421 47.8188L25.2793 56.2869Z" fill="#333333"/>
<path opacity="0.1" d="M25.4043 56.2868L41.863 69.1424L67.0512 47.8643L25.4043 56.2868Z" fill="#333333"/>
<path opacity="0.11" d="M25.5293 56.2984L41.8857 69.0516L66.9488 47.9099L25.5293 56.2984Z" fill="#333333"/>
<path opacity="0.11" d="M25.6543 56.2983L41.897 68.9493L66.8465 47.9553L25.6543 56.2983Z" fill="#333333"/>
<path opacity="0.11" d="M25.7793 56.3098L41.9197 68.8584L66.7556 48.0122L25.7793 56.3098Z" fill="#333333"/>
<path opacity="0.11" d="M25.9043 56.3097L41.9311 68.7674L66.6532 48.0576L25.9043 56.3097Z" fill="#333333"/>
<path opacity="0.11" d="M26.0293 56.321L41.9538 68.665L66.5623 48.103L26.0293 56.321Z" fill="#333333"/>
<path opacity="0.11" d="M26.1562 56.321L41.9671 68.5741L66.4619 48.1484L26.1562 56.321Z" fill="#333333"/>
<path opacity="0.11" d="M26.2812 56.321L41.9784 68.4832L66.3709 48.2053L26.2812 56.321Z" fill="#333333"/>
<path opacity="0.12" d="M26.4062 56.3323L42.0011 68.3808L66.2686 48.2507L26.4062 56.3323Z" fill="#333333"/>
<path opacity="0.12" d="M26.5312 56.3325L42.0124 68.2901L66.1663 48.2964L26.5312 56.3325Z" fill="#333333"/>
<path opacity="0.12" d="M26.6562 56.3438L42.0351 68.1991L66.0753 48.3418L26.6562 56.3438Z" fill="#333333"/>
<path opacity="0.12" d="M26.7812 56.3439L42.0465 68.0968L65.973 48.3987L26.7812 56.3439Z" fill="#333333"/>
<path opacity="0.12" d="M26.9062 56.3552L42.0692 68.0059L65.882 48.4441L26.9062 56.3552Z" fill="#333333"/>
<path opacity="0.12" d="M27.0312 56.3551L42.0805 67.9149L65.7797 48.4895L27.0312 56.3551Z" fill="#333333"/>
<path opacity="0.12" d="M27.1562 56.3551L42.1032 67.8125L65.6773 48.5349L27.1562 56.3551Z" fill="#333333"/>
<path opacity="0.13" d="M27.2812 56.3666L42.1145 67.7218L65.5864 48.5806L27.2812 56.3666Z" fill="#333333"/>
<path opacity="0.13" d="M27.4062 56.3664L42.1259 67.6306L65.484 48.6372L27.4062 56.3664Z" fill="#333333"/>
<path opacity="0.13" d="M27.543 56.378L42.1489 67.5285L65.3934 48.6829L27.543 56.378Z" fill="#333333"/>
<path opacity="0.13" d="M27.668 56.3779L42.1603 67.4375L65.2911 48.7283L27.668 56.3779Z" fill="#333333"/>
<path opacity="0.13" d="M27.793 56.3779L42.183 67.3352L65.1888 48.7737L27.793 56.3779Z" fill="#333333"/>
<path opacity="0.13" d="M27.918 56.3893L42.1943 67.2443L65.0978 48.8306L27.918 56.3893Z" fill="#333333"/>
<path opacity="0.14" d="M28.043 56.3892L42.217 67.1533L64.9955 48.876L28.043 56.3892Z" fill="#333333"/>
<path opacity="0.14" d="M28.168 56.4005L42.2283 67.051L64.9045 48.9214L28.168 56.4005Z" fill="#333333"/>
<path opacity="0.14" d="M28.293 56.4006L42.251 66.9601L64.8022 48.9783L28.293 56.4006Z" fill="#333333"/>
<path opacity="0.14" d="M28.418 56.4119L42.2624 66.8691L64.6999 49.0237L28.418 56.4119Z" fill="#333333"/>
<path opacity="0.14" d="M28.543 56.4121L42.2851 66.767L64.6089 49.0693L28.543 56.4121Z" fill="#333333"/>
<path opacity="0.14" d="M28.668 56.412L42.2964 66.676L64.5066 49.1147L28.668 56.412Z" fill="#333333"/>
<path opacity="0.14" d="M28.793 56.4235L42.3191 66.5851L64.4156 49.1716L28.793 56.4235Z" fill="#333333"/>
<path opacity="0.15" d="M28.918 56.4234L42.3304 66.4828L64.3133 49.217L28.918 56.4234Z" fill="#333333"/>
<path opacity="0.15" d="M29.043 56.4347L42.3418 66.3918L64.2109 49.2625L29.043 56.4347Z" fill="#333333"/>
<path opacity="0.15" d="M29.168 56.4347L42.3645 66.3008L64.12 49.3079L29.168 56.4347Z" fill="#333333"/>
<path opacity="0.15" d="M29.293 56.446L42.3758 66.1984L64.0176 49.3533L29.293 56.446Z" fill="#333333"/>
</g>
<path d="M27.4163 52.7974L71.2001 33.0879L24.9043 61.4587L27.4163 52.7974Z" fill="#842126"/>
<path d="M24.8711 61.504L27.3717 52.8314L71.1896 33.0764L24.8711 61.504ZM27.4286 52.8087L24.9393 61.379L70.9509 33.2128L27.4286 52.8087Z" fill="url(#paint6_radial_1270_14921)"/>
<path d="M37.6921 63.2773L15.9707 41.1354L71.2006 33.0879L37.6921 63.2773Z" fill="url(#paint7_linear_1270_14921)"/>
<path d="M37.6923 63.3001L15.9141 41.124L71.2008 33.0652L37.6923 63.3001ZM16.005 41.1468L37.6923 63.2546L71.1439 33.1107L16.005 41.1468Z" fill="url(#paint8_radial_1270_14921)"/>
<path d="M23.6895 49.0124L24.9057 61.4587L27.4177 52.7974L71.2015 33.0879L23.6895 49.0124Z" fill="#892B34"/>
<path d="M24.8943 61.5497V61.4587L23.6895 48.9556L71.1901 33.0425L27.429 52.8088L24.8943 61.5497ZM23.7577 49.0465L24.917 61.3792L27.3949 52.7975L70.8718 33.213L23.7577 49.0465Z" fill="url(#paint9_radial_1270_14921)"/>
<path d="M15.9707 41.1354L19.3011 40.658L38.5332 44.0338L23.6886 49.0123L15.9707 41.1354Z" fill="white"/>
<path d="M23.6895 49.0351L15.9375 41.0785L19.3247 40.6353L38.6478 44.0452H38.5796L23.6895 49.0351ZM16.0057 41.1467L23.7008 48.9896L38.4773 44.0452L19.3247 40.6694L16.0057 41.1467Z" fill="url(#paint10_radial_1270_14921)"/>
<path d="M41.4082 46.5002L39.4872 61.6632L37.6913 63.2772L27.416 52.7973L41.4082 46.5002Z" fill="white"/>
<path d="M37.6926 63.3001L27.3945 52.8088L41.4208 46.489L39.4885 61.6633L37.6926 63.3001ZM27.4627 52.8088L37.6926 63.2546L39.4658 61.6519L41.3867 46.5231L27.4627 52.8088Z" fill="url(#paint11_radial_1270_14921)"/>
<path d="M23.6895 49.0122L38.5341 44.0337L38.3863 47.8642L27.4177 52.7973L24.9057 61.4585L23.6895 49.0122Z" fill="url(#paint12_linear_1270_14921)"/>
<path d="M24.8943 61.5496V61.4586L23.6895 48.9555L38.5455 43.9656L38.3977 47.8075L27.4404 52.7405L24.8943 61.5496ZM23.7577 49.0464L24.917 61.3791L27.3949 52.7974L38.3522 47.8643L38.5 44.0792L23.7577 49.0464Z" fill="url(#paint13_radial_1270_14921)"/>
<path d="M71.2008 33.0879L39.4883 61.6633L41.4092 46.5004L71.2008 33.0879Z" fill="url(#paint14_linear_1270_14921)"/>
<path d="M39.4648 61.7087L41.3971 46.5344L71.2911 33.031L71.2115 33.0992L39.4648 61.7087ZM41.4312 46.5117L39.5103 61.6178L71.0978 33.2015L41.4312 46.5117Z" fill="url(#paint15_radial_1270_14921)"/>
<path d="M71.2003 33.0879L38.5329 44.0338L19.3008 40.658L71.2003 33.0879Z" fill="url(#paint16_linear_1270_14921)"/>
<path d="M38.534 44.0565L19.2109 40.6465H19.3246L71.2127 33.0764L38.534 44.0565ZM19.4042 40.6465L38.534 44.0565L71.0081 33.1673L19.4042 40.6465Z" fill="url(#paint17_radial_1270_14921)"/>
<path d="M0 0V90H90V0H0ZM45 81.8389C37.7204 81.8344 30.6055 79.6719 24.5546 75.6247C18.5037 71.5776 13.7884 65.8275 11.0047 59.1012C8.22103 52.3748 7.49386 44.9742 8.91515 37.8347C10.3364 30.6952 13.8424 24.1373 18.9898 18.9898C24.1373 13.8424 30.6952 10.3364 37.8347 8.91515C44.9742 7.49386 52.3748 8.22103 59.1012 11.0047C65.8275 13.7884 71.5776 18.5037 75.6247 24.5546C79.6719 30.6055 81.8344 37.7204 81.8389 45C81.8418 49.8386 80.891 54.6303 79.0407 59.1012C77.1905 63.572 74.4771 67.6343 71.0557 71.0557C67.6343 74.4771 63.572 77.1905 59.1012 79.0407C54.6303 80.891 49.8386 81.8418 45 81.8389Z" fill="#E3E2E5"/>
</g>
<defs>
<linearGradient id="paint0_linear_1270_14921" x1="48.7734" y1="64.6072" x2="65.3344" y2="64.6072" gradientUnits="userSpaceOnUse">
<stop stop-color="white"/>
<stop offset="1" stop-color="#CFD1DF"/>
</linearGradient>
<linearGradient id="paint1_linear_1270_14921" x1="14.4228" y1="66.744" x2="37.6445" y2="66.744" gradientUnits="userSpaceOnUse">
<stop stop-color="white"/>
<stop offset="1" stop-color="#CCDCE1"/>
</linearGradient>
<linearGradient id="paint2_linear_1270_14921" x1="14.3336" y1="66.7442" x2="37.7372" y2="66.7442" gradientUnits="userSpaceOnUse">
<stop stop-color="white"/>
<stop offset="1" stop-color="#CFD1DF"/>
</linearGradient>
<linearGradient id="paint3_linear_1270_14921" x1="2.13637" y1="68.6992" x2="87.6921" y2="68.6992" gradientUnits="userSpaceOnUse">
<stop offset="0.5" stop-color="#F1F4F5"/>
<stop offset="1" stop-color="#AFC6CD"/>
</linearGradient>
<linearGradient id="paint4_linear_1270_14921" x1="44.9085" y1="54.2182" x2="44.9085" y2="82.9186" gradientUnits="userSpaceOnUse">
<stop offset="0.5" stop-color="white"/>
<stop offset="1" stop-color="#CCCCCC"/>
</linearGradient>
<linearGradient id="paint5_linear_1270_14921" x1="27.4489" y1="74.6439" x2="62.3781" y2="74.6439" gradientUnits="userSpaceOnUse">
<stop stop-color="white"/>
<stop offset="1" stop-color="#CFD1DF"/>
</linearGradient>
<radialGradient id="paint6_radial_1270_14921" cx="0" cy="0" r="1" gradientUnits="userSpaceOnUse" gradientTransform="translate(50.009 54.3851) rotate(2.60256) scale(19.2772)">
<stop stop-color="white"/>
<stop offset="0.85" stop-color="#BCBCBC"/>
</radialGradient>
<linearGradient id="paint7_linear_1270_14921" x1="15.8202" y1="46.6553" x2="70.6444" y2="48.7998" gradientUnits="userSpaceOnUse">
<stop stop-color="#E33943"/>
<stop offset="1" stop-color="#FC4B69"/>
</linearGradient>
<radialGradient id="paint8_radial_1270_14921" cx="0" cy="0" r="1" gradientUnits="userSpaceOnUse" gradientTransform="translate(45.1183 54.8094) rotate(2.60256) scale(22.4764 22.4764)">
<stop stop-color="white"/>
<stop offset="0.85" stop-color="#BCBCBC"/>
</radialGradient>
<radialGradient id="paint9_radial_1270_14921" cx="0" cy="0" r="1" gradientUnits="userSpaceOnUse" gradientTransform="translate(49.1604 54.3767) rotate(2.60256) scale(19.7879)">
<stop stop-color="white"/>
<stop offset="0.85" stop-color="#BCBCBC"/>
</radialGradient>
<radialGradient id="paint10_radial_1270_14921" cx="0" cy="0" r="1" gradientUnits="userSpaceOnUse" gradientTransform="translate(29.0683 52.0201) rotate(2.60256) scale(8.59103)">
<stop stop-color="white"/>
<stop offset="0.85" stop-color="#BCBCBC"/>
</radialGradient>
<radialGradient id="paint11_radial_1270_14921" cx="0" cy="0" r="1" gradientUnits="userSpaceOnUse" gradientTransform="translate(36.0774 61.7054) rotate(2.60256) scale(7.74995)">
<stop stop-color="white"/>
<stop offset="0.85" stop-color="#BCBCBC"/>
</radialGradient>
<linearGradient id="paint12_linear_1270_14921" x1="23.6264" y1="52.4206" x2="38.244" y2="52.9923" gradientUnits="userSpaceOnUse">
<stop stop-color="#F1F1F3"/>
<stop offset="1" stop-color="#D3D1D1"/>
</linearGradient>
<radialGradient id="paint13_radial_1270_14921" cx="0" cy="0" r="1" gradientUnits="userSpaceOnUse" gradientTransform="translate(32.7388 59.7493) rotate(2.60256) scale(8.24558)">
<stop stop-color="white"/>
<stop offset="0.85" stop-color="#BCBCBC"/>
</radialGradient>
<linearGradient id="paint14_linear_1270_14921" x1="40.1363" y1="46.7647" x2="70.6775" y2="47.9593" gradientUnits="userSpaceOnUse">
<stop stop-color="#E33943"/>
<stop offset="1" stop-color="#FC4B69"/>
</linearGradient>
<radialGradient id="paint15_radial_1270_14921" cx="0" cy="0" r="1" gradientUnits="userSpaceOnUse" gradientTransform="translate(57.3693 54.5168) rotate(2.60256) scale(15.192)">
<stop stop-color="white"/>
<stop offset="0.85" stop-color="#FF275B"/>
</radialGradient>
<linearGradient id="paint16_linear_1270_14921" x1="19.5013" y1="37.1645" x2="71.0204" y2="39.1797" gradientUnits="userSpaceOnUse">
<stop stop-color="#E33943"/>
<stop offset="1" stop-color="#FC4B69"/>
</linearGradient>
<radialGradient id="paint17_radial_1270_14921" cx="0" cy="0" r="1" gradientUnits="userSpaceOnUse" gradientTransform="translate(47.1621 45.2498) rotate(2.60256) scale(18.8492 18.8492)">
<stop stop-color="white"/>
<stop offset="0.85" stop-color="#FF275B"/>
</radialGradient>
</defs>
</svg>
