<svg width="25" height="25" viewBox="0 0 25 25" fill="none" xmlns="http://www.w3.org/2000/svg">
<path fill-rule="evenodd" clip-rule="evenodd" d="M24.328 4.28802C24.6551 5.1551 24.8257 6.07333 24.832 7.00002C24.916 8.54802 24.916 9.00402 24.916 12.916C24.916 16.828 24.916 17.284 24.832 18.832C24.8253 19.7626 24.6547 20.6847 24.328 21.556C24.0882 22.1876 23.7159 22.7605 23.236 23.236C22.7582 23.7188 22.1808 24.0915 21.544 24.328C20.6769 24.6551 19.7587 24.8257 18.832 24.832C17.284 24.916 16.828 24.916 12.916 24.916C9.00401 24.916 8.54802 24.916 7.00002 24.832C6.07332 24.8257 5.15511 24.6551 4.28801 24.328C3.65128 24.0915 3.07385 23.7188 2.59601 23.236C2.11617 22.7605 1.7438 22.1876 1.50401 21.556C1.18335 20.683 1.01294 19.762 1.00002 18.832C0.916016 17.284 0.916016 16.828 0.916016 12.916C0.916016 9.00402 0.916016 8.54802 1.00002 7.00002C1.00633 6.07333 1.17697 5.1551 1.50401 4.28802C1.74487 3.65353 2.11755 3.07733 2.59744 2.59744C3.07733 2.11755 3.65353 1.74488 4.28801 1.50402C5.15511 1.17697 6.07332 1.00633 7.00002 1.00002C8.54802 0.916016 9.00401 0.916016 12.916 0.916016C16.828 0.916016 17.284 0.916016 18.832 1.00002C19.7587 1.00633 20.6769 1.17697 21.544 1.50402C22.1785 1.74488 22.7547 2.11755 23.2346 2.59744C23.7145 3.07733 24.0872 3.65353 24.328 4.28802Z" fill="white"/>
<path d="M20.5534 9.0625C20.4055 8.23779 19.7007 7.63721 18.8829 7.44971C17.6591 7.1875 15.3941 7 12.9434 7C10.4943 7 8.19304 7.1875 6.96774 7.44971C6.15135 7.63721 5.44517 8.19971 5.29726 9.0625C5.14791 10 5 11.3125 5 13C5 14.6875 5.14791 16 5.33351 16.9375C5.48287 17.7622 6.1876 18.3628 7.00399 18.5503C8.30324 18.8125 10.5305 19 12.9811 19C15.4318 19 17.6591 18.8125 18.9583 18.5503C19.7747 18.3628 20.4794 17.8003 20.6288 16.9375C20.7767 16 20.9623 14.6494 21 13C20.9246 11.3125 20.739 10 20.5534 9.0625ZM10.9395 15.625V10.375L15.468 13L10.9395 15.625Z" fill="#031555"/>
</svg>
