<svg width="141" height="140" viewBox="0 0 141 140" fill="none" xmlns="http://www.w3.org/2000/svg">
<rect x="0.5" width="140" height="140" rx="70" fill="#E3E6ED"/>
<g clip-path="url(#clip0_388_9143)">
<path opacity="0.989" fill-rule="evenodd" clip-rule="evenodd" d="M51.5736 39.9414C65.2456 39.9414 78.9174 39.9414 92.5893 39.9414C94.8055 40.5365 96.2313 41.9428 96.8666 44.1602C96.9642 54.2775 96.9448 64.3948 96.808 74.5117C91.9955 71.5864 86.9564 71.1372 81.6908 73.1641C74.9533 76.5108 71.8086 81.96 72.2572 89.5117C72.9006 93.7698 74.8733 97.2464 78.1752 99.9414C69.308 99.9414 60.4409 99.9414 51.5736 99.9414C49.4661 99.3377 48.1184 97.9705 47.5307 95.8398C47.4722 95.4119 47.4527 94.9823 47.4721 94.5508C51.16 94.3204 53.4451 92.4064 54.3275 88.8086C54.7013 85.3574 53.3536 82.8379 50.2846 81.25C49.3846 80.8708 48.4471 80.695 47.4721 80.7227C47.4721 79.4726 47.4721 78.2227 47.4721 76.9727C51.16 76.7423 53.4451 74.8282 54.3275 71.2305C54.7013 67.7793 53.3536 65.2598 50.2846 63.6719C49.3846 63.2927 48.4471 63.1169 47.4721 63.1445C47.4721 61.8164 47.4721 60.4882 47.4721 59.1602C51.16 58.9298 53.4451 57.0157 54.3275 53.418C54.7013 49.9668 53.3536 47.4472 50.2846 45.8594C49.3846 45.4801 48.4471 45.3044 47.4721 45.332C47.4179 43.4286 48.1601 41.9247 49.6986 40.8203C50.2967 40.4464 50.9217 40.1534 51.5736 39.9414ZM69.7377 47.0898C71.5274 46.9996 72.2109 47.8199 71.7885 49.5508C69.3895 52.067 66.9481 54.5474 64.4643 56.9922C63.683 57.5391 62.9018 57.5391 62.1205 56.9922C60.57 55.5201 59.1052 53.9772 57.726 52.3633C57.4238 51.0416 57.9511 50.2604 59.308 50.0195C59.682 50.0986 60.0335 50.2353 60.3627 50.4297C61.3214 51.4079 62.2979 52.3649 63.2924 53.3008C65.4108 51.1821 67.5592 49.1118 69.7377 47.0898ZM77.3549 50.4883C80.8708 50.4688 84.3864 50.4883 87.9018 50.5469C89.1662 50.789 89.6936 51.5508 89.4838 52.832C89.1541 53.4761 88.6268 53.8471 87.9018 53.9453C84.3861 54.0235 80.8705 54.0235 77.3549 53.9453C75.711 53.5278 75.3008 52.5708 76.1244 51.0742C76.4932 50.7626 76.9034 50.5673 77.3549 50.4883ZM69.7377 61.3867C71.5274 61.2965 72.2109 62.1168 71.7885 63.8477C69.3895 66.3639 66.9481 68.8443 64.4643 71.2891C63.683 71.836 62.9018 71.836 62.1205 71.2891C60.57 69.817 59.1052 68.2741 57.726 66.6602C57.4238 65.3385 57.9511 64.5572 59.308 64.3164C59.682 64.3955 60.0335 64.5323 60.3627 64.7266C61.3214 65.7048 62.2979 66.6618 63.2924 67.5977C65.4108 65.4789 67.5592 63.4087 69.7377 61.3867ZM77.3549 64.7852C80.8708 64.7656 84.3864 64.7852 87.9018 64.8438C89.1662 65.086 89.6936 65.8477 89.4838 67.1289C89.1541 67.773 88.6268 68.144 87.9018 68.2422C84.3861 68.3204 80.8705 68.3204 77.3549 68.2422C75.711 67.8246 75.3008 66.8677 76.1244 65.3711C76.4932 65.0595 76.9034 64.8641 77.3549 64.7852ZM69.7377 75.4492C71.5274 75.359 72.2109 76.1793 71.7885 77.9102C69.3895 80.4264 66.9481 82.9068 64.4643 85.3516C63.683 85.8985 62.9018 85.8985 62.1205 85.3516C60.57 83.8795 59.1052 82.3366 57.726 80.7227C57.4238 79.401 57.9511 78.6197 59.308 78.3789C59.682 78.458 60.0335 78.5948 60.3627 78.7891C61.3214 79.7673 62.2979 80.7243 63.2924 81.6602C65.4108 79.5414 67.5592 77.4712 69.7377 75.4492Z" fill="#031555"/>
<path opacity="0.978" fill-rule="evenodd" clip-rule="evenodd" d="M40.4414 53.1836C40.4414 52.5586 40.4414 51.9336 40.4414 51.3086C40.8497 50.0215 41.7091 49.1817 43.0195 48.7891C44.8164 48.7109 46.6133 48.7109 48.4102 48.7891C50.4427 49.5518 51.2826 51.0167 50.9297 53.1836C50.5586 54.4922 49.7188 55.332 48.4102 55.7031C46.6133 55.7813 44.8164 55.7813 43.0195 55.7031C41.7091 55.3106 40.8497 54.4707 40.4414 53.1836Z" fill="#031555"/>
<path opacity="0.978" fill-rule="evenodd" clip-rule="evenodd" d="M40.4414 70.9961C40.4414 70.3712 40.4414 69.7461 40.4414 69.1211C40.8497 67.8341 41.7091 66.9942 43.0195 66.6016C44.8164 66.5234 46.6133 66.5234 48.4102 66.6016C50.4427 67.3644 51.2826 68.8292 50.9297 70.9961C50.5586 72.3048 49.7188 73.1445 48.4102 73.5157C46.6133 73.5938 44.8164 73.5938 43.0195 73.5157C41.7091 73.1231 40.8497 72.2832 40.4414 70.9961Z" fill="#031555"/>
<path opacity="0.986" fill-rule="evenodd" clip-rule="evenodd" d="M100.442 85.9967C100.442 87.0904 100.442 88.1842 100.442 89.2779C99.1679 95.2391 95.5351 98.7938 89.5432 99.942C88.4495 99.942 87.3557 99.942 86.262 99.942C80.3259 98.7911 76.7909 95.2364 75.6565 89.2779C75.1832 83.2102 77.6637 78.8548 83.0979 76.2115C89.3905 74.1263 94.5272 75.7083 98.5081 80.9576C99.4679 82.5305 100.112 84.2102 100.442 85.9967ZM87.3166 82.4811C88.5966 82.3284 89.3583 82.8753 89.6018 84.1217C89.6603 84.7063 89.6799 85.2923 89.6604 85.8795C90.4491 85.8474 91.2304 85.906 92.0042 86.0553C93.171 86.7775 93.3663 87.715 92.5901 88.8678C92.2531 89.1534 91.8624 89.3096 91.4182 89.3365C90.0452 89.4405 88.678 89.4014 87.3166 89.2193C86.6726 88.8897 86.3016 88.3623 86.2034 87.6373C86.1252 86.4654 86.1252 85.2936 86.2034 84.1217C86.3158 83.3861 86.6869 82.8392 87.3166 82.4811Z" fill="#031555"/>
<path opacity="0.978" fill-rule="evenodd" clip-rule="evenodd" d="M40.4414 88.5742C40.4414 87.9493 40.4414 87.3242 40.4414 86.6992C40.8497 85.4122 41.7091 84.5723 43.0195 84.1797C44.8164 84.1016 46.6133 84.1016 48.4102 84.1797C50.4427 84.9425 51.2826 86.4073 50.9297 88.5742C50.5586 89.8829 49.7188 90.7226 48.4102 91.0938C46.6133 91.1719 44.8164 91.1719 43.0195 91.0938C41.7091 90.7012 40.8497 89.8613 40.4414 88.5742Z" fill="#031555"/>
</g>
<defs>
<clipPath id="clip0_388_9143">
<rect width="60" height="60" fill="white" transform="translate(40.5 40)"/>
</clipPath>
</defs>
</svg>
