<svg width="60" height="60" viewBox="0 0 60 60" fill="none" xmlns="http://www.w3.org/2000/svg">
<path opacity="0.958" fill-rule="evenodd" clip-rule="evenodd" d="M28.7695 2.87107C35.6252 2.7338 40.9181 5.50725 44.6484 11.1914C46.0447 13.5834 46.826 16.1615 46.9922 18.9258C47.3764 19.31 47.7671 19.7007 48.1641 20.0976C48.3135 20.3574 48.4307 20.6309 48.5156 20.9179C48.5938 23.3007 48.5938 25.6836 48.5156 28.0664C47.9072 29.822 46.6767 30.5055 44.8242 30.1172C44.5764 30.0519 44.342 29.9542 44.1211 29.8242C41.882 31.2928 39.4211 32.1326 36.7383 32.3437C36.3621 32.4845 36.0496 32.7188 35.8008 33.0468C35.5412 33.1692 35.2678 33.2472 34.9805 33.2812C34.1602 33.3594 33.3398 33.3594 32.5195 33.2812C31.0235 32.8868 30.5743 31.9688 31.1719 30.5273C31.399 30.2219 31.692 30.0071 32.0508 29.8828C33.1836 29.8046 34.3164 29.8046 35.4492 29.8828C35.7846 29.9918 36.058 30.1871 36.2695 30.4687C38.6865 30.3627 40.9131 29.6595 42.9492 28.3593C42.864 28.1954 42.8054 28.0196 42.7734 27.832C42.6953 25.6445 42.6953 23.457 42.7734 21.2695C42.9245 20.397 43.3738 19.7331 44.1211 19.2773C44.0263 15.3569 42.542 12.0561 39.668 9.37497C35.0295 5.47688 29.8732 4.61751 24.1992 6.79685C19.4667 9.07033 16.6347 12.8008 15.7031 17.9883C15.6064 18.4231 15.6259 18.8529 15.7617 19.2773C16.509 19.7331 16.9583 20.397 17.1094 21.2695C17.1875 23.457 17.1875 25.6445 17.1094 27.832C16.3738 30.0059 14.9089 30.6895 12.7148 29.8828C11.9952 29.4759 11.546 28.8705 11.3672 28.0664C11.2891 25.6836 11.2891 23.3007 11.3672 20.9179C11.4521 20.6309 11.5693 20.3574 11.7188 20.0976C12.1157 19.7007 12.5064 19.31 12.8906 18.9258C13.6859 11.2968 17.6898 6.19918 24.9023 3.63278C26.1882 3.27789 27.4773 3.02398 28.7695 2.87107Z" fill="#031555"/>
<path opacity="0.99" fill-rule="evenodd" clip-rule="evenodd" d="M29.707 8.26172C35.5837 8.26283 39.3142 11.0753 40.8984 16.6992C41.7162 20.7766 41.2085 24.6829 39.3749 28.418C38.6504 28.7389 37.8886 28.9342 37.0898 29.0039C36.3938 28.6616 35.6517 28.4468 34.8632 28.3594C33.8427 28.2713 32.8271 28.3103 31.8163 28.4766C29.8733 29.218 29.1506 30.6047 29.6484 32.6367C30.154 33.8072 31.0329 34.4907 32.2851 34.6875C33.3829 34.7756 34.4766 34.7561 35.5663 34.6289C35.2195 35.8409 35.532 36.837 36.5038 37.6172C37.8979 38.4702 39.3823 39.1343 40.957 39.6094C43.3696 40.6198 45.6352 41.8698 47.7538 43.3594C50.5751 45.5592 51.4932 48.3913 50.5077 51.8555C49.9708 52.8715 49.2091 53.6723 48.2226 54.2578C46.8245 55.0364 45.3401 55.5832 43.7695 55.8984C39.1802 56.7356 34.5513 57.1068 29.8827 57.0117C25.3294 57.1204 20.8177 56.7493 16.3476 55.8984C14.6444 55.5261 13.0428 54.9012 11.5429 54.0234C8.97331 52.0198 8.32877 49.5002 9.60931 46.4648C10.1548 45.4497 10.8775 44.5707 11.7773 43.8281C15.2501 41.31 19.0001 39.2788 23.0273 37.7344C24.4655 36.8571 24.8757 35.6266 24.2577 34.043C22.6544 32.0093 21.2873 29.8218 20.1562 27.4805C18.4307 23.3138 18.2745 19.095 19.6874 14.8242C21.6761 10.5918 25.0159 8.40431 29.707 8.26172Z" fill="#031555"/>
</svg>
