<svg width="60" height="60" viewBox="0 0 60 60" fill="none" xmlns="http://www.w3.org/2000/svg">
<path opacity="0.983" fill-rule="evenodd" clip-rule="evenodd" d="M26.7771 3.6914C28.8868 3.67188 30.9962 3.69141 33.1052 3.75C34.2899 4.1925 35.0126 5.03234 35.2732 6.26953C35.388 8.07123 35.5444 9.86811 35.742 11.6602C36.4383 12.1746 37.2 12.5848 38.0271 12.8906C38.4513 12.9892 38.842 12.911 39.199 12.6562C40.5813 11.3123 42.0657 10.1013 43.6521 9.02343C44.6807 8.71917 45.6572 8.83635 46.5818 9.375C47.972 10.7261 49.3197 12.1127 50.6248 13.5352C51.3488 15.1085 51.0949 16.4952 49.863 17.6953C36.5818 17.7735 23.3005 17.7735 10.0193 17.6953C8.67029 16.3342 8.49451 14.8302 9.49195 13.1836C10.7615 11.9141 12.0311 10.6445 13.3005 9.375C14.5114 8.67187 15.7225 8.67187 16.9334 9.375C18.2964 10.6027 19.7026 11.7745 21.1521 12.8906C21.3865 12.9688 21.6209 12.9688 21.8552 12.8906C22.6823 12.5848 23.4441 12.1746 24.1404 11.6602C24.338 9.86811 24.4943 8.07123 24.6091 6.26953C24.8926 5.02995 25.6152 4.17058 26.7771 3.6914Z" fill="#031555"/>
<path opacity="0.978" fill-rule="evenodd" clip-rule="evenodd" d="M6.15235 19.5117C22.2111 19.454 38.2658 19.5126 54.3164 19.6875C55.3052 20.0902 55.9107 20.8129 56.1328 21.8554C56.211 28.1054 56.211 34.3555 56.1328 40.6054C55.8645 42.0066 55.0246 42.8074 53.6133 43.0078C37.832 43.0859 22.0508 43.0859 6.26953 43.0078C4.91065 42.8209 4.07082 42.0591 3.75 40.7226C3.67187 34.4335 3.67187 28.1445 3.75 21.8554C4.07761 20.5706 4.8784 19.7893 6.15235 19.5117ZM15.4102 24.7851C17.9705 24.6177 19.4549 25.7895 19.8633 28.3007C19.8929 28.9161 19.6 29.2677 18.9844 29.3554C18.6028 29.2474 18.3294 29.013 18.1641 28.6523C17.8958 26.8081 16.8606 26.1636 15.0586 26.7187C13.9187 27.5875 13.7429 28.6227 14.5313 29.8242C14.7461 29.9609 14.961 30.0976 15.1758 30.2343C17.018 30.1815 18.4438 30.9042 19.4531 32.4023C20.3311 34.6913 19.6866 36.3905 17.5195 37.5C16.0308 37.9756 14.6636 37.7413 13.418 36.7968C12.7429 36.0712 12.3523 35.2119 12.2461 34.2187C12.4076 33.3962 12.8763 33.1228 13.6523 33.3984C13.8909 34.098 14.1839 34.7817 14.5313 35.4492C15.6258 36.2652 16.6805 36.226 17.6953 35.332C18.4843 33.1829 17.7226 32.1088 15.4102 32.1093C12.7079 31.2556 11.7899 29.4782 12.6563 26.7773C13.2981 25.7245 14.216 25.0604 15.4102 24.7851ZM27.5977 24.7851C28.9654 24.7655 30.3326 24.7851 31.6992 24.8437C32.7162 25.1575 33.4389 25.8021 33.8672 26.7773C34.0579 29.6231 34.097 32.4746 33.9844 35.332C33.6533 36.6005 32.8526 37.4013 31.582 37.7343C30.293 37.8125 29.0039 37.8125 27.7148 37.7343C26.4454 37.4023 25.6445 36.6015 25.3125 35.332C25.2343 32.6367 25.2343 29.9414 25.3125 27.2461C25.654 26.026 26.4157 25.2057 27.5977 24.7851ZM40.8398 24.7851C42.2075 24.7655 43.5748 24.7851 44.9414 24.8437C47.0027 25.5484 47.8426 26.9741 47.4609 29.1211C47.0556 30.4247 46.1767 31.1864 44.8242 31.4062C43.9267 31.4648 43.0282 31.4843 42.1289 31.4648C42.1485 33.3011 42.1289 35.1371 42.0703 36.9726C41.6881 37.8887 41.1411 38.0059 40.4297 37.3242C40.3515 33.3008 40.3515 29.2773 40.4297 25.2539C40.5909 25.1127 40.7276 24.9564 40.8398 24.7851Z" fill="#031555"/>
<path opacity="0.972" fill-rule="evenodd" clip-rule="evenodd" d="M27.8321 26.5429C29.0437 26.5235 30.2546 26.5429 31.4649 26.6015C31.7969 26.7773 32.0508 27.0313 32.2266 27.3632C32.3048 29.9804 32.3048 32.5977 32.2266 35.2148C32.0951 35.4637 31.9193 35.6785 31.6992 35.8593C30.4579 36.0463 29.2078 36.0853 27.9492 35.9765C27.5493 35.8503 27.2563 35.5964 27.0703 35.2148C26.9922 32.5977 26.9922 29.9804 27.0703 27.3632C27.2689 27.0283 27.5228 26.7549 27.8321 26.5429Z" fill="#031555"/>
<path opacity="0.952" fill-rule="evenodd" clip-rule="evenodd" d="M42.1289 26.5429C43.0282 26.5235 43.9267 26.5429 44.8242 26.6015C45.7383 27.1163 46.0312 27.8781 45.7031 28.8867C45.5664 29.1797 45.3516 29.3945 45.0586 29.5312C44.0919 29.696 43.1153 29.7546 42.1289 29.707C42.1289 28.6523 42.1289 27.5976 42.1289 26.5429Z" fill="#031555"/>
<path opacity="0.981" fill-rule="evenodd" clip-rule="evenodd" d="M8.84766 44.8242C22.9102 44.8242 36.9727 44.8242 51.0352 44.8242C51.0231 45.4584 50.8473 46.0444 50.5078 46.582C49.1992 47.8907 47.8907 49.1992 46.582 50.5078C45.3711 51.2109 44.1601 51.2109 42.9492 50.5078C41.5862 49.2802 40.18 48.1083 38.7305 46.9922C37.8313 47.0964 36.9718 47.3699 36.1523 47.8125C35.7788 48.0391 35.603 48.3712 35.625 48.8086C35.5181 50.4109 35.4009 52.0125 35.2734 53.6133C35.0128 54.8504 34.2901 55.6903 33.1055 56.1328C30.9961 56.211 28.8867 56.211 26.7773 56.1328C25.5927 55.6903 24.87 54.8504 24.6094 53.6133C24.4945 51.8115 24.3382 50.0147 24.1406 48.2227C23.4443 47.7082 22.6826 47.298 21.8555 46.9922C21.4313 46.8936 21.0405 46.9718 20.6836 47.2266C19.4336 48.3203 18.1836 49.4141 16.9336 50.5078C15.7227 51.2109 14.5117 51.2109 13.3008 50.5078C11.9921 49.1992 10.6836 47.8907 9.375 46.582C9.03554 46.0444 8.85976 45.4584 8.84766 44.8242Z" fill="#031555"/>
</svg>
