<svg width="35" height="34" viewBox="0 0 35 34" fill="none" xmlns="http://www.w3.org/2000/svg">
<path d="M17.5 32C19.4702 32.0026 21.4215 31.6157 23.2417 30.8617C25.0619 30.1078 26.7152 29.0015 28.1065 27.6065C29.5015 26.2152 30.6078 24.5619 31.3617 22.7417C32.1157 20.9215 32.5026 18.9702 32.5 17C32.5025 15.0298 32.1157 13.0785 31.3617 11.2583C30.6077 9.43812 29.5015 7.78484 28.1065 6.39351C26.7152 4.99853 25.0619 3.89226 23.2417 3.13828C21.4215 2.38429 19.4702 1.99746 17.5 2.00001C15.5298 1.9975 13.5785 2.38435 11.7583 3.13833C9.93812 3.89232 8.28484 4.99857 6.89351 6.39351C5.49857 7.78484 4.39232 9.43812 3.63833 11.2583C2.88435 13.0785 2.4975 15.0298 2.50001 17C2.49746 18.9702 2.88429 20.9215 3.63828 22.7417C4.39226 24.5619 5.49853 26.2152 6.89351 27.6065C8.28484 29.0015 9.93812 30.1077 11.7583 30.8617C13.5785 31.6157 15.5298 32.0025 17.5 32Z" fill="#E3E6ED" stroke="#031555" stroke-width="4" stroke-linejoin="round"/>
<path d="M11.5 17L16 21.5L25 12.5" fill="#E3E6ED"/>
<path d="M11.5 17L16 21.5L25 12.5" stroke="#031555" stroke-width="4" stroke-linecap="round" stroke-linejoin="round"/>
</svg>
