<svg width="359" height="540" viewBox="0 0 359 540" fill="none" xmlns="http://www.w3.org/2000/svg">
<g clip-path="url(#clip0_103_1031)">
<path opacity="0.988" fill-rule="evenodd" clip-rule="evenodd" d="M-27.543 -0.527344C-6.80045 -0.527344 13.941 -0.527344 34.6836 -0.527344C71.7442 2.00146 107.604 10.2632 142.262 24.2578C157.029 30.4952 169.862 39.4601 180.758 51.1524C190.177 63.0011 190.881 75.3059 182.867 88.0664C172.177 100.506 159.346 110.174 144.371 117.07C108.98 131.982 72.0659 140.419 33.6289 142.383C-22.8802 146.921 -77.7236 139.538 -130.902 120.234C-143.897 114.799 -155.85 107.767 -166.762 99.1406C-173.206 93.2474 -178.128 86.3919 -181.527 78.5742C-181.527 73.6523 -181.527 68.7305 -181.527 63.8086C-175.19 50.2607 -165.347 39.8897 -151.996 32.6953C-130.132 20.7144 -106.929 12.2769 -82.3867 7.38281C-64.0763 3.86646 -45.7954 1.22974 -27.543 -0.527344Z" fill="#E3E6ED"/>
<path opacity="0.983" fill-rule="evenodd" clip-rule="evenodd" d="M-181.527 136.582C-141.382 160.803 -97.7882 175.041 -50.7461 179.297C0.279663 184.742 50.9047 182.282 101.129 171.914C132.253 165.587 161.08 153.809 187.613 136.582C188.667 149.571 189.018 162.579 188.668 175.605C160.641 169.824 145.348 181.074 142.789 209.355C138.162 220.311 130.603 228.572 120.113 234.141C112.464 237.51 104.73 240.674 96.9101 243.633C90.042 249.978 86.5267 257.888 86.3633 267.363C30.0936 277.359 -26.1571 277.182 -82.3867 266.836C-106.924 261.944 -130.127 253.507 -151.996 241.523C-165.347 234.329 -175.19 223.958 -181.527 210.41C-181.527 185.801 -181.527 161.191 -181.527 136.582Z" fill="#E3E6ED"/>
<path opacity="0.979" fill-rule="evenodd" clip-rule="evenodd" d="M358.473 274.746C358.473 280.723 358.473 286.699 358.473 292.676C351.297 368.758 316.14 427.996 253.004 470.391C249.315 473.026 245.271 474.96 240.875 476.191C196.757 455.628 165.117 422.933 145.953 378.105C132.189 344.972 125.685 310.519 126.441 274.746C154.479 263.936 173.111 244.248 182.34 215.684C222.418 214.278 262.496 214.278 302.574 215.684C311.789 244.235 330.421 263.923 358.473 274.746ZM286.754 277.91C296.816 285.327 306.133 293.764 314.703 303.223C315.407 303.926 315.407 304.629 314.703 305.332C287.105 333.632 259.508 361.934 231.91 390.234C223.954 395.204 216.219 394.852 208.707 389.18C195.347 373.711 181.989 358.243 168.629 342.773C178.318 334.314 188.162 326.051 198.16 317.988C206.268 326.973 214.178 336.114 221.891 345.41C243.727 323.049 265.348 300.548 286.754 277.91Z" fill="#E3E6ED"/>
<path opacity="0.984" fill-rule="evenodd" clip-rule="evenodd" d="M-181.527 268.418C-144.07 291.627 -103.289 305.514 -59.1836 310.078C-9.76199 315.951 39.4571 314.72 88.4727 306.387C91.5629 336.326 98.9457 365.155 110.621 392.871C75.2891 402.671 39.2536 407.593 2.51562 407.637C-39.4789 407.514 -80.4359 401.01 -120.355 388.125C-140.548 381.287 -158.302 370.566 -173.617 355.957C-176.83 351.631 -179.467 347.061 -181.527 342.246C-181.527 317.637 -181.527 293.027 -181.527 268.418Z" fill="#E3E6ED"/>
<path opacity="0.985" fill-rule="evenodd" clip-rule="evenodd" d="M-181.527 400.254C-152.026 418.824 -120.034 431.304 -85.5508 437.695C-28.3097 447.829 28.9946 448.18 86.3633 438.75C100.434 436.155 114.321 432.815 128.023 428.73C128.902 429.082 129.782 429.434 130.66 429.785C144.172 450.861 160.871 469.142 180.758 484.629C181.09 486.114 180.739 487.52 179.703 488.848C164.388 503.456 146.633 514.178 126.441 521.016C96.1297 531.051 65.1925 537.203 33.6289 539.473C13.2386 539.473 -7.15271 539.473 -27.543 539.473C-63.009 537.123 -97.4624 529.565 -130.902 516.797C-143.897 511.361 -155.85 504.329 -166.762 495.703C-173.206 489.81 -178.128 482.954 -181.527 475.137C-181.527 450.175 -181.527 425.215 -181.527 400.254Z" fill="#E3E6ED"/>
</g>
<defs>
<clipPath id="clip0_103_1031">
<rect width="540" height="540" fill="white" transform="translate(-181)"/>
</clipPath>
</defs>
</svg>
