<svg width="100" height="100" viewBox="0 0 100 100" fill="none" xmlns="http://www.w3.org/2000/svg">
<path opacity="0.977" fill-rule="evenodd" clip-rule="evenodd" d="M48.9257 0.683684C50.1368 0.446379 51.146 0.771901 51.953 1.66025C53.2226 4.19931 54.4921 6.73837 55.7616 9.27743C58.5947 9.88243 61.4593 10.3707 64.3554 10.7423C66.1738 11.6108 66.597 12.9455 65.6249 14.7462C63.6661 16.7703 61.6478 18.7234 59.5702 20.6056C59.9808 23.4938 60.404 26.3909 60.8398 29.297C60.6689 31.3518 59.562 32.1331 57.5195 31.6407C54.9974 30.3309 52.4909 28.9964 49.9999 27.6368C47.413 28.9466 44.8413 30.2811 42.2851 31.6407C39.6812 31.9661 38.607 30.8268 39.0624 28.2227C39.5607 25.6893 39.9513 23.1503 40.2343 20.6056C37.9556 18.5873 35.8071 16.4389 33.789 14.1602C33.3372 12.4925 33.8907 11.3531 35.4491 10.7423C38.3511 10.4071 41.2157 9.91878 44.0429 9.27743C45.3124 6.73837 46.582 4.19931 47.8515 1.66025C48.1894 1.28878 48.5474 0.963258 48.9257 0.683684Z" fill="black"/>
<path opacity="0.977" fill-rule="evenodd" clip-rule="evenodd" d="M10.0587 19.4336C10.6814 19.4566 11.2673 19.6193 11.8165 19.9219C14.076 21.5961 16.3872 23.191 18.7501 24.707C21.3218 23.7631 23.8932 22.8189 26.4649 21.875C28.8741 21.485 29.9483 22.4941 29.6876 24.9023C28.9325 27.5254 28.1188 30.1297 27.2462 32.7148C29.1391 35.1611 30.9946 37.6352 32.8126 40.1367C33.2278 41.8135 32.6092 42.8877 30.9571 43.3594C28.0274 43.4244 25.0977 43.4897 22.168 43.5547C20.5065 46.1619 18.7488 48.701 16.8946 51.1719C15.64 51.8432 14.5007 51.6805 13.4766 50.6836C12.4379 47.7615 11.3637 44.8645 10.254 41.9922C7.5196 41.2109 4.78523 40.4297 2.05085 39.6484C0.674006 38.7721 0.315934 37.5676 0.976635 36.0352C3.38548 34.1471 5.79435 32.2592 8.2032 30.3711C8.1489 27.3756 8.0838 24.3807 8.00788 21.3867C8.31247 20.3117 8.99607 19.6605 10.0587 19.4336Z" fill="black"/>
<path opacity="0.978" fill-rule="evenodd" clip-rule="evenodd" d="M88.9649 19.4336C90.3735 19.4362 91.3175 20.0873 91.797 21.3867C91.721 24.3807 91.6559 27.3756 91.6016 30.3711C94.0104 32.2592 96.4194 34.1471 98.8282 36.0352C99.489 37.5676 99.1308 38.7721 97.754 39.6484C95.0196 40.4297 92.2852 41.2109 89.5509 41.9922C88.4411 44.8645 87.3669 47.7615 86.3282 50.6836C84.8997 52.0363 83.5325 51.9711 82.2267 50.4883C80.6968 48.1771 79.1667 45.8658 77.6368 43.5547C74.7071 43.4896 71.7774 43.4244 68.8477 43.3594C67.1956 42.8877 66.577 41.8135 66.9923 40.1367C68.8102 37.6352 70.6657 35.1611 72.5587 32.7148C71.686 30.1297 70.8724 27.5254 70.1173 24.9023C69.8565 22.4941 70.9308 21.485 73.3399 21.875C75.9116 22.8189 78.4831 23.7631 81.0548 24.707C83.6571 22.8709 86.2938 21.1131 88.9649 19.4336Z" fill="black"/>
<path opacity="0.994" fill-rule="evenodd" clip-rule="evenodd" d="M53.2226 40.5273C57.8007 40.3888 60.5675 42.5372 61.5234 46.9726C61.621 51.5945 61.6537 56.2169 61.621 60.8398C67.8062 60.8072 73.9912 60.8398 80.1757 60.9374C81.8425 61.53 82.9492 62.6693 83.496 64.3554C82.9492 66.0415 81.8425 67.1808 80.1757 67.7734C77.1166 67.871 74.0566 67.9037 70.996 67.871C70.996 68.6523 70.996 69.4335 70.996 70.2148C74.0566 70.1822 77.1166 70.2148 80.1757 70.3124C81.8425 70.905 82.9492 72.0443 83.496 73.7304C82.9492 75.4165 81.8425 76.5558 80.1757 77.1484C77.1166 77.246 74.0566 77.2787 70.996 77.246C70.996 78.0273 70.996 78.8085 70.996 79.5898C73.5359 79.5572 76.075 79.5898 78.6132 79.6874C80.28 80.28 81.3867 81.4193 81.9335 83.1054C81.3867 84.7915 80.28 85.9308 78.6132 86.5234C76.075 86.621 73.5359 86.6537 70.996 86.621C70.996 87.4023 70.996 88.1835 70.996 88.9648C73.0154 88.9324 75.0335 88.9648 77.0507 89.0624C78.7175 89.655 79.8242 90.7943 80.371 92.4804C79.8242 94.1665 78.7175 95.3058 77.0507 95.8984C65.6576 96.0287 54.2642 96.0287 42.871 95.8984C42.408 95.7548 41.9521 95.5921 41.5039 95.4101C41.2435 85.1888 41.2435 74.9673 41.5039 64.746C43.516 63.4824 45.5017 62.1802 47.4609 60.8398C48.9584 58.3658 50.4556 55.8919 51.9531 53.4179C52.2044 49.3913 52.3347 45.355 52.3437 41.3085C52.6166 41.0019 52.9095 40.7413 53.2226 40.5273Z" fill="black"/>
<path opacity="0.995" fill-rule="evenodd" clip-rule="evenodd" d="M20.0195 60.8399C25.8793 60.8073 31.7387 60.8399 37.5977 60.9375C38.151 61.2305 38.5742 61.6537 38.8672 62.2071C38.9975 73.7955 38.9975 85.3842 38.8672 96.9727C38.5742 97.526 38.151 97.9492 37.5977 98.2422C31.7383 98.3725 25.8789 98.3725 20.0195 98.2422C19.4662 97.9492 19.043 97.526 18.75 96.9727C18.6198 85.3842 18.6198 73.7955 18.75 62.2071C19.0809 61.6489 19.504 61.1932 20.0195 60.8399ZM28.0273 90.1367C30.1402 90.0033 31.0842 90.9799 30.8594 93.0664C30.2656 94.2584 29.3215 94.6815 28.0273 94.336C26.8354 93.7422 26.4123 92.7981 26.7578 91.5039C27.0887 90.9457 27.5119 90.4901 28.0273 90.1367Z" fill="black"/>
</svg>
