<svg width="64" height="64" viewBox="0 0 64 64" fill="none" xmlns="http://www.w3.org/2000/svg">
<path d="M26.0503 31.8392H14.794L16.7236 33.4472C16.7236 30.66 17.3668 26.8007 18.6533 21.8694C20.1541 16.7236 22.5126 11.7923 25.7286 7.07538L16.7236 0C11.3635 5.36014 7.18258 11.2563 4.18091 17.6884C1.39364 24.1206 0 30.4456 0 36.6633V64H26.0503V31.8392ZM64 31.8392H53.0653L54.6734 33.4472C54.6734 30.66 55.3166 26.8007 56.603 21.8694C58.1039 16.7236 60.5695 11.7923 64 7.07538L54.995 0C49.4204 5.36014 45.2395 11.2563 42.4523 17.6884C39.665 24.1206 38.2714 30.4456 38.2714 36.6633V64H64V31.8392Z" fill="white"/>
</svg>
