<svg width="66" height="65" viewBox="0 0 66 65" fill="none" xmlns="http://www.w3.org/2000/svg">
<path d="M38.9597 33.0237L50.2158 33.0852L48.3004 31.4667C48.2758 34.2538 47.5984 38.1095 46.2684 43.0336C44.7221 48.1709 42.3201 53.0891 39.0623 57.7883L48.0047 64.9126C53.4121 59.5819 57.6451 53.7088 60.7036 47.2933C63.5477 40.8766 64.9972 34.5595 65.0522 28.342L65.2939 1.00641L39.2441 0.864168L38.9597 33.0237ZM1.01052 32.8165L11.945 32.8762L10.3512 31.2594C10.3266 34.0466 9.64925 37.9022 8.31924 42.8263C6.77292 47.9637 4.26369 52.8813 0.791544 57.5793L9.73387 64.7036C15.3557 59.3741 19.5887 53.501 22.4328 47.0844C25.2769 40.6677 26.7265 34.3506 26.7814 28.133L27.0232 0.797437L1.29489 0.656952L1.01052 32.8165Z" fill="white"/>
</svg>
