<svg width="54" height="54" viewBox="0 0 54 54" fill="none" xmlns="http://www.w3.org/2000/svg">
<g clip-path="url(#clip0_28_789)">
<g opacity="0.994">
<path fill-rule="evenodd" clip-rule="evenodd" d="M6.22266 0C20.0742 0 33.9258 0 47.7773 0C48.0922 0.185092 48.3558 0.431186 48.5684 0.738281C50.1896 3.99843 51.8244 7.25038 53.4727 10.4941C35.8243 10.5645 18.1757 10.5645 0.527344 10.4941C2.1756 7.25038 3.81036 3.99843 5.43164 0.738281C5.64413 0.431186 5.9078 0.185092 6.22266 0Z" fill="#031555"/>
<path fill-rule="evenodd" clip-rule="evenodd" d="M0 13.7109C18 13.7109 36 13.7109 54 13.7109C54 15.7148 54 17.7188 54 19.7227C53.0032 23.8831 50.3665 26.0979 46.0898 26.3672C43.4735 26.3508 41.3466 25.3314 39.709 23.3086C37.2124 26.1791 34.1363 27.0405 30.4805 25.8926C29.0971 25.3358 27.937 24.4746 27 23.3086C24.5971 26.1072 21.6089 27.0037 18.0352 25.998C16.5315 25.4492 15.2835 24.5527 14.291 23.3086C11.6872 26.2848 8.50555 27.111 4.74609 25.7871C2.18833 24.5175 0.606298 22.4961 0 19.7227C0 17.7188 0 15.7148 0 13.7109Z" fill="#031555"/>
<path fill-rule="evenodd" clip-rule="evenodd" d="M48.7266 54C44.8242 54 40.9219 54 37.0195 54C37.0371 50.66 37.0195 47.3201 36.9668 43.9805C36.6677 39.0768 34.1892 35.86 29.5312 34.3301C24.8022 33.4098 21.0933 34.9391 18.4043 38.918C17.7511 40.0688 17.3293 41.2993 17.1387 42.6094C16.9901 46.4041 16.9373 50.201 16.9805 54C13.0781 54 9.17578 54 5.27344 54C4.8538 53.8086 4.55496 53.4922 4.37695 53.0508C4.32422 45 4.30664 36.9493 4.32422 28.8984C7.84775 29.9911 11.17 29.5341 14.291 27.5273C18.5267 30.1943 22.763 30.1943 27 27.5273C31.237 30.1943 35.4733 30.1943 39.709 27.5273C42.83 29.5341 46.1523 29.9911 49.6758 28.8984C49.6934 36.9493 49.6758 45 49.623 53.0508C49.445 53.4922 49.1462 53.8086 48.7266 54Z" fill="#031555"/>
<path fill-rule="evenodd" clip-rule="evenodd" d="M33.8555 54C29.2852 54 24.7148 54 20.1445 54C20.1269 50.2381 20.1445 46.4764 20.1973 42.7148C21.0894 39.1677 23.357 37.3044 27 37.125C30.643 37.3044 32.9106 39.1677 33.8027 42.7148C33.8555 46.4764 33.8731 50.2381 33.8555 54Z" fill="#031555"/>
</g>
</g>
<defs>
<clipPath id="clip0_28_789">
<rect width="54" height="54" fill="white"/>
</clipPath>
</defs>
</svg>
