<svg width="90" height="90" viewBox="0 0 90 90" fill="none" xmlns="http://www.w3.org/2000/svg">
<mask id="mask0_1270_15108" style="mask-type:luminance" maskUnits="userSpaceOnUse" x="8" y="8" width="74" height="74">
<path d="M8.17969 44.9999C8.17969 37.7176 10.3392 30.5988 14.385 24.5437C18.4309 18.4887 24.1814 13.7693 30.9094 10.9825C37.6374 8.19564 45.0408 7.46648 52.1832 8.88719C59.3256 10.3079 65.8864 13.8147 71.0358 18.9641C76.1852 24.1135 79.692 30.6742 81.1127 37.8167C82.5334 44.9591 81.8042 52.3624 79.0174 59.0904C76.2305 65.8185 71.5112 71.569 65.4562 75.6148C59.4011 79.6607 52.2823 81.8202 44.9999 81.8202C35.2346 81.8202 25.8692 77.9409 18.9641 71.0358C12.059 64.1306 8.17969 54.7653 8.17969 44.9999Z" fill="white"/>
</mask>
<g mask="url(#mask0_1270_15108)">
<path d="M7.00564 82.9951L82.9961 82.9951L82.9961 7.01596L7.00564 7.01596L7.00564 82.9951Z" fill="#031555"/>
<path d="M43.2247 49.2821C17.4991 69.0762 5.15039 78.5327 5.15039 78.5327C5.15039 78.5327 11.0254 72.3075 39.9031 45.5876" fill="url(#paint0_linear_1270_15108)"/>
<path d="M5.11719 78.4874C5.11719 78.4874 11.2972 71.9007 39.8699 45.5537L39.9377 45.6328C15.7034 68.0029 7.61405 76.081 5.64819 78.0468C8.35972 75.9793 20.731 66.4889 43.1463 49.2369L43.2028 49.3272C17.8275 68.918 5.30925 78.4761 5.18498 78.5665L5.11719 78.4874Z" fill="url(#paint1_linear_1270_15108)"/>
<path d="M52.828 44.2092L52.4552 44.4352L51.1898 45.1244L49.9471 45.7684L49.7098 45.8813H49.6081L48.8963 46.2316L48.5913 46.3558L48.3766 46.4688L48.1168 46.5705L47.6536 46.7739L46.8062 47.1241C49.7098 50.5361 44.5918 55.3604 44.5918 55.3604C44.5918 55.3604 50.8396 54.3435 52.828 44.2092Z" fill="url(#paint2_linear_1270_15108)"/>
<path d="M44.4121 55.4959L44.5477 55.3603C44.5477 55.3603 49.5753 50.5021 46.7169 47.2257H46.6604L47.5981 46.8303L48.8409 46.288L49.9707 45.7683L51.2135 45.1243L52.4676 44.4351L52.9647 44.1414V44.2656C51.9253 49.5192 49.7335 52.2985 48.0727 53.7108C47.1086 54.5827 45.9445 55.2036 44.6833 55.5185L44.4121 55.4959ZM46.8751 47.2031C49.4058 50.231 45.5871 54.4564 44.7849 55.2925C45.9493 54.9477 47.0248 54.354 47.9371 53.5526C49.564 52.1742 51.7106 49.4514 52.75 44.3221L52.4789 44.4803L51.2135 45.1921L49.5979 46.0055L48.8861 46.3445L47.6433 46.8981L46.8751 47.2031Z" fill="url(#paint3_linear_1270_15108)"/>
<path d="M69.9788 23.2627L64.2168 27.1605L65.1771 28.2677L69.9788 23.2627Z" fill="url(#paint4_linear_1270_15108)" stroke="#595454" stroke-width="0.5"/>
<path d="M47.9139 46.7514L49.1793 46.1865L49.3374 46.1074L51.2807 45.1922L53.2014 44.1415L54.2295 43.4975L55.6191 42.6276L57.1331 41.5995L58.0708 40.9103L59.0989 40.0855L60.2287 39.0574L61.0083 38.4134L61.7088 37.7016L62.5787 36.7074L63.4938 35.4985L64.1943 34.3687L64.7818 33.1598L65.2111 31.9058L65.471 30.5613L65.5275 29.7478V28.8779L65.3806 28.2452L65.2902 27.8046L65.166 27.2849L64.9174 27.1719H64.8044H64.6914L64.2508 27.025C54.9525 24.0762 45.3266 38.0406 42.6829 42.2321L41.9824 43.3619L45.7108 47.6665L47.349 46.9999L47.9139 46.7514ZM51.7891 38.6959C51.5215 38.348 51.3255 37.9506 51.2124 37.5265C51.0993 37.1024 51.0713 36.6602 51.1301 36.2253C51.189 35.7903 51.3334 35.3714 51.5551 34.9926C51.7768 34.6138 52.0714 34.2827 52.4218 34.0185C53.0691 33.4074 53.9309 33.0756 54.8209 33.0946C55.7108 33.1136 56.5576 33.482 57.1783 34.1202C57.4465 34.4673 57.6433 34.8642 57.7573 35.2878C57.8712 35.7115 57.9002 36.1535 57.8424 36.5884C57.7846 37.0233 57.6413 37.4424 57.4206 37.8216C57.2 38.2007 56.9064 38.5325 56.5569 38.7975C55.909 39.4121 55.0448 39.7461 54.1521 39.727C53.2593 39.708 52.4102 39.3374 51.7891 38.6959Z" fill="url(#paint5_linear_1270_15108)"/>
<path d="M41.8574 43.3279L42.5805 42.1303C45.3033 37.8031 54.9066 23.9518 64.2162 26.9005C64.3518 26.9005 64.4874 26.9909 64.6455 27.0474H64.702H64.7811L65.041 27.1604H65.12L65.2443 27.6462L65.3234 28.0981L65.4025 28.6856V29.5669V30.3803L65.1426 31.7361L64.7133 33.0015L64.1145 34.2217L63.414 35.3515L62.4989 36.5603L61.6177 37.5546L61.0076 38.4132L60.3297 39.0572L59.1999 40.0853L58.1718 40.8988L57.234 41.5993L55.7201 42.6274L54.2288 43.5425L53.1893 44.1413L51.3026 45.192L49.2011 46.2201L47.9358 46.7963L47.3483 47.0449L45.6762 47.7228L41.8574 43.3279ZM65.1087 27.3525L64.8941 27.2621H64.8263L64.4083 27.1265C55.1778 24.2003 45.6084 38.0065 42.942 42.311L42.2642 43.4408L45.9699 47.7341L47.5742 47.0788L48.1617 46.8302L49.5853 46.1863L51.5285 45.2259L53.4492 44.1752L54.4886 43.5764L55.8783 42.7065L57.3809 41.6783L58.3186 40.9892L59.3468 40.1757L60.533 39.1476L61.1996 38.5149L61.8888 37.8031L62.7701 36.8089L63.6739 35.6L64.3744 34.4702L64.9619 33.2613L65.3912 32.0072L65.3799 30.5046V29.7025V28.8325L65.3121 28.2563L65.2217 27.8044L65.1087 27.3525ZM51.7432 38.7183C51.4819 38.4072 51.2853 38.0472 51.165 37.6591C51.0447 37.2711 51.0031 36.863 51.0427 36.4587C51.1419 35.4709 51.6197 34.5599 52.3759 33.9166C53.0385 33.2987 53.9165 32.9645 54.8223 32.9857C55.7281 33.0068 56.5896 33.3815 57.2227 34.0296C57.4848 34.3398 57.6811 34.7001 57.7996 35.0885C57.9181 35.477 57.9563 35.8855 57.9119 36.2892C57.8221 37.2798 57.3426 38.1942 56.5787 38.8312C55.918 39.4485 55.0418 39.7823 54.1379 39.7612C53.234 39.7401 52.3743 39.3657 51.7432 38.7183ZM57.1436 34.1991C56.5265 33.5843 55.6962 33.2307 54.8253 33.2118C53.9544 33.1929 53.1096 33.51 52.4663 34.0974C52.0977 34.4042 51.7933 34.7807 51.5704 35.2052C51.3474 35.6298 51.2104 36.0941 51.167 36.5716C51.1297 36.9523 51.1695 37.3366 51.2841 37.7015C51.3986 38.0664 51.5855 38.4046 51.8336 38.6957C52.4513 39.3138 53.2838 39.6694 54.1575 39.6883C55.0311 39.7073 55.8783 39.3881 56.5222 38.7974C56.8908 38.4905 57.1952 38.1141 57.4181 37.6895C57.6411 37.265 57.7781 36.8006 57.8215 36.3231C57.8587 35.9363 57.8178 35.5461 57.7013 35.1754C57.5849 34.8047 57.3953 34.4612 57.1436 34.1652V34.1991Z" fill="url(#paint6_linear_1270_15108)"/>
<path d="M49.2018 40.831L51.7213 38.7522L52.1506 39.1589L52.6251 39.4301L53.2013 39.656L53.7662 39.7577L54.4102 39.7803L54.9751 39.6786L55.3818 39.5657L55.7547 39.4075L56.2857 39.0911L56.6133 38.8765L57.1443 38.289L57.359 37.9726L57.5511 37.6789L57.7318 37.2609L57.9578 36.5491L57.9917 35.7469L57.7657 34.7979L57.2799 34.0296L65.1659 27.3186L65.4484 28.8777L65.4258 30.5611L65.1659 31.9056L64.7366 33.1597L63.7876 34.99L62.9741 36.244L62.3414 36.9332L61.6635 37.7128L60.9631 38.4246L59.9011 39.4075L58.8616 40.2774L58.0821 40.9101L57.1443 41.5993L55.9806 42.3676L54.8056 43.1019L53.7775 43.712L52.0376 44.7401L51.179 45.2147L50.1735 45.7118L49.1792 46.1863L48.2867 46.593L46.3886 47.3839L45.6881 47.6663L44.0273 45.7457L49.3826 41.0344L49.2018 40.831Z" fill="#DB425F"/>
<path d="M57.1777 34.1201C56.5571 33.4819 55.7103 33.1136 54.8203 33.0945C53.9303 33.0755 53.0686 33.4074 52.4212 34.0184C52.0708 34.2827 51.7763 34.6138 51.5546 34.9925C51.3329 35.3713 51.1884 35.7903 51.1296 36.2252C51.0708 36.6601 51.0987 37.1024 51.2118 37.5265C51.3249 37.9505 51.5209 38.348 51.7885 38.6958C52.4096 39.3374 53.2588 39.7079 54.1515 39.727C55.0443 39.746 55.9084 39.412 56.5563 38.7975C56.9059 38.5324 57.1994 38.2007 57.4201 37.8215C57.6407 37.4423 57.7841 37.0232 57.8419 36.5883C57.8996 36.1534 57.8707 35.7114 57.7567 35.2878C57.6427 34.8641 57.4459 34.4673 57.1777 34.1201Z" fill="url(#paint7_linear_1270_15108)" stroke="#332C2B" stroke-width="0.5"/>
<path d="M39.9258 45.644L43.1005 49.3159L45.6878 47.6664L41.9594 43.3618L39.9258 45.644Z" fill="url(#paint8_linear_1270_15108)" stroke="#878483" stroke-width="0.5"/>
<path d="M37.4062 50.6265C37.4062 50.6265 48.9076 37.9727 50.4103 39.6787C51.7547 41.1926 37.4062 50.6265 37.4062 50.6265Z" fill="url(#paint9_linear_1270_15108)" stroke="#E2E2E2" stroke-width="0.5" stroke-miterlimit="10"/>
<path d="M46.3996 36.8315L46.1172 37.1592L45.2246 38.289L44.3886 39.4188L44.2304 39.6335L44.1626 39.7238L43.7107 40.3678L43.5186 40.639L43.3831 40.8423L43.2362 41.0683L42.9537 41.4976L42.4679 42.2772C39.6095 38.8878 33.9492 43.0793 33.9492 43.0793C33.9492 43.0793 35.9942 37.1592 46.3996 36.8315Z" fill="url(#paint10_linear_1270_15108)" stroke="#F9CC7D" stroke-width="0.5"/>
<path d="M13.5586 70.5337V81.5379H87.1765V72.4995C87.1765 70.6241 86.8262 69.8332 85.9111 70.1495C85.7416 68.6582 84.9508 67.5397 84.0017 67.5397C83.0527 67.5397 82.1714 68.7825 82.0698 70.3981C81.9231 70.2 81.7331 70.038 81.5142 69.9247C81.2953 69.8113 81.0534 69.7495 80.8069 69.7441C80.5605 69.7386 80.3161 69.7896 80.0924 69.8932C79.8687 69.9968 79.6717 70.1502 79.5164 70.3416C79.3971 69.6059 78.9908 68.9477 78.3866 68.5113C78.2171 66.8053 77.4263 65.5174 76.4772 65.5174C75.5282 65.5174 74.647 66.9522 74.5453 68.7938C74.4056 68.5724 74.2145 68.388 73.9883 68.2562C73.7622 68.1244 73.5075 68.0491 73.246 68.0368C72.9977 68.0459 72.755 68.113 72.5372 68.2327C72.3195 68.3523 72.1327 68.5213 71.9919 68.726C71.8173 68.636 71.6235 68.5895 71.427 68.5904C71.0817 68.6297 70.7531 68.7603 70.4751 68.9688C70.1971 69.1773 69.9797 69.4562 69.8453 69.7767C69.436 69.8271 69.0467 69.9828 68.7155 70.2286C68.2112 69.7427 67.5403 69.4679 66.84 69.4604C66.527 69.4587 66.2165 69.5162 65.9249 69.6298C65.9144 69.2672 65.8457 68.9087 65.7215 68.5678C65.7215 67.2234 64.9533 66.1387 63.9929 66.1387C63.7346 66.1392 63.4825 66.218 63.2699 66.3647C63.0665 65.0202 62.2417 64.0147 61.2475 64.0147C60.8758 64.0443 60.5202 64.1789 60.2221 64.403C59.924 64.627 59.6958 64.9312 59.5641 65.2801C60.0951 58.1962 54.2427 56.558 51.8137 59.6311C50.5483 52.9879 43.713 53.3155 43.2385 59.4842C43.1268 59.3519 42.9888 59.2443 42.8331 59.1684C42.6775 59.0925 42.5077 59.05 42.3346 59.0436C41.4534 59.0436 40.7529 60.1734 40.7529 61.484C40.7462 62.0045 40.8623 62.5193 41.0919 62.9866C40.9038 63.2319 40.7901 63.526 40.7642 63.8339C40.5091 63.4708 40.171 63.1737 39.778 62.9674C39.385 62.761 38.9485 62.6514 38.5046 62.6477C37.9235 62.6716 37.3627 62.8682 36.8939 63.2123C36.425 63.5564 36.0693 64.0324 35.8722 64.5796C35.5204 64.2469 35.057 64.0576 34.5729 64.0486C33.9582 63.8827 33.3107 63.882 32.6957 64.0467C32.0807 64.2114 31.52 64.5355 31.0705 64.9863C30.8785 64.1277 30.4152 63.5176 29.9407 63.5176C29.8303 63.5169 29.7215 63.5441 29.6244 63.5967C29.4361 63.43 29.2317 63.2824 29.0143 63.1561C28.8951 62.7066 28.6403 62.3049 28.2844 62.0057C27.9285 61.7064 27.489 61.5242 27.0258 61.484C25.896 61.484 25.0374 62.6138 24.8227 64.0034L24.6871 64.1955C24.4871 64.0831 24.2613 64.0247 24.0319 64.026C23.7157 64.0356 23.4093 64.1377 23.1506 64.3198C23.1506 64.1955 23.1506 64.0599 23.1506 63.9243C23.226 62.9595 22.9186 62.0038 22.2949 61.2639C21.6712 60.5239 20.7813 60.0591 19.8177 59.97C18.8439 60.0451 17.9398 60.5038 17.3042 61.2453C16.6686 61.9869 16.3535 62.9505 16.4283 63.9243C16.4311 64.27 16.469 64.6144 16.5413 64.9525H16.4283C14.7788 64.9412 13.5586 67.438 13.5586 70.5337Z" fill="white"/>
<path d="M13.4336 70.5336C13.4336 67.3137 14.7329 64.7942 16.3824 64.7603C16.3374 64.4801 16.3147 64.1968 16.3146 63.913C16.3146 61.6534 17.8511 59.7892 19.704 59.7892C21.5569 59.7892 23.0934 61.6308 23.0934 63.913V64.0485C23.3017 63.9242 23.5374 63.853 23.7798 63.8412C24.0221 63.8294 24.2636 63.8773 24.4831 63.9808L24.5508 63.8904C24.7994 62.3764 25.7597 61.2918 26.8104 61.2918C27.2835 61.336 27.7323 61.5211 28.0989 61.8233C28.4655 62.1254 28.733 62.5307 28.8667 62.9865C29.0604 63.1092 29.2453 63.2451 29.4203 63.3933C29.516 63.3494 29.62 63.3263 29.7253 63.3255C30.2563 63.3255 30.7196 63.8678 30.9568 64.7264C31.4117 64.2997 31.9679 63.9959 32.5728 63.8437C33.1776 63.6915 33.8113 63.6959 34.414 63.8565C34.8786 63.8707 35.3246 64.042 35.6794 64.3423C35.8934 63.8034 36.2593 63.3382 36.7326 63.0033C37.2059 62.6683 37.7663 62.478 38.3457 62.4555C38.7605 62.465 39.1681 62.5662 39.5392 62.7518C39.9104 62.9373 40.2358 63.2027 40.4923 63.5288C40.5427 63.3243 40.6267 63.1296 40.7409 62.9526C40.5428 62.4846 40.4428 61.9808 40.4472 61.4726C40.4472 60.0265 41.2041 58.8515 42.1306 58.8515C42.4397 58.8605 42.7341 58.9855 42.9553 59.2017C43.2265 56.7048 44.6048 54.9084 46.5142 54.6147C48.4235 54.321 50.8752 55.6541 51.6661 59.3373C52.0504 58.9166 52.5181 58.5807 53.0394 58.3508C53.5607 58.121 54.1242 58.0023 54.694 58.0023C55.2637 58.0023 55.8272 58.121 56.3485 58.3508C56.8698 58.5807 57.3375 58.9166 57.7218 59.3373C58.3721 60.09 58.8635 60.9664 59.1664 61.9139C59.4692 62.8614 59.5774 63.8604 59.4843 64.8507C59.6415 64.5707 59.8668 64.3349 60.1393 64.1651C60.4119 63.9952 60.7228 63.8969 61.0434 63.8791C62.0151 63.8791 62.8737 64.8394 63.1336 66.1387C63.3338 66.0255 63.5589 65.9635 63.7889 65.9579C64.7831 65.9579 65.5965 67.0877 65.6191 68.5226C65.7264 68.8091 65.7911 69.1098 65.8112 69.4151C66.0787 69.3344 66.3565 69.2925 66.636 69.2908C67.3332 69.2983 68.0039 69.5593 68.5227 70.0252C68.8589 69.7945 69.2471 69.6508 69.6525 69.6072C69.7984 69.2837 70.0263 69.004 70.3137 68.7959C70.6011 68.5878 70.9379 68.4585 71.2907 68.4209C71.4775 68.4191 71.6625 68.4577 71.833 68.5339C71.9714 68.3337 72.155 68.169 72.3689 68.0531C72.5828 67.9372 72.8211 67.8733 73.0643 67.8667C73.3075 67.8601 73.5488 67.9109 73.7687 68.0151C73.9886 68.1192 74.1809 68.2737 74.3299 68.4661C74.4994 66.6697 75.3467 65.3365 76.341 65.3365C77.3352 65.3365 78.1373 66.6132 78.3407 68.3757C78.9141 68.8011 79.3152 69.4187 79.4705 70.1156C79.6269 69.9487 79.8159 69.8156 80.0258 69.7246C80.2356 69.6337 80.4619 69.5868 80.6907 69.5868C80.9194 69.5868 81.1457 69.6337 81.3556 69.7246C81.5655 69.8156 81.7545 69.9487 81.9109 70.1156C82.0916 68.5452 82.9277 67.3815 83.9219 67.3815C84.9161 67.3815 85.6957 68.5113 85.9104 69.9687C86.0676 69.9097 86.2402 69.9054 86.4001 69.9567C86.5601 70.008 86.698 70.1117 86.7916 70.2512C87.1326 70.9526 87.2733 71.7345 87.1983 72.5108V81.6735H13.4336V70.5336ZM87.0741 72.5447C87.1423 71.8597 87.0252 71.1691 86.7351 70.5449C86.6449 70.4241 86.5145 70.3396 86.3674 70.3064C86.2203 70.2733 86.0663 70.2938 85.933 70.3641H85.8313V70.1947C85.6731 68.7598 84.9161 67.7204 84.0236 67.7204C83.1311 67.7204 82.295 68.8502 82.1933 70.4206V70.7257L82.0577 70.5449C81.9099 70.3554 81.7216 70.2013 81.5066 70.0938C81.2916 69.9863 81.0553 69.9281 80.815 69.9235C80.5855 69.9269 80.3595 69.9802 80.1527 70.0797C79.9459 70.1792 79.7632 70.3225 79.6174 70.4997L79.4931 70.4319V70.3528C79.4304 70.0036 79.298 69.6706 79.104 69.3737C78.9099 69.0767 78.658 68.8218 78.3633 68.6242V68.5113C78.2051 66.8617 77.4369 65.6642 76.5556 65.6642C75.6744 65.6642 74.7027 67.0538 74.5672 68.8276V69.1552L74.4316 68.918C74.2996 68.7082 74.1185 68.5338 73.9039 68.4098C73.6893 68.2857 73.4478 68.2159 73.2001 68.2062C72.9658 68.2136 72.7366 68.2757 72.5306 68.3875C72.3246 68.4993 72.1476 68.6578 72.0138 68.8502V68.9067C71.8436 68.8282 71.6589 68.7859 71.4715 68.7824C71.1414 68.8188 70.827 68.9427 70.5608 69.1414C70.2947 69.34 70.0864 69.6061 69.9576 69.9122C69.5503 69.9559 69.1612 70.1038 68.8278 70.3415C68.3315 69.8757 67.6781 69.6136 66.9975 69.6072C66.6931 69.6083 66.3912 69.6618 66.1049 69.7653H65.9807V69.5507C65.8743 69.2433 65.7219 68.9538 65.5287 68.692C65.5287 67.4492 64.7944 66.4324 63.9018 66.4324C63.6558 66.4335 63.4158 66.5083 63.2127 66.6471L63.111 66.7149V66.5228C62.9189 65.2348 62.1167 64.2632 61.1903 64.2632C60.8362 64.2932 60.4977 64.4225 60.2139 64.6364C59.9301 64.8503 59.7124 65.14 59.586 65.4721L59.36 65.9353V65.3365C59.586 62.2635 58.5918 60.5575 57.7105 59.6875C57.3319 59.2718 56.8684 58.9421 56.3515 58.7207C55.8345 58.4993 55.2761 58.3914 54.7139 58.4043C54.1517 58.4171 53.5988 58.5504 53.0925 58.7952C52.5862 59.04 52.1383 59.3905 51.7791 59.8231L51.6661 59.97V59.744C50.9543 56.0721 48.5817 54.7277 46.6724 55.0327C44.763 55.3378 43.475 57.1116 43.283 59.5519V59.8344L43.1474 59.6762C43.0424 59.5501 42.9112 59.4484 42.7629 59.3782C42.6146 59.308 42.4528 59.2709 42.2887 59.2695C41.4753 59.2695 40.8087 60.2863 40.8087 61.5291C40.8011 62.0097 40.9055 62.4855 41.1137 62.9187L41.1928 63.0543L41.1024 63.1673C40.9397 63.3842 40.8418 63.6427 40.82 63.913V64.2067L40.6731 63.9582C40.4276 63.6161 40.1058 63.3359 39.7332 63.1398C39.3606 62.9437 38.9474 62.8371 38.5265 62.8284C37.9655 62.8512 37.424 63.0408 36.9712 63.3728C36.5184 63.7049 36.1749 64.1643 35.9844 64.6925L35.9279 64.8168L35.8489 64.749C35.5069 64.4307 35.0617 64.2462 34.5948 64.2293C34.2964 64.1484 33.9888 64.1067 33.6796 64.105C33.2129 64.106 32.751 64.1993 32.3205 64.3797C31.89 64.56 31.4995 64.8238 31.1715 65.1557L31.0585 65.2574V65.0654C30.8777 64.2406 30.4484 63.6983 29.9287 63.6983C29.8265 63.7048 29.7266 63.7317 29.6349 63.7774C29.4506 63.6108 29.25 63.4632 29.0362 63.3368V63.2803C28.9198 62.854 28.6753 62.4738 28.3359 62.1909C27.9964 61.908 27.5783 61.7362 27.1381 61.6986C26.1326 61.6986 25.24 62.6928 25.0367 64.0824L24.9011 64.2632V64.331C24.67 64.2092 24.4088 64.1562 24.1485 64.1782C23.8882 64.2003 23.6397 64.2964 23.4323 64.4553L23.2629 64.5683V64.2632C23.2629 64.1389 23.2629 64.0146 23.2629 63.8904C23.3285 62.9629 23.0262 62.0469 22.4215 61.3406C21.8167 60.6344 20.9582 60.1947 20.0316 60.1168C19.1051 60.1947 18.2465 60.6344 17.6418 61.3406C17.037 62.0469 16.7348 62.9629 16.8004 63.8904C16.7983 64.2139 16.8362 64.5365 16.9134 64.8507V65.1106H16.6422C15.0831 65.1106 13.8629 67.4944 13.8629 70.5336V81.3458H87.3L87.0741 72.5447ZM43.6671 62.1392L43.7349 61.8567L43.8366 62.0375L43.9721 62.1957L43.6332 62.4894L43.6671 62.1392Z" fill="url(#paint11_linear_1270_15108)"/>
<path d="M0 0V90H90V0H0ZM8.17976 45C8.17976 37.7176 10.3392 30.5988 14.3851 24.5438C18.431 18.4887 24.1815 13.7694 30.9095 10.9825C37.6375 8.1957 45.0408 7.46654 52.1833 8.88725C59.3257 10.308 65.8864 13.8148 71.0358 18.9642C76.1852 24.1136 79.692 30.6743 81.1127 37.8167C82.5335 44.9592 81.8043 52.3625 79.0175 59.0905C76.2306 65.8185 71.5113 71.569 65.4562 75.6149C59.4012 79.6608 52.2824 81.8202 45 81.8202C35.2347 81.8202 25.8693 77.941 18.9642 71.0358C12.059 64.1307 8.17976 54.7653 8.17976 45Z" fill="#E3E2E5"/>
</g>
<defs>
<linearGradient id="paint0_linear_1270_15108" x1="26.1462" y1="74.6345" x2="21.3724" y2="49.0642" gradientUnits="userSpaceOnUse">
<stop stop-color="#FE610F"/>
<stop offset="0.35" stop-color="#FE6310"/>
<stop offset="0.47" stop-color="#FE6A14"/>
<stop offset="0.56" stop-color="#FE751A"/>
<stop offset="0.63" stop-color="#FE8623"/>
<stop offset="0.69" stop-color="#FE9C2F"/>
<stop offset="0.75" stop-color="#FFB83D"/>
<stop offset="0.79" stop-color="#FFD74E"/>
<stop offset="0.8" stop-color="#FFDC51"/>
<stop offset="1" stop-color="#FCFCFC"/>
</linearGradient>
<linearGradient id="paint1_linear_1270_15108" x1="21.7072" y1="61.0933" x2="24.9991" y2="64.9381" gradientUnits="userSpaceOnUse">
<stop stop-color="#FCFCFC"/>
<stop offset="0.2" stop-color="#FFDC51"/>
<stop offset="0.21" stop-color="#FFD74E"/>
<stop offset="0.25" stop-color="#FFB83D"/>
<stop offset="0.31" stop-color="#FE9C2F"/>
<stop offset="0.37" stop-color="#FE8623"/>
<stop offset="0.44" stop-color="#FE751A"/>
<stop offset="0.53" stop-color="#FE6A14"/>
<stop offset="0.65" stop-color="#FE6310"/>
<stop offset="1" stop-color="#FE610F"/>
</linearGradient>
<linearGradient id="paint2_linear_1270_15108" x1="46.3326" y1="48.4052" x2="50.6191" y2="50.8324" gradientUnits="userSpaceOnUse">
<stop stop-color="#FF9300"/>
<stop offset="1" stop-color="#F9DE98"/>
</linearGradient>
<linearGradient id="paint3_linear_1270_15108" x1="44.4121" y1="49.7904" x2="52.9195" y2="49.7904" gradientUnits="userSpaceOnUse">
<stop stop-color="#FF9300"/>
<stop offset="1" stop-color="#F9DE98"/>
</linearGradient>
<linearGradient id="paint4_linear_1270_15108" x1="67.0028" y1="25.0364" x2="68.0046" y2="26.8364" gradientUnits="userSpaceOnUse">
<stop offset="0.01" stop-color="white"/>
<stop offset="0.5" stop-color="#233A49"/>
</linearGradient>
<linearGradient id="paint5_linear_1270_15108" x1="44.3098" y1="34.4478" x2="63.1436" y2="39.498" gradientUnits="userSpaceOnUse">
<stop offset="0.01" stop-color="white"/>
<stop offset="0.5" stop-color="#DB425F"/>
</linearGradient>
<linearGradient id="paint6_linear_1270_15108" x1="41.8687" y1="37.1027" x2="65.5381" y2="37.1027" gradientUnits="userSpaceOnUse">
<stop offset="0.01" stop-color="white"/>
<stop offset="0.81" stop-color="#DB425F"/>
</linearGradient>
<linearGradient id="paint7_linear_1270_15108" x1="51.892" y1="34.8954" x2="57.4958" y2="38.0685" gradientUnits="userSpaceOnUse">
<stop offset="0.01" stop-color="white"/>
<stop offset="1" stop-color="#3A9AE8"/>
</linearGradient>
<linearGradient id="paint8_linear_1270_15108" x1="41.3585" y1="43.9137" x2="44.2562" y2="48.8393" gradientUnits="userSpaceOnUse">
<stop offset="0.01" stop-color="white"/>
<stop offset="0.5" stop-color="#233A49"/>
</linearGradient>
<linearGradient id="paint9_linear_1270_15108" x1="43.1197" y1="43.5089" x2="44.8451" y2="46.4464" gradientUnits="userSpaceOnUse">
<stop offset="0.01" stop-color="white"/>
<stop offset="0.5" stop-color="#F8C351"/>
</linearGradient>
<linearGradient id="paint10_linear_1270_15108" x1="39.3466" y1="38.2951" x2="41.9791" y2="42.772" gradientUnits="userSpaceOnUse">
<stop offset="0.01" stop-color="white"/>
<stop offset="0.5" stop-color="#EDB951"/>
</linearGradient>
<linearGradient id="paint11_linear_1270_15108" x1="13.4449" y1="68.1384" x2="87.2774" y2="68.1384" gradientUnits="userSpaceOnUse">
<stop stop-color="white"/>
<stop offset="1" stop-color="#D3D3D3"/>
</linearGradient>
</defs>
</svg>
