<svg width="93" height="90" viewBox="0 0 93 90" fill="none" xmlns="http://www.w3.org/2000/svg">
<g clip-path="url(#clip0_1270_15060)">
<g opacity="0.9">
<path d="M82.4887 53.512C87.1893 33.3599 74.6635 13.2127 54.5113 8.51199C34.3592 3.81132 14.212 16.3372 9.51132 36.4893C4.81065 56.6415 17.3365 76.7887 37.4887 81.4894C57.6408 86.19 77.788 73.6641 82.4887 53.512Z" fill="#031555"/>
<path d="M69.4277 32.4757C66.6882 33.0965 63.877 33.3423 61.0713 33.2064C59.8546 33.1006 58.6618 32.8064 57.5355 32.3342L52.9271 30.2245L52.6796 30.1184C51.2063 29.5291 44.2525 26.783 40.7638 26.5826C37.0158 26.4176 33.5271 28.5391 32.1599 29.2463C32.0219 29.3124 31.9012 29.4096 31.8071 29.5303C31.713 29.6509 31.6482 29.7917 31.6177 29.9417C31.5891 30.1065 31.5959 30.2756 31.6377 30.4376C31.6795 30.5997 31.7553 30.751 31.8601 30.8814C31.965 31.0119 32.0963 31.1185 32.2456 31.1942C32.3948 31.27 32.5584 31.3131 32.7256 31.3206C32.8775 31.3412 33.0321 31.3209 33.1735 31.2617C34.3521 30.5663 37.5108 28.7277 40.6695 28.9045C42.9178 29.156 45.1107 29.7689 47.1637 30.7195C47.0927 30.8516 47.0336 30.9896 46.9869 31.1321L41.6831 47.338C41.6432 47.4446 41.6156 47.5553 41.6006 47.668L38.9133 53.7143C38.7929 53.9775 38.5849 54.1907 38.3248 54.3175C38.0647 54.4443 37.7687 54.4769 37.4872 54.4097L25.3946 50.8739C24.9496 50.7602 24.478 50.8184 24.0739 51.0368C23.6699 51.2553 23.3629 51.6179 23.2142 52.0525C23.1134 52.455 23.1545 52.88 23.3305 53.2557C23.5066 53.6314 23.8068 53.9349 24.1806 54.1151L38.7365 58.3817C38.9772 58.4469 39.2324 58.4341 39.4654 58.3452C39.6983 58.2562 39.8971 58.0957 40.033 57.8866L46.2208 51.6753H46.4211L46.539 51.7696L53.8818 56.6962C54.0967 56.8427 54.2725 57.0396 54.3938 57.2697C54.515 57.4998 54.578 57.7562 54.5771 58.0163V71.4054C54.586 71.8163 54.7524 72.2081 55.042 72.4998C55.3315 72.7916 55.7221 72.9609 56.1329 72.9729C56.6237 72.9729 57.0943 72.778 57.4414 72.431C57.7884 72.0839 57.9833 71.6133 57.9833 71.1225V56.2719C57.9757 56.0459 57.9203 55.8239 57.8208 55.6208C57.7212 55.4177 57.5798 55.2379 57.4058 55.0933L50.122 46.9491L49.957 46.8194L54.2 33.8547C56.8047 34.7858 60.152 35.7404 62.5328 35.5165C62.5328 35.5165 68.5909 35.2219 70.4531 34.5383C70.6601 34.4337 70.8382 34.2799 70.9717 34.0904C71.7024 32.4521 69.522 32.4521 69.4277 32.4757Z" fill="#FEB216"/>
<path d="M55.0376 28.3159C56.2032 28.3159 57.3425 27.9703 58.3116 27.3228C59.2807 26.6752 60.0361 25.7549 60.4821 24.6781C60.9281 23.6012 61.0448 22.4163 60.8175 21.2732C60.5901 20.13 60.0288 19.08 59.2046 18.2558C58.3805 17.4317 57.3304 16.8704 56.1873 16.643C55.0441 16.4156 53.8592 16.5323 52.7824 16.9784C51.7056 17.4244 50.7852 18.1797 50.1377 19.1488C49.4902 20.118 49.1445 21.2573 49.1445 22.4229C49.1445 23.9858 49.7654 25.4847 50.8706 26.5899C51.9757 27.6951 53.4747 28.3159 55.0376 28.3159Z" fill="#FEB216"/>
<path d="M38.5832 38.8749C38.5832 38.5623 38.459 38.2625 38.238 38.0415C38.0169 37.8205 37.7171 37.6963 37.4046 37.6963H15.3173C15.0047 37.6963 14.7049 37.8205 14.4839 38.0415C14.2628 38.2625 14.1387 38.5623 14.1387 38.8749C14.1387 39.1875 14.2628 39.4873 14.4839 39.7083C14.7049 39.9293 15.0047 40.0535 15.3173 40.0535H37.4281C37.7366 40.0474 38.0304 39.9205 38.2463 39.7001C38.4623 39.4797 38.5832 39.1835 38.5832 38.8749Z" fill="#FEB216"/>
<path d="M28.2821 22.6116H41.7773C42.0899 22.6116 42.3897 22.4875 42.6107 22.2664C42.8317 22.0454 42.9559 21.7456 42.9559 21.433C42.9559 21.1204 42.8317 20.8206 42.6107 20.5996C42.3897 20.3786 42.0899 20.2544 41.7773 20.2544H28.2821C27.9695 20.2544 27.6698 20.3786 27.4487 20.5996C27.2277 20.8206 27.1035 21.1204 27.1035 21.433C27.1035 21.7456 27.2277 22.0454 27.4487 22.2664C27.6698 22.4875 27.9695 22.6116 28.2821 22.6116Z" fill="#FEB216"/>
<path d="M19.3114 29.4693H29.919C30.2316 29.4693 30.5313 29.3451 30.7524 29.1241C30.9734 28.9031 31.0976 28.6033 31.0976 28.2907C31.0976 27.9781 30.9734 27.6783 30.7524 27.4573C30.5313 27.2362 30.2316 27.1121 29.919 27.1121H19.3114C18.9988 27.1121 18.6991 27.2362 18.478 27.4573C18.257 27.6783 18.1328 27.9781 18.1328 28.2907C18.1328 28.6033 18.257 28.9031 18.478 29.1241C18.6991 29.3451 18.9988 29.4693 19.3114 29.4693Z" fill="#FEB216"/>
<path d="M37.428 44.5085H26.6083C26.2957 44.5085 25.9959 44.6327 25.7749 44.8538C25.5539 45.0748 25.4297 45.3746 25.4297 45.6872C25.4297 45.9997 25.5539 46.2995 25.7749 46.5206C25.9959 46.7416 26.2957 46.8658 26.6083 46.8658H37.428C37.7406 46.8658 38.0404 46.7416 38.2614 46.5206C38.4824 46.2995 38.6066 45.9997 38.6066 45.6872C38.6066 45.3746 38.4824 45.0748 38.2614 44.8538C38.0404 44.6327 37.7406 44.5085 37.428 44.5085Z" fill="#FEB216"/>
</g>
</g>
<defs>
<clipPath id="clip0_1270_15060">
<rect width="92.913" height="90" fill="white"/>
</clipPath>
</defs>
</svg>
