<svg width="60" height="60" viewBox="0 0 60 60" fill="none" xmlns="http://www.w3.org/2000/svg">
<g clip-path="url(#clip0_172_962)">
<path opacity="0.931" fill-rule="evenodd" clip-rule="evenodd" d="M27.3632 0.87879C34.5336 0.351478 41.0375 2.14835 46.875 6.26941C46.8157 5.75784 46.6985 5.25004 46.5234 4.74598C46.2052 3.62087 46.6154 3.09353 47.7539 3.16395C48.097 3.31158 48.3118 3.56549 48.3984 3.92566C48.8957 5.66134 49.3841 7.39962 49.8632 9.14051C49.796 9.63729 49.5225 9.94978 49.0429 10.078C47.0903 10.1892 45.1373 10.2282 43.1836 10.1952C42.4794 9.64791 42.4403 9.06197 43.0664 8.43738C44.0731 8.29159 45.0888 8.21346 46.1132 8.20301C39.745 3.59359 32.6748 1.95297 24.9023 3.28113C17.1078 4.93806 11.0726 9.09822 6.79683 15.7616C2.39533 23.3445 1.65315 31.2742 4.57027 39.5507C5.24168 41.0686 5.92527 42.5726 6.62105 44.0624C6.43475 45.015 5.88788 45.2884 4.98043 44.8827C0.974737 38.0548 -0.138544 30.7696 1.64058 23.0272C3.87549 14.7008 8.73877 8.43135 16.2304 4.21863C19.7461 2.40174 23.457 1.28845 27.3632 0.87879Z" fill="#031555"/>
<path opacity="0.974" fill-rule="evenodd" clip-rule="evenodd" d="M27.0117 8.84762C28.9664 8.80862 30.9196 8.84768 32.8711 8.96481C33.3008 10.0586 33.7304 11.1523 34.1602 12.2461C36.0143 12.7631 37.7721 13.5052 39.4336 14.4726C40.5868 13.9005 41.7587 13.4123 42.9492 13.0078C44.2985 14.3375 45.6267 15.6852 46.9336 17.0507C46.4486 18.1933 45.9407 19.3262 45.4102 20.4492C46.3775 22.1107 47.1197 23.8685 47.6367 25.7226C48.7304 26.1523 49.8243 26.582 50.918 27.0117C51.0742 28.9648 51.0742 30.9179 50.918 32.8711C49.8243 33.3008 48.7304 33.7304 47.6367 34.1601C47.1197 36.0143 46.3775 37.7721 45.4102 39.4336C45.9823 40.5868 46.4705 41.7587 46.875 42.9492C45.5453 44.2985 44.1976 45.6267 42.832 46.9336C41.6895 46.4485 40.5566 45.9406 39.4336 45.4101C37.7721 46.3775 36.0143 47.1197 34.1602 47.6367C33.7304 48.7304 33.3008 49.8242 32.8711 50.9179C30.9179 51.0741 28.9649 51.0741 27.0117 50.9179C26.582 49.8242 26.1524 48.7304 25.7227 47.6367C23.8685 47.1197 22.1107 46.3775 20.4492 45.4101C19.296 45.9822 18.1241 46.4704 16.9336 46.875C15.5843 45.5452 14.2561 44.1976 12.9492 42.832C13.4343 41.6894 13.9421 40.5566 14.4727 39.4336C13.5053 37.7721 12.7631 36.0143 12.2461 34.1601C11.1523 33.7304 10.0586 33.3008 8.96484 32.8711C8.80859 30.9179 8.80859 28.9648 8.96484 27.0117C10.0586 26.582 11.1523 26.1523 12.2461 25.7226C12.7631 23.8685 13.5053 22.1107 14.4727 20.4492C13.9005 19.2959 13.4123 18.1241 13.0078 16.9336C14.3375 15.5843 15.6852 14.2561 17.0508 12.9492C18.1934 13.4342 19.3262 13.9421 20.4492 14.4726C22.1107 13.5052 23.8685 12.7631 25.7227 12.2461C26.1762 11.1196 26.6059 9.98679 27.0117 8.84762ZM28.418 16.6992C34.1072 16.3698 38.4627 18.5963 41.4844 23.3789C43.75 27.7538 43.75 32.1289 41.4844 36.5039C37.9513 41.9899 32.9708 44.0797 26.543 42.7734C20.9761 40.9958 17.7143 37.2262 16.7578 31.4648C16.4162 24.6256 19.4045 19.9186 25.7227 17.3437C26.6243 17.0742 27.5227 16.8593 28.418 16.6992Z" fill="#031555"/>
<path opacity="0.931" fill-rule="evenodd" clip-rule="evenodd" d="M53.8477 14.8242C54.2167 14.7904 54.5682 14.849 54.9023 15C58.718 21.4674 59.9093 28.401 58.4766 35.8008C55.7504 47.0817 48.8559 54.4841 37.793 58.0078C29.8552 60.0546 22.3161 59.078 15.1758 55.0782C14.443 54.6044 13.7203 54.116 13.0078 53.6133C13.0671 54.1248 13.1843 54.6327 13.3594 55.1367C13.633 56.4257 13.1447 56.914 11.8945 56.6016C11.7969 56.504 11.6992 56.4062 11.6016 56.3086C11.0505 54.46 10.5231 52.6046 10.0195 50.7422C10.0868 50.2455 10.3603 49.9329 10.8398 49.8047C12.7924 49.6935 14.7455 49.6545 16.6992 49.6875C17.4214 50.2316 17.4605 50.8176 16.8164 51.4453C15.8096 51.5911 14.794 51.6693 13.7695 51.6797C20.97 56.8149 28.8606 58.2603 37.4414 56.0157C47.0239 52.9566 53.2545 46.6089 56.1328 36.9727C57.9758 29.6399 57.0383 22.6868 53.3203 16.1133C53.1769 15.5421 53.3527 15.1124 53.8477 14.8242Z" fill="#031555"/>
<path opacity="0.973" fill-rule="evenodd" clip-rule="evenodd" d="M28.4177 18.457C28.6131 18.457 28.8083 18.457 29.0037 18.457C29.0037 26.1132 29.0037 33.7696 29.0037 41.4258C23.1298 40.6105 19.6337 37.2901 18.5154 31.4648C18.0871 26.5605 19.9035 22.752 23.9646 20.0391C25.3682 19.2395 26.8526 18.7121 28.4177 18.457ZM21.2693 26.8945C20.8096 27.1504 20.6338 27.5411 20.742 28.0664C21.2868 28.7089 21.8531 29.3339 22.4412 29.9414C21.9352 30.5061 21.4078 31.0529 20.8591 31.582C20.5222 32.5298 20.8542 32.979 21.8552 32.9297C22.4978 32.3849 23.1227 31.8185 23.7302 31.2305C24.295 31.7365 24.8418 32.2638 25.3709 32.8125C26.3203 33.1518 26.7695 32.8198 26.7185 31.8164C26.1737 31.1739 25.6074 30.5489 25.0193 29.9414C25.5253 29.3767 26.0527 28.8299 26.6013 28.3008C26.9406 27.3513 26.6086 26.9021 25.6052 26.9531C24.9627 27.4979 24.3377 28.0643 23.7302 28.6523C23.1655 28.1463 22.6187 27.619 22.0896 27.0703C21.8345 26.9295 21.561 26.8709 21.2693 26.8945Z" fill="#031555"/>
<path opacity="0.976" fill-rule="evenodd" clip-rule="evenodd" d="M30.8789 18.457C36.7528 19.2723 40.2489 22.5927 41.3672 28.418C41.7974 34.0249 39.5122 38.0679 34.5117 40.5469C33.3495 41.0411 32.1384 41.334 30.8789 41.4258C30.8789 33.7696 30.8789 26.1132 30.8789 18.457ZM39.082 27.0117C37.8002 28.2348 36.5306 29.4848 35.2734 30.7617C34.6253 30.0743 33.9416 29.4298 33.2227 28.8281C32.3828 28.7305 32.0118 29.1015 32.1094 29.9414C32.9455 30.8948 33.8244 31.8129 34.7461 32.6953C35.0033 32.8562 35.2768 32.8952 35.5664 32.8125C37.106 31.3902 38.6099 29.9254 40.0781 28.418C40.4132 27.4881 40.0812 27.0193 39.082 27.0117Z" fill="#031555"/>
</g>
<defs>
<clipPath id="clip0_172_962">
<rect width="60" height="60" fill="white"/>
</clipPath>
</defs>
</svg>
