<svg width="60" height="60" viewBox="0 0 60 60" fill="none" xmlns="http://www.w3.org/2000/svg">
<g clip-path="url(#clip0_172_1017)">
<path opacity="0.99" fill-rule="evenodd" clip-rule="evenodd" d="M15.293 -0.0585938C22.6368 -0.0585938 29.9805 -0.0585938 37.3242 -0.0585938C37.879 0.203829 38.2501 0.633517 38.4375 1.23047C38.5157 2.20703 38.5157 3.1836 38.4375 4.16016C38.0537 6.34084 36.7842 7.6885 34.6289 8.20312C29.0821 8.28125 23.5351 8.28125 17.9883 8.20312C15.9375 7.71484 14.668 6.44531 14.1797 4.39453C14.1016 3.30079 14.1016 2.20703 14.1797 1.11328C14.4197 0.580688 14.7908 0.190062 15.293 -0.0585938Z" fill="#031555"/>
<path opacity="0.984" fill-rule="evenodd" clip-rule="evenodd" d="M4.7461 3.45703C6.73828 3.45703 8.73047 3.45703 10.7227 3.45703C10.8493 6.62204 12.2556 9.02438 14.9414 10.6641C15.8314 11.117 16.7689 11.4295 17.7539 11.6016C23.4571 11.6797 29.1601 11.6797 34.8633 11.6016C39.2002 10.6047 41.5439 7.8899 41.8945 3.45703C43.8871 3.4375 45.8793 3.45704 47.8711 3.51562C48.4486 3.74142 48.8196 4.15157 48.9844 4.74609C49.082 14.7854 49.0625 24.8244 48.9258 34.8633C42.742 33.5065 37.6444 35.2643 33.6328 40.1367C31.6039 42.8839 30.6469 45.9698 30.7617 49.3945C21.6993 49.3945 12.6367 49.3945 3.57422 49.3945C3.55469 34.4726 3.57422 19.5507 3.63281 4.6289C3.87284 4.09631 4.24394 3.70569 4.7461 3.45703ZM11.8945 14.5898C14.5511 14.5703 17.2073 14.5898 19.8633 14.6484C20.516 14.8717 20.9262 15.321 21.0938 15.9961C21.1719 18.496 21.1719 20.9961 21.0938 23.4961C20.9309 24.245 20.4816 24.7334 19.7461 24.9609C17.207 25.0391 14.668 25.0391 12.1289 24.9609C11.4155 24.8332 10.9663 24.423 10.7813 23.7305C10.7031 21.0742 10.7031 18.418 10.7813 15.7617C11.0182 15.232 11.3893 14.8414 11.8945 14.5898ZM25.957 14.5898C27.52 14.5703 29.0825 14.5898 30.6445 14.6484C31.5895 15.0737 31.9607 15.7963 31.7578 16.8164C31.532 17.3939 31.1218 17.7649 30.5273 17.9297C29.0429 18.0078 27.5586 18.0078 26.0742 17.9297C24.8067 17.4062 24.4747 16.5273 25.0781 15.293C25.3259 14.9858 25.6188 14.7514 25.957 14.5898ZM36.0352 14.5898C37.1686 14.5704 38.3014 14.5898 39.4336 14.6484C40.6383 15.1368 40.9703 15.9766 40.4297 17.168C40.1554 17.5588 39.7843 17.8127 39.3164 17.9297C38.2617 18.0078 37.207 18.0078 36.1523 17.9297C34.7849 17.3602 34.4723 16.4422 35.2148 15.1758C35.463 14.9248 35.7366 14.7295 36.0352 14.5898ZM25.957 21.6211C30.4494 21.6015 34.9416 21.6211 39.4336 21.6797C40.7591 22.2776 41.0325 23.1955 40.2539 24.4336C39.9946 24.7001 39.6821 24.8759 39.3164 24.9609C34.9023 25.0391 30.4883 25.0391 26.0742 24.9609C24.8067 24.4375 24.4747 23.5585 25.0781 22.3242C25.3259 22.0171 25.6188 21.7827 25.957 21.6211ZM11.8945 28.6523C14.5511 28.6328 17.2073 28.6523 19.8633 28.7109C20.5262 28.9199 20.9364 29.3691 21.0938 30.0586C21.1719 32.5585 21.1719 35.0586 21.0938 37.5586C20.9309 38.3075 20.4816 38.7959 19.7461 39.0234C17.207 39.1016 14.668 39.1016 12.1289 39.0234C11.4155 38.8957 10.9663 38.4855 10.7813 37.793C10.7031 35.1367 10.7031 32.4805 10.7813 29.8242C11.0182 29.2945 11.3893 28.9039 11.8945 28.6523ZM26.3086 28.7695C30.6056 28.75 34.9025 28.7695 39.1992 28.8281C40.5751 29.2556 40.9853 30.1345 40.4297 31.4648C40.2026 31.7702 39.9096 31.985 39.5508 32.1094C35.0195 32.1875 30.4883 32.1875 25.957 32.1094C24.717 31.471 24.463 30.553 25.1953 29.3555C25.536 29.078 25.9071 28.8826 26.3086 28.7695Z" fill="#031555"/>
<path opacity="0.936" fill-rule="evenodd" clip-rule="evenodd" d="M14.1211 17.9883C15.332 17.9883 16.543 17.9883 17.7539 17.9883C17.7539 19.1992 17.7539 20.4102 17.7539 21.6211C16.543 21.6211 15.332 21.6211 14.1211 21.6211C14.1211 20.4102 14.1211 19.1992 14.1211 17.9883Z" fill="#031555"/>
<path opacity="0.936" fill-rule="evenodd" clip-rule="evenodd" d="M14.1211 32.0508C15.332 32.0508 16.543 32.0508 17.7539 32.0508C17.7539 33.2617 17.7539 34.4727 17.7539 35.6836C16.543 35.6836 15.332 35.6836 14.1211 35.6836C14.1211 34.4727 14.1211 33.2617 14.1211 32.0508Z" fill="#031555"/>
<path opacity="0.977" fill-rule="evenodd" clip-rule="evenodd" d="M46.6992 59.9413C45.7226 59.9413 44.746 59.9413 43.7695 59.9413C38.473 58.9221 35.2893 55.7581 34.2187 50.4491C33.7549 44.7481 36.1181 40.7441 41.3085 38.4374C46.3375 36.8985 50.5758 38.0899 54.0234 42.0116C56.6158 45.7277 57.0065 49.6731 55.1953 53.8476C53.3569 57.2684 50.5249 59.2997 46.6992 59.9413ZM49.1601 44.4726C51.0098 44.5437 51.6153 45.442 50.9765 47.1679C49.0005 49.183 46.9889 51.1556 44.9414 53.0858C44.2703 53.3583 43.6453 53.2801 43.0664 52.8515C41.7111 51.5746 40.4415 50.2269 39.2578 48.8085C38.9946 47.5399 39.5024 46.7586 40.7812 46.4647C41.1758 46.5389 41.5468 46.6757 41.8945 46.8749C42.6578 47.6578 43.4391 48.4195 44.2382 49.1601C45.8489 47.549 47.4895 45.9865 49.1601 44.4726Z" fill="#031555"/>
<path opacity="0.98" fill-rule="evenodd" clip-rule="evenodd" d="M35.8008 59.9414C25.4493 59.9414 15.0976 59.9414 4.74609 59.9414C4.24089 59.6898 3.8698 59.2992 3.63281 58.7695C3.57423 56.7777 3.55469 54.7855 3.57421 52.793C12.793 52.7734 22.0118 52.793 31.2305 52.8516C32.0938 55.6554 33.6172 58.0187 35.8008 59.9414Z" fill="#031555"/>
</g>
<defs>
<clipPath id="clip0_172_1017">
<rect width="60" height="60" fill="white"/>
</clipPath>
</defs>
</svg>
