<svg width="346" height="540" viewBox="0 0 346 540" fill="none" xmlns="http://www.w3.org/2000/svg">
<g opacity="0.6">
<path opacity="0.99" fill-rule="evenodd" clip-rule="evenodd" d="M-89.0586 26.8945C-16.9875 26.7187 55.0824 26.8945 127.152 27.4219C158.94 32.4906 177.397 50.9476 182.523 82.793C183.402 107.762 183.226 132.722 181.996 157.676C167.753 161.529 158.084 170.317 152.992 184.043C149.333 195.371 145.466 206.622 141.391 217.793C134.419 188.554 116.313 177.48 87.0742 184.57C83.0285 186.768 79.1609 189.229 75.4727 191.953C55.8966 210.825 37.0884 230.336 19.0469 250.488C11.392 266.753 13.1501 281.869 24.3203 295.84C41.3715 312.891 58.4216 329.941 75.4727 346.992C83.9682 354.104 93.8116 357.795 105.004 358.066C119.459 382.515 139.146 387.964 164.066 374.414C173.33 365.908 179.483 355.537 182.523 343.301C183.538 383.062 183.187 422.789 181.469 462.48C174.229 490.806 156.124 507.154 127.152 511.523C55.0824 512.227 -16.9886 512.227 -89.0586 511.523C-117.96 506.528 -136.065 489.83 -143.375 461.426C-144.078 333.457 -144.078 205.488 -143.375 77.5195C-135.881 49.1034 -117.776 32.2284 -89.0586 26.8945ZM-70.0742 62.7539C-10.8345 61.3497 48.5792 61.3497 108.168 62.7539C102.822 75.8046 97.3722 88.8124 91.8203 101.777C85.0587 111.401 75.7416 116.499 63.8711 117.07C33.9887 117.774 4.10515 117.774 -25.7773 117.07C-37.0329 116.628 -45.9978 111.882 -52.6719 102.832C-58.6003 89.4096 -64.401 76.0503 -70.0742 62.7539ZM-25.7773 421.348C4.45952 421.171 34.6932 421.348 64.9258 421.875C78.6579 425.259 83.0527 433.521 78.1094 446.66C74.7956 451.867 70.0495 454.504 63.8711 454.57C33.9887 455.274 4.10515 455.274 -25.7773 454.57C-40.3784 451.209 -44.7722 442.595 -38.9609 428.73C-35.3075 424.712 -30.9126 422.25 -25.7773 421.348Z" fill="#E3E6ED"/>
<path opacity="0.959" fill-rule="evenodd" clip-rule="evenodd" d="M184.106 178.77C200.267 177.529 207.824 184.912 206.781 200.918C189.972 252.051 172.744 303.028 155.102 353.848C147.179 361.162 138.565 362.04 129.262 356.484C124.362 350.883 122.78 344.38 124.516 336.973C141.039 287.402 157.562 237.832 174.086 188.262C176.624 184.14 179.963 180.976 184.106 178.77Z" fill="#E3E6ED"/>
<path opacity="0.958" fill-rule="evenodd" clip-rule="evenodd" d="M97.6213 203.027C110.63 201.786 118.013 207.587 119.77 220.43C119.386 224.968 117.804 229.012 115.024 232.559C102.704 244.702 90.575 257.007 78.6369 269.473C90.575 281.938 102.704 294.243 115.024 306.387C120.805 313.86 121.158 321.594 116.078 329.59C109.07 336.424 101.16 337.655 92.3479 333.281C74.2421 315.175 56.1373 297.071 38.0315 278.965C34.5162 272.637 34.5162 266.309 38.0315 259.98C56.1373 241.875 74.2421 223.77 92.3479 205.664C94.2621 204.866 96.0192 203.987 97.6213 203.027Z" fill="#E3E6ED"/>
<path opacity="0.956" fill-rule="evenodd" clip-rule="evenodd" d="M224.184 203.027C229.364 202.566 234.285 203.445 238.949 205.664C256.703 223.418 274.457 241.172 292.211 258.926C295.726 265.957 295.726 272.988 292.211 280.02C274.457 297.773 256.703 315.528 238.949 333.281C223.694 339.368 214.553 334.447 211.527 318.516C211.596 315.783 212.123 313.146 213.109 310.606C226.101 296.734 239.285 283.023 252.66 269.473C239.285 255.922 226.101 242.211 213.109 228.34C209.173 216.381 212.865 207.943 224.184 203.027Z" fill="#E3E6ED"/>
</g>
</svg>
