<svg width="60" height="60" viewBox="0 0 60 60" fill="none" xmlns="http://www.w3.org/2000/svg">
<g opacity="0.967">
<path fill-rule="evenodd" clip-rule="evenodd" d="M28.5726 0.0524554C31.5553 -0.290926 33.3838 1.05156 34.0581 4.07994C34.1616 6.67425 33.0365 8.39432 30.6824 9.24016C30.6423 11.6734 30.602 14.1067 30.5619 16.54C30.0031 16.1959 29.4204 15.9022 28.8137 15.659C28.7133 13.5206 28.653 11.381 28.6329 9.24016C26.0494 8.37938 24.9242 6.53346 25.2572 3.70236C25.688 1.80554 26.7932 0.588904 28.5726 0.0524554Z" fill="white"/>
<path fill-rule="evenodd" clip-rule="evenodd" d="M6.8719 11.6315C10.1315 11.3226 11.9801 12.8539 12.4176 16.2253C12.337 16.6657 12.3168 17.1062 12.3574 17.5468C13.3722 18.192 14.397 18.8213 15.4316 19.4347C15.0551 19.948 14.6934 20.4724 14.3466 21.008C13.2766 20.5644 12.2519 19.9981 11.2723 19.3089C9.82137 20.8435 8.11344 21.2421 6.14854 20.5045C3.90618 19.2826 3.08236 17.3738 3.67707 14.778C4.22126 13.1396 5.2862 12.0909 6.8719 11.6315Z" fill="white"/>
<path fill-rule="evenodd" clip-rule="evenodd" d="M49.6705 11.6315C53.464 11.4592 55.2522 13.3471 55.0354 17.2951C54.1352 20.0414 52.3067 21.1951 49.55 20.7562C48.7465 20.5364 48.0431 20.1378 47.4402 19.5606C46.4673 20.1421 45.4827 20.7084 44.4865 21.2597C44.3659 21.3436 44.2454 21.3436 44.1248 21.2597C43.7208 20.758 43.3391 20.2756 42.9795 19.8123C44.1248 19.1308 45.25 18.4175 46.3552 17.6727C45.858 14.691 46.963 12.6772 49.6705 11.6315Z" fill="white"/>
<path fill-rule="evenodd" clip-rule="evenodd" d="M23.268 16.7917C26.1109 16.4847 28.6829 17.1978 30.9838 18.9313C31.1069 18.9945 31.127 19.0783 31.0441 19.183C29.7601 20.0616 28.7756 21.2154 28.0904 22.6441C28.5997 22.8576 29.1021 23.0883 29.5974 23.3364C31.5367 20.3424 34.2493 19.0209 37.7351 19.3718C41.5365 20.131 43.787 22.5013 44.4865 26.4828C42.4634 26.5205 40.7755 27.2966 39.423 28.8112C39.8089 29.2563 40.2309 29.6549 40.6889 30.0069C41.767 28.7506 43.1133 28.2681 44.7276 28.5595C47.7737 29.5021 49.3811 31.6417 49.55 34.9783C49.2117 38.6879 47.2827 40.8694 43.7631 41.523C34.7613 41.6069 25.7596 41.6069 16.7578 41.523C13.1986 40.9121 10.9281 38.7935 9.94617 35.1671C9.34686 31.9178 10.2109 29.1908 12.5382 26.9863C12.5644 28.6964 12.906 30.3326 13.563 31.8948C13.6129 31.9523 13.6731 31.9943 13.7438 32.0206C14.2453 31.78 14.7276 31.5072 15.1905 31.2025C14.0914 28.6431 14.0712 26.063 15.1302 23.4622C16.6994 19.717 19.412 17.4936 23.268 16.7917Z" fill="white"/>
<path fill-rule="evenodd" clip-rule="evenodd" d="M10.0064 39.5722C10.539 40.0648 11.0614 40.5892 11.5737 41.1454C10.6392 41.7276 9.69479 42.294 8.74057 42.8445C9.4508 46.0397 8.30548 48.1163 5.30462 49.0745C2.18038 49.2901 0.412174 47.7798 0 44.5436C0.213075 41.6571 1.69997 40.0839 4.4607 39.8239C5.64846 39.8733 6.69331 40.2928 7.59525 41.0825C8.43535 40.6213 9.23908 40.1179 10.0064 39.5722Z" fill="white"/>
<path fill-rule="evenodd" clip-rule="evenodd" d="M49.55 39.9497C49.7155 39.93 49.8763 39.951 50.0322 40.0127C50.8162 40.5269 51.62 41.0093 52.4434 41.46C54.3131 39.9788 56.242 39.874 58.2303 41.1454C60.2352 43.0942 60.5366 45.2967 59.1345 47.753C57.9167 49.2677 56.3696 49.8341 54.4929 49.4521C51.6935 48.4114 50.6488 46.3767 51.3584 43.3479C50.3538 42.6976 49.349 42.0474 48.3444 41.3971C48.8165 40.9679 49.2183 40.4855 49.55 39.9497Z" fill="white"/>
<path fill-rule="evenodd" clip-rule="evenodd" d="M28.6932 43.3479C29.3361 43.3479 29.9792 43.3479 30.6221 43.3479C30.602 45.8234 30.6221 48.2987 30.6824 50.7736C33.6288 51.9749 34.6334 54.1566 33.6964 57.3183C32.371 59.7519 30.422 60.528 27.8493 59.6467C25.4646 58.3064 24.681 56.2716 25.4984 53.5425C26.1344 52.1192 27.1793 51.1961 28.6329 50.7736C28.6932 48.2987 28.7133 45.8234 28.6932 43.3479Z" fill="white"/>
</g>
</svg>
