<svg width="54" height="54" viewBox="0 0 54 54" fill="none" xmlns="http://www.w3.org/2000/svg">
<g clip-path="url(#clip0_28_787)">
<g opacity="0.985">
<path fill-rule="evenodd" clip-rule="evenodd" d="M38.2852 0C38.6719 0 39.0586 0 39.4453 0C39.9418 0.233629 40.2757 0.620348 40.4473 1.16016C40.5176 2.00391 40.5176 2.84766 40.4473 3.69141C40.2181 4.48292 39.6907 4.86964 38.8652 4.85156C38.0397 4.86964 37.5124 4.48292 37.2832 3.69141C37.2129 2.84766 37.2129 2.00391 37.2832 1.16016C37.4548 0.620348 37.7887 0.233629 38.2852 0Z" fill="#031555"/>
<path fill-rule="evenodd" clip-rule="evenodd" d="M48.0938 3.90234C49.4805 3.86516 50.1309 4.53312 50.0449 5.90625C49.5486 6.89508 48.8279 7.6861 47.8828 8.2793C46.248 8.47265 45.5274 7.75195 45.7207 6.11719C46.3335 5.16983 47.1245 4.43154 48.0938 3.90234Z" fill="#031555"/>
<path fill-rule="evenodd" clip-rule="evenodd" d="M14.5547 6.75C15.1112 6.69001 15.6386 6.7779 16.1367 7.01367C26.4199 17.2969 36.7031 27.5801 46.9863 37.8633C47.4455 38.8106 47.2873 39.6367 46.5117 40.3418C42.8747 43.6544 38.6209 45.7637 33.75 46.6699C24.388 47.5515 16.9172 44.2293 11.3379 36.7031C6.13357 28.8716 5.71169 20.7858 10.0723 12.4453C11.0773 10.7166 12.2374 9.09935 13.5527 7.59375C13.8451 7.24745 14.1791 6.9662 14.5547 6.75Z" fill="#031555"/>
<path fill-rule="evenodd" clip-rule="evenodd" d="M37.9688 10.125C40.7908 9.89144 42.7068 11.0868 43.7168 13.7109C44.2741 16.7989 43.0964 18.8906 40.1836 19.9863C39.0149 20.2462 37.8722 20.1582 36.7559 19.7227C36.1261 20.2643 35.5108 20.8268 34.9102 21.4102C34.1015 20.6719 33.3281 19.8985 32.5898 19.0898C33.1732 18.4892 33.7357 17.8739 34.2773 17.2441C33.3173 14.5778 33.9853 12.4333 36.2812 10.8105C36.8343 10.5274 37.3968 10.2989 37.9688 10.125Z" fill="#031555"/>
<path fill-rule="evenodd" clip-rule="evenodd" d="M54 14.4492C54 14.8711 54 15.293 54 15.7148C53.7664 16.2113 53.3796 16.5452 52.8398 16.7168C51.9961 16.7871 51.1523 16.7871 50.3086 16.7168C49.5171 16.4876 49.1304 15.9603 49.1484 15.1348C49.1304 14.3093 49.5171 13.7819 50.3086 13.5527C51.1523 13.4824 51.9961 13.4824 52.8398 13.5527C53.3368 13.7165 53.7236 14.0153 54 14.4492Z" fill="#031555"/>
<path fill-rule="evenodd" clip-rule="evenodd" d="M24.7852 54C16.8399 54 8.89453 54 0.949219 54C0.792394 53.8625 0.616613 53.7395 0.421875 53.6309C0.295673 53.4183 0.155048 53.2249 0 53.0508C0 52.6289 0 52.207 0 51.7852C3.47515 48.1166 7.04351 44.5307 10.7051 41.0273C14.0494 44.7136 18.1099 47.2976 22.8867 48.7793C23.931 49.7529 24.8977 50.79 25.7871 51.8906C25.988 52.8596 25.654 53.5627 24.7852 54Z" fill="#031555"/>
</g>
</g>
<defs>
<clipPath id="clip0_28_787">
<rect width="54" height="54" fill="white"/>
</clipPath>
</defs>
</svg>
