<svg width="120" height="121" viewBox="0 0 120 121" fill="none" xmlns="http://www.w3.org/2000/svg">
<path d="M120 60.3474C120.02 73.9137 115.423 87.083 106.964 97.6891C106.8 97.8926 106.633 98.1022 106.465 98.3068C104.961 100.147 103.348 101.896 101.635 103.545C101.278 103.891 100.914 104.233 100.548 104.568C100.291 104.802 100.033 105.035 99.7731 105.265C99.6581 105.367 99.5421 105.469 99.4261 105.571C99.362 105.627 99.2999 105.682 99.2368 105.735C98.9349 105.997 98.6296 106.256 98.3209 106.512L98.0512 106.736C97.8691 106.886 97.6879 107.033 97.5037 107.18C97.3725 107.281 97.2422 107.389 97.1099 107.492C96.9776 107.595 96.8463 107.696 96.7161 107.797C96.6408 107.856 96.5655 107.915 96.4881 107.972C96.4108 108.029 96.3375 108.089 96.2602 108.147C96.1502 108.23 96.0414 108.312 95.9294 108.395C95.5224 108.7 95.1123 108.999 94.6991 109.292C94.5627 109.394 94.4253 109.489 94.292 109.583C94.1587 109.678 94.0173 109.775 93.8789 109.868C93.7405 109.962 93.601 110.058 93.4616 110.152C93.3222 110.247 93.1726 110.346 93.0261 110.442C92.8795 110.539 92.734 110.635 92.5854 110.729C92.5213 110.772 92.4562 110.814 92.3921 110.854L92.1987 110.978C91.7123 111.289 91.2201 111.594 90.7221 111.893L90.315 112.132C90.1604 112.222 90.0047 112.315 89.8469 112.402C89.7675 112.45 89.6882 112.496 89.6088 112.54C89.1529 112.8 88.6933 113.054 88.2299 113.3C88.1159 113.362 87.9999 113.422 87.8839 113.484L87.833 113.51C87.6915 113.584 87.5511 113.657 87.4086 113.727C87.4016 113.735 87.3928 113.74 87.3832 113.743C87.2014 113.838 87.0175 113.931 86.8316 114.023C86.3757 114.251 85.9154 114.475 85.4507 114.693C85.0782 114.869 84.7027 115.039 84.3252 115.202L84.0931 115.304C82.8116 115.867 81.508 116.385 80.1823 116.858C76.9613 118.008 73.6466 118.878 70.2755 119.457C68.8555 119.704 67.4203 119.899 65.9698 120.042C64.0098 120.235 62.0244 120.333 60.0135 120.335C58.4138 120.335 56.8289 120.272 55.259 120.148C52.6046 119.939 49.9668 119.555 47.3631 118.999C45.5008 118.598 43.6714 118.113 41.8749 117.543C34.6095 115.237 27.8512 111.564 21.9625 106.724C15.7413 101.629 10.6088 95.3344 6.87065 88.215C3.13247 81.0955 0.865014 73.2967 0.203297 65.2828C-0.45842 57.2689 0.499138 49.2038 3.01893 41.5676C5.53872 33.9314 9.56924 26.8803 14.8705 20.8341C25.8622 8.28541 42.0102 0.35791 60.0104 0.35791C77.1232 0.35791 92.561 7.52319 103.489 19.0155C114.103 30.1565 120.017 44.9593 120 60.3474Z" fill="#031555"/>
<path d="M106.635 98.4452C105.125 100.292 103.506 102.048 101.787 103.702C101.429 104.05 101.063 104.392 100.695 104.729C100.438 104.965 100.179 105.199 99.9174 105.429C99.8024 105.531 99.6864 105.633 99.5704 105.735L99.3801 105.899C99.0761 106.163 98.7708 106.423 98.4642 106.679C98.3746 106.755 98.2841 106.83 98.1945 106.904C98.0113 107.054 97.8292 107.203 97.644 107.35C97.5127 107.451 97.3824 107.56 97.2491 107.663C97.1158 107.766 96.9845 107.867 96.8532 107.968C96.7789 108.027 96.7026 108.086 96.6243 108.143C96.5459 108.2 96.4737 108.261 96.3963 108.318L96.0646 108.568C95.6575 108.874 95.2457 109.175 94.8291 109.468C94.6927 109.57 94.5554 109.665 94.417 109.759C94.2786 109.854 94.1412 109.953 94.0028 110.046L93.5835 110.331C93.439 110.433 93.2935 110.525 93.146 110.622C92.9984 110.72 92.8529 110.816 92.7043 110.91L92.5109 111.037L92.3165 111.16C91.8281 111.472 91.3339 111.778 90.8338 112.076C90.6985 112.154 90.5642 112.236 90.4268 112.315C90.2711 112.406 90.1144 112.498 89.9566 112.586C89.8762 112.634 89.7979 112.68 89.7175 112.724C89.2595 112.985 88.8016 113.24 88.3335 113.487C88.2185 113.55 88.1025 113.61 87.9865 113.671C87.9702 113.681 87.9508 113.691 87.9356 113.699C87.7931 113.772 87.6527 113.845 87.5102 113.917C87.5028 113.923 87.4941 113.929 87.4847 113.933C87.3005 114.027 87.1164 114.121 86.9302 114.214C86.4736 114.443 86.0115 114.667 85.5441 114.885C85.1703 115.062 84.7937 115.234 84.4145 115.401C84.3372 115.437 84.2598 115.469 84.1825 115.503C83.8609 115.645 83.5373 115.783 83.2137 115.918C83.056 115.985 82.8962 116.051 82.7374 116.115L82.6876 116.135L82.2357 116.317C82.0719 116.382 81.9091 116.446 81.7442 116.509C81.5794 116.573 81.4155 116.637 81.2506 116.698C80.9202 116.823 80.5888 116.945 80.2564 117.063C77.0239 118.218 73.6973 119.091 70.3139 119.671C68.8892 119.92 67.4486 120.115 65.992 120.258C64.0245 120.453 62.032 120.551 60.0143 120.553C58.4084 120.553 56.8178 120.49 55.2425 120.365C52.5785 120.156 49.9313 119.771 47.3181 119.212C45.4483 118.809 43.6121 118.322 41.8095 117.751C39.2074 116.927 36.6651 115.924 34.2006 114.751C25.2427 110.491 17.471 104.092 11.5711 96.1188C14.1946 94.1944 19.0172 90.5136 22.2788 87.1635C22.349 87.0923 22.4193 87.017 22.4956 86.9406C27.2317 82.1434 42.8882 68.4123 48.2228 66.607C48.4656 66.5209 48.7166 66.4598 48.9718 66.4248C52.9773 65.9455 57.8935 65.1466 60.516 66.034C60.8083 66.1292 61.0876 66.2604 61.3474 66.4248C63.6229 67.8963 67.148 69.5022 68.9971 70.1708C70.8462 70.8394 74.9951 70.5717 76.7312 71.6423C78.4674 72.7129 83.288 78.7475 86.633 81.5501C89.978 84.3527 97.47 88.635 98.2729 90.1065C98.8702 91.1863 104.002 96.0089 106.635 98.4452Z" fill="white"/>
<path d="M84.1794 115.508C83.8578 115.651 83.5342 115.788 83.2106 115.923C83.0529 115.99 82.8931 116.056 82.7344 116.12L82.6845 116.14L82.2327 116.322C82.0688 116.387 81.906 116.451 81.7411 116.515C81.5763 116.578 81.4124 116.642 81.2476 116.703C80.9172 116.828 80.5857 116.95 80.2533 117.068C77.0208 118.223 73.6942 119.096 70.3109 119.676C68.8862 119.925 67.4455 120.12 65.9889 120.264C64.0215 120.458 62.0289 120.556 60.0113 120.558C58.4054 120.558 56.8148 120.495 55.2395 120.37C52.5755 120.161 49.9282 119.776 47.315 119.217C45.4453 118.814 43.6091 118.327 41.8065 117.756C39.2043 116.932 36.662 115.929 34.1975 114.756C25.2402 110.495 17.4695 104.094 11.5711 96.1188C14.1946 94.1944 19.0172 90.5136 22.2788 87.1635C22.349 87.0923 22.4193 87.017 22.4956 86.9406C27.2317 82.1434 42.8882 68.4123 48.2228 66.607C48.4656 66.5209 48.7166 66.4598 48.9718 66.4248C52.9773 65.9455 57.8935 65.1466 60.516 66.034C60.4285 68.9496 59.3966 75.5633 59.7517 76.4588C60.173 77.5294 61.7494 82.3459 61.7494 83.0156C61.7494 83.6852 60.6788 86.4939 61.0808 88.233C61.4828 89.9722 63.8905 88.3674 65.4953 89.9732C67.1002 91.5791 67.549 93.0506 68.9971 94.9231C70.4452 96.7956 69.6433 100.543 70.7139 102.416C71.7845 104.29 76.7343 105.493 78.3402 107.635C79.946 109.776 78.7411 112.451 79.8117 113.789C80.4904 114.627 82.6713 115.202 84.1794 115.508Z" fill="#D45147"/>
<path d="M67.5809 29.4886C66.7195 32.1788 65.2682 34.6428 63.3332 36.7007C61.3732 38.7665 59.3399 39.8808 58.1849 39.9063C55.6316 39.9622 52.7731 32.859 55.4281 25.5065C58.0832 18.154 67.2756 11.3103 67.2756 11.3103C67.2756 11.3103 67.4099 11.985 67.5809 13.1004C68.1467 16.654 69.1369 24.669 67.5809 29.4886Z" fill="white"/>
<path d="M85.9848 35.3577C85.9848 35.3577 85.0689 37.5263 83.5424 40.276C81.0848 44.7068 77.0518 50.6489 72.7451 51.4701C65.4527 52.8643 61.8349 48.6838 61.5581 46.4409C61.4472 45.5454 61.8553 43.5365 63.4123 41.9093C64.29 41.0065 65.3824 40.3412 66.5874 39.9758C70.7953 38.6416 75.0786 38.6976 78.0868 38.3333C81.4685 37.9242 85.9848 35.3577 85.9848 35.3577Z" fill="white"/>
<path d="M58.0678 68.5516C57.9514 68.5514 57.838 68.5146 57.7436 68.4465C57.6492 68.3784 57.5786 68.2824 57.5417 68.172C57.4155 67.7914 54.4358 58.7628 54.4348 51.165C54.4348 46.6171 56.5352 39.7673 56.6247 39.4773C56.6682 39.3369 56.7656 39.2196 56.8956 39.1511C57.0256 39.0826 57.1774 39.0685 57.3178 39.1119C57.4581 39.1554 57.5755 39.2528 57.644 39.3828C57.7125 39.5128 57.7266 39.6646 57.6831 39.805C57.6618 39.8742 55.5461 46.785 55.5461 51.164C55.5461 58.5796 58.5665 67.7303 58.599 67.8219C58.6221 67.8908 58.6314 67.9637 58.6263 68.0362C58.6212 68.1088 58.6018 68.1796 58.5693 68.2446C58.5368 68.3097 58.4918 68.3677 58.4368 68.4153C58.3818 68.4629 58.3179 68.4992 58.2489 68.522C58.1907 68.5424 58.1294 68.5524 58.0678 68.5516Z" fill="#D45147"/>
<path d="M55.3693 56.8378H55.3429C55.2702 56.8344 55.1988 56.8167 55.1329 56.7857C55.067 56.7547 55.0079 56.711 54.959 56.6571C54.91 56.6032 54.8722 56.5402 54.8476 56.4717C54.823 56.4032 54.8122 56.3305 54.8157 56.2578C55.0193 51.9908 56.7788 49.412 58.2177 48.0005C59.791 46.4568 61.3185 45.9378 61.3826 45.9154C61.5201 45.8756 61.6677 45.8906 61.7945 45.9571C61.9212 46.0237 62.0174 46.1367 62.0627 46.2725C62.1081 46.4083 62.0991 46.5563 62.0378 46.6857C61.9765 46.8151 61.8675 46.9157 61.7337 46.9666C61.7195 46.9666 60.3466 47.4469 58.9545 48.8299C57.0922 50.679 56.0725 53.1967 55.9219 56.3117C55.9149 56.4535 55.8536 56.5872 55.7507 56.6852C55.6479 56.7831 55.5113 56.8377 55.3693 56.8378Z" fill="#D45147"/>
<path d="M56.5282 62.9811C56.4204 62.9815 56.3148 62.9504 56.2244 62.8917C56.134 62.8329 56.0628 62.7491 56.0194 62.6504C53.0377 55.8647 49.3334 52.7517 49.2968 52.7212C49.1834 52.6278 49.1118 52.4932 49.0977 52.347C49.0835 52.2008 49.1281 52.055 49.2214 51.9417C49.3148 51.8283 49.4494 51.7567 49.5956 51.7426C49.7418 51.7284 49.8876 51.773 50.001 51.8663C50.1607 51.9976 53.9362 55.1574 57.0329 62.2047C57.0701 62.2891 57.0855 62.3814 57.0779 62.4734C57.0702 62.5653 57.0398 62.6538 56.9892 62.731C56.9387 62.8081 56.8696 62.8714 56.7884 62.9151C56.7072 62.9588 56.6164 62.9815 56.5241 62.9811H56.5282Z" fill="#D45147"/>
<path d="M59.8121 26.6348C59.9047 32.7102 61.1656 35.5657 63.3444 36.7553C61.3742 38.8313 59.3308 39.9518 58.1706 39.9772C55.6041 40.0332 52.7303 32.8954 55.3986 25.5052C58.0669 18.115 67.3051 11.2388 67.3051 11.2388C67.3051 11.2388 67.4394 11.9175 67.6165 13.038C65.4326 15.1374 59.7297 21.1548 59.8121 26.6348Z" fill="#D45147"/>
<path d="M83.5418 40.2761C81.0841 44.707 77.0512 50.649 72.7445 51.4703C65.452 52.8645 61.8343 48.6839 61.5575 46.441C61.4466 45.5455 61.8546 43.5367 63.4116 41.9095C63.9072 43.6965 65.453 46.1215 70.179 46.441C75.2235 46.784 80.5397 42.9149 83.5418 40.2761Z" fill="#D45147"/>
<path d="M49.652 52.2205L49.6317 52.2429C48.6812 53.2606 41.7581 51.4878 39.4063 46.4148C36.8327 40.8656 37.4931 32.3051 38.0986 27.7796C38.3469 25.9153 38.5881 24.7358 38.5881 24.7358C38.5881 24.7358 46.1269 34.6986 47.9953 37.4158C50.2402 40.6804 52.5859 49.0343 49.652 52.2205Z" fill="white"/>
<path d="M49.67 52.2715C49.6634 52.2794 49.6562 52.2869 49.6486 52.2939C48.6951 53.3115 41.7455 51.5357 39.3856 46.4434C36.8028 40.8748 37.4663 32.2818 38.0738 27.74C38.8554 31.8106 40.388 38.9036 42.1566 42.441C43.8917 45.9081 47.6408 50.1212 49.67 52.2715Z" fill="#D45147"/>
</svg>
