<svg width="120" height="122" viewBox="0 0 120 122" fill="none" xmlns="http://www.w3.org/2000/svg">
<path d="M120 60.8462C120.004 68.9118 118.379 76.8952 115.224 84.318C112.068 91.7408 107.447 98.4501 101.636 104.044C101.279 104.39 100.917 104.731 100.548 105.068C100.293 105.302 100.035 105.535 99.7739 105.765C99.6589 105.866 99.5429 105.968 99.4269 106.07C99.3627 106.127 99.3007 106.181 99.2376 106.235C98.9323 106.497 98.627 106.755 98.3217 107.011C98.2322 107.087 98.1416 107.161 98.051 107.235C97.8689 107.384 97.6878 107.532 97.5046 107.679C97.3733 107.781 97.2431 107.882 97.1108 107.991C96.9785 108.1 96.8472 108.195 96.716 108.297C96.6417 108.356 96.5653 108.414 96.489 108.472C96.4127 108.53 96.3374 108.59 96.2601 108.647C96.1512 108.73 96.0413 108.812 95.9304 108.895C95.5233 109.2 95.1132 109.499 94.7001 109.792C94.5627 109.894 94.4253 109.987 94.293 110.082C94.1607 110.178 94.0172 110.274 93.8798 110.367C93.7425 110.461 93.6021 110.557 93.4626 110.651C93.3232 110.746 93.1726 110.845 93.0261 110.942C92.8795 111.04 92.734 111.134 92.5865 111.229L92.3931 111.354L92.1998 111.477C91.7133 111.789 91.2198 112.093 90.7232 112.392C90.5879 112.472 90.4535 112.553 90.3162 112.632C90.1615 112.722 90.0048 112.815 89.8481 112.902C89.7677 112.95 89.6893 112.996 89.6089 113.04C89.1537 113.299 88.6944 113.553 88.2311 113.8C88.1161 113.863 88.0001 113.923 87.8841 113.983L87.8342 114.01C87.6928 114.085 87.5523 114.157 87.4099 114.228C87.4023 114.235 87.3937 114.24 87.3844 114.243C87.2013 114.338 87.0181 114.432 86.8319 114.523C86.376 114.753 85.916 114.976 85.452 115.193C85.0795 115.368 84.703 115.539 84.3255 115.702C82.9687 116.303 81.5878 116.855 80.1828 117.357C76.9622 118.508 73.648 119.378 70.2773 119.956C68.8581 120.203 67.4226 120.398 65.9708 120.541C64.0109 120.737 62.0252 120.835 60.0137 120.835C58.4133 120.835 56.8285 120.772 55.2594 120.647C52.6049 120.44 49.9672 120.056 47.3637 119.498C45.5002 119.097 43.6708 118.612 41.8758 118.043C39.2832 117.222 36.7502 116.223 34.2945 115.054C25.9111 111.084 18.5633 105.222 12.829 97.9306C7.09468 90.6391 3.13034 82.1165 1.24778 73.0333C-0.634784 63.9501 -0.384235 54.554 1.97974 45.5841C4.3437 36.6141 8.75661 28.315 14.8713 21.3394C25.8667 8.78512 42.0142 0.85791 60.0137 0.85791C77.1249 0.85791 92.5621 8.02292 103.49 19.5158C114.105 30.6559 120.018 45.4586 120 60.8462Z" fill="#031555"/>
<path d="M80.255 117.564C77.0227 118.718 73.6967 119.591 70.3139 120.173C68.8893 120.42 67.4483 120.616 65.9911 120.76C64.0237 120.953 62.0316 121.051 60.0147 121.053C58.4089 121.053 56.8183 120.991 55.2431 120.866L55.0599 120.851C52.4576 120.64 49.8718 120.259 47.3189 119.712C45.4486 119.31 43.6121 118.824 41.8096 118.253L43.8998 92.3921C43.9373 91.927 44.1486 91.4931 44.4916 91.1767C44.8346 90.8603 45.2841 90.6846 45.7508 90.6846H76.6262C77.0968 90.6845 77.5498 90.8631 77.8938 91.1842C78.2378 91.5053 78.447 91.945 78.4793 92.4145L80.255 117.564Z" fill="white"/>
<path d="M74.75 92.4321H47.3039L47.3965 91.617L51.5046 55.4133H70.7935L74.75 92.4321Z" fill="white"/>
<path d="M74.2244 43.6904V53.5877C74.2244 53.8274 74.1772 54.0648 74.0855 54.2863C73.9937 54.5078 73.8593 54.709 73.6897 54.8785C73.5202 55.0481 73.3189 55.1825 73.0975 55.2743C72.876 55.366 72.6386 55.4132 72.3988 55.4132H49.6542C49.1694 55.4133 48.7044 55.2211 48.3611 54.8789C48.0178 54.5367 47.8241 54.0724 47.8225 53.5877V43.6904C47.8241 43.2056 48.0178 42.7413 48.3611 42.3991C48.7044 42.0569 49.1694 41.8647 49.6542 41.8647H72.3999C72.8839 41.865 73.3479 42.0575 73.6901 42.3998C74.0322 42.7421 74.2244 43.2063 74.2244 43.6904Z" fill="white"/>
<path d="M69.7074 41.8676H52.3459L53.3991 32.3926C53.4299 32.1147 53.562 31.8579 53.7702 31.6713C53.9784 31.4847 54.2481 31.3814 54.5277 31.3811H67.5236C67.8034 31.3814 68.0733 31.4846 68.2819 31.6712C68.4904 31.8577 68.6229 32.1146 68.6542 32.3926L69.7074 41.8676Z" fill="white"/>
<path d="M67.7824 24.1549H54.2726C54.2095 24.155 54.1477 24.1374 54.0942 24.104C54.0407 24.0706 53.9976 24.0228 53.97 23.9661C53.9424 23.9094 53.9313 23.846 53.938 23.7833C53.9448 23.7206 53.969 23.6611 54.008 23.6115L60.6286 15.1653L60.7629 14.9943C60.7944 14.9543 60.8346 14.922 60.8804 14.8998C60.9263 14.8775 60.9766 14.866 61.0275 14.866C61.0784 14.866 61.1287 14.8775 61.1745 14.8998C61.2204 14.922 61.2605 14.9543 61.2921 14.9943L68.047 23.6105C68.0863 23.66 68.1108 23.7197 68.1176 23.7826C68.1245 23.8454 68.1135 23.909 68.0859 23.9659C68.0582 24.0228 68.0151 24.0707 67.9614 24.1041C67.9077 24.1376 67.8457 24.1552 67.7824 24.1549Z" fill="white"/>
<path d="M61.0272 60.8462C61.8449 60.8462 62.6292 61.171 63.2074 61.7493C63.7857 62.3275 64.1105 63.1118 64.1105 63.9296V69.7859C64.1105 69.9516 64.0447 70.1106 63.9275 70.2277C63.8103 70.3449 63.6514 70.4107 63.4857 70.4107H58.5676C58.4019 70.4107 58.2429 70.3449 58.1258 70.2277C58.0086 70.1106 57.9428 69.9516 57.9428 69.7859V63.9296C57.9428 63.1118 58.2676 62.3275 58.8459 61.7493C59.4241 61.171 60.2084 60.8462 61.0261 60.8462H61.0272Z" fill="#D45147"/>
<path d="M61.0272 75.2942C61.8449 75.2942 62.6292 75.619 63.2074 76.1973C63.7857 76.7755 64.1105 77.5598 64.1105 78.3776V84.2339C64.1105 84.316 64.0944 84.3972 64.063 84.473C64.0316 84.5488 63.9855 84.6177 63.9275 84.6757C63.8695 84.7338 63.8006 84.7798 63.7248 84.8112C63.649 84.8426 63.5678 84.8587 63.4857 84.8587H58.5676C58.4855 84.8587 58.4043 84.8426 58.3285 84.8112C58.2527 84.7798 58.1838 84.7338 58.1258 84.6757C58.0678 84.6177 58.0217 84.5488 57.9903 84.473C57.9589 84.3972 57.9428 84.316 57.9428 84.2339V78.3776C57.9428 77.5598 58.2676 76.7755 58.8459 76.1973C59.4241 75.619 60.2084 75.2942 61.0261 75.2942H61.0272Z" fill="#D45147"/>
<path d="M113.647 33.4641L61.0271 28.5796L103.649 19.363C107.641 23.5592 111.008 28.3083 113.647 33.4641Z" fill="#E3E6ED"/>
<path d="M61.0273 28.582L3.31641 40.5451C5.8652 33.4387 9.72924 26.8758 14.7066 21.1992L61.0273 28.582Z" fill="#E3E6ED"/>
<path d="M55.6084 24.1553V31.3803H66.445V24.1553H55.6084ZM57.9713 30.5337H56.1681V25.9005C56.1681 25.6614 56.2631 25.432 56.4322 25.2629C56.6012 25.0939 56.8306 24.9989 57.0697 24.9989C57.3088 24.9989 57.5381 25.0939 57.7072 25.2629C57.8763 25.432 57.9713 25.6614 57.9713 25.9005V30.5337ZM62.1618 30.5337H59.8915V26.1345C59.887 25.9826 59.913 25.8313 59.968 25.6896C60.023 25.5479 60.1058 25.4187 60.2117 25.3096C60.3176 25.2005 60.4443 25.1138 60.5842 25.0546C60.7242 24.9954 60.8747 24.9649 61.0267 24.9649C61.1787 24.9649 61.3291 24.9954 61.4691 25.0546C61.6091 25.1138 61.7358 25.2005 61.8416 25.3096C61.9475 25.4187 62.0304 25.5479 62.0854 25.6896C62.1404 25.8313 62.1664 25.9826 62.1618 26.1345V30.5337ZM65.8863 30.5337H64.0821V25.9005C64.0899 25.6665 64.1884 25.4447 64.3567 25.2819C64.525 25.1191 64.75 25.0282 64.9842 25.0282C65.2183 25.0282 65.4433 25.1191 65.6116 25.2819C65.7799 25.4447 65.8784 25.6665 65.8863 25.9005V30.5337Z" fill="#D45147"/>
<path d="M55.0587 90.6846V120.851C52.4564 120.64 49.8706 120.259 47.3178 119.712C45.4474 119.31 43.6109 118.824 41.8084 118.253L43.8996 92.3921C43.9372 91.927 44.1485 91.4931 44.4915 91.1767C44.8345 90.8603 45.284 90.6846 45.7506 90.6846H55.0587Z" fill="#D45147"/>
<path d="M58.7988 55.4133L54.6775 61.3226L52.3472 91.617H47.3965L51.5046 55.4133H58.7988Z" fill="#D45147"/>
<path d="M53.0784 41.8677V55.4162H49.6542C49.1694 55.4162 48.7044 55.224 48.3611 54.8818C48.0178 54.5397 47.8241 54.0753 47.8225 53.5906V43.6933C47.8241 43.2085 48.0178 42.7442 48.3611 42.402C48.7044 42.0598 49.1694 41.8677 49.6542 41.8677H53.0784Z" fill="#D45147"/>
<path d="M57.0066 31.3782L56.221 41.8677H52.3459L53.3991 32.3927C53.4299 32.1149 53.562 31.8581 53.7702 31.6715C53.9784 31.4849 54.2481 31.3815 54.5277 31.3812L57.0066 31.3782Z" fill="#D45147"/>
<path d="M60.6286 15.1665L58.9058 24.1551H54.2726C54.2095 24.1552 54.1477 24.1376 54.0942 24.1042C54.0407 24.0708 53.9976 24.023 53.97 23.9663C53.9424 23.9096 53.9313 23.8462 53.938 23.7835C53.9448 23.7208 53.969 23.6613 54.008 23.6117L60.6286 15.1665Z" fill="#D45147"/>
</svg>
