<svg width="21" height="20" viewBox="0 0 21 20" fill="none" xmlns="http://www.w3.org/2000/svg">
<path d="M15.5 1.34001C17.0083 2.21087 18.2629 3.46054 19.1398 4.96531C20.0167 6.47009 20.4854 8.17779 20.4994 9.91935C20.5135 11.6609 20.0725 13.376 19.22 14.8947C18.3676 16.4135 17.1332 17.6832 15.6392 18.5783C14.1452 19.4734 12.4434 19.9628 10.7021 19.9981C8.96083 20.0333 7.24055 19.6132 5.71155 18.7793C4.18256 17.9453 2.89787 16.7265 1.98467 15.2435C1.07146 13.7605 0.561409 12.0647 0.505 10.324L0.5 10L0.505 9.67601C0.561003 7.94901 1.06355 6.26598 1.96364 4.79101C2.86373 3.31604 4.13065 2.09947 5.64089 1.2599C7.15113 0.420327 8.85315 -0.0135887 10.581 0.000452316C12.3089 0.0144933 14.0036 0.476012 15.5 1.34001ZM10.5 4.00001C10.2551 4.00005 10.0187 4.08997 9.83563 4.25273C9.65259 4.41549 9.53566 4.63976 9.507 4.88301L9.5 5.00001V10L9.509 10.131C9.5318 10.3045 9.59973 10.469 9.706 10.608L9.793 10.708L12.793 13.708L12.887 13.79C13.0624 13.9261 13.278 13.9999 13.5 13.9999C13.722 13.9999 13.9376 13.9261 14.113 13.79L14.207 13.707L14.29 13.613C14.4261 13.4376 14.4999 13.222 14.4999 13C14.4999 12.778 14.4261 12.5624 14.29 12.387L14.207 12.293L11.5 9.58501V5.00001L11.493 4.88301C11.4643 4.63976 11.3474 4.41549 11.1644 4.25273C10.9813 4.08997 10.7449 4.00005 10.5 4.00001Z" fill="black"/>
</svg>
