<svg width="25" height="24" viewBox="0 0 25 24" fill="none" xmlns="http://www.w3.org/2000/svg">
<path opacity="0.994" fill-rule="evenodd" clip-rule="evenodd" d="M6.61719 0.726563C10.0235 0.718749 13.4297 0.726563 16.8359 0.750001C18.5625 1.10156 19.6016 2.14063 19.9531 3.86719C19.9766 5.8515 19.9844 7.83586 19.9766 9.82031C17.7701 9.58378 16.0436 10.3807 14.7969 12.2109C13.9874 13.5645 13.7999 15.0021 14.2344 16.5234C14.497 17.2991 14.9032 17.9866 15.4531 18.5859C15.4766 19.3827 15.4844 20.1795 15.4766 20.9766C12.5234 20.9844 9.57027 20.9766 6.61719 20.9531C4.89063 20.6016 3.85156 19.5625 3.5 17.8359C3.46875 13.1797 3.46875 8.52342 3.5 3.86719C3.86001 2.14001 4.89907 1.09314 6.61719 0.726563ZM7.22656 4.47656C10.2266 4.46875 13.2266 4.47656 16.2266 4.5C16.8755 4.64939 17.0708 5.03222 16.8125 5.64844C16.6595 5.83041 16.4642 5.93198 16.2266 5.95313C13.2266 5.98439 10.2266 5.98439 7.22656 5.95313C6.57763 5.80374 6.38234 5.42091 6.64063 4.80469C6.803 4.62609 6.99833 4.51671 7.22656 4.47656ZM7.22656 8.22656C9.33599 8.21874 11.4454 8.22656 13.5547 8.25C14.1978 8.37244 14.4088 8.73961 14.1875 9.35156C14.0402 9.58298 13.8293 9.70017 13.5547 9.70313C11.4453 9.73439 9.33594 9.73439 7.22656 9.70313C6.57763 9.55373 6.38234 9.17091 6.64063 8.55469C6.803 8.37609 6.99833 8.26669 7.22656 8.22656ZM7.22656 11.9766C8.58603 11.9687 9.94541 11.9766 11.3047 12C11.8216 12.0885 12.0482 12.3932 11.9844 12.9141C11.8833 13.2493 11.6567 13.429 11.3047 13.4531C9.94531 13.4844 8.58594 13.4844 7.22656 13.4531C6.57763 13.3037 6.38234 12.9209 6.64063 12.3047C6.803 12.1261 6.99833 12.0167 7.22656 11.9766ZM7.22656 15.7266C8.60352 15.705 9.97855 15.7285 11.3516 15.7969C11.744 15.9801 11.8924 16.2848 11.7969 16.7109C11.675 17.0181 11.4484 17.1822 11.1172 17.2031C9.74028 17.2481 8.3653 17.2325 6.99219 17.1562C6.5998 16.973 6.45139 16.6683 6.54688 16.2422C6.67911 15.9386 6.9057 15.7667 7.22656 15.7266Z" fill="black"/>
<path opacity="0.987" fill-rule="evenodd" clip-rule="evenodd" d="M18.6169 11.2266C20.5183 11.0634 21.8855 11.8291 22.7185 13.5234C23.3442 15.4427 22.8521 16.9974 21.2419 18.1875C20.1286 18.7965 18.9723 18.8902 17.7732 18.4688C15.9851 17.5724 15.2429 16.1271 15.5466 14.1328C15.9856 12.543 17.009 11.5742 18.6169 11.2266Z" fill="black"/>
<path opacity="0.977" fill-rule="evenodd" clip-rule="evenodd" d="M16.9756 19.7109C18.0819 20.1968 19.2226 20.314 20.3975 20.0625C20.7495 19.9686 21.0932 19.8514 21.4287 19.7109C21.4834 20.7262 21.4912 21.7418 21.4522 22.7578C21.2425 23.1788 20.9065 23.3273 20.4443 23.2031C20.0318 22.9545 19.6256 22.6967 19.2256 22.4297C18.8256 22.6967 18.4193 22.9545 18.0068 23.2031C17.5447 23.3273 17.2087 23.1788 16.999 22.7578C16.9756 21.7423 16.9678 20.7267 16.9756 19.7109Z" fill="black"/>
</svg>
