<svg width="25" height="24" viewBox="0 0 25 24" fill="none" xmlns="http://www.w3.org/2000/svg">
<g clip-path="url(#clip0_3399_2228)">
<path opacity="0.988" fill-rule="evenodd" clip-rule="evenodd" d="M11.6336 -0.0234375C12.1961 -0.0234375 12.7586 -0.0234375 13.3211 -0.0234375C16.613 0.486028 18.8083 2.31415 19.9071 5.46094C20.5023 7.60434 20.2679 9.65119 19.204 11.6016C17.1571 14.7891 15.1102 17.9766 13.0633 21.1641C12.6727 21.5391 12.2821 21.5391 11.8915 21.1641C9.87584 18.0234 7.86021 14.8828 5.84459 11.7422C4.56813 9.46678 4.39626 7.10742 5.32896 4.66406C6.59665 1.98259 8.6982 0.420089 11.6336 -0.0234375ZM11.9618 4.24219C13.9606 4.12756 15.2653 5.0182 15.8758 6.91406C16.1603 9.03431 15.2931 10.4328 13.2743 11.1094C11.154 11.3938 9.75556 10.5266 9.07896 8.50781C8.79368 6.55444 9.55146 5.18728 11.3524 4.40625C11.56 4.34448 11.7631 4.28979 11.9618 4.24219Z" fill="black"/>
<path opacity="0.984" fill-rule="evenodd" clip-rule="evenodd" d="M13.976 23.9766C12.976 23.9766 11.976 23.9766 10.976 23.9766C9.03211 23.8634 7.12589 23.5118 5.25726 22.9219C4.15536 22.5785 3.21005 21.9925 2.42132 21.1641C1.62723 19.9261 1.7913 18.8245 2.91351 17.8594C3.80117 17.189 4.78554 16.7047 5.86664 16.4062C6.22837 16.3119 6.58776 16.2104 6.94476 16.1016C8.21362 18.0293 9.47142 19.9669 10.7182 21.9141C11.6398 22.8154 12.6632 22.9482 13.7885 22.3125C13.9257 22.2008 14.0586 22.0837 14.187 21.9609C15.4086 20.0985 16.6117 18.2235 17.7963 16.3359C17.8451 16.2382 17.9154 16.1601 18.0073 16.1016C18.8557 16.3141 19.6838 16.5875 20.4916 16.9219C21.2462 17.2549 21.9103 17.7158 22.4838 18.3047C23.1847 19.2475 23.2003 20.2006 22.5307 21.1641C21.93 21.8123 21.2191 22.3045 20.3979 22.6406C19.0844 23.1683 17.725 23.5276 16.3198 23.7188C15.5337 23.8263 14.7524 23.9123 13.976 23.9766Z" fill="black"/>
</g>
<defs>
<clipPath id="clip0_3399_2228">
<rect width="24" height="24" fill="white" transform="translate(0.5)"/>
</clipPath>
</defs>
</svg>
