<svg width="45" height="44" viewBox="0 0 45 44" fill="none" xmlns="http://www.w3.org/2000/svg">
<path d="M43.1568 20.031C42.8903 19.8469 42.5843 19.7281 42.2634 19.6844C41.9425 19.6406 41.6158 19.673 41.3098 19.779C40.4822 20.0547 39.5877 20.0563 38.7591 19.7836C37.9305 19.5109 37.2119 18.9784 36.7098 18.265C36.4546 17.8847 36.0751 17.605 35.6363 17.474C35.1974 17.343 34.7267 17.3688 34.3048 17.547C33.2448 17.9791 32.0851 18.1059 30.9568 17.913C29.744 17.7007 28.6261 17.1196 27.7557 16.2488C26.8852 15.378 26.3045 14.2599 26.0928 13.047C25.8995 11.9194 26.0263 10.7602 26.4588 9.701C26.6349 9.2798 26.6598 8.81064 26.5293 8.37316C26.3988 7.93568 26.1209 7.55686 25.7428 7.301C25.0206 6.80519 24.4811 6.086 24.2073 5.25391C23.9334 4.42181 23.9402 3.52282 24.2268 2.695C24.3328 2.38914 24.3652 2.06261 24.3214 1.74188C24.2776 1.42116 24.1589 1.11526 23.9748 0.849C23.7975 0.590568 23.5607 0.378539 23.2843 0.230784C23.008 0.0830278 22.7001 0.00387589 22.3868 7.16748e-08H22.0018C19.013 -0.000241172 16.0555 0.608505 13.3098 1.78909C10.5641 2.96968 8.08774 4.69735 6.03183 6.86668C3.97592 9.036 2.38359 11.6015 1.352 14.4066C0.320411 17.2117 -0.128801 20.1975 0.0317771 23.182C0.364113 28.5864 2.66083 33.6828 6.48945 37.5116C10.3181 41.3404 15.4144 43.6374 20.8188 43.97C21.2188 43.99 21.6188 44.001 22.0188 44.001C27.8508 43.9965 33.4423 41.6765 37.5645 37.551C41.6866 33.4255 44.002 27.832 44.0018 22V21.612C43.9974 21.3001 43.9184 20.9939 43.7714 20.7188C43.6244 20.4438 43.4136 20.2079 43.1568 20.031ZM35.7678 36.51C33.7991 38.3877 31.466 39.8413 28.9129 40.7808C26.3598 41.7203 23.6409 42.1257 20.9248 41.972C16.0115 41.67 11.3782 39.5817 7.89788 36.1004C4.41756 32.6192 2.33045 27.9854 2.02978 23.072C1.88416 20.3591 2.29278 17.645 3.2307 15.0953C4.16863 12.5456 5.61619 10.2136 7.48509 8.24182C9.35398 6.26999 11.605 4.6996 14.1009 3.62645C16.5967 2.5533 19.285 1.9999 22.0018 2L22.3318 2.038C21.9017 3.27842 21.8914 4.62585 22.3025 5.87269C22.7136 7.11954 23.5233 8.19662 24.6068 8.938C24.0315 10.3416 23.8613 11.8785 24.1158 13.374C24.3206 14.5557 24.7885 15.6763 25.4849 16.6527C26.1812 17.6292 27.0882 18.4366 28.1387 19.0152C29.1893 19.5938 30.3565 19.9288 31.5539 19.9954C32.7514 20.062 33.9486 19.8585 35.0568 19.4C35.7993 20.4939 36.8856 21.3088 38.1436 21.7156C39.4016 22.1224 40.7593 22.0979 42.0018 21.646V22C42.0125 24.7167 41.4647 27.4066 40.3923 29.9027C39.3199 32.3988 37.7458 34.6478 35.7678 36.51Z" fill="white"/>
<path d="M25 23C25 22.4067 24.8241 21.8266 24.4944 21.3333C24.1648 20.8399 23.6962 20.4554 23.1481 20.2284C22.5999 20.0013 21.9967 19.9419 21.4147 20.0576C20.8328 20.1734 20.2982 20.4591 19.8787 20.8787C19.4591 21.2982 19.1734 21.8328 19.0576 22.4147C18.9419 22.9967 19.0013 23.5999 19.2284 24.148C19.4554 24.6962 19.8399 25.1648 20.3333 25.4944C20.8266 25.8241 21.4067 26 22 26C22.7957 26 23.5587 25.6839 24.1213 25.1213C24.6839 24.5587 25 23.7957 25 23ZM21 23C21 22.8022 21.0586 22.6089 21.1685 22.4444C21.2784 22.28 21.4346 22.1518 21.6173 22.0761C21.8 22.0004 22.0011 21.9806 22.1951 22.0192C22.3891 22.0578 22.5673 22.153 22.7071 22.2929C22.847 22.4327 22.9422 22.6109 22.9808 22.8049C23.0194 22.9989 22.9996 23.2 22.9239 23.3827C22.8482 23.5654 22.72 23.7216 22.5556 23.8315C22.3911 23.9414 22.1978 24 22 24C21.7348 24 21.4804 23.8946 21.2929 23.7071C21.1054 23.5196 21 23.2652 21 23Z" fill="white"/>
<path d="M34 24C33.4067 24 32.8266 24.1759 32.3333 24.5056C31.8399 24.8352 31.4554 25.3038 31.2284 25.852C31.0013 26.4001 30.9419 27.0033 31.0576 27.5853C31.1734 28.1672 31.4591 28.7018 31.8787 29.1213C32.2982 29.5409 32.8328 29.8266 33.4147 29.9424C33.9967 30.0581 34.5999 29.9987 35.148 29.7716C35.6962 29.5446 36.1648 29.1601 36.4944 28.6667C36.8241 28.1734 37 27.5933 37 27C37 26.2044 36.6839 25.4413 36.1213 24.8787C35.5587 24.3161 34.7957 24 34 24ZM34 28C33.8022 28 33.6089 27.9414 33.4444 27.8315C33.28 27.7216 33.1518 27.5654 33.0761 27.3827C33.0004 27.2 32.9806 26.9989 33.0192 26.8049C33.0578 26.6109 33.153 26.4327 33.2929 26.2929C33.4327 26.153 33.6109 26.0578 33.8049 26.0192C33.9989 25.9806 34.2 26.0004 34.3827 26.0761C34.5654 26.1518 34.7216 26.28 34.8315 26.4444C34.9414 26.6089 35 26.8022 35 27C35 27.2652 34.8946 27.5196 34.7071 27.7071C34.5196 27.8946 34.2652 28 34 28Z" fill="white"/>
<path d="M17 14C17.5933 14 18.1734 13.8241 18.6667 13.4944C19.1601 13.1648 19.5446 12.6962 19.7716 12.1481C19.9987 11.5999 20.0581 10.9967 19.9424 10.4147C19.8266 9.83279 19.5409 9.29824 19.1213 8.87868C18.7018 8.45912 18.1672 8.1734 17.5853 8.05765C17.0033 7.94189 16.4001 8.0013 15.8519 8.22836C15.3038 8.45543 14.8352 8.83994 14.5056 9.33329C14.1759 9.82664 14 10.4067 14 11C14 11.7957 14.3161 12.5587 14.8787 13.1213C15.4413 13.6839 16.2044 14 17 14ZM17 10C17.1978 10 17.3911 10.0586 17.5556 10.1685C17.72 10.2784 17.8482 10.4346 17.9239 10.6173C17.9996 10.8 18.0194 11.0011 17.9808 11.1951C17.9422 11.3891 17.847 11.5673 17.7071 11.7071C17.5673 11.847 17.3891 11.9422 17.1951 11.9808C17.0011 12.0194 16.8 11.9996 16.6173 11.9239C16.4346 11.8482 16.2784 11.72 16.1685 11.5556C16.0586 11.3911 16 11.1978 16 11C16 10.7348 16.1054 10.4804 16.2929 10.2929C16.4804 10.1054 16.7348 10 17 10Z" fill="white"/>
<path d="M15 20C15 19.2089 14.7654 18.4355 14.3259 17.7777C13.8864 17.1199 13.2616 16.6072 12.5307 16.3045C11.7998 16.0017 10.9956 15.9225 10.2196 16.0769C9.44372 16.2312 8.73099 16.6122 8.17158 17.1716C7.61217 17.731 7.2312 18.4437 7.07686 19.2196C6.92252 19.9956 7.00173 20.7998 7.30448 21.5307C7.60723 22.2616 8.11993 22.8864 8.77772 23.3259C9.43552 23.7654 10.2089 24 11 24C12.0609 24 13.0783 23.5786 13.8284 22.8284C14.5786 22.0783 15 21.0609 15 20ZM9 20C9 19.6044 9.1173 19.2178 9.33706 18.8889C9.55683 18.56 9.86918 18.3036 10.2346 18.1522C10.6001 18.0009 11.0022 17.9613 11.3902 18.0384C11.7781 18.1156 12.1345 18.3061 12.4142 18.5858C12.6939 18.8655 12.8844 19.2219 12.9616 19.6098C13.0387 19.9978 12.9991 20.3999 12.8478 20.7654C12.6964 21.1308 12.44 21.4432 12.1111 21.6629C11.7822 21.8827 11.3956 22 11 22C10.4696 22 9.96086 21.7893 9.58579 21.4142C9.21072 21.0391 9 20.5304 9 20Z" fill="white"/>
<path d="M15 27C14.2089 27 13.4355 27.2346 12.7777 27.6741C12.1199 28.1136 11.6072 28.7384 11.3045 29.4693C11.0017 30.2002 10.9225 31.0044 11.0769 31.7804C11.2312 32.5563 11.6122 33.269 12.1716 33.8284C12.731 34.3878 13.4437 34.7688 14.2196 34.9231C14.9956 35.0775 15.7998 34.9983 16.5307 34.6955C17.2616 34.3928 17.8864 33.8801 18.3259 33.2223C18.7654 32.5645 19 31.7911 19 31C19 29.9391 18.5786 28.9217 17.8284 28.1716C17.0783 27.4214 16.0609 27 15 27ZM15 33C14.6044 33 14.2178 32.8827 13.8889 32.6629C13.56 32.4432 13.3036 32.1308 13.1522 31.7654C13.0009 31.3999 12.9613 30.9978 13.0384 30.6098C13.1156 30.2219 13.3061 29.8655 13.5858 29.5858C13.8655 29.3061 14.2219 29.1156 14.6098 29.0384C14.9978 28.9613 15.3999 29.0009 15.7654 29.1522C16.1308 29.3036 16.4432 29.56 16.6629 29.8889C16.8827 30.2178 17 30.6044 17 31C17 31.5304 16.7893 32.0391 16.4142 32.4142C16.0391 32.7893 15.5304 33 15 33Z" fill="white"/>
<path d="M26 31C25.2089 31 24.4355 31.2346 23.7777 31.6741C23.1199 32.1136 22.6072 32.7384 22.3045 33.4693C22.0017 34.2002 21.9225 35.0044 22.0769 35.7804C22.2312 36.5563 22.6122 37.269 23.1716 37.8284C23.731 38.3878 24.4437 38.7688 25.2196 38.9231C25.9956 39.0775 26.7998 38.9983 27.5307 38.6955C28.2616 38.3928 28.8864 37.8801 29.3259 37.2223C29.7654 36.5645 30 35.7911 30 35C30 33.9391 29.5786 32.9217 28.8284 32.1716C28.0783 31.4214 27.0609 31 26 31ZM26 37C25.6044 37 25.2178 36.8827 24.8889 36.6629C24.56 36.4432 24.3036 36.1308 24.1522 35.7654C24.0009 35.3999 23.9613 34.9978 24.0384 34.6098C24.1156 34.2219 24.3061 33.8655 24.5858 33.5858C24.8655 33.3061 25.2219 33.1156 25.6098 33.0384C25.9978 32.9613 26.3999 33.0009 26.7654 33.1522C27.1308 33.3036 27.4432 33.56 27.6629 33.8889C27.8827 34.2178 28 34.6044 28 35C28 35.5304 27.7893 36.0391 27.4142 36.4142C27.0391 36.7893 26.5304 37 26 37Z" fill="white"/>
<path d="M33 15C33.5933 15 34.1734 14.8241 34.6667 14.4944C35.1601 14.1648 35.5446 13.6962 35.7716 13.1481C35.9987 12.5999 36.0581 11.9967 35.9424 11.4147C35.8266 10.8328 35.5409 10.2982 35.1213 9.87868C34.7018 9.45912 34.1672 9.1734 33.5853 9.05765C33.0033 8.94189 32.4001 9.0013 31.852 9.22836C31.3038 9.45543 30.8352 9.83994 30.5056 10.3333C30.1759 10.8266 30 11.4067 30 12C30 12.7957 30.3161 13.5587 30.8787 14.1213C31.4413 14.6839 32.2044 15 33 15ZM33 11C33.1978 11 33.3911 11.0586 33.5556 11.1685C33.72 11.2784 33.8482 11.4346 33.9239 11.6173C33.9996 11.8 34.0194 12.0011 33.9808 12.1951C33.9422 12.3891 33.847 12.5673 33.7071 12.7071C33.5673 12.847 33.3891 12.9422 33.1951 12.9808C33.0011 13.0194 32.8 12.9996 32.6173 12.9239C32.4346 12.8482 32.2784 12.72 32.1685 12.5556C32.0586 12.3911 32 12.1978 32 12C32 11.7348 32.1054 11.4804 32.2929 11.2929C32.4804 11.1054 32.7348 11 33 11Z" fill="white"/>
<path d="M42 6C41.4067 6 40.8266 6.17595 40.3333 6.50559C39.8399 6.83523 39.4554 7.30377 39.2284 7.85195C39.0013 8.40013 38.9419 9.00333 39.0576 9.58527C39.1734 10.1672 39.4591 10.7018 39.8787 11.1213C40.2982 11.5409 40.8328 11.8266 41.4147 11.9424C41.9967 12.0581 42.5999 11.9987 43.148 11.7716C43.6962 11.5446 44.1648 11.1601 44.4944 10.6667C44.8241 10.1734 45 9.59334 45 9C45 8.20435 44.6839 7.44129 44.1213 6.87868C43.5587 6.31607 42.7957 6 42 6ZM42 10C41.8022 10 41.6089 9.94135 41.4444 9.83147C41.28 9.72159 41.1518 9.56541 41.0761 9.38268C41.0004 9.19996 40.9806 8.99889 41.0192 8.80491C41.0578 8.61093 41.153 8.43274 41.2929 8.29289C41.4327 8.15304 41.6109 8.0578 41.8049 8.01921C41.9989 7.98063 42.2 8.00043 42.3827 8.07612C42.5654 8.15181 42.7216 8.27998 42.8315 8.44443C42.9414 8.60888 43 8.80222 43 9C43 9.26522 42.8946 9.51957 42.7071 9.70711C42.5196 9.89464 42.2652 10 42 10Z" fill="white"/>
<path d="M34 7C34.5933 7 35.1734 6.82406 35.6667 6.49441C36.1601 6.16477 36.5446 5.69623 36.7716 5.14805C36.9987 4.59987 37.0581 3.99667 36.9424 3.41473C36.8266 2.83279 36.5409 2.29824 36.1213 1.87868C35.7018 1.45912 35.1672 1.1734 34.5853 1.05765C34.0033 0.94189 33.4001 1.0013 32.852 1.22836C32.3038 1.45543 31.8352 1.83994 31.5056 2.33329C31.1759 2.82664 31 3.40666 31 4C31 4.79565 31.3161 5.55871 31.8787 6.12132C32.4413 6.68393 33.2044 7 34 7ZM34 3C34.1978 3 34.3911 3.05865 34.5556 3.16853C34.72 3.27841 34.8482 3.43459 34.9239 3.61732C34.9996 3.80004 35.0194 4.00111 34.9808 4.19509C34.9422 4.38907 34.847 4.56726 34.7071 4.70711C34.5673 4.84696 34.3891 4.9422 34.1951 4.98079C34.0011 5.01937 33.8 4.99957 33.6173 4.92388C33.4346 4.84819 33.2784 4.72002 33.1685 4.55557C33.0586 4.39112 33 4.19778 33 4C33 3.73479 33.1054 3.48043 33.2929 3.2929C33.4804 3.10536 33.7348 3 34 3Z" fill="white"/>
</svg>
