<svg width="100" height="100" viewBox="0 0 100 100" fill="none" xmlns="http://www.w3.org/2000/svg">
<path opacity="0.989" fill-rule="evenodd" clip-rule="evenodd" d="M35.2539 8.10547C46.3867 8.10547 57.5195 8.10547 68.6523 8.10547C68.6197 12.2726 68.6523 16.4393 68.75 20.6055C68.9518 23.0859 70.2863 24.4855 72.7539 24.8047C76.9852 24.9023 81.217 24.935 85.4492 24.9023C85.4492 33.2357 85.4492 41.5689 85.4492 49.9023C68.7174 49.9023 51.9857 49.9023 35.2539 49.9023C35.2539 35.9701 35.2539 22.0377 35.2539 8.10547ZM43.2617 27.0508C50.4887 27.0182 57.7152 27.0508 64.9414 27.1484C66.493 27.8709 66.8186 28.9451 65.918 30.3711C65.5674 30.8014 65.1115 31.0291 64.5508 31.0547C57.5846 31.185 50.6186 31.185 43.6523 31.0547C41.8971 30.7014 41.3436 29.6924 41.9922 28.0273C42.3447 27.573 42.768 27.2477 43.2617 27.0508ZM43.0664 35.4492C47.6242 35.4166 52.1814 35.4492 56.7383 35.5469C58.1605 36.2932 58.4535 37.3674 57.6172 38.7695C57.34 38.957 57.0471 39.1197 56.7383 39.2578C52.1811 39.3881 47.6236 39.3881 43.0664 39.2578C41.6441 38.5115 41.3512 37.4373 42.1875 36.0352C42.5102 35.8596 42.8031 35.6643 43.0664 35.4492Z" fill="white"/>
<path opacity="0.955" fill-rule="evenodd" clip-rule="evenodd" d="M72.7539 8.10547C77.0115 12.2653 81.2432 16.4645 85.4492 20.7031C81.218 20.8008 76.9861 20.8334 72.7539 20.8008C72.7539 16.569 72.7539 12.3372 72.7539 8.10547Z" fill="white"/>
<path opacity="0.989" fill-rule="evenodd" clip-rule="evenodd" d="M22.7539 14.3555C25.5533 14.3555 28.3529 14.3555 31.1523 14.3555C31.1523 26.2045 31.1523 38.0533 31.1523 49.9023C28.3529 49.9023 25.5533 49.9023 22.7539 49.9023C22.7539 38.0533 22.7539 26.2045 22.7539 14.3555Z" fill="white"/>
<path opacity="0.98" fill-rule="evenodd" clip-rule="evenodd" d="M1.85596 22.7539C7.45492 22.7539 13.0539 22.7539 18.6528 22.7539C18.6528 31.8033 18.6528 40.8529 18.6528 49.9023C16.886 49.8508 15.1282 49.9484 13.3794 50.1953C12.283 50.4457 11.4692 51.0643 10.938 52.0508C7.97965 60.8609 4.98486 69.65 1.95361 78.418C1.85596 59.8635 1.82341 41.3088 1.85596 22.7539Z" fill="white"/>
<path opacity="0.992" fill-rule="evenodd" clip-rule="evenodd" d="M14.3555 54.0039C42.2203 53.9388 70.085 54.0039 97.9492 54.1992C93.7826 66.6342 89.6158 79.0689 85.4492 91.5039C57.5846 91.7642 29.7201 91.7642 1.85547 91.5039C6.06225 79.0136 10.2289 66.5136 14.3555 54.0039Z" fill="white"/>
</svg>
