<svg width="100" height="100" viewBox="0 0 100 100" fill="none" xmlns="http://www.w3.org/2000/svg">
<path opacity="0.995" fill-rule="evenodd" clip-rule="evenodd" d="M77.832 2.83203C80.4096 2.93281 82.5906 3.90937 84.375 5.76172C88.5763 13.7737 92.6779 21.8467 96.6797 29.9805C97.1971 31.9062 96.5785 33.3061 94.8242 34.1797C92.3512 34.2773 89.8771 34.31 87.4023 34.2773C87.4023 49.9023 87.4023 65.5273 87.4023 81.1523C81.1523 81.1523 74.9023 81.1523 68.6523 81.1523C68.6523 65.5273 68.6523 49.9023 68.6523 34.2773C66.1775 34.31 63.7035 34.2773 61.2305 34.1797C59.4762 33.3061 58.8576 31.9062 59.375 29.9805C63.3767 21.8467 67.4783 13.7737 71.6797 5.76172C73.3853 4.01326 75.4361 3.0367 77.832 2.83203Z" fill="black"/>
<path opacity="0.986" fill-rule="evenodd" clip-rule="evenodd" d="M21.9722 3.02723C31.6732 2.26235 39.0624 5.97329 44.1402 14.16C47.3568 20.6813 47.6171 27.322 44.9214 34.0819C40.1089 43.3423 32.4593 47.5415 21.9722 46.6796C11.3928 44.6938 5.11022 38.4114 3.12454 27.8319C2.26313 18.1291 5.94151 10.7397 14.1597 5.66395C16.6448 4.36094 19.249 3.48204 21.9722 3.02723ZM21.7769 15.5272C23.8603 15.5272 25.9435 15.5272 28.0269 15.5272C27.9943 18.5878 28.0269 21.6477 28.1245 24.7069C30.8915 26.5624 33.6583 28.4179 36.4253 30.2733C35.356 31.9259 34.2167 33.521 33.0074 35.0585C29.3933 32.7956 25.8777 30.3866 22.4605 27.8319C22.1187 27.2956 21.9234 26.7097 21.8745 26.0741C21.7769 22.5591 21.7443 19.0435 21.7769 15.5272Z" fill="black"/>
<path opacity="0.998" fill-rule="evenodd" clip-rule="evenodd" d="M42.48 46.7774C47.4284 46.7448 52.3763 46.7774 57.3238 46.875C58.2027 47.233 58.8212 47.8516 59.1792 48.7305C59.2769 59.5375 59.3095 70.3449 59.2769 81.1524C53.0269 81.1524 46.7769 81.1524 40.5269 81.1524C40.4943 70.3449 40.5269 59.5375 40.6245 48.7305C41.0195 47.8477 41.638 47.1967 42.48 46.7774Z" fill="black"/>
<path opacity="0.998" fill-rule="evenodd" clip-rule="evenodd" d="M14.355 59.2774C19.3033 59.2448 24.2513 59.2774 29.1987 59.375C30.0776 59.733 30.6962 60.3516 31.0542 61.2305C31.1519 67.8707 31.1845 74.5114 31.1519 81.1524C24.9019 81.1524 18.6519 81.1524 12.4019 81.1524C12.3693 74.5114 12.4019 67.8707 12.4995 61.2305C12.8945 60.3477 13.513 59.6967 14.355 59.2774Z" fill="black"/>
<path opacity="0.998" fill-rule="evenodd" clip-rule="evenodd" d="M3.0278 87.4023C34.2778 87.4023 65.5278 87.4023 96.7778 87.4023C96.8102 88.9662 96.7778 90.5287 96.6801 92.0898C96.0616 94.5313 94.5317 96.0611 92.0903 96.6797C63.9653 96.81 35.8403 96.81 7.7153 96.6797C5.2739 96.0611 3.74395 94.5313 3.12546 92.0898C3.02786 90.5287 2.9953 88.9662 3.0278 87.4023Z" fill="black"/>
</svg>
