<svg width="41" height="40" viewBox="0 0 41 40" fill="none" xmlns="http://www.w3.org/2000/svg">
<path opacity="0.975" fill-rule="evenodd" clip-rule="evenodd" d="M4.05461 1.21094C11.789 1.21094 19.5234 1.21094 27.2577 1.21094C27.2447 2.69554 27.2577 4.17991 27.2968 5.66406C27.4327 6.16463 27.7582 6.43806 28.2734 6.48438C29.7054 6.52343 31.1377 6.53645 32.5702 6.52344C32.5702 11.0547 32.5702 15.5859 32.5702 20.1172C29.7559 19.4491 27.1257 19.8788 24.6796 21.4062C18.8679 21.407 13.0605 21.4591 7.25773 21.5625C6.84107 21.901 6.84107 22.2396 7.25773 22.5781C12.4923 22.5912 17.7266 22.6302 22.9609 22.6953C22.1467 23.5749 21.4696 24.5515 20.9296 25.625C16.4244 25.651 11.9192 25.6771 7.41398 25.7031C6.8333 26.042 6.80726 26.4065 7.33586 26.7969C11.7111 26.8099 16.0861 26.849 20.4609 26.9141C20.1525 27.8791 19.9962 28.8686 19.9921 29.8828C15.7993 29.8698 11.6066 29.8828 7.41398 29.9219C6.82517 30.2534 6.79913 30.618 7.33586 31.0156C11.5805 31.0547 15.8254 31.0677 20.0702 31.0547C20.2062 32.1005 20.4927 33.1031 20.9296 34.0625C20.9036 34.1016 20.8775 34.1406 20.8515 34.1797C19.8402 33.6927 18.7986 33.6016 17.7265 33.9062C17.2577 34.1666 16.789 34.4271 16.3202 34.6875C16.0612 34.761 15.8009 34.8261 15.539 34.8828C15.2771 34.8261 15.0167 34.761 14.7577 34.6875C14.2073 34.3341 13.6344 34.0216 13.039 33.75C11.6579 33.5546 10.3298 33.7499 9.05461 34.3359C8.73507 34.6814 8.76109 35.007 9.13273 35.3125C9.2239 35.3255 9.315 35.3385 9.40617 35.3516C10.0913 35.164 10.7814 34.9948 11.4765 34.8438C12.012 34.7629 12.5329 34.815 13.039 35C13.7809 35.5987 14.6272 35.9502 15.578 36.0547C15.9677 36.0132 16.3454 35.922 16.7109 35.7812C17.2583 35.3904 17.8573 35.1039 18.5077 34.9219C18.7681 34.8698 19.0286 34.8698 19.289 34.9219C19.8219 35.0259 20.3428 35.1691 20.8515 35.3516C21.0697 35.3167 21.252 35.2126 21.3984 35.0391C22.382 36.5566 23.658 37.7675 25.2265 38.6719C18.1692 38.724 11.1119 38.724 4.05461 38.6719C3.85929 38.5807 3.71607 38.4375 3.62492 38.2422C3.55982 30.065 3.57283 21.8879 3.66398 13.7109C4.62547 13.9588 5.3937 13.6724 5.96867 12.8516C6.08918 13.1637 6.18033 13.4893 6.24211 13.8281C5.99429 14.2852 5.79898 14.767 5.65617 15.2734C5.65543 16.4438 6.22835 17.147 7.37492 17.3828C7.42831 18.3903 7.93612 19.0283 8.89836 19.2969C9.25921 19.3511 9.61078 19.312 9.95304 19.1797C10.5401 19.9486 11.3083 20.248 12.2577 20.0781C12.7409 20.8795 13.4441 21.192 14.3671 21.0156C14.7237 20.8699 15.0492 20.6746 15.3437 20.4297C16.3169 21.0303 17.2024 20.9262 17.9999 20.1172C18.2032 19.8067 18.3204 19.4682 18.3515 19.1016C19.5316 19.1191 20.2087 18.5462 20.3827 17.3828C21.7455 17.2315 22.3835 16.4763 22.2968 15.1172C23.0103 14.7671 23.427 14.1942 23.5468 13.3984C24.0547 14.1797 24.7708 14.5052 25.6952 14.375C26.442 14.1347 27.1712 13.8483 27.8827 13.5156C28.5689 12.9943 28.8423 12.3042 28.703 11.4453C27.6207 8.52602 26.4748 5.63541 25.2655 2.77344C24.6657 2.15795 23.9495 1.96264 23.1171 2.1875C22.5181 2.42188 21.9192 2.65625 21.3202 2.89062C20.3244 3.57362 20.064 4.47205 20.539 5.58594C20.4478 5.61198 20.3567 5.63802 20.2655 5.66406C19.5134 5.45096 18.7712 5.20357 18.039 4.92188C16.8224 4.59073 15.6766 4.76 14.6015 5.42969C14.0075 5.09562 13.3694 4.91332 12.6874 4.88281C11.7673 4.98916 10.8559 5.14541 9.95304 5.35156C9.7607 5.30004 9.56539 5.274 9.36711 5.27344C9.73031 4.45257 9.66515 3.67132 9.17179 2.92969C9.02547 2.75712 8.85617 2.61389 8.66398 2.5C8.02211 2.19207 7.37107 1.90561 6.71086 1.64062C5.76667 1.4556 5.02448 1.75509 4.48429 2.53906C4.21237 3.17336 3.92591 3.79836 3.62492 4.41406C3.57283 3.5026 3.57283 2.59115 3.62492 1.67969C3.73114 1.48261 3.87437 1.32636 4.05461 1.21094ZM23.1952 4.57031C23.7731 4.71549 23.8773 5.01497 23.5077 5.46875C22.9412 5.55397 22.7459 5.33262 22.9218 4.80469C23.0112 4.71591 23.1024 4.63778 23.1952 4.57031ZM23.5859 17.3047C25.3569 17.2916 27.1277 17.3047 28.8984 17.3438C29.3651 17.8248 29.287 18.1894 28.664 18.4375C27.0234 18.4896 25.3827 18.4896 23.7421 18.4375C23.1087 18.1259 23.0566 17.7484 23.5859 17.3047Z" fill="#031555"/>
<path opacity="0.936" fill-rule="evenodd" clip-rule="evenodd" d="M28.4297 1.83594C29.6339 2.9228 30.8058 4.05561 31.9453 5.23438C30.7738 5.27343 29.6019 5.28645 28.4297 5.27344C28.4297 4.1276 28.4297 2.98177 28.4297 1.83594Z" fill="#031555"/>
<path opacity="0.957" fill-rule="evenodd" clip-rule="evenodd" d="M5.85163 2.77335C6.08744 2.76049 6.32182 2.7735 6.55476 2.81241C7.07559 3.04679 7.59642 3.28116 8.11726 3.51554C8.40655 3.78085 8.49765 4.10636 8.39069 4.4921C7.24026 7.13153 6.06839 9.76171 4.87507 12.3827C4.6857 12.5508 4.46434 12.655 4.21101 12.6952C3.57686 12.4433 2.95186 12.1698 2.33601 11.8749C2.03701 11.6165 1.94587 11.291 2.06257 10.8983C3.18236 8.34624 4.30215 5.79418 5.42194 3.2421C5.52817 3.04502 5.6714 2.88877 5.85163 2.77335ZM6.39851 4.10147C6.89223 4.08738 7.08755 4.32175 6.98444 4.8046C6.72403 5.1171 6.46361 5.1171 6.20319 4.8046C6.11937 4.52337 6.18448 4.289 6.39851 4.10147Z" fill="#031555"/>
<path opacity="0.957" fill-rule="evenodd" clip-rule="evenodd" d="M23.5078 3.24215C23.9448 3.18303 24.2704 3.33928 24.4843 3.7109C25.5 6.34111 26.5156 8.97129 27.5312 11.6015C27.6211 11.9397 27.5561 12.2392 27.3359 12.5C26.7693 12.7496 26.1964 12.984 25.6172 13.2031C25.1421 13.3482 24.7905 13.205 24.5625 12.7734C23.5468 10.1432 22.5312 7.51299 21.5156 4.88278C21.4143 4.52208 21.5054 4.22261 21.789 3.98434C22.373 3.74265 22.946 3.49525 23.5078 3.24215ZM23.1953 4.57028C23.1025 4.63775 23.0113 4.71587 22.9218 4.80465C22.746 5.33258 22.9413 5.55394 23.5078 5.46872C23.8774 5.01494 23.7732 4.71546 23.1953 4.57028Z" fill="#031555"/>
<path opacity="0.954" fill-rule="evenodd" clip-rule="evenodd" d="M16.2422 5.97654C16.6857 5.96356 17.1284 5.97658 17.5704 6.0156C18.3331 6.25369 19.0882 6.51412 19.836 6.79685C20.2203 6.85947 20.5979 6.84645 20.9688 6.75779C21.7165 8.53747 22.3935 10.3344 23 12.1484C22.8783 12.0032 22.7351 11.886 22.5704 11.7969C21.2816 11.0875 20.0056 10.3583 18.7422 9.60935C17.8947 9.0131 16.9832 8.88287 16.0079 9.21872C15.2266 9.50521 14.4454 9.79162 13.6641 10.0781C12.8397 10.388 12.0585 10.3099 11.3204 9.84372C11.1829 9.76833 11.1568 9.67716 11.2422 9.57029C12.516 8.75294 13.6879 7.80245 14.7579 6.71872C15.2171 6.38493 15.7119 6.13753 16.2422 5.97654Z" fill="#031555"/>
<path opacity="0.951" fill-rule="evenodd" clip-rule="evenodd" d="M12.4141 6.05469C12.7884 6.07278 13.153 6.13788 13.5078 6.25C12.4701 7.34057 11.2982 8.25203 9.99219 8.98438C9.73414 9.28086 9.69508 9.60641 9.875 9.96094C10.6555 11.1128 11.7362 11.5946 13.1172 11.4062C14.231 11.1044 15.3248 10.7398 16.3984 10.3125C16.8792 10.1395 17.348 10.1655 17.8047 10.3906C19.2964 11.2319 20.7678 12.1043 22.2188 13.0078C22.4261 13.8679 22.1005 14.1674 21.2422 13.9062C20.2913 13.3396 19.3278 12.7927 18.3516 12.2656C17.9025 12.1777 17.6421 12.36 17.5703 12.8125C17.5862 13.0005 17.6643 13.1567 17.8047 13.2812C18.9305 13.8504 20.0112 14.4884 21.0469 15.1953C21.2529 15.7605 21.0576 16.0991 20.4609 16.2109C19.0451 15.4639 17.6388 14.6956 16.2422 13.9062C15.7931 13.8183 15.5327 14.0006 15.4609 14.4531C15.4768 14.6411 15.5549 14.7973 15.6953 14.9219C16.8865 15.5628 18.0453 16.2529 19.1719 16.9922C19.3412 17.7604 19.0416 18.0599 18.2734 17.8906C17.2579 17.3309 16.2683 16.732 15.3047 16.0938C14.9175 16.0158 14.5269 15.9507 14.1328 15.8984C13.6925 15.0468 13.0024 14.7082 12.0625 14.8828C11.663 14.0553 10.999 13.6126 10.0703 13.5547C9.75727 12.7327 9.15836 12.264 8.27344 12.1484C7.87756 12.1901 7.51298 12.3203 7.17969 12.5391C7.08342 12.1641 6.88811 11.8516 6.59375 11.6016C6.54167 11.5234 6.54167 11.4453 6.59375 11.3672C7.33987 9.66195 8.1081 7.96922 8.89844 6.28906C9.22485 6.41687 9.56344 6.49499 9.91406 6.52344C10.7634 6.39509 11.5968 6.23884 12.4141 6.05469Z" fill="#031555"/>
<path opacity="0.895" fill-rule="evenodd" clip-rule="evenodd" d="M8.11719 13.3203C8.74008 13.3311 9.01352 13.6436 8.9375 14.2578C8.59898 14.8568 8.26041 15.4557 7.92188 16.0547C7.32845 16.3198 6.95084 16.1374 6.78906 15.5078C7.06577 14.8761 7.36526 14.2511 7.6875 13.6328C7.80467 13.479 7.9479 13.3748 8.11719 13.3203Z" fill="#031555"/>
<path opacity="0.907" fill-rule="evenodd" clip-rule="evenodd" d="M10.0703 14.8047C10.6941 14.7646 10.9935 15.051 10.9688 15.6641C10.5651 16.4193 10.1615 17.1745 9.75783 17.9297C9.3551 18.2597 8.97752 18.2336 8.62502 17.8516C8.57291 17.6172 8.57291 17.3829 8.62502 17.1485C9.01564 16.4454 9.40627 15.7422 9.79689 15.0391C9.88635 14.9504 9.97752 14.8722 10.0703 14.8047Z" fill="#031555"/>
<path opacity="0.899" fill-rule="evenodd" clip-rule="evenodd" d="M12.1797 15.9767C12.8993 15.9018 13.1988 16.2143 13.0781 16.9142C12.7856 17.5254 12.4731 18.1244 12.1406 18.711C11.6942 19.0602 11.3036 19.0082 10.9688 18.5548C10.9167 18.4246 10.9167 18.2944 10.9688 18.1642C11.3163 17.3896 11.72 16.6605 12.1797 15.9767Z" fill="#031555"/>
<path opacity="0.903" fill-rule="evenodd" clip-rule="evenodd" d="M14.3672 17.1484C15.1217 17.0826 15.4211 17.4211 15.2657 18.164C14.9792 18.6849 14.6928 19.2057 14.4063 19.7265C14.1519 19.8772 13.8785 19.9163 13.586 19.8437C13.311 19.6714 13.1938 19.424 13.2344 19.1015C13.5758 18.4172 13.9534 17.7662 14.3672 17.1484Z" fill="#031555"/>
<path opacity="0.837" fill-rule="evenodd" clip-rule="evenodd" d="M16.3984 18.2422C17.0525 18.3255 17.2999 18.6902 17.1406 19.3359C16.7364 19.7481 16.3327 19.7481 15.9297 19.3359C16.1304 18.987 16.2866 18.6224 16.3984 18.2422Z" fill="#031555"/>
<path opacity="0.936" fill-rule="evenodd" clip-rule="evenodd" d="M29.3672 20.9766C33.6553 20.9256 36.6631 22.8526 38.3906 26.7578C39.591 30.5898 38.7446 33.8841 35.8516 36.6406C33.3384 38.6329 30.5259 39.2058 27.4141 38.3594C23.1774 36.7762 21.1071 33.7163 21.2031 29.1797C21.6894 25.2304 23.8118 22.6132 27.5703 21.3281C28.1737 21.1758 28.7726 21.0586 29.3672 20.9766ZM29.7578 22.3828C32.7731 22.4249 35.0518 23.727 36.5938 26.2891C37.966 29.1228 37.7577 31.8311 35.9688 34.4141C33.7662 36.9883 31.0188 37.8347 27.7266 36.9531C24.5203 35.6737 22.8016 33.3038 22.5703 29.8438C22.8296 26.3311 24.6004 23.9613 27.8828 22.7344C28.511 22.5735 29.136 22.4563 29.7578 22.3828Z" fill="#031555"/>
<path opacity="0.977" fill-rule="evenodd" clip-rule="evenodd" d="M29.8359 23.5547C32.7765 23.6241 34.8208 25.0044 35.9687 27.6953C36.8661 30.837 35.9937 33.35 33.3515 35.2344C31.2041 36.4032 29.0426 36.4293 26.8672 35.3125C24.1008 33.4106 23.2023 30.8455 24.1718 27.6172C25.2678 25.1534 27.1558 23.7993 29.8359 23.5547ZM29.914 25.1953C29.7338 25.3107 29.5906 25.467 29.4843 25.6641C29.4092 27.1795 29.4352 28.69 29.5625 30.1953C30.6239 30.8629 31.7047 31.5009 32.8047 32.1094C33.472 32.1423 33.6933 31.8428 33.4687 31.2109C32.5507 30.6542 31.6262 30.1073 30.6953 29.5703C30.6302 28.243 30.5911 26.9148 30.5781 25.5859C30.4473 25.3055 30.226 25.1754 29.914 25.1953Z" fill="#031555"/>
</svg>
