<svg width="41" height="40" viewBox="0 0 41 40" fill="none" xmlns="http://www.w3.org/2000/svg">
<g clip-path="url(#clip0_1266_11947)">
<path opacity="0.982" fill-rule="evenodd" clip-rule="evenodd" d="M20.7735 -0.0390625C21.3464 -0.0390625 21.9194 -0.0390625 22.4923 -0.0390625C24.0792 0.362391 25.2381 1.29989 25.9688 2.77344C26.8028 5.1147 26.269 7.08084 24.3673 8.67188C22.6542 9.705 20.9093 9.75703 19.1329 8.82812C17.0074 7.31954 16.3693 5.32735 17.2188 2.85156C17.9513 1.32138 19.1362 0.357842 20.7735 -0.0390625Z" fill="#031555"/>
<path opacity="0.984" fill-rule="evenodd" clip-rule="evenodd" d="M16.2422 9.49216C16.3244 9.48052 16.4025 9.49349 16.4766 9.53123C18.7147 11.7312 21.3189 12.3041 24.2891 11.25C25.22 10.8498 26.0272 10.2769 26.711 9.53123C26.7891 9.47912 26.8672 9.47912 26.9453 9.53123C28.5021 11.4223 29.036 13.5708 28.5469 15.9765C28.409 16.2088 28.2137 16.3781 27.961 16.4844C23.6576 16.5618 19.3607 16.5358 15.0703 16.4062C14.8414 16.2295 14.6721 16.0082 14.5625 15.7422C14.1982 13.3964 14.7581 11.3131 16.2422 9.49216Z" fill="#031555"/>
<path opacity="0.989" fill-rule="evenodd" clip-rule="evenodd" d="M40.4609 20.6641C40.4609 21.0548 40.4609 21.4454 40.4609 21.836C40.2417 22.3305 39.9683 22.7992 39.6406 23.2423C37.3533 26.5452 35.0355 29.8264 32.6875 33.086C31.5282 34.2452 30.1349 34.9613 28.5078 35.2344C23.6638 35.2995 18.8201 35.2866 13.9766 35.1954C11.7572 30.7958 9.56969 26.3817 7.41406 21.9532C8.53305 20.7534 9.83516 19.7898 11.3203 19.0626C14.948 17.7724 18.1511 18.4494 20.9297 21.0938C23.3228 21.1944 25.7187 21.2464 28.1172 21.2501C29.4765 21.768 30.0363 22.7446 29.7969 24.1798C29.5495 25.0522 28.9896 25.612 28.1172 25.8594C26.2129 25.8633 24.3119 25.9154 22.4141 26.0157C21.6852 26.4284 21.5159 27.0143 21.9062 27.7735C22.1494 28.0318 22.4488 28.175 22.8047 28.2032C24.6276 28.2553 26.4505 28.2553 28.2734 28.2032C29.0059 28.143 29.6178 27.8435 30.1094 27.3048C32.0625 24.8829 34.0156 22.461 35.9688 20.0391C36.7961 18.8955 37.8768 18.5699 39.2109 19.0626C39.8446 19.4335 40.2612 19.9673 40.4609 20.6641Z" fill="#031555"/>
<path opacity="0.977" fill-rule="evenodd" clip-rule="evenodd" d="M9.13281 39.961C8.82031 39.961 8.50781 39.961 8.19531 39.961C7.96633 39.8234 7.77102 39.6412 7.60938 39.4141C5.22298 34.6413 2.84016 29.8757 0.460938 25.1173C0.460938 24.8308 0.460938 24.5444 0.460938 24.2579C0.598488 24.0289 0.78078 23.8336 1.00781 23.6719C1.75455 23.2463 2.5358 22.9078 3.35156 22.6563C4.36205 22.5302 5.15633 22.8818 5.73438 23.711C7.83893 27.894 9.92227 32.0868 11.9844 36.2891C12.2423 37.4783 11.8648 38.4027 10.8516 39.0626C10.2616 39.3444 9.68859 39.6439 9.13281 39.961Z" fill="#031555"/>
</g>
<defs>
<clipPath id="clip0_1266_11947">
<rect width="40" height="40" fill="white" transform="translate(0.5)"/>
</clipPath>
</defs>
</svg>
