<svg width="60" height="60" viewBox="0 0 60 60" fill="none" xmlns="http://www.w3.org/2000/svg">
<g clip-path="url(#clip0_30_694)">
<path opacity="0.98" fill-rule="evenodd" clip-rule="evenodd" d="M2.28516 0.761756C17.7589 0.703966 33.2277 0.76256 48.6914 0.937537C49.2879 1.25987 49.659 1.74816 49.8047 2.40238C49.9194 7.60308 49.8804 12.7984 49.6875 17.9883C49.4727 18.5157 49.1016 18.8868 48.5742 19.1016C33.0273 19.1798 17.4805 19.1798 1.93359 19.1016C1.40625 18.8868 1.03516 18.5157 0.820313 17.9883C0.742187 12.6759 0.742187 7.36331 0.820313 2.05082C1.11765 1.3811 1.60593 0.951417 2.28516 0.761756ZM31.1133 4.51176C31.6917 4.56284 32.0237 4.87534 32.1094 5.44926C32.1875 8.57426 32.1875 11.6993 32.1094 14.8243C31.9796 15.5801 31.5695 15.8341 30.8789 15.586C30.6974 15.4437 30.5607 15.2679 30.4688 15.0586C30.3906 11.7774 30.3906 8.49613 30.4688 5.21488C30.5488 4.84237 30.7636 4.60799 31.1133 4.51176ZM35.5664 4.51176C36.0343 4.48184 36.3663 4.67715 36.5625 5.09769C36.6407 8.45707 36.6407 11.8164 36.5625 15.1758C36.2132 15.6675 35.764 15.7652 35.2148 15.4688C35.1415 15.3809 35.0829 15.2832 35.0391 15.1758C34.9609 11.8164 34.9609 8.45707 35.0391 5.09769C35.1592 4.8414 35.335 4.6461 35.5664 4.51176ZM40.1367 4.51176C40.5976 4.50136 40.9296 4.69668 41.1328 5.09769C41.211 8.418 41.211 11.7384 41.1328 15.0586C40.7064 15.815 40.1986 15.8931 39.6094 15.293C39.5312 11.8555 39.5312 8.418 39.6094 4.98051C39.7731 4.79649 39.9489 4.64024 40.1367 4.51176ZM44.707 4.51176C45.183 4.53802 45.515 4.77239 45.7031 5.21488C45.7813 8.45707 45.7813 11.6993 45.7031 14.9414C45.2123 15.9447 44.6655 15.9837 44.0625 15.0586C43.9843 11.7774 43.9843 8.49613 44.0625 5.21488C44.1821 4.88088 44.397 4.64651 44.707 4.51176ZM7.32422 5.33207C7.86713 5.20998 8.23821 5.4053 8.4375 5.91801C8.51563 6.58207 8.51563 7.24613 8.4375 7.91019C7.98878 8.63706 7.48097 8.67612 6.91406 8.02738C6.83593 7.2852 6.83593 6.543 6.91406 5.80082C6.99489 5.584 7.13161 5.42774 7.32422 5.33207ZM14.2383 5.33207C14.8171 5.19753 15.2272 5.39284 15.4688 5.91801C15.5469 6.543 15.5469 7.16801 15.4688 7.79301C14.9218 8.73051 14.375 8.73051 13.8281 7.79301C13.75 7.20707 13.75 6.62113 13.8281 6.03519C13.8942 5.7555 14.0309 5.52113 14.2383 5.33207ZM21.2695 5.33207C21.9826 5.16789 22.3928 5.44133 22.5 6.15238C22.5905 6.78569 22.5514 7.41068 22.3828 8.02738C21.8159 8.67612 21.3081 8.63706 20.8594 7.91019C20.7812 7.24613 20.7812 6.58207 20.8594 5.91801C20.9762 5.70436 21.113 5.50906 21.2695 5.33207ZM7.08984 10.9571C9.04393 10.9377 9.80565 11.8752 9.375 13.7696C8.36401 15.0638 7.27027 15.1418 6.09375 14.0039C5.41529 12.6546 5.74733 11.639 7.08984 10.9571ZM14.1211 10.9571C16.1602 10.9753 16.8829 11.9519 16.2891 13.8868C15.2009 15.1355 14.1071 15.1355 13.0078 13.8868C12.4682 12.5556 12.8393 11.579 14.1211 10.9571ZM21.1523 10.9571C22.8238 10.8626 23.6245 11.6438 23.5547 13.3008C22.7592 14.9723 21.6264 15.2457 20.1562 14.1211C19.3985 12.7033 19.7306 11.6486 21.1523 10.9571Z" fill="#031555"/>
<path opacity="0.915" fill-rule="evenodd" clip-rule="evenodd" d="M5.80078 20.918C18.7696 20.918 31.7382 20.918 44.707 20.918C44.707 21.5429 44.707 22.168 44.707 22.793C31.7382 22.793 18.7696 22.793 5.80078 22.793C5.80078 22.168 5.80078 21.5429 5.80078 20.918Z" fill="#031555"/>
<path opacity="0.981" fill-rule="evenodd" clip-rule="evenodd" d="M2.05078 24.4336C17.5587 24.414 33.0664 24.4336 48.5742 24.4922C49.5553 25.0084 49.9849 25.8287 49.8633 26.9531C49.8243 27.2461 49.7851 27.5391 49.7461 27.832C49.3111 27.4191 48.8033 27.1261 48.2227 26.9531C45.4092 26.3156 43.749 27.3899 43.2422 30.1758C42.8924 30.3311 42.5408 30.4873 42.1875 30.6445C41.6072 30.3055 41.0017 30.0126 40.3711 29.7656C39.5457 29.6155 38.7645 29.7327 38.0273 30.1172C37.461 30.6836 36.8945 31.2501 36.3281 31.8164C35.757 32.7169 35.6789 33.6544 36.0938 34.6289C36.3477 35.0586 36.6015 35.4883 36.8555 35.918C36.7187 36.2695 36.5821 36.6211 36.4453 36.9727C35.4836 37.1411 34.6241 37.5318 33.8672 38.1445C33.5418 38.5217 33.3074 38.9514 33.1641 39.4336C33.1441 40.1011 33.0855 40.7651 32.9883 41.4258C31.999 40.9494 31.0615 41.0472 30.1758 41.7188C30.0196 41.7969 29.8632 41.7969 29.707 41.7188C29.4451 41.2086 29.1913 40.6813 28.9453 40.1367C28.268 39.2923 27.3891 38.9407 26.3086 39.082C25.2116 38.9761 24.3327 39.3667 23.6719 40.2539C23.483 40.7596 23.268 41.2479 23.0273 41.7188C22.5238 41.7031 22.055 41.5469 21.6211 41.25C20.8977 41.0501 20.1946 41.1283 19.5117 41.4844C19.0078 41.8709 18.5391 42.3006 18.1055 42.7735C12.793 42.8516 7.48047 42.8516 2.16797 42.7735C1.49281 42.6059 1.04359 42.1957 0.820313 41.543C0.742187 36.2305 0.742187 30.9179 0.820313 25.6055C1.0671 25.0262 1.47725 24.6356 2.05078 24.4336ZM30.9961 28.0664C31.6341 27.9845 32.0052 28.2579 32.1094 28.8867C32.1875 32.0508 32.1875 35.2149 32.1094 38.3789C31.9252 39.1449 31.476 39.3597 30.7617 39.0235C30.621 38.9176 30.5232 38.781 30.4688 38.6133C30.3906 35.293 30.3906 31.9726 30.4688 28.6524C30.5889 28.3961 30.7646 28.2007 30.9961 28.0664ZM7.32422 29.2383C7.83848 29.173 8.20958 29.3684 8.4375 29.8242C8.51563 30.4883 8.51563 31.1523 8.4375 31.8164C8.23677 32.3482 7.86568 32.524 7.32422 32.3438C7.10938 32.2852 6.97266 32.1484 6.91406 31.9336C6.83593 31.1915 6.83593 30.4492 6.91406 29.707C7.07527 29.5658 7.21199 29.4096 7.32422 29.2383ZM14.3555 29.2383C14.9324 29.1646 15.3034 29.399 15.4688 29.9414C15.5469 30.5274 15.5469 31.1133 15.4688 31.6992C15.2238 32.378 14.7745 32.5538 14.1211 32.2266C13.9579 32.0894 13.8601 31.9136 13.8281 31.6992C13.75 31.1133 13.75 30.5274 13.8281 29.9414C13.9223 29.6313 14.0981 29.397 14.3555 29.2383ZM21.3867 29.2383C21.7682 29.1813 22.0807 29.2985 22.3242 29.5899C22.6495 30.4576 22.6301 31.3171 22.2656 32.168C21.6614 32.5624 21.1927 32.4453 20.8594 31.8164C20.7812 31.1523 20.7812 30.4883 20.8594 29.8242C20.9795 29.5679 21.1553 29.3726 21.3867 29.2383ZM7.44141 34.3945C8.98881 34.5574 9.6724 35.4168 9.49219 36.9727C8.91307 38.1702 7.99511 38.5412 6.73828 38.086C5.43868 37.0838 5.36056 35.9901 6.50391 34.8047C6.81538 34.6315 7.12787 34.4947 7.44141 34.3945ZM14.4727 34.3945C16.1679 34.6231 16.8124 35.5606 16.4062 37.207C15.6819 38.3004 14.7248 38.5542 13.5352 37.9688C12.4414 36.9141 12.4414 35.8594 13.5352 34.8047C13.8466 34.6315 14.1592 34.4947 14.4727 34.3945ZM21.3867 34.3945C22.8668 34.4876 23.5895 35.2689 23.5547 36.7383C23.0128 38.2295 22.0167 38.6397 20.5664 37.9688C19.4379 36.8357 19.4769 35.7419 20.6836 34.6875C20.9441 34.6212 21.1785 34.5235 21.3867 34.3945Z" fill="#031555"/>
<path opacity="0.973" fill-rule="evenodd" clip-rule="evenodd" d="M45.7616 28.6523C46.6343 28.602 47.4938 28.6606 48.3398 28.8281C48.8256 29.6802 49.1382 30.5981 49.2773 31.582C50.1454 31.8106 50.9853 32.1232 51.7968 32.5195C52.5121 32.1325 53.2348 31.7614 53.9648 31.4062C54.4581 31.2867 54.8878 31.4039 55.2538 31.7578C55.8579 32.1846 56.2485 32.7509 56.4257 33.457C56.0747 34.3347 55.645 35.1745 55.1366 35.9765C55.5918 36.7696 55.9825 37.59 56.3085 38.4375C57.0184 38.609 57.7216 38.8043 58.4179 39.0234C58.6272 39.1154 58.803 39.252 58.9452 39.4335C59.1317 40.2412 59.1707 41.0615 59.0624 41.8945C58.9704 42.1038 58.8338 42.2796 58.6523 42.4218C57.8863 42.7032 57.105 42.9376 56.3085 43.125C55.9316 43.9585 55.541 44.7984 55.1366 45.6445C55.5078 46.3086 55.8788 46.9726 56.2499 47.6367C56.3281 47.9882 56.3281 48.3398 56.2499 48.6914C55.8344 49.3023 55.307 49.7906 54.6679 50.1562C54.3945 50.2344 54.121 50.2344 53.8476 50.1562C53.1628 49.7832 52.4792 49.4121 51.7968 49.0429C51.0091 49.5056 50.1692 49.8181 49.2773 49.9804C49.1179 50.8129 48.9031 51.6332 48.6327 52.4414C48.1834 52.9493 47.6171 53.1446 46.9335 53.0273C46.25 53.1446 45.6836 52.9493 45.2343 52.4414C44.9639 51.6332 44.7491 50.8129 44.5898 49.9804C43.7104 49.8342 42.8901 49.5216 42.1288 49.0429C41.4647 49.4141 40.8007 49.7851 40.1366 50.1562C39.6348 50.2693 39.1661 50.1911 38.7304 49.9218C38.316 49.5467 37.9449 49.1366 37.6171 48.6914C37.5389 48.3398 37.5389 47.9882 37.6171 47.6367C37.9647 46.9577 38.3358 46.2936 38.7304 45.6445C38.3035 44.9075 37.9715 44.1262 37.7343 43.3007C36.9575 42.9842 36.1567 42.7303 35.3319 42.539C34.8133 42.0951 34.618 41.5286 34.746 40.8398C34.6888 40.2665 34.806 39.7392 35.0976 39.2578C35.963 38.9194 36.8419 38.6265 37.7343 38.3789C37.9521 37.53 38.2841 36.7292 38.7304 35.9765C38.3445 35.3416 37.9734 34.6971 37.6171 34.0429C37.519 33.5982 37.558 33.1686 37.7343 32.7539C38.1444 32.3437 38.5546 31.9335 38.9648 31.5234C39.1731 31.4409 39.388 31.3823 39.6093 31.3476C40.4694 31.6897 41.3092 32.0804 42.1288 32.5195C42.8842 32.1418 43.6655 31.8293 44.4726 31.582C44.7621 30.8151 45.0161 30.0338 45.2343 29.2382C45.3544 28.9819 45.5302 28.7866 45.7616 28.6523ZM46.2304 36.5039C49.8136 36.5512 51.4348 38.3482 51.0937 41.8945C50.2719 44.2497 48.6117 45.285 46.1132 45C43.6015 44.2146 42.4882 42.5153 42.7734 39.9023C43.2945 38.1114 44.4468 36.9787 46.2304 36.5039Z" fill="#031555"/>
<path opacity="0.964" fill-rule="evenodd" clip-rule="evenodd" d="M25.6056 40.7227C26.2065 40.6772 26.7924 40.7358 27.3634 40.8984C27.461 40.9961 27.5587 41.0938 27.6563 41.1914C27.8142 41.784 27.99 42.37 28.1837 42.9492C28.7154 43.107 29.2233 43.3218 29.7071 43.5938C29.8633 43.6719 30.0197 43.6719 30.1759 43.5938C30.5869 43.3296 31.0165 43.0952 31.4649 42.8906C31.7383 42.8125 32.0119 42.8125 32.2853 42.8906C32.8169 43.3032 33.2075 43.811 33.4571 44.4141C33.238 45.0866 32.9256 45.7116 32.5196 46.2891C32.8339 46.9234 33.1463 47.5484 33.4571 48.1641C34.174 48.2593 34.8185 48.5132 35.3907 48.9258C35.6251 49.5899 35.6251 50.2539 35.3907 50.918C35.2931 51.0156 35.1954 51.1133 35.0978 51.2109C34.5508 51.3672 34.004 51.5235 33.4571 51.6797C33.3484 51.7252 33.2702 51.8033 33.2228 51.9141C33.0792 52.5014 32.8448 53.0483 32.5196 53.5547C32.9256 54.1322 33.238 54.7572 33.4571 55.4297C33.2472 55.9929 32.8957 56.4616 32.4024 56.8359C32.106 57.0026 31.7934 57.0416 31.4649 56.9531C30.9669 56.6749 30.4787 56.382 30.0001 56.0742C29.4334 56.4195 28.828 56.6733 28.1837 56.8359C28.0145 57.4925 27.7995 58.1371 27.5392 58.7695C27.1827 59.0495 26.7725 59.1667 26.3087 59.1211C25.8635 59.1695 25.4728 59.0523 25.1368 58.7695C24.929 58.1134 24.6947 57.4689 24.4337 56.8359C23.8309 56.6615 23.2644 56.4075 22.7345 56.0742C22.143 56.4969 21.4985 56.8093 20.8009 57.0117C19.7837 56.7195 19.2954 56.0555 19.336 55.0195C19.5406 54.5711 19.775 54.1415 20.0392 53.7305C20.1173 53.6133 20.1173 53.4961 20.0392 53.3789C19.7978 52.7991 19.5438 52.2326 19.2774 51.6797C18.6117 51.5685 17.9867 51.3537 17.4024 51.0352C17.2183 50.6961 17.1403 50.3251 17.1681 49.9219C17.1403 49.5186 17.2183 49.1476 17.4024 48.8086C17.9867 48.4901 18.6117 48.2753 19.2774 48.1641C19.6272 47.5042 19.8811 46.8206 20.0392 46.1133C19.8345 45.6648 19.6002 45.2352 19.336 44.8242C19.2435 44.457 19.2825 44.1054 19.4532 43.7695C19.7505 43.433 20.0825 43.14 20.4493 42.8906C20.7227 42.8125 20.9962 42.8125 21.2696 42.8906C21.7677 43.1688 22.2559 43.4618 22.7345 43.7695C23.2609 43.4382 23.8272 43.1843 24.4337 43.0078C24.6947 42.3749 24.929 41.7304 25.1368 41.0742C25.301 40.9546 25.4573 40.8374 25.6056 40.7227ZM25.7228 46.6992C28.6762 46.7904 29.8677 48.2748 29.297 51.1524C28.4567 52.754 27.1481 53.3595 25.3712 52.9688C23.3157 51.998 22.7102 50.455 23.5548 48.3399C24.0852 47.5201 24.8079 46.9733 25.7228 46.6992Z" fill="#031555"/>
</g>
<defs>
<clipPath id="clip0_30_694">
<rect width="60" height="60" fill="white"/>
</clipPath>
</defs>
</svg>
