<svg width="60" height="61" viewBox="0 0 60 61" fill="none" xmlns="http://www.w3.org/2000/svg">
<g clip-path="url(#clip0_1847_2173)">
<path opacity="0.985" fill-rule="evenodd" clip-rule="evenodd" d="M25.6055 0.555664C28.4961 0.555664 31.3867 0.555664 34.2773 0.555664C34.2383 2.35423 34.2775 4.15111 34.3945 5.94629C37.9704 6.62976 41.2516 7.99695 44.2383 10.0479C45.5273 8.79785 46.8164 7.54786 48.1055 6.29785C50.135 8.26886 52.1468 10.2611 54.1406 12.2744C54.2188 12.3526 54.2188 12.4306 54.1406 12.5088C52.8499 13.7799 51.5803 15.069 50.332 16.376C52.3562 19.3616 53.6453 22.6428 54.1992 26.2197C56.1132 26.2197 58.0274 26.2197 59.9414 26.2197C59.9414 29.1104 59.9414 32.0009 59.9414 34.8916C57.9492 34.8916 55.957 34.8916 53.9648 34.8916C53.3123 38.3548 51.9452 41.4993 49.8633 44.3252C51.3298 45.7721 52.7752 47.237 54.1992 48.7197C52.2282 50.7493 50.2361 52.7611 48.2227 54.7549C48.1445 54.833 48.0664 54.833 47.9883 54.7549C46.5234 53.29 45.0586 51.8252 43.5938 50.3604C40.7644 52.2723 37.6589 53.5223 34.2773 54.1104C34.2773 56.2588 34.2773 58.4073 34.2773 60.5557C31.3867 60.5557 28.4961 60.5557 25.6055 60.5557C25.6437 58.3788 25.6046 56.2108 25.4883 54.0518C22.1996 53.4379 19.1722 52.2075 16.4062 50.3604C14.847 51.8219 13.3039 53.3063 11.7773 54.8135C9.74771 52.8425 7.736 50.8503 5.74219 48.8369C5.66406 48.7588 5.66406 48.6807 5.74219 48.6025C7.20703 47.1377 8.67188 45.6729 10.1367 44.208C8.13764 41.3959 6.80951 38.2904 6.15234 34.8916C4.08203 34.8916 2.01172 34.8916 -0.0585938 34.8916C-0.0585938 32.0009 -0.0585938 29.1104 -0.0585938 26.2197C1.93359 26.2197 3.92578 26.2197 5.91797 26.2197C6.48264 22.7086 7.73264 19.4663 9.66797 16.4932C8.38057 15.1471 7.07198 13.8191 5.74219 12.5088C5.66406 12.4306 5.66406 12.3526 5.74219 12.2744C7.736 10.2611 9.74771 8.26886 11.7773 6.29785C13.1054 7.58691 14.4336 8.87598 15.7617 10.165C18.7132 8.02579 21.9945 6.6586 25.6055 6.06348C25.6055 4.22754 25.6055 2.39161 25.6055 0.555664ZM29.2383 12.626C36.8187 12.7125 42.3851 16.0719 45.9375 22.7041C48.8996 29.7338 47.9621 36.1791 43.125 42.04C38.3827 46.9278 32.6599 48.7052 25.957 47.3721C18.8348 45.3281 14.4403 40.6992 12.7734 33.4854C11.7079 25.6195 14.4618 19.5062 21.0352 15.1455C23.6003 13.6975 26.3347 12.8578 29.2383 12.626Z" fill="#031555"/>
<path opacity="0.978" fill-rule="evenodd" clip-rule="evenodd" d="M29.4729 16.0244C34.591 16.0152 38.673 18.0464 41.719 22.1182C44.8508 27.1194 45.0461 32.2366 42.3049 37.4698C38.7737 42.8771 33.7932 45.1233 27.3635 44.208C22.3872 43.1379 18.8912 40.2668 16.8752 35.5948C14.7307 29.2311 16.1175 23.7819 21.0354 19.2471C23.5229 17.3048 26.3354 16.2307 29.4729 16.0244ZM24.3166 25.1651C23.2418 25.3111 22.2651 25.7212 21.3869 26.3955C19.0562 28.7072 18.8022 31.2267 20.6252 33.9541C23.0074 36.3199 25.5659 36.5347 28.301 34.5987C28.8301 34.05 29.3769 33.5226 29.9416 33.0166C30.5063 33.5226 31.0531 34.05 31.5822 34.5987C33.8566 36.3428 36.1612 36.3819 38.4963 34.7159C40.827 32.4042 41.081 29.8847 39.258 27.1573C36.8758 24.7915 34.3173 24.5767 31.5822 26.5127C31.0531 27.0614 30.5063 27.5887 29.9416 28.0948C29.1734 27.3067 28.3531 26.5841 27.4807 25.9268C26.4936 25.3976 25.4389 25.1437 24.3166 25.1651Z" fill="#031555"/>
<path opacity="0.932" fill-rule="evenodd" clip-rule="evenodd" d="M24.4336 28.5635C24.9823 28.5445 25.49 28.6813 25.957 28.9737C26.4861 29.4832 26.994 30.0105 27.4805 30.5557C26.994 31.1008 26.4861 31.6282 25.957 32.1377C24.2443 32.9221 23.1896 32.3947 22.793 30.5557C22.9192 29.5322 23.466 28.8682 24.4336 28.5635Z" fill="#031555"/>
<path opacity="0.931" fill-rule="evenodd" clip-rule="evenodd" d="M34.7461 28.5635C36.7212 28.7207 37.4047 29.7364 36.7969 31.6104C35.989 32.5985 35.0319 32.7743 33.9258 32.1377C33.3967 31.6282 32.8888 31.1008 32.4023 30.5557C33.051 29.7098 33.8323 29.0458 34.7461 28.5635Z" fill="#031555"/>
</g>
<defs>
<clipPath id="clip0_1847_2173">
<rect width="60" height="60" fill="white" transform="translate(0 0.614258)"/>
</clipPath>
</defs>
</svg>
