<svg width="100" height="101" viewBox="0 0 100 101" fill="none" xmlns="http://www.w3.org/2000/svg">
<g clip-path="url(#clip0_1270_15786)">
<path opacity="0.981" fill-rule="evenodd" clip-rule="evenodd" d="M-0.0976562 25.1259C-0.0976562 24.8003 -0.0976562 24.4749 -0.0976562 24.1493C0.770893 14.1312 6.10943 7.91376 15.918 5.49698C25.8283 4.25018 33.0223 8.05878 37.5 16.9228C40.5326 24.4409 39.5234 31.3419 34.4727 37.6259C36.0352 39.8394 37.5977 42.053 39.1602 44.2665C35.6445 44.3315 32.1289 44.3968 28.6133 44.4618C24.5066 44.4835 20.4051 44.3858 16.3086 44.1688C8.37998 42.6856 3.2042 38.0958 0.78125 30.3993C0.356842 28.6341 0.0638728 26.8763 -0.0976562 25.1259ZM9.86328 21.6103C12.6567 21.5714 13.9262 22.9386 13.6719 25.7118C12.5884 27.9827 10.9282 28.536 8.69141 27.372C7.42576 26.0741 7.19791 24.6093 8.00781 22.9774C8.50176 22.3163 9.12023 21.8606 9.86328 21.6103ZM18.8477 21.6103C21.902 21.636 23.1064 23.1335 22.4609 26.1024C21.3748 27.9292 19.8447 28.4175 17.8711 27.5673C16.2157 26.0692 15.9879 24.4091 17.1875 22.5868C17.7114 22.1796 18.2647 21.854 18.8477 21.6103ZM27.6367 21.6103C31.0658 21.763 32.2051 23.4556 31.0547 26.6884C29.7105 28.1814 28.1805 28.4091 26.4648 27.372C25.1299 25.9698 24.9672 24.4399 25.9766 22.7821C26.4982 22.313 27.0518 21.9224 27.6367 21.6103Z" fill="white"/>
<path opacity="0.974" fill-rule="evenodd" clip-rule="evenodd" d="M77.8325 15.3603C85.1481 15.1579 90.4541 18.2829 93.7504 24.7353C96.3307 32.1554 94.7356 38.5031 88.9653 43.7783C86.3401 45.6427 83.4104 46.6845 80.1762 46.9033C74.6413 47.066 69.1073 47.0335 63.5747 46.8056C64.7875 44.9982 66.0245 43.208 67.2856 41.4345C63.3305 36.4195 62.5166 30.9181 64.8442 24.9306C67.4508 19.3813 71.7801 16.1912 77.8325 15.3603ZM71.3872 28.4462C74.3569 28.5167 75.3661 29.9492 74.4145 32.7431C73.4366 33.9123 72.2321 34.2052 70.8012 33.622C68.8582 31.6421 69.0536 29.9169 71.3872 28.4462ZM78.6137 28.4462C80.6411 28.2603 81.8129 29.1716 82.1293 31.1806C81.5133 33.7021 80.0159 34.4509 77.6372 33.4267C76.4184 32.0472 76.3534 30.615 77.4418 29.1298C77.8192 28.8449 78.2098 28.6171 78.6137 28.4462ZM85.645 28.4462C88.0827 28.3771 89.2219 29.549 89.0629 31.9619C88.1678 33.8878 86.768 34.3761 84.8637 33.4267C83.1471 31.4546 83.4075 29.7945 85.645 28.4462Z" fill="white"/>
<path opacity="0.977" fill-rule="evenodd" clip-rule="evenodd" d="M49.316 43.4854C56.0643 43.626 59.7752 47.0439 60.4489 53.7393C60.2133 58.2709 57.9996 61.3959 53.8082 63.1143C48.0922 64.7311 43.828 62.9408 41.0153 57.7432C39.345 52.8053 40.4842 48.6711 44.4332 45.3408C45.9573 44.3889 47.5848 43.7703 49.316 43.4854Z" fill="white"/>
<path opacity="0.972" fill-rule="evenodd" clip-rule="evenodd" d="M19.6294 52.8605C24.578 52.3802 27.8657 54.4634 29.4926 59.1105C30.2905 64.1239 28.305 67.4769 23.5356 69.169C19.8288 69.9952 16.8014 68.921 14.4536 65.9464C12.5142 62.7675 12.5142 59.5773 14.4536 56.3761C15.7429 54.5446 17.4682 53.3728 19.6294 52.8605Z" fill="white"/>
<path opacity="0.972" fill-rule="evenodd" clip-rule="evenodd" d="M77.4417 52.8603C82.2248 52.337 85.5124 54.2901 87.305 58.7196C88.3236 63.9439 86.3378 67.4271 81.348 69.1689C76.474 70.0362 73.121 68.1808 71.2894 63.6025C70.3582 58.2632 72.4089 54.6825 77.4417 52.8603Z" fill="white"/>
<path opacity="0.99" fill-rule="evenodd" clip-rule="evenodd" d="M41.5043 65.751C42.6484 65.7484 43.625 66.1717 44.434 67.0205C47.7095 68.6524 51.0949 68.9127 54.5902 67.8018C55.9232 67.1465 57.2252 66.4629 58.4965 65.751C66.465 67.4375 71.7709 72.125 74.4144 79.8135C75.3902 83.7637 75.5205 87.735 74.805 91.7276C73.9414 93.8283 72.4115 95.1629 70.2152 95.7315C56.999 95.8617 43.783 95.8617 30.5668 95.7315C27.93 95.0479 26.2699 93.3877 25.5863 90.751C24.6254 84.4192 25.9275 78.625 29.4925 73.3682C32.6099 69.4176 36.6138 66.8785 41.5043 65.751Z" fill="white"/>
<path opacity="0.982" fill-rule="evenodd" clip-rule="evenodd" d="M14.1604 71.0244C14.9486 70.9957 15.5997 71.2886 16.1135 71.9033C19.4637 73.7802 22.8493 73.8453 26.2698 72.0986C26.7174 71.8466 27.108 71.5211 27.4416 71.122C27.9243 70.9841 28.3801 71.0492 28.8088 71.3174C23.983 77.473 22.3879 84.4066 24.0237 92.1181C24.5317 93.5361 25.3455 94.7406 26.4651 95.7314C19.2385 95.8617 12.0119 95.8617 4.78539 95.7314C2.78056 95.0939 1.51103 93.7591 0.976793 91.7275C-0.0936896 84.9775 1.82688 79.2808 6.73851 74.6377C8.94107 72.8527 11.415 71.6482 14.1604 71.0244Z" fill="white"/>
<path opacity="0.983" fill-rule="evenodd" clip-rule="evenodd" d="M72.168 71.0244C73.11 71.2084 73.9562 71.6314 74.707 72.2939C77.3895 73.5492 80.1238 73.6795 82.9102 72.6846C83.9762 72.1973 84.9854 71.6439 85.9375 71.0244C92.6395 72.4525 97.0666 76.424 99.2188 82.9385C99.391 83.5809 99.5211 84.232 99.6094 84.8916C99.7396 87.2354 99.7396 89.5791 99.6094 91.9229C98.9908 93.8434 97.7213 95.1129 95.8008 95.7314C88.5742 95.8617 81.3477 95.8617 74.1211 95.7314C75.3896 94.6572 76.2686 93.3227 76.7578 91.7275C77.8639 85.602 76.9525 79.8076 74.0234 74.3447C73.3461 73.2834 72.5975 72.2742 71.7773 71.3174C71.9562 71.2631 72.0863 71.1654 72.168 71.0244Z" fill="white"/>
</g>
<defs>
<clipPath id="clip0_1270_15786">
<rect width="100" height="100" fill="white" transform="translate(0 0.614258)"/>
</clipPath>
</defs>
</svg>
