<svg width="60" height="61" viewBox="0 0 60 61" fill="none" xmlns="http://www.w3.org/2000/svg">
<path opacity="0.976" fill-rule="evenodd" clip-rule="evenodd" d="M27.4809 3.95405C29.1234 3.91508 30.764 3.95415 32.4028 4.07124C32.7459 5.05001 33.1365 6.00705 33.5747 6.94233C35.1198 7.27567 36.5456 7.88113 37.852 8.75874C38.8126 8.22858 39.8087 7.81843 40.8403 7.52827C41.9146 8.60249 42.9887 9.6767 44.0629 10.7509C43.7728 11.7826 43.3626 12.7786 42.8325 13.7392C43.6652 15.0645 44.2706 16.4903 44.6489 18.0166C45.5729 18.4395 46.5104 18.8302 47.4614 19.1884C47.559 20.8305 47.5394 22.4711 47.4028 24.1103C46.4685 24.4671 45.5505 24.8578 44.6489 25.2822C44.2706 26.8084 43.6652 28.2342 42.8325 29.5595C43.2772 30.4687 43.7069 31.3866 44.1215 32.3134C42.9904 33.5032 41.838 34.6751 40.6645 35.8291C39.7172 35.4221 38.7797 34.9923 37.852 34.54C36.5184 35.353 35.0927 35.9584 33.5747 36.3564C33.1517 37.2804 32.761 38.2179 32.4028 39.1689C30.7608 39.2665 29.1201 39.2469 27.4809 39.1103C27.0821 38.1869 26.7306 37.2494 26.4262 36.2978C24.8505 35.9884 23.3857 35.4025 22.0317 34.54C21.104 34.9923 20.1665 35.4221 19.2192 35.8291C18.0895 34.6994 16.9568 33.5666 15.8208 32.4306C16.1437 31.4509 16.5539 30.4939 17.0512 29.5595C16.2185 28.2342 15.6131 26.8084 15.2348 25.2822C14.3332 24.8578 13.4153 24.4671 12.4809 24.1103C12.3443 22.4711 12.3247 20.8305 12.4223 19.1884C13.3733 18.8302 14.3108 18.4395 15.2348 18.0166C15.6131 16.4903 16.2185 15.0645 17.0512 13.7392C16.5211 12.7786 16.1109 11.7826 15.8208 10.7509C16.895 9.6767 17.9692 8.60249 19.0434 7.52827C20.075 7.81843 21.0711 8.22858 22.0317 8.75874C23.357 7.92604 24.7828 7.32058 26.309 6.94233C26.7803 5.97783 27.171 4.98174 27.4809 3.95405ZM29.1215 11.4541C34.6685 11.4811 38.2427 14.1373 39.8442 19.4228C40.6179 23.8227 39.2312 27.3578 35.684 30.0283C31.8559 32.4502 28.0278 32.4502 24.1997 30.0283C20.1596 26.8527 18.9292 22.8098 20.5083 17.8994C22.1818 14.1434 25.0529 11.995 29.1215 11.4541Z" fill="#031555"/>
<path opacity="0.957" fill-rule="evenodd" clip-rule="evenodd" d="M27.0114 15.6729C27.1089 17.8012 27.1675 19.9496 27.1872 22.1182C27.9982 22.6508 28.8381 23.1391 29.7067 23.583C29.8629 23.6612 30.0192 23.6612 30.1754 23.583C31.044 23.1391 31.8839 22.6508 32.695 22.1182C32.734 19.9698 32.7731 17.8212 32.8122 15.6729C36.0269 17.6202 37.0425 20.3936 35.859 23.9932C35.1592 25.4547 34.0849 26.5486 32.6364 27.2744C32.5563 28.0817 32.4782 28.8825 32.402 29.6768C30.7614 30.2237 29.1208 30.2237 27.4801 29.6768C27.404 28.8825 27.3258 28.0817 27.2458 27.2744C24.0188 25.4668 22.9055 22.7715 23.9059 19.1885C24.5102 17.6275 25.5455 16.4557 27.0114 15.6729Z" fill="#031555"/>
<path opacity="0.99" fill-rule="evenodd" clip-rule="evenodd" d="M6.38623 17.3135C7.75342 17.3135 9.1206 17.3135 10.4878 17.3135C10.4488 19.9708 10.4878 22.6271 10.605 25.2822C11.6206 25.6728 12.6362 26.0635 13.6519 26.4541C14.1024 27.5317 14.5712 28.6058 15.0581 29.6768C14.6204 30.7083 14.1517 31.7238 13.6519 32.7236C15.3315 34.4033 17.0113 36.0831 18.6909 37.7627C18.8471 37.8409 19.0035 37.8409 19.1597 37.7627C20.0707 37.3365 20.9887 36.9263 21.9136 36.5322C22.9287 37.0105 23.9638 37.4401 25.019 37.8213C25.4639 38.848 25.8935 39.8831 26.3081 40.9268C28.73 41.0049 31.1518 41.0049 33.5737 40.9268C33.9796 39.939 34.3701 38.9429 34.7456 37.9385C35.8231 37.4879 36.8973 37.0192 37.9683 36.5322C38.8931 36.9263 39.8112 37.3365 40.7222 37.7627C40.8784 37.8409 41.0347 37.8409 41.1909 37.7627C42.8706 36.0831 44.5503 34.4033 46.23 32.7236C45.7302 31.7238 45.2614 30.7083 44.8237 29.6768C45.3106 28.6058 45.7794 27.5317 46.23 26.4541C47.2456 26.0635 48.2612 25.6728 49.2769 25.2822C49.394 22.6271 49.4331 19.9708 49.394 17.3135C50.7617 17.2939 52.129 17.3135 53.4956 17.3721C54.3075 17.6761 54.8348 18.2424 55.0776 19.0713C55.1362 28.6415 55.1558 38.2119 55.1362 47.7822C38.3394 47.7822 21.5424 47.7822 4.74561 47.7822C4.72607 38.2119 4.74561 28.6415 4.8042 19.0713C5.06942 18.2401 5.59676 17.6542 6.38623 17.3135Z" fill="#031555"/>
<path opacity="0.972" fill-rule="evenodd" clip-rule="evenodd" d="M1.81641 49.54C8.10547 49.54 14.3945 49.54 20.6836 49.54C20.664 50.8687 20.6836 52.1969 20.7422 53.5244C20.8789 53.6612 21.0156 53.7978 21.1523 53.9346C24.0749 54.0697 27.0046 54.1283 29.9414 54.1104C32.8782 54.1283 35.8079 54.0697 38.7305 53.9346C38.8672 53.7978 39.0039 53.6612 39.1406 53.5244C39.1992 52.1969 39.2188 50.8687 39.1992 49.54C45.4883 49.54 51.7773 49.54 58.0664 49.54C58.1054 51.3386 58.0663 53.1355 57.9492 54.9307C53.8539 55.6783 49.7523 56.401 45.6445 57.0986C35.1758 57.1768 24.707 57.1768 14.2383 57.0986C10.0948 56.3832 5.95417 55.6605 1.81641 54.9307C1.81641 53.1338 1.81641 51.3369 1.81641 49.54Z" fill="#031555"/>
<path opacity="0.962" fill-rule="evenodd" clip-rule="evenodd" d="M22.4414 49.54C27.4414 49.54 32.4414 49.54 37.4414 49.54C37.4414 50.4385 37.4414 51.3369 37.4414 52.2354C32.4414 52.2354 27.4414 52.2354 22.4414 52.2354C22.4414 51.3369 22.4414 50.4385 22.4414 49.54Z" fill="#031555"/>
</svg>
