<svg width="60" height="60" viewBox="0 0 60 60" fill="none" xmlns="http://www.w3.org/2000/svg">
<g clip-path="url(#clip0_30_1146)">
<path opacity="0.989" fill-rule="evenodd" clip-rule="evenodd" d="M20.1719 4.00732C23.1409 3.9878 26.1097 4.00732 29.0781 4.06591C29.6055 4.28075 29.9766 4.65185 30.1914 5.1792C30.2111 6.35302 30.2697 7.52489 30.3672 8.69482C30.8508 8.9016 31.339 9.09691 31.832 9.28076C32.6277 8.60241 33.3895 7.87975 34.1172 7.11279C34.8593 6.72217 35.6016 6.72217 36.3438 7.11279C38.2773 9.04638 40.2109 10.98 42.1445 12.9136C42.5351 13.6557 42.5351 14.398 42.1445 15.1401C41.5 15.7847 40.8555 16.4292 40.2109 17.0737C36.8125 17.1519 33.4141 17.1519 30.0156 17.0737C25.9612 14.5513 22.055 14.7856 18.2969 17.7769C15.325 20.8392 14.6023 24.3744 16.1289 28.3823C16.4414 28.9292 16.7539 29.476 17.0664 30.0229C17.1446 33.4214 17.1446 36.8198 17.0664 40.2183C16.3356 41.0277 15.5349 41.7503 14.6641 42.3862C14.0467 42.5114 13.4608 42.4332 12.9063 42.1519C10.9727 40.2183 9.03906 38.2847 7.10547 36.3511C6.71485 35.6089 6.71485 34.8667 7.10547 34.1245C7.87243 33.3968 8.59509 32.6351 9.27344 31.8394C9.0896 31.3463 8.89428 30.8581 8.6875 30.3745C7.51757 30.277 6.3457 30.2184 5.17188 30.1987C4.64453 29.9839 4.27344 29.6128 4.0586 29.0854C3.98047 26.1167 3.98047 23.1479 4.0586 20.1792C4.27344 19.6519 4.64453 19.2807 5.17188 19.0659C6.39304 19.0811 7.58445 18.9835 8.7461 18.7729C8.92188 18.3238 9.09766 17.8745 9.27344 17.4253C8.59509 16.6296 7.87243 15.8679 7.10547 15.1401C6.71485 14.398 6.71485 13.6557 7.10547 12.9136C9.03906 10.98 10.9727 9.04638 12.9063 7.11279C13.6484 6.72217 14.3907 6.72217 15.1328 7.11279C15.8605 7.87975 16.6223 8.60241 17.418 9.28076C17.911 9.09691 18.3992 8.9016 18.8828 8.69482C18.9803 7.52489 19.0389 6.35302 19.0586 5.1792C19.2955 4.64951 19.6667 4.25889 20.1719 4.00732Z" fill="#031555"/>
<path opacity="0.992" fill-rule="evenodd" clip-rule="evenodd" d="M23.4527 19.0073C32.984 18.9878 42.5152 19.0073 52.0464 19.0659C54.1823 19.6002 55.608 20.9087 56.3237 22.9917C56.494 25.4073 56.5526 27.8292 56.4995 30.2573C43.9995 30.2573 31.4996 30.2573 18.9995 30.2573C18.98 27.9914 18.9995 25.7257 19.0581 23.4605C19.685 21.1345 21.1498 19.6501 23.4527 19.0073ZM38.3355 22.8745C39.0182 22.7561 39.4284 23.0294 39.5659 23.6948C39.6441 24.3198 39.6441 24.9449 39.5659 25.5698C39.3473 26.3722 38.8591 26.587 38.1011 26.2144C37.9585 26.0212 37.8609 25.8064 37.8081 25.5698C37.6777 24.7243 37.7559 23.904 38.0425 23.1089C38.1591 23.0426 38.2567 22.9644 38.3355 22.8745ZM42.0855 22.8745C42.7682 22.7561 43.1784 23.0294 43.3159 23.6948C43.3941 24.3198 43.3941 24.9449 43.3159 25.5698C43.0973 26.3722 42.6091 26.587 41.8511 26.2144C41.7085 26.0212 41.6109 25.8064 41.5581 25.5698C41.4277 24.7243 41.5059 23.904 41.7925 23.1089C41.9091 23.0426 42.0067 22.9644 42.0855 22.8745ZM45.8355 22.8745C46.5182 22.7561 46.9284 23.0294 47.0659 23.6948C47.1441 24.3198 47.1441 24.9449 47.0659 25.5698C46.8473 26.3722 46.3591 26.587 45.6011 26.2144C45.4585 26.0212 45.3609 25.8064 45.3081 25.5698C45.1777 24.7243 45.2559 23.904 45.5425 23.1089C45.6591 23.0426 45.7567 22.9644 45.8355 22.8745ZM49.5855 22.8745C50.2682 22.7561 50.6784 23.0294 50.8159 23.6948C50.8941 24.3198 50.8941 24.9449 50.8159 25.5698C50.5973 26.3722 50.1091 26.587 49.3511 26.2144C49.2085 26.0212 49.1109 25.8064 49.0581 25.5698C48.9277 24.7243 49.0059 23.904 49.2925 23.1089C49.4091 23.0426 49.5067 22.9644 49.5855 22.8745Z" fill="#031555"/>
<path opacity="0.995" fill-rule="evenodd" clip-rule="evenodd" d="M19 32.1323C31.5 32.1323 44 32.1323 56.5 32.1323C56.5 35.8823 56.5 39.6323 56.5 43.3823C44 43.3823 31.5 43.3823 19 43.3823C19 39.6323 19 35.8823 19 32.1323ZM38.3359 35.9995C39.0187 35.881 39.4288 36.1544 39.5664 36.8198C39.6446 37.4448 39.6446 38.0699 39.5664 38.6948C39.3477 39.4972 38.8595 39.712 38.1016 39.3394C37.9589 39.1462 37.8613 38.9314 37.8086 38.6948C37.6782 37.8493 37.7563 37.029 38.043 36.2339C38.1596 36.1676 38.2572 36.0894 38.3359 35.9995ZM42.0859 35.9995C42.7687 35.881 43.1788 36.1544 43.3164 36.8198C43.3946 37.4448 43.3946 38.0699 43.3164 38.6948C43.0977 39.4972 42.6095 39.712 41.8516 39.3394C41.7089 39.1462 41.6113 38.9314 41.5586 38.6948C41.4282 37.8493 41.5063 37.029 41.793 36.2339C41.9096 36.1676 42.0072 36.0894 42.0859 35.9995ZM45.8359 35.9995C46.5187 35.881 46.9288 36.1544 47.0664 36.8198C47.1446 37.4448 47.1446 38.0699 47.0664 38.6948C46.8477 39.4972 46.3595 39.712 45.6016 39.3394C45.4589 39.1462 45.3613 38.9314 45.3086 38.6948C45.1782 37.8493 45.2563 37.029 45.543 36.2339C45.6596 36.1676 45.7572 36.0894 45.8359 35.9995ZM49.5859 35.9995C50.2687 35.881 50.6788 36.1544 50.8164 36.8198C50.8946 37.4448 50.8946 38.0699 50.8164 38.6948C50.5977 39.4972 50.1095 39.712 49.3516 39.3394C49.2089 39.1462 49.1113 38.9314 49.0586 38.6948C48.9282 37.8493 49.0063 37.029 49.293 36.2339C49.4096 36.1676 49.5072 36.0894 49.5859 35.9995Z" fill="#031555"/>
<path opacity="0.992" fill-rule="evenodd" clip-rule="evenodd" d="M19.0004 45.2573C31.5004 45.2573 44.0003 45.2573 56.5004 45.2573C56.5535 47.6854 56.4949 50.1074 56.3246 52.5229C55.6088 54.606 54.1831 55.9145 52.0472 56.4487C42.516 56.5269 32.9847 56.5269 23.4535 56.4487C21.3176 55.9145 19.8919 54.606 19.1762 52.5229C19.0059 50.1074 18.9473 47.6854 19.0004 45.2573ZM38.3363 49.1245C39.019 49.006 39.4292 49.2794 39.5668 49.9448C39.6449 50.5698 39.6449 51.1949 39.5668 51.8198C39.3481 52.6222 38.8599 52.837 38.1019 52.4644C37.9593 52.2712 37.8617 52.0564 37.809 51.8198C37.6785 50.9743 37.7567 50.154 38.0433 49.3589C38.1599 49.2926 38.2576 49.2144 38.3363 49.1245ZM42.0863 49.1245C42.769 49.006 43.1792 49.2794 43.3168 49.9448C43.3949 50.5698 43.3949 51.1949 43.3168 51.8198C43.0981 52.6222 42.6099 52.837 41.8519 52.4644C41.7093 52.2712 41.6117 52.0564 41.559 51.8198C41.4285 50.9743 41.5067 50.154 41.7933 49.3589C41.9099 49.2926 42.0076 49.2144 42.0863 49.1245ZM45.8363 49.1245C46.519 49.006 46.9292 49.2794 47.0668 49.9448C47.1449 50.5698 47.1449 51.1949 47.0668 51.8198C46.8481 52.6222 46.3599 52.837 45.6019 52.4644C45.4593 52.2712 45.3617 52.0564 45.309 51.8198C45.1785 50.9743 45.2567 50.154 45.5433 49.3589C45.6599 49.2926 45.7576 49.2144 45.8363 49.1245ZM49.5863 49.1245C50.269 49.006 50.6792 49.2794 50.8168 49.9448C50.8949 50.5698 50.8949 51.1949 50.8168 51.8198C50.5981 52.6222 50.1099 52.837 49.3519 52.4644C49.2093 52.2712 49.1117 52.0564 49.059 51.8198C48.9285 50.9743 49.0067 50.154 49.2933 49.3589C49.4099 49.2926 49.5076 49.2144 49.5863 49.1245Z" fill="#031555"/>
</g>
<defs>
<clipPath id="clip0_30_1146">
<rect width="60" height="60" fill="white"/>
</clipPath>
</defs>
</svg>
