<svg width="100" height="101" viewBox="0 0 100 101" fill="none" xmlns="http://www.w3.org/2000/svg">
<path opacity="0.978" fill-rule="evenodd" clip-rule="evenodd" d="M48.9258 6.76656C49.8924 6.66087 50.804 6.82363 51.6602 7.25484C53.0003 9.08328 54.3024 10.9387 55.5665 12.8212C57.6821 13.5945 59.8305 14.2781 62.0118 14.872C63.5184 15.7714 63.9417 17.041 63.2813 18.6806C61.9792 20.3734 60.6772 22.066 59.3751 23.7587C59.31 26.2978 59.2448 28.8369 59.1798 31.3759C58.4573 32.6322 57.3831 33.1205 55.9571 32.8408C53.9563 32.0978 51.938 31.4142 49.9024 30.79C47.6401 31.5632 45.3616 32.2794 43.0665 32.9384C41.9514 32.8857 41.1376 32.3648 40.6251 31.3759C40.56 28.8369 40.4948 26.2978 40.4298 23.7587C39.1276 22.066 37.8257 20.3734 36.5235 18.6806C35.8632 17.041 36.2864 15.7714 37.793 14.872C39.9764 14.2852 42.1249 13.6016 44.2383 12.8212C45.4428 11.0634 46.6471 9.30562 47.8516 7.54781C48.2055 7.25931 48.5635 6.9989 48.9258 6.76656Z" fill="black"/>
<path opacity="0.974" fill-rule="evenodd" clip-rule="evenodd" d="M18.8479 15.1651C19.5916 15.0993 20.3076 15.197 20.9963 15.4581C22.2438 17.0312 23.4157 18.6588 24.5119 20.3409C26.3887 20.9567 28.2766 21.5427 30.176 22.0987C31.0961 22.9073 31.3891 23.9163 31.0549 25.1261C30.0229 26.6141 28.916 28.0464 27.7346 29.4229C27.6696 31.5714 27.6043 33.7198 27.5393 35.8682C26.8903 37.1198 25.8813 37.5431 24.5119 37.1378C22.9289 36.545 21.3338 35.9917 19.7268 35.4776C17.8353 36.1624 15.9147 36.7483 13.9651 37.2354C12.4247 37.1598 11.6435 36.346 11.6213 34.794C11.8292 33.0725 11.8617 31.3473 11.719 29.6182C10.4714 28.0452 9.29954 26.4175 8.20335 24.7354C7.99204 23.6091 8.35011 22.7302 9.27757 22.0987C11.1889 21.5376 13.0769 20.919 14.9416 20.2432C15.989 18.7725 16.9981 17.2751 17.969 15.7511C18.2916 15.5754 18.5845 15.3801 18.8479 15.1651Z" fill="black"/>
<path opacity="0.974" fill-rule="evenodd" clip-rule="evenodd" d="M79.199 15.1651C80.1015 15.066 80.9478 15.2288 81.738 15.6534C82.8066 17.3065 83.9461 18.9015 85.156 20.4385C86.9464 20.9918 88.7367 21.5454 90.5271 22.0987C91.4568 22.7381 91.8148 23.617 91.6013 24.7354C90.505 26.4174 89.3332 28.0452 88.0857 29.6182C87.9955 31.5754 87.9955 33.5286 88.0857 35.4776C87.5861 36.9163 86.5769 37.4696 85.0584 37.1377C83.406 36.5555 81.7459 36.002 80.0779 35.4776C78.2101 36.1436 76.322 36.7295 74.4138 37.2354C73.3961 37.2602 72.6798 36.8043 72.2654 35.8682C72.2003 33.7198 72.1351 31.5713 72.0701 29.4229C70.8886 28.0463 69.7818 26.6141 68.7498 25.126C68.4156 23.9163 68.7086 22.9073 69.6287 22.0987C71.5281 21.5426 73.416 20.9567 75.2927 20.3409C76.3093 18.9917 77.2533 17.592 78.1248 16.1416C78.4627 15.7702 78.8207 15.4447 79.199 15.1651Z" fill="black"/>
<path opacity="0.988" fill-rule="evenodd" clip-rule="evenodd" d="M48.1446 42.1182C54.3729 41.6983 58.6372 44.3677 60.9375 50.1261C62.3202 55.5493 60.7901 59.9438 56.3477 63.3097C55.1823 63.9897 53.9452 64.5106 52.6368 64.8722C59.6959 65.5573 64.6764 69.1056 67.5782 75.5167C68.0565 76.714 68.3821 77.9509 68.5547 79.2276C68.685 82.6782 68.685 86.1286 68.5547 89.5792C67.9362 92.0206 66.4063 93.5505 63.9649 94.169C54.5899 94.2993 45.2149 94.2993 35.8399 94.169C33.3985 93.5505 31.8686 92.0206 31.25 89.5792C31.1198 86.1286 31.1198 82.6782 31.25 79.2276C32.584 72.4198 36.5229 67.895 43.0665 65.6534C44.4252 65.3452 45.7924 65.0849 47.168 64.8722C41.5922 63.1905 38.6625 59.447 38.379 53.6417C38.8194 47.4075 42.0747 43.5663 48.1446 42.1182Z" fill="black"/>
<path opacity="0.981" fill-rule="evenodd" clip-rule="evenodd" d="M22.9494 44.2667C28.7424 43.6933 32.4857 46.1673 34.1799 51.6886C34.848 57.4855 32.4066 61.2288 26.8557 62.9191C29.8539 62.888 32.5883 63.7019 35.0588 65.3605C30.4273 69.2183 27.7906 74.1663 27.1486 80.2042C27.051 82.8075 27.0183 85.4118 27.051 88.0167C22.093 88.107 17.1451 88.0093 12.2072 87.7238C9.93007 86.8146 8.59544 85.1544 8.20331 82.7433C8.03503 80.0667 8.10013 77.3974 8.39862 74.7355C10.3673 67.256 15.2176 63.3173 22.9494 62.9191C18.1904 61.6441 15.7165 58.5517 15.5275 53.6417C15.7547 48.728 18.2286 45.603 22.9494 44.2667Z" fill="black"/>
<path opacity="0.981" fill-rule="evenodd" clip-rule="evenodd" d="M72.9492 44.2667C78.7422 43.6933 82.4855 46.1673 84.1797 51.6886C84.8479 57.4855 82.4064 61.2288 76.8555 62.9191C85.2129 63.464 90.1281 67.8585 91.6016 76.1027C91.7318 78.3161 91.7318 80.5298 91.6016 82.7433C91.1727 85.1308 89.8381 86.7909 87.5977 87.7238C82.6598 88.0093 77.7119 88.107 72.7539 88.0167C72.7865 85.4118 72.7539 82.8075 72.6562 80.2042C72.0143 74.1663 69.3775 69.2183 64.7461 65.3605C67.2166 63.7019 69.951 62.888 72.9492 62.9191C68.1902 61.6441 65.7162 58.5517 65.5273 53.6417C65.7545 48.728 68.2285 45.603 72.9492 44.2667Z" fill="black"/>
</svg>
