<svg width="60" height="60" viewBox="0 0 60 60" fill="none" xmlns="http://www.w3.org/2000/svg">
<g clip-path="url(#clip0_30_424)">
<path opacity="0.989" fill-rule="evenodd" clip-rule="evenodd" d="M11.0741 -0.0585938C24.746 -0.0585938 38.4178 -0.0585938 52.0898 -0.0585938C54.306 0.536539 55.7318 1.94279 56.3671 4.16016C56.4647 14.2775 56.4453 24.3948 56.3085 34.5117C51.496 31.5864 46.4569 31.1372 41.1913 33.1641C34.4537 36.5108 31.3091 41.96 31.7577 49.5117C32.4011 53.7698 34.3738 57.2464 37.6757 59.9414C28.8085 59.9414 19.9414 59.9414 11.0741 59.9414C8.96659 59.3377 7.61894 57.9705 7.03116 55.8398C6.97273 55.4119 6.95319 54.9823 6.97257 54.5508C10.6605 54.3204 12.9456 52.4064 13.828 48.8086C14.2017 45.3574 12.8541 42.8379 9.78507 41.25C8.88508 40.8708 7.94758 40.695 6.97257 40.7227C6.97257 39.4726 6.97257 38.2227 6.97257 36.9727C10.6605 36.7423 12.9456 34.8282 13.828 31.2305C14.2017 27.7793 12.8541 25.2598 9.78507 23.6719C8.88508 23.2927 7.94758 23.1169 6.97257 23.1445C6.97257 21.8164 6.97257 20.4882 6.97257 19.1602C10.6605 18.9298 12.9456 17.0157 13.828 13.418C14.2017 9.96677 12.8541 7.44724 9.78507 5.85938C8.88508 5.48014 7.94758 5.30436 6.97257 5.33203C6.91844 3.42863 7.66062 1.92471 9.19913 0.820312C9.79715 0.446396 10.4221 0.153428 11.0741 -0.0585938ZM29.2382 7.08984C31.0279 6.99963 31.7114 7.81995 31.289 9.55078C28.89 12.067 26.4485 14.5474 23.9648 16.9922C23.1835 17.5391 22.4023 17.5391 21.621 16.9922C20.0705 15.5201 18.6057 13.9772 17.2265 12.3633C16.9242 11.0416 17.4516 10.2604 18.8085 10.0195C19.1824 10.0986 19.534 10.2353 19.8632 10.4297C20.8219 11.4079 21.7984 12.3649 22.7929 13.3008C24.9113 11.1821 27.0597 9.11177 29.2382 7.08984ZM36.8554 10.4883C40.3712 10.4688 43.8869 10.4883 47.4023 10.5469C48.6667 10.789 49.194 11.5508 48.9843 12.832C48.6546 13.4761 48.1273 13.8471 47.4023 13.9453C43.8866 14.0235 40.371 14.0235 36.8554 13.9453C35.2115 13.5278 34.8013 12.5708 35.6249 11.0742C35.9937 10.7626 36.4039 10.5673 36.8554 10.4883ZM29.2382 21.3867C31.0279 21.2965 31.7114 22.1168 31.289 23.8477C28.89 26.3639 26.4485 28.8443 23.9648 31.2891C23.1835 31.836 22.4023 31.836 21.621 31.2891C20.0705 29.817 18.6057 28.2741 17.2265 26.6602C16.9242 25.3385 17.4516 24.5572 18.8085 24.3164C19.1824 24.3955 19.534 24.5323 19.8632 24.7266C20.8219 25.7048 21.7984 26.6618 22.7929 27.5977C24.9113 25.4789 27.0597 23.4087 29.2382 21.3867ZM36.8554 24.7852C40.3712 24.7656 43.8869 24.7852 47.4023 24.8438C48.6667 25.086 49.194 25.8477 48.9843 27.1289C48.6546 27.773 48.1273 28.144 47.4023 28.2422C43.8866 28.3204 40.371 28.3204 36.8554 28.2422C35.2115 27.8246 34.8013 26.8677 35.6249 25.3711C35.9937 25.0595 36.4039 24.8641 36.8554 24.7852ZM29.2382 35.4492C31.0279 35.359 31.7114 36.1793 31.289 37.9102C28.89 40.4264 26.4485 42.9068 23.9648 45.3516C23.1835 45.8985 22.4023 45.8985 21.621 45.3516C20.0705 43.8795 18.6057 42.3366 17.2265 40.7227C16.9242 39.401 17.4516 38.6197 18.8085 38.3789C19.1824 38.458 19.534 38.5948 19.8632 38.7891C20.8219 39.7673 21.7984 40.7243 22.7929 41.6602C24.9113 39.5414 27.0597 37.4712 29.2382 35.4492Z" fill="#031555"/>
<path opacity="0.978" fill-rule="evenodd" clip-rule="evenodd" d="M-0.0585938 13.1836C-0.0585938 12.5586 -0.0585938 11.9336 -0.0585938 11.3086C0.349731 10.0215 1.20911 9.18166 2.51953 8.78907C4.3164 8.71094 6.11329 8.71094 7.91016 8.78907C9.9427 9.55183 10.7826 11.0167 10.4297 13.1836C10.0586 14.4922 9.21875 15.332 7.91016 15.7031C6.11329 15.7813 4.3164 15.7813 2.51953 15.7031C1.20911 15.3106 0.349731 14.4707 -0.0585938 13.1836Z" fill="#031555"/>
<path opacity="0.978" fill-rule="evenodd" clip-rule="evenodd" d="M-0.0585938 30.9961C-0.0585938 30.3712 -0.0585938 29.7461 -0.0585938 29.1211C0.349731 27.8341 1.20911 26.9942 2.51953 26.6016C4.3164 26.5234 6.11329 26.5234 7.91016 26.6016C9.9427 27.3644 10.7826 28.8292 10.4297 30.9961C10.0586 32.3048 9.21875 33.1445 7.91016 33.5157C6.11329 33.5938 4.3164 33.5938 2.51953 33.5157C1.20911 33.1231 0.349731 32.2832 -0.0585938 30.9961Z" fill="#031555"/>
<path opacity="0.986" fill-rule="evenodd" clip-rule="evenodd" d="M59.9416 45.9962C59.9416 47.0899 59.9416 48.1837 59.9416 49.2774C58.6679 55.2387 55.0351 58.7933 49.0432 59.9415C47.9495 59.9415 46.8557 59.9415 45.762 59.9415C39.8259 58.7906 36.2909 55.236 35.1565 49.2774C34.6832 43.2097 37.1637 38.8543 42.5979 36.211C48.8905 34.1258 54.0272 35.7078 58.0081 40.9571C58.9679 42.53 59.6125 44.2097 59.9416 45.9962ZM46.8166 42.4806C48.0966 42.3279 48.8583 42.8748 49.1018 44.1212C49.1603 44.7058 49.1799 45.2918 49.1604 45.879C49.9491 45.8469 50.7304 45.9055 51.5041 46.0548C52.671 46.777 52.8663 47.7145 52.0901 48.8673C51.7531 49.1529 51.3624 49.3091 50.9182 49.336C49.5452 49.44 48.178 49.401 46.8166 49.2188C46.1726 48.8892 45.8016 48.3619 45.7034 47.6368C45.6252 46.4649 45.6252 45.2931 45.7034 44.1212C45.8158 43.3856 46.1869 42.8387 46.8166 42.4806Z" fill="#031555"/>
<path opacity="0.978" fill-rule="evenodd" clip-rule="evenodd" d="M-0.0585938 48.5742C-0.0585938 47.9493 -0.0585938 47.3242 -0.0585938 46.6992C0.349731 45.4122 1.20911 44.5723 2.51953 44.1797C4.3164 44.1016 6.11329 44.1016 7.91016 44.1797C9.9427 44.9425 10.7826 46.4073 10.4297 48.5742C10.0586 49.8829 9.21875 50.7226 7.91016 51.0938C6.11329 51.1719 4.3164 51.1719 2.51953 51.0938C1.20911 50.7012 0.349731 49.8613 -0.0585938 48.5742Z" fill="#031555"/>
</g>
<defs>
<clipPath id="clip0_30_424">
<rect width="60" height="60" fill="white"/>
</clipPath>
</defs>
</svg>
