<svg width="60" height="61" viewBox="0 0 60 61" fill="none" xmlns="http://www.w3.org/2000/svg">
<path opacity="0.958" fill-rule="evenodd" clip-rule="evenodd" d="M28.7695 3.48532C35.6252 3.34806 40.9181 6.1215 44.6484 11.8056C46.0447 14.1977 46.826 16.7758 46.9922 19.54C47.3764 19.9243 47.7672 20.315 48.1641 20.7119C48.3135 20.9717 48.4307 21.2452 48.5156 21.5322C48.5938 23.915 48.5938 26.2979 48.5156 28.6806C47.9072 30.4362 46.6767 31.1198 44.8242 30.7314C44.5764 30.6661 44.342 30.5684 44.1211 30.4384C41.882 31.907 39.4211 32.7468 36.7383 32.958C36.3621 33.0987 36.0496 33.3331 35.8008 33.6611C35.5412 33.7834 35.2678 33.8615 34.9805 33.8955C34.1602 33.9736 33.3398 33.9736 32.5195 33.8955C31.0235 33.501 30.5743 32.5831 31.1719 31.1416C31.399 30.8362 31.692 30.6214 32.0508 30.497C33.1836 30.4189 34.3164 30.4189 35.4492 30.497C35.7846 30.606 36.058 30.8014 36.2695 31.083C38.6865 30.9769 40.9131 30.2738 42.9492 28.9736C42.864 28.8097 42.8054 28.6339 42.7734 28.4463C42.6953 26.2587 42.6953 24.0713 42.7734 21.8838C42.9245 21.0113 43.3738 20.3473 44.1211 19.8916C44.0263 15.9712 42.542 12.6704 39.668 9.98923C35.0295 6.09114 29.8732 5.23177 24.1992 7.4111C19.4667 9.68459 16.6347 13.4151 15.7031 18.6025C15.6064 19.0374 15.6259 19.4671 15.7617 19.8916C16.509 20.3473 16.9583 21.0113 17.1094 21.8838C17.1875 24.0713 17.1875 26.2587 17.1094 28.4463C16.3738 30.6202 14.9089 31.3038 12.7148 30.497C11.9952 30.0902 11.546 29.4848 11.3672 28.6806C11.2891 26.2979 11.2891 23.915 11.3672 21.5322C11.4521 21.2452 11.5693 20.9717 11.7188 20.7119C12.1157 20.315 12.5064 19.9243 12.8906 19.54C13.6859 11.9111 17.6898 6.81344 24.9023 4.24704C26.1882 3.89215 27.4773 3.63824 28.7695 3.48532Z" fill="#031555"/>
<path opacity="0.99" fill-rule="evenodd" clip-rule="evenodd" d="M29.7072 8.87598C35.5839 8.87709 39.3145 11.6896 40.8986 17.3135C41.7165 21.3909 41.2087 25.2971 39.3752 29.0322C38.6506 29.3532 37.8889 29.5484 37.09 29.6182C36.394 29.2759 35.6519 29.0611 34.8635 28.9736C33.843 28.8855 32.8273 28.9245 31.8166 29.0908C29.8735 29.8323 29.1508 31.2189 29.6486 33.251C30.1543 34.4214 31.0332 35.105 32.2853 35.3018C33.3831 35.3899 34.4769 35.3703 35.5666 35.2432C35.2197 36.4551 35.5322 37.4512 36.5041 38.2314C37.8981 39.0845 39.3826 39.7486 40.9572 40.2236C43.3699 41.234 45.6355 42.4841 47.7541 43.9736C50.5754 46.1735 51.4934 49.0056 50.508 52.4697C49.971 53.4857 49.2093 54.2866 48.2228 54.8721C46.8248 55.6507 45.3404 56.1975 43.7697 56.5127C39.1804 57.3499 34.5515 57.721 29.883 57.626C25.3297 57.7346 20.8179 57.3636 16.3478 56.5127C14.6446 56.1404 13.043 55.5154 11.5431 54.6377C8.97355 52.634 8.32902 50.1145 9.60955 47.0791C10.1551 46.0639 10.8777 45.185 11.7775 44.4424C15.2504 41.9243 19.0004 39.893 23.0275 38.3486C24.4658 37.4714 24.8759 36.2409 24.258 34.6572C22.6546 32.6236 21.2875 30.436 20.1564 28.0947C18.431 23.928 18.2747 19.7093 19.6877 15.4385C21.6763 11.2061 25.0162 9.01857 29.7072 8.87598Z" fill="#031555"/>
</svg>
