<svg width="100" height="101" viewBox="0 0 100 101" fill="none" xmlns="http://www.w3.org/2000/svg">
<g clip-path="url(#clip0_1270_15805)">
<path opacity="0.972" fill-rule="evenodd" clip-rule="evenodd" d="M99.9023 9.89156C99.9023 11.1285 99.9023 12.3655 99.9023 13.6025C98.0344 18.7494 94.3885 20.8001 88.9648 19.7548C88.3096 19.5366 87.691 19.2436 87.1094 18.8759C82.1615 21.8707 77.2135 24.8656 72.2656 27.8603C71.9402 33.85 68.7826 36.8123 62.793 36.747C59.0131 36.0601 56.5391 33.8791 55.3711 30.2041C50.8762 27.9078 46.3516 25.6941 41.7969 23.5634C38.7457 25.8925 35.458 26.3158 31.9336 24.833C26.6602 28.8043 21.3867 32.7757 16.1133 36.747C17.4566 41.7675 15.7639 45.3484 11.0352 47.4892C5.47865 48.6839 1.76772 46.6332 -0.0976562 41.3369C-0.0976562 40.1 -0.0976562 38.8628 -0.0976562 37.6259C1.71213 32.39 5.35797 30.3392 10.8398 31.4736C11.3835 31.6478 11.9044 31.8755 12.4023 32.1572C17.7034 28.256 22.9768 24.3171 28.2227 20.3408C26.8982 16.5236 27.7447 13.2684 30.7617 10.5752C33.9947 8.51853 37.315 8.38833 40.7227 10.1845C43.4373 12.2288 44.7393 14.9632 44.6289 18.3877C48.5828 20.3484 52.5217 22.3339 56.4453 24.3447C58.726 20.6187 62.0137 19.2841 66.3086 20.3408C67.5697 20.7429 68.6766 21.3941 69.6289 22.2939C69.8242 22.4242 70.0195 22.4242 70.2148 22.2939C74.3814 19.8199 78.5482 17.346 82.7148 14.872C83.0717 14.6964 83.332 14.436 83.4961 14.0908C82.4604 9.19593 84.2182 5.74542 88.7695 3.73921C92.3547 2.70669 95.4471 3.5205 98.0469 6.18062C98.8814 7.32874 99.4998 8.56572 99.9023 9.89156Z" fill="white"/>
<path opacity="0.988" fill-rule="evenodd" clip-rule="evenodd" d="M99.9024 38.4073C99.9024 57.6782 99.9024 76.9489 99.9024 96.2198C99.3684 97.1104 98.5872 97.6637 97.5586 97.8799C93.5874 98.0102 89.6159 98.0102 85.6446 97.8799C84.3325 97.6747 83.5188 96.926 83.2032 95.6338C83.0729 76.6885 83.0729 57.7432 83.2032 38.7979C83.4778 37.8071 84.0961 37.1235 85.0586 36.7471C89.3555 36.6168 93.6524 36.6168 97.9493 36.7471C98.878 36.9934 99.529 37.5469 99.9024 38.4073Z" fill="white"/>
<path opacity="0.987" fill-rule="evenodd" clip-rule="evenodd" d="M29.9805 42.1182C34.0174 42.0856 38.054 42.1182 42.0899 42.2158C43.279 42.4287 44.0276 43.1123 44.336 44.2666C44.4663 61.4541 44.4663 78.6416 44.336 95.8291C44.0276 96.9834 43.279 97.667 42.0899 97.8799C38.0534 98.0102 34.017 98.0102 29.9805 97.8799C28.8815 97.693 28.1329 97.0744 27.7344 96.0244C27.6042 78.7067 27.6042 61.3891 27.7344 44.0713C28.1661 43.019 28.9147 42.368 29.9805 42.1182Z" fill="white"/>
<path opacity="0.986" fill-rule="evenodd" clip-rule="evenodd" d="M57.5196 53.251C61.6868 53.2184 65.8534 53.251 70.0196 53.3487C71.0104 53.6233 71.694 54.2416 72.0704 55.2041C72.2006 68.811 72.2006 82.4176 72.0704 96.0244C71.7887 96.7617 71.3004 97.3151 70.6055 97.6846C66.3186 98.0016 62.0217 98.0666 57.7149 97.8799C56.5258 97.667 55.7772 96.9834 55.4688 95.8291C55.3385 82.3526 55.3385 68.876 55.4688 55.3994C55.7977 54.3221 56.4813 53.6061 57.5196 53.251Z" fill="white"/>
<path opacity="0.984" fill-rule="evenodd" clip-rule="evenodd" d="M-0.0976562 96.2198C-0.0976562 86.1938 -0.0976562 76.1676 -0.0976562 66.1417C0.341961 65.3643 0.993002 64.811 1.85547 64.4815C6.08725 64.3512 10.319 64.3512 14.5508 64.4815C15.625 64.7745 16.3086 65.4581 16.6016 66.5323C16.7318 76.2329 16.7318 85.9333 16.6016 95.6338C16.286 96.926 15.4722 97.6747 14.1602 97.8799C10.1888 98.0102 6.21744 98.0102 2.24609 97.8799C1.21759 97.6637 0.436344 97.1104 -0.0976562 96.2198Z" fill="white"/>
</g>
<defs>
<clipPath id="clip0_1270_15805">
<rect width="100" height="100" fill="white" transform="translate(0 0.614258)"/>
</clipPath>
</defs>
</svg>
