<svg width="60" height="60" viewBox="0 0 60 60" fill="none" xmlns="http://www.w3.org/2000/svg">
<path opacity="0.987" fill-rule="evenodd" clip-rule="evenodd" d="M27.9493 6.50382C35.6746 6.03805 41.241 9.24117 44.6486 16.1132C45.4869 18.0992 45.8971 20.1695 45.879 22.3241C51.1566 22.7389 54.6918 25.4342 56.4845 30.4101C57.8297 36.448 55.8179 40.9598 50.4493 43.9452C48.8503 44.6948 47.1707 45.0072 45.4103 44.8827C46.051 44.1246 46.7346 43.4019 47.4611 42.7148C48.9455 40.4492 48.9455 38.1835 47.4611 35.9179C46.2539 34.4842 44.7109 33.7225 42.8321 33.6327C39.125 28.0464 33.9298 25.6636 27.2462 26.4843C24.3989 26.9996 21.9575 28.2691 19.922 30.2929C19.136 31.459 18.6868 32.7481 18.5743 34.1601C18.0906 34.3825 17.6218 34.6364 17.1681 34.9218C15.3444 36.6672 13.606 38.4836 11.9532 40.371C11.3237 41.6371 11.1479 42.9652 11.4259 44.3554C9.29583 43.7311 7.5185 42.5593 6.09386 40.8398C3.05368 36.6082 2.78024 32.1941 5.27355 27.5976C7.33532 24.5421 10.2064 22.8234 13.8868 22.4413C14.2929 15.0413 17.9257 9.98271 24.7853 7.26554C25.8421 6.95238 26.8968 6.69847 27.9493 6.50382Z" fill="#031555"/>
<path opacity="0.965" fill-rule="evenodd" clip-rule="evenodd" d="M28.3009 29.9413C34.7716 29.5906 39.0099 32.4812 41.0158 38.6132C41.8622 37.3982 42.9365 37.1052 44.2384 37.7343C45.0749 38.5558 45.2117 39.4737 44.6486 40.4882C43.2619 41.8749 41.8751 43.2617 40.4884 44.6483C39.7072 45.1953 38.926 45.1953 38.1447 44.6483C36.758 43.2617 35.3712 41.8749 33.9845 40.4882C33.3568 38.3426 34.1575 37.3465 36.3869 37.4999C34.1809 34.2511 31.1731 33.1574 27.3634 34.2186C26.5483 34.5872 25.767 35.0168 25.0197 35.5077C22.7587 35.6679 21.997 34.6718 22.7345 32.5194C24.3527 31.134 26.2082 30.2746 28.3009 29.9413Z" fill="#031555"/>
<path opacity="0.966" fill-rule="evenodd" clip-rule="evenodd" d="M20.332 37.3242C20.8323 37.3516 21.301 37.4884 21.7382 37.7344C23.1249 39.1211 24.5117 40.5079 25.8984 41.8945C26.5601 43.1736 26.2672 44.1697 25.0195 44.8828C24.5028 44.9452 23.9949 44.9452 23.496 44.8828C25.701 48.1313 28.7089 49.225 32.5195 48.1641C33.3346 47.7955 34.1159 47.3659 34.8632 46.875C37.1243 46.7148 37.886 47.7109 37.1484 49.8633C34.0382 52.3646 30.5422 53.0873 26.6601 52.0312C22.6164 50.6438 20.0187 47.8898 18.8671 43.7695C18.0207 44.9845 16.9464 45.2775 15.6445 44.6484C14.808 43.827 14.6712 42.909 15.2343 41.8945C16.621 40.5079 18.0078 39.1211 19.3945 37.7344C19.706 37.5612 20.0185 37.4244 20.332 37.3242Z" fill="#031555"/>
</svg>
