<svg width="60" height="61" viewBox="0 0 60 61" fill="none" xmlns="http://www.w3.org/2000/svg">
<g clip-path="url(#clip0_1847_5657)">
<path opacity="0.991" fill-rule="evenodd" clip-rule="evenodd" d="M59.9414 6.64942C59.9414 16.6104 59.9414 26.5713 59.9414 36.5322C39.9414 36.5322 19.9414 36.5322 -0.0585938 36.5322C-0.0585938 26.5713 -0.0585938 16.6104 -0.0585938 6.64942C0.466935 4.93258 1.59975 3.8193 3.33984 3.30957C21.0742 3.23144 38.8086 3.23144 56.543 3.30957C58.2831 3.8193 59.4158 4.93258 59.9414 6.64942ZM28.1836 6.64942C29.3555 6.64942 30.5273 6.64942 31.6992 6.64942C31.6992 8.1338 31.6992 9.61816 31.6992 11.1025C33.4839 11.3198 35.1635 11.8667 36.7383 12.7432C37.8499 11.6902 38.9436 10.6159 40.0195 9.52051C40.9152 10.1608 41.7355 10.9225 42.4805 11.8057C41.5838 12.761 40.6658 13.6985 39.7266 14.6182C39.6484 14.7354 39.6484 14.8525 39.7266 14.9697C41.9179 16.9448 43.578 19.2886 44.707 22.001C42.6502 26.8118 39.2127 30.2297 34.3945 32.2549C29.6807 33.6763 25.3447 32.9341 21.3867 30.0283C18.6359 27.8428 16.5656 25.1475 15.1758 21.9424C16.3935 19.2008 18.1123 16.818 20.332 14.7939C19.3343 13.8157 18.3577 12.8196 17.4023 11.8057C18.1819 10.9675 18.9826 10.1472 19.8047 9.34473C20.9375 10.4775 22.0703 11.6104 23.2031 12.7432C24.7507 11.8562 26.4108 11.3094 28.1836 11.1025C28.1836 9.61816 28.1836 8.1338 28.1836 6.64942ZM29.1211 16.4932C32.8635 16.4288 34.9729 18.2452 35.4492 21.9424C35.2586 24.7501 33.8133 26.5469 31.1133 27.333C28.3308 27.7484 26.28 26.7132 24.9609 24.2275C23.916 21.2294 24.7168 18.8661 27.3633 17.1377C27.9415 16.8608 28.5274 16.646 29.1211 16.4932Z" fill="#031555"/>
<path opacity="0.954" fill-rule="evenodd" clip-rule="evenodd" d="M28.7695 14.3838C31.9309 14.1681 34.7043 15.086 37.0898 17.1377C38.6687 18.5394 39.9578 20.1606 40.957 22.001C39.411 24.8947 37.1844 27.1017 34.2773 28.6221C30.1329 30.2555 26.3439 29.6695 22.9102 26.8643C21.3155 25.4272 19.9874 23.7866 18.9258 21.9424C20.4882 19.1299 22.6758 16.9424 25.4883 15.3799C26.5629 14.9362 27.6566 14.6041 28.7695 14.3838ZM29.1211 16.4932C28.5274 16.646 27.9415 16.8608 27.3633 17.1377C24.7168 18.8661 23.916 21.2294 24.9609 24.2276C26.28 26.7132 28.3308 27.7485 31.1133 27.333C33.8133 26.5469 35.2586 24.7501 35.4492 21.9424C34.9729 18.2453 32.8635 16.4289 29.1211 16.4932Z" fill="#031555"/>
<path opacity="0.933" fill-rule="evenodd" clip-rule="evenodd" d="M29.5902 19.8916C31.4605 19.9445 32.2222 20.882 31.8754 22.7041C31.2516 23.9021 30.2945 24.2731 29.0043 23.8174C27.9171 23.0461 27.6632 22.05 28.2425 20.8291C28.5867 20.3455 29.0359 20.0329 29.5902 19.8916Z" fill="#031555"/>
<path opacity="0.988" fill-rule="evenodd" clip-rule="evenodd" d="M-0.0585938 39.9307C19.9414 39.9307 39.9414 39.9307 59.9414 39.9307C59.9414 42.04 59.9414 44.1494 59.9414 46.2588C59.4158 47.9756 58.2831 49.0889 56.543 49.5986C50.9963 49.6572 45.4494 49.6768 39.9023 49.6572C40.0648 51.185 40.2601 52.7084 40.4883 54.2275C41.6211 54.2275 42.7539 54.2275 43.8867 54.2275C43.8867 55.4384 43.8867 56.6495 43.8867 57.8604C34.5899 57.8604 25.2929 57.8604 15.9961 57.8604C15.9961 56.6495 15.9961 55.4384 15.9961 54.2275C17.1289 54.2275 18.2617 54.2275 19.3945 54.2275C19.6227 52.7084 19.818 51.185 19.9805 49.6572C14.4334 49.6768 8.88659 49.6572 3.33984 49.5986C1.59567 49.0848 0.46286 47.9715 -0.0585938 46.2588C-0.0585938 44.1494 -0.0585938 42.04 -0.0585938 39.9307ZM27.5977 43.0947C29.1601 43.0947 30.7227 43.0947 32.2852 43.0947C32.2852 44.2666 32.2852 45.4385 32.2852 46.6104C30.7227 46.6104 29.1601 46.6104 27.5977 46.6104C27.5977 45.4385 27.5977 44.2666 27.5977 43.0947Z" fill="#031555"/>
</g>
<defs>
<clipPath id="clip0_1847_5657">
<rect width="60" height="60" fill="white" transform="translate(0 0.614258)"/>
</clipPath>
</defs>
</svg>
