<svg width="101" height="100" viewBox="0 0 101 100" fill="none" xmlns="http://www.w3.org/2000/svg">
<path opacity="0.946" fill-rule="evenodd" clip-rule="evenodd" d="M83.2148 3.02735C83.5359 2.98565 83.8289 3.05075 84.0938 3.22266C84.7855 5.13582 85.5344 7.02385 86.3398 8.88672C88.4168 9.05957 90.5002 9.22233 92.5898 9.375C92.7957 9.64602 92.8281 9.93899 92.6875 10.2539C91.0668 11.5347 89.4717 12.8368 87.9023 14.1602C88.4207 15.9082 88.909 17.666 89.3672 19.4336C89.6379 20.5313 89.2797 20.8242 88.293 20.3125C86.7568 19.2649 85.1943 18.2558 83.6055 17.2852C82.0098 18.2456 80.4473 19.2547 78.918 20.3125C78.5576 20.5328 78.167 20.6305 77.7461 20.6055C78.1717 18.3841 78.5949 16.1706 79.0156 13.9648C77.3869 12.6285 75.7918 11.2613 74.2305 9.86329C74.2955 9.73307 74.3607 9.60288 74.4258 9.47266C76.5 9.20414 78.5832 9.04137 80.6758 8.98438C81.6006 7.03645 82.4471 5.05077 83.2148 3.02735Z" fill="white"/>
<path opacity="0.929" fill-rule="evenodd" clip-rule="evenodd" d="M67.9805 17.2851C68.9592 17.2527 69.9357 17.2852 70.9102 17.3827C71.3334 17.5455 71.6264 17.8385 71.7891 18.2616C71.6355 21.1384 71.31 24.0028 70.8125 26.8554C70.6393 27.8235 70.0533 28.3443 69.0547 28.4179C67.9205 28.2013 67.4322 27.5177 67.5898 26.3671C67.708 25.3484 67.8057 24.3392 67.8828 23.3398C49.5232 39.3157 28.7225 51.2624 5.48047 59.1796C4.18131 59.4411 3.40006 58.9204 3.13672 57.6171C3.21545 57.0532 3.47588 56.5974 3.91797 56.2499C26.8553 48.3691 47.4281 36.5851 65.6367 20.8984C64.3379 20.9579 63.0357 20.9579 61.7305 20.8984C60.5328 19.9907 60.4678 19.0142 61.5352 17.9687C63.6953 17.6544 65.8438 17.4265 67.9805 17.2851Z" fill="white"/>
<path opacity="0.979" fill-rule="evenodd" clip-rule="evenodd" d="M79.1128 28.2227C82.1083 28.1901 85.1031 28.2227 88.0972 28.3203C88.1949 28.418 88.2925 28.5157 88.3902 28.6133C88.5204 38.0533 88.5204 47.4936 88.3902 56.9336C87.7017 57.2397 87.0181 57.5651 86.3394 57.9102C85.538 57.4444 84.6917 57.0864 83.8003 56.836C83.4423 56.7383 83.2144 56.5104 83.1167 56.1524C82.7126 55.0379 82.2896 53.9313 81.8472 52.8321C80.748 52.6377 79.6413 52.5725 78.5269 52.6367C78.4943 44.7588 78.5269 36.8813 78.6245 29.0039C78.7538 28.7141 78.9167 28.4537 79.1128 28.2227Z" fill="white"/>
<path opacity="0.969" fill-rule="evenodd" clip-rule="evenodd" d="M60.9494 37.4024C63.8798 37.3698 66.8095 37.4024 69.7384 37.5C69.9664 37.5977 70.1291 37.7604 70.2267 37.9883C70.357 44.2383 70.357 50.4883 70.2267 56.7383C69.3162 57.0469 68.4373 57.4375 67.59 57.9102C66.3058 57.3494 65.0363 56.7635 63.7814 56.1524C62.7369 57.2295 61.6627 58.2711 60.5587 59.2774C60.3308 52.1819 60.2984 45.0856 60.4611 37.9883C60.6652 37.8178 60.8279 37.6225 60.9494 37.4024Z" fill="white"/>
<path opacity="0.98" fill-rule="evenodd" clip-rule="evenodd" d="M42.5899 46.7774C45.6504 46.7448 48.7104 46.7774 51.7696 46.875C51.8672 46.9727 51.9649 47.0703 52.0625 47.168C52.1928 59.8633 52.1928 72.5586 52.0625 85.2539C51.8999 85.4166 51.737 85.5795 51.5743 85.7422C48.6446 85.8725 45.7149 85.8725 42.7852 85.7422C42.6225 85.5795 42.4596 85.4166 42.2969 85.2539C42.1667 72.5586 42.1667 59.8633 42.2969 47.168C42.437 47.0617 42.5346 46.9315 42.5899 46.7774Z" fill="white"/>
<path opacity="0.971" fill-rule="evenodd" clip-rule="evenodd" d="M74.035 55.5665C75.9924 55.5017 77.9456 55.5667 79.8944 55.7618C80.3436 56.8538 80.7342 57.9607 81.0663 59.0821C82.8811 59.4812 84.6063 60.1321 86.2421 61.0353C87.3708 60.5169 88.5102 60.0937 89.66 59.7657C90.9975 61.0706 92.2997 62.4052 93.5663 63.7696C93.11 64.8122 92.6542 65.854 92.1991 66.8946C93.0823 68.5679 93.7333 70.3257 94.1522 72.1681C95.2817 72.4796 96.3883 72.8702 97.4725 73.34C97.6676 75.2888 97.7327 77.2419 97.6678 79.1993C96.3967 79.481 95.2249 79.9692 94.1522 80.6642C93.6327 82.322 92.9817 83.9169 92.1991 85.4493C92.6003 86.5775 93.0559 87.6841 93.5663 88.7696C92.2997 90.1341 90.9975 91.4687 89.66 92.7735C88.4938 92.4046 87.3546 91.9163 86.2421 91.3087C84.6911 92.2628 83.0309 92.979 81.2616 93.4571C80.8075 94.4921 80.3516 95.5337 79.8944 96.5821C77.9413 96.8425 75.9881 96.8425 74.035 96.5821C73.5778 95.5337 73.1219 94.4921 72.6678 93.4571C71.0772 93.0521 69.5797 92.4335 68.1756 91.6017C67.8501 91.4714 67.5247 91.4714 67.1991 91.6017C66.245 92.1136 65.2684 92.5042 64.2694 92.7735C62.9319 91.4687 61.6297 90.1341 60.3631 88.7696C60.8735 87.6841 61.3292 86.5775 61.7303 85.4493C60.9477 83.9169 60.2967 82.322 59.7772 80.6642C58.7046 79.9692 57.5327 79.481 56.2616 79.1993C56.1967 77.2419 56.2618 75.2888 56.4569 73.34C57.5489 72.8907 58.6557 72.5001 59.7772 72.1681C60.1962 70.3257 60.8471 68.5679 61.7303 66.8946C61.2047 65.803 60.7815 64.6962 60.4608 63.5743C61.7657 62.2368 63.1003 60.9347 64.4647 59.6681C65.5276 60.1507 66.6018 60.6064 67.6874 61.0353C69.3231 60.1321 71.0483 59.4812 72.8631 59.0821C73.2524 57.9122 73.643 56.7403 74.035 55.5665ZM75.4022 66.6993C81.345 66.4284 85.0233 69.1628 86.4374 74.9025C86.7051 80.7525 84.0034 84.3657 78.3319 85.7423C72.4819 86.0101 68.8686 83.3083 67.4921 77.6368C67.2422 71.8692 69.879 68.2234 75.4022 66.6993Z" fill="white"/>
<path opacity="0.975" fill-rule="evenodd" clip-rule="evenodd" d="M24.6211 56.9336C27.5516 56.901 30.4813 56.9336 33.4102 57.0313C33.5729 57.194 33.7358 57.3569 33.8985 57.5196C34.0288 66.7643 34.0288 76.0092 33.8985 85.2539C33.7358 85.4166 33.5729 85.5795 33.4102 85.7422C30.4805 85.8725 27.5508 85.8725 24.6211 85.7422C24.4584 85.5795 24.2956 85.4166 24.1329 85.2539C24.0026 76.0092 24.0026 66.7643 24.1329 57.5196C24.337 57.3491 24.4997 57.1537 24.6211 56.9336Z" fill="white"/>
<path opacity="0.976" fill-rule="evenodd" clip-rule="evenodd" d="M6.26172 66.8946C9.32231 66.8619 12.3822 66.8946 15.4414 66.9922C15.5636 67.1387 15.6613 67.3016 15.7344 67.4805C15.8646 73.4049 15.8646 79.3295 15.7344 85.2539C15.5581 85.4885 15.3302 85.6514 15.0508 85.7422C12.1862 85.8725 9.32163 85.8725 6.45704 85.7422C6.22917 85.6446 6.06641 85.4819 5.96875 85.2539C5.83854 79.2643 5.83854 73.2748 5.96875 67.2852C6.10883 67.1789 6.20649 67.0487 6.26172 66.8946Z" fill="white"/>
</svg>
