<svg width="149" height="148" viewBox="0 0 149 148" fill="none" xmlns="http://www.w3.org/2000/svg">
<rect x="0.5" width="148" height="148" rx="24" fill="#E3E6ED"/>
<g clip-path="url(#clip0_1_3354)">
<path opacity="0.963" fill-rule="evenodd" clip-rule="evenodd" d="M54.4806 23.9023C55.9128 23.9023 57.3453 23.9023 58.7775 23.9023C62.7525 25.1752 66.3333 27.1609 69.5197 29.8594C71.1472 31.2591 72.7749 32.6588 74.4025 34.0586C77.2568 31.4965 80.2515 29.1202 83.3868 26.9297C85.4978 25.6455 87.7113 24.6364 90.0275 23.9023C91.4597 23.9023 92.8921 23.9023 94.3243 23.9023C100.876 25.4086 104.945 29.4451 106.531 36.0117C107.338 43.4164 104.441 48.7875 97.84 52.125C93.1171 53.9375 88.6249 53.4816 84.3634 50.7578C82.6027 49.6822 80.9099 48.5104 79.2853 47.2422C77.6577 45.8424 76.03 44.4428 74.4025 43.043C71.5482 45.6051 68.5535 47.9814 65.4181 50.1719C57.9921 54.9119 51.2538 54.098 45.2033 47.7305C42.3722 43.9277 41.4607 39.6959 42.4689 35.0352C44.3279 28.9759 48.3318 25.2649 54.4806 23.9023ZM55.0665 29.957C57.1144 29.6741 59.0025 30.0973 60.7306 31.2266C64.0488 33.3398 67.1085 35.7812 69.9103 38.5508C67.1085 41.3204 64.0488 43.7617 60.7306 45.875C56.2538 48.1494 52.5105 47.2705 49.5001 43.2383C47.097 38.4971 47.9759 34.4931 52.1369 31.2266C53.0874 30.6847 54.064 30.2616 55.0665 29.957ZM90.8087 29.957C94.3923 29.6495 97.2243 30.9516 99.3048 33.8633C101.708 38.6045 100.829 42.6084 96.6681 45.875C93.8005 47.5594 90.9361 47.5594 88.0743 45.875C84.7562 43.7617 81.6964 41.3204 78.8947 38.5508C82.3326 34.9133 86.3038 32.0487 90.8087 29.957Z" fill="#031555"/>
<path opacity="0.988" fill-rule="evenodd" clip-rule="evenodd" d="M69.5195 123.902C60.9258 123.902 52.332 123.902 43.7383 123.902C42.9612 123.548 42.4078 122.962 42.0781 122.145C42.013 119.15 41.9479 116.155 41.8828 113.16C41.8281 111.574 41.4375 110.077 40.7109 108.668C36.2187 103.395 31.7266 98.1211 27.2344 92.8477C25.8112 90.8199 24.8672 88.6064 24.4023 86.207C24.4023 74.8139 24.4023 63.4205 24.4023 52.0273C25.8929 48.4174 28.5621 47.0828 32.4102 48.0234C34.2975 48.7391 35.502 50.0736 36.0234 52.0273C36.0574 61.4404 36.155 70.848 36.3164 80.25C36.1094 82.4309 36.6628 84.4166 37.9766 86.207C41.7201 89.9506 45.4635 93.6939 49.207 97.4375C50.783 98.2775 52.1178 97.9846 53.2109 96.5586C53.648 95.4814 53.583 94.4396 53.0156 93.4336C48.9791 89.3971 44.9428 85.3607 40.9062 81.3242C38.6967 78.032 39.0547 75.0697 41.9805 72.4375C44.4412 70.96 46.85 71.025 49.207 72.6328C54.9037 78.3295 60.6002 84.026 66.2969 89.7227C68.925 92.8318 70.5527 96.4125 71.1797 100.465C71.31 107.691 71.31 114.918 71.1797 122.145C70.85 122.962 70.2967 123.548 69.5195 123.902Z" fill="#031555"/>
<path opacity="0.986" fill-rule="evenodd" clip-rule="evenodd" d="M124.402 52.0273C124.402 63.4205 124.402 74.8139 124.402 86.207C123.938 88.6064 122.994 90.8199 121.57 92.8476C117.404 97.6654 113.237 102.483 109.07 107.301C107.7 109.002 106.984 110.955 106.922 113.16C106.857 116.155 106.792 119.15 106.727 122.145C106.397 122.962 105.844 123.548 105.066 123.902C96.4727 123.902 87.879 123.902 79.2852 123.902C78.5081 123.548 77.9547 122.962 77.625 122.145C77.4948 114.918 77.4948 107.691 77.625 100.465C78.2688 96.3139 79.9614 92.668 82.7032 89.5273C88.3346 83.8959 93.9663 78.2642 99.5977 72.6328C102.845 70.6355 105.742 71.0586 108.289 73.9023C109.784 76.4588 109.654 78.9326 107.898 81.3242C103.862 85.3607 99.8256 89.3971 95.7891 93.4336C94.7006 95.8689 95.4493 97.3664 98.0352 97.9258C98.6081 97.9324 99.129 97.7697 99.5977 97.4375C103.341 93.6939 107.085 89.9506 110.828 86.207C111.931 84.6223 112.55 82.8644 112.684 80.9336C112.458 71.8885 112.425 62.8391 112.586 53.7851C113.06 49.2646 115.566 47.2791 120.106 47.8281C122.289 48.4824 123.722 49.8822 124.402 52.0273Z" fill="#031555"/>
</g>
<defs>
<clipPath id="clip0_1_3354">
<rect width="100" height="100" fill="white" transform="translate(24.5 24)"/>
</clipPath>
</defs>
</svg>
