<svg width="148" height="148" viewBox="0 0 148 148" fill="none" xmlns="http://www.w3.org/2000/svg">
<rect width="148" height="148" rx="24" fill="#E3E6ED"/>
<g clip-path="url(#clip0_1_3368)">
<path opacity="0.958" fill-rule="evenodd" clip-rule="evenodd" d="M64.1367 26.0508C64.4859 25.9951 64.8115 26.0602 65.1133 26.2461C59.057 31.3918 54.3695 37.5767 51.0508 44.8008C50.8119 45.0184 50.5516 45.051 50.2695 44.8984C45.8553 43.6441 41.5584 42.0817 37.3789 40.2109C44.7568 32.6153 53.6762 27.8952 64.1367 26.0508Z" fill="#031555"/>
<path opacity="0.957" fill-rule="evenodd" clip-rule="evenodd" d="M80.1523 26.4414C80.5016 26.2222 80.8922 26.1896 81.3242 26.3438C91.348 28.3759 99.9092 33.0309 107.008 40.3086C107.138 40.4388 107.138 40.569 107.008 40.6992C102.84 42.6744 98.5105 44.1393 94.0195 45.0938C90.7945 37.827 86.1723 31.6095 80.1523 26.4414Z" fill="#031555"/>
<path opacity="0.958" fill-rule="evenodd" clip-rule="evenodd" d="M69.2148 31.1289C69.4098 36.8246 69.4748 42.5538 69.4102 48.3164C65.327 48.0586 61.2904 47.4727 57.3008 46.5586C60.1746 40.5608 64.1459 35.4176 69.2148 31.1289Z" fill="#031555"/>
<path opacity="0.951" fill-rule="evenodd" clip-rule="evenodd" d="M75.8555 31.3242C77.1309 32.109 78.2701 33.0856 79.2734 34.2539C82.7086 37.9641 85.5406 42.0982 87.7695 46.6562C83.8492 47.5451 79.8777 48.0984 75.8555 48.3164C75.8555 42.6523 75.8555 36.9883 75.8555 31.3242Z" fill="#031555"/>
<path opacity="0.981" fill-rule="evenodd" clip-rule="evenodd" d="M23.9023 70.3867C23.9023 69.7357 23.9023 69.0846 23.9023 68.4336C24.9128 60.4223 27.6798 53.0654 32.2031 46.3633C32.4883 45.9793 32.8138 45.6539 33.1797 45.3867C38.0264 47.5885 43.0069 49.4439 48.1211 50.9531C48.3023 51.0289 48.4326 51.1592 48.5117 51.3438C46.551 57.5412 45.4443 63.8889 45.1914 70.3867C38.0951 70.3867 30.9987 70.3867 23.9023 70.3867Z" fill="#031555"/>
<path opacity="0.98" fill-rule="evenodd" clip-rule="evenodd" d="M111.012 45.7773C111.381 45.7377 111.674 45.8678 111.891 46.168C116.874 53.4687 119.706 61.5416 120.387 70.3867C113.551 70.3867 106.715 70.3867 99.8789 70.3867C99.573 63.9947 98.4664 57.7447 96.5586 51.6367C96.6207 51.4127 96.7508 51.2498 96.9492 51.1484C101.812 49.7564 106.499 47.966 111.012 45.7773Z" fill="#031555"/>
<path opacity="0.979" fill-rule="evenodd" clip-rule="evenodd" d="M54.7617 52.8086C59.6057 53.7518 64.4885 54.4027 69.4102 54.7617C69.4102 59.9701 69.4102 65.1783 69.4102 70.3867C63.4857 70.3867 57.5611 70.3867 51.6367 70.3867C51.8365 64.3693 52.8783 58.51 54.7617 52.8086Z" fill="#031555"/>
<path opacity="0.976" fill-rule="evenodd" clip-rule="evenodd" d="M89.918 52.8086C90.1127 52.8027 90.243 52.9004 90.3086 53.1016C92.14 58.7195 93.1818 64.4813 93.4336 70.3867C87.5742 70.3867 81.7148 70.3867 75.8555 70.3867C75.8555 65.1783 75.8555 59.9701 75.8555 54.7617C80.6262 54.5238 85.3137 53.8729 89.918 52.8086Z" fill="#031555"/>
<path opacity="0.979" fill-rule="evenodd" clip-rule="evenodd" d="M23.9023 76.832C30.9987 76.832 38.0951 76.832 45.1914 76.832C45.4229 83.3961 46.5295 89.8088 48.5117 96.0703C48.4326 96.2549 48.3023 96.3852 48.1211 96.4609C42.9297 97.9309 37.8841 99.7863 32.9844 102.027C32.5089 101.733 32.1183 101.342 31.8125 100.855C27.49 94.235 24.8533 87.0084 23.9023 79.1758C23.9023 78.3945 23.9023 77.6133 23.9023 76.832Z" fill="#031555"/>
<path opacity="0.976" fill-rule="evenodd" clip-rule="evenodd" d="M51.6367 76.832C57.5611 76.832 63.4857 76.832 69.4102 76.832C69.4428 82.1709 69.4102 87.5096 69.3125 92.8477C64.5211 93.1455 59.7686 93.7967 55.0547 94.8008C54.7158 94.5699 54.5205 94.2443 54.4688 93.8242C52.8068 88.2801 51.8629 82.616 51.6367 76.832Z" fill="#031555"/>
<path opacity="0.965" fill-rule="evenodd" clip-rule="evenodd" d="M75.8555 76.832C81.7148 76.832 87.5742 76.832 93.4336 76.832C93.3445 79.9107 93.0516 82.9707 92.5547 86.0117C89.7373 86.1729 86.9053 86.2705 84.0586 86.3047C82.8541 86.7279 82.0404 87.5416 81.6172 88.7461C81.5195 90.3072 81.4871 91.8697 81.5195 93.4336C79.6332 93.2799 77.7453 93.1496 75.8555 93.043C75.8555 87.6393 75.8555 82.2357 75.8555 76.832Z" fill="#031555"/>
<path opacity="0.923" fill-rule="evenodd" clip-rule="evenodd" d="M99.8789 76.832C102.028 76.7994 104.177 76.832 106.324 76.9297C105.5 77.4281 104.882 78.1117 104.469 78.9805C104.371 81.3885 104.338 83.7973 104.371 86.207C102.613 86.207 100.855 86.207 99.0977 86.207C99.4871 83.0936 99.7475 79.9686 99.8789 76.832Z" fill="#031555"/>
<path opacity="0.921" fill-rule="evenodd" clip-rule="evenodd" d="M108.863 76.832C112.704 76.832 116.546 76.832 120.387 76.832C120.298 79.6324 119.875 82.3668 119.117 85.0352C115.598 82.391 112.18 79.6566 108.863 76.832Z" fill="#031555"/>
<path opacity="0.977" fill-rule="evenodd" clip-rule="evenodd" d="M123.902 96.5586C123.902 96.9492 123.902 97.3398 123.902 97.7305C119.845 100.776 115.809 103.869 111.793 107.008C111.172 107.21 110.684 107.047 110.328 106.52C110.231 104.828 110.198 103.135 110.231 101.441C102.874 101.474 95.5167 101.441 88.1602 101.344C87.9323 101.246 87.7696 101.083 87.672 100.855C87.5464 98.51 87.579 96.1662 87.7696 93.8242C87.7817 93.2162 87.912 92.6629 88.1602 92.1641C95.4516 92.0664 102.743 92.0338 110.035 92.0664C110.003 90.5025 110.035 88.94 110.133 87.3789C110.556 86.8346 111.11 86.6719 111.793 86.8906C115.805 90.1551 119.841 93.3777 123.902 96.5586Z" fill="#031555"/>
<path opacity="0.959" fill-rule="evenodd" clip-rule="evenodd" d="M66.2852 99.4883C67.3268 99.4883 68.3686 99.4883 69.4102 99.4883C69.4752 105.154 69.4102 110.818 69.2148 116.48C64.2307 112.077 60.2594 106.901 57.3008 100.953C60.2992 100.325 63.2939 99.8371 66.2852 99.4883Z" fill="#031555"/>
<path opacity="0.942" fill-rule="evenodd" clip-rule="evenodd" d="M75.8555 99.4883C77.683 99.5863 79.5061 99.7492 81.3242 99.9766C81.484 101.621 81.5817 103.282 81.6172 104.957C82.1139 106.163 82.9928 106.879 84.2539 107.105C84.2328 107.551 84.0701 107.942 83.7657 108.277C81.5092 111.381 78.9049 114.18 75.9532 116.676C75.8555 110.947 75.8229 105.218 75.8555 99.4883Z" fill="#031555"/>
<path opacity="0.959" fill-rule="evenodd" clip-rule="evenodd" d="M50.4649 102.418C50.6944 102.375 50.8897 102.44 51.0508 102.613C54.2817 110.107 59.0342 116.455 65.3086 121.656C54.2783 120.227 44.936 115.506 37.2813 107.496C37.147 107.334 37.1795 107.204 37.3789 107.105C41.6588 105.256 46.0207 103.693 50.4649 102.418Z" fill="#031555"/>
<path opacity="0.956" fill-rule="evenodd" clip-rule="evenodd" d="M91.8711 107.301C96.1029 107.301 100.335 107.301 104.566 107.301C104.63 108.221 104.565 109.133 104.371 110.035C97.4787 116.183 89.4709 119.959 80.3477 121.363C85.0248 117.339 88.866 112.652 91.8711 107.301Z" fill="#031555"/>
</g>
<defs>
<clipPath id="clip0_1_3368">
<rect width="100" height="100" fill="white" transform="translate(24 24)"/>
</clipPath>
</defs>
</svg>
