<svg width="1185" height="1075" viewBox="0 0 1185 1075" fill="none" xmlns="http://www.w3.org/2000/svg">
<path d="M988.749 401.745L988.942 403.232L988.749 401.745ZM1002.07 358.11L1000.91 359.058L1002.07 358.11ZM962.723 457.907L979.988 459.299L972.56 443.652L962.723 457.907ZM1053.85 311.152C1053.95 312.132 1054.03 313.153 1054.1 314.209L1057.09 314.028C1057.03 312.932 1056.94 311.872 1056.84 310.852L1053.85 311.152ZM1054.25 320.375C1054.24 322.36 1054.16 324.425 1054.01 326.554L1057 326.765C1057.16 324.575 1057.24 322.447 1057.25 320.4L1054.25 320.375ZM1053.38 332.71C1053.12 334.715 1052.79 336.756 1052.39 338.819L1055.33 339.391C1055.75 337.267 1056.09 335.166 1056.36 333.102L1053.38 332.71ZM1051.02 344.842C1050.51 346.812 1049.93 348.789 1049.27 350.762L1052.12 351.71C1052.79 349.671 1053.4 347.631 1053.92 345.599L1051.02 344.842ZM1047.12 356.546C1046.34 358.431 1045.48 360.301 1044.55 362.147L1047.23 363.499C1048.2 361.583 1049.08 359.644 1049.89 357.693L1047.12 356.546ZM1041.56 367.523C1040.5 369.26 1039.36 370.965 1038.13 372.629L1040.55 374.407C1041.83 372.672 1043.02 370.895 1044.12 369.087L1041.56 367.523ZM1034.28 377.402C1032.94 378.919 1031.52 380.39 1030.01 381.805L1032.06 383.994C1033.64 382.513 1035.13 380.975 1036.53 379.39L1034.28 377.402ZM1025.35 385.779C1023.75 387.013 1022.08 388.191 1020.32 389.306L1021.92 391.84C1023.76 390.674 1025.52 389.442 1027.18 388.151L1025.35 385.779ZM1015 392.342C1013.22 393.257 1011.36 394.113 1009.41 394.903L1010.55 397.681C1012.57 396.859 1014.51 395.967 1016.37 395.012L1015 392.342ZM1003.62 396.989C1001.71 397.59 999.735 398.132 997.689 398.611L998.373 401.532C1000.49 401.036 1002.54 400.474 1004.52 399.851L1003.62 396.989ZM991.643 399.806C990.63 399.971 989.601 400.122 988.556 400.257L988.942 403.232C990.019 403.093 991.079 402.937 992.125 402.767L991.643 399.806ZM988.556 400.257C987.513 400.393 986.498 400.511 985.513 400.612L985.82 403.596C986.833 403.492 987.874 403.371 988.942 403.232L988.556 400.257ZM979.643 401.037C977.53 401.118 975.583 401.108 973.793 401.014L973.636 404.01C975.527 404.109 977.566 404.119 979.758 404.035L979.643 401.037ZM968.091 400.352C965.973 399.943 964.191 399.38 962.706 398.7L961.456 401.427C963.195 402.224 965.213 402.852 967.522 403.298L968.091 400.352ZM958.41 395.617C957.245 394.271 956.555 392.719 956.271 391L953.311 391.489C953.679 393.717 954.591 395.789 956.141 397.58L958.41 395.617ZM956.527 385.629C956.91 383.924 957.553 382.137 958.427 380.312L955.72 379.017C954.768 381.007 954.04 383.009 953.6 384.973L956.527 385.629ZM961.325 375.317C962.384 373.758 963.575 372.214 964.871 370.715L962.602 368.753C961.235 370.334 959.972 371.97 958.843 373.632L961.325 375.317ZM968.916 366.5C970.34 365.161 971.832 363.893 973.366 362.722L971.546 360.337C969.928 361.572 968.357 362.907 966.861 364.315L968.916 366.5ZM978.188 359.454C979.908 358.432 981.639 357.557 983.348 356.859L982.212 354.082C980.351 354.843 978.488 355.786 976.656 356.874L978.188 359.454ZM988.777 355.244C990.718 354.903 992.548 354.864 994.223 355.151L994.73 352.194C992.654 351.838 990.471 351.9 988.258 352.289L988.777 355.244ZM999.01 357.205C999.68 357.719 1000.31 358.333 1000.91 359.058L1003.23 357.162C1002.5 356.264 1001.7 355.485 1000.84 354.824L999.01 357.205ZM1000.91 359.058C1001.48 359.765 1002.01 360.509 1002.5 361.289L1005.04 359.698C1004.49 358.815 1003.89 357.969 1003.23 357.162L1000.91 359.058ZM1004.88 366.275C1005.49 367.975 1005.95 369.787 1006.27 371.694L1009.23 371.19C1008.88 369.131 1008.38 367.152 1007.71 365.274L1004.88 366.275ZM1006.83 377.319C1006.9 379.165 1006.86 381.071 1006.73 383.025L1009.72 383.229C1009.86 381.18 1009.9 379.169 1009.83 377.211L1006.83 377.319ZM1006.09 388.728C1005.8 390.586 1005.44 392.472 1005.01 394.376L1007.93 395.042C1008.38 393.072 1008.76 391.116 1009.05 389.185L1006.09 388.728ZM1003.55 399.964C1003.01 401.792 1002.42 403.626 1001.77 405.46L1004.6 406.462C1005.26 404.578 1005.88 402.691 1006.43 400.809L1003.55 399.964ZM999.696 410.863C998.962 412.64 998.18 414.409 997.355 416.16L1000.07 417.438C1000.91 415.644 1001.72 413.831 1002.47 412.008L999.696 410.863ZM994.762 421.338C993.854 423.048 992.907 424.733 991.926 426.384L994.505 427.917C995.511 426.224 996.481 424.497 997.412 422.745L994.762 421.338ZM988.844 431.289C987.766 432.911 986.657 434.49 985.521 436.016L987.927 437.808C989.096 436.237 990.237 434.614 991.343 432.948L988.844 431.289ZM981.937 440.548C980.676 442.047 979.391 443.476 978.088 444.825L980.246 446.909C981.6 445.507 982.93 444.027 984.232 442.48L981.937 440.548ZM973.935 448.799C972.458 450.097 970.968 451.284 969.473 452.348L971.212 454.793C972.799 453.664 974.369 452.412 975.916 451.053L973.935 448.799Z" fill="#FF4766"/>
<path fill-rule="evenodd" clip-rule="evenodd" d="M145 275.001L121 275.001L121 299.001L121 323.001L145 323.001L145 347.001L169 347.001L169 323.001L169 299.001L145 299.001L145 275.001Z" fill="#D45147"/>
<circle cx="592.518" cy="427.979" r="587.122" transform="rotate(-90 592.518 427.979)" stroke="url(#paint0_linear_1266_12060)"/>
<circle cx="594.994" cy="469.879" r="545.149" transform="rotate(-90 594.994 469.879)" stroke="url(#paint1_linear_1266_12060)"/>
<circle cx="599.948" cy="553.679" r="461.203" transform="rotate(-90 599.948 553.679)" stroke="url(#paint2_linear_1266_12060)"/>
<circle cx="602.425" cy="595.579" r="419.23" transform="rotate(-90 602.425 595.579)" stroke="url(#paint3_linear_1266_12060)"/>
<circle cx="597.471" cy="511.778" r="503.176" transform="rotate(-90 597.471 511.778)" stroke="url(#paint4_linear_1266_12060)"/>
<circle cx="604.901" cy="637.479" r="377.257" transform="rotate(-90 604.901 637.479)" stroke="url(#paint5_linear_1266_12060)"/>
<circle cx="607.378" cy="679.379" r="335.284" transform="rotate(-90 607.378 679.379)" stroke="url(#paint6_linear_1266_12060)"/>
<circle cx="609.855" cy="721.279" r="293.311" transform="rotate(-90 609.855 721.279)" stroke="url(#paint7_linear_1266_12060)"/>
<g clip-path="url(#clip0_1266_12060)">
<path opacity="0.1" d="M426.14 1032.41C353.071 1032.68 218.423 1034.19 235.026 1028.8C251.63 1023.4 339.352 1028.29 411.243 1026.25C483.134 1024.21 548.279 1021.89 621.753 1024.26C695.228 1026.63 675.314 1029.72 643.044 1030.69C583.782 1032.48 573.229 1033.2 538.836 1032.49C438.24 1030.32 454.575 1032.31 426.14 1032.41Z" fill="#005687"/>
<path opacity="0.1" d="M683.443 1052.5C624.993 1052.72 517.299 1054.32 530.568 1047.89C543.837 1041.46 614.023 1047.45 671.519 1045.09C729.015 1042.74 781.077 1040.1 839.891 1043.05C898.706 1045.99 882.745 1049.68 856.939 1050.79C809.504 1052.85 801.096 1053.7 773.589 1052.77C693.072 1049.96 706.19 1052.42 683.443 1052.5Z" fill="#005687"/>
<path opacity="0.1" d="M552.871 1072.26C541.78 1072.3 521.363 1073.17 523.873 1068.93C526.384 1064.69 539.692 1068.79 550.595 1067.33C561.498 1065.88 571.356 1064.23 582.526 1066.26C593.696 1068.3 590.657 1070.72 585.776 1071.42C576.778 1072.69 575.185 1073.24 569.962 1072.58C554.686 1070.63 557.189 1072.26 552.871 1072.26Z" fill="#005687"/>
<path opacity="0.1" d="M915.141 1070.9C903.654 1070.94 882.504 1071.81 885.098 1067.58C887.693 1063.34 901.496 1067.43 912.779 1065.97C924.063 1064.51 934.288 1062.86 945.853 1064.9C957.418 1066.94 954.337 1069.35 949.203 1070.05C939.894 1071.33 938.245 1071.87 932.838 1071.22C917.025 1069.27 919.6 1070.9 915.141 1070.9Z" fill="#005687"/>
<path d="M353.184 634.448L352.864 631.988C353.565 631.902 354.249 631.713 354.894 631.428L355.891 633.688C355.026 634.061 354.116 634.316 353.184 634.448ZM350.362 634.459C349.432 634.306 348.529 634.024 347.677 633.62L348.756 631.381C349.385 631.692 350.056 631.909 350.748 632.024L350.362 634.459ZM358.27 632.18L356.668 630.304C357.21 629.844 357.683 629.309 358.073 628.715L360.139 630.121C359.614 630.891 358.985 631.583 358.27 632.18ZM345.371 631.973C344.672 631.346 344.074 630.613 343.599 629.802L345.697 628.521C346.088 629.132 346.565 629.683 347.114 630.156L345.371 631.973ZM361.286 627.5L358.927 626.802C359.123 626.126 359.22 625.425 359.216 624.721L361.685 624.712C361.687 625.656 361.553 626.595 361.286 627.5ZM342.489 627.217C342.283 626.423 342.176 625.606 342.169 624.785L342.168 624.417L344.623 624.493L344.624 624.776C344.628 625.383 344.711 625.986 344.871 626.572L342.489 627.217ZM359.097 623.18C358.95 622.487 358.7 621.82 358.356 621.202L360.496 620.006C360.957 620.832 361.293 621.722 361.494 622.647L359.097 623.18ZM344.982 622.427L342.651 621.643C342.948 620.75 343.373 619.905 343.912 619.135L345.935 620.542C345.529 621.121 345.208 621.756 344.982 622.427ZM357.009 619.552C356.506 619.055 355.934 618.633 355.311 618.3L356.46 616.117C357.29 616.558 358.053 617.117 358.724 617.778L357.009 619.552ZM347.383 619.037L345.851 617.09C346.587 616.503 347.403 616.023 348.273 615.667L349.199 617.955C348.555 618.223 347.953 618.583 347.411 619.022L347.383 619.037ZM353.333 617.6C352.641 617.461 351.933 617.42 351.229 617.48L351.009 615.034C351.951 614.939 352.903 614.988 353.831 615.179L353.333 617.6Z" fill="#76BEEA"/>
<path d="M639.508 626.384L639.319 624.971C639.737 624.914 640.145 624.798 640.531 624.627L641.129 626.039C640.608 626.232 640.062 626.348 639.508 626.384ZM637.828 626.391C637.269 626.298 636.727 626.124 636.218 625.873L636.862 624.541C637.242 624.724 637.646 624.851 638.063 624.919L637.828 626.391ZM642.565 625.057L641.601 623.929C641.918 623.65 642.196 623.33 642.43 622.978L643.675 623.78C643.365 624.246 642.991 624.667 642.565 625.029L642.565 625.057ZM634.817 624.931C634.402 624.552 634.044 624.115 633.754 623.633L635.007 622.865C635.233 623.223 635.504 623.55 635.815 623.838L634.817 624.931ZM644.375 622.25L642.962 621.831C643.074 621.42 643.129 620.996 643.127 620.571L644.608 620.565C644.606 621.126 644.528 621.683 644.375 622.221L644.375 622.25ZM633.085 622.066C632.961 621.605 632.898 621.129 632.896 620.652L632.895 620.44L634.306 620.434L634.307 620.604C634.311 620.972 634.36 621.337 634.452 621.693L633.085 622.066ZM642.954 619.652C642.867 619.237 642.718 618.837 642.512 618.466L643.807 617.753C644.079 618.25 644.281 618.783 644.406 619.336L642.954 619.652ZM634.485 619.203L633.072 618.727C633.258 618.193 633.517 617.687 633.843 617.225L635.045 618.069C634.852 618.417 634.707 618.788 634.612 619.174L634.485 619.203ZM641.69 617.464C641.39 617.165 641.047 616.913 640.671 616.718L641.371 615.414C641.89 615.67 642.367 616.002 642.786 616.399L641.69 617.464ZM635.917 617.161L634.995 615.99C635.419 615.64 635.894 615.357 636.403 615.15L636.945 616.563C636.622 616.714 636.319 616.905 636.044 617.132L635.917 617.161ZM639.484 616.299C639.071 616.212 638.647 616.19 638.228 616.233L638.095 614.818C638.657 614.771 639.222 614.802 639.775 614.911L639.484 616.299Z" fill="#76BEEA"/>
<path d="M887.074 815.702C886.595 815.656 886.122 815.563 885.661 815.424L886.052 814.136C886.433 814.252 886.826 814.326 887.224 814.358L887.074 815.702ZM888.555 815.696L888.381 814.367C888.779 814.313 889.171 814.222 889.551 814.094L889.979 815.366C889.516 815.515 889.039 815.616 888.555 815.668L888.555 815.696ZM884.319 814.878C883.89 814.639 883.487 814.356 883.116 814.033L883.973 813.026C884.283 813.28 884.614 813.506 884.964 813.701L884.319 814.878ZM891.374 814.738L890.692 813.595C891.032 813.382 891.352 813.139 891.649 812.87L892.556 813.857C892.178 814.189 891.762 814.475 891.318 814.71L891.374 814.738ZM882.096 812.976C881.793 812.581 881.532 812.155 881.315 811.706L882.527 811.136C882.703 811.493 882.912 811.834 883.151 812.152L882.096 812.976ZM893.526 812.75L892.436 811.976C892.672 811.647 892.874 811.296 893.039 810.927L894.255 811.46C894.042 811.909 893.779 812.333 893.469 812.722L893.526 812.75ZM880.816 810.322C880.703 809.858 880.635 809.385 880.613 808.908L882.024 808.903C882.041 809.304 882.099 809.702 882.198 810.09L880.816 810.322ZM894.701 810.057L893.402 809.779C893.473 809.387 893.51 808.989 893.51 808.591C893.517 808.473 893.516 808.355 893.509 808.237L894.849 808.147C894.85 808.289 894.85 808.43 894.851 808.586C894.826 809.073 894.752 809.557 894.63 810.029L894.701 810.057ZM881.991 807.616L880.678 807.394C880.762 806.909 880.898 806.434 881.082 805.978L882.326 806.483C882.151 806.835 882.015 807.205 881.921 807.588L881.991 807.616ZM893.279 807.05C893.167 806.665 893.019 806.291 892.837 805.934L894.02 805.321C894.255 805.769 894.437 806.243 894.562 806.734L893.279 807.05ZM882.9 805.405L881.783 804.66C882.053 804.247 882.369 803.867 882.724 803.525L883.659 804.483C883.36 804.747 883.096 805.047 882.872 805.377L882.9 805.405ZM892.17 804.932C891.915 804.622 891.631 804.339 891.32 804.086L892.163 803.051C892.546 803.357 892.897 803.702 893.211 804.079L892.17 804.932ZM884.587 803.73L883.878 802.601C884.29 802.333 884.729 802.109 885.187 801.931L885.658 803.188C885.276 803.324 884.908 803.496 884.559 803.702L884.587 803.73ZM890.316 803.44C889.96 803.258 889.586 803.117 889.199 803.019L889.547 801.717C890.036 801.843 890.51 802.021 890.96 802.249L890.316 803.44ZM886.814 802.887L886.611 801.558C887.101 801.483 887.598 801.457 888.093 801.482L888.013 802.897C887.607 802.839 887.195 802.826 886.786 802.859L886.814 802.887Z" fill="#76BEEA"/>
<path d="M887.694 811.724C889.424 811.718 890.821 810.307 890.815 808.572C890.808 806.838 889.401 805.437 887.67 805.444C885.94 805.45 884.543 806.862 884.549 808.596C884.556 810.33 885.964 811.731 887.694 811.724Z" fill="#76BEEA"/>
<path d="M317.269 735.598L317.292 741.836L323.261 741.814L323.271 744.501L317.302 744.524L317.326 750.805L314.503 750.815L314.48 744.534L308.553 744.557L308.543 741.869L314.498 741.847L314.475 735.608L317.269 735.598Z" fill="#76BEEA"/>
<path d="M372.649 1022.86L363.406 1022.9L363.432 1029.7L372.675 1029.66L372.649 1022.86Z" fill="#00233F"/>
<path d="M475.395 1022.48L466.152 1022.51L466.177 1029.31L475.42 1029.28L475.395 1022.48Z" fill="#00233F"/>
<path d="M494.443 747.636L352.228 748.17C349.461 748.18 347.227 750.437 347.237 753.21L348.238 1019.57C348.248 1022.35 350.499 1024.59 353.266 1024.57L495.481 1024.04C498.248 1024.03 500.482 1021.77 500.472 1019L499.472 752.638C499.461 749.865 497.21 747.625 494.443 747.636Z" fill="#26354D"/>
<g opacity="0.4">
<path d="M494.444 747.664L352.228 748.198C351.095 748.203 349.998 748.594 349.116 749.307C348.234 750.02 347.62 751.012 347.375 752.12C347.867 751.941 348.387 751.848 348.912 751.846L491.127 751.312C491.784 751.309 492.435 751.437 493.043 751.687C493.651 751.937 494.204 752.306 494.67 752.77C495.136 753.235 495.505 753.787 495.758 754.396C496.01 755.004 496.141 755.656 496.141 756.315L497.141 1022.65C497.143 1023.02 497.102 1023.4 497.019 1023.77C498.023 1023.44 498.898 1022.8 499.518 1021.95C500.139 1021.09 500.473 1020.06 500.472 1019L499.472 752.639C499.46 751.312 498.924 750.044 497.981 749.112C497.039 748.179 495.767 747.659 494.444 747.664Z" fill="#5B6B85"/>
</g>
<path opacity="0.2" d="M499.672 805.925L347.438 806.497L347.454 810.839L499.688 810.268L499.672 805.925Z" fill="#5B6B85"/>
<path d="M499.656 801.582L347.421 802.154L347.438 806.496L499.672 805.925L499.656 801.582Z" fill="#1C283A"/>
<path d="M500.084 915.61L347.849 916.181L347.866 920.524L500.1 919.952L500.084 915.61Z" fill="#1C283A"/>
<path d="M500.288 970.042L348.054 970.614L348.07 974.956L500.305 974.385L500.288 970.042Z" fill="#1C283A"/>
<path opacity="0.2" d="M500.101 920.066L347.866 920.637L347.883 924.98L500.117 924.408L500.101 920.066Z" fill="#5B6B85"/>
<path d="M499.879 861.107L347.645 861.678L347.661 866.021L499.896 865.449L499.879 861.107Z" fill="#1C283A"/>
<path opacity="0.2" d="M499.896 865.563L347.662 866.134L347.678 870.477L499.912 869.905L499.896 865.563Z" fill="#5B6B85"/>
<path opacity="0.2" d="M500.305 974.639L348.071 975.211L348.087 979.554L500.322 978.982L500.305 974.639Z" fill="#5B6B85"/>
<path d="M455.871 772.493L449.704 772.516L449.731 779.801L455.898 779.778L455.871 772.493Z" fill="#FECE71"/>
<path d="M469.037 772.444L462.87 772.467L462.897 779.752L469.064 779.729L469.037 772.444Z" fill="#85D2DA"/>
<path d="M482.683 772.392L476.516 772.416L476.543 779.701L482.71 779.677L482.683 772.392Z" fill="#F47954"/>
<path d="M456.095 832.201L449.928 832.225L449.956 839.524L456.123 839.501L456.095 832.201Z" fill="#FECE71"/>
<path d="M469.261 832.152L463.094 832.175L463.122 839.474L469.289 839.451L469.261 832.152Z" fill="#85D2DA"/>
<path d="M482.907 832.101L476.74 832.124L476.768 839.423L482.934 839.4L482.907 832.101Z" fill="#F47954"/>
<path d="M456.312 890.071L450.146 890.094L450.173 897.394L456.34 897.37L456.312 890.071Z" fill="#FECE71"/>
<path d="M469.478 890.022L463.312 890.045L463.339 897.344L469.506 897.321L469.478 890.022Z" fill="#85D2DA"/>
<path d="M483.124 889.97L476.958 889.994L476.985 897.293L483.152 897.27L483.124 889.97Z" fill="#F47954"/>
<path d="M456.515 943.938L450.348 943.961L450.375 951.246L456.542 951.223L456.515 943.938Z" fill="#FECE71"/>
<path d="M469.681 943.888L463.514 943.911L463.541 951.196L469.708 951.173L469.681 943.888Z" fill="#85D2DA"/>
<path d="M483.326 943.837L477.16 943.86L477.187 951.145L483.354 951.122L483.326 943.837Z" fill="#F47954"/>
<path d="M456.714 997.083L450.548 997.106L450.575 1004.39L456.742 1004.37L456.714 997.083Z" fill="#FECE71"/>
<path d="M469.88 997.033L463.714 997.056L463.741 1004.34L469.908 1004.32L469.88 997.033Z" fill="#85D2DA"/>
<path d="M483.526 996.982L477.359 997.005L477.387 1004.29L483.553 1004.27L483.526 996.982Z" fill="#F47954"/>
<path opacity="0.3" d="M435.504 767.632L362.448 767.907L362.514 785.405L435.569 785.131L435.504 767.632Z" fill="#5B6B85"/>
<path opacity="0.3" d="M435.947 885.748L362.892 886.023L362.958 903.521L436.013 903.246L435.947 885.748Z" fill="#5B6B85"/>
<path opacity="0.3" d="M435.727 827.171L362.672 827.446L362.738 844.944L435.793 844.67L435.727 827.171Z" fill="#5B6B85"/>
<path opacity="0.3" d="M436.147 938.908L363.092 939.182L363.158 956.68L436.213 956.406L436.147 938.908Z" fill="#5B6B85"/>
<path opacity="0.3" d="M436.347 992.067L363.292 992.341L363.357 1009.84L436.412 1009.56L436.347 992.067Z" fill="#5B6B85"/>
<path d="M526.182 1022.28L516.939 1022.32L516.964 1029.12L526.207 1029.09L526.182 1022.28Z" fill="#00233F"/>
<path d="M628.942 1021.9L619.698 1021.93L619.724 1028.74L628.967 1028.7L628.942 1021.9Z" fill="#00233F"/>
<path d="M647.976 747.059L505.761 747.593C502.994 747.603 500.76 749.86 500.77 752.633L501.77 1019C501.781 1021.77 504.032 1024.01 506.799 1024L649.014 1023.46C651.781 1023.45 654.015 1021.2 654.005 1018.42L653.004 752.062C652.994 749.288 650.743 747.049 647.976 747.059Z" fill="#26354D"/>
<g opacity="0.4">
<path d="M647.976 747.087L505.761 747.621C504.629 747.629 503.533 748.021 502.651 748.733C501.77 749.446 501.155 750.436 500.907 751.544C501.4 751.366 501.92 751.273 502.444 751.269L644.631 750.735C645.289 750.733 645.941 750.86 646.55 751.11C647.159 751.36 647.712 751.728 648.179 752.193C648.646 752.657 649.017 753.21 649.271 753.818C649.525 754.426 649.657 755.079 649.66 755.738L650.66 1022.07C650.657 1022.45 650.611 1022.82 650.523 1023.19C651.527 1022.86 652.402 1022.23 653.023 1021.37C653.643 1020.51 653.977 1019.48 653.977 1018.42L652.976 752.062C652.964 750.74 652.432 749.476 651.496 748.545C650.56 747.614 649.295 747.09 647.976 747.087Z" fill="#5B6B85"/>
</g>
<path opacity="0.2" d="M653.205 805.348L500.97 805.92L500.987 810.263L653.221 809.691L653.205 805.348Z" fill="#5B6B85"/>
<path d="M653.188 801.005L500.954 801.577L500.97 805.92L653.205 805.348L653.188 801.005Z" fill="#1C283A"/>
<path d="M653.616 915.033L501.382 915.605L501.398 919.948L653.633 919.376L653.616 915.033Z" fill="#1C283A"/>
<path d="M653.821 969.465L501.587 970.037L501.603 974.38L653.837 973.808L653.821 969.465Z" fill="#1C283A"/>
<path opacity="0.2" d="M653.633 919.489L501.399 920.061L501.415 924.404L653.65 923.832L653.633 919.489Z" fill="#5B6B85"/>
<path d="M653.412 860.53L501.177 861.102L501.194 865.444L653.428 864.873L653.412 860.53Z" fill="#1C283A"/>
<path opacity="0.2" d="M653.429 864.986L501.194 865.558L501.211 869.901L653.445 869.329L653.429 864.986Z" fill="#5B6B85"/>
<path opacity="0.2" d="M653.838 974.063L501.604 974.635L501.62 978.977L653.854 978.406L653.838 974.063Z" fill="#5B6B85"/>
<path d="M609.404 771.916L603.237 771.939L603.264 779.224L609.431 779.201L609.404 771.916Z" fill="#FECE71"/>
<path d="M622.57 771.867L616.403 771.89L616.43 779.175L622.597 779.152L622.57 771.867Z" fill="#85D2DA"/>
<path d="M636.229 771.816L630.063 771.839L630.09 779.124L636.257 779.101L636.229 771.816Z" fill="#F47954"/>
<path d="M609.628 831.625L603.461 831.648L603.489 838.947L609.655 838.924L609.628 831.625Z" fill="#FECE71"/>
<path d="M622.794 831.575L616.627 831.599L616.655 838.898L622.821 838.875L622.794 831.575Z" fill="#85D2DA"/>
<path d="M636.454 831.524L630.287 831.547L630.314 838.846L636.481 838.823L636.454 831.524Z" fill="#F47954"/>
<path d="M609.845 889.495L603.678 889.518L603.706 896.817L609.873 896.794L609.845 889.495Z" fill="#FECE71"/>
<path d="M623.011 889.445L616.844 889.469L616.872 896.768L623.039 896.744L623.011 889.445Z" fill="#85D2DA"/>
<path d="M636.671 889.394L630.504 889.417L630.532 896.716L636.699 896.693L636.671 889.394Z" fill="#F47954"/>
<path d="M610.047 943.361L603.881 943.384L603.908 950.669L610.075 950.646L610.047 943.361Z" fill="#FECE71"/>
<path d="M623.213 943.312L617.047 943.335L617.074 950.62L623.241 950.597L623.213 943.312Z" fill="#85D2DA"/>
<path d="M636.873 943.26L630.707 943.283L630.734 950.568L636.901 950.545L636.873 943.26Z" fill="#F47954"/>
<path d="M610.247 996.506L604.08 996.529L604.108 1003.81L610.274 1003.79L610.247 996.506Z" fill="#FECE71"/>
<path d="M623.413 996.457L617.246 996.48L617.274 1003.76L623.44 1003.74L623.413 996.457Z" fill="#85D2DA"/>
<path d="M637.073 996.405L630.906 996.428L630.934 1003.71L637.1 1003.69L637.073 996.405Z" fill="#F47954"/>
<path opacity="0.3" d="M589.036 767.056L515.981 767.331L516.047 784.829L589.102 784.554L589.036 767.056Z" fill="#5B6B85"/>
<path opacity="0.3" d="M589.48 885.172L516.425 885.446L516.491 902.944L589.546 902.67L589.48 885.172Z" fill="#5B6B85"/>
<path opacity="0.3" d="M589.26 826.595L516.205 826.869L516.271 844.367L589.326 844.093L589.26 826.595Z" fill="#5B6B85"/>
<path opacity="0.3" d="M589.68 938.331L516.625 938.605L516.69 956.103L589.745 955.829L589.68 938.331Z" fill="#5B6B85"/>
<path opacity="0.3" d="M589.879 991.49L516.824 991.764L516.89 1009.26L589.945 1008.99L589.879 991.49Z" fill="#5B6B85"/>
<path d="M554.639 1031.85L856.158 1030.72C856.888 1030.72 857.589 1031.01 858.107 1031.52C858.625 1032.04 858.918 1032.74 858.92 1033.47L858.951 1041.69C858.957 1043.13 858.391 1044.51 857.379 1045.53C856.366 1046.56 854.99 1047.13 853.553 1047.14L557.367 1048.25C555.93 1048.26 554.55 1047.69 553.53 1046.68C552.51 1045.66 551.934 1044.28 551.928 1042.84L551.897 1034.61C551.898 1033.88 552.187 1033.18 552.701 1032.66C553.215 1032.15 553.911 1031.86 554.639 1031.85Z" fill="#324666"/>
<path d="M574.504 865.523L835.016 864.545C836.453 864.539 837.833 865.106 838.853 866.121C839.873 867.136 840.45 868.516 840.455 869.956L841.059 1030.78L569.738 1031.8L569.134 870.975C569.129 869.539 569.69 868.16 570.697 867.138C571.703 866.117 573.072 865.536 574.504 865.523Z" fill="#435D88"/>
<path opacity="0.1" d="M574.504 865.523L835.016 864.545C836.453 864.539 837.833 865.106 838.853 866.121C839.873 867.136 840.45 868.516 840.455 869.956L841.059 1030.78L569.738 1031.8L569.134 870.975C569.129 869.539 569.69 868.16 570.697 867.138C571.703 866.117 573.072 865.536 574.504 865.523Z" fill="#697DA0"/>
<path d="M826.568 877.265L583.075 878.179L583.576 1011.6L827.069 1010.69L826.568 877.265Z" fill="white"/>
<path d="M654.816 1031.48L755.967 1031.1L755.982 1035.26C755.987 1036.38 755.545 1037.46 754.754 1038.26C753.963 1039.06 752.888 1039.51 751.765 1039.52L659.01 1039.86C657.888 1039.87 656.809 1039.42 656.012 1038.63C655.215 1037.84 654.765 1036.76 654.761 1035.64L654.745 1031.51L654.816 1031.48Z" fill="#26354D"/>
<path d="M826.568 877.265L583.075 878.179L583.117 889.27L826.61 888.355L826.568 877.265Z" fill="#85D2DA"/>
<path d="M612.553 881.492L589.255 881.58L589.271 885.823L612.569 885.736L612.553 881.492Z" fill="#CEEDF0"/>
<path d="M808.392 880.757L804.158 880.773L804.174 885.016L808.408 885L808.392 880.757Z" fill="#CEEDF0"/>
<path d="M814.248 880.735L810.014 880.75L810.03 884.994L814.264 884.978L814.248 880.735Z" fill="#CEEDF0"/>
<path d="M820.118 880.713L815.885 880.729L815.901 884.972L820.134 884.956L820.118 880.713Z" fill="#CEEDF0"/>
<path d="M819.414 896.177L752.074 896.429L752.263 946.505L819.602 946.252L819.414 896.177Z" fill="#E7F6F8"/>
<path d="M800.478 907.734L795.68 907.752L795.698 912.562L800.496 912.544L800.478 907.734Z" fill="#4195C9"/>
<path d="M813.573 907.685L802.594 907.726L802.598 908.816L813.577 908.774L813.573 907.685Z" fill="#B3D5E9"/>
<path d="M809.107 909.569L802.601 909.594L802.605 910.683L809.111 910.658L809.107 909.569Z" fill="#B3D5E9"/>
<path d="M800.506 915.359L795.708 915.377L795.726 920.186L800.524 920.168L800.506 915.359Z" fill="#85D2DA"/>
<path d="M813.602 915.309L802.623 915.351L802.627 916.44L813.606 916.399L813.602 915.309Z" fill="#B3D5E9"/>
<path d="M809.135 917.179L802.63 917.204L802.634 918.293L809.139 918.269L809.135 917.179Z" fill="#B3D5E9"/>
<path d="M800.535 922.983L795.737 923.001L795.755 927.811L800.553 927.793L800.535 922.983Z" fill="#F47954"/>
<path d="M813.63 922.934L802.651 922.975L802.655 924.064L813.634 924.023L813.63 922.934Z" fill="#B3D5E9"/>
<path d="M809.164 924.804L802.658 924.828L802.663 925.918L809.168 925.893L809.164 924.804Z" fill="#B3D5E9"/>
<path d="M800.563 930.594L795.765 930.612L795.783 935.421L800.581 935.403L800.563 930.594Z" fill="#FECE71"/>
<path d="M813.659 930.544L802.68 930.585L802.684 931.675L813.663 931.633L813.659 930.544Z" fill="#B3D5E9"/>
<path d="M809.192 932.414L802.687 932.438L802.691 933.528L809.197 933.503L809.192 932.414Z" fill="#B3D5E9"/>
<path d="M773.258 908.261L773.307 921.374L777.607 909.008C776.204 908.537 774.737 908.285 773.258 908.261Z" fill="#85D2DA"/>
<path d="M778.102 909.176L773.481 922.448L786.571 917.406C785.812 915.517 784.666 913.809 783.207 912.391C781.748 910.974 780.009 909.878 778.102 909.176Z" fill="#F47954"/>
<path d="M774.624 922.571L787.605 922.041C787.53 920.622 787.244 919.221 786.757 917.886L774.624 922.571Z" fill="#FECE71"/>
<path d="M772.623 908.263C769.751 908.349 766.969 909.282 764.624 910.945C762.278 912.608 760.475 914.928 759.438 917.614C758.401 920.299 758.177 923.232 758.795 926.044C759.413 928.857 760.844 931.424 762.91 933.426C764.976 935.427 767.584 936.773 770.41 937.295C773.235 937.818 776.151 937.493 778.793 936.363C781.435 935.232 783.686 933.346 785.264 930.939C786.842 928.533 787.677 925.713 787.664 922.834L787.664 922.692L772.679 923.215L772.623 908.263Z" fill="#4195C9"/>
<path d="M782.161 922.84C782.168 924.647 781.64 926.416 780.644 927.922C779.648 929.429 778.228 930.606 776.565 931.303C774.902 932.001 773.07 932.189 771.3 931.843C769.53 931.497 767.903 930.633 766.623 929.36C765.343 928.087 764.469 926.462 764.111 924.69C763.752 922.919 763.926 921.081 764.61 919.409C765.293 917.736 766.456 916.305 767.952 915.295C769.447 914.285 771.208 913.743 773.011 913.736C775.428 913.727 777.751 914.681 779.467 916.388C781.183 918.096 782.152 920.416 782.161 922.84Z" fill="white"/>
<path d="M657.716 954.456L590.32 954.709L590.508 1004.84L657.904 1004.59L657.716 954.456Z" fill="#E7F6F8"/>
<path d="M638.794 966.282L635.196 966.296L635.209 969.903L638.808 969.89L638.794 966.282Z" fill="#4195C9"/>
<path d="M648.63 966.246L640.389 966.277L640.392 967.097L648.633 967.066L648.63 966.246Z" fill="#B3D5E9"/>
<path d="M645.277 967.645L640.394 967.663L640.397 968.483L645.28 968.465L645.277 967.645Z" fill="#B3D5E9"/>
<path d="M638.817 972.28L635.218 972.294L635.232 975.901L638.83 975.887L638.817 972.28Z" fill="#85D2DA"/>
<path d="M648.652 972.243L640.411 972.274L640.414 973.095L648.656 973.064L648.652 972.243Z" fill="#B3D5E9"/>
<path d="M645.299 973.656L640.417 973.675L640.42 974.495L645.302 974.477L645.299 973.656Z" fill="#B3D5E9"/>
<path d="M638.839 978.292L635.241 978.306L635.255 981.913L638.853 981.899L638.839 978.292Z" fill="#435D88"/>
<path d="M648.675 978.255L640.434 978.286L640.437 979.107L648.678 979.076L648.675 978.255Z" fill="#B3D5E9"/>
<path d="M645.322 979.654L640.439 979.672L640.442 980.493L645.325 980.474L645.322 979.654Z" fill="#B3D5E9"/>
<path d="M638.862 984.304L635.263 984.318L635.277 987.925L638.875 987.911L638.862 984.304Z" fill="#FECE71"/>
<path d="M648.698 984.267L640.457 984.298L640.46 985.119L648.701 985.088L648.698 984.267Z" fill="#B3D5E9"/>
<path d="M645.344 985.666L640.462 985.684L640.465 986.505L645.347 986.486L645.344 985.666Z" fill="#B3D5E9"/>
<path d="M638.884 990.302L635.286 990.315L635.299 993.922L638.898 993.909L638.884 990.302Z" fill="#F47954"/>
<path d="M648.72 990.265L640.479 990.296L640.482 991.116L648.723 991.085L648.72 990.265Z" fill="#B3D5E9"/>
<path d="M645.367 991.678L640.484 991.696L640.487 992.517L645.37 992.498L645.367 991.678Z" fill="#B3D5E9"/>
<path d="M626.187 987.308C627.111 985.318 627.585 983.147 627.574 980.951C627.564 979.564 627.364 978.184 626.98 976.851L612.672 981.007L626.187 987.308Z" fill="#85D2DA"/>
<path d="M597.933 982.972C598.362 986.168 599.812 989.138 602.065 991.439C604.319 993.74 607.255 995.247 610.434 995.735C613.614 996.223 616.865 995.666 619.703 994.147C622.54 992.628 624.81 990.229 626.173 987.308L612.672 981.007L597.933 982.972Z" fill="#4195C9"/>
<path d="M610.571 966.247C607.018 966.758 603.769 968.539 601.422 971.262C599.075 973.984 597.788 977.465 597.799 981.063C597.808 981.702 597.853 982.339 597.933 982.972L612.687 981.007L610.571 966.247Z" fill="#F47954"/>
<path d="M621.051 968.655C618.553 966.951 615.595 966.054 612.574 966.084C611.885 966.088 611.196 966.143 610.515 966.247L612.63 981.007L621.051 968.655Z" fill="#FECE71"/>
<path d="M621.051 968.655L612.63 981.008L626.938 976.852C625.983 973.518 623.902 970.62 621.051 968.655Z" fill="#435D88"/>
<path d="M819.631 953.848L752.291 954.101L752.479 1004.23L819.819 1003.98L819.631 953.848Z" fill="#E7F6F8"/>
<path d="M814.81 992.725L756.092 992.945L756.113 998.462L814.83 998.242L814.81 992.725Z" fill="#CEEDF0"/>
<path d="M814.771 982.314L756.053 982.534L756.073 988.051L814.791 987.83L814.771 982.314Z" fill="#CEEDF0"/>
<path d="M814.728 971.11L756.01 971.331L756.031 976.848L814.749 976.627L814.728 971.11Z" fill="#CEEDF0"/>
<path d="M814.687 960.134L755.969 960.354L755.99 965.871L814.708 965.65L814.687 960.134Z" fill="#CEEDF0"/>
<path d="M759.16 998.309L761.607 992.345L765.559 988.864L769.744 979.625L773.468 975.537L777.447 979.031L781.46 988.055L785.479 983.555L789.344 971.658L793.547 967.47L797.106 971.983L801.295 978.941L805.303 986.593L809.276 984.866L811.966 998.252L759.16 998.309Z" fill="#FECE71"/>
<path d="M759.16 998.366L761.616 994.622L765.573 992.429L769.771 986.641L773.501 984.081L777.474 986.259L781.475 991.916L785.5 989.086L789.381 981.631L793.591 979.012L797.143 981.814L801.323 986.169L805.32 990.964L809.295 989.874L811.966 998.252L759.16 998.366Z" fill="#4195C9"/>
<path d="M745.785 954.126L666.352 954.424L666.54 1004.56L745.974 1004.26L745.785 954.126Z" fill="#E7F6F8"/>
<path d="M740.406 994.617L672.459 994.872L672.476 999.342L740.423 999.087L740.406 994.617Z" fill="#CEEDF0"/>
<path d="M740.372 985.663L672.426 985.918L672.442 990.388L740.389 990.133L740.372 985.663Z" fill="#CEEDF0"/>
<path d="M740.339 976.708L672.392 976.964L672.409 981.434L740.355 981.178L740.339 976.708Z" fill="#CEEDF0"/>
<path d="M740.305 967.769L672.358 968.024L672.375 972.494L740.322 972.239L740.305 967.769Z" fill="#CEEDF0"/>
<path d="M740.271 958.814L672.325 959.07L672.341 963.54L740.288 963.284L740.271 958.814Z" fill="#CEEDF0"/>
<path d="M677.321 989.464L673.737 989.478L673.763 996.296L677.347 996.282L677.321 989.464Z" fill="#F47954"/>
<path d="M708.238 981.313L704.653 981.327L704.709 996.18L708.293 996.166L708.238 981.313Z" fill="#F47954"/>
<path d="M718.473 959.986L714.889 959.999L715.025 996.155L718.609 996.142L718.473 959.986Z" fill="#F47954"/>
<path d="M728.848 975.691L725.264 975.704L725.34 996.116L728.925 996.103L728.848 975.691Z" fill="#F47954"/>
<path d="M739.191 982.909L735.606 982.922L735.656 996.063L739.24 996.05L739.191 982.909Z" fill="#F47954"/>
<path d="M687.588 976.525L684.004 976.538L684.078 996.271L687.663 996.258L687.588 976.525Z" fill="#F47954"/>
<path d="M697.901 975.807L694.317 975.821L694.394 996.233L697.978 996.219L697.901 975.807Z" fill="#F47954"/>
<path d="M677.333 992.52L673.749 992.533L673.774 999.351L677.358 999.338L677.333 992.52Z" fill="#4195C9"/>
<path d="M708.249 984.383L704.665 984.396L704.721 999.235L708.305 999.222L708.249 984.383Z" fill="#4195C9"/>
<path d="M718.491 964.781L714.907 964.794L715.036 999.182L718.62 999.169L718.491 964.781Z" fill="#4195C9"/>
<path d="M728.859 978.76L725.275 978.774L725.352 999.158L728.936 999.144L728.859 978.76Z" fill="#4195C9"/>
<path d="M739.202 985.978L735.618 985.992L735.667 999.119L739.252 999.105L739.202 985.978Z" fill="#4195C9"/>
<path d="M687.6 979.609L684.016 979.622L684.09 999.313L687.674 999.299L687.6 979.609Z" fill="#4195C9"/>
<path d="M697.913 978.877L694.329 978.89L694.405 999.274L697.989 999.26L697.913 978.877Z" fill="#4195C9"/>
<path d="M716.671 957.39L713.663 960.428L719.688 960.405L716.671 957.39Z" fill="#F47954"/>
<path d="M745.555 896.454L590.103 897.038L590.297 948.627L745.749 948.043L745.555 896.454Z" fill="#E7F6F8"/>
<path d="M652.31 916.722C651.444 912.836 649.344 909.337 646.324 906.75C643.304 904.164 639.529 902.63 635.565 902.378C631.601 902.127 627.663 903.172 624.342 905.356C621.021 907.54 618.498 910.746 617.15 914.491C616.458 914.261 615.733 914.144 615.004 914.146C614.103 914.147 613.211 914.327 612.379 914.675C611.547 915.023 610.792 915.532 610.158 916.173C609.523 916.814 609.021 917.575 608.68 918.411C608.339 919.247 608.166 920.143 608.171 921.046C608.177 921.435 608.211 921.822 608.274 922.206C607.666 922.077 607.047 922.013 606.425 922.015C604.072 922.116 601.849 923.127 600.223 924.836C598.596 926.544 597.693 928.817 597.702 931.179C597.711 933.54 598.631 935.806 600.27 937.502C601.909 939.198 604.14 940.193 606.494 940.277L652.144 940.105C655.172 940.027 658.05 938.771 660.171 936.605C662.292 934.438 663.49 931.53 663.512 928.494C663.534 925.458 662.377 922.533 660.287 920.336C658.197 918.14 655.336 916.843 652.31 916.722Z" fill="#4195C9"/>
<path d="M603.781 931.912C603.765 927.754 606.322 924.618 610.301 924.603L610.57 924.602C610.136 924.525 609.697 924.484 609.257 924.479C607.382 924.476 605.575 925.185 604.2 926.462C602.824 927.74 601.982 929.492 601.843 931.366C601.703 933.241 602.277 935.099 603.448 936.567C604.619 938.035 606.3 939.004 608.155 939.28C605.259 938.329 603.794 935.265 603.781 931.912Z" fill="#64AADA"/>
<path d="M658.108 927.451C658.089 922.245 655.914 917.981 647.574 918.083C646.726 910.235 640.89 904.387 633.708 904.414C628.811 904.432 624.351 908.169 621.642 911.843C623.477 909.81 625.836 908.323 628.459 907.546C631.083 906.769 633.869 906.733 636.512 907.441C639.155 908.149 641.552 909.574 643.439 911.559C645.327 913.544 646.631 916.013 647.21 918.693C649 918.723 650.745 919.26 652.243 920.243C653.741 921.226 654.931 922.614 655.676 924.246C656.42 925.879 656.688 927.689 656.449 929.468C656.21 931.246 655.473 932.921 654.324 934.297C656.321 932.536 658.119 930.336 658.108 927.451Z" fill="#64AADA"/>
<g opacity="0.5">
<path d="M617.352 915.636C617.075 915.623 616.797 915.624 616.519 915.639C615.607 915.632 614.707 915.852 613.901 916.28C613.095 916.708 612.407 917.33 611.9 918.09C611.429 918.893 611.121 919.782 610.994 920.705C610.866 921.628 610.922 922.567 611.158 923.468C611.158 923.468 611.343 923.736 611.371 923.736C611.284 923.269 611.23 922.796 611.21 922.322C611.147 920.621 611.756 918.963 612.907 917.711C614.057 916.458 615.655 915.713 617.352 915.636Z" fill="#64AADA"/>
</g>
<path d="M628.077 934.481C628.077 934.481 623.824 929.149 626.624 923.438C629.425 917.727 635.782 915.709 642.572 919.983C642.572 919.983 632.496 916.131 628.797 923.289C625.098 930.446 628.077 934.481 628.077 934.481Z" fill="#64AADA"/>
<path d="M632.34 923.643L623.498 932.574L641.264 932.507L632.34 923.643Z" fill="#C8E5F7"/>
<path d="M636.343 933.516L628.426 933.546L628.431 934.79L636.347 934.761L636.343 933.516Z" fill="#C8E5F7"/>
<path d="M636.35 935.397L628.433 935.427L628.438 936.672L636.355 936.642L636.35 935.397Z" fill="#C8E5F7"/>
<path d="M636.357 937.434L628.441 937.464L628.444 938.383L636.361 938.354L636.357 937.434Z" fill="#C8E5F7"/>
<path d="M636.365 939.386L628.448 939.416L628.451 940.166L636.368 940.136L636.365 939.386Z" fill="#C8E5F7"/>
<path d="M636.372 941.353L628.456 941.382L628.458 941.934L636.374 941.904L636.372 941.353Z" fill="#C8E5F7"/>
<path d="M636.38 943.319L628.463 943.349L628.465 943.731L636.381 943.701L636.38 943.319Z" fill="#C8E5F7"/>
<path d="M636.387 945.242L628.47 945.272L628.471 945.569L636.388 945.54L636.387 945.242Z" fill="#C8E5F7"/>
<path d="M737.142 914.734L695.034 914.892L695.055 920.55L737.164 920.392L737.142 914.734Z" fill="#CEEDF0"/>
<path d="M718.974 920.46L695.055 920.55L695.034 914.892L718.953 914.802L721.278 917.622L718.974 920.46Z" fill="#F47954"/>
<path d="M677.789 914.773C677.587 914.761 677.384 914.762 677.182 914.775C676.686 914.798 676.213 914.989 675.84 915.316C675.467 915.644 675.216 916.09 675.129 916.579C675.394 916.296 675.74 916.102 676.12 916.023C676.499 915.944 676.894 915.983 677.25 916.136C677.606 916.289 677.907 916.548 678.112 916.878C678.316 917.208 678.415 917.594 678.394 917.982C678.404 918.27 678.356 918.558 678.253 918.828C678.149 919.098 677.992 919.343 677.791 919.55C677.59 919.757 677.349 919.921 677.083 920.032C676.817 920.144 676.531 920.199 676.243 920.196C675.91 920.197 675.58 920.125 675.277 919.988C674.973 919.85 674.702 919.649 674.482 919.398C674.262 919.148 674.098 918.853 674.001 918.533C673.904 918.214 673.876 917.877 673.919 917.546C673.887 917.025 673.965 916.504 674.148 916.015C674.331 915.527 674.615 915.083 674.98 914.713C675.577 914.165 676.343 913.838 677.15 913.785C677.347 913.764 677.546 913.763 677.743 913.783L677.789 914.773ZM677.251 918.085C677.271 917.932 677.257 917.777 677.212 917.63C677.167 917.483 677.09 917.347 676.988 917.232C676.886 917.117 676.761 917.026 676.62 916.964C676.48 916.902 676.327 916.87 676.174 916.872C675.966 916.874 675.763 916.934 675.586 917.044C675.41 917.155 675.267 917.312 675.174 917.499C675.126 917.615 675.102 917.74 675.105 917.867C675.108 918.687 675.52 919.28 676.254 919.277C676.987 919.274 677.254 918.82 677.251 918.141L677.251 918.085Z" fill="#3D95D1"/>
<path d="M683.442 916.972C683.449 918.953 682.678 920.2 681.21 920.206C679.743 920.212 679.032 918.927 679.025 917.046C679.018 915.164 679.818 913.846 681.257 913.84C682.696 913.835 683.435 915.148 683.442 916.972ZM680.196 916.985C680.202 918.484 680.6 919.261 681.249 919.258C681.898 919.256 682.29 918.42 682.285 916.934C682.279 915.449 681.937 914.672 681.232 914.675C680.526 914.678 680.177 915.499 680.196 917.041L680.196 916.985Z" fill="#3D95D1"/>
<path d="M687.177 915.643C687.181 916.944 686.436 917.598 685.589 917.601C684.743 917.604 684.035 916.942 684.016 915.754C683.997 914.565 684.672 913.827 685.617 913.824C686.563 913.82 687.172 914.525 687.177 915.643ZM684.905 915.651C684.907 916.373 685.149 916.895 685.615 916.893C686.081 916.892 686.304 916.396 686.302 915.646C686.299 914.896 686.114 914.416 685.606 914.418C685.098 914.42 684.902 915.029 684.905 915.708L684.905 915.651ZM685.613 920.133L689.159 913.754L689.822 913.751L686.276 920.13L685.613 920.133ZM691.419 918.131C691.424 919.418 690.679 920.085 689.832 920.089C688.985 920.092 688.277 919.43 688.273 918.227C688.24 917.994 688.257 917.757 688.32 917.531C688.384 917.305 688.494 917.094 688.643 916.913C688.793 916.731 688.978 916.583 689.187 916.477C689.397 916.371 689.626 916.31 689.86 916.297C690.834 916.35 691.415 917.07 691.42 918.187L691.419 918.131ZM689.147 918.139C689.15 918.846 689.392 919.369 689.858 919.367C690.323 919.365 690.547 918.884 690.544 918.134C690.542 917.384 690.356 916.904 689.848 916.906C689.34 916.908 689.145 917.559 689.148 918.252L689.147 918.139Z" fill="#3D95D1"/>
<path d="M737.191 927.606L695.082 927.764L695.103 933.423L737.212 933.265L737.191 927.606Z" fill="#CEEDF0"/>
<path d="M727.334 933.302L695.103 933.423L695.082 927.764L727.313 927.643L729.638 930.464L727.334 933.302Z" fill="#4195C9"/>
<path d="M674.017 932.413C674.02 932.059 674.132 931.715 674.338 931.428C674.545 931.141 674.834 930.925 675.168 930.81C674.881 930.707 674.634 930.515 674.465 930.26C674.297 930.006 674.214 929.704 674.231 929.399C674.248 929.15 674.314 928.908 674.427 928.686C674.54 928.464 674.696 928.268 674.887 928.108C675.078 927.949 675.299 927.83 675.536 927.758C675.774 927.687 676.024 927.665 676.271 927.693C677.598 927.689 678.207 928.493 678.21 929.242C678.206 929.544 678.115 929.839 677.948 930.09C677.782 930.342 677.546 930.54 677.27 930.66C677.602 930.76 677.895 930.962 678.106 931.238C678.318 931.514 678.437 931.85 678.447 932.198C678.451 933.301 677.523 934.04 676.21 934.045C674.898 934.05 674.02 933.275 674.017 932.413ZM677.262 932.4C677.26 931.778 676.793 931.44 676.115 931.245C675.865 931.299 675.64 931.437 675.477 931.635C675.314 931.833 675.222 932.08 675.216 932.337C675.21 932.473 675.233 932.608 675.283 932.734C675.334 932.86 675.411 932.973 675.509 933.067C675.607 933.16 675.724 933.231 675.851 933.276C675.979 933.32 676.115 933.336 676.25 933.324C676.388 933.337 676.527 933.318 676.657 933.271C676.787 933.223 676.905 933.146 677.002 933.047C677.099 932.948 677.173 932.828 677.218 932.697C677.263 932.565 677.278 932.425 677.262 932.287L677.262 932.4ZM675.332 929.423C675.334 929.932 675.758 930.228 676.338 930.381C676.549 930.336 676.739 930.22 676.877 930.052C677.015 929.885 677.092 929.676 677.096 929.459C677.102 929.342 677.083 929.225 677.041 929.116C676.998 929.007 676.934 928.908 676.851 928.826C676.768 928.743 676.669 928.679 676.56 928.638C676.451 928.596 676.334 928.578 676.218 928.585C676.108 928.576 675.998 928.589 675.893 928.623C675.788 928.658 675.692 928.713 675.609 928.786C675.526 928.859 675.459 928.948 675.411 929.048C675.364 929.148 675.337 929.256 675.332 929.366L675.332 929.423Z" fill="#3D95D1"/>
<path d="M683.494 930.849C683.501 932.83 682.73 934.063 681.262 934.069C679.795 934.074 679.084 932.79 679.077 930.922C679.07 929.055 679.87 927.708 681.309 927.703C682.748 927.698 683.487 929.025 683.494 930.849ZM680.248 930.861C680.254 932.361 680.652 933.123 681.301 933.121C681.95 933.118 682.342 932.282 682.337 930.811C682.331 929.34 681.989 928.535 681.284 928.538C680.578 928.54 680.229 929.362 680.248 930.861Z" fill="#3D95D1"/>
<path d="M687.229 929.52C687.233 930.807 686.488 931.475 685.641 931.478C684.795 931.481 684.087 930.819 684.068 929.631C684.049 928.442 684.724 927.69 685.669 927.687C686.615 927.683 687.224 928.402 687.229 929.52ZM684.957 929.528C684.959 930.235 685.201 930.758 685.667 930.756C686.133 930.754 686.357 930.273 686.354 929.523C686.351 928.773 686.166 928.279 685.658 928.281C685.15 928.283 684.954 928.892 684.957 929.585L684.957 929.528ZM685.665 933.996L689.211 927.617L689.874 927.614L686.328 933.993L685.665 933.996ZM691.471 931.993C691.476 933.295 690.731 933.948 689.884 933.951C689.037 933.955 688.329 933.307 688.325 932.104C688.32 930.902 688.981 930.164 689.912 930.16C690.844 930.157 691.467 930.947 691.472 932.05L691.471 931.993ZM689.199 932.002C689.202 932.709 689.444 933.232 689.91 933.23C690.375 933.228 690.599 932.732 690.596 931.983C690.594 931.233 690.408 930.753 689.9 930.754C689.392 930.756 689.197 931.436 689.2 932.129L689.199 932.002Z" fill="#3D95D1"/>
<path d="M546.102 930.573L553.986 929.582L555.084 928.715L555.525 925.884L555.519 924.384L554.747 921.699L554.513 919.508C554.434 918.787 554.156 918.103 553.71 917.532C553.264 916.961 552.668 916.527 551.989 916.278L549.573 915.396L545.95 916.541L543.402 918.248L543.594 924.061L545.541 927.732L546.102 930.573Z" fill="#F8AF98"/>
<path d="M548.051 934.908L550.873 934.686C551.072 934.686 551.269 934.644 551.451 934.563C551.633 934.482 551.795 934.363 551.928 934.214C552.061 934.065 552.161 933.89 552.221 933.699C552.281 933.509 552.301 933.308 552.278 933.11L551.565 927.285L545.781 927.731L546.494 933.556C546.501 933.75 546.548 933.939 546.632 934.114C546.716 934.289 546.834 934.444 546.98 934.571C547.126 934.697 547.297 934.793 547.481 934.851C547.665 934.909 547.859 934.928 548.051 934.908Z" fill="#F8AF98"/>
<path d="M553.431 917.079L551.572 917.906L552.324 919.063L552.263 921.539L552.397 923.519L551.96 923.662L551.336 922.674L550.73 922.988L550.721 924.402L551.362 925.913L549.873 927.744L545.557 928.382L543.267 923.567L542.658 919.184L544.806 916.305L549.456 914.448L552.11 914.707L554.485 915.872L553.431 917.079Z" fill="#B75B3F"/>
<path d="M540.177 980.063L562.911 979.978L562.907 978.874L563.874 977.216L562.948 974.814C562.948 974.814 562.852 971.83 562.747 966.328C562.661 962.466 563.482 955.546 563.209 950.511C563.036 945.196 562.176 939.926 560.653 934.833C559.865 931.879 555.988 932.644 555.988 932.644L543.628 933.369C536.422 934.556 534.928 938.862 536.393 949.508L539.013 967.025L539.304 969.33L538.276 977.34L539.777 978.834L540.177 980.063Z" fill="#FECE71"/>
<path d="M567.817 1068.85L567.676 1068.85L567.678 1069.6L564.151 1069.61L564.246 1068.62L564.358 1068.62L565.149 1065.03L568.818 1065.01L568.905 1065.48L569.798 1066.72L575.167 1068.24C575.167 1068.24 575.591 1068.43 575.592 1068.67L575.594 1069.35C575.594 1069.35 575.524 1069.46 575.087 1069.59L568.934 1069.61L568.566 1069.12L568.198 1068.88L567.817 1068.85Z" fill="#26354D"/>
<path d="M538.677 1068.96L538.578 1068.96L538.581 1069.71L535.039 1069.72L535.134 1068.73L535.247 1068.73L536.038 1065.14L539.721 1065.12L539.793 1065.59L540.701 1066.83L546.069 1068.35C546.069 1068.35 546.493 1068.54 546.48 1068.78L546.482 1069.45C546.482 1069.45 546.412 1069.57 545.975 1069.7L539.823 1069.72L539.454 1069.23L539.086 1068.99L538.677 1068.96Z" fill="#26354D"/>
<path d="M540.117 1065.53L534.654 1065.13L537.361 1022.94L538.448 989.25L538.22 985.036L539.646 981.366L539.596 979.33L553.101 979.279L552.762 983.085L546.158 1024.51L540.117 1065.53Z" fill="#4195C9"/>
<path d="M569.243 1065.44L563.685 1065.74L557.588 1024.29L550.021 982.021L550.01 979.291L563.19 979.241L563.772 983.751L566.475 1023.32L569.243 1065.44Z" fill="#4195C9"/>
<path d="M591.617 916.766L590.503 917.01L589.984 917.988L589.454 919.645L591.183 917.757L591.224 917.517L591.647 917.289L592.04 916.92L591.617 916.766Z" fill="#F8AF98"/>
<path d="M594.799 918.847L594.204 918.142L594.976 917.05C595.051 916.994 595.142 916.966 595.235 916.971C595.328 916.977 595.416 917.015 595.484 917.079C595.552 917.143 595.595 917.229 595.605 917.321C595.616 917.414 595.594 917.507 595.543 917.585L594.799 918.847Z" fill="#F8AF98"/>
<path d="M595.868 917.839C595.966 917.932 596.028 918.056 596.044 918.191C596.06 918.325 596.029 918.46 595.955 918.574L595.55 919.651L595.41 919.821L594.941 918.889C595.08 918.573 595.254 918.273 595.459 917.996C595.544 917.897 595.67 917.698 595.868 917.839Z" fill="#F8AF98"/>
<path d="M594.189 917.986L593.453 917.296L594.479 916.302C594.514 916.263 594.556 916.231 594.603 916.21C594.651 916.188 594.702 916.177 594.754 916.176C594.806 916.176 594.858 916.187 594.905 916.208C594.953 916.23 594.995 916.261 595.03 916.3C595.101 916.371 595.141 916.468 595.141 916.568C595.141 916.669 595.102 916.766 595.032 916.838L594.189 917.986Z" fill="#F8AF98"/>
<path d="M593.354 917.226L595.769 914.034C595.84 913.96 595.88 913.861 595.88 913.758C595.879 913.655 595.839 913.556 595.767 913.482C595.731 913.445 595.689 913.416 595.641 913.396C595.594 913.376 595.543 913.365 595.491 913.366C595.44 913.366 595.389 913.376 595.342 913.397C595.295 913.417 595.252 913.447 595.217 913.484L592.476 916.465L593.354 917.226Z" fill="#F8AF98"/>
<path d="M592.518 916.451L591.548 917.388L591.154 917.715L589.748 918.965L589.232 920.509L585.458 926.408L588.654 928.206L592.205 923.256L594.273 921.452L595.607 919.665C595.353 918.766 594.862 917.952 594.187 917.308C593.761 916.818 593.164 916.511 592.518 916.451Z" fill="#F8AF98"/>
<path d="M591.028 917.857L591.167 917.474L591.886 917.076L591.028 917.857Z" fill="#B97373"/>
<path d="M591.48 925.536L587.236 922.723L578.136 934.513L557.667 932.651C556.586 933.046 555.679 933.811 555.107 934.811C554.725 935.329 554.465 935.926 554.348 936.559C554.231 937.192 554.258 937.843 554.429 938.463L554.529 938.817C554.652 939.266 554.879 939.681 555.192 940.026C555.505 940.371 555.894 940.638 556.329 940.804L556.514 941.256C557.376 941.72 558.165 941.151 559.138 941.162C566.66 941.317 579.966 940.97 579.966 940.97L581.529 939.96L591.48 925.536Z" fill="#FECE71"/>
<path d="M532.084 985.568L532.982 988.139L533.256 989.708C533.256 989.708 533.259 990.415 533.26 990.642C533.26 990.686 533.252 990.731 533.235 990.772C533.218 990.813 533.193 990.851 533.162 990.883C533.128 990.913 533.088 990.936 533.044 990.948C533 990.961 532.953 990.963 532.908 990.954C532.683 990.955 532.554 990.588 532.509 989.966L532.508 989.669L532.508 989.598L532.266 989.089L532.11 988.85L532.003 990.265C531.501 990.56 530.908 990.658 530.338 990.54C529.468 990.46 528.634 990.151 527.922 989.643L528.107 986.432L528.624 984.874L529.262 978.237L532.961 978.704L532.084 985.568Z" fill="#F8AF98"/>
<path d="M529.136 993.67L529.137 993.769C529.123 993.865 529.073 993.951 528.997 994.009C528.92 994.068 528.824 994.094 528.729 994.082C528.633 994.065 528.547 994.012 528.488 993.933C528.43 993.854 528.405 993.756 528.417 993.659L528.416 993.532L528.798 989.866L529.645 990.075L529.136 993.67Z" fill="#F8AF98"/>
<path d="M528.13 992.542C528.117 992.638 528.066 992.724 527.99 992.782C527.914 992.841 527.818 992.867 527.722 992.855C527.626 992.838 527.54 992.785 527.482 992.706C527.424 992.627 527.398 992.529 527.41 992.432L527.409 992.206L527.738 989.375L528.6 989.768L528.116 992.33L528.13 992.542Z" fill="#F8AF98"/>
<path d="M530.268 994.388C530.265 994.435 530.252 994.482 530.23 994.525C530.208 994.567 530.178 994.605 530.141 994.636C530.104 994.666 530.062 994.689 530.016 994.703C529.97 994.716 529.922 994.72 529.874 994.714C529.779 994.704 529.692 994.657 529.631 994.583C529.57 994.51 529.541 994.415 529.548 994.32L529.829 990.075L530.76 990.185L530.282 994.331L530.268 994.388Z" fill="#F8AF98"/>
<path d="M531.621 993.817L531.622 994.071C531.615 994.17 531.57 994.262 531.496 994.329C531.423 994.395 531.327 994.43 531.228 994.426C531.18 994.423 531.133 994.41 531.089 994.388C531.046 994.367 531.008 994.337 530.976 994.3C530.944 994.263 530.92 994.221 530.905 994.175C530.89 994.128 530.884 994.08 530.888 994.032L530.887 993.918L530.958 990.184L531.875 990.095L531.635 993.817L531.621 993.817Z" fill="#F8AF98"/>
<path opacity="0.1" d="M531.955 988.878L531.021 988.118L530.606 986.705L530.951 988.246L531.97 989.091L531.955 988.878Z" fill="#1A2C3D"/>
<path d="M543.739 940.159C543.552 941.392 543.269 942.608 542.892 943.797L535.564 965.355L532.98 983.754L527.771 983.335L528.915 964.602L529.176 962.79C529.176 962.79 534.148 941.666 537.039 937.298C537.419 936.759 537.944 936.338 538.552 936.086C539.161 935.833 539.828 935.758 540.477 935.87C542.144 936.43 544.011 937.371 543.739 940.159Z" fill="#FECE71"/>
<path d="M546.052 932.228L552.189 931.88L552.644 932.897L545.731 933.29L546.052 932.228Z" fill="#FECE71"/>
<path d="M554.639 633.607C552.542 623.912 547.348 615.167 539.846 608.698C532.343 602.229 522.941 598.388 513.065 597.758C503.189 597.128 493.377 599.744 485.118 605.207C476.858 610.671 470.601 618.686 467.295 628.036C464.733 627.188 462.006 626.963 459.341 627.381C456.675 627.798 454.146 628.846 451.964 630.436C449.782 632.027 448.009 634.115 446.791 636.529C445.573 638.943 444.946 641.612 444.961 644.317C444.973 645.265 445.061 646.211 445.226 647.145C443.716 646.837 442.178 646.686 440.638 646.695C434.638 646.718 428.894 649.128 424.667 653.397C420.441 657.665 418.08 663.442 418.102 669.455C418.125 675.469 420.53 681.228 424.788 685.465C429.046 689.701 434.809 692.068 440.808 692.046C441.246 692.044 441.697 692.043 442.135 692.041C442.572 692.039 442.699 692.039 442.981 692.038L554.208 691.62C561.619 691.282 568.618 688.108 573.763 682.751C578.908 677.394 581.807 670.262 581.862 662.826C581.917 655.39 579.125 648.216 574.06 642.782C568.995 637.348 562.044 634.069 554.639 633.621L554.639 633.607Z" fill="#D9F1FF"/>
<path d="M434.154 671.333C434.115 661.007 440.479 653.203 450.371 653.166L451.034 653.163C449.957 652.974 448.866 652.879 447.773 652.878C443.069 652.805 438.516 654.538 435.045 657.722C431.575 660.905 429.45 665.299 429.107 670.002C428.764 674.706 430.228 679.362 433.2 683.019C436.171 686.675 440.425 689.053 445.089 689.667C437.827 687.276 434.186 679.665 434.154 671.333Z" fill="#D9F1FF"/>
<path d="M569.147 660.231C569.098 647.316 563.668 636.727 542.953 636.96C540.848 617.475 526.371 602.945 508.605 603.012C496.412 603.058 485.341 612.337 478.616 621.514C483.175 616.451 489.039 612.748 495.563 610.812C502.086 608.876 509.017 608.783 515.59 610.543C522.163 612.303 528.124 615.847 532.817 620.786C537.509 625.725 540.75 631.866 542.183 638.533C546.606 638.646 550.908 640.005 554.597 642.456C558.285 644.906 561.21 648.349 563.037 652.389C564.864 656.428 565.518 660.902 564.925 665.298C564.333 669.693 562.517 673.833 559.685 677.241C564.707 672.866 569.174 667.403 569.147 660.231Z" fill="#D9F1FF"/>
<g opacity="0.5">
<path d="M467.87 630.891C467.187 630.804 466.499 630.759 465.81 630.757C463.542 630.732 461.305 631.277 459.303 632.342C457.3 633.407 455.596 634.959 454.346 636.855C453.173 638.849 452.405 641.056 452.087 643.349C451.768 645.642 451.906 647.976 452.491 650.215C452.491 650.215 452.959 650.864 453.001 650.878C452.798 649.685 452.666 648.481 452.607 647.273C452.513 643.085 454.058 639.027 456.91 635.966C459.763 632.905 463.696 631.083 467.87 630.891Z" fill="#D9F1FF"/>
</g>
<path d="M494.506 677.726C494.506 677.726 483.9 664.469 490.973 650.269C498.046 636.068 513.692 631.072 530.581 641.632C530.581 641.632 505.539 632.079 496.348 649.838C487.158 667.597 494.506 677.726 494.506 677.726Z" fill="#D9F1FF"/>
<path d="M500.556 657.956L475.124 683.642L526.179 683.45L500.556 657.956Z" fill="#4195C9"/>
<path d="M512.051 686.346L489.275 686.432L489.288 689.996L512.064 689.911L512.051 686.346Z" fill="#4195C9"/>
<path d="M512.071 691.736L489.295 691.821L489.308 695.386L512.084 695.3L512.071 691.736Z" fill="#4195C9"/>
<path d="M512.093 697.606L489.317 697.692L489.327 700.323L512.103 700.237L512.093 697.606Z" fill="#4195C9"/>
<path d="M512.114 703.222L489.338 703.308L489.346 705.472L512.122 705.386L512.114 703.222Z" fill="#4195C9"/>
<path d="M512.135 708.894L489.359 708.98L489.365 710.593L512.141 710.507L512.135 708.894Z" fill="#4195C9"/>
<path d="M512.156 714.538L489.38 714.624L489.385 715.727L512.16 715.642L512.156 714.538Z" fill="#4195C9"/>
<path d="M512.177 720.055L489.401 720.141L489.404 720.989L512.18 720.904L512.177 720.055Z" fill="#4195C9"/>
<path d="M943.861 962.775L943.505 965.648L942.704 966.528L941.763 967.847L941.226 971.258L941.961 971.609L942.603 969.654L942.885 969.809L941.827 973.491L944.478 972.915L946.216 969.909L946.45 968.409L946.314 965.863L946.882 963.216L943.861 962.775Z" fill="#FBCDA6"/>
<path d="M948.175 954.2L947.936 954.357C946.443 955.268 945.114 954.523 943.541 952.817C939.843 948.884 934.946 944.829 931.301 940.132C930.953 939.774 930.682 939.348 930.504 938.88C930.326 938.413 930.246 937.914 930.268 937.414C930.29 936.914 930.413 936.424 930.631 935.975C930.849 935.525 931.157 935.124 931.535 934.798L931.746 934.557C933.391 933.051 935.372 934.26 936.647 935.684C941.04 940.619 948.78 949.855 948.78 949.855C949.038 950.175 949.229 950.544 949.339 950.94C949.449 951.337 949.477 951.752 949.42 952.159C949.363 952.567 949.223 952.958 949.009 953.31C948.795 953.661 948.511 953.964 948.175 954.2Z" fill="#85D2DA"/>
<path d="M947.115 964.842L943.358 964.092C943.846 960.363 944.068 956.604 944.021 952.844C944.012 950.382 944.627 948.767 946.363 948.846C948.113 948.924 949.853 950.049 949.412 952.951C948.808 957.366 947.115 964.842 947.115 964.842Z" fill="#85D2DA"/>
<path d="M928.705 966.382L858.607 931.352L863.313 921.785L933.41 956.887C933.448 956.905 933.482 956.93 933.509 956.961C933.537 956.992 933.558 957.029 933.571 957.068C933.585 957.108 933.59 957.15 933.587 957.191C933.584 957.233 933.572 957.273 933.553 957.311L929.085 966.239C929.047 966.303 928.989 966.352 928.92 966.378C928.851 966.404 928.775 966.405 928.705 966.382Z" fill="#26354D"/>
<path d="M942.328 975.54L876.784 942.925C876.422 942.753 876.097 942.51 875.828 942.211C875.56 941.912 875.353 941.562 875.221 941.182C875.088 940.803 875.032 940.4 875.055 939.999C875.079 939.597 875.182 939.204 875.358 938.842L879.433 930.566C879.605 930.202 879.847 929.877 880.146 929.608C880.444 929.339 880.793 929.132 881.172 928.999C881.551 928.866 881.952 928.809 882.353 928.833C882.753 928.856 883.145 928.96 883.506 929.136L949.064 961.736C950.776 962.72 951.807 963.141 951.051 964.671L945.786 975.456C945.072 977.015 943.827 976.284 942.328 975.54Z" fill="#F47954"/>
<path d="M816.73 865.363C815.532 865.665 814.334 866.023 813.15 866.423C801.967 870.245 792.724 878.308 787.404 888.883C782.083 899.457 781.109 911.7 784.69 922.987C788.271 934.273 796.122 943.703 806.558 949.254C816.995 954.805 829.186 956.035 840.517 952.68C851.848 949.324 861.415 941.651 867.167 931.306C872.919 920.962 874.397 908.769 871.285 897.344C868.172 885.919 860.717 876.172 850.518 870.193C840.319 864.214 828.189 862.48 816.73 865.363ZM839.606 944.494C834.948 946.298 829.975 947.14 824.984 946.968C819.994 946.797 815.089 945.615 810.566 943.494C806.043 941.373 801.994 938.357 798.664 934.627C795.334 930.897 792.79 926.531 791.187 921.79C789.583 917.05 788.953 912.033 789.334 907.042C789.714 902.051 791.098 897.189 793.401 892.748C795.705 888.307 798.881 884.379 802.738 881.2C806.595 878.021 811.054 875.657 815.846 874.25C816.819 873.921 817.805 873.634 818.778 873.39C828.047 871.078 837.848 872.446 846.135 877.207C854.421 881.968 860.552 889.755 863.246 898.941C865.94 908.127 864.989 918.001 860.592 926.5C856.194 934.999 848.691 941.466 839.648 944.55L839.606 944.494Z" fill="#26354D"/>
<path opacity="0.3" d="M865.855 899.822C867.745 907.388 867.355 915.347 864.733 922.691C862.111 930.035 857.375 936.434 851.125 941.08C844.874 945.726 837.39 948.41 829.618 948.792C821.846 949.174 814.135 947.237 807.461 943.226C800.787 939.215 795.45 933.311 792.123 926.259C788.797 919.207 787.631 911.325 788.774 903.61C789.916 895.894 793.316 888.691 798.542 882.912C803.768 877.133 810.586 873.038 818.135 871.143C828.256 868.607 838.969 870.203 847.917 875.581C856.865 880.958 863.317 889.677 865.855 899.822Z" fill="white"/>
<path opacity="0.3" d="M863.515 900.467C865.275 907.568 864.896 915.033 862.426 921.918C859.956 928.804 855.505 934.801 849.637 939.152C843.769 943.504 836.746 946.014 829.455 946.367C822.164 946.72 814.932 944.899 808.673 941.134C802.414 937.369 797.408 931.829 794.288 925.214C791.168 918.599 790.074 911.206 791.143 903.967C792.212 896.729 795.397 889.971 800.296 884.547C805.194 879.122 811.587 875.275 818.666 873.49C823.378 872.302 828.278 872.057 833.084 872.771C837.891 873.485 842.509 875.142 846.676 877.648C850.842 880.154 854.474 883.46 857.364 887.375C860.253 891.291 862.344 895.74 863.515 900.467Z" fill="#4195C9"/>
<path opacity="0.2" d="M859.694 901.372C861.279 907.721 860.95 914.398 858.749 920.559C856.548 926.72 852.574 932.088 847.33 935.985C842.085 939.882 835.805 942.132 829.284 942.451C822.764 942.77 816.295 941.144 810.697 937.778C805.098 934.411 800.621 929.456 797.832 923.539C795.043 917.622 794.066 911.009 795.027 904.536C795.987 898.063 798.841 892.021 803.227 887.174C807.613 882.327 813.335 878.893 819.668 877.305C828.159 875.177 837.147 876.517 844.653 881.03C852.159 885.544 857.569 892.861 859.694 901.372Z" fill="white"/>
<path opacity="0.5" d="M830.423 892.783C842.277 892.965 852.846 896.546 860.007 902.079C860.006 901.838 859.907 901.584 859.849 901.33C857.938 893.679 853.375 886.96 846.975 882.372C840.576 877.785 832.757 875.628 824.917 876.289C817.078 876.949 809.728 880.383 804.182 885.977C798.636 891.571 795.256 898.96 794.646 906.823C801.204 898.282 814.8 892.544 830.423 892.783Z" fill="white"/>
<path d="M949.224 970.421C947.474 974.035 945.466 976.688 944.745 976.337C944.024 975.986 944.844 972.772 946.594 969.144C948.345 965.516 950.353 962.863 951.074 963.214C951.795 963.565 950.974 966.794 949.224 970.421Z" fill="#F8AF98"/>
<path d="M926.068 929.045L921.237 929.347L921.718 937.084L926.549 936.782L926.068 929.045Z" fill="#F8AF98"/>
<path d="M930.669 933.9L916.754 934.769L917.247 942.703L931.163 941.834L930.669 933.9Z" fill="#FBCDA6"/>
<path d="M917.189 924.837C916.891 928.275 919.019 931.266 921.955 931.524C924.892 931.782 927.493 929.211 927.804 925.773C927.802 925.278 928.654 919.036 928.61 918.584L926.514 916.526L922.274 914.958L918.692 915.65C917.785 916.539 917.245 917.738 917.181 919.009C917.062 921.032 917.23 924.483 917.189 924.837Z" fill="#F8AF98"/>
<path d="M916.987 916.293C916.583 915.742 916.392 915.063 916.449 914.381C916.506 913.7 916.808 913.062 917.298 912.586C917.636 912.316 918.706 911.831 921.263 912.571C923.82 913.311 923.787 912.081 925.342 912.697C926.663 913.319 927.796 914.281 928.624 915.486C929.452 916.691 929.945 918.095 930.053 919.554C929.895 921.495 929.345 923.384 928.437 925.106L927.768 927.315C927.649 927.706 927.415 928.051 927.096 928.305C926.776 928.559 926.388 928.71 925.981 928.736L924.457 928.827C923.867 928.998 923.242 929 922.651 928.834L922.241 928.595C921.503 928.009 921 927.178 920.821 926.252L920.531 924.145C920.677 923.592 920.783 923.029 920.849 922.461C920.848 922.164 920.295 921.501 920.013 921.615C919.731 921.729 919.708 923.031 919.299 923.202C919.178 923.213 919.057 923.193 918.945 923.144C918.834 923.095 918.737 923.018 918.663 922.921C918.45 922.143 918.409 921.327 918.541 920.531C918.541 920.376 918.159 920.122 918.172 919.967C918.268 919.146 918.759 918.267 918.475 917.801C918.191 917.336 917.485 917.239 916.987 916.293Z" fill="#00466E"/>
<path d="M888.649 945.781L885.866 945.14L885.256 944.124L884.249 942.869L881.125 941.395L880.591 942.006L882.275 943.159L882.064 943.386L878.825 941.347L878.637 944.064L881.031 946.573L882.403 947.219L884.889 947.789L887.559 948.614L888.649 945.781Z" fill="#F8AF98"/>
<path d="M895.92 950.577L895.778 950.337C894.996 948.756 895.852 947.508 897.681 946.086C901.902 942.732 906.345 938.175 911.37 934.945C913.975 933.266 915.898 934.305 916.651 935.632L916.764 935.816C917.958 938.145 916.863 939.507 915.371 940.659C910.08 944.625 900.256 951.579 900.256 951.579C899.913 951.821 899.522 951.988 899.111 952.068C898.699 952.149 898.274 952.141 897.865 952.047C897.457 951.952 897.072 951.773 896.737 951.519C896.402 951.266 896.124 950.945 895.92 950.577Z" fill="#85D2DA"/>
<path d="M885.428 948.622L886.487 944.926C890.152 945.732 893.87 946.271 897.613 946.539C900.069 946.686 901.61 947.486 901.391 949.227C901.171 950.953 899.893 952.599 897.054 951.917C892.718 950.886 885.428 948.622 885.428 948.622Z" fill="#85D2DA"/>
<path d="M920.877 933.777L920.27 933.779C920.27 933.779 915.755 933.796 914.288 933.915C910.69 934.296 909.221 937.654 909.402 940.554L912.787 958.93L913.088 963.895L913.392 973.47L912.882 976.641L913.863 978.646L913.942 980.824L937.931 980.734L937.926 979.319L938.568 977.619L937.336 961.413L936.883 949.758L937.594 939.967C937.46 937.888 936.755 934.411 933.718 933.672C931.528 933.391 929.321 933.262 927.113 933.287C926.081 933.555 925.036 933.767 923.982 933.921C922.945 933.931 921.909 933.883 920.877 933.777Z" fill="#85D2DA"/>
<path d="M899.448 1067.08L899.589 1067.08L899.592 1067.79L902.979 1067.78L902.877 1066.83L902.778 1066.83L902.765 1063.38L899.251 1063.39L899.182 1063.84L897.564 1065.04L892.433 1066.47C892.433 1066.47 892.024 1066.66 892.039 1066.87L892.041 1067.53C892.041 1067.53 892.112 1067.63 892.522 1067.76L898.421 1067.74L898.772 1067.25L899.11 1067.04L899.448 1067.08Z" fill="#222F44"/>
<path d="M932.173 1066.96L932.314 1066.96L932.317 1067.67L935.703 1067.65L935.601 1066.71L935.502 1066.71L934.713 1063.26L931.199 1063.27L931.116 1063.72L930.26 1064.92L925.143 1066.35C925.143 1066.35 924.734 1066.53 924.735 1066.75L924.738 1067.41C924.738 1067.41 924.738 1067.51 925.218 1067.64L931.117 1067.61L931.468 1067.13L931.806 1066.92L932.173 1066.96Z" fill="#222F44"/>
<path d="M938.168 979.955L913.626 979.467L913.663 981.928L912.378 989.133L904.692 1027.88L898.305 1063.39L903.954 1064.31L913.151 1029.73L923.496 995.966L923.944 995.215L927.219 1029.15L930.24 1063.39L935.716 1063.66L935.88 1028.38L938.696 992.797L939.661 986.796L938.179 982.954L938.168 979.955Z" fill="#435D88"/>
<path d="M696.186 770.855C695.106 770.722 694.011 770.818 692.97 771.136C691.948 771.357 691.002 771.845 690.229 772.551C689.456 773.257 688.883 774.156 688.568 775.156C687.649 778.526 689.4 778.731 690.602 779.392C691.804 780.052 688.489 784.195 691.401 785.372C694.312 786.55 690.573 786.79 691.795 788.837C693.016 790.883 694.811 791.569 697.813 790.752C700.816 789.934 702.518 788.372 704.521 788.322C706.525 788.272 709.579 789.718 711.291 787.236C711.78 786.378 711.987 785.387 711.882 784.405C711.777 783.422 711.365 782.498 710.706 781.763C707.874 779.313 705.487 782.434 703.855 776.244C703.01 773.036 700.146 772.99 699.325 772.413C698.504 771.836 699.476 771.295 696.186 770.855Z" fill="#26354D"/>
<path d="M674.248 809.753L675.334 809.664L676.464 809.9L682.121 813.232L684.284 810.479L678.711 807.077L676.589 805.784L674.694 804.532L672.07 804.881L670.903 805.989C670.446 806.225 670.016 806.511 669.622 806.842C669.623 806.998 669.99 807.209 669.99 807.209L671.766 806.665L672.701 807.467L672.885 807.764L672.999 807.933L674.248 809.753Z" fill="#F8AF98"/>
<path d="M669.164 808.782L679.469 805.914C679.469 805.914 679.609 805.772 679.609 805.744C679.632 805.559 679.614 805.37 679.557 805.192C679.5 805.014 679.406 804.851 679.281 804.713L679.111 804.713L668.821 807.581L669.164 808.782Z" fill="#00466E"/>
<path d="M667.428 808.633C667.427 808.533 667.397 808.435 667.342 808.351C667.342 808.351 666.848 808.466 666.877 808.593C666.906 808.72 667.428 808.633 667.428 808.633Z" fill="#00466E"/>
<path d="M667.428 808.662L669.234 808.782L668.891 807.51L667.342 808.322C667.396 808.427 667.425 808.543 667.428 808.662Z" fill="#FCCA85"/>
<path d="M668.835 807.51C668.948 807.51 669.104 807.736 669.205 808.089C669.305 808.442 669.292 808.739 669.207 808.768C669.123 808.797 668.923 808.543 668.837 808.189C668.751 807.836 668.708 807.539 668.835 807.51Z" fill="#FCCA85"/>
<path d="M671.969 808.065C671.969 808.065 671.502 807.727 671.333 807.643C671.216 807.593 671.092 807.565 670.966 807.559C670.839 807.56 670.486 807.561 670.458 807.731C670.46 808.254 671.875 809.225 671.875 809.225L673.571 809.813L674.318 809.81L673.366 808.073L671.969 808.065Z" fill="#F8AF98"/>
<path d="M690.132 819.709L689.85 819.71C688.169 819.179 687.528 817.739 687.76 815.389C688.289 809.956 689.281 799.597 690.5 793.665C691.124 790.579 692.886 790.261 694.58 790.227L694.904 790.226C697.149 790.472 698.36 793.537 697.64 797.288C696.408 803.658 693.891 817.347 693.891 817.347C693.816 817.758 693.657 818.15 693.422 818.496C693.188 818.842 692.885 819.136 692.531 819.358C692.177 819.58 691.782 819.726 691.369 819.787C690.956 819.847 690.535 819.821 690.132 819.709Z" fill="#4195C9"/>
<path d="M678.176 811.266L680.095 807.327C680.095 807.327 686.757 811.545 691.184 814.047C693.347 815.269 694.016 816.738 693.189 818.283C692.334 819.828 690.771 820.626 688.309 818.782L678.176 811.266Z" fill="#4195C9"/>
<path d="M672.529 851.829L676.092 861.294L674.796 861.836L670.753 863.662L670.756 864.624L679.407 864.634L680.081 863.74L680.174 862.311L677.113 851.246L672.529 851.829Z" fill="#FCCA85"/>
<path d="M673.963 861.825L674.766 861.44L674.702 863.152L679.087 862.188L680.538 861.518L680.429 862.423L680.774 864.134L680.311 864.928L677.827 864.838L674.285 864.851L668.288 864.874L668.017 864.21L673.963 861.825Z" fill="#3D95D1"/>
<path d="M714.784 864.317L725.591 863.682L729.598 863.526L733.887 863.411L737.558 863.793L737.669 863.199L729.313 859.099L726.329 857.328L725.413 857.756L724.985 860.191L715.57 859.575L714.784 864.317Z" fill="#FCCA85"/>
<path d="M730.643 863.663L729.74 863.695L730.482 862.15L726.071 860.045L724.815 860.078L725.052 859.228L725.272 857.587L726.102 856.975L728.237 858.156L731.815 860.151L737.979 863.197L737.968 863.919L733.86 863.538L730.643 863.663Z" fill="#3D95D1"/>
<path d="M697.571 782.52L693.879 784.104L698.279 794.47L701.97 792.9L697.571 782.52Z" fill="#F8AF98"/>
<path d="M690.131 781.869C690.141 782.518 690.291 783.156 690.572 783.741C690.852 784.326 691.255 784.843 691.754 785.257C692.253 785.67 692.835 785.97 693.461 786.136C694.087 786.302 694.741 786.329 695.378 786.217C696.016 786.105 696.621 785.855 697.153 785.486C697.685 785.116 698.131 784.635 698.459 784.076C698.787 783.517 698.991 782.893 699.055 782.247C699.12 781.602 699.044 780.95 698.833 780.337C698.832 780.096 698.25 775.628 698.018 774.003C697.939 773.458 697.65 772.966 697.214 772.632C696.778 772.298 696.228 772.148 695.683 772.215L691.663 772.683C691.009 772.997 690.455 773.489 690.066 774.104C689.677 774.718 689.467 775.429 689.461 776.157C689.609 778.052 690.088 781.6 690.131 781.869Z" fill="#F8AF98"/>
<path d="M725.904 841.897C726.309 841.221 726.602 840.484 726.771 839.715L726.854 839.304C727.006 838.603 727.046 837.882 726.973 837.168L726.971 836.758C726.922 836.302 726.831 835.853 726.698 835.415L725.47 831.444L724.611 828.166L712.665 829.951L703.468 831.018L703.667 838.925L680.686 855.887C678.56 857.154 677.004 859.777 678.099 862.007L678.255 862.304C679.393 864.648 681.708 864.922 684.06 863.782L720.389 846.373C720.853 846.153 721.296 845.891 721.713 845.59L724.007 843.955C724.777 843.411 725.424 842.709 725.904 841.897Z" fill="#F47954"/>
<path d="M717.544 859.087L682.353 856.39C681.245 856.291 680.142 856.634 679.284 857.344C678.426 858.054 677.881 859.075 677.767 860.184C677.691 860.786 677.744 861.398 677.923 861.978C678.103 862.557 678.404 863.092 678.807 863.545C679.21 863.998 679.705 864.359 680.259 864.603C680.813 864.848 681.413 864.971 682.019 864.964L717.297 864.746L717.544 859.087Z" fill="#F47954"/>
<path d="M723.682 843.885L724.47 843.232C724.877 842.885 725.24 842.489 725.552 842.054C726.264 841.06 726.689 839.888 726.781 838.668C726.821 838.038 726.776 837.405 726.647 836.787L725.713 832.434L724.471 828.421L720.633 828.633L702.375 829.381L702.382 831.262L669.901 824.609C667.458 824.165 664.583 825.124 663.956 827.46L663.887 827.786C663.219 830.32 664.792 832.026 667.306 832.724L708.587 844.961L719.144 845.416C720.794 845.491 722.413 844.945 723.682 843.885Z" fill="#F47954"/>
<path d="M679.055 857.407L672.185 827.868C671.95 826.777 671.295 825.822 670.363 825.211C669.431 824.601 668.296 824.383 667.205 824.605C666.607 824.711 666.038 824.944 665.538 825.29C665.037 825.636 664.617 826.086 664.306 826.61C663.995 827.133 663.799 827.717 663.733 828.323C663.667 828.928 663.732 829.541 663.924 830.12L673.777 857.426L679.055 857.407Z" fill="#F47954"/>
<path d="M696.691 815.059C696.691 815.059 692.206 808.215 691.572 804.836C690.939 801.458 689.525 793.202 691.521 791.242C692.168 790.637 692.95 790.197 693.803 789.961L696.072 789.245L696.598 790.247C696.672 790.444 696.784 790.624 696.929 790.776C697.074 790.928 697.248 791.048 697.441 791.131C697.634 791.214 697.842 791.256 698.051 791.256C698.261 791.256 698.469 791.213 698.661 791.131L698.915 791.059C699.368 790.937 699.757 790.645 700.002 790.244C700.248 789.844 700.33 789.364 700.234 788.904L699.934 788.113C702.023 787.61 704.143 787.248 706.28 787.028C710.034 787.014 711.526 789.837 712.058 792.339L714.418 800.818C714.418 800.818 716.708 809.438 717.707 812.306C718.706 815.174 720.314 818.803 720.314 818.803L726.087 826.802L724.897 829.381L702.324 830.881L701.192 830.05C701.235 827.513 701.056 824.976 700.656 822.47C699.509 819.91 698.184 817.433 696.691 815.059Z" fill="#4195C9"/>
<path d="M686.35 827.178L668.669 827.244L656.776 809.437L674.458 809.371L686.35 827.178Z" fill="#85D2DA"/>
<path d="M679.567 817.004L680.145 816.945L679.906 817.215L678.313 817.688L675.577 818.137L676.017 818.644L676.44 818.756L678.241 820.956L680.894 820.875L683.713 820.101L695.673 818.387L696.406 814.239L684.166 816.718L682.627 816.399L680.875 815.811L678.985 816.129L679.567 817.004Z" fill="#F8AF98"/>
<path d="M703.035 817.199L702.767 817.129C701.086 816.584 700.445 815.129 700.704 812.78C701.277 807.36 702.353 797.016 703.586 791.084C704.224 787.998 706.001 787.708 707.694 787.688L708.019 787.686C710.264 787.961 711.446 791.026 710.698 794.749C709.41 801.12 706.794 814.78 706.794 814.78C706.724 815.196 706.568 815.592 706.336 815.944C706.104 816.295 705.802 816.595 705.448 816.822C705.094 817.05 704.697 817.201 704.281 817.266C703.866 817.331 703.441 817.308 703.035 817.199Z" fill="#4195C9"/>
<path d="M690.795 819.466L689.368 815.327C689.368 815.327 697.052 813.586 701.944 812.196C704.326 811.536 705.866 812.054 706.353 813.763C706.839 815.459 706.365 817.13 703.248 817.58L690.795 819.466Z" fill="#4195C9"/>
<path d="M694.543 776.774C694.543 776.774 690.15 775.631 690.846 773.096C691.654 770.165 698.353 769.107 700.071 771.916C701.221 773.793 704.303 771.617 705.511 777.554C706.43 781.794 708.126 778.774 711.396 781.478C714.666 784.182 713.806 791.937 709.869 791.881C707.301 791.891 707.562 790.107 704.846 788.378C702.13 786.648 698.263 790.199 698.283 784.258C698.272 781.273 697.03 781.221 697.251 780.145C697.972 776.549 696.617 776.484 696.185 777.942C695.822 779.104 694.543 776.774 694.543 776.774Z" fill="#26354D"/>
<path d="M706.164 816.07C705.978 816.35 705.739 816.591 705.461 816.78L705.208 816.965L704.968 817.079L704.672 817.207C704.22 817.39 703.746 817.516 703.262 817.58L698.608 818.291L699.461 819.914C699.461 819.914 702.394 819.408 704.593 818.763C705.521 818.472 706.362 817.954 707.04 817.255C707.717 816.556 708.21 815.698 708.473 814.76C708.638 813.557 710.712 794.735 710.712 794.735C709.424 801.105 706.808 814.766 706.808 814.766C706.666 815.233 706.448 815.673 706.164 816.07Z" fill="#317097"/>
<path d="M300.967 983.027L253.92 983.203C250.592 983.216 247.904 985.93 247.917 989.266L248.05 1024.6C248.062 1027.94 250.77 1030.63 254.098 1030.62L301.146 1030.44C304.473 1030.43 307.161 1027.72 307.148 1024.38L307.016 989.044C307.003 985.708 304.295 983.014 300.967 983.027Z" fill="#4195C9"/>
<g opacity="0.4">
<path d="M300.968 983.027L277.444 983.115C279.042 983.109 280.577 983.74 281.711 984.868C282.845 985.997 283.486 987.531 283.492 989.133L283.625 1024.5C283.631 1026.1 283.002 1027.64 281.876 1028.77C280.75 1029.91 279.22 1030.55 277.622 1030.56L301.146 1030.47C301.937 1030.47 302.72 1030.31 303.45 1030C304.18 1029.7 304.842 1029.25 305.4 1028.69C305.957 1028.12 306.399 1027.46 306.699 1026.72C306.999 1025.99 307.152 1025.2 307.149 1024.41L307.016 989.044C307.013 988.251 306.854 987.466 306.549 986.734C306.243 986.003 305.797 985.339 305.235 984.78C304.673 984.221 304.007 983.779 303.275 983.478C302.543 983.177 301.759 983.024 300.968 983.027Z" fill="#317097"/>
</g>
<path d="M335.654 1028.02L335.498 1028.02L335.501 1028.8L331.79 1028.81L331.885 1027.78L332.012 1027.78L332.167 1023.99L335.907 1023.97L335.909 1024.48L337.692 1025.81L343.342 1027.44C343.342 1027.44 343.795 1027.64 343.782 1027.89L343.784 1028.6C343.784 1028.6 343.785 1028.73 343.249 1028.86L336.786 1028.88L336.389 1028.36L336.007 1028.1L335.654 1028.02Z" fill="#26354D"/>
<path d="M326.279 974.289L290.228 971.595L289.439 983.084L325.093 985.214L331.211 1024.8L336.416 1024.27L334.029 986.085C333.937 984.275 333.606 974.898 326.279 974.289Z" fill="#324666"/>
<path d="M323.128 1029.51L322.973 1029.51L322.976 1030.3L319.264 1030.32L319.373 1029.28L319.486 1029.28L319.684 1025.44L323.409 1025.42L323.411 1025.92L325.194 1027.24L330.845 1028.89C330.845 1028.89 331.297 1029.08 331.284 1029.33L331.287 1030.05C331.287 1030.05 331.287 1030.16 330.751 1030.29L324.288 1030.31L323.891 1029.79L323.523 1029.55L323.128 1029.51Z" fill="#26354D"/>
<path d="M324.101 1025.56L319.008 1025.89L311.363 985.392L274.974 983.153L271.939 979.076L273.595 972.845L274.118 969.222L293.718 969.149L293.334 971.979L315.841 975.459C320.078 976.49 322.085 981.094 321.968 987.39L324.101 1025.56Z" fill="#435D88"/>
<path d="M316.548 964.678L320.295 966.63L324.713 966.712L328.136 969.005L328.895 972.001L327.527 972.134L326.096 970.527L322.753 970.935L320.223 970.011L315.193 968.106L316.548 964.678Z" fill="#FBCDA6"/>
<path d="M305.445 965.356L305.756 965.355C307.645 965.022 308.103 962.927 308.192 960.366C308.41 954.452 308.835 943.672 308.599 937.109C308.457 933.092 306.057 932.875 305.083 932.878L304.589 932.88C302.148 932.889 301.189 936.67 301.416 940.771C301.823 947.843 301.778 962.158 301.778 962.158C301.789 962.617 301.895 963.068 302.089 963.483C302.284 963.898 302.562 964.268 302.907 964.569C303.253 964.87 303.656 965.095 304.093 965.231C304.53 965.366 304.991 965.409 305.445 965.356Z" fill="#F47954"/>
<path d="M316.848 969.203L319.248 965.799C319.248 965.799 314.272 963.413 307.826 960.467C305.366 959.344 303.023 959.169 302.338 960.954C301.639 962.753 302.015 965.001 305.179 965.824C309.84 967.093 316.848 969.203 316.848 969.203Z" fill="#F47954"/>
<path d="M299.523 925.449L296.581 934.857L301.644 936.448L304.586 927.04L299.523 925.449Z" fill="#F8AF98"/>
<path d="M310.18 922.193C310.194 925.999 307.482 929.036 304.25 929.006C301.019 928.975 298.439 925.859 298.481 922.068C298.479 921.53 298.283 914.613 298.451 914.118L300.913 912.114L305.734 910.851L309.577 911.996C310.444 913.083 310.881 914.451 310.805 915.84C310.814 918.103 310.178 921.811 310.18 922.193Z" fill="#F8AF98"/>
<path d="M310.291 921.811C308.961 922.261 307.585 922.56 306.188 922.704C304.937 922.605 303.696 922.411 302.475 922.123C302.148 922.042 301.852 921.864 301.628 921.613C301.403 921.362 301.258 921.048 301.213 920.714L300.936 918.281L300.301 918.355L299.511 922.007L298.87 924.315C299.081 925.058 299.387 925.77 299.781 926.434C300.407 927.526 301.416 928.344 302.612 928.729C303.434 928.936 304.279 929.033 305.125 929.017C305.949 928.902 306.74 928.62 307.451 928.187C310.182 926.593 310.298 923.636 310.291 921.811Z" fill="#004E72"/>
<path d="M298.128 921.956L298.51 922.379C298.51 922.379 298.593 921.784 298.787 920.963C298.898 920.453 298.391 916.905 299.605 916.971C300.099 916.969 300.246 918.51 300.246 918.51L300.966 918.692C300.845 917.795 300.841 916.887 300.956 915.99C301.304 914.673 301.753 914.12 302.362 914.754C303.34 915.74 305.638 915.265 307.372 914.735C309.106 914.205 310.096 914.838 311.401 912.881C312.706 910.924 312.122 909.483 311.386 908.807C311.06 908.469 309.971 907.808 307.052 908.385C304.133 908.962 304.339 907.589 302.591 908.09C301.077 908.622 299.732 909.55 298.694 910.777C297.657 912.005 296.965 913.487 296.691 915.072C296.696 917.441 297.185 919.784 298.128 921.956Z" fill="#004E72"/>
<path d="M308.468 924.902C308.47 925.326 307.738 925.711 306.778 925.757C305.819 925.803 305.027 925.495 304.998 925.084C304.968 924.674 305.742 924.275 306.702 924.229C307.661 924.183 308.453 924.477 308.468 924.902Z" fill="#F8AF98"/>
<path d="M295.877 968.971L293.683 971.002L273.492 971.629L272.432 967.39L274.646 963.251L278.315 952.033L283.052 939.652L286.876 931.886C288.402 928.74 290.407 928.973 293.314 928.962C294.921 929.027 296.508 929.345 298.016 929.906C297.976 930.769 298.075 931.633 298.308 932.465C299.273 933.876 301.139 934.761 302.349 933.639C302.736 933.052 302.997 932.391 303.117 931.698L303.556 931.993C303.556 931.993 305.463 932.552 306.678 932.972C308.558 933.629 308.993 936.683 307.776 939.644C305.468 945.184 304.904 945.313 302.018 950.784C299.986 954.626 296.626 965.431 296.626 965.431L295.877 968.971Z" fill="#F47954"/>
<path d="M304.187 964.724L307.934 966.676L312.351 966.759L315.789 969.052L316.534 972.048L315.166 972.18L313.748 970.573L310.405 970.981L307.862 970.057L302.831 968.152L304.187 964.724Z" fill="#F8AF98"/>
<path d="M288.655 962.321L288.965 962.32C290.884 962.2 291.938 960.894 292.295 958.304C293.148 952.445 294.403 941.109 294.887 934.558C295.182 930.539 292.329 929.8 291.355 929.79L290.861 929.792C288.433 929.461 286.85 932.636 286.654 936.696C286.299 943.771 285.326 958.811 285.326 958.811C285.294 959.266 285.357 959.722 285.511 960.151C285.665 960.579 285.906 960.971 286.219 961.301C286.532 961.631 286.911 961.893 287.33 962.068C287.749 962.244 288.201 962.33 288.655 962.321Z" fill="#F47954"/>
<path d="M303.229 968.943L305.713 965.312C301.033 962.16 296.137 959.342 291.062 956.88C288.588 955.828 286.923 955.877 286.041 957.592C285.158 959.293 285.294 961.57 288.276 962.733C292.84 964.54 303.229 968.943 303.229 968.943Z" fill="#F47954"/>
<path opacity="0.5" d="M292.405 957.526C293.257 951.482 294.416 940.826 294.887 934.558C295.182 930.539 292.329 929.8 291.355 929.79L290.861 929.792C288.433 929.461 286.85 932.636 286.654 936.696C286.299 943.771 285.326 958.811 285.326 958.811C285.344 959.35 285.456 959.88 285.656 960.38C285.862 960.962 286.203 961.487 286.651 961.911C287.099 962.335 287.642 962.646 288.233 962.818C292.798 964.597 303.187 969 303.187 969L305.671 965.369C301.407 962.495 296.977 959.876 292.405 957.526Z" fill="#F69476"/>
<path d="M336.648 973.472L310.429 973.57L316.604 956.869C316.728 956.53 316.952 956.238 317.246 956.029C317.54 955.821 317.891 955.707 318.251 955.703L341.379 955.616C341.583 955.616 341.784 955.666 341.965 955.76C342.145 955.855 342.301 955.992 342.418 956.159C342.535 956.327 342.61 956.52 342.636 956.722C342.663 956.925 342.641 957.131 342.571 957.323L336.648 973.472Z" fill="#F2F2F2"/>
<path d="M296.684 973.452L336.648 973.302L336.652 974.334C336.652 974.563 336.563 974.783 336.402 974.946C336.241 975.108 336.022 975.2 335.794 975.201L297.764 975.343C297.479 975.344 297.206 975.232 297.004 975.031C296.802 974.83 296.688 974.557 296.687 974.272L296.684 973.466L296.684 973.452Z" fill="#E6E6E6"/>
</g>
<defs>
<linearGradient id="paint0_linear_1266_12060" x1="-4.66252" y1="403.045" x2="849.997" y2="403.045" gradientUnits="userSpaceOnUse">
<stop stop-color="#031555"/>
<stop offset="1" stop-color="#D45147" stop-opacity="0"/>
</linearGradient>
<linearGradient id="paint1_linear_1266_12060" x1="40.4695" y1="446.725" x2="843.374" y2="446.725" gradientUnits="userSpaceOnUse">
<stop stop-color="#031555"/>
<stop offset="1" stop-color="#D45147" stop-opacity="0"/>
</linearGradient>
<linearGradient id="paint2_linear_1266_12060" x1="130.734" y1="534.088" x2="831.627" y2="534.088" gradientUnits="userSpaceOnUse">
<stop stop-color="#031555"/>
<stop offset="1" stop-color="#D45147" stop-opacity="0"/>
</linearGradient>
<linearGradient id="paint3_linear_1266_12060" x1="175.867" y1="577.768" x2="824.505" y2="577.768" gradientUnits="userSpaceOnUse">
<stop stop-color="#031555"/>
<stop offset="1" stop-color="#D45147" stop-opacity="0"/>
</linearGradient>
<linearGradient id="paint4_linear_1266_12060" x1="85.6021" y1="490.406" x2="823.75" y2="487.807" gradientUnits="userSpaceOnUse">
<stop stop-color="#031555"/>
<stop offset="1" stop-color="#D45147" stop-opacity="0"/>
</linearGradient>
<linearGradient id="paint5_linear_1266_12060" x1="220.999" y1="621.45" x2="830.38" y2="621.45" gradientUnits="userSpaceOnUse">
<stop stop-color="#031555"/>
<stop offset="1" stop-color="#D45147" stop-opacity="0"/>
</linearGradient>
<linearGradient id="paint6_linear_1266_12060" x1="266.132" y1="665.131" x2="856.485" y2="663.943" gradientUnits="userSpaceOnUse">
<stop stop-color="#031555"/>
<stop offset="1" stop-color="#D45147" stop-opacity="0"/>
</linearGradient>
<linearGradient id="paint7_linear_1266_12060" x1="311.264" y1="708.812" x2="827.823" y2="707.773" gradientUnits="userSpaceOnUse">
<stop stop-color="#031555"/>
<stop offset="1" stop-color="#D45147" stop-opacity="0"/>
</linearGradient>
<clipPath id="clip0_1266_12060">
<rect width="720" height="475.437" fill="white" transform="translate(232 598.704) rotate(-0.215158)"/>
</clipPath>
</defs>
</svg>
