<svg width="647" height="647" viewBox="0 0 647 647" fill="none" xmlns="http://www.w3.org/2000/svg">
<path d="M647 323.5C647 502.164 502.164 647 323.5 647C144.836 647 0 502.164 0 323.5C0 144.836 144.836 0 323.5 0C502.164 0 647 144.836 647 323.5ZM89.6068 323.5C89.6068 452.676 194.324 557.393 323.5 557.393C452.676 557.393 557.393 452.676 557.393 323.5C557.393 194.324 452.676 89.6068 323.5 89.6068C194.324 89.6068 89.6068 194.324 89.6068 323.5Z" fill="#E3E6ED" fill-opacity="0.4"/>
<g clip-path="url(#clip0_738_9803)">
<path opacity="0.1" d="M208.937 474.574C154.135 474.779 53.1496 475.912 65.6021 471.865C78.0545 467.819 143.846 471.487 197.765 469.958C251.683 468.429 300.542 466.686 355.647 468.463C410.753 470.24 395.817 472.556 371.615 473.284C327.169 474.628 319.254 475.167 293.459 474.638C218.012 473.012 230.263 474.504 208.937 474.574Z" fill="#005687"/>
<path opacity="0.1" d="M401.914 489.646C358.077 489.81 277.307 491.005 287.258 486.182C297.21 481.36 349.849 485.852 392.971 484.088C436.094 482.324 475.14 480.342 519.251 482.553C563.362 484.764 551.391 487.525 532.037 488.361C496.46 489.906 490.154 490.545 469.524 489.848C409.136 487.741 418.975 489.582 401.914 489.646Z" fill="#005687"/>
<path opacity="0.1" d="M303.986 504.463C295.667 504.494 280.355 505.146 282.238 501.967C284.12 498.787 294.102 501.859 302.279 500.767C310.456 499.675 317.849 498.438 326.227 499.966C334.604 501.494 332.325 503.306 328.665 503.829C321.916 504.788 320.722 505.196 316.804 504.701C305.347 503.238 307.225 504.462 303.986 504.463Z" fill="#005687"/>
<path opacity="0.1" d="M575.688 503.443C567.073 503.475 551.21 504.129 553.156 500.949C555.102 497.77 565.454 500.839 573.917 499.747C582.38 498.654 590.049 497.416 598.722 498.943C607.396 500.47 605.085 502.282 601.235 502.806C594.253 503.765 593.016 504.173 588.961 503.679C577.102 502.217 579.032 503.441 575.688 503.443Z" fill="#005687"/>
<path d="M154.22 176.104L153.981 174.258C154.506 174.194 155.019 174.053 155.503 173.839L156.25 175.534C155.602 175.813 154.919 176.005 154.22 176.104ZM152.104 176.111C151.407 175.997 150.729 175.786 150.091 175.482L150.899 173.803C151.371 174.037 151.874 174.199 152.393 174.286L152.104 176.111ZM158.035 174.402L156.834 172.996C157.24 172.651 157.595 172.249 157.887 171.804L159.437 172.859C159.043 173.436 158.571 173.955 158.035 174.402ZM148.361 174.248C147.836 173.777 147.388 173.227 147.032 172.619L148.605 171.658C148.898 172.116 149.256 172.53 149.668 172.885L148.361 174.248ZM160.297 170.893L158.528 170.369C158.674 169.862 158.747 169.336 158.744 168.809L160.596 168.802C160.598 169.509 160.497 170.214 160.297 170.893ZM146.199 170.68C146.045 170.085 145.964 169.472 145.959 168.857L145.958 168.581L147.8 168.637L147.801 168.85C147.804 169.305 147.866 169.757 147.986 170.196L146.199 170.68ZM158.655 167.652C158.545 167.133 158.358 166.633 158.099 166.169L159.705 165.272C160.05 165.892 160.302 166.559 160.453 167.253L158.655 167.652ZM148.069 167.087L146.321 166.5C146.543 165.83 146.862 165.196 147.266 164.618L148.784 165.674C148.479 166.108 148.239 166.584 148.069 167.087ZM157.089 164.932C156.712 164.559 156.283 164.242 155.816 163.992L156.677 162.355C157.3 162.686 157.872 163.106 158.375 163.601L157.089 164.932ZM149.87 164.545L148.721 163.085C149.273 162.644 149.884 162.285 150.537 162.018L151.232 163.734C150.749 163.935 150.297 164.205 149.891 164.534L149.87 164.545ZM154.332 163.467C153.813 163.363 153.282 163.333 152.754 163.378L152.589 161.543C153.296 161.472 154.01 161.508 154.706 161.652L154.332 163.467Z" fill="#76BEEA"/>
<path d="M368.963 170.057L368.822 168.997C369.135 168.955 369.442 168.868 369.731 168.739L370.179 169.798C369.789 169.943 369.379 170.03 368.963 170.057ZM367.704 170.062C367.284 169.992 366.877 169.862 366.496 169.674L366.979 168.675C367.264 168.812 367.567 168.907 367.88 168.958L367.704 170.062ZM371.256 169.062L370.533 168.216C370.771 168.007 370.98 167.767 371.155 167.503L372.089 168.104C371.856 168.454 371.576 168.769 371.256 169.041L371.256 169.062ZM365.445 168.967C365.134 168.683 364.866 168.355 364.648 167.994L365.588 167.418C365.757 167.686 365.961 167.932 366.194 168.147L365.445 168.967ZM372.614 166.956L371.554 166.642C371.638 166.334 371.679 166.016 371.677 165.697L372.789 165.693C372.787 166.113 372.728 166.531 372.613 166.935L372.614 166.956ZM364.146 166.818C364.054 166.472 364.006 166.116 364.004 165.758L364.004 165.599L365.062 165.595L365.063 165.722C365.066 165.998 365.102 166.272 365.172 166.539L364.146 166.818ZM371.548 165.008C371.482 164.697 371.371 164.397 371.216 164.118L372.188 163.584C372.392 163.957 372.543 164.356 372.637 164.771L371.548 165.008ZM365.196 164.671L364.137 164.315C364.276 163.914 364.47 163.534 364.715 163.188L365.617 163.821C365.472 164.082 365.362 164.36 365.292 164.65L365.196 164.671ZM370.6 163.367C370.375 163.143 370.118 162.954 369.836 162.808L370.361 161.83C370.75 162.021 371.108 162.27 371.422 162.569L370.6 163.367ZM366.27 163.14L365.579 162.262C365.897 161.999 366.253 161.787 366.635 161.632L367.041 162.691C366.799 162.804 366.572 162.948 366.365 163.118L366.27 163.14ZM368.945 162.493C368.636 162.428 368.318 162.412 368.003 162.443L367.904 161.383C368.325 161.347 368.749 161.371 369.164 161.452L368.945 162.493Z" fill="#76BEEA"/>
<path d="M554.638 312.044C554.279 312.01 553.924 311.94 553.579 311.836L553.871 310.87C554.158 310.957 554.452 311.012 554.751 311.036L554.638 312.044ZM555.749 312.04L555.618 311.043C555.917 311.003 556.211 310.934 556.496 310.839L556.817 311.792C556.47 311.904 556.112 311.98 555.749 312.019L555.749 312.04ZM552.572 311.426C552.25 311.247 551.948 311.035 551.67 310.793L552.313 310.037C552.545 310.228 552.793 310.397 553.055 310.544L552.572 311.426ZM557.863 311.321L557.352 310.464C557.607 310.304 557.847 310.122 558.07 309.92L558.75 310.66C558.466 310.909 558.154 311.124 557.821 311.3L557.863 311.321ZM550.905 310C550.678 309.704 550.481 309.384 550.319 309.048L551.228 308.62C551.36 308.888 551.516 309.143 551.696 309.382L550.905 310ZM559.477 309.83L558.66 309.25C558.837 309.004 558.988 308.74 559.112 308.463L560.024 308.863C559.864 309.2 559.667 309.517 559.435 309.809L559.477 309.83ZM549.945 308.009C549.86 307.662 549.809 307.306 549.793 306.949L550.851 306.945C550.863 307.246 550.907 307.544 550.981 307.836L549.945 308.009ZM560.358 307.811L559.384 307.603C559.438 307.308 559.465 307.01 559.465 306.711C559.47 306.623 559.47 306.534 559.464 306.446L560.469 306.378C560.47 306.484 560.47 306.591 560.471 306.707C560.452 307.073 560.396 307.436 560.305 307.79L560.358 307.811ZM550.826 305.98L549.841 305.814C549.904 305.45 550.006 305.094 550.144 304.751L551.077 305.13C550.946 305.394 550.844 305.672 550.773 305.959L550.826 305.98ZM559.292 305.555C559.208 305.266 559.097 304.986 558.96 304.718L559.848 304.259C560.024 304.595 560.16 304.95 560.254 305.318L559.292 305.555ZM551.508 304.322L550.67 303.763C550.872 303.453 551.109 303.168 551.376 302.911L552.077 303.63C551.853 303.828 551.655 304.054 551.487 304.301L551.508 304.322ZM558.46 303.967C558.269 303.735 558.056 303.522 557.823 303.333L558.455 302.556C558.742 302.786 559.006 303.044 559.241 303.327L558.46 303.967ZM552.773 303.065L552.241 302.219C552.55 302.018 552.879 301.849 553.223 301.716L553.576 302.659C553.29 302.761 553.014 302.89 552.752 303.044L552.773 303.065ZM557.069 302.848C556.803 302.712 556.522 302.606 556.232 302.532L556.493 301.555C556.86 301.65 557.215 301.784 557.553 301.955L557.069 302.848ZM554.443 302.433L554.291 301.436C554.659 301.38 555.031 301.361 555.402 301.379L555.343 302.44C555.038 302.397 554.729 302.388 554.422 302.412L554.443 302.433Z" fill="#76BEEA"/>
<path d="M555.103 309.061C556.4 309.056 557.448 307.998 557.444 306.697C557.439 305.396 556.383 304.346 555.085 304.351C553.788 304.355 552.74 305.414 552.744 306.715C552.749 308.015 553.805 309.066 555.103 309.061Z" fill="#76BEEA"/>
<path d="M127.284 251.966L127.302 256.644L131.778 256.627L131.786 258.643L127.309 258.66L127.327 263.37L125.21 263.378L125.192 258.668L120.747 258.685L120.74 256.669L125.206 256.652L125.188 251.973L127.284 251.966Z" fill="#76BEEA"/>
<path d="M168.819 467.413L161.887 467.439L161.906 472.542L168.838 472.516L168.819 467.413Z" fill="#00233F"/>
<path d="M245.879 467.124L238.946 467.15L238.965 472.253L245.898 472.227L245.879 467.124Z" fill="#00233F"/>
<path d="M260.165 260.994L153.504 261.394C151.428 261.402 149.753 263.094 149.76 265.174L150.511 464.946C150.518 467.026 152.207 468.706 154.282 468.698L260.943 468.297C263.018 468.289 264.694 466.597 264.687 464.517L263.936 264.746C263.929 262.666 262.24 260.986 260.165 260.994Z" fill="#26354D"/>
<g opacity="0.4">
<path d="M260.165 261.015L153.504 261.416C152.654 261.42 151.831 261.713 151.169 262.248C150.508 262.782 150.047 263.526 149.863 264.358C150.233 264.223 150.623 264.154 151.016 264.152L257.678 263.751C258.171 263.75 258.659 263.845 259.115 264.033C259.571 264.221 259.985 264.497 260.335 264.845C260.684 265.194 260.961 265.608 261.151 266.064C261.34 266.52 261.438 267.009 261.438 267.504L262.188 467.254C262.19 467.536 262.159 467.817 262.096 468.092C262.85 467.847 263.506 467.369 263.971 466.727C264.437 466.085 264.687 465.311 264.687 464.518L263.936 264.746C263.927 263.751 263.525 262.8 262.819 262.101C262.112 261.402 261.158 261.012 260.165 261.015Z" fill="#5B6B85"/>
</g>
<path opacity="0.2" d="M264.086 304.712L149.911 305.141L149.923 308.398L264.099 307.969L264.086 304.712Z" fill="#5B6B85"/>
<path d="M264.074 301.454L149.898 301.883L149.911 305.14L264.087 304.711L264.074 301.454Z" fill="#1C283A"/>
<path d="M264.395 386.976L150.219 387.404L150.232 390.661L264.408 390.233L264.395 386.976Z" fill="#1C283A"/>
<path d="M264.549 427.8L150.373 428.229L150.385 431.486L264.561 431.057L264.549 427.8Z" fill="#1C283A"/>
<path opacity="0.2" d="M264.408 390.317L150.232 390.746L150.244 394.003L264.42 393.574L264.408 390.317Z" fill="#5B6B85"/>
<path d="M264.242 346.099L150.066 346.527L150.078 349.784L264.254 349.356L264.242 346.099Z" fill="#1C283A"/>
<path opacity="0.2" d="M264.254 349.44L150.079 349.869L150.091 353.126L264.267 352.697L264.254 349.44Z" fill="#5B6B85"/>
<path opacity="0.2" d="M264.562 431.247L150.386 431.676L150.398 434.933L264.574 434.504L264.562 431.247Z" fill="#5B6B85"/>
<path d="M231.236 279.637L226.611 279.654L226.631 285.118L231.256 285.101L231.236 279.637Z" fill="#FECE71"/>
<path d="M241.11 279.6L236.485 279.617L236.506 285.081L241.131 285.064L241.11 279.6Z" fill="#85D2DA"/>
<path d="M251.345 279.563L246.719 279.58L246.74 285.044L251.365 285.026L251.345 279.563Z" fill="#F47954"/>
<path d="M231.404 324.418L226.779 324.436L226.799 329.91L231.424 329.893L231.404 324.418Z" fill="#FECE71"/>
<path d="M241.278 324.381L236.653 324.398L236.674 329.873L241.299 329.855L241.278 324.381Z" fill="#85D2DA"/>
<path d="M251.513 324.344L246.888 324.361L246.908 329.836L251.533 329.818L251.513 324.344Z" fill="#F47954"/>
<path d="M231.567 367.821L226.942 367.838L226.962 373.312L231.587 373.295L231.567 367.821Z" fill="#FECE71"/>
<path d="M241.441 367.783L236.816 367.801L236.837 373.275L241.462 373.258L241.441 367.783Z" fill="#85D2DA"/>
<path d="M251.676 367.746L247.051 367.764L247.071 373.238L251.696 373.221L251.676 367.746Z" fill="#F47954"/>
<path d="M231.719 408.221L227.094 408.238L227.114 413.702L231.739 413.685L231.719 408.221Z" fill="#FECE71"/>
<path d="M241.593 408.184L236.968 408.201L236.989 413.665L241.614 413.648L241.593 408.184Z" fill="#85D2DA"/>
<path d="M251.827 408.145L247.202 408.162L247.223 413.626L251.848 413.608L251.827 408.145Z" fill="#F47954"/>
<path d="M231.868 448.08L227.243 448.098L227.264 453.561L231.889 453.544L231.868 448.08Z" fill="#FECE71"/>
<path d="M241.743 448.043L237.118 448.061L237.138 453.524L241.763 453.507L241.743 448.043Z" fill="#85D2DA"/>
<path d="M251.977 448.004L247.352 448.021L247.373 453.485L251.998 453.468L251.977 448.004Z" fill="#F47954"/>
<path opacity="0.3" d="M215.96 275.992L161.169 276.197L161.218 289.321L216.009 289.115L215.96 275.992Z" fill="#5B6B85"/>
<path opacity="0.3" d="M216.293 364.579L161.501 364.785L161.551 377.909L216.342 377.703L216.293 364.579Z" fill="#5B6B85"/>
<path opacity="0.3" d="M216.128 320.646L161.337 320.852L161.386 333.975L216.177 333.769L216.128 320.646Z" fill="#5B6B85"/>
<path opacity="0.3" d="M216.443 404.449L161.651 404.654L161.701 417.778L216.492 417.572L216.443 404.449Z" fill="#5B6B85"/>
<path opacity="0.3" d="M216.592 444.318L161.801 444.523L161.85 457.647L216.642 457.441L216.592 444.318Z" fill="#5B6B85"/>
<path d="M283.969 466.982L277.037 467.008L277.056 472.111L283.988 472.085L283.969 466.982Z" fill="#00233F"/>
<path d="M361.038 466.691L354.106 466.717L354.125 471.82L361.058 471.794L361.038 466.691Z" fill="#00233F"/>
<path d="M375.315 260.562L268.653 260.962C266.578 260.97 264.902 262.663 264.91 264.743L265.66 464.514C265.668 466.594 267.357 468.274 269.432 468.266L376.093 467.866C378.168 467.858 379.844 466.165 379.836 464.085L379.086 264.314C379.078 262.234 377.39 260.554 375.315 260.562Z" fill="#26354D"/>
<g opacity="0.4">
<path d="M375.315 260.584L268.653 260.984C267.804 260.99 266.982 261.284 266.321 261.818C265.66 262.353 265.199 263.096 265.013 263.926C265.383 263.793 265.773 263.723 266.166 263.72L372.806 263.32C373.3 263.318 373.788 263.414 374.245 263.601C374.702 263.789 375.117 264.065 375.467 264.413C375.817 264.761 376.096 265.176 376.286 265.632C376.477 266.088 376.576 266.577 376.577 267.072L377.328 466.822C377.325 467.104 377.291 467.386 377.225 467.66C377.978 467.415 378.634 466.938 379.1 466.295C379.565 465.653 379.816 464.88 379.815 464.086L379.065 264.315C379.056 263.323 378.657 262.375 377.955 261.677C377.252 260.978 376.304 260.586 375.315 260.584Z" fill="#5B6B85"/>
</g>
<path opacity="0.2" d="M379.236 304.278L265.06 304.707L265.072 307.964L379.248 307.535L379.236 304.278Z" fill="#5B6B85"/>
<path d="M379.224 301.022L265.048 301.451L265.06 304.708L379.236 304.279L379.224 301.022Z" fill="#1C283A"/>
<path d="M379.545 386.542L265.369 386.971L265.381 390.228L379.557 389.799L379.545 386.542Z" fill="#1C283A"/>
<path d="M379.698 427.366L265.522 427.795L265.535 431.052L379.711 430.623L379.698 427.366Z" fill="#1C283A"/>
<path opacity="0.2" d="M379.557 389.884L265.382 390.312L265.394 393.57L379.57 393.141L379.557 389.884Z" fill="#5B6B85"/>
<path d="M379.391 345.665L265.216 346.094L265.228 349.351L379.404 348.922L379.391 345.665Z" fill="#1C283A"/>
<path opacity="0.2" d="M379.404 349.007L265.228 349.436L265.24 352.693L379.416 352.264L379.404 349.007Z" fill="#5B6B85"/>
<path opacity="0.2" d="M379.711 430.815L265.535 431.244L265.548 434.501L379.723 434.072L379.711 430.815Z" fill="#5B6B85"/>
<path d="M346.385 279.205L341.76 279.223L341.781 284.686L346.406 284.669L346.385 279.205Z" fill="#FECE71"/>
<path d="M356.26 279.168L351.635 279.186L351.655 284.649L356.28 284.632L356.26 279.168Z" fill="#85D2DA"/>
<path d="M366.505 279.129L361.88 279.146L361.9 284.61L366.525 284.593L366.505 279.129Z" fill="#F47954"/>
<path d="M346.553 323.987L341.928 324.004L341.949 329.478L346.574 329.461L346.553 323.987Z" fill="#FECE71"/>
<path d="M356.428 323.949L351.803 323.967L351.823 329.441L356.448 329.424L356.428 323.949Z" fill="#85D2DA"/>
<path d="M366.673 323.91L362.048 323.928L362.068 329.402L366.693 329.385L366.673 323.91Z" fill="#F47954"/>
<path d="M346.716 367.389L342.091 367.406L342.112 372.881L346.737 372.863L346.716 367.389Z" fill="#FECE71"/>
<path d="M356.591 367.352L351.966 367.369L351.986 372.843L356.611 372.826L356.591 367.352Z" fill="#85D2DA"/>
<path d="M366.836 367.313L362.211 367.33L362.231 372.804L366.856 372.787L366.836 367.313Z" fill="#F47954"/>
<path d="M346.868 407.789L342.243 407.807L342.263 413.27L346.888 413.253L346.868 407.789Z" fill="#FECE71"/>
<path d="M356.742 407.752L352.117 407.77L352.138 413.233L356.763 413.216L356.742 407.752Z" fill="#85D2DA"/>
<path d="M366.987 407.713L362.362 407.73L362.383 413.194L367.008 413.177L366.987 407.713Z" fill="#F47954"/>
<path d="M347.018 447.647L342.393 447.664L342.413 453.128L347.038 453.11L347.018 447.647Z" fill="#FECE71"/>
<path d="M356.892 447.61L352.267 447.627L352.288 453.091L356.913 453.073L356.892 447.61Z" fill="#85D2DA"/>
<path d="M367.137 447.572L362.512 447.59L362.532 453.054L367.158 453.036L367.137 447.572Z" fill="#F47954"/>
<path opacity="0.3" d="M331.11 275.56L276.318 275.766L276.368 288.889L331.159 288.683L331.11 275.56Z" fill="#5B6B85"/>
<path opacity="0.3" d="M331.442 364.146L276.651 364.352L276.7 377.475L331.492 377.269L331.442 364.146Z" fill="#5B6B85"/>
<path opacity="0.3" d="M331.277 320.214L276.486 320.42L276.535 333.543L331.327 333.338L331.277 320.214Z" fill="#5B6B85"/>
<path opacity="0.3" d="M331.592 404.017L276.801 404.223L276.85 417.346L331.641 417.14L331.592 404.017Z" fill="#5B6B85"/>
<path opacity="0.3" d="M331.742 443.886L276.95 444.092L277 457.215L331.791 457.01L331.742 443.886Z" fill="#5B6B85"/>
<path d="M305.311 474.158L531.451 473.309C531.998 473.307 532.524 473.523 532.913 473.91C533.301 474.296 533.521 474.821 533.523 475.37L533.546 481.534C533.55 482.615 533.125 483.652 532.366 484.419C531.607 485.186 530.575 485.619 529.497 485.623L307.358 486.457C306.28 486.461 305.245 486.036 304.48 485.275C303.715 484.514 303.283 483.479 303.278 482.399L303.255 476.224C303.256 475.677 303.473 475.153 303.858 474.766C304.243 474.379 304.766 474.16 305.311 474.158Z" fill="#324666"/>
<path d="M320.211 349.411L515.594 348.677C516.672 348.673 517.708 349.098 518.473 349.859C519.238 350.62 519.67 351.655 519.674 352.736L520.127 473.352L316.636 474.116L316.183 353.5C316.179 352.423 316.6 351.388 317.355 350.622C318.11 349.856 319.136 349.42 320.211 349.411Z" fill="#435D88"/>
<path opacity="0.1" d="M320.211 349.411L515.594 348.677C516.672 348.673 517.708 349.098 518.473 349.859C519.238 350.62 519.67 351.655 519.674 352.736L520.127 473.352L316.636 474.116L316.183 353.5C316.179 352.423 316.6 351.388 317.355 350.622C318.11 349.856 319.136 349.42 320.211 349.411Z" fill="#697DA0"/>
<path d="M509.259 358.217L326.639 358.902L327.014 458.968L509.634 458.283L509.259 358.217Z" fill="white"/>
<path d="M380.445 473.875L456.308 473.59L456.319 476.709C456.323 477.553 455.991 478.364 455.398 478.963C454.805 479.562 453.998 479.901 453.156 479.904L383.59 480.165C382.748 480.168 381.939 479.836 381.342 479.241C380.744 478.647 380.406 477.838 380.403 476.994L380.392 473.896L380.445 473.875Z" fill="#26354D"/>
<path d="M509.259 358.217L326.639 358.902L326.67 367.22L509.29 366.534L509.259 358.217Z" fill="#85D2DA"/>
<path d="M348.747 361.388L331.273 361.453L331.285 364.636L348.759 364.57L348.747 361.388Z" fill="#CEEDF0"/>
<path d="M495.626 360.836L492.451 360.848L492.463 364.03L495.638 364.018L495.626 360.836Z" fill="#CEEDF0"/>
<path d="M500.018 360.818L496.843 360.83L496.855 364.013L500.03 364.001L500.018 360.818Z" fill="#CEEDF0"/>
<path d="M504.421 360.803L501.246 360.814L501.258 363.997L504.433 363.985L504.421 360.803Z" fill="#CEEDF0"/>
<path d="M503.893 372.4L453.388 372.59L453.529 410.146L504.034 409.957L503.893 372.4Z" fill="#E7F6F8"/>
<path d="M489.69 381.069L486.092 381.082L486.106 384.689L489.704 384.676L489.69 381.069Z" fill="#4195C9"/>
<path d="M499.512 381.032L491.278 381.062L491.281 381.879L499.515 381.848L499.512 381.032Z" fill="#B3D5E9"/>
<path d="M496.163 382.445L491.283 382.463L491.287 383.28L496.166 383.261L496.163 382.445Z" fill="#B3D5E9"/>
<path d="M489.712 386.787L486.114 386.801L486.127 390.408L489.725 390.394L489.712 386.787Z" fill="#85D2DA"/>
<path d="M499.534 386.75L491.3 386.781L491.303 387.598L499.537 387.567L499.534 386.75Z" fill="#B3D5E9"/>
<path d="M496.184 388.152L491.305 388.17L491.308 388.987L496.187 388.969L496.184 388.152Z" fill="#B3D5E9"/>
<path d="M489.733 392.506L486.135 392.52L486.149 396.127L489.747 396.113L489.733 392.506Z" fill="#F47954"/>
<path d="M499.555 392.469L491.321 392.5L491.324 393.317L499.558 393.286L499.555 392.469Z" fill="#B3D5E9"/>
<path d="M496.205 393.87L491.326 393.889L491.329 394.706L496.208 394.687L496.205 393.87Z" fill="#B3D5E9"/>
<path d="M489.755 398.213L486.156 398.227L486.17 401.834L489.768 401.82L489.755 398.213Z" fill="#FECE71"/>
<path d="M499.577 398.176L491.343 398.207L491.346 399.024L499.58 398.993L499.577 398.176Z" fill="#B3D5E9"/>
<path d="M496.227 399.579L491.348 399.598L491.351 400.415L496.23 400.396L496.227 399.579Z" fill="#B3D5E9"/>
<path d="M469.276 381.463L469.313 391.298L472.538 382.024C471.486 381.67 470.386 381.481 469.276 381.463Z" fill="#85D2DA"/>
<path d="M472.909 382.151L469.443 392.105L479.261 388.323C478.691 386.906 477.832 385.625 476.737 384.562C475.643 383.499 474.339 382.678 472.909 382.151Z" fill="#F47954"/>
<path d="M470.301 392.197L480.036 391.799C479.98 390.735 479.765 389.684 479.4 388.683L470.301 392.197Z" fill="#FECE71"/>
<path d="M468.8 381.466C466.646 381.53 464.559 382.23 462.8 383.477C461.041 384.725 459.688 386.464 458.911 388.479C458.133 390.493 457.965 392.692 458.429 394.802C458.892 396.911 459.965 398.837 461.515 400.338C463.064 401.839 465.021 402.848 467.14 403.24C469.258 403.632 471.446 403.388 473.427 402.541C475.409 401.693 477.097 400.278 478.28 398.473C479.464 396.668 480.09 394.553 480.081 392.393L480.08 392.287L468.842 392.68L468.8 381.466Z" fill="#4195C9"/>
<path d="M475.953 392.398C475.958 393.753 475.562 395.08 474.815 396.21C474.068 397.34 473.004 398.222 471.756 398.746C470.509 399.269 469.135 399.41 467.808 399.15C466.48 398.891 465.26 398.243 464.3 397.288C463.34 396.333 462.684 395.114 462.416 393.786C462.147 392.457 462.277 391.079 462.79 389.825C463.303 388.57 464.175 387.497 465.296 386.739C466.418 385.982 467.738 385.575 469.09 385.57C470.904 385.563 472.645 386.279 473.932 387.559C475.219 388.84 475.946 390.58 475.953 392.398Z" fill="white"/>
<path d="M382.619 416.111L332.072 416.301L332.213 453.9L382.76 453.71L382.619 416.111Z" fill="#E7F6F8"/>
<path d="M368.428 424.98L365.729 424.99L365.739 427.696L368.438 427.685L368.428 424.98Z" fill="#4195C9"/>
<path d="M375.805 424.951L369.624 424.975L369.626 425.59L375.807 425.567L375.805 424.951Z" fill="#B3D5E9"/>
<path d="M373.29 426.002L369.628 426.016L369.63 426.631L373.292 426.617L373.29 426.002Z" fill="#B3D5E9"/>
<path d="M368.445 429.478L365.746 429.488L365.756 432.194L368.455 432.183L368.445 429.478Z" fill="#85D2DA"/>
<path d="M375.822 429.449L369.641 429.473L369.643 430.088L375.824 430.065L375.822 429.449Z" fill="#B3D5E9"/>
<path d="M373.307 430.51L369.645 430.523L369.647 431.139L373.309 431.125L373.307 430.51Z" fill="#B3D5E9"/>
<path d="M368.462 433.988L365.763 433.998L365.773 436.703L368.472 436.693L368.462 433.988Z" fill="#435D88"/>
<path d="M375.839 433.959L369.658 433.982L369.66 434.598L375.841 434.575L375.839 433.959Z" fill="#B3D5E9"/>
<path d="M373.324 435.008L369.662 435.021L369.664 435.637L373.326 435.623L373.324 435.008Z" fill="#B3D5E9"/>
<path d="M368.479 438.496L365.78 438.506L365.79 441.211L368.489 441.201L368.479 438.496Z" fill="#FECE71"/>
<path d="M375.856 438.469L369.675 438.492L369.677 439.108L375.858 439.084L375.856 438.469Z" fill="#B3D5E9"/>
<path d="M373.341 439.517L369.679 439.531L369.681 440.147L373.343 440.133L373.341 439.517Z" fill="#B3D5E9"/>
<path d="M368.496 442.994L365.797 443.004L365.807 445.709L368.506 445.699L368.496 442.994Z" fill="#F47954"/>
<path d="M375.872 442.967L369.692 442.99L369.694 443.606L375.875 443.582L375.872 442.967Z" fill="#B3D5E9"/>
<path d="M373.358 444.025L369.696 444.039L369.698 444.654L373.36 444.641L373.358 444.025Z" fill="#B3D5E9"/>
<path d="M358.973 440.749C359.666 439.257 360.021 437.629 360.013 435.982C360.005 434.941 359.855 433.907 359.568 432.907L348.837 436.024L358.973 440.749Z" fill="#85D2DA"/>
<path d="M337.782 437.497C338.104 439.893 339.191 442.121 340.881 443.847C342.571 445.572 344.773 446.703 347.158 447.069C349.543 447.435 351.981 447.017 354.109 445.878C356.237 444.738 357.94 442.939 358.962 440.749L348.837 436.023L337.782 437.497Z" fill="#4195C9"/>
<path d="M347.261 424.954C344.596 425.338 342.159 426.673 340.399 428.715C338.639 430.757 337.674 433.368 337.682 436.066C337.688 436.545 337.722 437.023 337.782 437.498L348.847 436.024L347.261 424.954Z" fill="#F47954"/>
<path d="M355.12 426.759C353.247 425.481 351.029 424.808 348.763 424.83C348.246 424.834 347.73 424.875 347.218 424.953L348.805 436.023L355.12 426.759Z" fill="#FECE71"/>
<path d="M355.12 426.759L348.805 436.024L359.536 432.907C358.82 430.406 357.259 428.233 355.12 426.759Z" fill="#435D88"/>
<path d="M504.055 415.654L453.551 415.844L453.692 453.443L504.197 453.253L504.055 415.654Z" fill="#E7F6F8"/>
<path d="M500.44 444.811L456.401 444.977L456.417 449.114L500.455 448.949L500.44 444.811Z" fill="#CEEDF0"/>
<path d="M500.41 437.003L456.372 437.168L456.387 441.306L500.426 441.14L500.41 437.003Z" fill="#CEEDF0"/>
<path d="M500.379 428.6L456.34 428.766L456.356 432.903L500.394 432.738L500.379 428.6Z" fill="#CEEDF0"/>
<path d="M500.348 420.368L456.31 420.533L456.325 424.671L500.363 424.505L500.348 420.368Z" fill="#CEEDF0"/>
<path d="M458.702 448.999L460.538 444.526L463.502 441.916L466.641 434.986L469.434 431.92L472.418 434.54L475.428 441.308L478.442 437.934L481.34 429.011L484.493 425.87L487.162 429.255L490.304 434.473L493.31 440.212L496.29 438.917L498.307 448.957L458.702 448.999Z" fill="#FECE71"/>
<path d="M458.703 449.043L460.544 446.235L463.512 444.59L466.66 440.25L469.458 438.33L472.438 439.963L475.438 444.206L478.457 442.083L481.368 436.492L484.525 434.528L487.19 436.629L490.324 439.896L493.322 443.492L496.304 442.674L498.307 448.958L458.703 449.043Z" fill="#4195C9"/>
<path d="M448.672 415.862L389.096 416.086L389.238 453.685L448.813 453.461L448.672 415.862Z" fill="#E7F6F8"/>
<path d="M444.637 446.231L393.677 446.422L393.689 449.774L444.649 449.583L444.637 446.231Z" fill="#CEEDF0"/>
<path d="M444.612 439.516L393.652 439.707L393.664 443.06L444.624 442.868L444.612 439.516Z" fill="#CEEDF0"/>
<path d="M444.586 432.799L393.626 432.99L393.639 436.343L444.599 436.151L444.586 432.799Z" fill="#CEEDF0"/>
<path d="M444.561 426.094L393.601 426.285L393.614 429.638L444.574 429.446L444.561 426.094Z" fill="#CEEDF0"/>
<path d="M444.536 419.379L393.576 419.57L393.589 422.923L444.549 422.731L444.536 419.379Z" fill="#CEEDF0"/>
<path d="M397.323 442.367L394.635 442.377L394.654 447.491L397.343 447.48L397.323 442.367Z" fill="#F47954"/>
<path d="M420.511 436.254L417.823 436.264L417.864 447.403L420.553 447.393L420.511 436.254Z" fill="#F47954"/>
<path d="M428.187 420.257L425.499 420.268L425.601 447.385L428.289 447.375L428.187 420.257Z" fill="#F47954"/>
<path d="M435.968 432.037L433.28 432.047L433.338 447.356L436.026 447.346L435.968 432.037Z" fill="#F47954"/>
<path d="M443.725 437.449L441.037 437.459L441.074 447.315L443.762 447.305L443.725 437.449Z" fill="#F47954"/>
<path d="M405.024 432.662L402.336 432.672L402.391 447.472L405.08 447.462L405.024 432.662Z" fill="#F47954"/>
<path d="M412.759 432.123L410.07 432.133L410.128 447.442L412.816 447.432L412.759 432.123Z" fill="#F47954"/>
<path d="M397.332 444.658L394.644 444.668L394.663 449.782L397.351 449.772L397.332 444.658Z" fill="#4195C9"/>
<path d="M420.52 438.554L417.831 438.564L417.873 449.693L420.561 449.683L420.52 438.554Z" fill="#4195C9"/>
<path d="M428.201 423.853L425.513 423.863L425.61 449.654L428.298 449.644L428.201 423.853Z" fill="#4195C9"/>
<path d="M435.977 434.338L433.289 434.348L433.346 449.636L436.034 449.625L435.977 434.338Z" fill="#4195C9"/>
<path d="M443.734 439.752L441.046 439.762L441.083 449.607L443.771 449.597L443.734 439.752Z" fill="#4195C9"/>
<path d="M405.032 434.974L402.344 434.984L402.4 449.752L405.088 449.742L405.032 434.974Z" fill="#4195C9"/>
<path d="M412.767 434.425L410.079 434.436L410.136 449.723L412.825 449.713L412.767 434.425Z" fill="#4195C9"/>
<path d="M426.836 418.31L424.58 420.589L429.099 420.572L426.836 418.31Z" fill="#F47954"/>
<path d="M448.499 372.609L331.91 373.047L332.055 411.739L448.644 411.301L448.499 372.609Z" fill="#E7F6F8"/>
<path d="M378.565 387.808C377.916 384.894 376.34 382.27 374.075 380.33C371.811 378.39 368.979 377.239 366.006 377.051C363.033 376.862 360.08 377.646 357.589 379.284C355.098 380.923 353.206 383.327 352.195 386.136C351.676 385.963 351.132 385.876 350.585 385.877C349.909 385.878 349.24 386.013 348.617 386.274C347.993 386.535 347.427 386.916 346.951 387.397C346.475 387.878 346.098 388.449 345.842 389.076C345.587 389.703 345.457 390.374 345.461 391.052C345.465 391.343 345.491 391.634 345.538 391.922C345.082 391.825 344.617 391.777 344.151 391.778C342.386 391.855 340.719 392.613 339.499 393.894C338.28 395.175 337.602 396.88 337.609 398.651C337.616 400.422 338.306 402.122 339.535 403.394C340.764 404.666 342.437 405.412 344.203 405.475L378.441 405.346C380.711 405.287 382.87 404.346 384.461 402.721C386.052 401.096 386.95 398.915 386.966 396.638C386.983 394.361 386.115 392.167 384.548 390.52C382.98 388.872 380.835 387.9 378.565 387.808Z" fill="#4195C9"/>
<path d="M342.168 399.202C342.157 396.083 344.074 393.731 347.059 393.72L347.26 393.719C346.935 393.661 346.605 393.631 346.275 393.628C344.869 393.625 343.514 394.157 342.482 395.115C341.451 396.073 340.819 397.387 340.715 398.793C340.61 400.198 341.04 401.592 341.918 402.693C342.796 403.794 344.058 404.521 345.449 404.728C343.277 404.015 342.178 401.717 342.168 399.202Z" fill="#64AADA"/>
<path d="M382.914 395.855C382.899 391.951 381.268 388.753 375.013 388.829C374.377 382.943 370 378.557 364.613 378.577C360.941 378.591 357.596 381.394 355.564 384.149C356.94 382.624 358.709 381.509 360.677 380.926C362.645 380.344 364.735 380.317 366.717 380.848C368.699 381.379 370.496 382.447 371.912 383.936C373.327 385.425 374.306 387.276 374.74 389.287C376.082 389.309 377.391 389.712 378.515 390.449C379.638 391.186 380.531 392.227 381.089 393.452C381.647 394.676 381.848 396.034 381.669 397.368C381.49 398.702 380.937 399.957 380.075 400.99C381.573 399.669 382.922 398.019 382.914 395.855Z" fill="#64AADA"/>
<g opacity="0.5">
<path d="M352.346 386.996C352.138 386.986 351.93 386.987 351.722 386.998C351.038 386.992 350.363 387.157 349.758 387.478C349.153 387.799 348.638 388.266 348.257 388.836C347.904 389.438 347.673 390.105 347.578 390.797C347.482 391.489 347.524 392.193 347.701 392.869C347.701 392.869 347.839 393.07 347.86 393.07C347.795 392.72 347.755 392.366 347.74 392.01C347.692 390.734 348.15 389.491 349.013 388.551C349.875 387.612 351.074 387.053 352.346 386.996Z" fill="#64AADA"/>
</g>
<path d="M360.39 401.129C360.39 401.129 357.2 397.131 359.301 392.847C361.401 388.564 366.169 387.05 371.261 390.256C371.261 390.256 363.704 387.367 360.93 392.735C358.156 398.103 360.39 401.129 360.39 401.129Z" fill="#64AADA"/>
<path d="M363.588 393L356.956 399.699L370.28 399.649L363.588 393Z" fill="#C8E5F7"/>
<path d="M366.59 400.405L360.652 400.428L360.656 401.361L366.593 401.339L366.59 400.405Z" fill="#C8E5F7"/>
<path d="M366.595 401.816L360.657 401.838L360.661 402.772L366.598 402.749L366.595 401.816Z" fill="#C8E5F7"/>
<path d="M366.6 403.343L360.663 403.365L360.666 404.055L366.603 404.033L366.6 403.343Z" fill="#C8E5F7"/>
<path d="M366.606 404.808L360.669 404.83L360.671 405.392L366.608 405.37L366.606 404.808Z" fill="#C8E5F7"/>
<path d="M366.612 406.282L360.674 406.305L360.676 406.718L366.613 406.696L366.612 406.282Z" fill="#C8E5F7"/>
<path d="M366.617 407.757L360.68 407.779L360.681 408.066L366.618 408.043L366.617 407.757Z" fill="#C8E5F7"/>
<path d="M366.623 409.2L360.685 409.223L360.686 409.445L366.624 409.423L366.623 409.2Z" fill="#C8E5F7"/>
<path d="M442.189 386.319L410.608 386.438L410.624 390.681L442.205 390.563L442.189 386.319Z" fill="#CEEDF0"/>
<path d="M428.563 390.614L410.624 390.681L410.608 386.438L428.547 386.37L430.291 388.485L428.563 390.614Z" fill="#F47954"/>
<path d="M397.674 386.347C397.523 386.338 397.371 386.338 397.219 386.348C396.847 386.365 396.492 386.508 396.212 386.754C395.933 387 395.744 387.334 395.679 387.701C395.878 387.489 396.138 387.344 396.422 387.284C396.707 387.225 397.003 387.254 397.27 387.369C397.537 387.484 397.763 387.678 397.916 387.926C398.07 388.173 398.144 388.462 398.128 388.753C398.136 388.97 398.1 389.186 398.022 389.388C397.944 389.59 397.827 389.775 397.676 389.93C397.525 390.085 397.344 390.208 397.145 390.291C396.945 390.375 396.731 390.416 396.515 390.414C396.265 390.414 396.018 390.361 395.79 390.258C395.562 390.155 395.359 390.004 395.194 389.816C395.029 389.628 394.906 389.406 394.833 389.167C394.76 388.927 394.739 388.675 394.771 388.426C394.748 388.036 394.806 387.645 394.943 387.279C395.081 386.912 395.293 386.58 395.568 386.301C396.016 385.891 396.59 385.645 397.195 385.606C397.343 385.59 397.492 385.589 397.64 385.604L397.674 386.347ZM397.271 388.831C397.285 388.716 397.275 388.6 397.242 388.49C397.208 388.379 397.15 388.278 397.074 388.191C396.997 388.105 396.903 388.036 396.798 387.99C396.692 387.943 396.578 387.92 396.463 387.921C396.307 387.923 396.154 387.967 396.022 388.05C395.89 388.133 395.783 388.251 395.713 388.391C395.677 388.478 395.659 388.572 395.661 388.667C395.664 389.282 395.972 389.727 396.523 389.725C397.073 389.723 397.273 389.382 397.271 388.873L397.271 388.831Z" fill="#3D95D1"/>
<path d="M401.914 387.997C401.919 389.482 401.341 390.418 400.24 390.422C399.139 390.426 398.607 389.463 398.601 388.052C398.596 386.641 399.196 385.652 400.275 385.648C401.355 385.644 401.909 386.629 401.914 387.997ZM399.48 388.006C399.484 389.131 399.782 389.713 400.269 389.711C400.756 389.71 401.05 389.082 401.046 387.969C401.042 386.855 400.785 386.272 400.256 386.274C399.727 386.276 399.465 386.892 399.48 388.049L399.48 388.006Z" fill="#3D95D1"/>
<path d="M404.715 387C404.718 387.976 404.159 388.466 403.524 388.468C402.889 388.471 402.358 387.974 402.344 387.083C402.33 386.192 402.836 385.638 403.545 385.636C404.255 385.633 404.712 386.162 404.715 387ZM403.011 387.006C403.013 387.547 403.194 387.939 403.544 387.938C403.893 387.936 404.061 387.565 404.059 387.002C404.057 386.44 403.918 386.08 403.537 386.081C403.156 386.083 403.009 386.539 403.011 387.049L403.011 387.006ZM403.542 390.367L406.202 385.583L406.699 385.581L404.04 390.365L403.542 390.367ZM407.897 388.866C407.901 389.831 407.341 390.332 406.706 390.334C406.071 390.337 405.54 389.84 405.537 388.938C405.513 388.764 405.525 388.586 405.573 388.416C405.621 388.246 405.703 388.088 405.815 387.952C405.927 387.816 406.066 387.705 406.223 387.625C406.38 387.546 406.552 387.5 406.728 387.491C407.458 387.531 407.894 388.07 407.897 388.908L407.897 388.866ZM406.193 388.872C406.195 389.403 406.376 389.794 406.726 389.793C407.075 389.792 407.243 389.43 407.241 388.868C407.239 388.306 407.1 387.946 406.719 387.947C406.338 387.949 406.191 388.437 406.193 388.957L406.193 388.872Z" fill="#3D95D1"/>
<path d="M442.225 395.973L410.644 396.092L410.66 400.335L442.241 400.217L442.225 395.973Z" fill="#CEEDF0"/>
<path d="M434.833 400.245L410.66 400.335L410.644 396.092L434.817 396.001L436.561 398.116L434.833 400.245Z" fill="#4195C9"/>
<path d="M394.845 399.578C394.847 399.312 394.932 399.054 395.086 398.839C395.241 398.624 395.458 398.462 395.708 398.376C395.493 398.299 395.308 398.154 395.182 397.964C395.055 397.773 394.993 397.546 395.006 397.317C395.018 397.131 395.068 396.949 395.153 396.783C395.237 396.616 395.355 396.469 395.498 396.349C395.641 396.23 395.806 396.141 395.985 396.087C396.163 396.034 396.351 396.017 396.536 396.038C397.531 396.035 397.988 396.638 397.99 397.2C397.987 397.426 397.919 397.647 397.794 397.836C397.669 398.024 397.492 398.173 397.285 398.264C397.534 398.338 397.754 398.49 397.912 398.697C398.071 398.904 398.16 399.156 398.168 399.417C398.171 400.244 397.474 400.798 396.49 400.802C395.506 400.806 394.848 400.225 394.845 399.578ZM397.279 399.568C397.278 399.102 396.927 398.848 396.419 398.702C396.231 398.743 396.062 398.846 395.94 398.995C395.818 399.143 395.749 399.329 395.745 399.521C395.74 399.623 395.757 399.724 395.795 399.819C395.833 399.913 395.891 399.998 395.964 400.068C396.038 400.138 396.125 400.192 396.221 400.225C396.317 400.258 396.419 400.271 396.52 400.261C396.623 400.271 396.728 400.257 396.825 400.221C396.923 400.185 397.011 400.128 397.084 400.054C397.157 399.979 397.212 399.889 397.246 399.791C397.28 399.692 397.291 399.587 397.279 399.484L397.279 399.568ZM395.832 397.335C395.833 397.717 396.151 397.939 396.586 398.054C396.744 398.02 396.887 397.933 396.99 397.807C397.094 397.682 397.152 397.525 397.155 397.362C397.159 397.275 397.145 397.187 397.113 397.105C397.081 397.024 397.033 396.949 396.971 396.888C396.909 396.826 396.834 396.778 396.753 396.747C396.671 396.716 396.583 396.702 396.496 396.707C396.414 396.7 396.331 396.71 396.252 396.736C396.174 396.762 396.101 396.803 396.039 396.858C395.977 396.913 395.927 396.98 395.891 397.054C395.855 397.129 395.835 397.21 395.831 397.293L395.832 397.335Z" fill="#3D95D1"/>
<path d="M401.953 398.404C401.958 399.889 401.38 400.815 400.279 400.819C399.178 400.823 398.646 399.859 398.64 398.459C398.635 397.059 399.235 396.049 400.314 396.044C401.394 396.04 401.948 397.036 401.953 398.404ZM399.519 398.413C399.523 399.538 399.821 400.11 400.308 400.108C400.795 400.106 401.089 399.479 401.085 398.376C401.081 397.272 400.825 396.668 400.295 396.67C399.766 396.672 399.504 397.289 399.519 398.413Z" fill="#3D95D1"/>
<path d="M404.754 397.407C404.758 398.372 404.198 398.873 403.563 398.875C402.928 398.878 402.397 398.381 402.383 397.49C402.37 396.599 402.875 396.035 403.585 396.032C404.294 396.029 404.751 396.569 404.754 397.407ZM403.05 397.413C403.052 397.944 403.233 398.336 403.583 398.334C403.932 398.333 404.1 397.972 404.098 397.409C404.096 396.847 403.957 396.476 403.576 396.478C403.195 396.479 403.048 396.936 403.05 397.456L403.05 397.413ZM403.581 400.764L406.241 395.98L406.738 395.978L404.079 400.762L403.581 400.764ZM407.936 399.262C407.94 400.238 407.381 400.728 406.746 400.731C406.111 400.733 405.58 400.247 405.576 399.345C405.573 398.444 406.068 397.89 406.767 397.887C407.465 397.885 407.933 398.477 407.936 399.305L407.936 399.262ZM406.232 399.269C406.234 399.799 406.415 400.191 406.765 400.19C407.114 400.188 407.282 399.816 407.28 399.254C407.278 398.692 407.139 398.332 406.758 398.333C406.377 398.334 406.23 398.844 406.232 399.364L406.232 399.269Z" fill="#3D95D1"/>
<path d="M298.909 398.198L304.822 397.454L305.645 396.804L305.976 394.681L305.972 393.556L305.393 391.542L305.217 389.899C305.158 389.358 304.95 388.845 304.615 388.417C304.281 387.989 303.834 387.663 303.324 387.476L301.512 386.815L298.795 387.674L296.884 388.954L297.028 393.314L298.488 396.067L298.909 398.198Z" fill="#F8AF98"/>
<path d="M300.371 401.449L302.487 401.282C302.636 401.283 302.784 401.251 302.921 401.19C303.057 401.129 303.179 401.04 303.279 400.929C303.378 400.817 303.453 400.686 303.498 400.543C303.543 400.4 303.558 400.25 303.541 400.101L303.006 395.732L298.668 396.066L299.203 400.435C299.209 400.58 299.244 400.723 299.307 400.854C299.369 400.985 299.458 401.101 299.568 401.196C299.677 401.291 299.805 401.363 299.943 401.406C300.081 401.45 300.227 401.465 300.371 401.449Z" fill="#F8AF98"/>
<path d="M304.406 388.077L303.011 388.697L303.576 389.565L303.53 391.422L303.63 392.907L303.303 393.014L302.834 392.273L302.38 392.508L302.373 393.569L302.854 394.703L301.737 396.075L298.5 396.554L296.783 392.943L296.326 389.656L297.937 387.496L301.425 386.104L303.415 386.298L305.196 387.172L304.406 388.077Z" fill="#B75B3F"/>
<path d="M294.465 435.316L311.516 435.252L311.512 434.424L312.238 433.18L311.543 431.379C311.543 431.379 311.471 429.141 311.392 425.014C311.329 422.118 311.944 416.928 311.74 413.152C311.609 409.166 310.965 405.213 309.822 401.393C309.232 399.178 306.323 399.751 306.323 399.751L297.054 400.295C291.649 401.185 290.529 404.415 291.628 412.4L293.593 425.537L293.811 427.266L293.04 433.273L294.166 434.394L294.465 435.316Z" fill="#FECE71"/>
<path d="M315.195 501.906L315.089 501.906L315.091 502.468L312.445 502.478L312.517 501.735L312.601 501.735L313.194 499.038L315.946 499.028L316.011 499.378L316.681 500.309L320.707 501.45C320.707 501.45 321.025 501.587 321.026 501.767L321.028 502.276C321.028 502.276 320.975 502.361 320.648 502.458L316.033 502.476L315.757 502.105L315.481 501.926L315.195 501.906Z" fill="#26354D"/>
<path d="M293.34 501.988L293.266 501.988L293.268 502.55L290.612 502.56L290.683 501.817L290.767 501.817L291.361 499.12L294.123 499.11L294.177 499.46L294.858 500.391L298.884 501.532C298.884 501.532 299.202 501.669 299.192 501.849L299.194 502.358C299.194 502.358 299.142 502.444 298.814 502.54L294.199 502.558L293.923 502.187L293.647 502.008L293.34 501.988Z" fill="#26354D"/>
<path d="M294.42 499.416L290.323 499.113L292.353 467.469L293.168 442.205L292.998 439.044L294.067 436.292L294.029 434.764L304.158 434.726L303.904 437.581L298.951 468.653L294.42 499.416Z" fill="#4195C9"/>
<path d="M316.265 499.346L312.096 499.574L307.523 468.485L301.848 436.784L301.84 434.736L311.725 434.699L312.161 438.082L314.188 467.759L316.265 499.346Z" fill="#4195C9"/>
<path d="M333.045 387.842L332.209 388.025L331.821 388.759L331.423 390.001L332.72 388.585L332.751 388.405L333.068 388.234L333.363 387.957L333.045 387.842Z" fill="#F8AF98"/>
<path d="M335.432 389.402L334.985 388.874L335.564 388.054C335.62 388.013 335.689 387.992 335.759 387.996C335.829 388 335.895 388.028 335.945 388.076C335.996 388.124 336.028 388.189 336.036 388.258C336.044 388.328 336.028 388.398 335.989 388.456L335.432 389.402Z" fill="#F8AF98"/>
<path d="M336.234 388.648C336.307 388.717 336.354 388.811 336.366 388.911C336.378 389.012 336.354 389.114 336.299 389.199L335.995 390.007L335.89 390.134L335.538 389.435C335.643 389.198 335.773 388.974 335.927 388.765C335.99 388.691 336.085 388.542 336.234 388.648Z" fill="#F8AF98"/>
<path d="M334.974 388.758L334.422 388.24L335.192 387.495C335.218 387.465 335.249 387.442 335.285 387.425C335.32 387.409 335.359 387.401 335.398 387.401C335.437 387.4 335.476 387.409 335.511 387.425C335.547 387.441 335.579 387.464 335.605 387.493C335.658 387.547 335.688 387.619 335.688 387.695C335.688 387.77 335.659 387.843 335.606 387.896L334.974 388.758Z" fill="#F8AF98"/>
<path d="M334.348 388.187L336.159 385.794C336.213 385.738 336.243 385.664 336.242 385.586C336.242 385.509 336.212 385.435 336.158 385.38C336.131 385.352 336.099 385.33 336.063 385.315C336.028 385.3 335.99 385.292 335.951 385.292C335.913 385.292 335.874 385.3 335.839 385.316C335.804 385.331 335.772 385.353 335.745 385.381L333.69 387.617L334.348 388.187Z" fill="#F8AF98"/>
<path d="M333.721 387.607L332.994 388.31L332.698 388.555L331.643 389.493L331.256 390.65L328.426 395.075L330.823 396.424L333.486 392.711L335.037 391.358L336.038 390.017C335.847 389.343 335.479 388.733 334.973 388.249C334.653 387.882 334.205 387.652 333.721 387.607Z" fill="#F8AF98"/>
<path d="M332.603 388.66L332.708 388.373L333.247 388.074L332.603 388.66Z" fill="#B97373"/>
<path d="M332.943 394.419L329.76 392.309L322.935 401.151L307.583 399.756C306.772 400.051 306.092 400.625 305.663 401.375C305.376 401.763 305.182 402.212 305.094 402.686C305.006 403.161 305.026 403.649 305.154 404.114L305.229 404.379C305.322 404.717 305.492 405.027 305.727 405.286C305.961 405.545 306.253 405.745 306.579 405.87L306.718 406.209C307.365 406.557 307.956 406.13 308.686 406.138C314.328 406.255 324.307 405.995 324.307 405.995L325.479 405.237L332.943 394.419Z" fill="#FECE71"/>
<path d="M288.395 439.444L289.069 441.372L289.275 442.549C289.275 442.549 289.277 443.079 289.278 443.249C289.278 443.283 289.271 443.316 289.259 443.347C289.246 443.378 289.228 443.406 289.204 443.43C289.179 443.453 289.148 443.47 289.115 443.479C289.082 443.488 289.048 443.49 289.014 443.483C288.844 443.484 288.748 443.209 288.715 442.742L288.714 442.519L288.714 442.466L288.532 442.085L288.415 441.905L288.335 442.966C287.958 443.188 287.514 443.261 287.086 443.172C286.434 443.113 285.808 442.881 285.274 442.5L285.413 440.091L285.8 438.923L286.279 433.945L289.053 434.296L288.395 439.444Z" fill="#F8AF98"/>
<path d="M286.185 445.52L286.185 445.594C286.175 445.666 286.137 445.73 286.08 445.774C286.023 445.818 285.951 445.837 285.879 445.829C285.807 445.816 285.742 445.776 285.699 445.717C285.655 445.658 285.636 445.584 285.645 445.511L285.645 445.416L285.931 442.667L286.566 442.824L286.185 445.52Z" fill="#F8AF98"/>
<path d="M285.43 444.675C285.42 444.747 285.382 444.811 285.325 444.855C285.268 444.899 285.196 444.919 285.124 444.91C285.052 444.897 284.988 444.857 284.944 444.798C284.901 444.739 284.881 444.665 284.89 444.592L284.89 444.423L285.136 442.3L285.782 442.594L285.419 444.516L285.43 444.675Z" fill="#F8AF98"/>
<path d="M287.034 446.058C287.031 446.094 287.021 446.129 287.005 446.161C286.989 446.193 286.966 446.221 286.938 446.244C286.911 446.267 286.879 446.284 286.844 446.294C286.81 446.304 286.774 446.307 286.738 446.303C286.667 446.295 286.602 446.26 286.556 446.205C286.51 446.149 286.488 446.079 286.494 446.007L286.704 442.823L287.403 442.906L287.044 446.016L287.034 446.058Z" fill="#F8AF98"/>
<path d="M288.048 445.63L288.049 445.821C288.044 445.895 288.01 445.964 287.955 446.014C287.9 446.064 287.827 446.09 287.753 446.087C287.717 446.085 287.682 446.075 287.649 446.059C287.617 446.042 287.588 446.02 287.564 445.992C287.541 445.965 287.523 445.933 287.511 445.898C287.5 445.864 287.496 445.827 287.498 445.791L287.498 445.706L287.551 442.905L288.239 442.839L288.059 445.63L288.048 445.63Z" fill="#F8AF98"/>
<path opacity="0.1" d="M288.299 441.927L287.598 441.357L287.287 440.297L287.545 441.452L288.31 442.086L288.299 441.927Z" fill="#1A2C3D"/>
<path d="M297.137 405.387C296.997 406.312 296.784 407.225 296.501 408.116L291.006 424.284L289.068 438.084L285.161 437.77L286.018 423.72L286.214 422.361C286.214 422.361 289.944 406.518 292.112 403.242C292.397 402.838 292.79 402.522 293.247 402.333C293.703 402.143 294.204 402.087 294.69 402.171C295.941 402.591 297.34 403.297 297.137 405.387Z" fill="#FECE71"/>
<path d="M298.871 399.438L303.474 399.177L303.816 399.94L298.631 400.235L298.871 399.438Z" fill="#FECE71"/>
<path d="M305.312 175.473C303.738 168.202 299.843 161.643 294.216 156.791C288.59 151.939 281.538 149.059 274.131 148.587C266.724 148.114 259.365 150.076 253.171 154.173C246.976 158.271 242.283 164.282 239.804 171.295C237.882 170.659 235.837 170.49 233.838 170.803C231.838 171.117 229.942 171.902 228.305 173.095C226.669 174.288 225.339 175.854 224.426 177.665C223.512 179.475 223.042 181.477 223.053 183.505C223.062 184.216 223.128 184.926 223.252 185.626C222.119 185.396 220.966 185.283 219.811 185.289C215.311 185.306 211.003 187.114 207.833 190.315C204.663 193.517 202.892 197.849 202.909 202.359C202.926 206.87 204.73 211.189 207.923 214.366C211.117 217.544 215.439 219.319 219.938 219.302C220.266 219.301 220.605 219.3 220.933 219.299C221.261 219.297 221.357 219.297 221.568 219.296L304.988 218.983C310.546 218.73 315.796 216.349 319.654 212.331C323.513 208.313 325.687 202.964 325.729 197.387C325.77 191.81 323.676 186.429 319.877 182.354C316.079 178.279 310.865 175.82 305.312 175.483L305.312 175.473Z" fill="#D9F1FF"/>
<path d="M214.948 203.767C214.919 196.023 219.691 190.17 227.111 190.142L227.608 190.14C226.8 189.998 225.982 189.927 225.162 189.926C221.634 189.871 218.219 191.171 215.616 193.559C213.013 195.947 211.42 199.242 211.163 202.769C210.905 206.297 212.003 209.789 214.232 212.532C216.461 215.274 219.651 217.058 223.149 217.518C217.702 215.724 214.972 210.016 214.948 203.767Z" fill="#D9F1FF"/>
<path d="M316.193 195.441C316.156 185.755 312.083 177.813 296.547 177.988C294.968 163.374 284.111 152.477 270.786 152.527C261.642 152.561 253.338 159.52 248.295 166.403C251.713 162.606 256.111 159.828 261.004 158.376C265.897 156.925 271.095 156.855 276.025 158.175C280.955 159.495 285.426 162.153 288.945 165.857C292.464 169.561 294.895 174.167 295.969 179.168C299.287 179.252 302.514 180.272 305.28 182.109C308.046 183.947 310.24 186.529 311.61 189.559C312.98 192.589 313.471 195.944 313.026 199.241C312.582 202.538 311.22 205.642 309.097 208.199C312.863 204.917 316.213 200.82 316.193 195.441Z" fill="#D9F1FF"/>
<g opacity="0.5">
<path d="M240.235 173.435C239.723 173.37 239.206 173.336 238.69 173.335C236.989 173.316 235.311 173.725 233.809 174.523C232.307 175.322 231.029 176.486 230.092 177.908C229.212 179.404 228.636 181.059 228.398 182.779C228.159 184.499 228.262 186.249 228.7 187.928C228.7 187.928 229.052 188.415 229.083 188.426C228.931 187.531 228.832 186.628 228.787 185.721C228.718 182.581 229.876 179.537 232.015 177.241C234.154 174.945 237.105 173.579 240.235 173.435Z" fill="#D9F1FF"/>
</g>
<path d="M260.211 208.564C260.211 208.564 252.258 198.621 257.562 187.97C262.867 177.32 274.601 173.573 287.268 181.493C287.268 181.493 268.486 174.328 261.593 187.647C254.701 200.967 260.211 208.564 260.211 208.564Z" fill="#D9F1FF"/>
<path d="M264.749 193.735L245.676 212.999L283.967 212.855L264.749 193.735Z" fill="#4195C9"/>
<path d="M273.37 215.028L256.288 215.092L256.298 217.765L273.38 217.701L273.37 215.028Z" fill="#4195C9"/>
<path d="M273.385 219.071L256.303 219.135L256.314 221.808L273.395 221.744L273.385 219.071Z" fill="#4195C9"/>
<path d="M273.402 223.473L256.32 223.537L256.327 225.51L273.409 225.446L273.402 223.473Z" fill="#4195C9"/>
<path d="M273.418 227.684L256.336 227.748L256.342 229.371L273.424 229.307L273.418 227.684Z" fill="#4195C9"/>
<path d="M273.434 231.938L256.352 232.002L256.356 233.211L273.438 233.147L273.434 231.938Z" fill="#4195C9"/>
<path d="M273.45 236.172L256.368 236.236L256.371 237.064L273.453 237L273.45 236.172Z" fill="#4195C9"/>
<path d="M273.465 240.309L256.383 240.373L256.386 241.01L273.468 240.945L273.465 240.309Z" fill="#4195C9"/>
<path d="M597.228 422.348L596.961 424.503L596.36 425.163L595.655 426.152L595.252 428.71L595.803 428.974L596.285 427.508L596.497 427.624L595.703 430.385L597.691 429.953L598.995 427.699L599.17 426.574L599.068 424.664L599.494 422.679L597.228 422.348Z" fill="#FBCDA6"/>
<path d="M600.464 415.918L600.284 416.035C599.165 416.718 598.168 416.16 596.989 414.88C594.215 411.931 590.542 408.889 587.808 405.366C587.547 405.098 587.344 404.778 587.211 404.428C587.077 404.077 587.017 403.703 587.033 403.328C587.05 402.953 587.143 402.586 587.306 402.248C587.47 401.911 587.7 401.611 587.984 401.366L588.142 401.185C589.376 400.056 590.861 400.963 591.818 402.031C595.113 405.732 600.917 412.659 600.917 412.659C601.111 412.898 601.254 413.176 601.337 413.473C601.419 413.77 601.44 414.081 601.398 414.387C601.355 414.693 601.25 414.986 601.09 415.25C600.929 415.513 600.716 415.74 600.464 415.918Z" fill="#85D2DA"/>
<path d="M599.668 423.899L596.851 423.337C597.217 420.54 597.384 417.721 597.349 414.9C597.342 413.054 597.803 411.843 599.105 411.902C600.417 411.961 601.722 412.805 601.392 414.981C600.939 418.293 599.668 423.899 599.668 423.899Z" fill="#85D2DA"/>
<path d="M585.861 425.055L533.288 398.782L536.817 391.608L589.39 417.934C589.419 417.947 589.444 417.966 589.465 417.989C589.485 418.013 589.501 418.04 589.511 418.07C589.521 418.1 589.525 418.131 589.523 418.162C589.52 418.193 589.512 418.224 589.497 418.252L586.146 424.948C586.118 424.996 586.074 425.032 586.022 425.052C585.971 425.071 585.914 425.073 585.861 425.055Z" fill="#26354D"/>
<path d="M596.079 431.922L546.921 407.461C546.649 407.332 546.405 407.15 546.204 406.925C546.002 406.701 545.847 406.439 545.748 406.154C545.648 405.869 545.606 405.568 545.624 405.266C545.642 404.965 545.719 404.67 545.851 404.399L548.907 398.192C549.036 397.919 549.218 397.675 549.442 397.473C549.666 397.271 549.927 397.116 550.211 397.016C550.495 396.916 550.796 396.874 551.097 396.892C551.398 396.91 551.692 396.987 551.962 397.119L601.131 421.57C602.414 422.308 603.188 422.623 602.621 423.771L598.672 431.859C598.136 433.028 597.203 432.48 596.079 431.922Z" fill="#F47954"/>
<path d="M501.88 349.29C500.981 349.516 500.083 349.785 499.195 350.085C490.808 352.952 483.876 358.999 479.885 366.93C475.895 374.861 475.164 384.043 477.85 392.508C480.536 400.973 486.424 408.045 494.251 412.208C502.079 416.372 511.222 417.294 519.72 414.778C528.218 412.261 535.394 406.506 539.708 398.748C544.022 390.989 545.13 381.845 542.796 373.276C540.462 364.707 534.87 357.397 527.221 352.913C519.572 348.429 510.474 347.128 501.88 349.29ZM519.037 408.638C515.544 409.992 511.813 410.623 508.071 410.494C504.328 410.365 500.649 409.479 497.257 407.888C493.865 406.298 490.828 404.036 488.33 401.238C485.833 398.441 483.925 395.166 482.723 391.611C481.52 388.055 481.047 384.293 481.333 380.55C481.618 376.806 482.656 373.16 484.384 369.829C486.111 366.498 488.493 363.552 491.386 361.168C494.279 358.784 497.623 357.011 501.217 355.955C501.946 355.709 502.687 355.494 503.416 355.311C510.368 353.577 517.719 354.602 523.934 358.173C530.148 361.744 534.747 367.584 536.767 374.474C538.788 381.363 538.074 388.768 534.776 395.143C531.478 401.517 525.85 406.368 519.069 408.681L519.037 408.638Z" fill="#26354D"/>
<path opacity="0.3" d="M538.724 375.135C540.141 380.81 539.848 386.778 537.882 392.286C535.915 397.794 532.364 402.594 527.676 406.079C522.988 409.563 517.375 411.576 511.546 411.862C505.717 412.149 499.934 410.696 494.928 407.688C489.923 404.68 485.92 400.251 483.425 394.963C480.93 389.674 480.056 383.762 480.913 377.976C481.77 372.189 484.319 366.787 488.239 362.453C492.158 358.118 497.272 355.047 502.934 353.626C510.525 351.724 518.559 352.921 525.27 356.954C531.981 360.987 536.82 367.526 538.724 375.135Z" fill="white"/>
<path opacity="0.3" d="M536.969 375.618C538.288 380.944 538.004 386.542 536.152 391.706C534.299 396.87 530.961 401.368 526.56 404.632C522.159 407.895 516.892 409.778 511.423 410.043C505.955 410.307 500.532 408.941 495.837 406.118C491.143 403.294 487.389 399.139 485.049 394.178C482.708 389.217 481.888 383.672 482.689 378.243C483.491 372.815 485.88 367.746 489.554 363.678C493.228 359.609 498.023 356.723 503.332 355.385C506.866 354.494 510.541 354.311 514.145 354.846C517.75 355.381 521.214 356.624 524.339 358.504C527.464 360.383 530.188 362.862 532.355 365.799C534.522 368.736 536.09 372.073 536.969 375.618Z" fill="#4195C9"/>
<path opacity="0.2" d="M534.103 376.298C535.292 381.059 535.045 386.067 533.394 390.688C531.744 395.309 528.763 399.335 524.83 402.258C520.896 405.18 516.186 406.868 511.296 407.107C506.405 407.346 501.554 406.127 497.355 403.602C493.156 401.077 489.798 397.361 487.706 392.923C485.614 388.486 484.882 383.526 485.603 378.671C486.323 373.816 488.463 369.285 491.753 365.649C495.042 362.014 499.333 359.438 504.083 358.248C510.452 356.651 517.192 357.656 522.822 361.041C528.452 364.426 532.51 369.914 534.103 376.298Z" fill="white"/>
<path opacity="0.5" d="M512.15 369.855C521.04 369.991 528.967 372.678 534.338 376.827C534.337 376.647 534.263 376.456 534.219 376.265C532.786 370.527 529.364 365.488 524.564 362.047C519.764 358.606 513.901 356.989 508.021 357.485C502.141 357.98 496.628 360.556 492.469 364.751C488.31 368.946 485.775 374.488 485.317 380.385C490.235 373.98 500.433 369.676 512.15 369.855Z" fill="white"/>
<path d="M601.25 428.084C599.938 430.795 598.432 432.784 597.891 432.521C597.35 432.258 597.965 429.847 599.278 427.126C600.591 424.405 602.097 422.416 602.638 422.679C603.178 422.942 602.563 425.363 601.25 428.084Z" fill="#F8AF98"/>
<path d="M583.883 397.053L580.26 397.279L580.621 403.082L584.244 402.856L583.883 397.053Z" fill="#F8AF98"/>
<path d="M587.335 400.692L576.898 401.344L577.268 407.295L587.705 406.643L587.335 400.692Z" fill="#FBCDA6"/>
<path d="M577.224 393.895C577.001 396.473 578.597 398.717 580.799 398.91C583.001 399.103 584.952 397.176 585.186 394.597C585.184 394.225 585.823 389.544 585.79 389.205L584.218 387.662L581.038 386.485L578.352 387.005C577.671 387.671 577.266 388.571 577.218 389.523C577.129 391.041 577.255 393.629 577.224 393.895Z" fill="#F8AF98"/>
<path d="M577.073 387.487C576.77 387.074 576.626 386.564 576.669 386.053C576.712 385.542 576.938 385.064 577.306 384.707C577.559 384.504 578.362 384.14 580.28 384.696C582.198 385.251 582.173 384.328 583.339 384.79C584.33 385.256 585.18 385.978 585.8 386.882C586.421 387.786 586.791 388.839 586.872 389.933C586.753 391.389 586.341 392.805 585.66 394.096L585.158 395.753C585.069 396.047 584.894 396.306 584.654 396.496C584.415 396.687 584.123 396.799 583.818 396.819L582.675 396.887C582.233 397.016 581.764 397.018 581.321 396.892L581.013 396.713C580.46 396.274 580.082 395.651 579.948 394.956L579.73 393.376C579.84 392.961 579.92 392.539 579.969 392.113C579.968 391.89 579.554 391.393 579.342 391.478C579.131 391.564 579.113 392.54 578.807 392.669C578.716 392.677 578.625 392.662 578.541 392.625C578.458 392.588 578.385 392.531 578.33 392.458C578.17 391.874 578.139 391.263 578.238 390.666C578.238 390.549 577.952 390.359 577.962 390.242C578.033 389.627 578.401 388.968 578.188 388.618C577.975 388.269 577.446 388.197 577.073 387.487Z" fill="#00466E"/>
<path d="M555.819 409.604L553.732 409.123L553.274 408.361L552.519 407.42L550.176 406.315L549.776 406.772L551.038 407.638L550.88 407.808L548.451 406.279L548.31 408.316L550.106 410.198L551.135 410.682L552.999 411.11L555.002 411.729L555.819 409.604Z" fill="#F8AF98"/>
<path d="M561.273 413.2L561.166 413.02C560.58 411.834 561.222 410.898 562.594 409.832C565.759 407.316 569.091 403.898 572.86 401.476C574.814 400.216 576.256 400.996 576.821 401.991L576.906 402.129C577.801 403.876 576.98 404.898 575.861 405.761C571.893 408.736 564.525 413.952 564.525 413.952C564.267 414.133 563.974 414.258 563.665 414.318C563.357 414.379 563.038 414.373 562.732 414.302C562.425 414.231 562.137 414.097 561.885 413.907C561.634 413.717 561.425 413.476 561.273 413.2Z" fill="#85D2DA"/>
<path d="M553.403 411.734L554.197 408.962C556.946 409.566 559.735 409.971 562.542 410.172C564.384 410.282 565.54 410.882 565.375 412.188C565.211 413.482 564.252 414.717 562.123 414.205C558.871 413.432 553.403 411.734 553.403 411.734Z" fill="#85D2DA"/>
<path d="M579.99 400.6L579.535 400.602C579.535 400.602 576.149 400.614 575.048 400.703C572.35 400.989 571.249 403.508 571.384 405.682L573.923 419.465L574.148 423.188L574.376 430.37L573.994 432.748L574.73 434.251L574.789 435.885L592.781 435.817L592.777 434.756L593.259 433.481L592.335 421.327L591.995 412.586L592.528 405.242C592.427 403.683 591.899 401.075 589.621 400.521C587.979 400.31 586.323 400.214 584.667 400.232C583.894 400.433 583.11 400.592 582.319 400.708C581.542 400.716 580.764 400.679 579.99 400.6Z" fill="#85D2DA"/>
<path d="M563.919 500.58L564.024 500.58L564.026 501.11L566.567 501.101L566.49 500.39L566.416 500.39L566.406 497.802L563.771 497.812L563.719 498.151L562.505 499.047L558.657 500.123C558.657 500.123 558.35 500.262 558.362 500.421L558.363 500.919C558.363 500.919 558.417 500.993 558.724 501.088L563.148 501.071L563.411 500.709L563.664 500.549L563.919 500.58Z" fill="#222F44"/>
<path d="M588.462 500.488L588.568 500.488L588.57 501.018L591.11 501.009L591.033 500.298L590.959 500.299L590.367 497.712L587.732 497.722L587.67 498.062L587.027 498.955L583.19 500.031C583.19 500.031 582.883 500.17 582.884 500.329L582.886 500.828C582.886 500.828 582.886 500.902 583.246 500.996L587.67 500.979L587.933 500.618L588.187 500.458L588.462 500.488Z" fill="#222F44"/>
<path d="M592.958 435.234L574.552 434.868L574.58 436.714L573.616 442.118L567.851 471.177L563.061 497.814L567.297 498.498L574.196 472.564L581.954 447.243L582.291 446.679L584.746 472.132L587.012 497.809L591.12 498.016L591.243 471.556L593.354 444.866L594.078 440.365L592.967 437.483L592.958 435.234Z" fill="#435D88"/>
<path d="M411.472 278.409C410.662 278.309 409.84 278.381 409.06 278.619C408.293 278.785 407.584 279.152 407.004 279.681C406.424 280.211 405.995 280.885 405.759 281.634C405.069 284.162 406.382 284.316 407.284 284.811C408.185 285.307 405.699 288.414 407.883 289.297C410.066 290.18 407.262 290.36 408.178 291.895C409.094 293.43 410.44 293.945 412.692 293.332C414.944 292.718 416.221 291.547 417.723 291.509C419.226 291.472 421.516 292.556 422.801 290.694C423.167 290.051 423.323 289.308 423.244 288.571C423.165 287.834 422.856 287.141 422.362 286.59C420.238 284.752 418.448 287.093 417.224 282.451C416.59 280.045 414.442 280.01 413.826 279.578C413.211 279.145 413.939 278.739 411.472 278.409Z" fill="#26354D"/>
<path d="M395.018 307.583L395.833 307.517L396.68 307.694L400.923 310.192L402.545 308.128L398.366 305.576L396.775 304.606L395.353 303.667L393.385 303.929L392.51 304.76C392.167 304.937 391.845 305.152 391.549 305.4C391.55 305.517 391.825 305.675 391.825 305.675L393.157 305.267L393.858 305.869L393.997 306.091L394.082 306.218L395.018 307.583Z" fill="#F8AF98"/>
<path d="M391.205 306.855L398.934 304.704C398.934 304.704 399.039 304.597 399.039 304.576C399.056 304.437 399.043 304.296 399 304.162C398.958 304.029 398.887 303.906 398.793 303.803L398.666 303.803L390.948 305.954L391.205 306.855Z" fill="#00466E"/>
<path d="M389.903 306.742C389.902 306.667 389.88 306.593 389.839 306.53C389.839 306.53 389.469 306.616 389.49 306.712C389.512 306.807 389.903 306.742 389.903 306.742Z" fill="#00466E"/>
<path d="M389.903 306.763L391.258 306.854L391.001 305.9L389.839 306.509C389.879 306.588 389.901 306.675 389.903 306.763Z" fill="#FCCA85"/>
<path d="M390.958 305.9C391.043 305.9 391.161 306.069 391.236 306.334C391.311 306.599 391.301 306.822 391.238 306.843C391.174 306.865 391.025 306.674 390.96 306.409C390.896 306.144 390.863 305.922 390.958 305.9Z" fill="#FCCA85"/>
<path d="M393.309 306.317C393.309 306.317 392.959 306.064 392.832 306.001C392.745 305.964 392.651 305.942 392.557 305.938C392.461 305.938 392.197 305.939 392.176 306.067C392.177 306.459 393.239 307.187 393.239 307.187L394.51 307.628L395.071 307.626L394.357 306.324L393.309 306.317Z" fill="#F8AF98"/>
<path d="M406.932 315.049L406.72 315.05C405.459 314.652 404.979 313.571 405.152 311.809C405.55 307.734 406.293 299.965 407.208 295.516C407.675 293.202 408.997 292.963 410.267 292.937L410.511 292.937C412.194 293.121 413.102 295.42 412.563 298.233C411.639 303.011 409.751 313.277 409.751 313.277C409.695 313.586 409.575 313.88 409.399 314.139C409.224 314.399 408.996 314.619 408.731 314.786C408.466 314.953 408.169 315.062 407.859 315.107C407.549 315.153 407.233 315.133 406.932 315.049Z" fill="#4195C9"/>
<path d="M397.965 308.717L399.404 305.762C399.404 305.762 404.4 308.926 407.72 310.802C409.343 311.719 409.845 312.821 409.224 313.979C408.583 315.138 407.411 315.737 405.564 314.354L397.965 308.717Z" fill="#4195C9"/>
<path d="M393.729 339.14L396.402 346.238L395.429 346.645L392.397 348.014L392.4 348.736L398.888 348.743L399.393 348.073L399.463 347.001L397.167 338.703L393.729 339.14Z" fill="#FCCA85"/>
<path d="M394.805 346.637L395.407 346.348L395.359 347.632L398.648 346.909L399.736 346.406L399.654 347.085L399.913 348.368L399.566 348.964L397.703 348.896L395.046 348.906L390.548 348.923L390.345 348.425L394.805 346.637Z" fill="#3D95D1"/>
<path d="M425.42 348.506L433.526 348.03L436.531 347.913L439.748 347.826L442.501 348.113L442.584 347.667L436.317 344.593L434.079 343.264L433.392 343.585L433.071 345.411L426.01 344.95L425.42 348.506Z" fill="#FCCA85"/>
<path d="M437.314 348.016L436.637 348.04L437.194 346.882L433.886 345.303L432.944 345.327L433.121 344.69L433.286 343.459L433.909 343L435.51 343.885L438.194 345.382L442.817 347.667L442.808 348.208L439.727 347.922L437.314 348.016Z" fill="#3D95D1"/>
<path d="M412.51 287.158L409.742 288.346L413.042 296.12L415.81 294.943L412.51 287.158Z" fill="#F8AF98"/>
<path d="M406.931 286.67C406.938 287.156 407.051 287.635 407.261 288.074C407.471 288.512 407.774 288.9 408.148 289.21C408.522 289.52 408.959 289.745 409.428 289.87C409.897 289.994 410.388 290.015 410.866 289.931C411.344 289.846 411.798 289.659 412.197 289.382C412.596 289.105 412.93 288.744 413.177 288.325C413.423 287.905 413.576 287.438 413.624 286.953C413.672 286.469 413.615 285.98 413.457 285.52C413.456 285.34 413.02 281.989 412.846 280.77C412.787 280.361 412.57 279.992 412.243 279.742C411.916 279.491 411.504 279.379 411.095 279.429L408.08 279.78C407.589 280.016 407.174 280.385 406.882 280.846C406.59 281.306 406.433 281.84 406.428 282.385C406.539 283.806 406.898 286.468 406.931 286.67Z" fill="#F8AF98"/>
<path d="M433.76 331.691C434.064 331.185 434.284 330.632 434.41 330.055L434.473 329.747C434.587 329.221 434.617 328.68 434.562 328.145L434.561 327.837C434.524 327.495 434.456 327.158 434.356 326.83L433.435 323.852L432.79 321.393L423.831 322.732L416.933 323.532L417.083 329.462L399.847 342.184C398.253 343.134 397.085 345.101 397.906 346.774L398.024 346.997C398.877 348.755 400.614 348.96 402.378 348.105L429.624 335.049C429.972 334.884 430.305 334.687 430.617 334.461L432.337 333.235C432.915 332.827 433.4 332.301 433.76 331.691Z" fill="#F47954"/>
<path d="M427.49 344.584L401.098 342.561C400.266 342.487 399.439 342.744 398.795 343.277C398.152 343.809 397.743 344.574 397.658 345.407C397.601 345.858 397.641 346.317 397.775 346.752C397.91 347.186 398.136 347.587 398.438 347.927C398.74 348.267 399.112 348.538 399.527 348.721C399.943 348.905 400.393 348.997 400.847 348.991L427.305 348.828L427.49 344.584Z" fill="#F47954"/>
<path d="M432.094 333.183L432.685 332.692C432.99 332.432 433.263 332.135 433.496 331.809C434.031 331.063 434.35 330.185 434.418 329.27C434.449 328.797 434.415 328.323 434.318 327.859L433.618 324.594L432.685 321.584L429.807 321.744L416.114 322.304L416.119 323.715L391.758 318.725C389.926 318.392 387.769 319.111 387.3 320.864L387.248 321.108C386.747 323.009 387.926 324.288 389.812 324.812L420.772 333.989L428.69 334.331C429.928 334.387 431.142 333.978 432.094 333.183Z" fill="#F47954"/>
<path d="M398.624 343.323L393.471 321.169C393.295 320.35 392.804 319.635 392.105 319.176C391.406 318.718 390.555 318.555 389.736 318.721C389.287 318.801 388.861 318.976 388.486 319.236C388.111 319.495 387.795 319.833 387.562 320.225C387.328 320.617 387.182 321.056 387.133 321.51C387.083 321.964 387.132 322.424 387.275 322.857L394.666 343.338L398.624 343.323Z" fill="#F47954"/>
<path d="M411.851 311.562C411.851 311.562 408.487 306.429 408.012 303.896C407.536 301.362 406.476 295.17 407.973 293.7C408.458 293.246 409.045 292.916 409.684 292.739L411.386 292.202L411.781 292.954C411.836 293.101 411.921 293.236 412.029 293.35C412.138 293.464 412.269 293.555 412.413 293.617C412.558 293.679 412.714 293.71 412.871 293.71C413.028 293.71 413.184 293.678 413.328 293.616L413.519 293.563C413.858 293.471 414.15 293.252 414.334 292.952C414.518 292.651 414.58 292.291 414.508 291.946L414.283 291.353C415.85 290.976 417.44 290.704 419.043 290.539C421.858 290.529 422.977 292.647 423.376 294.523L425.146 300.882C425.146 300.882 426.864 307.347 427.613 309.498C428.362 311.649 429.568 314.371 429.568 314.371L433.898 320.37L433.006 322.304L416.076 323.429L415.227 322.806C415.259 320.903 415.124 319.001 414.824 317.121C413.964 315.201 412.97 313.343 411.851 311.562Z" fill="#4195C9"/>
<path d="M404.095 320.651L390.834 320.701L381.915 307.346L395.176 307.296L404.095 320.651Z" fill="#85D2DA"/>
<path d="M399.007 313.021L399.441 312.977L399.262 313.179L398.067 313.534L396.015 313.87L396.345 314.251L396.663 314.335L398.013 315.985L400.003 315.924L402.117 315.343L411.087 314.058L411.637 310.947L402.457 312.806L401.302 312.567L399.988 312.126L398.571 312.365L399.007 313.021Z" fill="#F8AF98"/>
<path d="M416.609 313.168L416.408 313.116C415.147 312.707 414.666 311.616 414.861 309.854C415.29 305.789 416.097 298.031 417.022 293.582C417.5 291.267 418.833 291.05 420.103 291.035L420.346 291.034C422.03 291.24 422.917 293.538 422.356 296.331C421.39 301.109 419.428 311.354 419.428 311.354C419.375 311.666 419.258 311.963 419.084 312.227C418.911 312.49 418.684 312.715 418.418 312.886C418.153 313.056 417.855 313.17 417.543 313.218C417.232 313.267 416.913 313.25 416.609 313.168Z" fill="#4195C9"/>
<path d="M407.429 314.868L406.359 311.763C406.359 311.763 412.122 310.458 415.79 309.415C417.577 308.92 418.732 309.309 419.097 310.591C419.462 311.863 419.106 313.116 416.769 313.454L407.429 314.868Z" fill="#4195C9"/>
<path d="M410.24 282.849C410.24 282.849 406.945 281.991 407.467 280.09C408.073 277.891 413.097 277.098 414.386 279.205C415.248 280.612 417.56 278.98 418.466 283.433C419.155 286.613 420.427 284.349 422.88 286.376C425.332 288.404 424.687 294.221 421.734 294.179C419.808 294.186 420.004 292.848 417.967 291.551C415.93 290.254 413.03 292.917 413.045 288.461C413.036 286.222 412.105 286.183 412.271 285.377C412.811 282.68 411.795 282.63 411.471 283.724C411.199 284.595 410.24 282.849 410.24 282.849Z" fill="#26354D"/>
<path d="M418.955 312.32C418.816 312.53 418.637 312.711 418.428 312.853L418.238 312.991L418.058 313.077L417.837 313.173C417.497 313.311 417.142 313.405 416.779 313.453L413.289 313.986L413.928 315.204C413.928 315.204 416.128 314.824 417.777 314.34C418.473 314.122 419.104 313.733 419.612 313.209C420.12 312.685 420.49 312.041 420.687 311.338C420.811 310.435 422.367 296.319 422.367 296.319C421.4 301.097 419.438 311.342 419.438 311.342C419.332 311.693 419.168 312.023 418.955 312.32Z" fill="#317097"/>
<path d="M115.058 437.538L79.7724 437.671C77.2765 437.68 75.2608 439.716 75.2702 442.218L75.3697 468.719C75.3791 471.221 77.41 473.242 79.9059 473.233L115.192 473.1C117.688 473.091 119.703 471.055 119.694 468.553L119.594 442.051C119.585 439.549 117.554 437.529 115.058 437.538Z" fill="#4195C9"/>
<g opacity="0.4">
<path d="M115.058 437.537L97.4153 437.604C98.6138 437.599 99.7651 438.072 100.616 438.918C101.467 439.765 101.947 440.915 101.951 442.117L102.051 468.64C102.056 469.841 101.584 470.995 100.739 471.848C99.8952 472.701 98.7475 473.182 97.5489 473.187L115.192 473.121C115.785 473.118 116.372 472.999 116.92 472.769C117.467 472.539 117.964 472.204 118.382 471.782C118.8 471.359 119.131 470.859 119.356 470.308C119.581 469.758 119.696 469.168 119.694 468.573L119.594 442.05C119.592 441.456 119.473 440.867 119.244 440.318C119.015 439.769 118.68 439.271 118.259 438.852C117.837 438.433 117.338 438.101 116.789 437.876C116.24 437.65 115.652 437.535 115.058 437.537Z" fill="#317097"/>
</g>
<path d="M141.073 471.283L140.956 471.284L140.958 471.867L138.175 471.878L138.246 471.103L138.341 471.102L138.458 468.259L141.262 468.248L141.264 468.63L142.601 469.622L146.839 470.848C146.839 470.848 147.178 470.995 147.169 471.186L147.171 471.716C147.171 471.716 147.171 471.812 146.769 471.909L141.922 471.927L141.624 471.536L141.338 471.346L141.073 471.283Z" fill="#26354D"/>
<path d="M134.042 430.985L107.003 428.964L106.411 437.581L133.152 439.179L137.74 468.867L141.644 468.471L139.854 439.832C139.785 438.475 139.536 431.442 134.042 430.985Z" fill="#324666"/>
<path d="M131.679 472.401L131.562 472.401L131.564 472.995L128.781 473.006L128.863 472.231L128.947 472.231L129.095 469.344L131.889 469.334L131.891 469.705L133.228 470.698L137.466 471.934C137.466 471.934 137.805 472.081 137.795 472.261L137.797 472.802C137.797 472.802 137.798 472.887 137.396 472.984L132.549 473.002L132.251 472.611L131.975 472.432L131.679 472.401Z" fill="#26354D"/>
<path d="M132.408 469.439L128.588 469.687L122.854 439.313L95.5632 437.633L93.2868 434.575L94.5287 429.903L94.9207 427.185L109.621 427.13L109.333 429.253L126.213 431.863C129.391 432.636 130.896 436.089 130.808 440.811L132.408 469.439Z" fill="#435D88"/>
<path d="M126.744 423.775L129.554 425.24L132.867 425.301L135.435 427.021L136.004 429.268L134.978 429.367L133.904 428.162L131.397 428.469L129.5 427.775L125.727 426.347L126.744 423.775Z" fill="#FBCDA6"/>
<path d="M118.416 424.285L118.649 424.284C120.066 424.035 120.41 422.463 120.477 420.543C120.64 416.108 120.959 408.022 120.782 403.1C120.675 400.087 118.875 399.924 118.145 399.927L117.774 399.928C115.943 399.935 115.224 402.771 115.394 405.847C115.7 411.15 115.666 421.887 115.666 421.887C115.674 422.231 115.753 422.569 115.899 422.88C116.045 423.192 116.254 423.469 116.513 423.695C116.772 423.92 117.075 424.089 117.402 424.191C117.73 424.293 118.075 424.325 118.416 424.285Z" fill="#F47954"/>
<path d="M126.968 427.171L128.768 424.618C128.768 424.618 125.036 422.828 120.202 420.618C118.357 419.777 116.6 419.645 116.086 420.984C115.562 422.333 115.843 424.019 118.216 424.636C121.713 425.589 126.968 427.171 126.968 427.171Z" fill="#F47954"/>
<path d="M113.974 394.354L111.768 401.41L115.565 402.603L117.772 395.547L113.974 394.354Z" fill="#F8AF98"/>
<path d="M121.967 391.914C121.978 394.768 119.944 397.046 117.52 397.023C115.096 397 113.161 394.663 113.193 391.819C113.191 391.416 113.045 386.229 113.171 385.857L115.017 384.354L118.633 383.407L121.515 384.266C122.165 385.081 122.493 386.107 122.436 387.148C122.443 388.846 121.966 391.627 121.967 391.914Z" fill="#F8AF98"/>
<path d="M122.051 391.626C121.053 391.963 120.021 392.187 118.974 392.295C118.036 392.221 117.105 392.075 116.189 391.86C115.943 391.799 115.722 391.666 115.553 391.477C115.384 391.289 115.276 391.054 115.243 390.803L115.035 388.978L114.559 389.033L113.966 391.773L113.485 393.504C113.643 394.061 113.873 394.595 114.169 395.093C114.637 395.912 115.395 396.526 116.292 396.814C116.908 396.969 117.541 397.042 118.176 397.03C118.794 396.944 119.388 396.732 119.92 396.408C121.969 395.212 122.056 392.994 122.051 391.626Z" fill="#004E72"/>
<path d="M112.928 391.734L113.215 392.052C113.215 392.052 113.277 391.606 113.423 390.99C113.506 390.608 113.125 387.946 114.036 387.996C114.406 387.994 114.516 389.15 114.516 389.15L115.057 389.286C114.966 388.614 114.963 387.933 115.049 387.26C115.31 386.272 115.647 385.857 116.104 386.333C116.837 387.073 118.561 386.716 119.861 386.319C121.162 385.921 121.904 386.396 122.883 384.928C123.862 383.46 123.424 382.38 122.871 381.873C122.627 381.619 121.81 381.123 119.621 381.556C117.432 381.989 117.587 380.959 116.276 381.335C115.14 381.734 114.131 382.43 113.353 383.351C112.575 384.271 112.056 385.383 111.85 386.572C111.854 388.348 112.221 390.105 112.928 391.734Z" fill="#004E72"/>
<path d="M120.684 393.944C120.685 394.262 120.136 394.551 119.416 394.585C118.696 394.62 118.103 394.389 118.081 394.081C118.058 393.773 118.639 393.474 119.359 393.44C120.078 393.405 120.672 393.626 120.684 393.944Z" fill="#F8AF98"/>
<path d="M111.24 426.996L109.595 428.519L94.4513 428.989L93.6561 425.81L95.3167 422.705L98.0686 414.293L101.622 405.007L104.489 399.182C105.634 396.822 107.137 396.997 109.318 396.989C110.523 397.037 111.714 397.276 112.845 397.697C112.815 398.345 112.889 398.993 113.064 399.617C113.787 400.675 115.187 401.338 116.094 400.496C116.384 400.056 116.58 399.561 116.67 399.041L116.999 399.262C116.999 399.262 118.43 399.681 119.341 399.996C120.751 400.489 121.077 402.78 120.164 405.001C118.434 409.155 118.011 409.252 115.846 413.356C114.322 416.237 111.802 424.341 111.802 424.341L111.24 426.996Z" fill="#F47954"/>
<path d="M117.473 423.811L120.283 425.275L123.596 425.337L126.174 427.056L126.733 429.303L125.707 429.403L124.644 428.197L122.137 428.504L120.229 427.811L116.456 426.382L117.473 423.811Z" fill="#F8AF98"/>
<path d="M105.824 422.009L106.057 422.008C107.496 421.918 108.286 420.939 108.554 418.997C109.193 414.602 110.135 406.1 110.498 401.187C110.719 398.173 108.579 397.619 107.849 397.611L107.478 397.612C105.657 397.364 104.47 399.745 104.323 402.791C104.057 408.096 103.327 419.377 103.327 419.377C103.303 419.718 103.35 420.06 103.466 420.381C103.581 420.703 103.762 420.997 103.997 421.244C104.232 421.492 104.515 421.688 104.83 421.82C105.144 421.951 105.483 422.016 105.824 422.009Z" fill="#F47954"/>
<path d="M116.754 426.976L118.617 424.253C115.107 421.888 111.435 419.775 107.629 417.928C105.774 417.14 104.525 417.176 103.863 418.462C103.201 419.738 103.303 421.446 105.539 422.318C108.963 423.674 116.754 426.976 116.754 426.976Z" fill="#F47954"/>
<path opacity="0.5" d="M108.636 418.413C109.275 413.88 110.145 405.888 110.498 401.187C110.719 398.173 108.579 397.619 107.849 397.611L107.478 397.612C105.657 397.364 104.47 399.745 104.323 402.791C104.057 408.096 103.327 419.377 103.327 419.377C103.34 419.781 103.424 420.179 103.574 420.554C103.729 420.99 103.985 421.384 104.321 421.702C104.657 422.02 105.064 422.253 105.508 422.382C108.931 423.716 116.723 427.018 116.723 427.018L118.586 424.295C115.388 422.14 112.065 420.176 108.636 418.413Z" fill="#F69476"/>
<path d="M141.819 430.371L122.154 430.445L126.785 417.919C126.879 417.665 127.047 417.445 127.267 417.289C127.488 417.133 127.75 417.048 128.02 417.044L145.367 416.979C145.52 416.979 145.67 417.016 145.806 417.087C145.941 417.158 146.058 417.261 146.146 417.386C146.233 417.512 146.289 417.657 146.309 417.809C146.329 417.961 146.313 418.115 146.261 418.259L141.819 430.371Z" fill="#F2F2F2"/>
<path d="M111.845 430.357L141.818 430.245L141.821 431.019C141.822 431.191 141.754 431.356 141.634 431.478C141.513 431.599 141.349 431.668 141.178 431.669L112.655 431.776C112.442 431.777 112.237 431.693 112.086 431.542C111.934 431.391 111.849 431.187 111.848 430.973L111.845 430.368L111.845 430.357Z" fill="#E6E6E6"/>
</g>
<defs>
<clipPath id="clip0_738_9803">
<rect width="540" height="356.578" fill="white" transform="translate(63 149.027) rotate(-0.215158)"/>
</clipPath>
</defs>
</svg>
