<svg width="1176" height="1072" viewBox="0 0 1176 1072" fill="none" xmlns="http://www.w3.org/2000/svg">
<path d="M959.203 502.745L959.255 504.244L959.203 502.745ZM976.594 460.567L975.347 461.401L976.594 460.567ZM927.977 556.191L945.032 559.211L939.119 542.93L927.977 556.191ZM1032.59 418.723C1032.6 419.708 1032.58 420.732 1032.55 421.79L1035.54 421.892C1035.58 420.796 1035.6 419.732 1035.59 418.706L1032.59 418.723ZM1032.12 427.942C1031.91 429.916 1031.64 431.965 1031.29 434.07L1034.25 434.564C1034.61 432.398 1034.89 430.287 1035.1 428.251L1032.12 427.942ZM1030.08 440.14C1029.63 442.111 1029.11 444.112 1028.52 446.127L1031.39 446.976C1032 444.9 1032.54 442.84 1033.01 440.812L1030.08 440.14ZM1026.58 451.994C1025.89 453.906 1025.12 455.819 1024.28 457.721L1027.02 458.934C1027.89 456.969 1028.68 454.994 1029.4 453.022L1026.58 451.994ZM1021.59 463.275C1020.63 465.078 1019.61 466.859 1018.5 468.608L1021.04 470.208C1022.19 468.392 1023.25 466.545 1024.24 464.679L1021.59 463.275ZM1015.02 473.676C1013.8 475.306 1012.5 476.895 1011.12 478.435L1013.36 480.434C1014.8 478.828 1016.15 477.171 1017.42 475.476L1015.02 473.676ZM1006.84 482.822C1005.36 484.205 1003.8 485.535 1002.16 486.801L1004 489.174C1005.71 487.849 1007.34 486.459 1008.89 485.014L1006.84 482.822ZM997.148 490.316C995.445 491.393 993.665 492.407 991.808 493.351L993.166 496.026C995.108 495.039 996.969 493.979 998.752 492.851L997.148 490.316ZM986.228 495.87C984.365 496.612 982.431 497.287 980.424 497.89L981.287 500.763C983.377 500.136 985.393 499.432 987.338 498.657L986.228 495.87ZM974.454 499.418C972.499 499.835 970.482 500.188 968.4 500.471L968.804 503.444C970.959 503.151 973.05 502.785 975.08 502.352L974.454 499.418ZM962.267 501.089C961.243 501.157 960.205 501.209 959.152 501.246L959.255 504.244C960.339 504.207 961.41 504.153 962.467 504.082L962.267 501.089ZM959.152 501.246C958.1 501.282 957.079 501.303 956.088 501.311L956.112 504.311C957.13 504.303 958.178 504.281 959.255 504.244L959.152 501.246ZM950.204 501.178C948.094 501.059 946.157 500.864 944.383 500.602L943.944 503.569C945.817 503.847 947.845 504.05 950.036 504.173L950.204 501.178ZM938.769 499.402C936.7 498.795 934.979 498.066 933.566 497.248L932.063 499.844C933.719 500.803 935.668 501.619 937.925 502.281L938.769 499.402ZM929.58 493.772C928.548 492.321 928.008 490.711 927.888 488.973L924.895 489.18C925.051 491.433 925.762 493.581 927.136 495.511L929.58 493.772ZM928.652 483.651C929.194 481.989 930.004 480.272 931.046 478.537L928.475 476.992C927.338 478.883 926.424 480.806 925.8 482.72L928.652 483.651ZM934.404 473.839C935.606 472.388 936.938 470.964 938.37 469.593L936.297 467.425C934.786 468.87 933.374 470.379 932.093 471.926L934.404 473.839ZM942.797 465.78C944.34 464.582 945.946 463.461 947.584 462.44L945.998 459.894C944.27 460.97 942.58 462.151 940.957 463.41L942.797 465.78ZM952.693 459.644C954.503 458.789 956.309 458.083 958.076 457.549L957.208 454.677C955.284 455.258 953.339 456.021 951.413 456.931L952.693 459.644ZM963.633 456.455C965.598 456.299 967.424 456.434 969.063 456.878L969.848 453.983C967.815 453.432 965.637 453.287 963.397 453.464L963.633 456.455ZM973.635 459.376C974.254 459.952 974.827 460.623 975.347 461.401L977.841 459.734C977.197 458.77 976.473 457.919 975.678 457.179L973.635 459.376ZM975.347 461.401C975.853 462.159 976.312 462.95 976.724 463.773L979.407 462.43C978.94 461.498 978.419 460.598 977.841 459.734L975.347 461.401ZM978.623 468.962C979.061 470.712 979.348 472.558 979.491 474.488L982.483 474.266C982.329 472.183 982.017 470.165 981.533 468.233L978.623 468.962ZM979.517 480.141C979.409 481.984 979.193 483.878 978.875 485.811L981.835 486.298C982.168 484.271 982.397 482.273 982.512 480.317L979.517 480.141ZM977.697 491.429C977.237 493.251 976.698 495.094 976.087 496.949L978.936 497.888C979.568 495.97 980.127 494.058 980.606 492.164L977.697 491.429ZM974.107 502.374C973.4 504.142 972.634 505.912 971.813 507.676L974.533 508.941C975.376 507.129 976.165 505.308 976.893 503.487L974.107 502.374ZM969.238 512.858C968.339 514.558 967.393 516.245 966.406 517.91L968.986 519.44C969.998 517.733 970.968 516.005 971.89 514.261L969.238 512.858ZM963.334 522.819C962.268 524.436 961.166 526.023 960.033 527.574L962.455 529.344C963.617 527.754 964.747 526.127 965.838 524.471L963.334 522.819ZM956.5 532.165C955.274 533.678 954.02 535.144 952.744 536.557L954.97 538.568C956.283 537.115 957.572 535.607 958.831 534.054L956.5 532.165ZM948.747 540.729C947.351 542.101 945.936 543.402 944.511 544.623L946.462 546.901C947.943 545.634 949.407 544.286 950.85 542.869L948.747 540.729ZM940.001 548.185C938.407 549.337 936.812 550.378 935.222 551.296L936.722 553.894C938.409 552.92 940.09 551.823 941.759 550.616L940.001 548.185Z" fill="#FF4766"/>
<path fill-rule="evenodd" clip-rule="evenodd" d="M140.518 267.057L116.518 267.057L116.518 291.057L116.518 315.057L140.518 315.057L140.518 339.057L164.518 339.057L164.518 315.057L164.518 291.057L140.518 291.057L140.518 267.057Z" fill="#D45147"/>
<circle cx="588.036" cy="420.035" r="587.122" transform="rotate(-90 588.036 420.035)" stroke="url(#paint0_linear_2437_13602)"/>
<circle cx="590.512" cy="461.935" r="545.149" transform="rotate(-90 590.512 461.935)" stroke="url(#paint1_linear_2437_13602)"/>
<circle cx="595.465" cy="545.735" r="461.203" transform="rotate(-90 595.465 545.735)" stroke="url(#paint2_linear_2437_13602)"/>
<circle cx="597.942" cy="587.635" r="419.23" transform="rotate(-90 597.942 587.635)" stroke="url(#paint3_linear_2437_13602)"/>
<circle cx="592.989" cy="503.834" r="503.176" transform="rotate(-90 592.989 503.834)" stroke="url(#paint4_linear_2437_13602)"/>
<circle cx="600.419" cy="629.535" r="377.257" transform="rotate(-90 600.419 629.535)" stroke="url(#paint5_linear_2437_13602)"/>
<circle cx="602.896" cy="671.435" r="335.284" transform="rotate(-90 602.896 671.435)" stroke="url(#paint6_linear_2437_13602)"/>
<circle cx="605.372" cy="713.335" r="293.311" transform="rotate(-90 605.372 713.335)" stroke="url(#paint7_linear_2437_13602)"/>
<path opacity="0.1" d="M424.136 1029.4C351.067 1029.67 216.419 1031.18 233.023 1025.79C249.626 1020.39 337.348 1025.28 409.24 1023.25C481.131 1021.21 546.276 1018.88 619.75 1021.25C693.224 1023.62 673.31 1026.71 641.04 1027.68C581.778 1029.47 571.225 1030.19 536.832 1029.49C436.236 1027.32 452.571 1029.31 424.136 1029.4Z" fill="#005687"/>
<path opacity="0.1" d="M681.439 1049.5C622.989 1049.72 515.295 1051.31 528.564 1044.88C541.833 1038.45 612.019 1044.44 669.515 1042.09C727.011 1039.73 779.073 1037.09 837.888 1040.04C896.702 1042.99 880.742 1046.67 854.936 1047.78C807.5 1049.84 799.093 1050.7 771.585 1049.77C691.068 1046.96 704.187 1049.41 681.439 1049.5Z" fill="#005687"/>
<path opacity="0.1" d="M550.868 1069.25C539.776 1069.3 519.36 1070.16 521.87 1065.92C524.38 1061.69 537.688 1065.78 548.591 1064.33C559.494 1062.87 569.352 1061.22 580.522 1063.26C591.692 1065.29 588.653 1067.71 583.773 1068.41C574.774 1069.69 573.182 1070.23 567.958 1069.57C552.682 1067.62 555.186 1069.25 550.868 1069.25Z" fill="#005687"/>
<path opacity="0.1" d="M913.137 1067.89C901.65 1067.94 880.5 1068.81 883.095 1064.57C885.689 1060.33 899.492 1064.42 910.776 1062.96C922.06 1061.51 932.284 1059.86 943.85 1061.89C955.415 1063.93 952.333 1066.35 947.199 1067.04C937.89 1068.32 936.241 1068.87 930.834 1068.21C915.022 1066.26 917.596 1067.89 913.137 1067.89Z" fill="#005687"/>
<path d="M351.18 631.441L350.861 628.981C351.561 628.895 352.245 628.706 352.891 628.422L353.887 630.681C353.023 631.054 352.112 631.31 351.18 631.441ZM348.358 631.452C347.429 631.3 346.525 631.017 345.674 630.613L346.752 628.374C347.381 628.685 348.052 628.902 348.744 629.017L348.358 631.452ZM356.266 629.173L354.665 627.297C355.206 626.838 355.68 626.302 356.07 625.708L358.135 627.115C357.61 627.884 356.981 628.576 356.266 629.173ZM343.367 628.967C342.668 628.339 342.071 627.606 341.595 626.795L343.693 625.514C344.084 626.125 344.562 626.676 345.11 627.149L343.367 628.967ZM359.283 624.493L356.923 623.795C357.119 623.119 357.216 622.418 357.212 621.714L359.681 621.705C359.684 622.649 359.549 623.588 359.283 624.493ZM340.485 624.21C340.28 623.416 340.172 622.599 340.165 621.778L340.164 621.411L342.62 621.486L342.621 621.769C342.625 622.376 342.708 622.98 342.867 623.565L340.485 624.21ZM357.093 620.173C356.946 619.48 356.697 618.814 356.352 618.195L358.493 616.999C358.953 617.826 359.289 618.716 359.49 619.641L357.093 620.173ZM342.979 619.42L340.647 618.636C340.944 617.743 341.369 616.898 341.908 616.128L343.931 617.535C343.525 618.114 343.205 618.749 342.979 619.42ZM355.005 616.545C354.502 616.048 353.93 615.626 353.307 615.293L354.456 613.11C355.287 613.551 356.049 614.11 356.72 614.771L355.005 616.545ZM345.379 616.03L343.848 614.083C344.583 613.496 345.399 613.016 346.27 612.66L347.195 614.948C346.552 615.216 345.95 615.576 345.407 616.016L345.379 616.03ZM351.329 614.593C350.637 614.454 349.929 614.414 349.226 614.473L349.005 612.027C349.948 611.932 350.9 611.981 351.828 612.172L351.329 614.593Z" fill="#76BEEA"/>
<path d="M637.504 623.378L637.315 621.964C637.734 621.908 638.142 621.792 638.527 621.62L639.125 623.032C638.604 623.225 638.058 623.341 637.504 623.378ZM635.825 623.384C635.266 623.291 634.723 623.117 634.214 622.867L634.858 621.534C635.238 621.717 635.643 621.844 636.059 621.912L635.825 623.384ZM640.561 622.051L639.597 620.923C639.914 620.643 640.193 620.324 640.426 619.972L641.671 620.773C641.361 621.239 640.987 621.66 640.561 622.022L640.561 622.051ZM632.813 621.924C632.399 621.545 632.041 621.108 631.75 620.627L633.003 619.858C633.229 620.216 633.501 620.543 633.811 620.831L632.813 621.924ZM642.371 619.243L640.958 618.824C641.07 618.413 641.126 617.99 641.123 617.564L642.605 617.559C642.603 618.119 642.524 618.676 642.371 619.215L642.371 619.243ZM631.081 619.059C630.958 618.598 630.894 618.123 630.892 617.645L630.891 617.433L632.303 617.428L632.303 617.597C632.307 617.965 632.356 618.33 632.448 618.686L631.081 619.059ZM640.95 616.645C640.863 616.23 640.714 615.83 640.508 615.459L641.804 614.747C642.076 615.244 642.277 615.776 642.402 616.329L640.95 616.645ZM632.481 616.196L631.068 615.721C631.254 615.186 631.513 614.68 631.839 614.218L633.042 615.062C632.849 615.41 632.703 615.781 632.608 616.167L632.481 616.196ZM639.686 614.458C639.387 614.158 639.043 613.906 638.667 613.712L639.368 612.408C639.886 612.663 640.363 612.995 640.783 613.392L639.686 614.458ZM633.913 614.154L632.992 612.983C633.416 612.633 633.89 612.35 634.4 612.143L634.941 613.556C634.618 613.707 634.315 613.898 634.04 614.125L633.913 614.154ZM637.48 613.292C637.067 613.206 636.644 613.183 636.224 613.226L636.092 611.812C636.653 611.764 637.218 611.795 637.771 611.904L637.48 613.292Z" fill="#76BEEA"/>
<path d="M885.07 812.695C884.591 812.649 884.118 812.556 883.658 812.418L884.048 811.129C884.43 811.245 884.823 811.319 885.22 811.351L885.07 812.695ZM886.552 812.69L886.377 811.361C886.775 811.306 887.167 811.215 887.548 811.087L887.976 812.359C887.512 812.508 887.035 812.609 886.552 812.661L886.552 812.69ZM882.315 811.871C881.886 811.632 881.483 811.349 881.112 811.027L881.97 810.019C882.279 810.273 882.611 810.499 882.96 810.694L882.315 811.871ZM889.37 811.731L888.689 810.588C889.028 810.375 889.349 810.132 889.646 809.863L890.553 810.85C890.174 811.182 889.759 811.468 889.314 811.703L889.37 811.731ZM880.092 809.97C879.79 809.574 879.528 809.148 879.312 808.699L880.523 808.129C880.699 808.487 880.908 808.827 881.148 809.145L880.092 809.97ZM891.522 809.743L890.433 808.969C890.669 808.641 890.871 808.289 891.035 807.92L892.251 808.453C892.039 808.902 891.775 809.326 891.466 809.715L891.522 809.743ZM878.812 807.315C878.699 806.851 878.631 806.378 878.61 805.901L880.021 805.896C880.037 806.297 880.095 806.695 880.195 807.083L878.812 807.315ZM892.697 807.051L891.398 806.773C891.47 806.38 891.506 805.983 891.506 805.584C891.513 805.466 891.513 805.348 891.505 805.23L892.845 805.14C892.846 805.282 892.846 805.423 892.847 805.579C892.822 806.066 892.748 806.55 892.627 807.023L892.697 807.051ZM879.988 804.609L878.674 804.387C878.758 803.902 878.894 803.427 879.078 802.971L880.322 803.476C880.147 803.828 880.011 804.199 879.917 804.581L879.988 804.609ZM891.275 804.043C891.163 803.658 891.015 803.284 890.833 802.927L892.016 802.314C892.252 802.762 892.433 803.236 892.558 803.727L891.275 804.043ZM880.897 802.399L879.779 801.653C880.049 801.24 880.365 800.86 880.72 800.518L881.655 801.476C881.357 801.74 881.092 802.041 880.868 802.37L880.897 802.399ZM890.166 801.925C889.912 801.616 889.627 801.332 889.316 801.08L890.159 800.044C890.542 800.35 890.894 800.695 891.207 801.073L890.166 801.925ZM882.584 800.723L881.874 799.594C882.286 799.326 882.725 799.102 883.184 798.924L883.654 800.181C883.272 800.317 882.904 800.489 882.555 800.695L882.584 800.723ZM888.312 800.433C887.957 800.251 887.582 800.11 887.196 800.013L887.544 798.71C888.032 798.836 888.506 799.014 888.957 799.242L888.312 800.433ZM884.81 799.88L884.608 798.551C885.098 798.476 885.594 798.45 886.089 798.475L886.01 799.89C885.603 799.832 885.191 799.82 884.782 799.852L884.81 799.88Z" fill="#76BEEA"/>
<path d="M885.69 808.718C887.42 808.711 888.818 807.3 888.811 805.566C888.805 803.831 887.397 802.43 885.667 802.437C883.937 802.443 882.539 803.855 882.546 805.589C882.552 807.323 883.96 808.724 885.69 808.718Z" fill="#76BEEA"/>
<path d="M315.265 732.591L315.288 738.829L321.258 738.807L321.268 741.495L315.298 741.517L315.322 747.798L312.5 747.808L312.476 741.528L306.549 741.55L306.539 738.862L312.494 738.84L312.471 732.602L315.265 732.591Z" fill="#76BEEA"/>
<path d="M370.646 1019.85L361.403 1019.89L361.428 1026.69L370.671 1026.66L370.646 1019.85Z" fill="#00233F"/>
<path d="M473.391 1019.47L464.148 1019.5L464.173 1026.31L473.417 1026.27L473.391 1019.47Z" fill="#00233F"/>
<path d="M492.44 744.629L350.224 745.163C347.458 745.173 345.223 747.43 345.234 750.203L346.234 1016.56C346.244 1019.34 348.496 1021.58 351.262 1021.57L493.478 1021.03C496.244 1021.02 498.479 1018.77 498.468 1015.99L497.468 749.632C497.458 746.858 495.206 744.618 492.44 744.629Z" fill="#26354D"/>
<g opacity="0.4">
<path d="M492.44 744.657L350.225 745.191C349.092 745.196 347.994 745.587 347.112 746.3C346.23 747.013 345.616 748.005 345.371 749.114C345.864 748.934 346.384 748.842 346.908 748.839L489.123 748.305C489.781 748.303 490.432 748.43 491.04 748.68C491.648 748.931 492.2 749.299 492.666 749.763C493.132 750.228 493.502 750.781 493.754 751.389C494.007 751.997 494.137 752.649 494.138 753.308L495.138 1019.64C495.14 1020.02 495.098 1020.39 495.015 1020.76C496.019 1020.43 496.894 1019.8 497.515 1018.94C498.135 1018.08 498.469 1017.05 498.469 1015.99L497.468 749.632C497.456 748.305 496.92 747.037 495.978 746.105C495.036 745.173 493.764 744.652 492.44 744.657Z" fill="#5B6B85"/>
</g>
<path opacity="0.2" d="M497.668 802.918L345.434 803.49L345.45 807.832L497.685 807.261L497.668 802.918Z" fill="#5B6B85"/>
<path d="M497.652 798.575L345.418 799.147L345.434 803.49L497.668 802.918L497.652 798.575Z" fill="#1C283A"/>
<path d="M498.08 912.603L345.846 913.175L345.862 917.517L498.096 916.946L498.08 912.603Z" fill="#1C283A"/>
<path d="M498.285 967.035L346.05 967.607L346.067 971.95L498.301 971.378L498.285 967.035Z" fill="#1C283A"/>
<path opacity="0.2" d="M498.097 917.059L345.863 917.63L345.879 921.973L498.113 921.401L498.097 917.059Z" fill="#5B6B85"/>
<path d="M497.876 858.1L345.641 858.672L345.657 863.014L497.892 862.443L497.876 858.1Z" fill="#1C283A"/>
<path opacity="0.2" d="M497.892 862.556L345.658 863.127L345.674 867.47L497.909 866.898L497.892 862.556Z" fill="#5B6B85"/>
<path opacity="0.2" d="M498.302 971.632L346.067 972.204L346.084 976.547L498.318 975.975L498.302 971.632Z" fill="#5B6B85"/>
<path d="M453.867 769.486L447.7 769.509L447.728 776.794L453.894 776.771L453.867 769.486Z" fill="#FECE71"/>
<path d="M467.033 769.437L460.866 769.46L460.894 776.745L467.061 776.722L467.033 769.437Z" fill="#85D2DA"/>
<path d="M480.679 769.386L474.512 769.409L474.54 776.694L480.706 776.671L480.679 769.386Z" fill="#F47954"/>
<path d="M454.092 829.195L447.925 829.218L447.952 836.517L454.119 836.494L454.092 829.195Z" fill="#FECE71"/>
<path d="M467.258 829.145L461.091 829.168L461.118 836.468L467.285 836.444L467.258 829.145Z" fill="#85D2DA"/>
<path d="M480.903 829.094L474.737 829.117L474.764 836.416L480.931 836.393L480.903 829.094Z" fill="#F47954"/>
<path d="M454.309 887.064L448.142 887.088L448.169 894.387L454.336 894.364L454.309 887.064Z" fill="#FECE71"/>
<path d="M467.475 887.015L461.308 887.038L461.336 894.337L467.502 894.314L467.475 887.015Z" fill="#85D2DA"/>
<path d="M481.121 886.964L474.954 886.987L474.981 894.286L481.148 894.263L481.121 886.964Z" fill="#F47954"/>
<path d="M454.511 940.931L448.344 940.954L448.372 948.239L454.538 948.216L454.511 940.931Z" fill="#FECE71"/>
<path d="M467.677 940.881L461.51 940.905L461.538 948.19L467.704 948.166L467.677 940.881Z" fill="#85D2DA"/>
<path d="M481.323 940.83L475.156 940.853L475.183 948.138L481.35 948.115L481.323 940.83Z" fill="#F47954"/>
<path d="M454.711 994.076L448.544 994.099L448.571 1001.38L454.738 1001.36L454.711 994.076Z" fill="#FECE71"/>
<path d="M467.877 994.026L461.71 994.05L461.737 1001.33L467.904 1001.31L467.877 994.026Z" fill="#85D2DA"/>
<path d="M481.522 993.975L475.356 993.998L475.383 1001.28L481.55 1001.26L481.522 993.975Z" fill="#F47954"/>
<path opacity="0.3" d="M433.5 764.626L360.445 764.9L360.511 782.398L433.566 782.124L433.5 764.626Z" fill="#5B6B85"/>
<path opacity="0.3" d="M433.943 882.742L360.888 883.016L360.954 900.514L434.009 900.24L433.943 882.742Z" fill="#5B6B85"/>
<path opacity="0.3" d="M433.723 824.165L360.668 824.439L360.734 841.937L433.789 841.663L433.723 824.165Z" fill="#5B6B85"/>
<path opacity="0.3" d="M434.143 935.901L361.088 936.175L361.154 953.673L434.209 953.399L434.143 935.901Z" fill="#5B6B85"/>
<path opacity="0.3" d="M434.343 989.06L361.288 989.334L361.354 1006.83L434.409 1006.56L434.343 989.06Z" fill="#5B6B85"/>
<path d="M524.178 1019.28L514.935 1019.31L514.961 1026.12L524.204 1026.08L524.178 1019.28Z" fill="#00233F"/>
<path d="M626.938 1018.89L617.695 1018.93L617.72 1025.73L626.963 1025.7L626.938 1018.89Z" fill="#00233F"/>
<path d="M645.972 744.052L503.757 744.586C500.99 744.597 498.756 746.853 498.766 749.627L499.767 1015.99C499.777 1018.76 502.028 1021 504.795 1020.99L647.01 1020.46C649.777 1020.45 652.011 1018.19 652.001 1015.42L651.001 749.055C650.99 746.282 648.739 744.042 645.972 744.052Z" fill="#26354D"/>
<g opacity="0.4">
<path d="M645.973 744.08L503.757 744.615C502.625 744.622 501.529 745.014 500.648 745.727C499.766 746.439 499.151 747.43 498.904 748.537C499.397 748.359 499.917 748.266 500.441 748.262L642.628 747.729C643.286 747.726 643.938 747.853 644.546 748.104C645.155 748.354 645.709 748.721 646.176 749.186C646.643 749.651 647.014 750.203 647.268 750.811C647.522 751.419 647.654 752.072 647.656 752.731L648.656 1019.06C648.653 1019.44 648.608 1019.82 648.519 1020.18C649.524 1019.86 650.399 1019.22 651.019 1018.36C651.64 1017.51 651.974 1016.48 651.973 1015.42L650.973 749.055C650.96 747.733 650.428 746.469 649.492 745.538C648.556 744.607 647.292 744.083 645.973 744.08Z" fill="#5B6B85"/>
</g>
<path opacity="0.2" d="M651.201 802.341L498.967 802.913L498.983 807.256L651.217 806.684L651.201 802.341Z" fill="#5B6B85"/>
<path d="M651.185 797.999L498.95 798.57L498.967 802.913L651.201 802.341L651.185 797.999Z" fill="#1C283A"/>
<path d="M651.613 912.026L499.378 912.598L499.395 916.941L651.629 916.369L651.613 912.026Z" fill="#1C283A"/>
<path d="M651.817 966.459L499.583 967.03L499.599 971.373L651.834 970.801L651.817 966.459Z" fill="#1C283A"/>
<path opacity="0.2" d="M651.63 916.482L499.395 917.054L499.412 921.397L651.646 920.825L651.63 916.482Z" fill="#5B6B85"/>
<path d="M651.408 857.523L499.174 858.095L499.19 862.438L651.425 861.866L651.408 857.523Z" fill="#1C283A"/>
<path opacity="0.2" d="M651.425 861.979L499.191 862.551L499.207 866.894L651.441 866.322L651.425 861.979Z" fill="#5B6B85"/>
<path opacity="0.2" d="M651.835 971.056L499.6 971.628L499.616 975.97L651.851 975.399L651.835 971.056Z" fill="#5B6B85"/>
<path d="M607.4 768.909L601.233 768.933L601.261 776.218L607.427 776.194L607.4 768.909Z" fill="#FECE71"/>
<path d="M620.566 768.86L614.399 768.883L614.427 776.168L620.593 776.145L620.566 768.86Z" fill="#85D2DA"/>
<path d="M634.226 768.809L628.059 768.832L628.086 776.117L634.253 776.094L634.226 768.809Z" fill="#F47954"/>
<path d="M607.624 828.618L601.458 828.641L601.485 835.94L607.652 835.917L607.624 828.618Z" fill="#FECE71"/>
<path d="M620.79 828.569L614.624 828.592L614.651 835.891L620.818 835.868L620.79 828.569Z" fill="#85D2DA"/>
<path d="M634.45 828.517L628.283 828.541L628.311 835.84L634.477 835.817L634.45 828.517Z" fill="#F47954"/>
<path d="M607.842 886.488L601.675 886.511L601.702 893.81L607.869 893.787L607.842 886.488Z" fill="#FECE71"/>
<path d="M621.008 886.439L614.841 886.462L614.868 893.761L621.035 893.738L621.008 886.439Z" fill="#85D2DA"/>
<path d="M634.667 886.387L628.501 886.41L628.528 893.709L634.695 893.686L634.667 886.387Z" fill="#F47954"/>
<path d="M608.044 940.354L601.877 940.377L601.904 947.662L608.071 947.639L608.044 940.354Z" fill="#FECE71"/>
<path d="M621.21 940.305L615.043 940.328L615.07 947.613L621.237 947.59L621.21 940.305Z" fill="#85D2DA"/>
<path d="M634.87 940.253L628.703 940.277L628.73 947.562L634.897 947.538L634.87 940.253Z" fill="#F47954"/>
<path d="M608.243 993.499L602.077 993.522L602.104 1000.81L608.271 1000.78L608.243 993.499Z" fill="#FECE71"/>
<path d="M621.409 993.45L615.243 993.473L615.27 1000.76L621.437 1000.73L621.409 993.45Z" fill="#85D2DA"/>
<path d="M635.069 993.398L628.903 993.422L628.93 1000.71L635.097 1000.68L635.069 993.398Z" fill="#F47954"/>
<path opacity="0.3" d="M587.033 764.049L513.978 764.324L514.043 781.822L587.098 781.548L587.033 764.049Z" fill="#5B6B85"/>
<path opacity="0.3" d="M587.476 882.165L514.421 882.439L514.487 899.937L587.542 899.663L587.476 882.165Z" fill="#5B6B85"/>
<path opacity="0.3" d="M587.256 823.588L514.201 823.862L514.267 841.36L587.322 841.086L587.256 823.588Z" fill="#5B6B85"/>
<path opacity="0.3" d="M587.676 935.324L514.621 935.598L514.687 953.097L587.742 952.822L587.676 935.324Z" fill="#5B6B85"/>
<path opacity="0.3" d="M587.875 988.483L514.82 988.758L514.886 1006.26L587.941 1005.98L587.875 988.483Z" fill="#5B6B85"/>
<path d="M552.635 1028.85L854.155 1027.71C854.884 1027.71 855.585 1028 856.103 1028.51C856.621 1029.03 856.914 1029.73 856.917 1030.46L856.948 1038.68C856.953 1040.12 856.387 1041.51 855.375 1042.53C854.362 1043.55 852.986 1044.13 851.549 1044.13L555.364 1045.25C553.927 1045.25 552.546 1044.68 551.526 1043.67C550.506 1042.65 549.93 1041.27 549.925 1039.83L549.894 1031.6C549.895 1030.87 550.184 1030.17 550.697 1029.66C551.211 1029.14 551.908 1028.85 552.635 1028.85Z" fill="#324666"/>
<path d="M572.5 862.516L833.012 861.538C834.449 861.532 835.83 862.1 836.85 863.114C837.87 864.129 838.446 865.509 838.451 866.949L839.055 1027.77L567.734 1028.79L567.13 867.968C567.125 866.533 567.687 865.153 568.693 864.131C569.699 863.11 571.068 862.529 572.5 862.516Z" fill="#435D88"/>
<path opacity="0.1" d="M572.5 862.516L833.012 861.538C834.449 861.532 835.83 862.1 836.85 863.114C837.87 864.129 838.446 865.509 838.451 866.949L839.055 1027.77L567.734 1028.79L567.13 867.968C567.125 866.533 567.687 865.153 568.693 864.131C569.699 863.11 571.068 862.529 572.5 862.516Z" fill="#697DA0"/>
<path d="M824.565 874.258L581.072 875.173L581.573 1008.59L825.066 1007.68L824.565 874.258Z" fill="white"/>
<path d="M652.812 1028.47L753.963 1028.09L753.979 1032.25C753.983 1033.37 753.541 1034.46 752.75 1035.25C751.959 1036.05 750.884 1036.5 749.761 1036.51L657.007 1036.86C655.884 1036.86 654.805 1036.42 654.009 1035.63C653.212 1034.83 652.762 1033.75 652.757 1032.63L652.742 1028.5L652.812 1028.47Z" fill="#26354D"/>
<path d="M824.565 874.258L581.072 875.173L581.113 886.263L824.606 885.348L824.565 874.258Z" fill="#85D2DA"/>
<path d="M610.549 878.485L587.251 878.573L587.267 882.816L610.565 882.729L610.549 878.485Z" fill="#CEEDF0"/>
<path d="M806.388 877.75L802.155 877.766L802.17 882.01L806.404 881.994L806.388 877.75Z" fill="#CEEDF0"/>
<path d="M812.244 877.728L808.011 877.744L808.027 881.987L812.26 881.971L812.244 877.728Z" fill="#CEEDF0"/>
<path d="M818.115 877.706L813.881 877.722L813.897 881.965L818.13 881.949L818.115 877.706Z" fill="#CEEDF0"/>
<path d="M817.411 893.17L750.071 893.423L750.259 943.498L817.599 943.245L817.411 893.17Z" fill="#E7F6F8"/>
<path d="M798.474 904.727L793.676 904.745L793.694 909.555L798.492 909.537L798.474 904.727Z" fill="#4195C9"/>
<path d="M811.569 904.678L800.591 904.719L800.595 905.809L811.573 905.767L811.569 904.678Z" fill="#B3D5E9"/>
<path d="M807.103 906.562L800.598 906.587L800.602 907.676L807.107 907.651L807.103 906.562Z" fill="#B3D5E9"/>
<path d="M798.502 912.352L793.705 912.37L793.723 917.179L798.521 917.161L798.502 912.352Z" fill="#85D2DA"/>
<path d="M811.598 912.303L800.619 912.344L800.623 913.433L811.602 913.392L811.598 912.303Z" fill="#B3D5E9"/>
<path d="M807.132 914.173L800.626 914.197L800.63 915.286L807.136 915.262L807.132 914.173Z" fill="#B3D5E9"/>
<path d="M798.531 919.976L793.733 919.994L793.751 924.804L798.549 924.786L798.531 919.976Z" fill="#F47954"/>
<path d="M811.626 919.927L800.648 919.968L800.652 921.057L811.631 921.016L811.626 919.927Z" fill="#B3D5E9"/>
<path d="M807.16 921.797L800.655 921.822L800.659 922.911L807.164 922.886L807.16 921.797Z" fill="#B3D5E9"/>
<path d="M798.56 927.587L793.762 927.605L793.78 932.414L798.578 932.396L798.56 927.587Z" fill="#FECE71"/>
<path d="M811.655 927.537L800.676 927.579L800.68 928.668L811.659 928.627L811.655 927.537Z" fill="#B3D5E9"/>
<path d="M807.189 929.407L800.683 929.432L800.687 930.521L807.193 930.496L807.189 929.407Z" fill="#B3D5E9"/>
<path d="M771.254 905.254L771.304 918.367L775.604 906.001C774.201 905.53 772.734 905.278 771.254 905.254Z" fill="#85D2DA"/>
<path d="M776.098 906.169L771.477 919.441L784.568 914.399C783.808 912.51 782.662 910.802 781.203 909.384C779.744 907.967 778.005 906.872 776.098 906.169Z" fill="#F47954"/>
<path d="M772.62 919.564L785.601 919.035C785.526 917.615 785.24 916.214 784.753 914.879L772.62 919.564Z" fill="#FECE71"/>
<path d="M770.619 905.256C767.748 905.342 764.965 906.275 762.62 907.938C760.275 909.602 758.471 911.921 757.434 914.607C756.397 917.293 756.174 920.225 756.791 923.038C757.409 925.85 758.84 928.418 760.906 930.419C762.972 932.42 765.581 933.766 768.406 934.289C771.231 934.811 774.147 934.487 776.789 933.356C779.432 932.226 781.683 930.339 783.26 927.932C784.838 925.526 785.673 922.706 785.661 919.827L785.66 919.685L770.676 920.208L770.619 905.256Z" fill="#4195C9"/>
<path d="M780.157 919.833C780.164 921.64 779.636 923.409 778.64 924.916C777.644 926.422 776.225 927.599 774.561 928.297C772.898 928.995 771.066 929.182 769.296 928.836C767.527 928.49 765.899 927.626 764.619 926.353C763.34 925.08 762.465 923.455 762.107 921.684C761.749 919.912 761.922 918.074 762.606 916.402C763.29 914.73 764.453 913.298 765.948 912.288C767.443 911.279 769.204 910.736 771.007 910.729C773.425 910.72 775.747 911.674 777.463 913.381C779.179 915.089 780.148 917.409 780.157 919.833Z" fill="white"/>
<path d="M655.712 951.45L588.316 951.703L588.504 1001.83L655.901 1001.58L655.712 951.45Z" fill="#E7F6F8"/>
<path d="M636.791 963.276L633.192 963.289L633.206 966.896L636.804 966.883L636.791 963.276Z" fill="#4195C9"/>
<path d="M646.626 963.239L638.385 963.27L638.388 964.09L646.629 964.059L646.626 963.239Z" fill="#B3D5E9"/>
<path d="M643.273 964.638L638.39 964.656L638.393 965.476L643.276 965.458L643.273 964.638Z" fill="#B3D5E9"/>
<path d="M636.813 969.273L633.215 969.287L633.228 972.894L636.827 972.88L636.813 969.273Z" fill="#85D2DA"/>
<path d="M646.649 969.237L638.408 969.268L638.411 970.088L646.652 970.057L646.649 969.237Z" fill="#B3D5E9"/>
<path d="M643.296 970.649L638.413 970.668L638.416 971.488L643.299 971.47L643.296 970.649Z" fill="#B3D5E9"/>
<path d="M636.836 975.285L633.237 975.299L633.251 978.906L636.849 978.892L636.836 975.285Z" fill="#435D88"/>
<path d="M646.672 975.248L638.43 975.279L638.434 976.1L646.675 976.069L646.672 975.248Z" fill="#B3D5E9"/>
<path d="M643.318 976.647L638.436 976.666L638.439 977.486L643.321 977.468L643.318 976.647Z" fill="#B3D5E9"/>
<path d="M636.858 981.297L633.26 981.311L633.273 984.918L636.872 984.904L636.858 981.297Z" fill="#FECE71"/>
<path d="M646.694 981.26L638.453 981.291L638.456 982.112L646.697 982.081L646.694 981.26Z" fill="#B3D5E9"/>
<path d="M643.341 982.659L638.458 982.677L638.461 983.498L643.344 983.48L643.341 982.659Z" fill="#B3D5E9"/>
<path d="M636.881 987.295L633.282 987.308L633.296 990.915L636.894 990.902L636.881 987.295Z" fill="#F47954"/>
<path d="M646.716 987.258L638.475 987.289L638.478 988.109L646.72 988.078L646.716 987.258Z" fill="#B3D5E9"/>
<path d="M643.363 988.671L638.481 988.689L638.484 989.51L643.366 989.491L643.363 988.671Z" fill="#B3D5E9"/>
<path d="M624.183 984.301C625.108 982.311 625.581 980.14 625.57 977.944C625.56 976.557 625.36 975.178 624.976 973.844L610.669 978L624.183 984.301Z" fill="#85D2DA"/>
<path d="M595.93 979.966C596.358 983.161 597.808 986.132 600.061 988.432C602.315 990.733 605.251 992.24 608.431 992.728C611.61 993.217 614.862 992.659 617.699 991.14C620.536 989.621 622.806 987.222 624.169 984.301L610.669 978.001L595.93 979.966Z" fill="#4195C9"/>
<path d="M608.567 963.24C605.014 963.751 601.765 965.532 599.418 968.255C597.071 970.977 595.785 974.458 595.795 978.056C595.804 978.695 595.849 979.332 595.93 979.966L610.683 978L608.567 963.24Z" fill="#F47954"/>
<path d="M619.047 965.648C616.55 963.944 613.592 963.047 610.571 963.077C609.881 963.082 609.193 963.136 608.511 963.24L610.627 978.001L619.047 965.648Z" fill="#FECE71"/>
<path d="M619.047 965.648L610.626 978.001L624.934 973.845C623.98 970.511 621.898 967.613 619.047 965.648Z" fill="#435D88"/>
<path d="M817.627 950.841L750.287 951.094L750.476 1001.23L817.815 1000.97L817.627 950.841Z" fill="#E7F6F8"/>
<path d="M812.806 989.718L754.088 989.938L754.109 995.455L812.827 995.235L812.806 989.718Z" fill="#CEEDF0"/>
<path d="M812.767 979.307L754.049 979.527L754.07 985.044L812.788 984.824L812.767 979.307Z" fill="#CEEDF0"/>
<path d="M812.725 968.103L754.007 968.324L754.028 973.841L812.745 973.62L812.725 968.103Z" fill="#CEEDF0"/>
<path d="M812.683 957.127L753.966 957.347L753.986 962.864L812.704 962.643L812.683 957.127Z" fill="#CEEDF0"/>
<path d="M757.156 995.302L759.603 989.338L763.556 985.857L767.74 976.618L771.465 972.53L775.443 976.024L779.457 985.048L783.476 980.549L787.34 968.652L791.544 964.463L795.103 968.976L799.292 975.934L803.3 983.586L807.273 981.86L809.962 995.246L757.156 995.302Z" fill="#FECE71"/>
<path d="M757.157 995.359L759.612 991.615L763.569 989.422L767.767 983.635L771.497 981.074L775.47 983.252L779.471 988.909L783.497 986.079L787.377 978.624L791.587 976.005L795.14 978.807L799.319 983.162L803.316 987.957L807.292 986.867L809.962 995.245L757.157 995.359Z" fill="#4195C9"/>
<path d="M743.782 951.119L664.348 951.417L664.537 1001.55L743.97 1001.25L743.782 951.119Z" fill="#E7F6F8"/>
<path d="M738.402 991.61L670.456 991.865L670.472 996.335L738.419 996.08L738.402 991.61Z" fill="#CEEDF0"/>
<path d="M738.369 982.656L670.422 982.911L670.439 987.381L738.385 987.126L738.369 982.656Z" fill="#CEEDF0"/>
<path d="M738.335 973.702L670.388 973.957L670.405 978.427L738.352 978.172L738.335 973.702Z" fill="#CEEDF0"/>
<path d="M738.301 964.762L670.355 965.017L670.372 969.487L738.318 969.232L738.301 964.762Z" fill="#CEEDF0"/>
<path d="M738.268 955.808L670.321 956.063L670.338 960.533L738.285 960.278L738.268 955.808Z" fill="#CEEDF0"/>
<path d="M675.318 986.457L671.733 986.471L671.759 993.289L675.343 993.276L675.318 986.457Z" fill="#F47954"/>
<path d="M706.234 978.307L702.65 978.32L702.705 993.173L706.29 993.159L706.234 978.307Z" fill="#F47954"/>
<path d="M716.47 956.979L712.885 956.992L713.021 993.148L716.605 993.135L716.47 956.979Z" fill="#F47954"/>
<path d="M726.844 972.684L723.26 972.698L723.337 993.11L726.921 993.096L726.844 972.684Z" fill="#F47954"/>
<path d="M737.187 979.902L733.603 979.915L733.652 993.057L737.236 993.043L737.187 979.902Z" fill="#F47954"/>
<path d="M685.585 973.518L682 973.531L682.075 993.264L685.659 993.251L685.585 973.518Z" fill="#F47954"/>
<path d="M695.898 972.8L692.313 972.814L692.39 993.226L695.974 993.212L695.898 972.8Z" fill="#F47954"/>
<path d="M675.329 989.513L671.745 989.526L671.77 996.345L675.355 996.331L675.329 989.513Z" fill="#4195C9"/>
<path d="M706.246 981.376L702.661 981.39L702.717 996.228L706.301 996.215L706.246 981.376Z" fill="#4195C9"/>
<path d="M716.488 961.774L712.903 961.787L713.032 996.175L716.617 996.162L716.488 961.774Z" fill="#4195C9"/>
<path d="M726.856 975.754L723.271 975.767L723.348 996.151L726.932 996.137L726.856 975.754Z" fill="#4195C9"/>
<path d="M737.199 982.971L733.614 982.985L733.664 996.112L737.248 996.099L737.199 982.971Z" fill="#4195C9"/>
<path d="M685.597 976.602L682.012 976.615L682.086 996.306L685.67 996.292L685.597 976.602Z" fill="#4195C9"/>
<path d="M695.909 975.87L692.325 975.883L692.401 996.267L695.986 996.254L695.909 975.87Z" fill="#4195C9"/>
<path d="M714.668 954.383L711.659 957.421L717.685 957.399L714.668 954.383Z" fill="#F47954"/>
<path d="M743.551 893.447L588.099 894.031L588.293 945.62L743.745 945.036L743.551 893.447Z" fill="#E7F6F8"/>
<path d="M650.307 913.715C649.441 909.829 647.34 906.33 644.32 903.743C641.301 901.157 637.525 899.623 633.561 899.371C629.597 899.12 625.659 900.165 622.338 902.349C619.018 904.533 616.494 907.739 615.146 911.484C614.454 911.254 613.729 911.137 613 911.139C612.099 911.14 611.207 911.32 610.375 911.668C609.544 912.016 608.789 912.525 608.154 913.166C607.519 913.808 607.017 914.568 606.676 915.404C606.335 916.241 606.162 917.136 606.168 918.039C606.173 918.428 606.208 918.815 606.271 919.199C605.663 919.07 605.043 919.006 604.421 919.008C602.068 919.11 599.845 920.121 598.219 921.829C596.593 923.537 595.689 925.81 595.698 928.172C595.707 930.533 596.628 932.799 598.267 934.495C599.906 936.191 602.136 937.186 604.49 937.27L650.141 937.098C653.168 937.02 656.046 935.765 658.168 933.598C660.289 931.431 661.487 928.523 661.508 925.487C661.53 922.452 660.373 919.526 658.283 917.33C656.193 915.133 653.333 913.837 650.307 913.715Z" fill="#4195C9"/>
<path d="M601.777 928.906C601.762 924.747 604.318 921.611 608.298 921.596L608.566 921.595C608.132 921.518 607.693 921.477 607.253 921.473C605.378 921.47 603.571 922.178 602.196 923.455C600.821 924.733 599.979 926.485 599.839 928.359C599.699 930.234 600.273 932.092 601.444 933.56C602.615 935.028 604.297 935.997 606.151 936.273C603.255 935.322 601.79 932.258 601.777 928.906Z" fill="#64AADA"/>
<path d="M656.105 924.444C656.085 919.238 653.91 914.974 645.571 915.076C644.723 907.229 638.887 901.38 631.704 901.407C626.807 901.425 622.348 905.162 619.638 908.836C621.473 906.803 623.832 905.316 626.456 904.539C629.079 903.763 631.866 903.726 634.509 904.434C637.151 905.142 639.548 906.567 641.436 908.552C643.323 910.537 644.627 913.006 645.206 915.686C646.996 915.716 648.741 916.254 650.239 917.236C651.738 918.219 652.928 919.607 653.672 921.239C654.416 922.872 654.684 924.682 654.445 926.461C654.206 928.239 653.469 929.914 652.32 931.29C654.318 929.529 656.116 927.329 656.105 924.444Z" fill="#64AADA"/>
<g opacity="0.5">
<path d="M615.348 912.629C615.071 912.616 614.793 912.617 614.516 912.633C613.603 912.625 612.704 912.845 611.897 913.273C611.091 913.701 610.403 914.323 609.896 915.083C609.425 915.886 609.117 916.775 608.99 917.698C608.863 918.621 608.919 919.56 609.154 920.461C609.154 920.461 609.339 920.729 609.367 920.729C609.28 920.262 609.227 919.79 609.207 919.315C609.143 917.614 609.753 915.956 610.903 914.704C612.054 913.451 613.652 912.706 615.348 912.629Z" fill="#64AADA"/>
</g>
<path d="M626.073 931.474C626.073 931.474 621.82 926.143 624.621 920.431C627.422 914.72 633.778 912.702 640.568 916.977C640.568 916.977 630.492 913.124 626.793 920.282C623.095 927.439 626.073 931.474 626.073 931.474Z" fill="#64AADA"/>
<path d="M630.337 920.636L621.494 929.567L639.26 929.5L630.337 920.636Z" fill="#C8E5F7"/>
<path d="M634.339 930.509L626.423 930.539L626.427 931.784L634.344 931.754L634.339 930.509Z" fill="#C8E5F7"/>
<path d="M634.346 932.39L626.43 932.42L626.434 933.665L634.351 933.635L634.346 932.39Z" fill="#C8E5F7"/>
<path d="M634.354 934.427L626.437 934.457L626.441 935.376L634.357 935.347L634.354 934.427Z" fill="#C8E5F7"/>
<path d="M634.361 936.379L626.445 936.409L626.447 937.159L634.364 937.129L634.361 936.379Z" fill="#C8E5F7"/>
<path d="M634.369 938.346L626.452 938.375L626.454 938.927L634.371 938.897L634.369 938.346Z" fill="#C8E5F7"/>
<path d="M634.376 940.312L626.459 940.342L626.461 940.724L634.377 940.694L634.376 940.312Z" fill="#C8E5F7"/>
<path d="M634.383 942.236L626.467 942.265L626.468 942.562L634.384 942.533L634.383 942.236Z" fill="#C8E5F7"/>
<path d="M735.139 911.727L693.03 911.885L693.051 917.543L735.16 917.385L735.139 911.727Z" fill="#CEEDF0"/>
<path d="M716.97 917.453L693.051 917.543L693.03 911.885L716.949 911.795L719.274 914.616L716.97 917.453Z" fill="#F47954"/>
<path d="M675.785 911.766C675.583 911.754 675.38 911.755 675.178 911.768C674.683 911.791 674.209 911.982 673.836 912.31C673.463 912.637 673.212 913.083 673.125 913.572C673.391 913.289 673.737 913.095 674.116 913.016C674.496 912.937 674.89 912.976 675.247 913.129C675.603 913.282 675.904 913.541 676.108 913.871C676.313 914.202 676.411 914.587 676.39 914.975C676.401 915.263 676.353 915.551 676.249 915.821C676.146 916.091 675.989 916.336 675.787 916.544C675.586 916.751 675.346 916.915 675.079 917.026C674.813 917.137 674.527 917.192 674.239 917.19C673.906 917.19 673.577 917.119 673.273 916.981C672.969 916.843 672.698 916.642 672.479 916.392C672.259 916.141 672.094 915.846 671.997 915.526C671.9 915.207 671.872 914.87 671.915 914.539C671.883 914.018 671.961 913.497 672.144 913.009C672.327 912.52 672.611 912.076 672.977 911.706C673.574 911.158 674.339 910.831 675.146 910.778C675.343 910.757 675.542 910.756 675.739 910.776L675.785 911.766ZM675.247 915.078C675.267 914.925 675.254 914.77 675.208 914.623C675.163 914.476 675.087 914.341 674.985 914.226C674.882 914.111 674.757 914.019 674.616 913.957C674.476 913.895 674.324 913.864 674.17 913.866C673.962 913.867 673.759 913.927 673.582 914.037C673.406 914.148 673.264 914.305 673.171 914.492C673.122 914.608 673.098 914.734 673.102 914.86C673.105 915.68 673.516 916.273 674.25 916.27C674.984 916.267 675.25 915.814 675.248 915.135L675.247 915.078Z" fill="#3D95D1"/>
<path d="M681.438 913.966C681.446 915.946 680.674 917.194 679.207 917.199C677.739 917.205 677.029 915.92 677.022 914.039C677.014 912.157 677.814 910.839 679.253 910.833C680.693 910.828 681.431 912.141 681.438 913.966ZM678.193 913.978C678.198 915.477 678.596 916.254 679.245 916.251C679.895 916.249 680.286 915.413 680.281 913.927C680.275 912.442 679.934 911.665 679.228 911.668C678.523 911.671 678.173 912.492 678.193 914.034L678.193 913.978Z" fill="#3D95D1"/>
<path d="M685.173 912.636C685.178 913.937 684.432 914.591 683.586 914.594C682.739 914.597 682.031 913.935 682.012 912.747C681.994 911.559 682.668 910.82 683.614 910.817C684.559 910.813 685.169 911.518 685.173 912.636ZM682.901 912.644C682.904 913.366 683.146 913.888 683.611 913.887C684.077 913.885 684.301 913.389 684.298 912.639C684.295 911.889 684.11 911.409 683.602 911.411C683.094 911.413 682.899 912.022 682.901 912.701L682.901 912.644ZM683.609 917.126L687.156 910.747L687.819 910.745L684.272 917.123L683.609 917.126ZM689.416 915.124C689.421 916.411 688.675 917.079 687.828 917.082C686.982 917.085 686.274 916.423 686.269 915.22C686.237 914.988 686.253 914.75 686.317 914.524C686.381 914.298 686.491 914.087 686.64 913.906C686.789 913.724 686.974 913.576 687.184 913.47C687.393 913.364 687.622 913.303 687.857 913.291C688.83 913.344 689.412 914.063 689.416 915.18L689.416 915.124ZM687.144 915.132C687.146 915.84 687.388 916.362 687.854 916.36C688.32 916.359 688.544 915.877 688.541 915.127C688.538 914.377 688.353 913.897 687.845 913.899C687.337 913.901 687.142 914.552 687.144 915.245L687.144 915.132Z" fill="#3D95D1"/>
<path d="M735.187 924.599L693.078 924.758L693.1 930.416L735.208 930.258L735.187 924.599Z" fill="#CEEDF0"/>
<path d="M725.33 930.295L693.1 930.416L693.078 924.758L725.309 924.637L727.634 927.457L725.33 930.295Z" fill="#4195C9"/>
<path d="M672.013 929.406C672.016 929.052 672.129 928.708 672.335 928.421C672.541 928.134 672.831 927.918 673.164 927.803C672.877 927.701 672.631 927.508 672.462 927.254C672.293 926.999 672.211 926.697 672.228 926.392C672.244 926.143 672.311 925.901 672.423 925.679C672.536 925.457 672.692 925.261 672.883 925.101C673.074 924.942 673.295 924.823 673.533 924.752C673.771 924.68 674.021 924.658 674.267 924.687C675.594 924.682 676.204 925.486 676.206 926.235C676.202 926.537 676.112 926.832 675.945 927.083C675.778 927.335 675.542 927.533 675.266 927.654C675.599 927.753 675.891 927.955 676.103 928.231C676.314 928.507 676.433 928.843 676.443 929.191C676.448 930.294 675.519 931.033 674.207 931.038C672.894 931.043 672.016 930.269 672.013 929.406ZM675.259 929.393C675.256 928.771 674.789 928.433 674.111 928.238C673.861 928.293 673.636 928.43 673.473 928.628C673.31 928.826 673.218 929.074 673.212 929.33C673.206 929.466 673.229 929.601 673.28 929.727C673.33 929.853 673.407 929.966 673.505 930.06C673.603 930.153 673.72 930.225 673.848 930.269C673.976 930.313 674.111 930.33 674.246 930.317C674.384 930.33 674.523 930.312 674.654 930.264C674.784 930.216 674.902 930.14 674.999 930.04C675.096 929.941 675.169 929.821 675.214 929.69C675.259 929.558 675.274 929.418 675.258 929.28L675.259 929.393ZM673.328 926.416C673.33 926.925 673.755 927.221 674.334 927.374C674.546 927.329 674.736 927.213 674.873 927.045C675.011 926.878 675.088 926.669 675.092 926.452C675.098 926.335 675.079 926.218 675.037 926.109C674.995 926 674.93 925.901 674.847 925.819C674.765 925.737 674.665 925.673 674.556 925.631C674.447 925.59 674.331 925.572 674.214 925.578C674.104 925.569 673.994 925.582 673.889 925.617C673.785 925.651 673.688 925.707 673.605 925.78C673.523 925.853 673.455 925.942 673.408 926.041C673.36 926.141 673.333 926.249 673.328 926.359L673.328 926.416Z" fill="#3D95D1"/>
<path d="M681.49 927.842C681.498 929.823 680.726 931.056 679.259 931.062C677.791 931.067 677.081 929.783 677.074 927.916C677.067 926.048 677.866 924.702 679.305 924.696C680.745 924.691 681.483 926.018 681.49 927.842ZM678.245 927.855C678.25 929.354 678.648 930.116 679.297 930.114C679.947 930.112 680.338 929.276 680.333 927.804C680.327 926.333 679.986 925.528 679.28 925.531C678.575 925.534 678.225 926.355 678.245 927.855Z" fill="#3D95D1"/>
<path d="M685.225 926.513C685.23 927.8 684.484 928.468 683.638 928.471C682.791 928.474 682.083 927.812 682.064 926.624C682.046 925.436 682.72 924.683 683.666 924.68C684.611 924.676 685.221 925.395 685.225 926.513ZM682.953 926.521C682.956 927.229 683.198 927.751 683.663 927.749C684.129 927.748 684.353 927.266 684.35 926.516C684.347 925.766 684.162 925.272 683.654 925.274C683.146 925.276 682.951 925.885 682.953 926.578L682.953 926.521ZM683.661 930.989L687.208 924.61L687.871 924.607L684.324 930.986L683.661 930.989ZM689.468 928.987C689.473 930.288 688.727 930.941 687.88 930.945C687.034 930.948 686.326 930.3 686.321 929.097C686.317 927.895 686.977 927.157 687.909 927.153C688.84 927.15 689.464 927.94 689.468 929.043L689.468 928.987ZM687.196 928.995C687.198 929.702 687.44 930.225 687.906 930.223C688.372 930.221 688.596 929.725 688.593 928.976C688.59 928.226 688.405 927.746 687.897 927.748C687.389 927.749 687.194 928.429 687.196 929.122L687.196 928.995Z" fill="#3D95D1"/>
<path d="M544.098 927.566L551.983 926.575L553.08 925.708L553.521 922.877L553.516 921.377L552.743 918.693L552.509 916.501C552.431 915.78 552.153 915.096 551.707 914.525C551.261 913.955 550.665 913.52 549.985 913.271L547.569 912.389L543.947 913.534L541.399 915.241L541.59 921.054L543.537 924.725L544.098 927.566Z" fill="#F8AF98"/>
<path d="M546.048 931.901L548.869 931.679C549.068 931.679 549.265 931.637 549.447 931.556C549.629 931.475 549.792 931.356 549.924 931.207C550.057 931.058 550.157 930.883 550.217 930.693C550.278 930.502 550.297 930.302 550.274 930.103L549.561 924.278L543.777 924.724L544.49 930.549C544.498 930.743 544.545 930.933 544.628 931.107C544.712 931.282 544.831 931.437 544.977 931.564C545.123 931.691 545.293 931.786 545.477 931.844C545.661 931.902 545.856 931.922 546.048 931.901Z" fill="#F8AF98"/>
<path d="M551.428 914.072L549.568 914.899L550.32 916.056L550.259 918.532L550.394 920.512L549.957 920.655L549.332 919.667L548.726 919.981L548.718 921.395L549.358 922.907L547.869 924.737L543.554 925.376L541.264 920.56L540.654 916.178L542.803 913.298L547.453 911.441L550.107 911.7L552.482 912.865L551.428 914.072Z" fill="#B75B3F"/>
<path d="M538.173 977.056L560.907 976.971L560.903 975.867L561.87 974.209L560.944 971.807C560.944 971.807 560.848 968.823 560.743 963.321C560.658 959.459 561.479 952.539 561.206 947.504C561.032 942.189 560.172 936.92 558.649 931.826C557.862 928.872 553.984 929.637 553.984 929.637L541.625 930.362C534.418 931.549 532.924 935.855 534.39 946.501L537.01 964.018L537.301 966.323L536.272 974.333L537.774 975.827L538.173 977.056Z" fill="#FECE71"/>
<path d="M565.813 1065.84L565.672 1065.85L565.675 1066.59L562.147 1066.61L562.242 1065.62L562.355 1065.62L563.146 1062.02L566.815 1062.01L566.901 1062.47L567.795 1063.72L573.163 1065.24C573.163 1065.24 573.587 1065.42 573.588 1065.66L573.59 1066.34C573.59 1066.34 573.52 1066.45 573.083 1066.58L566.931 1066.6L566.562 1066.11L566.194 1065.87L565.813 1065.84Z" fill="#26354D"/>
<path d="M536.673 1065.95L536.574 1065.95L536.577 1066.7L533.035 1066.72L533.13 1065.73L533.243 1065.73L534.034 1062.13L537.717 1062.12L537.789 1062.58L538.697 1063.82L544.065 1065.35C544.065 1065.35 544.489 1065.53 544.476 1065.77L544.479 1066.45C544.479 1066.45 544.408 1066.56 543.971 1066.69L537.819 1066.71L537.45 1066.22L537.082 1065.98L536.673 1065.95Z" fill="#26354D"/>
<path d="M538.113 1062.53L532.651 1062.12L535.357 1019.93L536.444 986.243L536.217 982.029L537.642 978.36L537.592 976.323L551.097 976.272L550.758 980.079L544.154 1021.51L538.113 1062.53Z" fill="#4195C9"/>
<path d="M567.24 1062.43L561.681 1062.73L555.584 1021.28L548.017 979.014L548.007 976.284L561.187 976.234L561.768 980.744L564.471 1020.31L567.24 1062.43Z" fill="#4195C9"/>
<path d="M589.613 913.759L588.499 914.003L587.981 914.981L587.45 916.638L589.179 914.751L589.221 914.51L589.643 914.282L590.037 913.913L589.613 913.759Z" fill="#F8AF98"/>
<path d="M592.796 915.84L592.2 915.135L592.972 914.043C593.047 913.987 593.139 913.959 593.232 913.965C593.325 913.97 593.413 914.008 593.48 914.072C593.548 914.136 593.591 914.222 593.602 914.314C593.612 914.407 593.59 914.501 593.539 914.578L592.796 915.84Z" fill="#F8AF98"/>
<path d="M593.864 914.832C593.962 914.925 594.024 915.049 594.04 915.184C594.056 915.318 594.025 915.454 593.952 915.567L593.547 916.644L593.406 916.814L592.937 915.882C593.076 915.566 593.25 915.267 593.456 914.989C593.54 914.89 593.666 914.691 593.864 914.832Z" fill="#F8AF98"/>
<path d="M592.186 914.98L591.449 914.289L592.476 913.295C592.51 913.256 592.552 913.224 592.6 913.203C592.647 913.181 592.698 913.17 592.75 913.17C592.802 913.169 592.854 913.18 592.901 913.202C592.949 913.223 592.991 913.254 593.026 913.293C593.097 913.364 593.137 913.461 593.137 913.562C593.138 913.662 593.098 913.759 593.028 913.831L592.186 914.98Z" fill="#F8AF98"/>
<path d="M591.35 914.219L593.766 911.027C593.837 910.953 593.876 910.854 593.876 910.751C593.876 910.648 593.835 910.549 593.763 910.475C593.728 910.438 593.685 910.409 593.638 910.389C593.59 910.369 593.539 910.359 593.488 910.359C593.436 910.359 593.386 910.37 593.338 910.39C593.291 910.41 593.249 910.44 593.213 910.478L590.473 913.458L591.35 914.219Z" fill="#F8AF98"/>
<path d="M590.515 913.444L589.545 914.381L589.151 914.708L587.744 915.958L587.228 917.502L583.454 923.401L586.65 925.2L590.202 920.249L592.269 918.445L593.603 916.658C593.349 915.759 592.858 914.945 592.183 914.301C591.757 913.811 591.16 913.505 590.515 913.444Z" fill="#F8AF98"/>
<path d="M589.024 914.85L589.164 914.468L589.882 914.069L589.024 914.85Z" fill="#B97373"/>
<path d="M589.476 922.53L585.232 919.716L576.132 931.506L555.663 929.645C554.582 930.039 553.675 930.804 553.103 931.804C552.721 932.322 552.462 932.919 552.344 933.552C552.227 934.185 552.255 934.836 552.425 935.457L552.525 935.81C552.649 936.259 552.876 936.674 553.188 937.019C553.501 937.364 553.89 937.631 554.325 937.798L554.51 938.25C555.373 938.713 556.161 938.144 557.135 938.155C564.657 938.31 577.963 937.963 577.963 937.963L579.525 936.953L589.476 922.53Z" fill="#FECE71"/>
<path d="M530.08 982.561L530.979 985.132L531.253 986.701C531.253 986.701 531.255 987.409 531.256 987.635C531.257 987.68 531.248 987.724 531.231 987.765C531.214 987.806 531.19 987.844 531.158 987.876C531.124 987.907 531.084 987.929 531.04 987.941C530.996 987.954 530.95 987.956 530.905 987.947C530.679 987.948 530.55 987.581 530.506 986.959L530.505 986.662L530.504 986.591L530.263 986.083L530.106 985.843L529.999 987.258C529.498 987.553 528.904 987.651 528.335 987.533C527.464 987.454 526.631 987.144 525.918 986.636L526.104 983.425L526.62 981.867L527.258 975.23L530.957 975.697L530.08 982.561Z" fill="#F8AF98"/>
<path d="M527.133 990.664L527.133 990.763C527.12 990.858 527.069 990.944 526.993 991.002C526.917 991.061 526.82 991.087 526.725 991.075C526.629 991.058 526.543 991.005 526.485 990.926C526.427 990.847 526.401 990.749 526.413 990.652L526.413 990.525L526.794 986.86L527.641 987.069L527.133 990.664Z" fill="#F8AF98"/>
<path d="M526.127 989.536C526.113 989.631 526.063 989.717 525.986 989.775C525.91 989.834 525.814 989.86 525.719 989.848C525.622 989.831 525.536 989.778 525.478 989.699C525.42 989.62 525.395 989.522 525.407 989.425L525.406 989.199L525.734 986.368L526.596 986.761L526.112 989.323L526.127 989.536Z" fill="#F8AF98"/>
<path d="M528.264 991.381C528.261 991.429 528.248 991.475 528.226 991.518C528.205 991.561 528.174 991.598 528.138 991.629C528.101 991.659 528.058 991.682 528.012 991.696C527.966 991.709 527.918 991.713 527.871 991.708C527.776 991.697 527.689 991.65 527.628 991.577C527.567 991.503 527.537 991.408 527.545 991.313L527.825 987.068L528.757 987.178L528.278 991.324L528.264 991.381Z" fill="#F8AF98"/>
<path d="M529.617 990.81L529.618 991.064C529.611 991.163 529.566 991.256 529.493 991.322C529.419 991.388 529.323 991.423 529.224 991.42C529.176 991.416 529.129 991.403 529.086 991.382C529.042 991.36 529.004 991.33 528.972 991.293C528.941 991.256 528.917 991.214 528.901 991.168C528.886 991.122 528.88 991.073 528.884 991.025L528.884 990.912L528.954 987.177L529.871 987.089L529.631 990.81L529.617 990.81Z" fill="#F8AF98"/>
<path opacity="0.1" d="M529.951 985.872L529.017 985.111L528.603 983.698L528.947 985.239L529.966 986.084L529.951 985.872Z" fill="#1A2C3D"/>
<path d="M541.735 937.152C541.548 938.385 541.265 939.602 540.888 940.79L533.56 962.348L530.976 980.747L525.768 980.328L526.911 961.595L527.172 959.783C527.172 959.783 532.145 938.659 535.035 934.291C535.415 933.752 535.94 933.332 536.548 933.079C537.157 932.826 537.824 932.752 538.473 932.864C540.141 933.423 542.007 934.364 541.735 937.152Z" fill="#FECE71"/>
<path d="M544.048 929.221L550.185 928.873L550.641 929.89L543.727 930.283L544.048 929.221Z" fill="#FECE71"/>
<path d="M552.635 630.6C550.538 620.905 545.344 612.16 537.842 605.691C530.34 599.222 520.938 595.381 511.061 594.751C501.185 594.122 491.374 596.737 483.114 602.201C474.855 607.664 468.598 615.679 465.292 625.029C462.729 624.181 460.003 623.957 457.337 624.374C454.671 624.792 452.143 625.839 449.961 627.43C447.778 629.02 446.005 631.109 444.788 633.522C443.57 635.936 442.942 638.605 442.957 641.31C442.969 642.258 443.058 643.204 443.222 644.138C441.712 643.83 440.175 643.679 438.634 643.688C432.635 643.711 426.89 646.121 422.664 650.39C418.438 654.658 416.076 660.435 416.099 666.449C416.121 672.463 418.526 678.221 422.784 682.458C427.042 686.694 432.805 689.062 438.804 689.039C439.242 689.037 439.693 689.036 440.131 689.034C440.568 689.032 440.695 689.032 440.978 689.031L552.204 688.613C559.615 688.276 566.614 685.101 571.759 679.744C576.904 674.387 579.803 667.255 579.858 659.819C579.914 652.383 577.121 645.209 572.056 639.775C566.992 634.341 560.04 631.062 552.635 630.614L552.635 630.6Z" fill="#D9F1FF"/>
<path d="M432.151 668.326C432.112 658 438.475 650.196 448.367 650.159L449.03 650.156C447.954 649.968 446.863 649.872 445.77 649.871C441.066 649.798 436.512 651.531 433.042 654.715C429.571 657.899 427.447 662.292 427.103 666.996C426.76 671.699 428.224 676.356 431.196 680.012C434.167 683.668 438.421 686.047 443.085 686.661C435.823 684.269 432.182 676.658 432.151 668.326Z" fill="#D9F1FF"/>
<path d="M567.143 657.224C567.095 644.309 561.664 633.72 540.949 633.954C538.844 614.469 524.367 599.939 506.601 600.005C494.409 600.051 483.338 609.33 476.613 618.507C481.171 613.444 487.035 609.741 493.559 607.805C500.083 605.869 507.013 605.776 513.586 607.536C520.16 609.296 526.121 612.841 530.813 617.779C535.505 622.718 538.746 628.859 540.179 635.527C544.602 635.639 548.905 636.999 552.593 639.449C556.281 641.899 559.206 645.342 561.033 649.382C562.86 653.422 563.514 657.896 562.922 662.291C562.329 666.687 560.513 670.826 557.682 674.235C562.703 669.859 567.17 664.396 567.143 657.224Z" fill="#D9F1FF"/>
<g opacity="0.5">
<path d="M465.867 627.884C465.183 627.797 464.495 627.752 463.806 627.75C461.539 627.725 459.302 628.27 457.299 629.335C455.296 630.4 453.592 631.952 452.342 633.848C451.169 635.842 450.401 638.049 450.083 640.342C449.765 642.635 449.902 644.969 450.487 647.208C450.487 647.208 450.955 647.857 450.997 647.871C450.794 646.678 450.662 645.474 450.603 644.266C450.51 640.078 452.054 636.02 454.907 632.959C457.759 629.898 461.692 628.076 465.867 627.884Z" fill="#D9F1FF"/>
</g>
<path d="M492.502 674.72C492.502 674.72 481.897 661.462 488.97 647.262C496.043 633.061 511.688 628.065 528.577 638.626C528.577 638.626 503.535 629.072 494.345 646.831C485.154 664.591 492.502 674.72 492.502 674.72Z" fill="#D9F1FF"/>
<path d="M498.552 654.95L473.121 680.635L524.176 680.443L498.552 654.95Z" fill="#4195C9"/>
<path d="M510.047 683.339L487.271 683.425L487.284 686.989L510.06 686.904L510.047 683.339Z" fill="#4195C9"/>
<path d="M510.067 688.729L487.291 688.814L487.304 692.379L510.08 692.294L510.067 688.729Z" fill="#4195C9"/>
<path d="M510.089 694.6L487.313 694.685L487.323 697.316L510.099 697.231L510.089 694.6Z" fill="#4195C9"/>
<path d="M510.11 700.215L487.334 700.301L487.342 702.465L510.118 702.38L510.11 700.215Z" fill="#4195C9"/>
<path d="M510.131 705.888L487.355 705.973L487.362 707.586L510.137 707.5L510.131 705.888Z" fill="#4195C9"/>
<path d="M510.153 711.532L487.377 711.617L487.381 712.721L510.157 712.635L510.153 711.532Z" fill="#4195C9"/>
<path d="M510.173 717.048L487.397 717.134L487.401 717.983L510.177 717.897L510.173 717.048Z" fill="#4195C9"/>
<path d="M941.857 959.768L941.501 962.641L940.7 963.521L939.76 964.84L939.222 968.251L939.957 968.602L940.599 966.647L940.882 966.802L939.823 970.484L942.474 969.908L944.212 966.903L944.447 965.402L944.31 962.857L944.879 960.209L941.857 959.768Z" fill="#FBCDA6"/>
<path d="M946.171 951.193L945.932 951.35C944.44 952.261 943.11 951.516 941.538 949.81C937.84 945.877 932.942 941.822 929.298 937.125C928.949 936.767 928.678 936.341 928.5 935.873C928.322 935.406 928.242 934.907 928.264 934.407C928.286 933.908 928.41 933.418 928.628 932.968C928.846 932.518 929.153 932.117 929.532 931.791L929.742 931.55C931.388 930.044 933.368 931.253 934.643 932.677C939.036 937.612 946.776 946.848 946.776 946.848C947.035 947.168 947.225 947.537 947.335 947.934C947.445 948.33 947.473 948.745 947.416 949.153C947.36 949.56 947.22 949.952 947.006 950.303C946.791 950.654 946.508 950.957 946.171 951.193Z" fill="#85D2DA"/>
<path d="M945.111 961.835L941.354 961.085C941.843 957.356 942.064 953.597 942.018 949.837C942.008 947.375 942.623 945.761 944.359 945.839C946.109 945.917 947.849 947.042 947.409 949.944C946.804 954.36 945.111 961.835 945.111 961.835Z" fill="#85D2DA"/>
<path d="M926.701 963.375L856.604 928.345L861.309 918.779L931.407 953.88C931.444 953.898 931.478 953.923 931.506 953.954C931.533 953.985 931.554 954.022 931.568 954.061C931.581 954.101 931.586 954.143 931.583 954.184C931.58 954.226 931.569 954.267 931.549 954.304L927.081 963.232C927.044 963.296 926.985 963.345 926.916 963.371C926.847 963.397 926.771 963.398 926.701 963.375Z" fill="#26354D"/>
<path d="M940.325 972.533L874.781 939.918C874.418 939.746 874.093 939.503 873.825 939.204C873.556 938.905 873.35 938.555 873.217 938.176C873.084 937.796 873.028 937.393 873.052 936.992C873.075 936.59 873.178 936.197 873.354 935.836L877.43 927.559C877.602 927.196 877.844 926.87 878.142 926.601C878.441 926.332 878.789 926.125 879.168 925.992C879.547 925.859 879.948 925.802 880.349 925.826C880.75 925.85 881.142 925.953 881.502 926.129L947.061 958.73C948.772 959.713 949.804 960.134 949.047 961.664L943.782 972.449C943.068 974.008 941.823 973.277 940.325 972.533Z" fill="#F47954"/>
<path d="M814.726 862.356C813.528 862.658 812.33 863.016 811.146 863.417C799.964 867.238 790.721 875.301 785.4 885.876C780.08 896.45 779.105 908.694 782.686 919.98C786.267 931.266 794.118 940.696 804.555 946.247C814.991 951.798 827.183 953.028 838.513 949.673C849.844 946.317 859.411 938.644 865.163 928.3C870.915 917.955 872.394 905.762 869.281 894.337C866.169 882.912 858.714 873.165 848.515 867.186C838.316 861.207 826.186 859.473 814.726 862.356ZM837.602 941.487C832.945 943.292 827.971 944.133 822.98 943.962C817.99 943.79 813.086 942.608 808.562 940.487C804.039 938.366 799.991 935.35 796.66 931.62C793.33 927.891 790.787 923.524 789.183 918.784C787.58 914.043 786.949 909.026 787.33 904.035C787.71 899.044 789.094 894.182 791.398 889.741C793.701 885.3 796.877 881.372 800.734 878.193C804.592 875.014 809.05 872.65 813.843 871.243C814.815 870.914 815.802 870.628 816.775 870.383C826.043 868.071 835.845 869.439 844.131 874.2C852.418 878.962 858.548 886.749 861.243 895.934C863.937 905.12 862.986 914.994 858.588 923.493C854.191 931.992 846.687 938.459 837.645 941.543L837.602 941.487Z" fill="#26354D"/>
<path opacity="0.3" d="M863.852 896.815C865.742 904.381 865.351 912.34 862.729 919.684C860.107 927.028 855.371 933.427 849.121 938.073C842.871 942.719 835.386 945.403 827.614 945.785C819.842 946.167 812.132 944.23 805.458 940.219C798.784 936.208 793.446 930.304 790.12 923.252C786.793 916.201 785.628 908.319 786.77 900.603C787.913 892.887 791.312 885.685 796.538 879.906C801.764 874.127 808.583 870.031 816.131 868.137C826.253 865.6 836.965 867.196 845.913 872.574C854.861 877.952 861.314 886.671 863.852 896.815Z" fill="white"/>
<path opacity="0.3" d="M861.512 897.46C863.271 904.562 862.892 912.026 860.422 918.912C857.952 925.797 853.502 931.794 847.634 936.146C841.765 940.497 834.742 943.008 827.451 943.36C820.16 943.713 812.929 941.892 806.669 938.127C800.41 934.362 795.405 928.822 792.285 922.207C789.165 915.592 788.07 908.199 789.139 900.961C790.208 893.723 793.394 886.964 798.292 881.54C803.191 876.115 809.583 872.268 816.662 870.483C821.374 869.295 826.274 869.051 831.08 869.764C835.887 870.478 840.506 872.135 844.672 874.641C848.838 877.147 852.47 880.453 855.36 884.369C858.25 888.284 860.34 892.733 861.512 897.46Z" fill="#4195C9"/>
<path opacity="0.2" d="M857.691 898.366C859.275 904.714 858.947 911.391 856.746 917.552C854.545 923.713 850.571 929.082 845.326 932.978C840.081 936.875 833.801 939.125 827.281 939.444C820.76 939.764 814.291 938.137 808.693 934.771C803.094 931.404 798.617 926.449 795.828 920.533C793.039 914.616 792.063 908.003 793.023 901.53C793.983 895.057 796.837 889.014 801.223 884.167C805.609 879.32 811.331 875.886 817.664 874.298C826.156 872.17 835.143 873.51 842.649 878.023C850.155 882.537 855.566 889.854 857.691 898.366Z" fill="white"/>
<path opacity="0.5" d="M828.419 889.776C840.273 889.958 850.842 893.54 858.004 899.072C858.003 898.831 857.903 898.577 857.846 898.323C855.935 890.672 851.371 883.953 844.972 879.365C838.572 874.778 830.754 872.622 822.914 873.282C815.074 873.942 807.724 877.377 802.178 882.97C796.633 888.564 793.252 895.953 792.642 903.816C799.2 895.275 812.796 889.538 828.419 889.776Z" fill="white"/>
<path d="M947.22 967.415C945.47 971.028 943.462 973.681 942.741 973.33C942.02 972.979 942.84 969.765 944.591 966.137C946.341 962.509 948.349 959.857 949.07 960.207C949.791 960.558 948.971 963.787 947.22 967.415Z" fill="#F8AF98"/>
<path d="M924.065 926.039L919.234 926.34L919.715 934.077L924.545 933.776L924.065 926.039Z" fill="#F8AF98"/>
<path d="M928.666 930.893L914.75 931.762L915.244 939.696L929.159 938.828L928.666 930.893Z" fill="#FBCDA6"/>
<path d="M915.185 921.83C914.888 925.268 917.016 928.259 919.952 928.517C922.888 928.775 925.489 926.205 925.801 922.766C925.799 922.271 926.65 916.029 926.606 915.577L924.51 913.52L920.27 911.951L916.689 912.644C915.781 913.532 915.241 914.731 915.177 916.002C915.058 918.025 915.226 921.476 915.185 921.83Z" fill="#F8AF98"/>
<path d="M914.984 913.287C914.58 912.735 914.388 912.056 914.446 911.374C914.503 910.693 914.804 910.055 915.294 909.579C915.632 909.309 916.703 908.824 919.26 909.564C921.817 910.304 921.784 909.074 923.338 909.69C924.66 910.312 925.793 911.274 926.62 912.479C927.448 913.684 927.941 915.088 928.049 916.548C927.891 918.489 927.341 920.377 926.433 922.099L925.764 924.308C925.646 924.699 925.411 925.045 925.092 925.298C924.773 925.552 924.384 925.703 923.977 925.729L922.453 925.82C921.864 925.991 921.238 925.994 920.647 925.827L920.237 925.588C919.5 925.002 918.996 924.171 918.817 923.245L918.527 921.138C918.673 920.585 918.78 920.022 918.845 919.454C918.844 919.157 918.291 918.494 918.009 918.608C917.728 918.722 917.704 920.024 917.296 920.195C917.175 920.206 917.053 920.186 916.942 920.137C916.83 920.088 916.733 920.011 916.66 919.915C916.447 919.136 916.405 918.321 916.538 917.524C916.537 917.369 916.155 917.116 916.169 916.96C916.264 916.139 916.755 915.26 916.471 914.795C916.187 914.329 915.481 914.232 914.984 913.287Z" fill="#00466E"/>
<path d="M886.645 942.774L883.863 942.133L883.252 941.117L882.245 939.862L879.121 938.389L878.587 938.999L880.271 940.152L880.06 940.38L876.821 938.341L876.633 941.057L879.028 943.566L880.399 944.212L882.885 944.782L885.555 945.607L886.645 942.774Z" fill="#F8AF98"/>
<path d="M893.917 947.57L893.775 947.33C892.992 945.749 893.849 944.501 895.678 943.079C899.899 939.725 904.341 935.168 909.367 931.938C911.971 930.259 913.894 931.298 914.647 932.625L914.761 932.809C915.955 935.138 914.859 936.5 913.368 937.652C908.076 941.618 898.253 948.572 898.253 948.572C897.909 948.814 897.519 948.981 897.107 949.061C896.695 949.142 896.271 949.135 895.862 949.04C895.453 948.946 895.068 948.766 894.733 948.513C894.398 948.259 894.12 947.938 893.917 947.57Z" fill="#85D2DA"/>
<path d="M883.424 945.615L884.483 941.919C888.148 942.725 891.866 943.264 895.609 943.532C898.065 943.679 899.606 944.479 899.387 946.22C899.168 947.947 897.89 949.592 895.051 948.91C890.714 947.879 883.424 945.615 883.424 945.615Z" fill="#85D2DA"/>
<path d="M918.873 930.77L918.267 930.773C918.267 930.773 913.751 930.79 912.284 930.908C908.687 931.29 907.218 934.648 907.398 937.547L910.783 955.924L911.084 960.888L911.388 970.463L910.878 973.634L911.859 975.639L911.938 977.817L935.927 977.727L935.922 976.312L936.565 974.612L935.333 958.406L934.88 946.752L935.591 936.96C935.456 934.881 934.751 931.404 931.715 930.666C929.524 930.384 927.317 930.256 925.109 930.28C924.078 930.548 923.033 930.76 921.979 930.914C920.942 930.925 919.905 930.876 918.873 930.77Z" fill="#85D2DA"/>
<path d="M897.445 1064.08L897.586 1064.08L897.588 1064.78L900.975 1064.77L900.873 1063.82L900.774 1063.82L900.761 1060.37L897.247 1060.38L897.179 1060.84L895.56 1062.03L890.429 1063.47C890.429 1063.47 890.02 1063.65 890.035 1063.86L890.038 1064.53C890.038 1064.53 890.109 1064.63 890.518 1064.75L896.417 1064.73L896.768 1064.25L897.106 1064.03L897.445 1064.08Z" fill="#222F44"/>
<path d="M930.169 1063.95L930.31 1063.95L930.313 1064.66L933.7 1064.65L933.597 1063.7L933.499 1063.7L932.709 1060.25L929.196 1060.26L929.113 1060.72L928.256 1061.91L923.139 1063.34C923.139 1063.34 922.731 1063.53 922.731 1063.74L922.734 1064.41C922.734 1064.41 922.734 1064.5 923.215 1064.63L929.113 1064.61L929.464 1064.13L929.802 1063.91L930.169 1063.95Z" fill="#222F44"/>
<path d="M936.164 976.948L911.622 976.46L911.66 978.921L910.374 986.126L902.688 1024.87L896.302 1060.39L901.95 1061.3L911.148 1026.72L921.492 992.959L921.941 992.208L925.215 1026.15L928.236 1060.38L933.713 1060.66L933.877 1025.38L936.692 989.79L937.658 983.789L936.176 979.947L936.164 976.948Z" fill="#435D88"/>
<path d="M694.183 767.848C693.103 767.715 692.007 767.811 690.966 768.129C689.944 768.35 688.998 768.838 688.225 769.544C687.452 770.25 686.879 771.149 686.564 772.149C685.646 775.519 687.396 775.724 688.598 776.385C689.8 777.045 686.485 781.188 689.397 782.365C692.308 783.543 688.57 783.783 689.791 785.83C691.012 787.876 692.807 788.563 695.81 787.745C698.812 786.927 700.514 785.365 702.518 785.315C704.521 785.265 707.575 786.711 709.287 784.229C709.776 783.371 709.983 782.38 709.878 781.398C709.773 780.415 709.362 779.491 708.702 778.757C705.871 776.306 703.483 779.427 701.851 773.237C701.007 770.029 698.142 769.983 697.321 769.406C696.501 768.83 697.472 768.288 694.183 767.848Z" fill="#26354D"/>
<path d="M672.244 806.746L673.33 806.657L674.46 806.894L680.117 810.225L682.28 807.473L676.707 804.07L674.586 802.777L672.69 801.525L670.067 801.874L668.899 802.982C668.442 803.218 668.012 803.504 667.618 803.836C667.619 803.991 667.987 804.202 667.987 804.202L669.763 803.658L670.697 804.461L670.882 804.757L670.995 804.926L672.244 806.746Z" fill="#F8AF98"/>
<path d="M667.16 805.775L677.465 802.907C677.465 802.907 677.606 802.765 677.606 802.737C677.628 802.552 677.61 802.364 677.553 802.186C677.497 802.008 677.403 801.844 677.277 801.706L677.108 801.706L666.817 804.574L667.16 805.775Z" fill="#00466E"/>
<path d="M665.424 805.627C665.423 805.526 665.393 805.428 665.338 805.344C665.338 805.344 664.845 805.459 664.873 805.586C664.902 805.713 665.424 805.627 665.424 805.627Z" fill="#00466E"/>
<path d="M665.424 805.655L667.231 805.775L666.887 804.503L665.338 805.316C665.392 805.421 665.421 805.537 665.424 805.655Z" fill="#FCCA85"/>
<path d="M666.831 804.504C666.944 804.503 667.101 804.729 667.201 805.082C667.301 805.435 667.288 805.733 667.204 805.761C667.119 805.79 666.92 805.536 666.834 805.183C666.747 804.829 666.704 804.532 666.831 804.504Z" fill="#FCCA85"/>
<path d="M669.966 805.058C669.966 805.058 669.499 804.72 669.329 804.636C669.213 804.586 669.088 804.558 668.962 804.552C668.835 804.553 668.482 804.554 668.454 804.724C668.456 805.247 669.871 806.218 669.871 806.218L671.567 806.806L672.315 806.803L671.363 805.067L669.966 805.058Z" fill="#F8AF98"/>
<path d="M688.129 816.702L687.846 816.703C686.165 816.172 685.525 814.732 685.756 812.383C686.286 806.949 687.277 796.59 688.497 790.659C689.12 787.572 690.883 787.255 692.576 787.22L692.901 787.219C695.145 787.465 696.356 790.53 695.637 794.281C694.405 800.652 691.888 814.34 691.888 814.34C691.813 814.752 691.653 815.143 691.419 815.489C691.185 815.836 690.881 816.129 690.527 816.351C690.174 816.574 689.778 816.72 689.365 816.78C688.952 816.84 688.531 816.814 688.129 816.702Z" fill="#4195C9"/>
<path d="M676.173 808.26L678.091 804.32C678.091 804.32 684.754 808.539 689.18 811.04C691.344 812.262 692.012 813.731 691.186 815.276C690.331 816.821 688.767 817.619 686.305 815.775L676.173 808.26Z" fill="#4195C9"/>
<path d="M670.525 848.823L674.089 858.287L672.792 858.829L668.749 860.655L668.753 861.617L677.403 861.627L678.077 860.733L678.171 859.304L675.109 848.24L670.525 848.823Z" fill="#FCCA85"/>
<path d="M671.96 858.818L672.763 858.433L672.698 860.145L677.084 859.181L678.535 858.511L678.425 859.416L678.77 861.127L678.307 861.921L675.823 861.831L672.281 861.844L666.284 861.867L666.013 861.203L671.96 858.818Z" fill="#3D95D1"/>
<path d="M712.78 861.31L723.587 860.676L727.594 860.519L731.884 860.404L735.554 860.786L735.665 860.192L727.31 856.092L724.325 854.321L723.41 854.749L722.981 857.184L713.567 856.568L712.78 861.31Z" fill="#FCCA85"/>
<path d="M728.639 860.657L727.736 860.688L728.478 859.144L724.068 857.038L722.812 857.071L723.048 856.222L723.268 854.58L724.098 853.969L726.234 855.149L729.811 857.144L735.975 860.191L735.964 860.912L731.856 860.531L728.639 860.657Z" fill="#3D95D1"/>
<path d="M695.567 779.513L691.876 781.097L696.275 791.464L699.967 789.894L695.567 779.513Z" fill="#F8AF98"/>
<path d="M688.128 778.862C688.138 779.511 688.288 780.15 688.568 780.734C688.848 781.319 689.251 781.836 689.75 782.25C690.249 782.663 690.832 782.963 691.457 783.129C692.083 783.295 692.737 783.323 693.375 783.21C694.012 783.098 694.618 782.848 695.149 782.479C695.681 782.109 696.127 781.628 696.455 781.069C696.784 780.51 696.987 779.886 697.052 779.241C697.116 778.595 697.04 777.943 696.829 777.33C696.828 777.089 696.247 772.622 696.015 770.996C695.935 770.451 695.647 769.959 695.21 769.625C694.774 769.291 694.225 769.141 693.68 769.208L689.66 769.676C689.005 769.99 688.452 770.483 688.062 771.097C687.673 771.711 687.463 772.422 687.457 773.15C687.605 775.045 688.084 778.593 688.128 778.862Z" fill="#F8AF98"/>
<path d="M723.9 838.89C724.305 838.214 724.598 837.478 724.767 836.708L724.85 836.297C725.002 835.596 725.043 834.875 724.969 834.161L724.968 833.751C724.919 833.296 724.827 832.846 724.694 832.408L723.466 828.438L722.607 825.159L710.661 826.944L701.464 828.011L701.663 835.918L678.683 852.88C676.557 854.147 675 856.77 676.095 859.001L676.251 859.297C677.389 861.641 679.704 861.915 682.057 860.775L718.385 843.366C718.85 843.147 719.293 842.885 719.709 842.583L722.003 840.948C722.774 840.404 723.42 839.703 723.9 838.89Z" fill="#F47954"/>
<path d="M715.54 856.08L680.35 853.383C679.241 853.285 678.139 853.627 677.28 854.337C676.422 855.047 675.877 856.068 675.764 857.177C675.687 857.779 675.74 858.391 675.92 858.971C676.099 859.55 676.4 860.085 676.803 860.538C677.206 860.991 677.702 861.352 678.256 861.597C678.81 861.841 679.41 861.964 680.015 861.957L715.293 861.74L715.54 856.08Z" fill="#F47954"/>
<path d="M721.678 840.879L722.466 840.225C722.873 839.878 723.237 839.482 723.548 839.047C724.26 838.053 724.686 836.881 724.778 835.661C724.818 835.031 724.773 834.398 724.643 833.78L723.71 829.427L722.467 825.414L718.629 825.627L700.372 826.374L700.379 828.256L667.897 821.602C665.454 821.158 662.579 822.117 661.953 824.453L661.883 824.779C661.215 827.313 662.788 829.019 665.303 829.717L706.583 841.954L717.14 842.409C718.79 842.485 720.409 841.939 721.678 840.879Z" fill="#F47954"/>
<path d="M677.051 854.4L670.181 824.861C669.946 823.77 669.291 822.815 668.359 822.205C667.427 821.594 666.293 821.376 665.201 821.598C664.603 821.704 664.034 821.938 663.534 822.284C663.034 822.63 662.614 823.08 662.302 823.603C661.991 824.126 661.796 824.71 661.73 825.316C661.664 825.922 661.729 826.534 661.92 827.113L671.774 854.42L677.051 854.4Z" fill="#F47954"/>
<path d="M694.687 812.052C694.687 812.052 690.202 805.208 689.569 801.829C688.935 798.451 687.521 790.195 689.518 788.235C690.164 787.63 690.947 787.191 691.799 786.954L694.068 786.238L694.594 787.24C694.668 787.437 694.781 787.617 694.926 787.769C695.071 787.921 695.245 788.042 695.438 788.124C695.63 788.207 695.838 788.249 696.048 788.249C696.257 788.249 696.465 788.206 696.658 788.124L696.911 788.052C697.364 787.93 697.753 787.638 697.999 787.238C698.244 786.837 698.327 786.357 698.23 785.897L697.931 785.106C700.019 784.603 702.14 784.241 704.277 784.021C708.03 784.007 709.523 786.831 710.054 789.332L712.414 797.811C712.414 797.811 714.705 806.431 715.703 809.299C716.702 812.167 718.31 815.797 718.31 815.797L724.084 823.795L722.894 826.375L700.321 827.874L699.189 827.043C699.232 824.506 699.052 821.969 698.652 819.463C697.505 816.903 696.18 814.426 694.687 812.052Z" fill="#4195C9"/>
<path d="M684.347 824.171L666.665 824.238L654.772 806.43L672.454 806.364L684.347 824.171Z" fill="#85D2DA"/>
<path d="M677.563 813.997L678.141 813.939L677.902 814.208L676.31 814.681L673.574 815.13L674.013 815.637L674.437 815.749L676.237 817.949L678.89 817.868L681.709 817.094L693.67 815.38L694.402 811.232L682.162 813.711L680.623 813.392L678.871 812.804L676.981 813.122L677.563 813.997Z" fill="#F8AF98"/>
<path d="M701.032 814.192L700.763 814.122C699.082 813.577 698.441 812.122 698.701 809.773C699.273 804.353 700.349 794.009 701.583 788.077C702.22 784.991 703.997 784.701 705.691 784.681L706.015 784.679C708.26 784.954 709.443 788.019 708.695 791.742C707.406 798.113 704.79 811.773 704.79 811.773C704.72 812.189 704.564 812.585 704.332 812.937C704.101 813.288 703.798 813.588 703.444 813.815C703.09 814.043 702.693 814.194 702.278 814.259C701.862 814.324 701.438 814.301 701.032 814.192Z" fill="#4195C9"/>
<path d="M688.791 816.459L687.364 812.32C687.364 812.32 695.049 810.579 699.94 809.189C702.323 808.529 703.863 809.047 704.349 810.756C704.835 812.452 704.362 814.123 701.245 814.573L688.791 816.459Z" fill="#4195C9"/>
<path d="M692.54 773.767C692.54 773.767 688.147 772.624 688.843 770.089C689.65 767.158 696.349 766.1 698.067 768.909C699.217 770.786 702.3 768.61 703.507 774.547C704.426 778.787 706.123 775.768 709.393 778.471C712.662 781.175 711.803 788.93 707.865 788.874C705.297 788.884 705.558 787.1 702.842 785.371C700.126 783.641 696.259 787.192 696.279 781.251C696.268 778.266 695.026 778.214 695.248 777.138C695.968 773.542 694.613 773.477 694.181 774.935C693.818 776.097 692.54 773.767 692.54 773.767Z" fill="#26354D"/>
<path d="M704.16 813.063C703.974 813.343 703.735 813.584 703.457 813.773L703.204 813.958L702.964 814.072L702.669 814.2C702.216 814.384 701.743 814.509 701.259 814.573L696.605 815.284L697.457 816.907C697.457 816.907 700.391 816.401 702.59 815.757C703.518 815.466 704.359 814.947 705.036 814.248C705.714 813.549 706.206 812.691 706.47 811.753C706.634 810.55 708.709 791.728 708.709 791.728C707.42 798.099 704.804 811.759 704.804 811.759C704.662 812.226 704.444 812.667 704.16 813.063Z" fill="#317097"/>
<path d="M298.964 980.02L251.916 980.196C248.588 980.209 245.901 982.923 245.913 986.259L246.046 1021.59C246.059 1024.93 248.766 1027.62 252.094 1027.61L299.142 1027.44C302.47 1027.42 305.157 1024.71 305.145 1021.37L305.012 986.037C305 982.701 302.292 980.007 298.964 980.02Z" fill="#4195C9"/>
<g opacity="0.4">
<path d="M298.964 980.02L275.44 980.108C277.038 980.102 278.573 980.733 279.708 981.861C280.842 982.99 281.482 984.524 281.488 986.126L281.621 1021.49C281.627 1023.09 280.998 1024.63 279.872 1025.77C278.747 1026.9 277.216 1027.55 275.618 1027.55L299.142 1027.46C299.933 1027.46 300.716 1027.3 301.446 1027C302.176 1026.69 302.839 1026.24 303.396 1025.68C303.954 1025.12 304.395 1024.45 304.695 1023.71C304.995 1022.98 305.148 1022.19 305.145 1021.4L305.012 986.037C305.009 985.244 304.85 984.459 304.545 983.728C304.239 982.996 303.793 982.332 303.231 981.773C302.67 981.214 302.004 980.772 301.272 980.471C300.539 980.17 299.755 980.017 298.964 980.02Z" fill="#317097"/>
</g>
<path d="M333.65 1025.01L333.495 1025.02L333.498 1025.79L329.786 1025.81L329.881 1024.77L330.008 1024.77L330.163 1020.98L333.903 1020.97L333.905 1021.48L335.688 1022.8L341.339 1024.43C341.339 1024.43 341.791 1024.63 341.778 1024.88L341.781 1025.59C341.781 1025.59 341.781 1025.72 341.245 1025.85L334.782 1025.87L334.385 1025.35L334.003 1025.1L333.65 1025.01Z" fill="#26354D"/>
<path d="M324.276 971.282L288.224 968.588L287.435 980.077L323.089 982.207L329.207 1021.79L334.412 1021.26L332.025 983.078C331.934 981.268 331.602 971.891 324.276 971.282Z" fill="#324666"/>
<path d="M321.124 1026.5L320.969 1026.51L320.972 1027.3L317.261 1027.31L317.37 1026.28L317.483 1026.28L317.68 1022.43L321.405 1022.42L321.407 1022.91L323.19 1024.23L328.841 1025.88C328.841 1025.88 329.293 1026.08 329.28 1026.32L329.283 1027.04C329.283 1027.04 329.283 1027.15 328.748 1027.28L322.284 1027.31L321.887 1026.78L321.52 1026.55L321.124 1026.5Z" fill="#26354D"/>
<path d="M322.097 1022.55L317.004 1022.88L309.359 982.386L272.971 980.146L269.935 976.069L271.591 969.839L272.114 966.215L291.715 966.142L291.33 968.972L313.837 972.453C318.075 973.483 320.082 978.087 319.964 984.383L322.097 1022.55Z" fill="#435D88"/>
<path d="M314.545 961.671L318.292 963.623L322.709 963.706L326.133 965.998L326.892 968.994L325.523 969.127L324.092 967.52L320.749 967.928L318.22 967.004L313.189 965.099L314.545 961.671Z" fill="#FBCDA6"/>
<path d="M303.441 962.349L303.752 962.348C305.642 962.015 306.099 959.92 306.189 957.359C306.406 951.446 306.832 940.665 306.595 934.102C306.453 930.085 304.053 929.868 303.08 929.872L302.586 929.873C300.144 929.883 299.185 933.663 299.412 937.765C299.82 944.836 299.775 959.152 299.775 959.152C299.785 959.61 299.891 960.061 300.086 960.476C300.28 960.891 300.559 961.261 300.904 961.562C301.249 961.863 301.653 962.088 302.09 962.224C302.527 962.359 302.987 962.402 303.441 962.349Z" fill="#F47954"/>
<path d="M314.844 966.196L317.244 962.792C317.244 962.792 312.268 960.406 305.822 957.46C303.362 956.337 301.019 956.162 300.334 957.947C299.636 959.746 300.011 961.994 303.175 962.817C307.837 964.087 314.844 966.196 314.844 966.196Z" fill="#F47954"/>
<path d="M297.519 922.442L294.577 931.85L299.64 933.441L302.582 924.033L297.519 922.442Z" fill="#F8AF98"/>
<path d="M308.176 919.187C308.19 922.992 305.478 926.029 302.247 925.999C299.015 925.968 296.435 922.852 296.477 919.061C296.475 918.523 296.28 911.607 296.447 911.111L298.909 909.107L303.731 907.844L307.573 908.99C308.44 910.076 308.877 911.444 308.801 912.833C308.81 915.096 308.175 918.805 308.176 919.187Z" fill="#F8AF98"/>
<path d="M308.288 918.804C306.957 919.254 305.581 919.553 304.185 919.697C302.934 919.598 301.692 919.404 300.471 919.117C300.144 919.035 299.849 918.858 299.624 918.606C299.399 918.355 299.255 918.041 299.21 917.707L298.932 915.275L298.298 915.348L297.507 919L296.867 921.308C297.077 922.051 297.384 922.763 297.778 923.427C298.403 924.519 299.413 925.338 300.609 925.722C301.43 925.929 302.275 926.026 303.122 926.01C303.945 925.895 304.736 925.613 305.447 925.18C308.179 923.586 308.295 920.629 308.288 918.804Z" fill="#004E72"/>
<path d="M296.124 918.949L296.507 919.372C296.507 919.372 296.589 918.777 296.784 917.956C296.894 917.447 296.387 913.898 297.601 913.964C298.095 913.962 298.242 915.504 298.242 915.504L298.962 915.685C298.841 914.788 298.838 913.88 298.952 912.983C299.3 911.666 299.749 911.113 300.359 911.747C301.336 912.734 303.634 912.258 305.368 911.728C307.102 911.198 308.092 911.831 309.397 909.874C310.702 907.917 310.118 906.476 309.382 905.8C309.056 905.462 307.967 904.801 305.048 905.378C302.129 905.955 302.336 904.582 300.588 905.083C299.073 905.616 297.728 906.543 296.691 907.771C295.654 908.998 294.962 910.481 294.687 912.065C294.692 914.434 295.181 916.777 296.124 918.949Z" fill="#004E72"/>
<path d="M306.465 921.895C306.466 922.319 305.734 922.704 304.775 922.75C303.815 922.796 303.024 922.488 302.994 922.078C302.964 921.667 303.739 921.269 304.698 921.222C305.658 921.176 306.449 921.471 306.465 921.895Z" fill="#F8AF98"/>
<path d="M293.873 965.964L291.68 967.995L271.488 968.622L270.428 964.383L272.642 960.244L276.311 949.027L281.049 936.645L284.872 928.879C286.398 925.733 288.403 925.966 291.31 925.955C292.917 926.02 294.505 926.338 296.013 926.899C295.973 927.763 296.071 928.627 296.305 929.459C297.269 930.87 299.136 931.754 300.345 930.632C300.732 930.045 300.994 929.384 301.114 928.691L301.552 928.986C301.552 928.986 303.46 929.545 304.675 929.965C306.554 930.623 306.989 933.676 305.772 936.637C303.465 942.177 302.901 942.307 300.014 947.778C297.982 951.619 294.622 962.425 294.622 962.425L293.873 965.964Z" fill="#F47954"/>
<path d="M302.183 961.717L305.93 963.669L310.347 963.752L313.785 966.045L314.53 969.041L313.162 969.173L311.745 967.566L308.402 967.975L305.858 967.051L300.827 965.146L302.183 961.717Z" fill="#F8AF98"/>
<path d="M286.651 959.314L286.962 959.313C288.881 959.193 289.934 957.887 290.291 955.297C291.144 949.438 292.4 938.102 292.883 931.551C293.179 927.532 290.325 926.793 289.352 926.783L288.858 926.785C286.429 926.454 284.846 929.629 284.65 933.69C284.296 940.764 283.322 955.804 283.322 955.804C283.29 956.259 283.353 956.715 283.507 957.144C283.661 957.572 283.902 957.964 284.215 958.294C284.529 958.625 284.907 958.886 285.326 959.061C285.746 959.237 286.197 959.323 286.651 959.314Z" fill="#F47954"/>
<path d="M301.225 965.936L303.709 962.305C299.029 959.153 294.134 956.335 289.058 953.873C286.585 952.821 284.92 952.87 284.037 954.585C283.154 956.286 283.29 958.563 286.272 959.726C290.837 961.533 301.225 965.936 301.225 965.936Z" fill="#F47954"/>
<path opacity="0.5" d="M290.401 954.519C291.253 948.475 292.413 937.819 292.883 931.551C293.179 927.532 290.325 926.793 289.351 926.783L288.858 926.785C286.429 926.454 284.846 929.629 284.65 933.69C284.296 940.764 283.322 955.804 283.322 955.804C283.34 956.343 283.452 956.874 283.652 957.373C283.858 957.956 284.199 958.48 284.647 958.904C285.096 959.328 285.638 959.639 286.23 959.811C290.795 961.59 301.183 965.993 301.183 965.993L303.667 962.362C299.403 959.488 294.973 956.869 290.401 954.519Z" fill="#F69476"/>
<path d="M334.645 970.465L308.426 970.563L314.6 953.862C314.725 953.523 314.949 953.231 315.243 953.022C315.537 952.814 315.887 952.7 316.247 952.696L339.376 952.609C339.579 952.609 339.78 952.659 339.961 952.754C340.142 952.848 340.297 952.985 340.414 953.152C340.531 953.32 340.606 953.513 340.633 953.715C340.659 953.918 340.637 954.124 340.567 954.316L334.645 970.465Z" fill="#F2F2F2"/>
<path d="M294.68 970.445L334.644 970.295L334.648 971.328C334.649 971.556 334.559 971.776 334.398 971.939C334.237 972.101 334.019 972.193 333.79 972.194L295.76 972.337C295.476 972.338 295.202 972.225 295 972.025C294.799 971.824 294.685 971.551 294.684 971.266L294.68 970.459L294.68 970.445Z" fill="#E6E6E6"/>
<defs>
<linearGradient id="paint0_linear_2437_13602" x1="-9.14494" y1="395.101" x2="845.515" y2="395.101" gradientUnits="userSpaceOnUse">
<stop stop-color="#031555"/>
<stop offset="1" stop-color="#D45147" stop-opacity="0"/>
</linearGradient>
<linearGradient id="paint1_linear_2437_13602" x1="35.9871" y1="438.782" x2="838.892" y2="438.782" gradientUnits="userSpaceOnUse">
<stop stop-color="#031555"/>
<stop offset="1" stop-color="#D45147" stop-opacity="0"/>
</linearGradient>
<linearGradient id="paint2_linear_2437_13602" x1="126.252" y1="526.144" x2="827.145" y2="526.144" gradientUnits="userSpaceOnUse">
<stop stop-color="#031555"/>
<stop offset="1" stop-color="#D45147" stop-opacity="0"/>
</linearGradient>
<linearGradient id="paint3_linear_2437_13602" x1="171.385" y1="569.825" x2="820.022" y2="569.825" gradientUnits="userSpaceOnUse">
<stop stop-color="#031555"/>
<stop offset="1" stop-color="#D45147" stop-opacity="0"/>
</linearGradient>
<linearGradient id="paint4_linear_2437_13602" x1="81.1197" y1="482.462" x2="819.267" y2="479.863" gradientUnits="userSpaceOnUse">
<stop stop-color="#031555"/>
<stop offset="1" stop-color="#D45147" stop-opacity="0"/>
</linearGradient>
<linearGradient id="paint5_linear_2437_13602" x1="216.517" y1="613.506" x2="825.898" y2="613.506" gradientUnits="userSpaceOnUse">
<stop stop-color="#031555"/>
<stop offset="1" stop-color="#D45147" stop-opacity="0"/>
</linearGradient>
<linearGradient id="paint6_linear_2437_13602" x1="261.649" y1="657.187" x2="852.003" y2="656" gradientUnits="userSpaceOnUse">
<stop stop-color="#031555"/>
<stop offset="1" stop-color="#D45147" stop-opacity="0"/>
</linearGradient>
<linearGradient id="paint7_linear_2437_13602" x1="306.782" y1="700.868" x2="823.341" y2="699.829" gradientUnits="userSpaceOnUse">
<stop stop-color="#031555"/>
<stop offset="1" stop-color="#D45147" stop-opacity="0"/>
</linearGradient>
</defs>
</svg>
