<svg width="101" height="100" viewBox="0 0 101 100" fill="none" xmlns="http://www.w3.org/2000/svg">
<g clip-path="url(#clip0_34_3759)">
<path opacity="0.989" fill-rule="evenodd" clip-rule="evenodd" d="M40.8324 -0.0974121C43.3714 -0.0974121 45.9105 -0.0974121 48.4495 -0.0974121C63.8185 2.01871 74.5281 10.2058 80.5785 24.464C82.0257 28.5669 82.872 32.7905 83.1175 37.1346C86.7634 42.5926 90.4091 48.0507 94.055 53.5088C95.0253 55.0457 94.9277 56.5077 93.762 57.8948C90.2769 59.7314 86.7613 61.5184 83.2152 63.2554C83.1005 67.2236 82.9378 71.1872 82.7269 75.1463C81.763 78.7724 79.4519 81.0141 75.7933 81.8714C70.39 81.9689 64.9865 82.0014 59.5824 81.9689C59.615 87.0375 59.5824 92.1057 59.4847 97.1735C59.2974 98.3971 58.6788 99.3069 57.6292 99.9026C45.1292 99.9026 32.6292 99.9026 20.1292 99.9026C19.1254 99.4505 18.5069 98.6708 18.2738 97.5634C18.2087 86.8422 18.1435 76.1209 18.0784 65.3997C8.30064 55.4178 4.71991 43.527 7.33626 29.7271C9.72413 19.5926 15.2254 11.6328 23.8402 5.84801C29.064 2.56179 34.7281 0.579989 40.8324 -0.0974121ZM43.9574 17.6414C45.3284 17.4359 46.4027 17.8907 47.18 19.0059C47.3988 20.5932 47.5615 22.1852 47.6683 23.7817C49.362 24.1283 50.9245 24.778 52.3558 25.731C52.6161 25.8611 52.8767 25.8611 53.137 25.731C54.0988 24.1511 55.466 23.1441 57.2386 22.7096C59.7513 23.3098 60.5001 24.8041 59.4847 27.193C58.6384 28.0377 57.7919 28.8825 56.9456 29.7271C57.2783 30.7847 57.7339 31.8242 58.3128 32.8461C58.5607 33.5558 58.7886 34.2706 58.9964 34.9903C60.3589 35.1523 61.7261 35.2498 63.098 35.2827C65.0306 36.1463 65.5839 37.5433 64.7581 39.4737C64.3923 39.9043 63.9691 40.2617 63.4886 40.5459C62.0015 40.7537 60.5042 40.916 58.9964 41.0332C58.6431 42.3835 58.1548 43.6831 57.5316 44.9318C56.4724 46.4611 55.3658 47.9554 54.2113 49.4153C54.0159 49.87 53.8206 50.325 53.6253 50.7798C53.5603 52.4041 53.495 54.0287 53.43 55.6531C53.2659 56.9227 52.5824 57.7999 51.3792 58.2847C46.9521 58.4147 42.5251 58.4147 38.098 58.2847C36.9843 57.8236 36.3007 57.0116 36.0472 55.848C35.9822 54.3535 35.9169 52.8591 35.8519 51.3646C35.7216 50.9747 35.5915 50.5848 35.4613 50.195C34.3659 48.3876 33.1941 46.6332 31.9456 44.9318C31.3224 43.6831 30.8341 42.3835 30.4808 41.0332C28.973 40.916 27.4757 40.7537 25.9886 40.5459C23.7251 38.9351 23.6601 37.2457 25.7933 35.4776C27.3392 35.2045 28.9017 35.1071 30.4808 35.1852C30.8175 33.2782 31.5337 31.5238 32.6292 29.9221C31.7859 28.9827 30.907 28.0732 29.9925 27.193C29.0847 25.4607 29.4427 24.0638 31.0667 23.002C32.0081 22.5952 32.9197 22.6601 33.8011 23.1969C34.745 24.139 35.6892 25.0813 36.6331 26.0234C38.2048 24.9792 39.8976 24.1995 41.7113 23.6843C41.7501 22.2447 41.8802 20.8153 42.1019 19.3958C42.4673 18.5198 43.0859 17.935 43.9574 17.6414ZM38.2933 64.425C42.5908 64.3925 46.8876 64.425 51.1839 64.5225C52.9628 65.1811 53.6464 66.4482 53.2347 68.3236C52.8007 69.0815 52.1824 69.6338 51.3792 69.9806C46.9521 70.1106 42.5251 70.1106 38.098 69.9806C36.1681 69.134 35.6148 67.7369 36.4378 65.7895C36.9318 65.1297 37.5503 64.6749 38.2933 64.425Z" fill="black"/>
<path opacity="0.975" fill-rule="evenodd" clip-rule="evenodd" d="M43.1756 29.1424C49.4563 28.8609 52.9719 31.8172 53.7225 38.0118C53.569 39.9552 52.9506 41.742 51.867 43.3724C49.2508 45.9317 47.8512 49.0506 47.6678 52.7291C45.6497 52.7291 43.6313 52.7291 41.6131 52.7291C41.619 50.2453 40.9354 47.971 39.5624 45.9065C38.5379 44.5763 37.5614 43.2118 36.6327 41.8129C34.8659 37.0042 36.0704 33.1381 40.2459 30.2145C41.2096 29.7539 42.1862 29.3966 43.1756 29.1424Z" fill="black"/>
</g>
<defs>
<clipPath id="clip0_34_3759">
<rect width="100" height="100" fill="white" transform="translate(0.5)"/>
</clipPath>
</defs>
</svg>
