<svg width="1261" height="90" viewBox="0 0 1261 90" fill="none" xmlns="http://www.w3.org/2000/svg">
<path opacity="0.55" fill-rule="evenodd" clip-rule="evenodd" d="M1191.82 43.9275C1210.55 61.662 1229.13 79.2377 1260.01 85.1639V87.1991C1228.31 81.2301 1209.31 63.2424 1190.48 45.4083L1190.45 45.3798C1167.43 23.5916 1144.65 2.04297 1099.01 2.04297C1053.37 2.04297 1030.59 23.5916 1007.58 45.3798L1007.55 45.4083C984.508 67.2215 961.226 89.2644 914.767 89.2644C914.743 89.2644 914.719 89.2636 914.696 89.2619C914.665 89.2649 914.634 89.2663 914.602 89.2663C868.519 89.2663 845.424 67.2188 822.574 45.4062L822.546 45.379C799.721 23.5897 777.133 2.04492 731.882 2.04492C686.631 2.04492 664.042 23.5897 641.217 45.379L641.189 45.4062C618.339 67.2189 595.244 89.2663 549.161 89.2663C503.08 89.2663 479.988 67.2205 457.142 45.4087L457.11 45.3789C434.287 23.5898 411.699 2.04492 366.441 2.04492C321.182 2.04492 298.594 23.5898 275.771 45.3789L275.74 45.4087C252.893 67.2205 229.801 89.2663 183.72 89.2663C137.64 89.2663 114.548 67.2206 91.7009 45.4087L91.6697 45.3789C68.8466 23.5898 46.2584 2.04492 1 2.04492C0.447715 2.04492 0 1.59721 0 1.04492C0 0.492637 0.447715 0.0449219 1 0.0449219C47.0808 0.0449219 70.1727 22.0907 93.0195 43.9025L93.0507 43.9323C115.874 65.7215 138.462 87.2663 183.72 87.2663C228.979 87.2663 251.567 65.7215 274.39 43.9323L274.421 43.9026C297.268 22.0907 320.36 0.0449219 366.441 0.0449219C412.522 0.0449219 435.614 22.0907 458.46 43.9026L458.492 43.9323C481.315 65.7215 503.903 87.2663 549.161 87.2663C594.42 87.2663 617.012 65.7215 639.836 43.9323L639.871 43.8997C662.718 22.0888 685.81 0.0449219 731.882 0.0449219C777.953 0.0449219 801.045 22.0889 823.893 43.8998L823.927 43.9323C846.752 65.7215 869.344 87.2663 914.602 87.2663C914.626 87.2663 914.649 87.2672 914.672 87.2688C914.703 87.2659 914.735 87.2644 914.767 87.2644C960.409 87.2644 983.189 65.7158 1006.2 43.9275L1006.23 43.899C1029.27 22.0859 1052.55 0.0429688 1099.01 0.0429688C1145.47 0.0429688 1168.75 22.0859 1191.79 43.8991L1191.82 43.9275Z" fill="#D45147"/>
</svg>
