<svg width="1261" height="90" viewBox="0 0 1261 90" fill="none" xmlns="http://www.w3.org/2000/svg">
<path opacity="0.55" fill-rule="evenodd" clip-rule="evenodd" d="M1260.01 85.1639C1229.13 79.2377 1210.55 61.662 1191.82 43.9275L1191.79 43.8991C1168.75 22.0859 1145.47 0.0429688 1099.01 0.0429688C1052.55 0.0429688 1029.27 22.0859 1006.23 43.899L1006.2 43.9275C984.766 64.2217 963.534 84.308 923.84 86.9673L923.84 38.9995C923.84 38.4472 923.392 37.9995 922.84 37.9995C922.288 37.9995 921.84 38.4472 921.84 38.9995L921.84 87.0856C919.544 87.2037 917.187 87.2644 914.766 87.2644C914.734 87.2644 914.703 87.2659 914.672 87.2687C914.649 87.2671 914.625 87.2663 914.602 87.2663C869.344 87.2663 846.752 65.7215 823.927 43.9323L823.893 43.8998L823.893 43.8997C801.045 22.0889 777.953 0.0449219 731.882 0.0449219C685.81 0.0449219 662.718 22.0888 639.871 43.8997L639.836 43.9323C617.986 64.7915 596.348 85.4268 554.834 87.1503V36.9998C554.834 36.4475 554.386 35.9998 553.834 35.9998C553.282 35.9998 552.834 36.4475 552.834 36.9998V87.2182C551.626 87.2501 550.402 87.2663 549.161 87.2663C503.903 87.2663 481.315 65.7215 458.492 43.9323L458.46 43.9026C435.614 22.0907 412.522 0.0449219 366.441 0.0449219C320.36 0.0449219 297.268 22.0907 274.421 43.9026L274.39 43.9323C251.651 65.6411 229.146 87.1073 184.221 87.2655V36.9995C184.221 36.4472 183.773 35.9995 183.221 35.9995C182.668 35.9995 182.221 36.4472 182.221 36.9995V87.2584C137.96 86.7877 115.62 65.4795 93.0507 43.9323L93.0195 43.9025C70.1727 22.0907 47.0808 0.0449219 1 0.0449219C0.447693 0.0449219 0 0.492637 0 1.04492C0 1.59721 0.447693 2.04492 1 2.04492C46.2584 2.04492 68.8466 23.5898 91.6697 45.3789L91.7009 45.4087C114.548 67.2206 137.64 89.2663 183.72 89.2663C229.801 89.2663 252.893 67.2205 275.74 45.4087L275.771 45.3789C298.438 23.7387 320.873 2.33955 365.516 2.04794V54.8628C365.516 55.4151 365.963 55.8628 366.516 55.8628C367.068 55.8628 367.516 55.4151 367.516 54.8628V2.04899C412.058 2.38741 434.469 23.7629 457.11 45.3789L457.142 45.4087C479.988 67.2205 503.08 89.2663 549.161 89.2663C595.244 89.2663 618.339 67.2189 641.189 45.4062L641.217 45.379C664.042 23.5897 686.631 2.04492 731.882 2.04492C732.125 2.04492 732.367 2.04554 732.609 2.04679L731.964 49.9039C731.956 50.4561 732.398 50.9099 732.95 50.9174C733.502 50.925 733.956 50.4834 733.964 49.9312L734.609 2.07137C778.05 2.91967 800.184 24.032 822.546 45.379L822.574 45.4062C845.424 67.2189 868.519 89.2663 914.602 89.2663C914.634 89.2663 914.665 89.2649 914.696 89.262C914.719 89.2636 914.742 89.2644 914.766 89.2644C961.225 89.2644 984.507 67.2215 1007.55 45.4083L1007.58 45.3798C1030.59 23.5916 1053.37 2.04297 1099.01 2.04297C1099.52 2.04297 1100.02 2.04564 1100.53 2.05096V66.3621C1100.53 66.9143 1100.98 67.3621 1101.53 67.3621C1102.08 67.3621 1102.53 66.9143 1102.53 66.3621V2.08635C1145.84 3.16442 1168.03 24.1585 1190.45 45.3798L1190.48 45.4083C1209.31 63.2424 1228.31 81.2301 1260.01 87.1991V85.1639Z" fill="#D45147"/>
</svg>
