<svg width="347" height="345" viewBox="0 0 347 345" fill="none" xmlns="http://www.w3.org/2000/svg">
<path d="M206.816 4.29723C192.456 7.39974 178.351 11.8725 163.608 14.0964C140.489 17.5859 120.711 6.86255 98.2454 9.45518C76.5026 11.9636 56.8333 27.6651 44.5013 45.1716C26.3815 70.909 20.7464 101.736 13.0468 131.587C2.19138 173.674 -1.92841 217.216 5.01006 260.426C8.62172 282.915 18.6386 302.871 40.4658 316.576C65.3144 332.177 190.243 346.766 223.822 344.61C259.084 342.348 301.147 330.243 326.101 301.624C346.369 278.379 345.061 256.247 344.458 228.024C343.637 189.879 344.959 151.727 344.132 113.582C343.384 78.9623 326.734 42.3149 296.788 21.2825C277.26 7.5659 260.991 1.86621 237.231 1.03538C226.777 0.666634 216.735 2.15302 206.816 4.29723Z" fill="#CADDFF"/>
<mask id="mask0_2200_990" style="mask-type:luminance" maskUnits="userSpaceOnUse" x="121" y="66" width="226" height="188">
<path d="M121.583 66.0469H346.702V253.681H121.583V66.0469Z" fill="white"/>
</mask>
<g mask="url(#mask0_2200_990)">
<path d="M338.239 253.247L133.489 224.805C128.349 224.15 124.495 219.779 124.495 214.603L121.688 71.9424C121.688 71.9424 126.355 68.5804 129 67.292C130.345 66.6365 131.896 66.3497 133.51 66.5545L337.649 92.5605C342.792 93.2161 346.643 97.5842 346.643 102.765V242.881C346.643 245.389 345.497 247.599 343.722 249.056C342.09 250.399 338.239 253.247 338.239 253.247Z" fill="#99B9FF"/>
</g>
<path d="M331.991 255.143L127.85 229.137C122.709 228.481 118.856 224.113 118.856 218.937V78.8166C118.856 74.0001 123.087 70.2784 127.87 70.8885L332.012 96.8922C337.152 97.55 341.003 101.918 341.003 107.097V247.217C341.003 252.031 336.772 255.753 331.991 255.143Z" fill="#CADDFF"/>
<path d="M341.003 145.915C340.657 145.915 340.379 145.638 340.379 145.292V107.097C340.379 102.248 336.747 98.1259 331.93 97.5136L296.602 93.0135C296.26 92.968 296.018 92.6584 296.064 92.3147C296.107 91.9732 296.415 91.732 296.759 91.7775L332.089 96.2776C337.528 96.9696 341.625 101.622 341.625 107.097V145.292C341.625 145.638 341.345 145.915 341.003 145.915Z" fill="black"/>
<path d="M118.858 110.431C118.512 110.431 118.234 110.151 118.234 109.808V78.8166C118.234 76.3401 119.3 73.9842 121.157 72.3498C123.017 70.7155 125.494 69.9575 127.948 70.2693L288.216 90.6872C288.56 90.7304 288.8 91.0423 288.756 91.3837C288.713 91.7251 288.398 91.9641 288.059 91.9209L127.793 71.5076C125.685 71.2367 123.573 71.8855 121.982 73.2831C120.394 74.6852 119.48 76.6997 119.48 78.8166V109.808C119.48 110.151 119.202 110.431 118.858 110.431Z" fill="black"/>
<path d="M327.653 249.368L132.728 224.537C128.989 224.061 126.188 220.881 126.188 217.118V81.9601C126.188 78.7438 129.014 76.2581 132.209 76.6656L327.131 101.497C330.868 101.973 333.671 105.15 333.671 108.915V244.076C333.671 247.29 330.843 249.775 327.653 249.368Z" fill="white"/>
<path d="M212.896 337.665L2.94337 310.617C1.30046 310.408 0.375334 309.033 0.395842 307.66C0.409514 306.711 0.486987 300.035 0.486987 300.035L111.498 236.639C117.06 233.466 124.256 232.242 130.609 233.054L337.909 259.768C339.158 259.927 340.226 260.736 340.723 261.892L341.056 262.673C341.056 262.673 340.878 268.24 340.949 269.54C341.006 270.557 340.55 271.607 339.481 272.215L231.257 334.026C225.692 337.199 219.251 338.478 212.896 337.665Z" fill="#99B9FF"/>
<path d="M212.893 330.236L3.69531 303.24C0.917643 302.885 0.188477 299.206 2.61751 297.82L110.263 236.407C115.825 233.232 122.269 231.955 128.624 232.77L337.822 259.764C340.6 260.119 341.329 263.797 338.898 265.186L231.257 326.598C225.692 329.771 219.248 331.048 212.893 330.236Z" fill="white"/>
<path d="M212.973 329.619C219.155 330.409 225.535 329.143 230.945 326.057L338.592 264.642C339.65 264.041 339.859 262.989 339.704 262.208C339.547 261.425 338.953 260.535 337.745 260.38L128.545 233.387C122.363 232.594 115.982 233.86 110.573 236.944L2.92968 298.359C1.87239 298.963 1.66048 300.014 1.81543 300.795C1.97037 301.578 2.56738 302.468 3.77506 302.623L212.975 329.619H212.973ZM216.594 331.094C215.334 331.094 214.071 331.014 212.818 330.853C212.813 330.853 212.813 330.853 212.813 330.853L3.61556 303.857C2.07975 303.661 0.892574 302.555 0.591793 301.036C0.291011 299.52 0.96549 298.045 2.30989 297.276L109.955 235.863C115.597 232.642 122.258 231.324 128.704 232.151L337.904 259.144C339.44 259.34 340.627 260.446 340.928 261.965C341.229 263.483 340.557 264.958 339.21 265.725L231.567 327.138C227.021 329.733 221.816 331.094 216.594 331.094Z" fill="black"/>
<path d="M253.854 296.145L72.4511 272.567C69.9424 272.246 69.2838 268.923 71.4782 267.669L114.132 243.582C119.154 240.714 124.976 239.562 130.716 240.295L312.117 263.874C314.628 264.195 315.286 267.519 313.09 268.773L270.436 292.86C265.414 295.726 259.592 296.88 253.854 296.145Z" fill="#99B9FF"/>
<path d="M164.021 220.724L312.725 236.849C313.47 236.928 314.143 236.389 314.222 235.645L314.874 229.672C314.954 228.925 314.414 228.258 313.669 228.176L164.964 212.051C164.217 211.974 163.545 212.511 163.467 213.256L162.815 219.228C162.736 219.973 163.276 220.644 164.021 220.724Z" fill="#CADDFF"/>
<path d="M180.976 205.364L311.645 219.531C313.131 219.693 314.464 218.621 314.626 217.137L314.986 213.838C315.145 212.354 314.072 211.02 312.586 210.861L181.915 196.691C180.434 196.532 179.099 197.602 178.939 199.088L178.579 202.384C178.417 203.871 179.491 205.205 180.976 205.364Z" fill="#CADDFF"/>
<path d="M145.047 185.328L313.666 203.611C314.411 203.691 315.081 203.154 315.163 202.407L315.813 196.436C315.895 195.69 315.355 195.021 314.607 194.939L145.988 176.656C145.24 176.576 144.573 177.114 144.491 177.86L143.841 183.831C143.761 184.58 144.299 185.247 145.047 185.328Z" fill="#CADDFF"/>
<path d="M168.496 157.03L314.753 170.601C316.241 170.738 317.556 169.645 317.697 168.161L318.003 164.856C318.142 163.37 317.048 162.052 315.56 161.915L169.303 148.346C167.817 148.208 166.498 149.3 166.361 150.787L166.053 154.089C165.914 155.574 167.008 156.891 168.496 157.03Z" fill="#CADDFF"/>
<path d="M183.036 141.306L313.912 153.448C315.398 153.584 316.717 152.494 316.856 151.007L317.162 147.705C317.299 146.218 316.207 144.9 314.717 144.764L183.843 132.62C182.359 132.483 181.04 133.574 180.903 135.062L180.596 138.365C180.457 139.852 181.553 141.167 183.036 141.306Z" fill="#CADDFF"/>
<path d="M146.897 122.004L313.101 137.421C314.589 137.562 315.904 136.467 316.043 134.983L316.353 131.678C316.49 130.191 315.396 128.878 313.908 128.737L147.703 113.317C146.216 113.179 144.898 114.271 144.759 115.755L144.452 119.06C144.313 120.547 145.409 121.862 146.897 122.004Z" fill="#CADDFF"/>
<path d="M74.1534 183.858C74.3265 193.245 75.9011 205.922 82.3018 213.948C85.9909 218.575 90.7966 221.225 96.5866 221.835C122.577 224.555 136.841 193.02 137.434 191.677C138.507 189.257 137.411 186.428 134.986 185.358C132.564 184.288 129.734 185.381 128.661 187.798C128.545 188.062 116.618 214.296 97.587 212.302C94.406 211.967 91.863 210.551 89.8054 207.977C82.7712 199.152 83.3728 179.615 84.1999 172.832C84.5189 170.205 82.6459 167.815 80.0163 167.496C77.3845 167.175 74.9942 169.047 74.6729 171.673C74.6159 172.156 74.0303 177.175 74.1534 183.858Z" fill="black"/>
<path d="M68.8782 154.829L69.0491 164.03C69.1426 169.058 72.9958 173.157 78.0133 173.565L81.2262 173.824C83.9674 174.047 86.6904 173.096 88.6956 171.216C90.7008 169.333 91.8219 166.677 91.7718 163.93L91.4984 149.252C91.4482 146.605 89.263 144.502 86.6129 144.552C83.9652 144.6 81.8551 146.785 81.9053 149.43L82.1764 164.107C82.1787 164.134 82.1787 164.18 82.1263 164.228C82.0739 164.278 82.0306 164.273 82.0032 164.271L78.7926 164.012C78.7083 164.002 78.6445 163.936 78.6422 163.852L78.4713 154.652C78.4235 152.007 76.236 149.901 73.5859 149.949C70.9381 149.999 68.8304 152.184 68.8782 154.829Z" fill="black"/>
<path d="M280.391 193.696C280.216 203.088 278.461 215.757 271.22 223.767C267.045 228.386 261.599 231.026 255.034 231.618C225.551 234.277 209.291 202.705 208.612 201.36C207.388 198.936 208.63 196.109 211.373 195.046C214.119 193.983 217.334 195.082 218.558 197.502C218.69 197.766 232.284 224.031 253.877 222.083C257.479 221.76 260.367 220.351 262.691 217.778C270.652 208.972 269.919 189.43 268.964 182.647C268.595 180.016 270.714 177.635 273.699 177.321C276.682 177.007 279.4 178.884 279.769 181.513C279.835 181.996 280.512 187.013 280.391 193.696Z" fill="black"/>
<path d="M288.116 163.802L287.945 173.003C287.849 178.029 283.49 182.119 277.798 182.513L274.157 182.765C271.047 182.982 267.954 182.023 265.673 180.139C263.393 178.249 262.114 175.591 262.167 172.843L262.438 158.168C262.488 155.521 264.965 153.422 267.97 153.475C270.974 153.534 273.373 155.721 273.323 158.369L273.052 173.046C273.052 173.071 273.052 173.116 273.109 173.167C273.17 173.217 273.22 173.212 273.252 173.21L276.891 172.957C276.987 172.953 277.058 172.884 277.06 172.8L277.233 163.6C277.281 160.952 279.758 158.854 282.763 158.908C285.771 158.963 288.166 161.155 288.116 163.802Z" fill="black"/>
<path d="M248.044 125.798H237.906V97.459H248.044C250.482 97.459 252.46 99.4347 252.46 101.87V121.387C252.46 123.822 250.482 125.798 248.044 125.798Z" fill="white"/>
<path d="M238.528 125.172H241.531C247.217 125.172 251.838 120.556 251.838 114.879V108.376C251.838 102.699 247.217 98.0804 241.531 98.0804H238.528V125.172ZM241.531 126.42H237.906C237.562 126.42 237.282 126.14 237.282 125.796V97.4567C237.282 97.113 237.562 96.8353 237.906 96.8353H241.531C247.902 96.8353 253.086 102.011 253.086 108.376V114.879C253.086 121.241 247.902 126.42 241.531 126.42Z" fill="black"/>
<path d="M99.6764 125.796H109.816V97.4567H99.6764C97.2382 97.4567 95.2604 99.4325 95.2604 101.868V121.384C95.2604 123.822 97.2382 125.796 99.6764 125.796Z" fill="white"/>
<path d="M106.189 98.0804C100.508 98.0804 95.8825 102.699 95.8825 108.378V114.879C95.8825 120.556 100.508 125.174 106.189 125.174H109.192V98.0804H106.189ZM109.816 126.42H106.189C99.82 126.42 94.6361 121.241 94.6361 114.879V108.378C94.6361 102.014 99.82 96.8353 106.189 96.8353H109.816C110.161 96.8353 110.439 97.1153 110.439 97.459V125.798C110.439 126.14 110.161 126.42 109.816 126.42Z" fill="black"/>
<path d="M105.232 110.456C105.232 80.0071 135.957 48.5063 173.86 48.5063C211.763 48.5063 242.491 80.0071 242.491 110.456C242.491 140.908 211.763 158.778 173.86 158.778C135.957 158.778 105.232 140.908 105.232 110.456Z" fill="white"/>
<path d="M173.86 49.1299C134.938 49.1299 105.854 81.5094 105.854 110.456C105.854 124.756 112.71 136.879 125.678 145.519C137.91 153.671 155.022 158.155 173.86 158.155C192.7 158.155 209.81 153.671 222.042 145.519C235.01 136.879 241.866 124.756 241.866 110.456C241.866 81.5094 212.784 49.1299 173.86 49.1299ZM173.86 159.402C154.779 159.402 137.42 154.841 124.985 146.555C111.653 137.673 104.607 125.19 104.607 110.456C104.607 95.3603 112.006 79.743 124.906 67.6084C138.427 54.8888 155.815 47.8848 173.86 47.8848C191.905 47.8848 209.293 54.8888 222.817 67.6084C235.716 79.743 243.115 95.3603 243.115 110.456C243.115 125.19 236.069 137.673 222.735 146.555C210.3 154.841 192.941 159.402 173.86 159.402Z" fill="black"/>
<path d="M191.052 167.927H156.67C141.601 167.927 129.385 180.13 129.385 195.185C129.385 205.127 130.356 215.049 132.286 224.805L137.228 249.812C140.683 267.289 156.025 279.888 173.86 279.888C191.695 279.888 207.039 267.289 210.494 249.812L215.436 224.805C217.364 215.049 218.337 205.127 218.337 195.185C218.337 180.13 206.119 167.927 191.052 167.927Z" fill="white"/>
<path d="M156.67 168.55C141.968 168.55 130.01 180.498 130.01 195.185C130.01 205.063 130.981 214.99 132.897 224.685L137.839 249.691C141.228 266.827 156.376 279.264 173.86 279.264C191.344 279.264 206.495 266.827 209.883 249.691L214.826 224.685C216.74 214.99 217.713 205.063 217.713 195.185C217.713 180.498 205.752 168.55 191.052 168.55H156.67ZM173.86 280.509C155.781 280.509 140.118 267.651 136.616 249.933L131.673 224.926C129.741 215.152 128.761 205.145 128.761 195.185C128.761 179.811 141.282 167.303 156.67 167.303H191.052C206.44 167.303 218.961 179.811 218.961 195.185C218.961 205.145 217.981 215.152 216.049 224.926L211.105 249.933C207.605 267.651 191.941 280.509 173.86 280.509Z" fill="black"/>
<path d="M178.155 228.315H169.567C161.603 228.315 155.146 221.867 155.146 213.913V167.927H192.575V213.913C192.575 221.867 186.119 228.315 178.155 228.315Z" fill="#5479F7"/>
<path d="M192.575 168.55H155.146C154.801 168.55 154.523 168.27 154.523 167.927C154.523 167.583 154.801 167.303 155.146 167.303H192.575C192.919 167.303 193.199 167.583 193.199 167.927C193.199 168.27 192.919 168.55 192.575 168.55Z" fill="black"/>
<path d="M214.707 99.997H148.619C141.754 99.997 136.189 105.988 136.189 113.379V122.108C136.189 127.744 139.2 133.719 144.395 134.694C162.711 138.131 200.62 138.131 218.934 134.694C224.127 133.719 227.139 127.744 227.139 122.108V113.379C227.139 105.988 221.575 99.997 214.707 99.997Z" fill="black"/>
<path d="M166.138 117.565C166.138 120.041 164.271 122.049 161.97 122.049C159.671 122.049 157.805 120.041 157.805 117.565C157.805 115.088 159.671 113.083 161.97 113.083C164.271 113.083 166.138 115.088 166.138 117.565Z" fill="#5479F7"/>
<path d="M210.448 117.565C210.448 120.041 208.582 122.049 206.283 122.049C203.981 122.049 202.118 120.041 202.118 117.565C202.118 115.088 203.981 113.083 206.283 113.083C208.582 113.083 210.448 115.088 210.448 117.565Z" fill="#5479F7"/>
<path d="M240.481 40.198L226.16 39.2579C224.396 39.1418 222.726 40.0614 221.883 41.6161L217.601 49.5078L213.508 40.7716C212.811 39.2784 211.353 38.2837 209.705 38.1744L196.535 37.3095C194.04 37.1478 192.151 34.9923 192.317 32.4998L194.154 4.57721C194.32 2.08245 196.476 0.195454 198.971 0.359343L242.917 3.25016C245.41 3.41177 247.301 5.56737 247.137 8.05984L245.296 35.9824C245.132 38.4772 242.976 40.3642 240.481 40.198Z" fill="#5479F7"/>
<path d="M236.942 14.5699C236.931 14.5699 236.915 14.5699 236.903 14.5699L205.287 12.5736C204.941 12.5531 204.683 12.2572 204.704 11.9135C204.724 11.5698 205.011 11.3103 205.367 11.3308L236.981 13.3293C237.323 13.3475 237.585 13.6457 237.566 13.9872C237.544 14.3195 237.27 14.5699 236.942 14.5699Z" fill="black"/>
<path d="M227.524 21.4031C227.513 21.4031 227.499 21.4031 227.486 21.4009L204.054 19.9236C203.71 19.9008 203.453 19.6049 203.471 19.2612C203.494 18.9198 203.781 18.658 204.134 18.6785L227.565 20.158C227.909 20.1785 228.169 20.4767 228.146 20.8181C228.126 21.1505 227.85 21.4031 227.524 21.4031Z" fill="black"/>
<path d="M236.09 29.5566C236.076 29.5566 236.063 29.5566 236.049 29.5566L204.435 27.5603C204.089 27.5376 203.827 27.2417 203.852 26.898C203.872 26.5543 204.164 26.2948 204.512 26.3152L236.129 28.3115C236.47 28.332 236.732 28.6279 236.712 28.9739C236.689 29.3017 236.416 29.5566 236.09 29.5566Z" fill="black"/>
<path d="M30.6312 127.325C16.556 113.44 16.3486 90.719 30.1686 76.5791C43.9886 62.4368 66.6042 62.2274 80.6794 76.1124C94.7568 89.9975 94.9642 112.717 81.1442 126.859C67.3242 141.001 44.7087 141.208 30.6312 127.325Z" fill="#5479F7"/>
<path d="M79.8568 99.7989L55.5938 124.628C54.3086 125.941 52.2054 125.96 50.8975 124.671L33.8304 107.836C32.5225 106.546 32.502 104.433 33.7871 103.118L58.0501 78.2908C59.3353 76.9774 61.4385 76.9569 62.7464 78.2475L79.8135 95.0826C81.1214 96.3732 81.1419 98.4855 79.8568 99.7989Z" fill="white"/>
<path d="M60.4199 77.9175C60.4108 77.9175 60.4039 77.9175 60.3948 77.9175C59.6748 77.9243 59.0003 78.2111 58.4967 78.7278L34.2337 103.557C33.1901 104.622 33.2037 106.345 34.2679 107.395L51.3349 124.227C51.8499 124.737 52.5175 125.013 53.2467 125.004C53.9668 124.999 54.6412 124.71 55.1471 124.193L79.4101 99.3664C80.4537 98.2966 80.4378 96.5758 79.3737 95.5264L62.3066 78.6937C61.7985 78.1906 61.1308 77.9175 60.4199 77.9175ZM53.2216 126.251C52.1803 126.251 51.2005 125.848 50.4576 125.115L33.3906 108.28C31.8411 106.753 31.8183 104.242 33.3405 102.685L57.6035 77.856C58.3418 77.1026 59.3284 76.6815 60.3834 76.6724C61.4293 76.661 62.4319 77.0639 63.1839 77.8059L80.2509 94.6387C81.8004 96.1683 81.8232 98.679 80.3011 100.236L56.038 125.063C55.2998 125.821 54.3131 126.242 53.2581 126.251C53.2467 126.251 53.233 126.251 53.2216 126.251Z" fill="black"/>
<path d="M42.414 106.311C42.1269 106.311 41.8694 106.113 41.8056 105.82C41.7327 105.485 41.9446 105.153 42.2819 105.08L57.7676 101.693C58.1048 101.62 58.4375 101.832 58.5104 102.168C58.5833 102.505 58.3714 102.838 58.0342 102.911L42.5485 106.295C42.5029 106.304 42.4596 106.311 42.414 106.311Z" fill="black"/>
<path d="M57.9658 102.86C57.9271 102.86 57.8861 102.856 57.8451 102.847C57.5078 102.781 57.2868 102.453 57.3529 102.116L60.4382 86.4966C60.5065 86.1575 60.8369 85.9412 61.1719 86.005C61.5091 86.0732 61.7301 86.401 61.6618 86.7379L58.5788 102.355C58.5195 102.653 58.2598 102.86 57.9658 102.86Z" fill="black"/>
<path d="M270.985 141.748C261.207 132.101 261.062 116.318 270.664 106.496C280.264 96.6714 295.973 96.528 305.748 106.17C315.526 115.817 315.672 131.6 306.072 141.422C296.472 151.246 280.763 151.39 270.985 141.748Z" fill="#5479F7"/>
<path d="M283.673 136.929C283.673 135.845 284.067 134.958 284.848 134.259C285.634 133.565 286.617 133.214 287.79 133.214C288.964 133.214 289.943 133.565 290.727 134.259C291.511 134.958 291.905 135.845 291.905 136.929C291.905 138.015 291.511 138.907 290.727 139.601C289.943 140.298 288.964 140.646 287.79 140.646C286.617 140.646 285.634 140.298 284.848 139.601C284.067 138.907 283.673 138.015 283.673 136.929ZM284.577 130.246C284.577 128.108 284.819 126.419 285.302 125.181C285.785 123.941 286.571 122.866 287.656 121.958C288.74 121.05 289.57 120.219 290.132 119.463C290.698 118.71 290.98 117.879 290.98 116.966C290.98 114.756 290.025 113.65 288.12 113.65C287.239 113.65 286.528 113.971 285.983 114.615C285.441 115.261 285.156 116.133 285.126 117.233H277.687C277.716 114.301 278.641 112.018 280.462 110.383C282.278 108.749 284.832 107.934 288.12 107.934C291.39 107.934 293.924 108.688 295.724 110.197C297.52 111.706 298.42 113.852 298.42 116.639C298.42 117.856 298.176 118.963 297.693 119.96C297.21 120.954 296.431 121.974 295.36 123.017L292.828 125.368C292.108 126.055 291.609 126.763 291.333 127.489C291.055 128.213 290.9 129.133 290.871 130.246H284.577Z" fill="white"/>
<path d="M285.208 129.622H290.278C290.344 128.705 290.502 127.913 290.752 127.264C291.064 126.456 291.616 125.666 292.4 124.915L294.936 122.557C295.941 121.582 296.681 120.611 297.132 119.684C297.575 118.776 297.798 117.754 297.798 116.636C297.798 114.021 296.987 112.07 295.323 110.673C293.651 109.266 291.226 108.553 288.12 108.553C285.01 108.553 282.572 109.325 280.879 110.845C279.311 112.254 278.475 114.144 278.334 116.609H284.545C284.661 115.642 284.98 114.838 285.507 114.214C286.172 113.424 287.052 113.026 288.12 113.026C289.424 113.026 291.607 113.536 291.607 116.969C291.607 118.009 291.279 118.974 290.634 119.837C290.044 120.626 289.178 121.501 288.059 122.436C287.059 123.274 286.327 124.273 285.885 125.404C285.479 126.445 285.252 127.863 285.208 129.622ZM290.873 130.87H284.577C284.231 130.87 283.955 130.59 283.955 130.246C283.955 128.038 284.213 126.258 284.723 124.951C285.243 123.622 286.097 122.454 287.257 121.478C288.3 120.606 289.1 119.802 289.633 119.09C290.121 118.439 290.358 117.745 290.358 116.969C290.358 114.576 289.162 114.271 288.12 114.271C287.428 114.271 286.885 114.515 286.464 115.016C286.015 115.546 285.776 116.297 285.751 117.249C285.742 117.585 285.466 117.854 285.126 117.854H277.689C277.522 117.854 277.363 117.786 277.247 117.67C277.128 117.551 277.062 117.392 277.064 117.226C277.096 114.126 278.097 111.665 280.045 109.919C281.975 108.187 284.691 107.308 288.12 107.308C291.529 107.308 294.223 108.119 296.125 109.719C298.062 111.346 299.044 113.673 299.044 116.636C299.044 117.943 298.78 119.149 298.256 120.228C297.743 121.287 296.914 122.375 295.795 123.458L293.254 125.821C292.614 126.438 292.158 127.075 291.917 127.708C291.664 128.368 291.525 129.226 291.495 130.262C291.488 130.599 291.208 130.87 290.873 130.87ZM287.79 133.835C286.765 133.835 285.94 134.127 285.268 134.725C284.616 135.301 284.299 136.023 284.299 136.929C284.299 137.835 284.616 138.556 285.268 139.137C285.94 139.731 286.762 140.022 287.79 140.022C288.815 140.022 289.64 139.731 290.315 139.137C290.966 138.556 291.283 137.835 291.283 136.929C291.283 136.023 290.966 135.301 290.315 134.725C289.64 134.127 288.815 133.835 287.79 133.835ZM287.79 141.267C286.466 141.267 285.336 140.862 284.438 140.066C283.518 139.251 283.05 138.194 283.05 136.929C283.05 135.663 283.518 134.609 284.438 133.792C285.336 132.996 286.466 132.59 287.79 132.59C289.116 132.59 290.244 132.996 291.144 133.792C292.065 134.609 292.527 135.666 292.527 136.929C292.527 138.194 292.065 139.251 291.144 140.066C290.244 140.862 289.116 141.267 287.79 141.267Z" fill="black"/>
<path d="M90.735 27.0641C89.9466 17.158 97.3431 8.44226 107.257 7.60005C117.17 6.75557 125.844 14.1033 126.635 24.0071C127.421 33.9156 120.022 42.6313 110.11 43.4735C100.196 44.3157 91.5212 36.9703 90.735 27.0641Z" fill="#5479F7"/>
<path d="M113.451 16.4227L115.878 16.227C116.156 16.2042 116.399 16.4114 116.422 16.6891L117.744 33.0279C117.767 33.3056 117.559 33.5491 117.281 33.5696L114.854 33.7676C114.577 33.7904 114.333 33.5833 114.31 33.3056L112.988 16.9668C112.965 16.6891 113.173 16.4455 113.451 16.4227Z" fill="white"/>
<path d="M107.175 22.0041L109.602 21.8106C109.88 21.7855 110.124 21.9927 110.147 22.2704L111.061 33.5696C111.083 33.845 110.876 34.0909 110.598 34.1114L108.171 34.3094C107.893 34.3299 107.649 34.1227 107.627 33.845L106.713 22.5504C106.69 22.2704 106.897 22.0268 107.175 22.0041Z" fill="white"/>
<path d="M101.014 28.983L103.441 28.785C103.719 28.7622 103.963 28.9693 103.985 29.247L104.377 34.1068C104.4 34.3845 104.193 34.6303 103.915 34.6508L101.488 34.8466C101.21 34.8693 100.966 34.6622 100.943 34.3845L100.551 29.5247C100.529 29.2448 100.736 29.0035 101.014 28.983Z" fill="white"/>
<path d="M20.8854 150.047C20.5414 150.047 20.2611 149.769 20.2611 149.425V146.202C20.2611 145.859 20.5414 145.581 20.8854 145.581C21.2295 145.581 21.5075 145.859 21.5075 146.202V149.425C21.5075 149.769 21.2295 150.047 20.8854 150.047Z" fill="black"/>
<path d="M20.8854 157.554C20.5414 157.554 20.2611 157.276 20.2611 156.93V153.709C20.2611 153.363 20.5414 153.086 20.8854 153.086C21.2295 153.086 21.5075 153.363 21.5075 153.709V156.93C21.5075 157.276 21.2295 157.554 20.8854 157.554Z" fill="black"/>
<path d="M18.7412 152.189H15.5146C15.1706 152.189 14.8903 151.911 14.8903 151.567C14.8903 151.224 15.1706 150.944 15.5146 150.944H18.7412C19.0853 150.944 19.3633 151.224 19.3633 151.567C19.3633 151.911 19.0853 152.189 18.7412 152.189Z" fill="black"/>
<path d="M26.2539 152.189H23.0296C22.6855 152.189 22.4053 151.911 22.4053 151.567C22.4053 151.224 22.6855 150.944 23.0296 150.944H26.2539C26.598 150.944 26.8783 151.224 26.8783 151.567C26.8783 151.911 26.598 152.189 26.2539 152.189Z" fill="black"/>
<path d="M55.4343 223.831C55.0902 223.831 54.8099 223.551 54.8099 223.207V219.984C54.8099 219.64 55.0902 219.36 55.4343 219.36C55.7783 219.36 56.0586 219.64 56.0586 219.984V223.207C56.0586 223.551 55.7783 223.831 55.4343 223.831Z" fill="black"/>
<path d="M55.4343 231.333C55.0902 231.333 54.8099 231.058 54.8099 230.712V227.491C54.8099 227.145 55.0902 226.867 55.4343 226.867C55.7783 226.867 56.0586 227.145 56.0586 227.491V230.712C56.0586 231.058 55.7783 231.333 55.4343 231.333Z" fill="black"/>
<path d="M53.29 225.973H50.0635C49.7194 225.973 49.4391 225.693 49.4391 225.349C49.4391 225.006 49.7194 224.726 50.0635 224.726H53.29C53.6341 224.726 53.9121 225.006 53.9121 225.349C53.9121 225.693 53.6341 225.973 53.29 225.973Z" fill="black"/>
<path d="M60.8027 225.973H57.5785C57.2344 225.973 56.9541 225.693 56.9541 225.349C56.9541 225.006 57.2344 224.726 57.5785 224.726H60.8027C61.1491 224.726 61.4271 225.006 61.4271 225.349C61.4271 225.693 61.1491 225.973 60.8027 225.973Z" fill="black"/>
<path d="M273.275 35.0651C272.931 35.0651 272.655 34.7874 272.655 34.4437V31.2205C272.655 30.8768 272.931 30.5968 273.275 30.5968C273.621 30.5968 273.899 30.8768 273.899 31.2205V34.4437C273.899 34.7874 273.621 35.0651 273.275 35.0651Z" fill="black"/>
<path d="M273.275 42.5721C272.931 42.5721 272.653 42.2921 272.653 41.9484V38.7276C272.653 38.3838 272.931 38.1039 273.275 38.1039C273.621 38.1039 273.899 38.3838 273.899 38.7276V41.9484C273.899 42.2921 273.621 42.5721 273.275 42.5721Z" fill="black"/>
<path d="M271.133 37.207H267.907C267.565 37.207 267.285 36.9271 267.285 36.5833C267.285 36.2396 267.565 35.9597 267.907 35.9597H271.133C271.477 35.9597 271.755 36.2396 271.755 36.5833C271.755 36.9271 271.477 37.207 271.133 37.207Z" fill="black"/>
<path d="M278.646 37.207H275.422C275.078 37.207 274.797 36.9271 274.797 36.5833C274.797 36.2396 275.078 35.9597 275.422 35.9597H278.646C278.992 35.9597 279.273 36.2396 279.273 36.5833C279.273 36.9271 278.992 37.207 278.646 37.207Z" fill="black"/>
<path d="M26.5775 172.044C26.5775 173.672 25.2559 174.992 23.6266 174.992C21.9974 174.992 20.6758 173.672 20.6758 172.044C20.6758 170.417 21.9974 169.099 23.6266 169.099C25.2559 169.099 26.5775 170.417 26.5775 172.044Z" fill="white"/>
<path d="M318.014 74.2345C318.014 75.8621 316.692 77.1823 315.063 77.1823C313.434 77.1823 312.115 75.8621 312.115 74.2345C312.115 72.607 313.434 71.2868 315.063 71.2868C316.692 71.2868 318.014 72.607 318.014 74.2345Z" fill="white"/>
<path d="M77.4733 38.9711C77.4733 40.6009 76.1517 41.9211 74.5225 41.9211C72.8933 41.9211 71.5717 40.6009 71.5717 38.9711C71.5717 37.3436 72.8933 36.0257 74.5225 36.0257C76.1517 36.0257 77.4733 37.3436 77.4733 38.9711Z" fill="white"/>
<path d="M23.3532 196.996C23.0342 196.996 22.763 196.753 22.7334 196.43C22.5807 194.777 22.4485 193.102 22.3414 191.447C22.3187 191.103 22.5784 190.807 22.9225 190.782C23.278 190.762 23.5628 191.021 23.5856 191.365C23.6927 193.008 23.8248 194.675 23.9752 196.316C24.0071 196.66 23.7542 196.962 23.4124 196.994C23.3919 196.996 23.3714 196.996 23.3532 196.996ZM24.5358 206.896C24.2304 206.896 23.9661 206.673 23.9183 206.363C23.679 204.729 23.4557 203.06 23.2597 201.403C23.2187 201.062 23.4625 200.752 23.8043 200.711C24.1461 200.67 24.456 200.914 24.497 201.258C24.693 202.901 24.914 204.558 25.1533 206.183C25.2034 206.522 24.9687 206.839 24.6269 206.889C24.5973 206.896 24.5654 206.896 24.5358 206.896ZM294.564 208.405C294.225 208.405 293.945 208.132 293.942 207.79C293.917 206.063 293.819 204.41 293.651 202.876C293.617 202.534 293.863 202.225 294.204 202.191C294.546 202.15 294.854 202.398 294.89 202.742C295.066 204.315 295.164 206.008 295.189 207.772C295.193 208.116 294.918 208.4 294.574 208.405C294.569 208.405 294.564 208.405 294.564 208.405ZM26.2676 216.722C25.9782 216.722 25.7184 216.517 25.6569 216.224C25.3242 214.61 25.0075 212.955 24.7181 211.305C24.6566 210.966 24.8844 210.645 25.2239 210.583C25.5657 210.524 25.887 210.752 25.9463 211.091C26.2357 212.727 26.5478 214.371 26.8782 215.971C26.9489 216.31 26.7324 216.638 26.3952 216.709C26.3519 216.718 26.3086 216.722 26.2676 216.722ZM294.018 218.357C293.997 218.357 293.972 218.357 293.945 218.354C293.605 218.313 293.359 218.006 293.398 217.662C293.591 215.969 293.735 214.312 293.824 212.73C293.844 212.386 294.134 212.124 294.485 212.142C294.826 212.163 295.091 212.457 295.07 212.8C294.979 214.407 294.833 216.089 294.635 217.803C294.601 218.122 294.33 218.357 294.018 218.357ZM28.5758 226.433C28.3001 226.433 28.0495 226.248 27.9743 225.971C27.5413 224.375 27.1266 222.741 26.7415 221.115C26.6618 220.779 26.8691 220.444 27.2041 220.364C27.5413 220.285 27.8763 220.492 27.956 220.826C28.3388 222.44 28.749 224.063 29.1797 225.645C29.2685 225.98 29.0726 226.321 28.7399 226.41C28.6852 226.424 28.6305 226.433 28.5758 226.433ZM292.436 228.204C292.395 228.204 292.354 228.199 292.313 228.19C291.974 228.122 291.757 227.794 291.826 227.455C292.163 225.811 292.461 224.168 292.719 222.574C292.771 222.235 293.095 222.005 293.434 222.06C293.774 222.115 294.004 222.433 293.949 222.775C293.687 224.382 293.386 226.043 293.049 227.705C292.988 227.999 292.728 228.204 292.436 228.204ZM31.4925 235.979C31.2327 235.979 30.9912 235.818 30.9023 235.558C30.3668 233.994 29.8496 232.39 29.3597 230.787C29.2594 230.459 29.444 230.111 29.7744 230.011C30.1025 229.908 30.4512 230.097 30.5514 230.425C31.0368 232.014 31.5517 233.605 32.0827 235.155C32.1943 235.481 32.0189 235.836 31.6953 235.945C31.6269 235.97 31.5609 235.979 31.4925 235.979ZM290.094 237.898C290.037 237.898 289.982 237.894 289.925 237.875C289.595 237.784 289.401 237.441 289.49 237.108C289.937 235.508 290.358 233.892 290.745 232.303C290.825 231.968 291.16 231.761 291.497 231.843C291.832 231.925 292.04 232.262 291.958 232.594C291.568 234.199 291.144 235.829 290.693 237.443C290.616 237.718 290.367 237.898 290.094 237.898ZM35.0517 245.309C34.8102 245.309 34.5778 245.166 34.4775 244.929C33.8327 243.404 33.2015 241.838 32.6067 240.274C32.4837 239.954 32.6455 239.592 32.9668 239.471C33.2903 239.348 33.6504 239.51 33.7734 239.831C34.3636 241.378 34.9879 242.931 35.626 244.442C35.7604 244.761 35.6123 245.127 35.2956 245.262C35.2158 245.294 35.1338 245.309 35.0517 245.309ZM287.102 247.417C287.034 247.417 286.965 247.408 286.901 247.383C286.576 247.272 286.4 246.914 286.516 246.591C287.061 245.032 287.59 243.445 288.082 241.875C288.182 241.545 288.533 241.363 288.861 241.467C289.191 241.57 289.374 241.92 289.271 242.248C288.774 243.832 288.243 245.43 287.694 247.001C287.601 247.258 287.362 247.417 287.102 247.417ZM39.29 254.348C39.0644 254.348 38.8457 254.228 38.7363 254.014C37.9752 252.543 37.2301 251.027 36.5192 249.511C36.3734 249.202 36.5078 248.829 36.82 248.683C37.1321 248.537 37.5036 248.671 37.6494 248.983C38.3512 250.486 39.0895 251.986 39.8437 253.44C40.001 253.747 39.8825 254.123 39.5771 254.28C39.486 254.328 39.3857 254.348 39.29 254.348ZM283.502 256.718C283.42 256.718 283.338 256.702 283.258 256.668C282.941 256.534 282.793 256.167 282.93 255.851C283.568 254.351 284.199 252.805 284.8 251.25C284.926 250.93 285.286 250.77 285.605 250.893C285.928 251.018 286.088 251.378 285.965 251.699C285.356 253.267 284.721 254.826 284.076 256.34C283.973 256.577 283.743 256.718 283.502 256.718ZM190.419 262.081C190.182 262.081 189.952 261.942 189.849 261.712C189.708 261.398 189.849 261.029 190.164 260.888C190.859 260.576 191.604 260.342 192.381 260.189C193.352 259.998 194.352 259.946 195.343 260.037C195.685 260.066 195.938 260.371 195.908 260.713C195.876 261.056 195.566 261.307 195.229 261.277C194.354 261.198 193.477 261.243 192.62 261.412C191.939 261.546 191.283 261.751 190.674 262.026C190.59 262.063 190.506 262.081 190.419 262.081ZM44.2392 263.016C44.0319 263.016 43.8291 262.916 43.7106 262.727C42.831 261.33 41.9629 259.88 41.1312 258.423C40.9603 258.122 41.0651 257.742 41.3636 257.572C41.6621 257.401 42.0449 257.506 42.2158 257.804C43.0384 259.249 43.8974 260.681 44.7656 262.065C44.9502 262.354 44.8613 262.739 44.5696 262.923C44.4671 262.987 44.3532 263.016 44.2392 263.016ZM279.241 265.739C279.14 265.739 279.045 265.714 278.951 265.668C278.646 265.509 278.527 265.131 278.687 264.826C279.434 263.396 280.179 261.901 280.895 260.38C281.043 260.071 281.412 259.937 281.724 260.085C282.036 260.23 282.171 260.601 282.023 260.913C281.3 262.45 280.548 263.961 279.792 265.404C279.68 265.616 279.464 265.739 279.241 265.739ZM203.895 265.896C203.731 265.896 203.571 265.832 203.448 265.707C202.247 264.478 200.98 263.478 199.679 262.739C199.379 262.57 199.274 262.19 199.445 261.89C199.616 261.591 199.996 261.484 200.295 261.655C201.701 262.452 203.061 263.524 204.341 264.837C204.583 265.083 204.576 265.479 204.33 265.718C204.209 265.834 204.052 265.896 203.895 265.896ZM184.561 269.72C184.51 269.72 184.458 269.715 184.408 269.702C184.073 269.617 183.87 269.278 183.957 268.944C184.412 267.145 185.137 265.559 186.112 264.223C186.313 263.945 186.702 263.884 186.983 264.086C187.261 264.289 187.322 264.678 187.119 264.956C186.242 266.162 185.581 267.607 185.164 269.251C185.094 269.533 184.839 269.72 184.561 269.72ZM49.9199 271.215C49.7331 271.215 49.5462 271.131 49.4232 270.969C48.4206 269.654 47.4271 268.29 46.4746 266.913C46.2786 266.631 46.347 266.244 46.6318 266.048C46.9144 265.853 47.304 265.921 47.5 266.205C48.4411 267.567 49.4232 268.914 50.4166 270.216C50.6263 270.489 50.5739 270.881 50.2982 271.088C50.1842 271.174 50.0521 271.215 49.9199 271.215ZM209.215 274.256C208.967 274.256 208.73 274.104 208.634 273.856C208.062 272.374 207.326 270.915 206.445 269.522C206.258 269.23 206.347 268.848 206.636 268.664C206.925 268.479 207.311 268.564 207.495 268.855C208.425 270.318 209.197 271.85 209.799 273.412C209.924 273.733 209.762 274.092 209.439 274.215C209.366 274.245 209.293 274.256 209.215 274.256ZM274.182 274.334C274.063 274.334 273.943 274.302 273.836 274.229C273.548 274.038 273.471 273.651 273.66 273.366C274.54 272.048 275.424 270.637 276.285 269.164C276.461 268.869 276.841 268.768 277.14 268.941C277.436 269.117 277.534 269.497 277.361 269.795C276.486 271.286 275.59 272.72 274.701 274.058C274.581 274.236 274.382 274.334 274.182 274.334ZM56.3434 278.836C56.1748 278.836 56.0084 278.768 55.8854 278.636C54.7597 277.427 53.6409 276.164 52.5631 274.882C52.3421 274.621 52.374 274.227 52.6383 274.004C52.9026 273.783 53.2946 273.817 53.5179 274.079C54.582 275.344 55.6872 276.592 56.7991 277.787C57.0338 278.042 57.0202 278.433 56.7672 278.668C56.6465 278.779 56.4938 278.836 56.3434 278.836ZM184.968 279.546C184.709 279.546 184.467 279.385 184.378 279.128C183.836 277.568 183.51 275.818 183.437 274.067C183.423 273.721 183.692 273.432 184.036 273.416C184.401 273.407 184.67 273.671 184.686 274.015C184.752 275.645 185.053 277.272 185.554 278.72C185.67 279.046 185.499 279.401 185.173 279.512C185.105 279.537 185.034 279.546 184.968 279.546ZM268.007 282.155C267.85 282.155 267.695 282.096 267.574 281.977C267.326 281.741 267.319 281.347 267.556 281.099C268.62 279.995 269.704 278.743 270.773 277.375C270.987 277.104 271.377 277.054 271.65 277.266C271.922 277.48 271.969 277.871 271.757 278.14C270.661 279.544 269.549 280.83 268.453 281.964C268.33 282.089 268.171 282.155 268.007 282.155ZM210.466 284.058C210.446 284.058 210.425 284.056 210.407 284.053C210.061 284.021 209.812 283.719 209.844 283.375C209.91 282.678 209.94 281.966 209.94 281.254C209.94 280.361 209.89 279.446 209.79 278.529C209.749 278.187 209.997 277.88 210.339 277.841C210.681 277.805 210.993 278.049 211.029 278.392C211.134 279.355 211.189 280.316 211.189 281.254C211.189 282.002 211.155 282.756 211.086 283.493C211.057 283.817 210.783 284.058 210.466 284.058ZM63.487 285.763C63.3411 285.763 63.1953 285.71 63.0768 285.608C61.8304 284.518 60.5908 283.377 59.3922 282.216C59.1439 281.977 59.1393 281.581 59.3786 281.335C59.6201 281.09 60.0143 281.083 60.2627 281.322C61.4453 282.469 62.6666 283.596 63.8994 284.67C64.1569 284.895 64.1842 285.289 63.9564 285.549C63.8333 285.69 63.6601 285.763 63.487 285.763ZM190.592 287.65C190.444 287.65 190.291 287.595 190.173 287.488C188.858 286.293 187.712 285.012 186.769 283.678C186.57 283.398 186.636 283.008 186.917 282.81C187.199 282.612 187.589 282.676 187.787 282.958C188.68 284.219 189.763 285.43 191.014 286.566C191.269 286.796 191.285 287.192 191.055 287.447C190.932 287.581 190.763 287.65 190.592 287.65ZM260.396 288.581C260.207 288.581 260.018 288.494 259.895 288.33C259.69 288.055 259.747 287.663 260.02 287.459C261.273 286.525 262.586 285.496 263.917 284.397C264.186 284.178 264.577 284.219 264.794 284.483C265.015 284.748 264.976 285.141 264.714 285.36C263.365 286.471 262.037 287.515 260.768 288.458C260.654 288.542 260.524 288.581 260.396 288.581ZM71.3301 291.909C71.207 291.909 71.0817 291.87 70.9723 291.795C69.6097 290.841 68.2516 289.835 66.9414 288.806C66.6702 288.594 66.6224 288.203 66.8366 287.932C67.0485 287.661 67.4404 287.616 67.7116 287.827C69.0058 288.84 70.3434 289.833 71.6878 290.775C71.9704 290.971 72.0387 291.36 71.8405 291.642C71.7197 291.815 71.526 291.909 71.3301 291.909ZM198.907 293.101C198.816 293.101 198.725 293.081 198.636 293.04C197.052 292.275 195.566 291.444 194.217 290.572C193.926 290.386 193.844 289.999 194.031 289.712C194.217 289.421 194.605 289.339 194.894 289.525C196.202 290.37 197.645 291.176 199.18 291.918C199.49 292.066 199.618 292.439 199.467 292.748C199.36 292.972 199.139 293.101 198.907 293.101ZM207.349 293.429C207.24 293.429 207.124 293.4 207.026 293.338C206.729 293.158 206.636 292.776 206.816 292.482C207.664 291.089 208.35 289.616 208.855 288.103C208.963 287.775 209.316 287.597 209.642 287.707C209.97 287.814 210.145 288.169 210.038 288.494C209.505 290.101 208.778 291.658 207.88 293.129C207.764 293.322 207.557 293.429 207.349 293.429ZM252.006 293.955C251.783 293.955 251.569 293.837 251.457 293.625C251.293 293.32 251.409 292.944 251.717 292.783C253.107 292.043 254.538 291.203 255.964 290.281C256.251 290.097 256.639 290.179 256.826 290.468C257.012 290.755 256.93 291.144 256.641 291.328C255.183 292.268 253.722 293.129 252.298 293.884C252.207 293.932 252.106 293.955 252.006 293.955ZM208.252 296.577C208.197 296.577 208.14 296.57 208.085 296.554C206.429 296.09 204.815 295.569 203.286 295.004C202.963 294.884 202.801 294.529 202.92 294.205C203.038 293.882 203.396 293.716 203.717 293.834C205.216 294.387 206.798 294.897 208.423 295.355C208.751 295.448 208.947 295.792 208.853 296.122C208.776 296.397 208.525 296.577 208.252 296.577ZM79.7884 297.173C79.6881 297.173 79.5833 297.148 79.4899 297.096C78.0293 296.293 76.5732 295.439 75.1582 294.56C74.8665 294.378 74.7777 293.996 74.9599 293.702C75.1422 293.409 75.5273 293.32 75.819 293.504C77.2135 294.371 78.6513 295.214 80.0892 296.004C80.3922 296.17 80.5016 296.548 80.3353 296.85C80.2213 297.055 80.0094 297.173 79.7884 297.173ZM242.773 297.674C242.502 297.674 242.251 297.494 242.174 297.219C242.083 296.889 242.276 296.545 242.609 296.452C244.168 296.015 245.735 295.482 247.255 294.865C247.576 294.738 247.941 294.89 248.071 295.209C248.196 295.53 248.046 295.892 247.725 296.022C246.159 296.655 244.55 297.203 242.942 297.652C242.887 297.667 242.83 297.674 242.773 297.674ZM218.025 298.598C217.995 298.598 217.97 298.596 217.94 298.592C216.295 298.369 214.627 298.082 212.975 297.743C212.638 297.672 212.422 297.342 212.492 297.005C212.563 296.668 212.893 296.452 213.23 296.522C214.851 296.857 216.493 297.137 218.107 297.356C218.451 297.403 218.688 297.718 218.642 298.059C218.599 298.371 218.332 298.598 218.025 298.598ZM232.95 299.288C232.622 299.288 232.351 299.035 232.328 298.705C232.307 298.362 232.569 298.068 232.913 298.043C234.59 297.941 236.238 297.756 237.806 297.504C238.143 297.447 238.466 297.679 238.521 298.018C238.576 298.357 238.346 298.68 238.006 298.735C236.395 298.994 234.707 299.181 232.991 299.288C232.977 299.288 232.964 299.288 232.95 299.288ZM227.969 299.391C227.964 299.391 227.96 299.391 227.955 299.391C226.36 299.361 224.669 299.274 222.935 299.131C222.589 299.104 222.334 298.801 222.363 298.46C222.391 298.116 222.696 297.861 223.035 297.888C224.744 298.029 226.408 298.116 227.978 298.145C228.322 298.152 228.595 298.435 228.589 298.778C228.584 299.12 228.306 299.391 227.969 299.391ZM200.604 300.688C200.413 300.688 200.226 300.602 200.103 300.44C199.898 300.164 199.953 299.773 200.231 299.566C201.568 298.571 202.792 297.481 203.872 296.331C204.107 296.081 204.501 296.067 204.754 296.304C205.005 296.536 205.018 296.932 204.781 297.183C203.651 298.389 202.37 299.525 200.978 300.565C200.867 300.649 200.734 300.688 200.604 300.688ZM88.7663 301.501C88.6842 301.501 88.6045 301.487 88.5247 301.451C86.9844 300.806 85.4463 300.114 83.9492 299.395C83.6393 299.245 83.5094 298.872 83.6598 298.562C83.8079 298.252 84.1816 298.123 84.4915 298.271C85.9681 298.983 87.4879 299.666 89.0078 300.303C89.3245 300.435 89.4749 300.8 89.3405 301.116C89.2402 301.357 89.0101 301.501 88.7663 301.501ZM98.1474 304.869C98.0882 304.869 98.0267 304.86 97.9651 304.844C96.3655 304.357 94.7614 303.827 93.2005 303.267C92.8769 303.151 92.7083 302.796 92.8245 302.47C92.9407 302.147 93.3008 301.979 93.6243 302.097C95.1647 302.65 96.7484 303.174 98.3275 303.649C98.6579 303.75 98.8447 304.1 98.7444 304.428C98.6624 304.696 98.414 304.869 98.1474 304.869ZM191.836 305.382C191.581 305.382 191.342 305.227 191.251 304.976C191.132 304.653 191.296 304.294 191.62 304.175C193.174 303.602 194.678 302.93 196.095 302.174C196.398 302.015 196.776 302.131 196.938 302.432C197.102 302.737 196.986 303.114 196.681 303.276C195.218 304.055 193.659 304.751 192.053 305.345C191.98 305.37 191.907 305.382 191.836 305.382ZM107.798 307.387C107.754 307.387 107.709 307.382 107.663 307.371C106.029 307.009 104.391 306.613 102.791 306.196C102.459 306.11 102.258 305.769 102.345 305.436C102.431 305.104 102.771 304.904 103.106 304.99C104.689 305.402 106.314 305.796 107.934 306.156C108.269 306.231 108.481 306.563 108.406 306.9C108.342 307.189 108.085 307.387 107.798 307.387ZM182.161 307.765C181.865 307.765 181.601 307.555 181.548 307.255C181.487 306.914 181.715 306.59 182.052 306.531C183.214 306.324 184.394 306.101 185.554 305.873C186.01 305.784 186.465 305.689 186.917 305.582C187.252 305.505 187.589 305.712 187.666 306.049C187.744 306.383 187.536 306.72 187.199 306.797C186.734 306.904 186.265 307.005 185.798 307.098C184.624 307.326 183.439 307.546 182.275 307.756C182.234 307.765 182.198 307.765 182.161 307.765ZM117.603 309.224C117.571 309.224 117.541 309.222 117.507 309.217C115.853 308.962 114.191 308.68 112.569 308.375C112.232 308.311 112.008 307.986 112.072 307.649C112.136 307.312 112.46 307.089 112.799 307.15C114.408 307.453 116.055 307.733 117.698 307.986C118.038 308.038 118.27 308.354 118.218 308.696C118.172 309.003 117.906 309.224 117.603 309.224ZM172.301 309.308C171.994 309.308 171.727 309.08 171.684 308.766C171.641 308.427 171.88 308.113 172.222 308.068C173.855 307.849 175.512 307.61 177.146 307.355C177.485 307.3 177.804 307.533 177.859 307.874C177.911 308.213 177.679 308.53 177.337 308.587C175.697 308.841 174.029 309.085 172.386 309.304C172.356 309.306 172.329 309.308 172.301 309.308ZM162.382 310.405C162.063 310.405 161.792 310.162 161.763 309.836C161.735 309.495 161.988 309.192 162.33 309.16C163.973 309.019 165.636 308.853 167.282 308.671C167.619 308.632 167.933 308.878 167.97 309.222C168.011 309.563 167.762 309.873 167.418 309.909C165.766 310.093 164.091 310.26 162.439 310.403C162.423 310.405 162.403 310.405 162.382 310.405ZM127.506 310.439C127.485 310.439 127.467 310.437 127.449 310.435C125.781 310.282 124.106 310.103 122.47 309.902C122.126 309.859 121.884 309.549 121.925 309.208C121.966 308.864 122.274 308.621 122.62 308.664C124.245 308.864 125.906 309.042 127.562 309.194C127.904 309.226 128.159 309.531 128.128 309.873C128.096 310.196 127.825 310.439 127.506 310.439ZM152.427 311.04C152.094 311.04 151.816 310.779 151.803 310.442C151.789 310.098 152.058 309.809 152.402 309.795C154.045 309.729 155.717 309.643 157.369 309.538C157.709 309.513 158.012 309.775 158.033 310.118C158.053 310.462 157.793 310.758 157.449 310.781C155.788 310.886 154.106 310.974 152.452 311.04C152.445 311.04 152.434 311.04 152.427 311.04ZM137.463 311.074C137.456 311.074 137.447 311.074 137.438 311.074C135.77 311.015 134.086 310.929 132.439 310.824C132.095 310.804 131.835 310.505 131.858 310.162C131.878 309.818 132.172 309.561 132.519 309.581C134.155 309.686 135.827 309.77 137.484 309.829C137.83 309.841 138.099 310.13 138.085 310.474C138.074 310.81 137.796 311.074 137.463 311.074ZM144.431 311.202C143.768 311.202 143.105 311.197 142.444 311.193C142.1 311.188 141.825 310.904 141.827 310.56C141.831 310.219 142.109 309.945 142.449 309.945C142.453 309.945 142.456 309.945 142.458 309.945C144.112 309.964 145.773 309.957 147.43 309.932C147.435 309.932 147.437 309.932 147.439 309.932C147.779 309.932 148.057 310.205 148.063 310.546C148.068 310.89 147.792 311.172 147.448 311.179C146.443 311.193 145.436 311.202 144.431 311.202Z" fill="#5479F7"/>
<path d="M336.291 48.57C336.079 48.57 335.876 48.4653 335.758 48.2741C327.694 35.1197 317.711 24.4647 306.088 16.6026C305.8 16.4068 305.725 16.0198 305.919 15.7353C306.115 15.4508 306.502 15.3779 306.787 15.5691C318.561 23.5337 328.664 34.3185 336.822 47.6254C337.002 47.9167 336.909 48.3014 336.615 48.4789C336.514 48.5404 336.4 48.57 336.291 48.57Z" fill="black"/>
<path d="M344.132 52.3872C343.895 52.3872 343.665 52.2507 343.562 52.0185C333.347 29.1332 316.683 15.5305 304.506 8.14862C304.212 7.97108 304.119 7.58867 304.297 7.29276C304.474 6.99912 304.859 6.9058 305.153 7.08334C317.485 14.5585 334.354 28.332 344.699 51.5109C344.841 51.825 344.697 52.1938 344.385 52.3326C344.303 52.3713 344.216 52.3872 344.132 52.3872Z" fill="black"/>
<path d="M23.2826 57.5634C23.1983 57.5634 23.114 57.5452 23.0319 57.5088C22.7175 57.3699 22.5739 57.0057 22.7106 56.6893C30.8135 38.245 44.6175 23.1103 63.7422 11.7086C64.0362 11.5334 64.419 11.629 64.5967 11.9272C64.7722 12.2231 64.6765 12.6032 64.3802 12.7808C45.4857 24.0436 31.8503 38.987 23.8545 57.1901C23.752 57.4245 23.5218 57.5634 23.2826 57.5634Z" fill="black"/>
<path d="M16.0296 58.244C15.9613 58.244 15.8929 58.2349 15.8268 58.2098C15.501 58.0983 15.3278 57.7432 15.4417 57.42C15.5352 57.1468 25.1784 30.005 53.0371 11.7815C53.3242 11.5926 53.7116 11.6745 53.9007 11.9613C54.0876 12.2481 54.0078 12.6351 53.7207 12.8217C26.2334 30.8063 16.711 57.5588 16.6198 57.8252C16.5309 58.0824 16.2871 58.244 16.0296 58.244Z" fill="black"/>
</svg>
