<svg width="326" height="325" viewBox="0 0 326 325" fill="none" xmlns="http://www.w3.org/2000/svg">
<path d="M79.8245 82.9925C113.703 48.9332 104.003 27.5889 127.186 11.8169C162.854 -12.4478 229.427 8.42758 268.699 41.804C316.801 82.6829 341.62 157.321 313.349 224.843C283.242 296.751 204.022 334.082 133.336 322.83C70.2109 312.785 8.15884 263.088 1.94041 203.485C1.26821 197.025 -1.7077 162.103 19.1579 131.995C36.4049 107.107 52.9707 109.991 79.8245 82.9925Z" fill="#CADDFF"/>
<path d="M52.4238 46.3861C74.8958 42.2524 95.6452 52.6571 98.7715 69.6196C100.171 77.2108 97.8008 84.8271 92.7445 91.3007L102.857 106.834L81.6201 101.068C76.4658 104.227 70.4046 106.592 63.7441 107.817C41.2721 111.948 20.5228 101.546 17.3965 84.5813C14.2702 67.6165 29.9541 50.5152 52.4238 46.3861Z" fill="#99B9FF"/>
<path d="M36.2318 49.4476C36.0449 49.4476 35.8581 49.3588 35.7441 49.1904C35.5641 48.9195 35.6348 48.5576 35.9059 48.3778C36.4049 48.0409 36.9154 47.7131 37.4235 47.399C37.6992 47.2283 38.0615 47.3148 38.2324 47.5902C38.4033 47.8633 38.3167 48.2253 38.041 48.396C37.5443 48.701 37.0452 49.0219 36.5599 49.3497C36.4596 49.4157 36.3457 49.4476 36.2318 49.4476Z" fill="black"/>
<path d="M57.2614 104C38.5719 104 22.8265 94.1005 20.1172 79.3824C18.3034 69.5399 22.5508 59.3788 31.7724 51.5076C32.0208 51.2959 32.39 51.3255 32.5996 51.5713C32.8115 51.8172 32.7819 52.1859 32.5358 52.3976C23.64 59.9888 19.5338 69.7471 21.2702 79.1707C24.3327 95.7895 44.8154 106.005 66.9342 101.935C68.5908 101.633 70.2428 101.25 71.8424 100.797C72.1569 100.711 72.4782 100.893 72.567 101.205C72.6536 101.514 72.4736 101.84 72.1614 101.928C70.5254 102.388 68.8392 102.778 67.1461 103.089C63.7988 103.706 60.4857 104 57.2614 104Z" fill="black"/>
<path d="M106.152 102.113C106.102 102.113 106.049 102.106 105.999 102.092L85.0084 96.3949C83.484 97.3168 81.8776 98.1749 80.2301 98.9398C79.9362 99.0786 79.5875 98.9511 79.4508 98.6598C79.3141 98.3662 79.4394 98.0156 79.7334 97.8813C81.4196 97.096 83.0602 96.2151 84.6097 95.2614C84.7487 95.1794 84.915 95.1544 85.0722 95.1954L104.821 100.558L95.5495 86.3135C95.4127 86.1041 95.4241 85.8309 95.5791 85.6329C100.704 79.0751 102.802 71.543 101.49 64.4229C100.013 56.4015 94.4717 49.6138 85.8857 45.3117C77.2451 40.9777 66.5696 39.6803 55.8258 41.6583C53.2943 42.1227 50.79 42.7668 48.3906 43.5726C48.083 43.6751 47.7503 43.5112 47.6478 43.2039C47.5452 42.8966 47.7093 42.5665 48.0169 42.4618C50.471 41.6378 53.0254 40.9777 55.6139 40.5043C66.6084 38.483 77.5459 39.8191 86.4121 44.2623C95.3353 48.7351 101.098 55.8211 102.645 64.209C103.996 71.543 101.907 79.2754 96.7594 86.0244L106.644 101.207C106.779 101.409 106.77 101.676 106.626 101.874C106.514 102.026 106.337 102.113 106.152 102.113Z" fill="black"/>
<path d="M62.402 69.0369C62.0784 69.0369 61.8164 68.7751 61.8141 68.4519C61.8141 68.1287 62.0762 67.8669 62.3997 67.8646L90.6663 67.7986C90.6686 67.7986 90.6686 67.7986 90.6686 67.7986C90.9922 67.7986 91.2542 68.0604 91.2565 68.3836C91.2565 68.7068 90.9945 68.9686 90.6709 68.9709L62.402 69.0369Z" fill="#5479F7"/>
<path d="M29.9951 68.222C29.6738 68.222 29.4095 67.9625 29.4095 67.6415C29.4072 67.316 29.667 67.052 29.9928 67.0497L56.9993 66.9018C57.0016 66.9018 57.0016 66.9018 57.0039 66.9018C57.3275 66.9018 57.5895 67.1612 57.5918 67.4845C57.5918 67.8077 57.332 68.0717 57.0085 68.074L29.9997 68.222C29.9974 68.222 29.9974 68.222 29.9951 68.222Z" fill="#5479F7"/>
<path d="M89.445 76.38C89.445 76.38 89.4427 76.38 89.4381 76.38L52.5081 75.9248C52.1846 75.9202 51.9248 75.6539 51.9271 75.3307C51.9316 75.012 52.1937 74.7525 52.515 74.7525C52.5172 74.7525 52.5195 74.7525 52.5218 74.7525L89.4541 75.2078C89.7777 75.2123 90.0374 75.4786 90.0329 75.8019C90.0283 76.1228 89.7663 76.38 89.445 76.38Z" fill="#5479F7"/>
<path d="M45.3532 75.8383C45.3532 75.8383 45.3486 75.8383 45.3463 75.8383L28.7646 75.6334C28.4411 75.6289 28.1813 75.3648 28.1859 75.0393C28.1904 74.7184 28.4525 74.4611 28.7715 74.4611C28.776 74.4611 28.7783 74.4611 28.7806 74.4611L45.36 74.666C45.6859 74.6706 45.9433 74.9369 45.9411 75.2601C45.9365 75.5811 45.6745 75.8383 45.3532 75.8383Z" fill="#5479F7"/>
<path d="M90.5 82.6465C90.4977 82.6465 90.4977 82.6465 90.4954 82.6465L76.9648 82.5623C76.639 82.56 76.3792 82.2959 76.3815 81.9727C76.3838 81.6495 76.6458 81.39 76.9671 81.39C76.9694 81.39 76.9694 81.39 76.9717 81.39L90.5023 81.472C90.8281 81.4742 91.0879 81.7383 91.0856 82.0615C91.0856 82.387 90.8213 82.6465 90.5 82.6465Z" fill="#5479F7"/>
<path d="M73.7428 82.6123C73.7383 82.6123 73.736 82.6123 73.7337 82.6123L29.8174 81.8976C29.4938 81.8908 29.234 81.6267 29.2386 81.3012C29.2454 80.978 29.5075 80.714 29.8356 80.7253L73.7519 81.4401C74.0755 81.4469 74.3353 81.7132 74.3284 82.0364C74.3239 82.3574 74.0618 82.6123 73.7428 82.6123Z" fill="#5479F7"/>
<path d="M275.991 307.843H130.481C124.208 307.843 119.767 302.79 120.558 296.56L156.389 14.3549C157.178 8.12256 162.904 3.07159 169.173 3.07159L307.379 1.4623C323.243 1.4623 325.394 8.12256 324.606 14.3549L288.776 296.56C287.986 302.79 282.259 307.843 275.991 307.843Z" fill="#5479F7"/>
<path d="M267.232 307.843H121.724C115.453 307.843 111.012 302.765 111.803 296.501L147.632 12.8571C148.423 6.59293 154.147 1.51692 160.418 1.51692H305.928C312.199 1.51692 316.642 6.59293 315.849 12.8571L280.022 296.501C279.229 302.765 273.503 307.843 267.232 307.843Z" fill="white"/>
<path d="M120.095 296.893L154.304 26.0593C154.489 24.6139 155.811 23.4416 157.257 23.4416H303.549C304.998 23.4416 306.023 24.6139 305.839 26.0593L271.627 296.893C271.447 298.338 270.126 299.51 268.676 299.51H122.385C120.938 299.51 119.913 298.338 120.095 296.893Z" fill="#CADDFF"/>
<path d="M231.352 15.9414C229.003 15.9414 227.34 14.0385 227.636 11.6917C227.932 9.34717 230.074 7.44424 232.423 7.44424C234.772 7.44424 236.438 9.34717 236.142 11.6917C235.846 14.0385 233.702 15.9414 231.352 15.9414Z" fill="#CADDFF"/>
<path d="M267.234 308.428H147.131C146.805 308.428 146.543 308.167 146.543 307.843C146.543 307.518 146.805 307.256 147.131 307.256H267.234C273.206 307.256 278.684 302.399 279.436 296.428L315.266 12.7866C315.628 9.9094 314.849 7.21206 313.067 5.19532C311.308 3.20134 308.774 2.10192 305.928 2.10192H160.418C154.443 2.10192 148.968 6.96168 148.214 12.9322L124.636 199.572C124.598 199.893 124.306 200.121 123.982 200.08C123.661 200.039 123.433 199.745 123.474 199.424L147.049 12.7866C147.874 6.24922 153.874 0.929657 160.418 0.929657H305.928C309.113 0.929657 311.962 2.1702 313.949 4.41912C315.954 6.69308 316.838 9.71592 316.43 12.9322L280.601 296.576C279.776 303.111 273.778 308.428 267.234 308.428Z" fill="black"/>
<path d="M268.679 300.097H221.055C220.731 300.097 220.467 299.833 220.467 299.508C220.467 299.187 220.731 298.923 221.055 298.923H268.679C269.839 298.923 270.9 297.981 271.048 296.82L305.258 25.9864C305.328 25.4515 305.185 24.9553 304.861 24.5888C304.54 24.2269 304.077 24.0289 303.549 24.0289H157.257C156.1 24.0289 155.034 24.9712 154.888 26.1344L131.21 213.575C131.169 213.896 130.875 214.124 130.556 214.085C130.235 214.044 130.005 213.751 130.046 213.43L153.723 25.9864C153.942 24.2588 155.528 22.8543 157.257 22.8543H303.549C304.417 22.8543 305.196 23.1935 305.739 23.8126C306.292 24.4363 306.534 25.2581 306.424 26.1344L272.211 296.965C271.994 298.691 270.408 300.097 268.679 300.097Z" fill="black"/>
<path d="M139.065 186.142C139.065 186.117 139.065 186.095 139.065 186.072C139.215 178.392 143.973 170.568 153.206 162.813C159.68 157.378 166.048 153.954 166.317 153.811C168.452 152.673 171.109 153.476 172.253 155.611C173.395 157.744 172.588 160.398 170.451 161.539C164.228 164.875 148.038 175.808 147.835 186.238C147.835 186.256 147.835 186.272 147.835 186.288C147.781 189.593 148.76 192.17 150.832 194.157C155.788 198.912 165.841 199.417 169.296 199.21C171.713 199.067 173.789 200.906 173.935 203.323C174.078 205.734 172.235 207.814 169.817 207.958C169.154 207.999 153.466 208.832 144.757 200.476C140.885 196.761 138.969 191.938 139.065 186.142Z" fill="black"/>
<path d="M170.157 217.42L170.583 191.476C170.624 189.056 172.618 187.128 175.04 187.167C177.462 187.208 179.395 189.199 179.356 191.619L178.927 217.566C178.889 219.983 176.893 221.913 174.47 221.872C172.05 221.834 170.118 219.84 170.157 217.42Z" fill="#5479F7"/>
<path d="M134.74 107.833H143.902C144.267 107.833 144.563 107.539 144.563 107.175V79.8103C144.563 79.4484 144.267 79.1547 143.902 79.1547H134.74C132.812 79.1547 131.254 80.7117 131.254 82.6351V104.353C131.254 106.276 132.812 107.833 134.74 107.833Z" fill="#5479F7"/>
<path d="M270.937 107.833H261.665V81.9249H270.937C273.168 81.9249 274.972 83.73 274.972 85.9561V103.8C274.972 106.026 273.168 107.833 270.937 107.833Z" fill="white"/>
<path d="M262.253 107.246H263.538C269.52 107.246 274.387 102.386 274.387 96.4109V93.3471C274.387 87.3719 269.52 82.5122 263.538 82.5122H262.253V107.246ZM263.538 108.418H261.667C261.341 108.418 261.082 108.156 261.082 107.831V81.9249C261.082 81.6017 261.341 81.3376 261.667 81.3376H263.538C270.167 81.3376 275.563 86.7255 275.563 93.3471V96.4109C275.563 103.032 270.167 108.418 263.538 108.418Z" fill="black"/>
<path d="M265.86 93.8069C265.86 65.9685 237.767 37.1696 203.113 37.1696C168.462 37.1696 140.368 65.9685 140.368 93.8069C140.368 121.647 168.462 137.986 203.113 137.986C237.767 137.986 265.86 121.647 265.86 93.8069Z" fill="white"/>
<path d="M203.113 37.7569C167.536 37.7569 140.956 67.3502 140.956 93.8069C140.956 106.875 147.22 117.953 159.071 125.852C170.253 133.3 185.893 137.399 203.113 137.399C220.335 137.399 235.973 133.3 247.155 125.852C259.006 117.953 265.272 106.875 265.272 93.8069C265.272 67.3502 238.689 37.7569 203.113 37.7569ZM203.113 138.574C185.665 138.574 169.79 134.401 158.422 126.826C146.227 118.702 139.783 107.284 139.783 93.8069C139.783 80.0015 146.548 65.7204 158.342 54.6238C170.713 42.9922 186.611 36.5846 203.113 36.5846C219.617 36.5846 235.518 42.9922 247.882 54.6238C259.678 65.7204 266.443 80.0015 266.443 93.8069C266.443 107.284 260.002 118.702 247.806 126.826C236.436 134.401 220.563 138.574 203.113 138.574Z" fill="black"/>
<path d="M187.397 146.351H218.831C232.608 146.351 243.775 157.505 243.775 171.267C243.775 180.361 242.889 189.431 241.125 198.35L236.607 221.215C233.449 237.191 219.419 248.709 203.115 248.709C186.809 248.709 172.782 237.191 169.624 221.215L165.103 198.35C163.341 189.431 162.453 180.361 162.453 171.267C162.453 157.505 173.623 146.351 187.397 146.351Z" fill="white"/>
<path d="M187.397 146.936C173.967 146.936 163.041 157.851 163.041 171.267C163.041 180.304 163.929 189.377 165.679 198.238L170.2 221.101C173.295 236.759 187.135 248.122 203.113 248.122C219.091 248.122 232.936 236.759 236.03 221.101L240.551 198.238C242.301 189.377 243.19 180.304 243.19 171.267C243.19 157.851 232.264 146.936 218.831 146.936H187.397ZM203.113 249.294C186.577 249.294 172.251 237.533 169.047 221.326L164.529 198.466C162.763 189.529 161.867 180.379 161.867 171.267C161.867 157.207 173.32 145.764 187.397 145.764H218.831C232.909 145.764 244.361 157.207 244.361 171.267C244.361 180.379 243.468 189.529 241.702 198.466L237.183 221.326C233.977 237.533 219.651 249.294 203.113 249.294Z" fill="black"/>
<path d="M201.094 201.559H205.136C213.469 201.559 220.223 194.813 220.223 186.491V146.351H186.005V186.491C186.005 194.813 192.761 201.559 201.094 201.559Z" fill="#CADDFF"/>
<path d="M220.223 146.936H186.005C185.681 146.936 185.419 146.675 185.419 146.351C185.419 146.026 185.681 145.764 186.005 145.764H220.223C220.547 145.764 220.811 146.026 220.811 146.351C220.811 146.675 220.547 146.936 220.223 146.936Z" fill="black"/>
<path d="M160.931 85.4531H221.349C227.627 85.4531 232.717 90.9297 232.717 97.6878V105.668C232.717 110.822 229.962 116.282 225.214 117.172C208.47 120.316 173.81 120.316 157.066 117.172C152.317 116.282 149.565 110.822 149.565 105.668V97.6878C149.565 90.9297 154.653 85.4531 160.931 85.4531Z" fill="black"/>
<path d="M205.339 101.514C205.339 103.779 207.044 105.614 209.147 105.614C211.25 105.614 212.954 103.779 212.954 101.514C212.954 99.2516 211.25 97.4147 209.147 97.4147C207.044 97.4147 205.339 99.2516 205.339 101.514Z" fill="#5479F7"/>
<path d="M164.829 101.514C164.829 103.779 166.534 105.614 168.635 105.614C170.738 105.614 172.445 103.779 172.445 101.514C172.445 99.2516 170.738 97.4147 168.635 97.4147C166.534 97.4147 164.829 99.2516 164.829 101.514Z" fill="#5479F7"/>
<path d="M228.046 125.61C227.798 125.61 227.57 125.456 227.488 125.208C227.387 124.902 227.554 124.57 227.861 124.47L247.155 118.124C255.95 115.231 261.314 106.497 259.915 97.3555L258.525 88.2915C258.475 87.9706 258.694 87.6724 259.015 87.6223C259.339 87.5745 259.635 87.7953 259.683 88.114L261.073 97.1757C262.563 106.886 256.862 116.166 247.519 119.237L228.228 125.581C228.169 125.604 228.105 125.61 228.046 125.61Z" fill="#5479F7"/>
<path d="M268.187 84.3924C267.924 84.3924 267.687 84.2194 267.619 83.9576C267.587 83.837 264.352 71.8799 255.852 60.2756C248.036 49.6115 234.041 37.0626 211.687 37.8616C211.371 37.8684 211.09 37.6203 211.081 37.2948C211.07 36.9716 211.321 36.7007 211.646 36.6893C221.739 36.3319 231.04 38.5854 239.266 43.386C245.84 47.2214 251.746 52.6798 256.821 59.6133C265.441 71.3928 268.72 83.5342 268.752 83.6549C268.836 83.969 268.647 84.2899 268.335 84.3719C268.284 84.3855 268.234 84.3924 268.187 84.3924Z" fill="#5479F7"/>
<path d="M251.732 97.9246C250.698 89.762 255.932 82.3824 263.422 81.4355C264.242 81.3308 267.286 81.2534 268.086 81.3081C274.585 81.7428 277.935 87.2308 278.855 94.4966C279.846 102.331 276.859 109.649 269.845 111.045C269.554 111.102 267.48 111.268 267.177 111.268C258.967 111.295 252.765 106.085 251.732 97.9246Z" fill="#99B9FF"/>
<path d="M254.968 97.6582C254.098 89.4797 259.475 82.2026 266.981 81.4014C274.487 80.6024 281.282 86.5844 282.157 94.7629C283.03 102.941 277.65 110.219 270.146 111.02C262.638 111.819 255.843 105.837 254.968 97.6582Z" fill="#5479F7"/>
<path d="M232.396 127.88L217.368 129.307C216.794 129.362 216.279 128.936 216.227 128.362L215.787 123.746C215.732 123.17 216.158 122.656 216.732 122.604L231.758 121.176C232.332 121.124 232.847 121.547 232.902 122.121L233.339 126.739C233.394 127.313 232.97 127.827 232.396 127.88Z" fill="#5479F7"/>
<path d="M170.788 234.836H229.292L206.567 173.452H148.065L170.788 234.836Z" fill="#99B9FF"/>
<path d="M171.196 234.251H228.449L206.159 174.04H148.909L171.196 234.251ZM229.292 235.423H170.788C170.544 235.423 170.323 235.268 170.239 235.04L147.514 173.655C147.448 173.477 147.473 173.275 147.582 173.118C147.692 172.961 147.874 172.867 148.065 172.867H206.567C206.813 172.867 207.032 173.02 207.119 173.25L229.844 234.633C229.908 234.813 229.885 235.015 229.773 235.172C229.664 235.329 229.484 235.423 229.292 235.423Z" fill="black"/>
<path d="M243.249 219.594C251.842 219.594 263.47 218.374 270.921 212.665C275.216 209.376 277.725 205.031 278.379 199.754C281.312 176.07 252.694 162.51 251.477 161.944C249.278 160.926 246.672 161.878 245.651 164.074C244.632 166.269 245.585 168.87 247.777 169.89C248.018 170.004 271.821 181.335 269.672 198.682C269.314 201.577 267.977 203.879 265.582 205.711C257.388 211.987 235.777 211.83 229.584 210.96C227.185 210.621 226.009 212.21 225.674 214.604C225.337 217.001 227.178 219.291 229.584 219.555C233.059 219.938 237.129 219.594 243.249 219.594Z" fill="black"/>
<path d="M210.876 225.558H219.298C223.901 225.558 227.718 222.107 228.173 217.534L228.467 214.604C228.718 212.105 227.893 209.603 226.205 207.739C224.519 205.877 222.105 204.81 219.59 204.81H206.155C203.735 204.81 201.771 206.77 201.771 209.191C201.771 211.609 203.735 213.571 206.155 213.571H219.59C219.615 213.571 219.656 213.571 219.701 213.619C219.745 213.667 219.743 213.708 219.738 213.733L219.446 216.662C219.439 216.737 219.376 216.794 219.298 216.794H210.876C208.454 216.794 206.49 218.754 206.49 221.176C206.49 223.595 208.454 225.558 210.876 225.558Z" fill="black"/>
<path d="M114.884 12.9095C120.15 11.2592 125.76 14.1887 127.409 19.4514C129.059 24.7118 126.129 30.3136 120.861 31.9638C115.595 33.6141 109.985 30.6823 108.335 25.4219C106.685 20.1593 109.616 14.5575 114.884 12.9095ZM98.1266 26.5851L99.2864 30.2863L103.513 29.9403C103.937 30.7506 104.418 31.5131 104.958 32.2233L102.848 35.8926L105.708 38.5171L109.194 36.1066C109.957 36.5891 110.757 37.0057 111.589 37.3562L111.596 41.5923L115.385 42.4391L117.197 38.615C118.09 38.6514 118.994 38.6104 119.899 38.4966L122.027 42.1591L125.732 41.0005L125.384 36.7781C126.193 36.357 126.958 35.8744 127.672 35.3349L131.342 37.4427L133.97 34.5883L131.557 31.1034C132.04 30.3454 132.459 29.5442 132.808 28.7157L137.048 28.7043L137.898 24.9212L134.068 23.1116C134.104 22.2193 134.065 21.3179 133.951 20.4097L137.618 18.2859L136.458 14.5871L132.231 14.9331C131.81 14.1227 131.326 13.3579 130.784 12.6477L132.896 8.97842L130.037 6.3562L126.55 8.76673C125.789 8.28417 124.987 7.86762 124.156 7.51481L124.146 3.27873L120.359 2.43425L118.548 6.25832C117.655 6.21963 116.752 6.25832 115.845 6.37669L113.719 2.71195L110.014 3.87283L110.361 8.09297C109.552 8.51635 108.786 8.99663 108.075 9.53838L104.402 7.42831L101.775 10.2827L104.188 13.7653C103.705 14.5279 103.285 15.3291 102.937 16.1577L98.6963 16.1668L97.8486 19.9522L101.677 21.7618C101.64 22.654 101.679 23.5554 101.795 24.4591L98.1266 26.5851Z" fill="#99B9FF"/>
<path d="M76.2539 9.78649C79.7471 8.69389 83.4658 10.6355 84.5618 14.125C85.6556 17.6145 83.7119 21.3293 80.2187 22.4219C76.7256 23.5167 73.0068 21.5751 71.9108 18.0856C70.8171 14.5962 72.7607 10.8814 76.2539 9.78649ZM65.1409 18.8573L65.9111 21.3111L68.7139 21.0812C68.9941 21.6184 69.3131 22.126 69.6732 22.5949L68.2741 25.0304L70.1676 26.7717L72.4805 25.1716C72.9863 25.4902 73.5172 25.7679 74.0687 26.0024L74.0732 28.809L76.5866 29.3712L77.7874 26.8355C78.3799 26.8605 78.9792 26.8332 79.5807 26.7581L80.9912 29.1868L83.4476 28.4175L83.2174 25.6177C83.7552 25.34 84.2633 25.019 84.735 24.6594L87.1686 26.057L88.9118 24.1632L87.3122 21.8551C87.6312 21.3498 87.9092 20.8194 88.1416 20.2685L90.9534 20.2617L91.5163 17.7533L88.9779 16.5537C89.0006 15.9619 88.9756 15.3633 88.8981 14.7623L91.3317 13.3533L90.5615 10.8973L87.7588 11.1295C87.4785 10.5923 87.1572 10.0869 86.7995 9.61349L88.2008 7.18247L86.305 5.44115L83.9922 7.04135C83.4863 6.7204 82.9554 6.4427 82.404 6.21052L82.3971 3.40165L79.8861 2.83942L78.6852 5.37742C78.0928 5.35238 77.4935 5.37742 76.8919 5.45481L75.4814 3.02607L73.0251 3.79316L73.2529 6.5952C72.7174 6.8729 72.2116 7.19385 71.7376 7.55122L69.3018 6.15134L67.5609 8.04517L69.1605 10.3578C68.8415 10.8609 68.5635 11.3935 68.331 11.9421L65.5192 11.9489L64.9564 14.4573L67.4948 15.6592C67.472 16.2487 67.4971 16.8474 67.5745 17.4483L65.1409 18.8573Z" fill="#CADDFF"/>
<path d="M270.928 39.4139C270.898 39.4139 270.869 39.4117 270.834 39.4071C270.515 39.357 270.297 39.0589 270.347 38.7356L270.821 35.7356C270.873 35.4169 271.174 35.1984 271.491 35.2484C271.812 35.2985 272.031 35.599 271.98 35.9177L271.507 38.9177C271.461 39.2068 271.21 39.4139 270.928 39.4139Z" fill="black"/>
<path d="M269.269 49.921C269.239 49.921 269.207 49.9188 269.178 49.9119C268.856 49.8619 268.64 49.5637 268.688 49.2427L269.162 46.2404C269.212 45.9217 269.517 45.7032 269.832 45.7533C270.153 45.8056 270.374 46.1038 270.322 46.4248L269.85 49.4248C269.804 49.7139 269.551 49.921 269.269 49.921Z" fill="black"/>
<path d="M266.644 42.5278C266.61 42.5278 266.578 42.5256 266.544 42.5187L263.59 42.0089C263.271 41.9542 263.057 41.6515 263.112 41.3328C263.167 41.0119 263.47 40.8002 263.791 40.8548L266.744 41.3647C267.061 41.4193 267.277 41.7221 267.223 42.043C267.173 42.3275 266.924 42.5278 266.644 42.5278Z" fill="black"/>
<path d="M276.982 44.3124C276.948 44.3124 276.914 44.3101 276.88 44.3033L273.926 43.7957C273.607 43.7411 273.393 43.4361 273.45 43.1174C273.505 42.7987 273.803 42.5847 274.129 42.6394L277.08 43.1493C277.399 43.2039 277.616 43.5066 277.561 43.8253C277.508 44.1121 277.262 44.3124 276.982 44.3124Z" fill="black"/>
<path d="M255.684 247.107C255.654 247.107 255.622 247.107 255.59 247.1C255.271 247.05 255.052 246.749 255.103 246.431L255.577 243.428C255.627 243.107 255.927 242.889 256.249 242.939C256.565 242.991 256.786 243.289 256.734 243.61L256.262 246.611C256.217 246.9 255.966 247.107 255.684 247.107Z" fill="black"/>
<path d="M254.022 257.614C253.993 257.614 253.961 257.612 253.931 257.605C253.61 257.557 253.394 257.256 253.441 256.938L253.915 253.935C253.965 253.614 254.269 253.398 254.588 253.446C254.907 253.498 255.125 253.797 255.075 254.118L254.601 257.118C254.556 257.407 254.307 257.614 254.022 257.614Z" fill="black"/>
<path d="M251.4 250.223C251.366 250.223 251.331 250.218 251.297 250.214L248.346 249.704C248.023 249.649 247.811 249.344 247.866 249.026C247.92 248.707 248.223 248.493 248.545 248.548L251.498 249.057C251.817 249.114 252.031 249.417 251.976 249.736C251.926 250.02 251.678 250.223 251.4 250.223Z" fill="black"/>
<path d="M261.736 252.005C261.701 252.005 261.667 252.005 261.635 251.998L258.682 251.489C258.363 251.432 258.149 251.129 258.204 250.81C258.258 250.492 258.559 250.28 258.883 250.334L261.836 250.842C262.155 250.899 262.369 251.202 262.314 251.52C262.264 251.805 262.016 252.005 261.736 252.005Z" fill="black"/>
<path d="M221.759 262.487C222.714 262.353 223.778 262.428 224.947 262.82L238.831 265.87C238.831 265.87 235.764 269.632 232.569 269.849C234.299 272.535 235.29 274.92 235.29 274.92C235.29 274.92 241.442 276.445 242.711 277.01C243.978 277.57 245.801 278.189 246.69 279.511C247.581 280.834 247.476 282.83 247.476 282.83L232.742 281.904L219.519 270.843L195.254 282.869L196.334 267.934L221.759 262.487Z" fill="white"/>
<path d="M232.97 281.33L246.879 282.204C246.838 281.573 246.694 280.57 246.2 279.837C245.534 278.847 244.151 278.259 243.039 277.788C242.841 277.704 242.652 277.624 242.472 277.545C241.469 277.098 236.846 275.91 235.146 275.489C234.966 275.446 234.818 275.316 234.747 275.145C234.738 275.12 233.752 272.771 232.075 270.165C231.961 269.992 231.951 269.771 232.045 269.585C232.138 269.4 232.323 269.277 232.53 269.264C234.606 269.122 236.687 267.281 237.714 266.227L224.819 263.391C224.801 263.389 224.778 263.384 224.76 263.375C223.764 263.043 222.789 262.938 221.859 263.065L196.885 268.417L195.912 281.888L219.257 270.317C219.465 270.215 219.715 270.245 219.893 270.395L232.97 281.33ZM195.254 283.456C195.138 283.456 195.024 283.422 194.926 283.356C194.753 283.237 194.652 283.037 194.668 282.828L195.746 267.893C195.767 267.632 195.953 267.415 196.209 267.361L221.634 261.914C221.647 261.911 221.661 261.909 221.675 261.907C222.78 261.752 223.935 261.868 225.102 262.253L238.954 265.301C239.154 265.342 239.316 265.485 239.384 265.679C239.451 265.872 239.414 266.084 239.284 266.241C239.166 266.389 236.568 269.539 233.535 270.286C234.684 272.175 235.436 273.796 235.711 274.422C236.955 274.733 241.793 275.96 242.948 276.472C243.121 276.552 243.306 276.629 243.497 276.707C244.751 277.242 246.312 277.902 247.175 279.183C248.164 280.654 248.068 282.768 248.062 282.86C248.055 283.014 247.984 283.162 247.868 283.267C247.749 283.369 247.597 283.422 247.439 283.413L232.703 282.488C232.58 282.482 232.46 282.434 232.364 282.354L219.435 271.54L195.514 283.394C195.432 283.435 195.34 283.456 195.254 283.456Z" fill="black"/>
<path d="M221.055 275.125C221.055 275.125 212.257 261.449 212.243 261.429C211.551 260.352 205.765 262.071 204.694 262.134C200.857 262.355 196.867 261.729 193.044 261.306C184.877 260.402 176.754 259.091 168.719 257.373C162.157 255.973 155.555 254.268 149.743 250.922C142.086 246.517 138.069 239.652 135.004 231.644C132.687 225.594 129.923 220.536 126.466 214.996C121.351 206.799 112.856 200.071 105.806 196.574C94.8499 191.148 82.11 188.526 69.9739 190.945C46.5517 195.614 30.5351 209.248 30.5351 209.248C17.7907 219.412 -5.74546 254.846 2.64451 271.909C12.9372 292.834 40.6819 280.592 40.6819 280.592C40.6819 280.592 43.3753 284.983 37.5875 298.342C30.5556 314.572 40.7458 316.744 40.7458 316.744C64.4277 328.309 127.166 325.723 121.815 312.81C116.089 298.984 115.993 281.457 115.993 281.457C123.909 289.276 141.054 290.929 141.054 290.929C141.054 290.929 155.526 292.297 164.718 290.733C216.154 283.114 221.055 275.125 221.055 275.125Z" fill="#5479F7"/>
<path d="M41.0351 270.386C40.7936 270.386 40.5657 270.233 40.4814 269.99C32.6406 247.33 36.2819 229.024 36.3206 228.842C36.3867 228.524 36.6989 228.319 37.0133 228.385C37.3301 228.451 37.5351 228.763 37.4691 229.079C37.4326 229.259 33.862 247.266 41.5911 269.607C41.6959 269.915 41.5342 270.247 41.2288 270.354C41.165 270.374 41.0989 270.386 41.0351 270.386Z" fill="black"/>
<path d="M115.529 282.165C115.381 282.165 115.232 282.111 115.118 281.999C102.862 270.042 94.3281 242.27 93.9704 241.093C93.8769 240.783 94.0524 240.456 94.3623 240.362C94.6722 240.269 95.0003 240.444 95.0937 240.754C95.1803 241.038 103.898 269.416 115.937 281.159C116.169 281.387 116.173 281.758 115.948 281.988C115.832 282.106 115.681 282.165 115.529 282.165Z" fill="black"/>
<path d="M83.3473 135.53C88.0824 135.551 92.4437 138.107 94.8203 142.197C95.9209 144.091 96.9212 145.858 97.124 146.356C97.5843 147.492 98.5983 151.307 102.319 154.985C102.686 155.349 102.739 155.923 102.42 156.328L100.036 159.374C99.8721 159.585 99.8037 159.852 99.8493 160.114C100.134 161.739 101.551 167.634 101.132 168.697C100.243 170.951 94.8477 171.563 93.248 171.695C92.9495 171.72 92.6807 171.889 92.5348 172.15C92.0176 173.086 90.6504 175.763 89.527 182.441C87.8157 192.618 97.5273 194.2 95.5495 195.199C81.7523 202.156 56.3431 200.571 57.8174 197.681C59.0296 195.3 72.9704 189.138 74.2669 172.398C75.0758 161.96 60.4424 161.101 70.9879 141.232C73.4375 136.614 78.7445 135.507 83.3473 135.53Z" fill="white"/>
<path d="M58.3597 197.91C58.4212 197.986 58.6445 198.188 59.3577 198.436C64.3183 200.164 83.3108 200.555 95.014 194.81C94.8248 194.66 94.5651 194.478 94.3349 194.319C92.1862 192.816 87.7132 189.693 88.9482 182.343C89.7389 177.647 90.7711 174.122 92.0221 171.866C92.2614 171.436 92.7011 171.151 93.2002 171.11C96.2285 170.86 99.9791 170.02 100.588 168.481C100.845 167.81 99.9791 163.667 99.61 161.898C99.4642 161.199 99.3388 160.594 99.2705 160.216C99.1976 159.793 99.3069 159.353 99.5735 159.014L101.957 155.969C102.089 155.8 102.066 155.561 101.907 155.402C98.5709 152.106 97.3633 148.739 96.7822 147.123C96.7024 146.9 96.6364 146.716 96.5794 146.575C96.4883 146.349 96.0713 145.516 94.3121 142.491C92.0381 138.578 87.8362 136.136 83.345 136.115C83.304 136.115 83.263 136.115 83.222 136.115C79.1523 136.115 73.8659 137.06 71.5052 141.508C64.9814 153.802 68.2604 158.511 71.4323 163.066C73.2689 165.699 75.1647 168.422 74.8525 172.444C73.8362 185.56 65.3278 192.215 60.7568 195.791C59.6084 196.69 58.6126 197.469 58.3597 197.91ZM69.999 200.717C63.678 200.717 58.6992 199.914 57.553 198.766C57.1543 198.368 57.0608 197.874 57.2955 197.414C57.6351 196.745 58.5898 195.998 60.0345 194.867C64.4619 191.405 72.706 184.956 73.6836 172.353C73.9616 168.747 72.2663 166.314 70.4707 163.735C67.2555 159.119 63.6097 153.886 70.4684 140.959C72.5579 137.021 76.9648 134.941 83.2197 134.941C83.263 134.941 83.3063 134.941 83.3519 134.941C88.2555 134.963 92.8447 137.633 95.3261 141.904C97.3883 145.452 97.598 145.967 97.6663 146.135C97.7301 146.285 97.8008 146.488 97.8873 146.727C98.4388 148.264 99.5872 151.459 102.732 154.569C103.313 155.145 103.379 156.057 102.882 156.69L100.499 159.736C100.435 159.815 100.41 159.916 100.428 160.013C100.49 160.375 100.615 160.969 100.758 161.659C101.627 165.816 102.007 168.08 101.679 168.911C100.695 171.404 95.4902 172.096 93.2982 172.278C93.1911 172.287 93.0976 172.346 93.0475 172.435C91.5709 175.098 90.6344 179.4 90.1058 182.537C88.9938 189.156 92.9062 191.89 95.0094 193.358C95.9026 193.982 96.445 194.36 96.4017 194.954C96.3857 195.177 96.2695 195.491 95.8138 195.721C88.5586 199.379 78.1611 200.717 69.999 200.717Z" fill="black"/>
<path d="M91.3932 151.621L96.9121 144.719C99.7445 141.178 98.7555 135.963 94.8363 133.68C93.7493 133.047 92.4733 132.384 91.0469 131.772C76.8714 125.674 60.6269 135.737 60.6133 151.154C60.6064 157.466 64.831 164.78 73.8066 171.283C73.8066 171.283 80.1139 166.314 80.0342 160.94C80.0342 160.94 75.4564 155.513 81.9049 152.768C83.14 152.242 84.5504 152.283 85.7536 152.877C87.695 153.831 90.042 153.31 91.3932 151.621Z" fill="black"/>
<path d="M82.9827 163.995C81.1484 163.995 78.806 163.214 77.0651 159.925C76.9124 159.638 77.0218 159.283 77.3089 159.133C77.596 158.98 77.9515 159.089 78.1019 159.376C80.8499 164.566 85.1657 162.408 85.348 162.315C85.6351 162.164 85.9883 162.276 86.1387 162.563C86.2891 162.847 86.1797 163.2 85.8926 163.35C85.8675 163.364 84.6302 163.995 82.9827 163.995Z" fill="black"/>
<path d="M68.0006 136.518C68.0006 136.518 63.2132 119.977 45.7497 123.091C34.8463 125.035 25.3239 132.353 20.0921 144.296C16.223 153.132 16.3825 160.956 15.5303 170.218C14.7692 178.503 7.38183 184.037 5.7093 191.917C3.66764 201.536 13.0397 208.474 22.07 206.685C32.1575 204.691 41.5159 194.157 45.6471 185.33C49.915 176.209 50.6191 166.077 52.7793 156.369C53.7135 152.165 54.4199 146.358 57.7718 143.447C59.4922 141.951 65.1501 141.785 66.1299 139.976C66.1322 139.973 68.0006 136.518 68.0006 136.518Z" fill="black"/>
</svg>
