<svg width="148" height="148" viewBox="0 0 148 148" fill="none" xmlns="http://www.w3.org/2000/svg">
<rect width="148" height="148" rx="24" fill="#E3E6ED"/>
<g clip-path="url(#clip0_57_1871)">
<path opacity="0.98" fill-rule="evenodd" clip-rule="evenodd" d="M69.8006 23.9023C72.4047 23.9023 75.009 23.9023 77.6131 23.9023C90.2147 25.6594 99.8827 31.9094 106.617 42.6523C113.582 55.5195 113.648 68.4102 106.812 81.3242C99.2465 93.5926 88.2114 99.9078 73.7069 100.27C59.0581 99.833 47.9579 93.3877 40.4061 80.9336C35.3196 71.4904 34.2128 61.5947 37.0858 51.2461C41.1894 38.5099 49.5553 29.9487 62.1835 25.5625C64.7135 24.8421 67.2526 24.2887 69.8006 23.9023ZM73.5116 35.8164C84.9868 36.3916 93.1573 41.8603 98.0233 52.2227C102.054 63.9322 99.5473 73.9908 90.5038 82.3984C79.3081 90.5996 68.1102 90.5996 56.91 82.3984C48.0319 74.1979 45.4602 64.3346 49.1952 52.8086C53.8782 42.2476 61.9836 36.5836 73.5116 35.8164Z" fill="#031555"/>
<path opacity="0.969" fill-rule="evenodd" clip-rule="evenodd" d="M70.7773 41.6758C80.9617 40.9223 88.2859 45.0889 92.75 54.1758C95.6908 62.182 94.4539 69.4738 89.0391 76.0508C82.2219 82.7916 74.3117 84.4518 65.3086 81.0313C57.4621 77.2244 53.4256 70.942 53.1992 62.1836C53.5117 52.9926 57.8736 46.5799 66.2852 42.9453C67.7818 42.4255 69.2791 42.0023 70.7773 41.6758ZM73.1211 46.9492C72.4912 47.2838 71.9377 47.7395 71.4609 48.3164C70.4518 50.3346 69.4428 52.3529 68.4336 54.3711C66.1752 54.8287 63.8965 55.1867 61.5977 55.4453C59.7334 55.9506 58.9846 57.1551 59.3516 59.0586C60.9609 61.0596 62.7187 62.9477 64.625 64.7227C64.3428 67.1654 63.9848 69.6068 63.5508 72.0469C63.8111 74.1301 64.983 75.0416 67.0664 74.7813C69.2895 73.7836 71.4705 72.7094 73.6094 71.5586C75.5932 72.6295 77.5787 73.7037 79.5664 74.7813C81.5078 75.4373 82.8426 74.8189 83.5703 72.9258C83.2916 70.2588 83.0313 67.5895 82.7891 64.918C84.541 63.3615 86.2338 61.7338 87.8672 60.0352C88.7105 58.1662 88.2223 56.7664 86.4023 55.8359C84.0646 55.409 81.7209 55.0184 79.3711 54.6641C78.2037 52.4272 77.0645 50.1811 75.9531 47.9258C75.1396 47.2314 74.1957 46.9059 73.1211 46.9492Z" fill="#031555"/>
<path opacity="0.919" fill-rule="evenodd" clip-rule="evenodd" d="M73.707 56.3242C74.1742 57.0621 74.5975 57.8434 74.9766 58.668C76.0373 59.8461 77.3719 60.3994 78.9805 60.3281C79.0697 60.409 79.135 60.5066 79.1758 60.6211C78.2568 61.3125 77.5082 62.1588 76.9297 63.1602C76.8621 63.4957 76.7645 63.8213 76.6367 64.1367C77.6254 66.8334 77.0395 67.3867 74.8789 65.7969C74.5033 65.6391 74.1127 65.5414 73.707 65.5039C72.5375 65.7953 71.4307 66.2512 70.3867 66.8711C70.3217 66.7408 70.2564 66.6107 70.1914 66.4805C70.5217 65.392 70.6193 64.2854 70.4844 63.1602C69.8465 62.1635 69.0977 61.252 68.2383 60.4258C69.5213 60.2195 70.7582 59.8615 71.9492 59.3516C72.6607 58.417 73.2467 57.408 73.707 56.3242Z" fill="#031555"/>
<path opacity="0.974" fill-rule="evenodd" clip-rule="evenodd" d="M97.3398 123.902C96.5586 123.902 95.7773 123.902 94.9961 123.902C94.3105 123.54 93.7572 123.019 93.3359 122.34C89.5004 116.649 85.6268 110.985 81.7148 105.348C91.8676 103.187 100.364 98.2389 107.203 90.5039C110.855 95.5242 114.435 100.602 117.945 105.738C119.089 108.438 118.242 110.065 115.406 110.621C110.809 109.753 106.219 108.939 101.637 108.18C100.746 112.969 99.802 117.754 98.8047 122.535C98.3367 123.037 97.8484 123.492 97.3398 123.902Z" fill="#031555"/>
<path opacity="0.974" fill-rule="evenodd" clip-rule="evenodd" d="M52.809 123.902C52.0277 123.902 51.2465 123.902 50.4652 123.902C49.7394 123.404 49.1861 122.753 48.805 121.949C47.9355 117.35 47.0566 112.76 46.1683 108.18C41.5937 108.98 37.0039 109.794 32.3988 110.621C29.5615 110.06 28.7151 108.432 29.8597 105.738C33.3273 100.691 36.8429 95.6781 40.4066 90.6992C47.3295 98.3437 55.8256 103.292 65.8949 105.543C62.048 111.115 58.2394 116.714 54.4691 122.34C54.0478 123.019 53.4945 123.54 52.809 123.902Z" fill="#031555"/>
</g>
<defs>
<clipPath id="clip0_57_1871">
<rect width="100" height="100" fill="white" transform="translate(24 24)"/>
</clipPath>
</defs>
</svg>
