<svg width="41" height="40" viewBox="0 0 41 40" fill="none" xmlns="http://www.w3.org/2000/svg">
<g clip-path="url(#clip0_1266_11938)">
<path opacity="0.995" fill-rule="evenodd" clip-rule="evenodd" d="M40.461 17.461C40.461 17.9818 40.461 18.5026 40.461 19.0235C40.3213 19.5056 40.126 19.9744 39.8751 20.4297C39.5641 20.806 39.2385 21.1705 38.8985 21.5235C39.9259 23.1551 39.8868 24.7697 38.7813 26.3672C38.5339 26.6146 38.2866 26.862 38.0391 27.1094C39.0533 28.6501 39.0662 30.1996 38.0782 31.7578C37.8171 32.11 37.5177 32.4225 37.1798 32.6953C38.3004 34.4978 38.1832 36.2165 36.8282 37.8516C36.3069 38.3534 35.6948 38.7049 34.9923 38.9063C29.9697 39.0353 24.9437 39.0614 19.9141 38.9844C18.8826 38.8892 17.867 38.7068 16.8673 38.4375C15.3198 37.9217 13.7834 37.3749 12.2579 36.7969C12.1669 29.8883 12.1538 22.9742 12.2188 16.0547C13.9818 14.1685 15.7266 12.2674 17.4532 10.3516C18.3421 9.33268 19.2015 8.29104 20.0313 7.22658C20.0573 5.53387 20.0834 3.84117 20.1095 2.14846C20.3048 1.53648 20.7084 1.13283 21.3204 0.93752C24.746 0.872348 27.1028 2.42183 28.3907 5.58596C28.5347 6.04561 28.6389 6.51436 28.7032 6.99221C28.7553 8.05994 28.7553 9.1276 28.7032 10.1953C28.3146 11.5433 27.9109 12.8844 27.4923 14.2188C30.8546 14.2209 34.214 14.273 37.5704 14.375C39.0905 14.8922 40.0541 15.9209 40.461 17.461Z" fill="#031555"/>
<path opacity="0.996" fill-rule="evenodd" clip-rule="evenodd" d="M0.460938 13.4766C3.58594 13.4766 6.71094 13.4766 9.83594 13.4766C9.83594 21.7578 9.83594 30.0391 9.83594 38.3203C6.71094 38.3203 3.58594 38.3203 0.460938 38.3203C0.460938 30.0391 0.460938 21.7578 0.460938 13.4766Z" fill="#031555"/>
</g>
<defs>
<clipPath id="clip0_1266_11938">
<rect width="40" height="40" fill="white" transform="translate(0.5)"/>
</clipPath>
</defs>
</svg>
