<svg width="100" height="100" viewBox="0 0 100 100" fill="none" xmlns="http://www.w3.org/2000/svg">
<g clip-path="url(#clip0_1270_13199)">
<path opacity="0.983" fill-rule="evenodd" clip-rule="evenodd" d="M99.9023 9.66796C99.9023 10.9049 99.9023 12.1419 99.9023 13.3789C98.1521 18.7991 94.4412 21.0451 88.7695 20.1172C85.8945 19.2346 83.8764 17.4117 82.7148 14.6484C79.4604 14.5508 76.2051 14.5182 72.9492 14.5508C72.8863 16.9428 72.9516 19.3191 73.1445 21.6797C77.124 23.2666 81.1604 24.6988 85.2539 25.9766C85.8268 26.4187 86.25 26.9723 86.5234 27.6367C86.9543 32.8619 86.7914 38.0703 86.0352 43.2617C89.8117 43.2291 93.5879 43.2617 97.3633 43.3594C98.577 43.5074 99.4232 44.1258 99.9023 45.2148C99.9023 45.931 99.9023 46.6471 99.9023 47.3633C99.4879 48.2002 98.8369 48.8187 97.9492 49.2187C93.5227 49.3164 89.0955 49.349 84.668 49.3164C84.11 51.9664 83.3939 54.5705 82.5195 57.1289C85.5256 57.0439 88.5205 57.1416 91.5039 57.4219C93.315 58.5332 93.7383 60.0631 92.7734 62.0117C92.3949 62.5207 91.9066 62.8787 91.3086 63.0859C87.5309 63.1185 83.7549 63.2162 79.9805 63.3789C77.4904 68.6924 74.4957 73.6728 70.9961 78.3203C74.967 78.418 78.9383 78.4506 82.9102 78.418C83.8504 75.7527 85.6732 73.9623 88.3789 73.0469C94.1395 71.8898 97.9807 74.0707 99.9023 79.5898C99.9023 80.892 99.9023 82.1939 99.9023 83.4961C98.0336 88.9029 94.2576 91.0838 88.5742 90.0391C85.7406 89.1586 83.7875 87.3357 82.7148 84.5703C77.0508 84.44 71.3867 84.44 65.7227 84.5703C61.3807 89.0451 56.6932 93.0814 51.6602 96.6797C50.4883 97.3307 49.3164 97.3307 48.1445 96.6797C43.1115 93.0814 38.424 89.0451 34.082 84.5703C28.418 84.44 22.7539 84.44 17.0898 84.5703C14.6606 89.6576 10.7218 91.3828 5.27344 89.7461C2.45514 88.5244 0.664768 86.441 -0.0976562 83.4961C-0.0976562 82.1939 -0.0976562 80.892 -0.0976562 79.5898C1.82409 74.0707 5.66523 71.8898 11.4258 73.0469C14.0657 73.9939 15.9537 75.7518 17.0898 78.3203C20.9961 78.4506 24.9023 78.4506 28.8086 78.3203C25.2635 73.6611 22.2687 68.648 19.8242 63.2812C16.0482 63.2162 12.2721 63.151 8.49609 63.0859C6.86121 62.3225 6.24271 61.0529 6.64062 59.2773C6.85635 58.3582 7.40973 57.7396 8.30078 57.4219C11.2843 57.1416 14.279 57.0439 17.2852 57.1289C16.4108 54.5705 15.6946 51.9664 15.1367 49.3164C10.7092 49.349 6.28207 49.3164 1.85547 49.2187C0.967813 48.8187 0.31677 48.2002 -0.0976562 47.3633C-0.0976562 46.6471 -0.0976562 45.931 -0.0976562 45.2148C0.381416 44.1258 1.22777 43.5074 2.44141 43.3594C6.21689 43.2617 9.99293 43.2291 13.7695 43.2617C13.0132 38.0705 12.8505 32.8621 13.2812 27.6367C13.5547 26.9723 13.9778 26.4187 14.5508 25.9766C18.6464 24.6982 22.6828 23.266 26.6602 21.6797C26.8531 19.3191 26.9184 16.9428 26.8555 14.5508C23.5996 14.5182 20.3443 14.5508 17.0898 14.6484C14.9162 19.2184 11.3355 21.0412 6.34766 20.1172C2.98457 19.0151 0.836125 16.769 -0.0976562 13.3789C-0.0976562 12.1419 -0.0976562 10.9049 -0.0976562 9.66796C1.65246 4.24778 5.3634 2.00169 11.0352 2.92968C13.8528 3.85888 15.871 5.68181 17.0898 8.39843C21.6471 8.46353 26.2045 8.52864 30.7617 8.59374C31.7525 8.86827 32.4361 9.48677 32.8125 10.4492C32.8775 13.3138 32.9428 16.1784 33.0078 19.043C36.2764 17.4256 39.434 15.6352 42.4805 13.6719C44.7424 12.0618 46.8908 10.304 48.9258 8.39843C49.8906 8.19521 50.802 8.3254 51.6602 8.78905C53.366 10.6476 55.2541 12.2752 57.3242 13.6719C60.3707 15.6352 63.5283 17.4256 66.7969 19.043C66.8619 16.1784 66.9271 13.3138 66.9922 10.4492C67.3686 9.48677 68.0521 8.86827 69.043 8.59374C73.6002 8.52864 78.1576 8.46353 82.7148 8.39843C84.6109 4.19441 87.8662 2.30638 92.4805 2.73437C96.3424 3.58626 98.8164 5.89745 99.9023 9.66796ZM49.707 28.0273C55.8627 28.4506 59.9318 31.5756 61.9141 37.4023C62.2469 39.1451 62.4748 40.9029 62.5977 42.6758C64.0885 43.2465 65.0975 44.2881 65.625 45.8008C65.9449 52.3019 66.0102 58.8123 65.8203 65.332C65.2861 67.3637 64.0166 68.6984 62.0117 69.3359C54.3359 69.6545 46.6535 69.7195 38.9648 69.5312C36.3494 69.2592 34.6893 67.8594 33.9844 65.332C33.7945 58.8123 33.8598 52.3019 34.1797 45.8008C34.6941 44.2773 35.7031 43.2355 37.207 42.6758C37.2107 34.149 41.3773 29.2662 49.707 28.0273ZM49.3164 52.0508C51.7746 52.1662 52.9465 53.4684 52.832 55.957C52.7082 59.2367 51.1457 60.3109 48.1445 59.1797C47.3055 58.2809 46.9148 57.2066 46.9727 55.957C46.8682 54.0771 47.6494 52.775 49.3164 52.0508Z" fill="white"/>
<path opacity="0.956" fill-rule="evenodd" clip-rule="evenodd" d="M48.3401 33.8867C54.1899 33.6168 56.9895 36.4162 56.7385 42.2851C52.1813 42.2851 47.6239 42.2851 43.0666 42.2851C42.7141 38.0939 44.4719 35.2945 48.3401 33.8867Z" fill="white"/>
</g>
<defs>
<clipPath id="clip0_1270_13199">
<rect width="100" height="100" fill="white"/>
</clipPath>
</defs>
</svg>
