<svg width="100" height="100" viewBox="0 0 100 100" fill="none" xmlns="http://www.w3.org/2000/svg">
<g clip-path="url(#clip0_1371_28590)">
<path opacity="0.987" fill-rule="evenodd" clip-rule="evenodd" d="M50.8791 -0.0986328C52.8322 -0.0986328 54.7853 -0.0986328 56.7385 -0.0986328C67.0248 1.82107 73.4375 7.87576 75.9767 18.0654C77.3105 27.4143 74.3158 35.0314 66.9924 40.917C65.9146 42.3598 65.3611 43.9875 65.3322 45.7998C62.4676 45.7998 59.6031 45.7998 56.7385 45.7998C56.7059 39.6146 56.7385 33.4297 56.8361 27.2451C58.8023 25.4096 60.6252 23.4564 62.3049 21.3857C62.4818 18.1035 61.017 17.0293 57.9103 18.1631C56.5728 19.5332 55.2057 20.8678 53.8088 22.167C52.4119 20.8678 51.0447 19.5332 49.7072 18.1631C46.6006 17.0293 45.1357 18.1035 45.3127 21.3857C46.9924 23.4564 48.8152 25.4096 50.7814 27.2451C50.8791 33.4297 50.9117 39.6146 50.8791 45.7998C48.0144 45.7998 45.15 45.7998 42.2853 45.7998C42.256 43.9863 41.7025 42.3586 40.6252 40.917C32.1297 33.9188 29.4605 25.1297 32.6174 14.5498C36.0213 6.29334 42.1084 1.41052 50.8791 -0.0986328Z" fill="white"/>
<path opacity="0.946" fill-rule="evenodd" clip-rule="evenodd" d="M18.2617 3.80773C19.0457 3.77541 19.827 3.80797 20.6055 3.90539C22.6557 5.02795 24.6738 6.19982 26.6602 7.42101C27.6617 8.86152 27.6942 10.3264 26.7578 11.8155C25.7412 12.5614 24.602 12.7893 23.3399 12.4991C21.2897 11.3766 19.2714 10.2047 17.2852 8.98351C16.2836 7.54301 16.2511 6.07816 17.1875 4.58898C17.5811 4.35527 17.9392 4.09486 18.2617 3.80773Z" fill="white"/>
<path opacity="0.946" fill-rule="evenodd" clip-rule="evenodd" d="M87.0117 3.80759C90.3873 3.52942 91.6568 5.02682 90.8203 8.29977C90.5273 8.72296 90.1693 9.08102 89.746 9.37399C87.9232 10.4157 86.1001 11.4573 84.2773 12.499C81.1197 12.9873 79.7851 11.6526 80.2734 8.49509C80.4687 8.16956 80.664 7.84405 80.8593 7.51852C82.9064 6.25196 84.9572 5.01497 87.0117 3.80759Z" fill="white"/>
<path opacity="0.968" fill-rule="evenodd" clip-rule="evenodd" d="M15.5273 19.4326C18.2625 19.4001 20.9969 19.4326 23.7305 19.5303C25.374 20.3795 25.9273 21.7141 25.3906 23.5342C25.0977 24.348 24.5443 24.9014 23.7305 25.1943C20.9961 25.3246 18.2617 25.3246 15.5273 25.1943C13.7745 24.1881 13.2862 22.7232 14.0625 20.7998C14.456 20.231 14.9443 19.7754 15.5273 19.4326Z" fill="white"/>
<path opacity="0.968" fill-rule="evenodd" clip-rule="evenodd" d="M83.8868 19.4326C86.6219 19.4001 89.3563 19.4326 92.0899 19.5303C93.7334 20.3795 94.2868 21.7141 93.75 23.5342C93.4571 24.348 92.9037 24.9014 92.0899 25.1943C89.3555 25.3246 86.6211 25.3246 83.8868 25.1943C82.1338 24.1881 81.6455 22.7232 82.4219 20.7998C82.8155 20.231 83.3037 19.7754 83.8868 19.4326Z" fill="white"/>
<path opacity="0.946" fill-rule="evenodd" clip-rule="evenodd" d="M23.3398 32.1279C26.4949 31.7347 27.8294 33.1019 27.3437 36.2294C27.1484 36.555 26.9531 36.8804 26.7578 37.206C24.7552 38.4843 22.7044 39.6888 20.6054 40.8193C17.4479 41.3076 16.1132 39.973 16.6015 36.8154C16.7968 36.4898 16.9921 36.1644 17.1874 35.8388C19.2344 34.5722 21.2853 33.3353 23.3398 32.1279Z" fill="white"/>
<path opacity="0.946" fill-rule="evenodd" clip-rule="evenodd" d="M81.9336 32.1278C82.7176 32.0954 83.4988 32.128 84.2773 32.2255C86.3275 33.3482 88.3457 34.52 90.332 35.7411C91.2889 37.0993 91.3539 38.4991 90.5273 39.9403C89.5398 40.8724 88.368 41.1653 87.0117 40.8193C84.9615 39.6966 82.9433 38.5247 80.957 37.3036C79.9555 35.8632 79.923 34.3984 80.8594 32.9091C81.2529 32.6753 81.6111 32.415 81.9336 32.1278Z" fill="white"/>
<path opacity="0.986" fill-rule="evenodd" clip-rule="evenodd" d="M42.2851 51.6592C49.9673 51.6592 57.6497 51.6592 65.3319 51.6592C65.7734 54.4025 65.0571 56.7789 63.1835 58.7881C62.2487 59.5158 61.2071 60.0367 60.0585 60.3506C55.8919 60.4809 51.7251 60.4809 47.5585 60.3506C44.7933 59.6688 43.0681 57.9436 42.3827 55.1748C42.2853 54.0047 42.2527 52.8328 42.2851 51.6592Z" fill="white"/>
<path opacity="0.997" fill-rule="evenodd" clip-rule="evenodd" d="M12.0117 99.9014C8.56119 99.9014 5.11068 99.9014 1.66016 99.9014C1.36974 99.6467 1.04422 99.419 0.683594 99.2178C0.449887 98.8243 0.189469 98.4661 -0.0976562 98.1436C-0.0976562 85.6436 -0.0976562 73.1436 -0.0976562 60.6436C0.256799 59.8665 0.842736 59.3131 1.66016 58.9834C4.52475 58.8532 7.38932 58.8532 10.2539 58.9834C11.0677 59.2764 11.6211 59.8297 11.9141 60.6436C12.0117 73.7293 12.0443 86.8153 12.0117 99.9014Z" fill="white"/>
<path opacity="0.991" fill-rule="evenodd" clip-rule="evenodd" d="M99.9023 65.331C99.9023 66.5029 99.9023 67.6748 99.9023 68.8467C99.526 69.8598 99.0377 70.8363 98.4375 71.7764C90.7818 79.2369 83.067 86.6262 75.293 93.9443C71.2154 97.2207 66.593 99.2062 61.4258 99.9014C46.9076 99.9014 32.3893 99.9014 17.8711 99.9014C17.8711 88.0523 17.8711 76.2035 17.8711 64.3545C19.9688 63.3713 22.1172 62.4924 24.3164 61.7178C30.407 60.2275 36.0711 61.2041 41.3086 64.6474C42.3875 65.0637 43.4943 65.3892 44.6289 65.624C51.2654 65.8687 57.9061 65.9988 64.5508 66.0146C68.9062 67.6611 70.5012 70.7537 69.3359 75.292C68.4082 77.457 66.8131 78.8566 64.5508 79.4912C57.6422 79.4976 50.741 79.6279 43.8477 79.8818C41.6701 81.4162 41.54 83.109 43.457 84.9599C43.9039 85.1205 44.3598 85.2508 44.8242 85.3506C50.8789 85.4808 56.9336 85.4808 62.9883 85.3506C70.5809 84.5613 74.7477 80.3621 75.4883 72.7529C75.343 71.7064 75.2453 70.6648 75.1953 69.6279C79.9387 66.1873 84.7891 62.8996 89.7461 59.7646C94.8211 58.6224 98.2066 60.4779 99.9023 65.331Z" fill="white"/>
</g>
<defs>
<clipPath id="clip0_1371_28590">
<rect width="100" height="100" fill="white" transform="translate(0 -0.000976562)"/>
</clipPath>
</defs>
</svg>
