<svg width="100" height="100" viewBox="0 0 100 100" fill="none" xmlns="http://www.w3.org/2000/svg">
<path opacity="0.972" fill-rule="evenodd" clip-rule="evenodd" d="M48.7303 9.86239C50.2316 9.56864 51.5012 9.95926 52.5388 11.0343C53.3529 13.3465 54.1668 15.6578 54.9803 17.9679C57.324 18.033 59.6678 18.0981 62.0115 18.1632C64.564 19.1798 65.1826 20.905 63.867 23.3389C62.1318 24.7487 60.3414 26.0835 58.4959 27.3429C58.2861 27.4872 58.1558 27.6825 58.1053 27.9288C58.8283 30.0325 59.5119 32.1485 60.156 34.2764C60.1894 36.9768 58.8549 38.1813 56.1521 37.8897C53.9853 36.5696 51.8693 35.17 49.8045 33.6905C47.8012 35.1638 45.7504 36.5636 43.6521 37.8897C41.2969 38.2102 39.9297 37.2011 39.5506 34.8624C40.1877 32.4952 40.9039 30.1514 41.699 27.8311C39.839 26.2651 37.9185 24.7679 35.9373 23.3389C34.6217 20.905 35.2402 19.1798 37.7928 18.1632C40.2008 18.0655 42.6096 18.033 45.0193 18.0655C45.6303 15.679 46.3791 13.3353 47.2654 11.0343C47.6783 10.5224 48.1666 10.1318 48.7303 9.86239Z" fill="white"/>
<path opacity="0.972" fill-rule="evenodd" clip-rule="evenodd" d="M20.9961 32.5186C26.5012 32.8805 29.4959 35.8102 29.9805 41.3076C29.6035 46.7301 26.7064 49.6598 21.2891 50.0967C15.8698 49.6578 12.9727 46.7281 12.5977 41.3076C12.9538 36.0041 15.7533 33.0744 20.9961 32.5186Z" fill="white"/>
<path opacity="0.972" fill-rule="evenodd" clip-rule="evenodd" d="M78.418 32.5186C83.933 32.9229 86.8627 35.8852 87.207 41.4053C86.7846 46.7756 83.8875 49.6727 78.5156 50.0967C73.0982 49.6598 70.2012 46.7301 69.8242 41.3076C70.2928 35.993 73.1574 33.0633 78.418 32.5186Z" fill="white"/>
<path opacity="0.98" fill-rule="evenodd" clip-rule="evenodd" d="M48.3399 43.2607C54.2231 42.7341 58.4873 45.0779 61.1328 50.2919C62.9432 55.6318 61.8037 60.2216 57.7149 64.0615C52.5486 67.4179 47.4705 67.2876 42.4805 63.6708C38.7113 59.7335 37.7672 55.2087 39.6485 50.0966C41.4838 46.4328 44.3809 44.154 48.3399 43.2607Z" fill="white"/>
<path opacity="0.977" fill-rule="evenodd" clip-rule="evenodd" d="M12.4023 49.3155C12.6077 49.2864 12.8031 49.3188 12.9882 49.4132C17.5416 53.5569 22.4894 54.0776 27.832 50.9757C28.5177 50.4196 29.2013 49.8663 29.8827 49.3155C34.3835 52.0975 36.5646 56.1665 36.4257 61.5225C36.9994 64.1553 36.0228 65.8479 33.496 66.6007C25.3579 66.7309 17.22 66.7309 9.08197 66.6007C7.73554 66.3612 6.79154 65.6124 6.24994 64.3546C5.20488 58.0055 7.25566 52.9924 12.4023 49.3155Z" fill="white"/>
<path opacity="0.976" fill-rule="evenodd" clip-rule="evenodd" d="M69.6291 49.3155C69.8346 49.2864 70.0299 49.3188 70.215 49.4132C74.608 53.3809 79.4256 53.9669 84.6682 51.171C85.5396 50.6247 86.3533 50.0061 87.1096 49.3155C91.6103 52.0975 93.7914 56.1665 93.6525 61.5225C94.2262 64.1553 93.2496 65.8479 90.7228 66.6007C82.5848 66.7309 74.4469 66.7309 66.3088 66.6007C64.9623 66.3612 64.0184 65.6124 63.4768 64.3546C62.5008 58.0633 64.5516 53.0503 69.6291 49.3155Z" fill="white"/>
<path opacity="0.982" fill-rule="evenodd" clip-rule="evenodd" d="M40.3322 65.5264C45.5986 69.9379 51.3279 70.6215 57.5197 67.5771C58.4662 66.941 59.3775 66.2574 60.2541 65.5264C68.6144 70.1367 72.2277 77.2332 71.0939 86.8154C70.5103 88.6879 69.2408 89.7621 67.2853 90.0381C55.9572 90.1684 44.6291 90.1684 33.3009 90.0381C31.5244 89.824 30.3199 88.8801 29.6877 87.2061C28.308 77.4883 31.856 70.2617 40.3322 65.5264Z" fill="white"/>
</svg>
