<svg width="100" height="100" viewBox="0 0 100 100" fill="none" xmlns="http://www.w3.org/2000/svg">
<g clip-path="url(#clip0_1371_28613)">
<path opacity="0.989" fill-rule="evenodd" clip-rule="evenodd" d="M41.1133 -0.0986328C46.9727 -0.0986328 52.832 -0.0986328 58.6914 -0.0986328C58.6287 2.2283 58.6937 4.53951 58.8867 6.83496C64.3271 7.94488 69.3728 9.99566 74.0234 12.9873C75.708 11.4984 77.3355 9.9359 78.9062 8.2998C83.1055 12.499 87.3047 16.6982 91.5039 20.8975C89.8678 22.4682 88.3053 24.0957 86.8164 25.7803C89.808 30.4309 91.8588 35.4766 92.9688 40.917C95.2643 41.11 97.5754 41.175 99.9023 41.1123C99.9023 46.9717 99.9023 52.8311 99.9023 58.6904C97.5754 58.6277 95.2643 58.6928 92.9688 58.8857C91.8588 64.3262 89.808 69.3719 86.8164 74.0225C88.3053 75.707 89.8678 77.3346 91.5039 78.9053C87.3047 83.1045 83.1055 87.3037 78.9062 91.5029C77.3355 89.8668 75.708 88.3043 74.0234 86.8154C69.3728 89.807 64.3271 91.8578 58.8867 92.9678C58.6937 95.2633 58.6287 97.5744 58.6914 99.9014C52.832 99.9014 46.9727 99.9014 41.1133 99.9014C41.176 97.5744 41.1109 95.2633 40.918 92.9678C35.5039 91.7932 30.4584 89.7424 25.7812 86.8154C24.0967 88.3043 22.4691 89.8668 20.8984 91.5029C16.6992 87.3037 12.5 83.1045 8.30078 78.9053C9.93687 77.3346 11.4994 75.707 12.9883 74.0225C9.99664 69.3719 7.94586 64.3262 6.83594 58.8857C4.54049 58.6928 2.22928 58.6277 -0.0976562 58.6904C-0.0976562 52.8311 -0.0976562 46.9717 -0.0976562 41.1123C2.22928 41.175 4.54049 41.11 6.83594 40.917C7.94586 35.4766 9.99664 30.4309 12.9883 25.7803C11.4994 24.0957 9.93687 22.4682 8.30078 20.8975C12.5 16.6982 16.6992 12.499 20.8984 8.2998C22.4691 9.9359 24.0967 11.4984 25.7812 12.9873C30.4584 10.0603 35.5039 8.00951 40.918 6.83496C41.1109 4.53951 41.176 2.2283 41.1133 -0.0986328ZM49.707 23.5342C61.1822 24.1094 69.3527 29.5781 74.2188 39.9404C78.2494 51.65 75.7428 61.7086 66.6992 70.1162C55.5014 78.3193 44.3033 78.3193 33.1055 70.1162C24.0619 61.7086 21.5553 51.65 25.5859 39.9404C30.3867 29.7027 38.4271 24.234 49.707 23.5342Z" fill="black"/>
<path opacity="0.981" fill-rule="evenodd" clip-rule="evenodd" d="M46.9727 29.3934C57.157 28.6399 64.4813 32.8065 68.9453 41.8934C71.8828 49.9198 70.6459 57.2116 65.2344 63.7684C58.4172 70.5093 50.507 72.1694 41.5039 68.7489C33.6574 64.9421 29.6209 58.6596 29.3945 49.9012C29.6855 40.9884 33.8521 34.6407 41.8945 30.8583C43.5775 30.2432 45.2701 29.755 46.9727 29.3934ZM58.4961 40.1356C54.7242 44.0378 50.883 47.879 46.9727 51.6591C45.0195 49.771 43.0664 47.8831 41.1133 45.995C39.7461 47.2319 38.4439 48.5341 37.207 49.9012C40.3971 53.2216 43.6523 56.4768 46.9727 59.6669C52.1783 54.5589 57.3541 49.4157 62.5 44.2372C62.6303 44.1069 62.6303 43.9768 62.5 43.8466C61.2455 42.4934 59.9109 41.2563 58.4961 40.1356Z" fill="black"/>
</g>
<defs>
<clipPath id="clip0_1371_28613">
<rect width="100" height="100" fill="white" transform="translate(0 -0.000976562)"/>
</clipPath>
</defs>
</svg>
