<svg width="101" height="100" viewBox="0 0 101 100" fill="none" xmlns="http://www.w3.org/2000/svg">
<g clip-path="url(#clip0_34_3742)">
<path opacity="0.987" fill-rule="evenodd" clip-rule="evenodd" d="M50.2067 4.00391C51.2005 4.03303 52.0794 4.35855 52.8435 4.98047C55.13 8.93533 57.4413 12.8741 59.7771 16.7969C60.313 16.7931 60.8339 16.6629 61.3396 16.4062C63.5081 15.2935 65.7542 14.4146 68.0778 13.7695C70.5982 14.0814 71.64 15.5137 71.2028 18.0664C70.1401 23.5963 69.0985 29.1303 68.0778 34.668C67.9052 35.9471 67.2216 36.826 66.0271 37.3047C55.6105 37.435 45.1937 37.435 34.7771 37.3047C33.8982 36.9467 33.2796 36.3281 32.9216 35.4492C31.7898 29.5949 30.6831 23.7355 29.6013 17.8711C29.2814 14.7405 30.6812 13.4059 33.8005 13.8672C35.7116 14.6599 37.5997 15.5063 39.4646 16.4062C39.9702 16.6629 40.4911 16.7931 41.0271 16.7969C43.3628 12.8741 45.6741 8.93533 47.9607 4.98047C48.6239 4.40342 49.3726 4.07789 50.2067 4.00391Z" fill="white"/>
<path opacity="0.982" fill-rule="evenodd" clip-rule="evenodd" d="M48.0587 43.6524C54.6927 43.0125 59.4126 45.6818 62.2188 51.6602C64.0356 57.5803 62.5708 62.4955 57.8243 66.4063C54.1087 68.7809 50.1372 69.3016 45.9103 67.9688C39.9017 65.1664 37.2649 60.4465 38.0001 53.8086C39.305 48.3697 42.6579 44.9842 48.0587 43.6524Z" fill="white"/>
<path opacity="0.973" fill-rule="evenodd" clip-rule="evenodd" d="M15.246 49.9023C20.3431 49.3726 23.696 51.5211 25.3046 56.3476C25.9747 61.3994 23.9239 64.7521 19.1523 66.4062C14.6709 67.2361 11.3831 65.6412 9.28897 61.6211C7.9719 57.8539 8.72061 54.566 11.5351 51.7578C12.6832 50.9232 13.9202 50.3048 15.246 49.9023Z" fill="white"/>
<path opacity="0.973" fill-rule="evenodd" clip-rule="evenodd" d="M81.8476 49.9024C86.5089 49.3184 89.7968 51.1413 91.7109 55.3712C92.9953 60.4514 91.2701 64.0647 86.5351 66.211C83.0669 67.2233 80.0396 66.4747 77.4531 63.9649C75.1828 60.9497 74.7921 57.6944 76.2812 54.1993C77.5558 51.9768 79.4113 50.5446 81.8476 49.9024Z" fill="white"/>
<path opacity="0.98" fill-rule="evenodd" clip-rule="evenodd" d="M0.402344 85.4493C0.402344 83.6264 0.402344 81.8034 0.402344 79.9805C1.81643 74.7588 5.20186 71.6665 10.5586 70.7032C14.8555 70.5729 19.1523 70.5729 23.4492 70.7032C24.3875 70.775 25.2988 70.9704 26.1836 71.2891C21.4189 75.5852 19.1404 80.9563 19.3477 87.4024C13.6832 87.435 8.01916 87.4024 2.35547 87.3047C1.47266 86.9098 0.821621 86.2913 0.402344 85.4493Z" fill="white"/>
<path opacity="0.98" fill-rule="evenodd" clip-rule="evenodd" d="M100.402 79.9805C100.402 81.8034 100.402 83.6264 100.402 85.4493C99.983 86.2913 99.332 86.9098 98.4492 87.3047C92.7855 87.4024 87.1215 87.435 81.457 87.4024C81.6643 80.9563 79.3857 75.5852 74.6211 71.2891C75.5059 70.9704 76.4172 70.775 77.3555 70.7032C81.6523 70.5729 85.9492 70.5729 90.2461 70.7032C95.6029 71.6665 98.9883 74.7588 100.402 79.9805Z" fill="white"/>
<path opacity="0.989" fill-rule="evenodd" clip-rule="evenodd" d="M36.7305 74.9024C45.8454 74.8698 54.96 74.9024 64.0743 75C69.3342 76.3537 72.4266 79.7067 73.3516 85.0586C73.4819 87.793 73.4819 90.5274 73.3516 93.2617C73.0729 94.5166 72.3243 95.3305 71.1055 95.7032C57.3034 95.8334 43.5014 95.8334 29.6993 95.7032C28.4805 95.3305 27.7319 94.5166 27.4532 93.2617C27.3229 90.5274 27.3229 87.793 27.4532 85.0586C28.4147 79.7035 31.5071 76.3182 36.7305 74.9024Z" fill="white"/>
</g>
<defs>
<clipPath id="clip0_34_3742">
<rect width="100" height="100" fill="white" transform="translate(0.5)"/>
</clipPath>
</defs>
</svg>
