<svg width="1280" height="720" xmlns="http://www.w3.org/2000/svg" xmlns:xlink="http://www.w3.org/1999/xlink" overflow="hidden"><g><rect x="0" y="0" width="1280" height="720" fill="#FFFFFF"/><rect x="52" y="310" width="309" height="100" stroke="#0D0D0D" stroke-width="2.26667" stroke-miterlimit="8" fill="none"/><text fill="#0D0D0D" font-family="Calibri,Calibri_MSFontService,sans-serif" font-weight="400" font-size="45" transform="translate(161.066 375)">View</text><rect x="485" y="61" width="310" height="101" stroke="#0D0D0D" stroke-width="2.26667" stroke-miterlimit="8" fill="none"/><text fill="#0D0D0D" font-family="Calibri,Calibri_MSFontService,sans-serif" font-weight="400" font-size="45" transform="translate(547.743 126)">Controller</text><rect x="919" y="310" width="309" height="100" stroke="#0D0D0D" stroke-width="2.26667" stroke-miterlimit="8" fill="none"/><text fill="#0D0D0D" font-family="Calibri,Calibri_MSFontService,sans-serif" font-weight="400" font-size="45" transform="translate(1013.96 375)">Model</text><path d="M0.65683-0.923591 269.759 190.454 268.445 192.301-0.65683 0.923591ZM271.879 185.172 278.881 198.332 264.152 196.037Z" fill="#0D0D0D" transform="matrix(-1 0 0 1 484.881 112)"/><path d="M206.555 409.012 483.549 564.73 482.439 566.706 205.445 410.988ZM485.099 559.254 493.454 571.599 478.565 570.876Z" fill="#0D0D0D"/><path d="M1.13333-3.98768e-07 1.13343 286.382-1.13323 286.382-1.13333 3.98768e-07ZM6.66677 285.048 0.000104987 298.382-6.66657 285.048Z" fill="#0D0D0D" transform="matrix(1 0 0 -1 640 460.382)"/><path d="M1061.11 310.848 805.085 126.922 806.407 125.081 1062.43 309.007ZM802.939 132.194 796 119 810.718 121.365Z" fill="#0D0D0D"/><path d="M796.656 92.0756 1092.52 301.938 1091.21 303.787 795.344 93.9244ZM1094.63 296.653 1101.65 309.804 1086.92 307.528Z" fill="#0D0D0D"/><g><g><g><path d="M97.1729 220.247 289.074 220.247 288.579 210.099C287.601 195.612 284.19 165.664 281.266 152.138 278.332 137.652 274.417 125.095 258.308 117.367 245.619 111.087 239.262 108.673 233.412 108.673 229.993 108.673 227.058 109.639 224.616 110.602L224.616 108.188C237.316 97.5611 245.619 81.1445 245.619 62.3051 245.619 30.9117 222.177 4.82891 192.881 4.82891 164.073 4.82891 140.143 30.4271 140.143 62.3051 140.143 73.411 143.07 84.0352 148.446 93.2168 139.166 88.8724 133.304 86.937 128.919 86.937 126.469 86.937 124.519 87.4215 122.565 87.9033L122.565 85.9734C132.33 76.8001 138.191 63.7587 138.191 49.2665 138.186 22.2147 117.185 0 90.8161 0 64.9426 0 43.4547 22.2147 43.4547 49.2637 43.4547 64.2405 49.8088 77.7609 60.0586 86.9342L60.0586 88.3851C58.1121 87.416 55.6591 86.9342 53.2199 86.9342 47.8541 86.9342 41.4973 88.8696 29.2928 95.1467 14.1619 102.88 10.258 115.437 7.32321 128.478 4.38842 141.52 1.46189 170.014 0.484543 183.54L0 193.682 98.6348 193.682 97.1729 210.102 97.1729 220.247Z" fill="#FFFFFF" fill-rule="evenodd" transform="matrix(1.00059 0 0 1 495.377 461.377)"/><path d="M107.915 210.584C108.893 196.579 112.304 167.115 114.754 154.076 118.162 139.1 121.582 131.377 132.327 125.577 143.07 120.269 148.931 118.339 152.835 118.339 156.254 118.339 158.212 119.787 160.654 122.201L161.631 123.165C172.373 132.344 182.623 134.274 192.881 134.274 203.624 134.274 213.874 132.344 224.132 123.165L225.109 122.201C227.551 120.271 229.506 118.339 232.917 118.339 236.82 118.339 242.693 120.269 253.424 125.577 264.662 130.895 268.082 139.102 271.006 154.079 273.94 167.121 277.351 196.584 277.844 210.586L107.915 210.586 107.915 210.586ZM193.366 109.639C169.923 109.639 150.404 88.3851 150.404 61.8206 150.404 35.7378 169.439 14.0077 193.366 14.0077 216.808 14.0077 236.339 35.256 236.339 61.8206 236.339 88.3851 216.811 109.639 193.366 109.639L193.366 109.639ZM127.936 115.921C140.625 109.642 147.464 107.224 153.325 107.224L154.787 107.224C152.829 105.774 150.883 104.325 148.441 103.365 138.183 98.0457 132.814 96.1157 128.911 96.1157 125.48 96.1157 124.029 97.5639 121.576 99.4938L120.599 100.463C110.845 109.16 101.069 110.605 91.3061 110.605 81.5437 110.605 71.7785 109.157 62.0133 100.463L61.0359 99.4938C58.5939 97.5639 57.132 96.1157 53.7127 96.1157 50.2934 96.1157 44.4321 98.0457 34.1741 103.365 23.9161 108.684 20.505 115.921 17.5812 129.924 14.6464 142.486 11.7089 170.014 10.7315 183.54L98.6321 183.54C100.094 171.462 101.567 158.905 103.513 151.177 107.417 137.652 111.332 124.128 127.936 115.921ZM91.7962 88.8696C112.304 88.8696 129.392 70.9938 129.392 49.2637 129.392 27.5336 112.797 9.65783 91.7962 9.65783 71.2994 9.65783 54.2 27.5281 54.2 49.2637 54.2 70.9993 70.8039 88.8696 91.7962 88.8696Z" fill="#515150" fill-rule="evenodd" transform="matrix(1.00059 0 0 1 495.377 461.377)"/></g></g></g><text font-family="Calibri,Calibri_MSFontService,sans-serif" font-weight="400" font-size="35" transform="translate(216.327 196)">Send data</text><text font-family="Calibri,Calibri_MSFontService,sans-serif" font-weight="400" font-size="35" transform="translate(197.257 502)">Response</text><text font-family="Calibri,Calibri_MSFontService,sans-serif" font-weight="400" font-size="35" transform="translate(517.176 288)">Request</text><text font-family="Calibri,Calibri_MSFontService,sans-serif" font-weight="400" font-size="35" transform="translate(797.923 232)">Request</text><text font-family="Calibri,Calibri_MSFontService,sans-serif" font-weight="400" font-size="35" transform="translate(827.723 274)">info</text><text font-family="Calibri,Calibri_MSFontService,sans-serif" font-weight="400" font-size="35" transform="translate(932.951 157)">Response</text><text font-family="Calibri,Calibri_MSFontService,sans-serif" font-weight="400" font-size="35" transform="translate(973.024 199)">info</text></g></svg>